G04 #@! TF.FileFunction,Copper,L2,Bot,Signal*
%FSLAX46Y46*%
G04 Gerber Fmt 4.6, Leading zero omitted, Abs format (unit mm)*
G04 Created by KiCad (PCBNEW 4.0.6) date 02/07/20 08:18:11*
%MOMM*%
%LPD*%
G01*
G04 APERTURE LIST*
%ADD10C,0.100000*%
%ADD11R,2.000000X2.000000*%
%ADD12C,2.000000*%
%ADD13O,2.000000X2.000000*%
%ADD14R,1.800000X1.800000*%
%ADD15C,1.800000*%
%ADD16C,1.210000*%
%ADD17R,3.000000X4.000000*%
%ADD18O,3.000000X4.000000*%
%ADD19R,4.000000X3.000000*%
%ADD20O,4.000000X3.000000*%
%ADD21C,1.524000*%
%ADD22R,1.200000X1.200000*%
%ADD23C,1.200000*%
%ADD24O,1.040000X2.080000*%
%ADD25C,0.998000*%
%ADD26C,1.600000*%
%ADD27O,1.600000X1.600000*%
%ADD28R,1.524000X1.524000*%
%ADD29O,1.800000X1.800000*%
%ADD30R,1.250000X1.250000*%
%ADD31C,1.250000*%
%ADD32C,0.600000*%
%ADD33C,0.250000*%
G04 APERTURE END LIST*
D10*
D11*
X116687600Y-66573400D03*
D12*
X121687600Y-66573400D03*
D11*
X101574600Y-89204800D03*
D13*
X101574600Y-101904800D03*
D11*
X174523400Y-101295200D03*
D13*
X174523400Y-88595200D03*
D14*
X114884200Y-83642200D03*
D15*
X117424200Y-83642200D03*
D14*
X154813000Y-83210400D03*
D15*
X157353000Y-83210400D03*
D16*
X130541000Y-81599800D03*
X133081000Y-81599800D03*
D17*
X101473000Y-113842800D03*
D18*
X105435400Y-113842800D03*
X109397800Y-113842800D03*
D17*
X101600000Y-127685800D03*
D18*
X105562400Y-127685800D03*
X109524800Y-127685800D03*
D19*
X167640000Y-81762600D03*
D20*
X167640000Y-77800200D03*
X167640000Y-73837800D03*
D19*
X104978200Y-81076800D03*
D20*
X104978200Y-77114400D03*
X104978200Y-73152000D03*
D21*
X150418800Y-67513200D03*
X152450800Y-67513200D03*
D17*
X134670800Y-127228600D03*
D18*
X130708400Y-127228600D03*
X126746000Y-127228600D03*
D21*
X105537000Y-66395600D03*
X107569000Y-66395600D03*
D22*
X106146600Y-88850800D03*
D23*
X111226600Y-88850800D03*
X106146600Y-93930800D03*
X111226600Y-99010800D03*
X106146600Y-96470800D03*
X106146600Y-99010800D03*
X111226600Y-93930800D03*
X111226600Y-96470800D03*
D22*
X165100000Y-89536600D03*
D23*
X170180000Y-89536600D03*
X165100000Y-94616600D03*
X170180000Y-99696600D03*
X165100000Y-97156600D03*
X165100000Y-99696600D03*
X170180000Y-94616600D03*
X170180000Y-97156600D03*
D24*
X148539200Y-83210400D03*
X149809200Y-83210400D03*
X151079200Y-83210400D03*
X122199400Y-82169000D03*
X123469400Y-82169000D03*
X124739400Y-82169000D03*
D25*
X145311100Y-73785900D03*
X147854100Y-76326900D03*
X150394100Y-73785500D03*
X114932700Y-75284500D03*
X117475700Y-77825500D03*
X120015700Y-75284100D03*
D26*
X160324800Y-134289800D03*
D27*
X180644800Y-134289800D03*
D26*
X160705800Y-107569000D03*
D27*
X181025800Y-107569000D03*
D26*
X160578800Y-118033800D03*
D27*
X180898800Y-118033800D03*
D26*
X126669800Y-86385400D03*
D27*
X146989800Y-86385400D03*
D26*
X180390800Y-102920800D03*
D27*
X180390800Y-82600800D03*
D26*
X160299400Y-128295400D03*
D27*
X180619400Y-128295400D03*
D26*
X160883600Y-112649000D03*
D27*
X181203600Y-112649000D03*
D26*
X160655000Y-122885200D03*
D27*
X180975000Y-122885200D03*
D14*
X119303800Y-104698800D03*
D15*
X121843800Y-104698800D03*
X124383800Y-104698800D03*
X126923800Y-104698800D03*
X129463800Y-104698800D03*
X132003800Y-104698800D03*
X134543800Y-104698800D03*
X137083800Y-104698800D03*
X139623800Y-104698800D03*
X142163800Y-104698800D03*
X144703800Y-104698800D03*
X147243800Y-104698800D03*
X149783800Y-104698800D03*
X152323800Y-104698800D03*
X154863800Y-104698800D03*
X154863800Y-89458800D03*
X152323800Y-89458800D03*
X149783800Y-89458800D03*
X147243800Y-89458800D03*
X144703800Y-89458800D03*
X142163800Y-89458800D03*
X139623800Y-89458800D03*
X137083800Y-89458800D03*
X134543800Y-89458800D03*
X132003800Y-89458800D03*
X129463800Y-89458800D03*
X126923800Y-89458800D03*
X124383800Y-89458800D03*
X121843800Y-89458800D03*
X119303800Y-89458800D03*
D28*
X117805200Y-118071900D03*
D21*
X120345200Y-118071900D03*
X122885200Y-118071900D03*
X125425200Y-118071900D03*
X127965200Y-118071900D03*
X130505200Y-118071900D03*
X133045200Y-118071900D03*
X133045200Y-110883700D03*
X130505200Y-110883700D03*
X127965200Y-110883700D03*
X125425200Y-110883700D03*
X122885200Y-110883700D03*
X120345200Y-110883700D03*
X117805200Y-110883700D03*
X120345200Y-110883700D03*
D14*
X127431800Y-73279000D03*
D29*
X129971800Y-73279000D03*
X132511800Y-73279000D03*
D30*
X145028200Y-112166400D03*
D31*
X145028200Y-114706400D03*
X145028200Y-117246400D03*
X145028200Y-119786400D03*
X145028200Y-122326400D03*
X145028200Y-124866400D03*
X145028200Y-127406400D03*
X145028200Y-129946400D03*
X153828200Y-129946400D03*
X153828200Y-127406400D03*
X153828200Y-124866400D03*
X153828200Y-122326400D03*
X153828200Y-119786400D03*
X153828200Y-117246400D03*
X153828200Y-114706400D03*
X153828200Y-112166400D03*
D17*
X142951200Y-136982200D03*
D18*
X146913600Y-136982200D03*
X150876000Y-136982200D03*
X154838400Y-136982200D03*
D32*
X143256000Y-74549000D03*
X132080000Y-70358000D03*
X133223000Y-78994000D03*
X117602000Y-76581000D03*
X125095000Y-92710000D03*
X124206000Y-85217000D03*
X126873000Y-82550000D03*
X107950000Y-93599000D03*
X103886000Y-97282000D03*
X172212000Y-97663000D03*
X166878000Y-92837000D03*
X127889000Y-83693000D03*
X131318000Y-87122000D03*
X139700000Y-128016000D03*
X134493000Y-122936000D03*
X117856000Y-120396000D03*
X116332000Y-118745000D03*
X116967000Y-116078000D03*
X117221000Y-89662000D03*
X128270000Y-85090000D03*
X108077000Y-110998000D03*
X114173000Y-91567000D03*
X118745000Y-86995000D03*
X120777000Y-87249000D03*
X130302000Y-87249000D03*
X138430000Y-81026000D03*
X110007400Y-105156000D03*
X112826800Y-103936800D03*
X121208800Y-108381800D03*
X124409200Y-107696000D03*
X133985000Y-102616000D03*
X148590000Y-97663000D03*
X159004000Y-87249000D03*
X167513000Y-108458000D03*
X171704000Y-112649000D03*
X112776000Y-124333000D03*
X122174000Y-116205000D03*
X123698000Y-114681000D03*
X159893000Y-102362000D03*
X155702000Y-106934000D03*
X143383000Y-111506000D03*
X159639000Y-104775000D03*
X147828000Y-120269000D03*
X146685000Y-121412000D03*
X137033000Y-120523000D03*
X132842000Y-116205000D03*
X124968000Y-112268000D03*
X122682000Y-108966000D03*
X154559000Y-106934000D03*
X154686000Y-102616000D03*
X128143000Y-75438000D03*
X120015000Y-82042000D03*
X122174000Y-112141000D03*
X124841000Y-114808000D03*
X139192000Y-124079000D03*
X120015000Y-119507000D03*
X116205000Y-97409000D03*
X108839000Y-90043000D03*
X178181000Y-115316000D03*
X161417000Y-93091000D03*
X159893000Y-91567000D03*
X159893000Y-87757000D03*
X152527000Y-86995000D03*
X146812000Y-132842000D03*
X143256000Y-115443000D03*
X155575000Y-116459000D03*
X150368000Y-112903000D03*
D33*
X130541000Y-81599800D02*
X130556000Y-81661000D01*
X130556000Y-81661000D02*
X130810000Y-81407000D01*
X130810000Y-81407000D02*
X131699000Y-81407000D01*
X131699000Y-81407000D02*
X133477000Y-79629000D01*
X133477000Y-79629000D02*
X133604000Y-79629000D01*
X133604000Y-79629000D02*
X138684000Y-74549000D01*
X138684000Y-74549000D02*
X143256000Y-74549000D01*
X116687600Y-66573400D02*
X116840000Y-66675000D01*
X116840000Y-66675000D02*
X120523000Y-70358000D01*
X120523000Y-70358000D02*
X132080000Y-70358000D01*
X133223000Y-78994000D02*
X130556000Y-81661000D01*
X130556000Y-81661000D02*
X130541000Y-81599800D01*
X117602000Y-76581000D02*
X116332000Y-75311000D01*
X116332000Y-75311000D02*
X114935000Y-75311000D01*
X114935000Y-75311000D02*
X114932700Y-75284500D01*
X145311100Y-73785900D02*
X145288000Y-73787000D01*
X145288000Y-73787000D02*
X150368000Y-68707000D01*
X150368000Y-68707000D02*
X150749000Y-68707000D01*
X150749000Y-68707000D02*
X150876000Y-68580000D01*
X150876000Y-68580000D02*
X151003000Y-68580000D01*
X151003000Y-68580000D02*
X151130000Y-68453000D01*
X151130000Y-68453000D02*
X151257000Y-68453000D01*
X151257000Y-68453000D02*
X152146000Y-67564000D01*
X152146000Y-67564000D02*
X152400000Y-67564000D01*
X152400000Y-67564000D02*
X152450800Y-67513200D01*
X121843800Y-89458800D02*
X125095000Y-92710000D01*
X162433000Y-122936000D02*
X180975000Y-122936000D01*
X180975000Y-122936000D02*
X180975000Y-122885200D01*
X122885200Y-118071900D02*
X122936000Y-118110000D01*
X122936000Y-118110000D02*
X124587000Y-119761000D01*
X124587000Y-119761000D02*
X145034000Y-119761000D01*
X145034000Y-119761000D02*
X145028200Y-119786400D01*
X127431800Y-73279000D02*
X127381000Y-73279000D01*
X127381000Y-73279000D02*
X128651000Y-74549000D01*
X128651000Y-74549000D02*
X133858000Y-74549000D01*
X133858000Y-74549000D02*
X134620000Y-73787000D01*
X134620000Y-73787000D02*
X145288000Y-73787000D01*
X145288000Y-73787000D02*
X145311100Y-73785900D01*
X121687600Y-66573400D02*
X121666000Y-66548000D01*
X121666000Y-66548000D02*
X120269000Y-65151000D01*
X120269000Y-65151000D02*
X115316000Y-65151000D01*
X115316000Y-65151000D02*
X114046000Y-66421000D01*
X114046000Y-66421000D02*
X107569000Y-66421000D01*
X107569000Y-66421000D02*
X107569000Y-66395600D01*
X125425200Y-110883700D02*
X125476000Y-110871000D01*
X125476000Y-110871000D02*
X122936000Y-110871000D01*
X122936000Y-110871000D02*
X122885200Y-110883700D01*
X145028200Y-122326400D02*
X145034000Y-122301000D01*
X145034000Y-122301000D02*
X153797000Y-122301000D01*
X153828200Y-122326400D02*
X153797000Y-122301000D01*
X153797000Y-122301000D02*
X154432000Y-121666000D01*
X154432000Y-121666000D02*
X161036000Y-121666000D01*
X161036000Y-121666000D02*
X161163000Y-121793000D01*
X161163000Y-121793000D02*
X161290000Y-121793000D01*
X161290000Y-121793000D02*
X162433000Y-122936000D01*
X153797000Y-122301000D02*
X153828200Y-122326400D01*
X101574600Y-89204800D02*
X101600000Y-89154000D01*
X101600000Y-89154000D02*
X101854000Y-88900000D01*
X101854000Y-88900000D02*
X106172000Y-88900000D01*
X106172000Y-88900000D02*
X106146600Y-88850800D01*
X111226600Y-88850800D02*
X111252000Y-88900000D01*
X111252000Y-88900000D02*
X114935000Y-85217000D01*
X114935000Y-85217000D02*
X124206000Y-85217000D01*
X126873000Y-82550000D02*
X133604000Y-82550000D01*
X133604000Y-82550000D02*
X134366000Y-81788000D01*
X134366000Y-81788000D02*
X150749000Y-81788000D01*
X150749000Y-81788000D02*
X150749000Y-82804000D01*
X150749000Y-82804000D02*
X151130000Y-83185000D01*
X151130000Y-83185000D02*
X151079200Y-83210400D01*
X107950000Y-93599000D02*
X106045000Y-95504000D01*
X106045000Y-95504000D02*
X105664000Y-95504000D01*
X105664000Y-95504000D02*
X103886000Y-97282000D01*
X172212000Y-97663000D02*
X170180000Y-95631000D01*
X170180000Y-95631000D02*
X169799000Y-95631000D01*
X169799000Y-95631000D02*
X169672000Y-95504000D01*
X169672000Y-95504000D02*
X169545000Y-95504000D01*
X169545000Y-95504000D02*
X166878000Y-92837000D01*
X124739400Y-82169000D02*
X124714000Y-82169000D01*
X124714000Y-82169000D02*
X126238000Y-83693000D01*
X126238000Y-83693000D02*
X127889000Y-83693000D01*
X131318000Y-87122000D02*
X132334000Y-88138000D01*
X132334000Y-88138000D02*
X155194000Y-88138000D01*
X155194000Y-88138000D02*
X155321000Y-88265000D01*
X155321000Y-88265000D02*
X155575000Y-88265000D01*
X155575000Y-88265000D02*
X155829000Y-88519000D01*
X155829000Y-88519000D02*
X166116000Y-88519000D01*
X166116000Y-88519000D02*
X167132000Y-89535000D01*
X167132000Y-89535000D02*
X170180000Y-89535000D01*
X170180000Y-89535000D02*
X170180000Y-89536600D01*
X170180000Y-89536600D02*
X170180000Y-89535000D01*
X170180000Y-89535000D02*
X171069000Y-88646000D01*
X171069000Y-88646000D02*
X174498000Y-88646000D01*
X174498000Y-88646000D02*
X174523400Y-88595200D01*
X160578800Y-118033800D02*
X160401000Y-118110000D01*
X160401000Y-118110000D02*
X160274000Y-118237000D01*
X160274000Y-118237000D02*
X144526000Y-118237000D01*
X144526000Y-118237000D02*
X143256000Y-116967000D01*
X143256000Y-116967000D02*
X119761000Y-116967000D01*
X119761000Y-116967000D02*
X118618000Y-118110000D01*
X118618000Y-118110000D02*
X117856000Y-118110000D01*
X117856000Y-118110000D02*
X117805200Y-118071900D01*
X160324800Y-134289800D02*
X156972000Y-130937000D01*
X156972000Y-130937000D02*
X144526000Y-130937000D01*
X144526000Y-130937000D02*
X141605000Y-128016000D01*
X141605000Y-128016000D02*
X139700000Y-128016000D01*
X134493000Y-122936000D02*
X132588000Y-121031000D01*
X132588000Y-121031000D02*
X124079000Y-121031000D01*
X124079000Y-121031000D02*
X123952000Y-120904000D01*
X123952000Y-120904000D02*
X123825000Y-120904000D01*
X123825000Y-120904000D02*
X123698000Y-120777000D01*
X123698000Y-120777000D02*
X123571000Y-120777000D01*
X123571000Y-120777000D02*
X123190000Y-120396000D01*
X123190000Y-120396000D02*
X117856000Y-120396000D01*
X116332000Y-118745000D02*
X116332000Y-116713000D01*
X116332000Y-116713000D02*
X116967000Y-116078000D01*
X117221000Y-89662000D02*
X120523000Y-86360000D01*
X120523000Y-86360000D02*
X126619000Y-86360000D01*
X126619000Y-86360000D02*
X126669800Y-86385400D01*
X128270000Y-85090000D02*
X128778000Y-84582000D01*
X128778000Y-84582000D02*
X152019000Y-84582000D01*
X152019000Y-84582000D02*
X153416000Y-83185000D01*
X153416000Y-83185000D02*
X154813000Y-83185000D01*
X154813000Y-83185000D02*
X154813000Y-83210400D01*
X180390800Y-102920800D02*
X180213000Y-102997000D01*
X180213000Y-102997000D02*
X170561000Y-112649000D01*
X170561000Y-112649000D02*
X160883600Y-112649000D01*
X160299400Y-128295400D02*
X157861000Y-125857000D01*
X157861000Y-125857000D02*
X144526000Y-125857000D01*
X144526000Y-125857000D02*
X143510000Y-124841000D01*
X143510000Y-124841000D02*
X128778000Y-124841000D01*
X128778000Y-124841000D02*
X128778000Y-125222000D01*
X128778000Y-125222000D02*
X126746000Y-127254000D01*
X126746000Y-127254000D02*
X126746000Y-127228600D01*
X126746000Y-127228600D02*
X126746000Y-127254000D01*
X126746000Y-127254000D02*
X124841000Y-125349000D01*
X124841000Y-125349000D02*
X103632000Y-125349000D01*
X103632000Y-125349000D02*
X103632000Y-125603000D01*
X103632000Y-125603000D02*
X101600000Y-127635000D01*
X101600000Y-127635000D02*
X101600000Y-127685800D01*
X105435400Y-113842800D02*
X105410000Y-113792000D01*
X105410000Y-113792000D02*
X105410000Y-113665000D01*
X105410000Y-113665000D02*
X108077000Y-110998000D01*
X114173000Y-91567000D02*
X118745000Y-86995000D01*
X120777000Y-87249000D02*
X121158000Y-87630000D01*
X121158000Y-87630000D02*
X126873000Y-87630000D01*
X126873000Y-87630000D02*
X127000000Y-87503000D01*
X127000000Y-87503000D02*
X127254000Y-87503000D01*
X127254000Y-87503000D02*
X127381000Y-87376000D01*
X127381000Y-87376000D02*
X127508000Y-87376000D01*
X127508000Y-87376000D02*
X127635000Y-87249000D01*
X127635000Y-87249000D02*
X130302000Y-87249000D01*
X138430000Y-81026000D02*
X143129000Y-76327000D01*
X143129000Y-76327000D02*
X147828000Y-76327000D01*
X147828000Y-76327000D02*
X147854100Y-76326900D01*
X109397800Y-113842800D02*
X117386100Y-113842800D01*
X117386100Y-113842800D02*
X120345200Y-110883700D01*
X109397800Y-113842800D02*
X109397800Y-105740200D01*
X109397800Y-105740200D02*
X109982000Y-105156000D01*
X109982000Y-105156000D02*
X110007400Y-105156000D01*
X112826800Y-103936800D02*
X117271800Y-108381800D01*
X117271800Y-108381800D02*
X121208800Y-108381800D01*
X124409200Y-107696000D02*
X125095000Y-107010200D01*
X125095000Y-107010200D02*
X131546600Y-107010200D01*
X131546600Y-107010200D02*
X132003800Y-106553000D01*
X132003800Y-106553000D02*
X132003800Y-104698800D01*
X133985000Y-102616000D02*
X138938000Y-97663000D01*
X138938000Y-97663000D02*
X148590000Y-97663000D01*
X159004000Y-87249000D02*
X162560000Y-83693000D01*
X162560000Y-83693000D02*
X170053000Y-83693000D01*
X170053000Y-83693000D02*
X171196000Y-82550000D01*
X171196000Y-82550000D02*
X180340000Y-82550000D01*
X180340000Y-82550000D02*
X180390800Y-82600800D01*
X129463800Y-104698800D02*
X129540000Y-104521000D01*
X129540000Y-104521000D02*
X130683000Y-103378000D01*
X130683000Y-103378000D02*
X155194000Y-103378000D01*
X155194000Y-103378000D02*
X155321000Y-103505000D01*
X155321000Y-103505000D02*
X155575000Y-103505000D01*
X155575000Y-103505000D02*
X158496000Y-106426000D01*
X158496000Y-106426000D02*
X161290000Y-106426000D01*
X161290000Y-106426000D02*
X163322000Y-108458000D01*
X163322000Y-108458000D02*
X167513000Y-108458000D01*
X171704000Y-112649000D02*
X181203600Y-112649000D01*
X112776000Y-124333000D02*
X117856000Y-119253000D01*
X117856000Y-119253000D02*
X118999000Y-119253000D01*
X118999000Y-119253000D02*
X120142000Y-118110000D01*
X120142000Y-118110000D02*
X120396000Y-118110000D01*
X120396000Y-118110000D02*
X120345200Y-118071900D01*
X122174000Y-116205000D02*
X123698000Y-114681000D01*
X165100000Y-97156600D02*
X165100000Y-97155000D01*
X165100000Y-97155000D02*
X159893000Y-102362000D01*
X155702000Y-106934000D02*
X155067000Y-106299000D01*
X155067000Y-106299000D02*
X149987000Y-106299000D01*
X149987000Y-106299000D02*
X149860000Y-106426000D01*
X149860000Y-106426000D02*
X149733000Y-106426000D01*
X149733000Y-106426000D02*
X145034000Y-111125000D01*
X145034000Y-111125000D02*
X144018000Y-111125000D01*
X144018000Y-111125000D02*
X143637000Y-111506000D01*
X143637000Y-111506000D02*
X143383000Y-111506000D01*
X165100000Y-99696600D02*
X165100000Y-99695000D01*
X165100000Y-99695000D02*
X160020000Y-104775000D01*
X160020000Y-104775000D02*
X159639000Y-104775000D01*
X147828000Y-120269000D02*
X146685000Y-121412000D01*
X107188000Y-96520000D02*
X106172000Y-96520000D01*
X106172000Y-96520000D02*
X106146600Y-96470800D01*
X153828200Y-124866400D02*
X153797000Y-124841000D01*
X153797000Y-124841000D02*
X152273000Y-123317000D01*
X152273000Y-123317000D02*
X144526000Y-123317000D01*
X144526000Y-123317000D02*
X141732000Y-120523000D01*
X141732000Y-120523000D02*
X137033000Y-120523000D01*
X132842000Y-116205000D02*
X128905000Y-112268000D01*
X128905000Y-112268000D02*
X124968000Y-112268000D01*
X122682000Y-108966000D02*
X119761000Y-106045000D01*
X119761000Y-106045000D02*
X117983000Y-106045000D01*
X117983000Y-106045000D02*
X111887000Y-99949000D01*
X111887000Y-99949000D02*
X110744000Y-99949000D01*
X110744000Y-99949000D02*
X110617000Y-99822000D01*
X110617000Y-99822000D02*
X110490000Y-99822000D01*
X110490000Y-99822000D02*
X107188000Y-96520000D01*
X146558000Y-117221000D02*
X153797000Y-117221000D01*
X153797000Y-117221000D02*
X153828200Y-117246400D01*
X106146600Y-99010800D02*
X106172000Y-99060000D01*
X106172000Y-99060000D02*
X116840000Y-109728000D01*
X116840000Y-109728000D02*
X133477000Y-109728000D01*
X133477000Y-109728000D02*
X133604000Y-109855000D01*
X133604000Y-109855000D02*
X133731000Y-109855000D01*
X133731000Y-109855000D02*
X140081000Y-116205000D01*
X140081000Y-116205000D02*
X145288000Y-116205000D01*
X145288000Y-116205000D02*
X145415000Y-116332000D01*
X145415000Y-116332000D02*
X145669000Y-116332000D01*
X145669000Y-116332000D02*
X146558000Y-117221000D01*
X128651000Y-90551000D02*
X127508000Y-89408000D01*
X127508000Y-89408000D02*
X126873000Y-89408000D01*
X126873000Y-89408000D02*
X126923800Y-89458800D01*
X153828200Y-129946400D02*
X153797000Y-129921000D01*
X153797000Y-129921000D02*
X152273000Y-128397000D01*
X152273000Y-128397000D02*
X144526000Y-128397000D01*
X144526000Y-128397000D02*
X143383000Y-127254000D01*
X143383000Y-127254000D02*
X134620000Y-127254000D01*
X134620000Y-127254000D02*
X134670800Y-127228600D01*
X145028200Y-112166400D02*
X145034000Y-112141000D01*
X145034000Y-112141000D02*
X150241000Y-106934000D01*
X150241000Y-106934000D02*
X154559000Y-106934000D01*
X154686000Y-102616000D02*
X142875000Y-90805000D01*
X142875000Y-90805000D02*
X129286000Y-90805000D01*
X129286000Y-90805000D02*
X129159000Y-90678000D01*
X129159000Y-90678000D02*
X128905000Y-90678000D01*
X128905000Y-90678000D02*
X128778000Y-90551000D01*
X128778000Y-90551000D02*
X128651000Y-90551000D01*
X153797000Y-112141000D02*
X145034000Y-112141000D01*
X145034000Y-112141000D02*
X145028200Y-112166400D01*
X153828200Y-112166400D02*
X153797000Y-112141000D01*
X128143000Y-75438000D02*
X122809000Y-80772000D01*
X122809000Y-80772000D02*
X121285000Y-80772000D01*
X121285000Y-80772000D02*
X120015000Y-82042000D01*
X122174000Y-112141000D02*
X124841000Y-114808000D01*
X139192000Y-124079000D02*
X135509000Y-120396000D01*
X135509000Y-120396000D02*
X124333000Y-120396000D01*
X124333000Y-120396000D02*
X124206000Y-120269000D01*
X124206000Y-120269000D02*
X124079000Y-120269000D01*
X124079000Y-120269000D02*
X123317000Y-119507000D01*
X123317000Y-119507000D02*
X120015000Y-119507000D01*
X116205000Y-97409000D02*
X108839000Y-90043000D01*
X180898800Y-118033800D02*
X178181000Y-115316000D01*
X161417000Y-93091000D02*
X159893000Y-91567000D01*
X159893000Y-87757000D02*
X159766000Y-87884000D01*
X159766000Y-87884000D02*
X158623000Y-87884000D01*
X158623000Y-87884000D02*
X157734000Y-86995000D01*
X157734000Y-86995000D02*
X152527000Y-86995000D01*
X123469400Y-82169000D02*
X123444000Y-82169000D01*
X123444000Y-82169000D02*
X123444000Y-83185000D01*
X123444000Y-83185000D02*
X125476000Y-85217000D01*
X125476000Y-85217000D02*
X127127000Y-85217000D01*
X127127000Y-85217000D02*
X127254000Y-85344000D01*
X127254000Y-85344000D02*
X127381000Y-85344000D01*
X127381000Y-85344000D02*
X128397000Y-86360000D01*
X128397000Y-86360000D02*
X146939000Y-86360000D01*
X146939000Y-86360000D02*
X146989800Y-86385400D01*
X142951200Y-136982200D02*
X143002000Y-137033000D01*
X143002000Y-137033000D02*
X143002000Y-136652000D01*
X143002000Y-136652000D02*
X146812000Y-132842000D01*
X143256000Y-115443000D02*
X143764000Y-114935000D01*
X143764000Y-114935000D02*
X144145000Y-114935000D01*
X144145000Y-114935000D02*
X144399000Y-114681000D01*
X144399000Y-114681000D02*
X145034000Y-114681000D01*
X145034000Y-114681000D02*
X145028200Y-114706400D01*
X144526000Y-114681000D02*
X145034000Y-114681000D01*
X145034000Y-114681000D02*
X145028200Y-114706400D01*
X134543800Y-104698800D02*
X144526000Y-114681000D01*
X155575000Y-116459000D02*
X153797000Y-114681000D01*
X153797000Y-114681000D02*
X153828200Y-114706400D01*
X153828200Y-114706400D02*
X153797000Y-114681000D01*
X153797000Y-114681000D02*
X152019000Y-112903000D01*
X152019000Y-112903000D02*
X150368000Y-112903000D01*
M02*
