G04 #@! TF.FileFunction,Copper,L1,Top,Signal*
%FSLAX46Y46*%
G04 Gerber Fmt 4.6, Leading zero omitted, Abs format (unit mm)*
G04 Created by KiCad (PCBNEW 4.0.6) date 02/07/20 08:18:11*
%MOMM*%
%LPD*%
G01*
G04 APERTURE LIST*
%ADD10C,0.100000*%
%ADD11R,2.000000X2.000000*%
%ADD12C,2.000000*%
%ADD13O,2.000000X2.000000*%
%ADD14R,1.800000X1.800000*%
%ADD15C,1.800000*%
%ADD16C,1.210000*%
%ADD17R,3.000000X4.000000*%
%ADD18O,3.000000X4.000000*%
%ADD19R,4.000000X3.000000*%
%ADD20O,4.000000X3.000000*%
%ADD21C,1.524000*%
%ADD22R,1.200000X1.200000*%
%ADD23C,1.200000*%
%ADD24O,1.040000X2.080000*%
%ADD25C,0.998000*%
%ADD26C,1.600000*%
%ADD27O,1.600000X1.600000*%
%ADD28R,1.524000X1.524000*%
%ADD29O,1.800000X1.800000*%
%ADD30R,1.250000X1.250000*%
%ADD31C,1.250000*%
%ADD32C,0.600000*%
%ADD33C,0.250000*%
G04 APERTURE END LIST*
D10*
D11*
X116687600Y-66573400D03*
D12*
X121687600Y-66573400D03*
D11*
X101574600Y-89204800D03*
D13*
X101574600Y-101904800D03*
D11*
X174523400Y-101295200D03*
D13*
X174523400Y-88595200D03*
D14*
X114884200Y-83642200D03*
D15*
X117424200Y-83642200D03*
D14*
X154813000Y-83210400D03*
D15*
X157353000Y-83210400D03*
D16*
X130541000Y-81599800D03*
X133081000Y-81599800D03*
D17*
X101473000Y-113842800D03*
D18*
X105435400Y-113842800D03*
X109397800Y-113842800D03*
D17*
X101600000Y-127685800D03*
D18*
X105562400Y-127685800D03*
X109524800Y-127685800D03*
D19*
X167640000Y-81762600D03*
D20*
X167640000Y-77800200D03*
X167640000Y-73837800D03*
D19*
X104978200Y-81076800D03*
D20*
X104978200Y-77114400D03*
X104978200Y-73152000D03*
D21*
X150418800Y-67513200D03*
X152450800Y-67513200D03*
D17*
X134670800Y-127228600D03*
D18*
X130708400Y-127228600D03*
X126746000Y-127228600D03*
D21*
X105537000Y-66395600D03*
X107569000Y-66395600D03*
D22*
X106146600Y-88850800D03*
D23*
X111226600Y-88850800D03*
X106146600Y-93930800D03*
X111226600Y-99010800D03*
X106146600Y-96470800D03*
X106146600Y-99010800D03*
X111226600Y-93930800D03*
X111226600Y-96470800D03*
D22*
X165100000Y-89536600D03*
D23*
X170180000Y-89536600D03*
X165100000Y-94616600D03*
X170180000Y-99696600D03*
X165100000Y-97156600D03*
X165100000Y-99696600D03*
X170180000Y-94616600D03*
X170180000Y-97156600D03*
D24*
X148539200Y-83210400D03*
X149809200Y-83210400D03*
X151079200Y-83210400D03*
X122199400Y-82169000D03*
X123469400Y-82169000D03*
X124739400Y-82169000D03*
D25*
X145311100Y-73785900D03*
X147854100Y-76326900D03*
X150394100Y-73785500D03*
X114932700Y-75284500D03*
X117475700Y-77825500D03*
X120015700Y-75284100D03*
D26*
X160324800Y-134289800D03*
D27*
X180644800Y-134289800D03*
D26*
X160705800Y-107569000D03*
D27*
X181025800Y-107569000D03*
D26*
X160578800Y-118033800D03*
D27*
X180898800Y-118033800D03*
D26*
X126669800Y-86385400D03*
D27*
X146989800Y-86385400D03*
D26*
X180390800Y-102920800D03*
D27*
X180390800Y-82600800D03*
D26*
X160299400Y-128295400D03*
D27*
X180619400Y-128295400D03*
D26*
X160883600Y-112649000D03*
D27*
X181203600Y-112649000D03*
D26*
X160655000Y-122885200D03*
D27*
X180975000Y-122885200D03*
D14*
X119303800Y-104698800D03*
D15*
X121843800Y-104698800D03*
X124383800Y-104698800D03*
X126923800Y-104698800D03*
X129463800Y-104698800D03*
X132003800Y-104698800D03*
X134543800Y-104698800D03*
X137083800Y-104698800D03*
X139623800Y-104698800D03*
X142163800Y-104698800D03*
X144703800Y-104698800D03*
X147243800Y-104698800D03*
X149783800Y-104698800D03*
X152323800Y-104698800D03*
X154863800Y-104698800D03*
X154863800Y-89458800D03*
X152323800Y-89458800D03*
X149783800Y-89458800D03*
X147243800Y-89458800D03*
X144703800Y-89458800D03*
X142163800Y-89458800D03*
X139623800Y-89458800D03*
X137083800Y-89458800D03*
X134543800Y-89458800D03*
X132003800Y-89458800D03*
X129463800Y-89458800D03*
X126923800Y-89458800D03*
X124383800Y-89458800D03*
X121843800Y-89458800D03*
X119303800Y-89458800D03*
D28*
X117805200Y-118071900D03*
D21*
X120345200Y-118071900D03*
X122885200Y-118071900D03*
X125425200Y-118071900D03*
X127965200Y-118071900D03*
X130505200Y-118071900D03*
X133045200Y-118071900D03*
X133045200Y-110883700D03*
X130505200Y-110883700D03*
X127965200Y-110883700D03*
X125425200Y-110883700D03*
X122885200Y-110883700D03*
X120345200Y-110883700D03*
X117805200Y-110883700D03*
X120345200Y-110883700D03*
D14*
X127431800Y-73279000D03*
D29*
X129971800Y-73279000D03*
X132511800Y-73279000D03*
D30*
X145028200Y-112166400D03*
D31*
X145028200Y-114706400D03*
X145028200Y-117246400D03*
X145028200Y-119786400D03*
X145028200Y-122326400D03*
X145028200Y-124866400D03*
X145028200Y-127406400D03*
X145028200Y-129946400D03*
X153828200Y-129946400D03*
X153828200Y-127406400D03*
X153828200Y-124866400D03*
X153828200Y-122326400D03*
X153828200Y-119786400D03*
X153828200Y-117246400D03*
X153828200Y-114706400D03*
X153828200Y-112166400D03*
D17*
X142951200Y-136982200D03*
D18*
X146913600Y-136982200D03*
X150876000Y-136982200D03*
X154838400Y-136982200D03*
D32*
X143256000Y-74549000D03*
X132080000Y-70358000D03*
X133223000Y-78994000D03*
X117602000Y-76581000D03*
X125095000Y-92710000D03*
X124206000Y-85217000D03*
X126873000Y-82550000D03*
X107950000Y-93599000D03*
X103886000Y-97282000D03*
X172212000Y-97663000D03*
X166878000Y-92837000D03*
X127889000Y-83693000D03*
X131318000Y-87122000D03*
X139700000Y-128016000D03*
X134493000Y-122936000D03*
X117856000Y-120396000D03*
X116332000Y-118745000D03*
X116967000Y-116078000D03*
X117221000Y-89662000D03*
X128270000Y-85090000D03*
X108077000Y-110998000D03*
X114173000Y-91567000D03*
X118745000Y-86995000D03*
X120777000Y-87249000D03*
X130302000Y-87249000D03*
X138430000Y-81026000D03*
X110007400Y-105156000D03*
X112826800Y-103936800D03*
X121208800Y-108381800D03*
X124409200Y-107696000D03*
X133985000Y-102616000D03*
X148590000Y-97663000D03*
X159004000Y-87249000D03*
X167513000Y-108458000D03*
X171704000Y-112649000D03*
X112776000Y-124333000D03*
X122174000Y-116205000D03*
X123698000Y-114681000D03*
X159893000Y-102362000D03*
X155702000Y-106934000D03*
X143383000Y-111506000D03*
X159639000Y-104775000D03*
X147828000Y-120269000D03*
X146685000Y-121412000D03*
X137033000Y-120523000D03*
X132842000Y-116205000D03*
X124968000Y-112268000D03*
X122682000Y-108966000D03*
X154559000Y-106934000D03*
X154686000Y-102616000D03*
X128143000Y-75438000D03*
X120015000Y-82042000D03*
X122174000Y-112141000D03*
X124841000Y-114808000D03*
X139192000Y-124079000D03*
X120015000Y-119507000D03*
X116205000Y-97409000D03*
X108839000Y-90043000D03*
X178181000Y-115316000D03*
X161417000Y-93091000D03*
X159893000Y-91567000D03*
X159893000Y-87757000D03*
X152527000Y-86995000D03*
X146812000Y-132842000D03*
X143256000Y-115443000D03*
X155575000Y-116459000D03*
X150368000Y-112903000D03*
D33*
X143256000Y-74549000D02*
X144907000Y-72898000D01*
X144907000Y-72898000D02*
X145034000Y-72898000D01*
X145034000Y-72898000D02*
X150418800Y-67513200D01*
X132080000Y-70358000D02*
X133731000Y-72009000D01*
X133731000Y-72009000D02*
X133858000Y-72009000D01*
X133858000Y-72009000D02*
X133858000Y-74549000D01*
X133858000Y-74549000D02*
X133223000Y-75184000D01*
X133223000Y-75184000D02*
X133223000Y-78994000D01*
X122199400Y-82169000D02*
X122174000Y-82169000D01*
X122174000Y-82169000D02*
X118364000Y-78359000D01*
X118364000Y-78359000D02*
X118364000Y-77470000D01*
X118364000Y-77470000D02*
X118237000Y-77343000D01*
X118237000Y-77343000D02*
X118237000Y-77216000D01*
X118237000Y-77216000D02*
X117602000Y-76581000D01*
X125095000Y-92710000D02*
X126873000Y-94488000D01*
X126873000Y-94488000D02*
X126873000Y-104648000D01*
X126873000Y-104648000D02*
X126923800Y-104698800D01*
X127431800Y-73279000D02*
X127381000Y-73279000D01*
X127381000Y-73279000D02*
X121666000Y-67564000D01*
X121666000Y-67564000D02*
X121666000Y-66548000D01*
X121666000Y-66548000D02*
X121687600Y-66573400D01*
X122199400Y-82169000D02*
X122174000Y-82169000D01*
X122174000Y-82169000D02*
X122555000Y-81788000D01*
X122555000Y-81788000D02*
X122555000Y-80772000D01*
X122555000Y-80772000D02*
X127381000Y-75946000D01*
X127381000Y-75946000D02*
X127381000Y-73279000D01*
X127381000Y-73279000D02*
X127431800Y-73279000D01*
X145311100Y-73785900D02*
X145288000Y-73787000D01*
X145288000Y-73787000D02*
X146939000Y-75438000D01*
X146939000Y-75438000D02*
X146939000Y-76581000D01*
X146939000Y-76581000D02*
X147066000Y-76708000D01*
X147066000Y-76708000D02*
X147066000Y-76835000D01*
X147066000Y-76835000D02*
X148590000Y-78359000D01*
X148590000Y-78359000D02*
X148590000Y-83185000D01*
X148590000Y-83185000D02*
X148539200Y-83210400D01*
X180975000Y-122885200D02*
X180975000Y-122936000D01*
X180975000Y-122936000D02*
X179705000Y-121666000D01*
X179705000Y-121666000D02*
X179705000Y-116840000D01*
X179705000Y-116840000D02*
X179959000Y-116586000D01*
X179959000Y-116586000D02*
X179959000Y-111506000D01*
X179959000Y-111506000D02*
X180975000Y-110490000D01*
X180975000Y-110490000D02*
X180975000Y-107569000D01*
X180975000Y-107569000D02*
X181025800Y-107569000D01*
X126923800Y-104698800D02*
X126746000Y-104775000D01*
X126746000Y-104775000D02*
X125476000Y-106045000D01*
X125476000Y-106045000D02*
X125476000Y-110871000D01*
X125476000Y-110871000D02*
X125425200Y-110883700D01*
X122199400Y-82169000D02*
X122174000Y-82169000D01*
X122174000Y-82169000D02*
X121793000Y-82550000D01*
X121793000Y-82550000D02*
X121793000Y-89408000D01*
X121793000Y-89408000D02*
X121843800Y-89458800D01*
X122885200Y-110883700D02*
X122936000Y-110871000D01*
X122936000Y-110871000D02*
X122936000Y-118110000D01*
X122936000Y-118110000D02*
X122885200Y-118071900D01*
X180975000Y-122885200D02*
X180975000Y-122936000D01*
X180975000Y-122936000D02*
X180594000Y-123317000D01*
X180594000Y-123317000D02*
X180594000Y-128270000D01*
X180594000Y-128270000D02*
X180619400Y-128295400D01*
X180619400Y-128295400D02*
X180594000Y-128270000D01*
X180594000Y-128270000D02*
X180594000Y-134239000D01*
X180594000Y-134239000D02*
X180644800Y-134289800D01*
X145028200Y-119786400D02*
X145034000Y-119761000D01*
X145034000Y-119761000D02*
X145034000Y-122301000D01*
X153797000Y-122301000D02*
X153797000Y-119761000D01*
X153797000Y-119761000D02*
X153828200Y-119786400D01*
X145034000Y-122301000D02*
X145028200Y-122326400D01*
X153828200Y-122326400D02*
X153797000Y-122301000D01*
X124206000Y-85217000D02*
X126873000Y-82550000D01*
X111226600Y-88850800D02*
X111252000Y-88900000D01*
X111252000Y-88900000D02*
X107950000Y-92202000D01*
X107950000Y-92202000D02*
X107950000Y-93599000D01*
X103886000Y-97282000D02*
X101600000Y-99568000D01*
X101600000Y-99568000D02*
X101600000Y-101854000D01*
X101600000Y-101854000D02*
X101574600Y-101904800D01*
X174523400Y-101295200D02*
X174498000Y-101346000D01*
X174498000Y-101346000D02*
X172212000Y-99060000D01*
X172212000Y-99060000D02*
X172212000Y-97663000D01*
X166878000Y-92837000D02*
X165100000Y-91059000D01*
X165100000Y-91059000D02*
X165100000Y-89536600D01*
X127889000Y-83693000D02*
X131318000Y-87122000D01*
X117805200Y-118071900D02*
X117856000Y-118110000D01*
X117856000Y-118110000D02*
X114935000Y-115189000D01*
X114935000Y-115189000D02*
X114935000Y-83693000D01*
X114935000Y-83693000D02*
X114884200Y-83642200D01*
X139700000Y-128016000D02*
X136525000Y-124841000D01*
X136525000Y-124841000D02*
X136398000Y-124841000D01*
X136398000Y-124841000D02*
X134493000Y-122936000D01*
X117856000Y-120396000D02*
X116332000Y-118872000D01*
X116332000Y-118872000D02*
X116332000Y-118745000D01*
X116967000Y-116078000D02*
X115570000Y-114681000D01*
X115570000Y-114681000D02*
X115570000Y-97028000D01*
X115570000Y-97028000D02*
X116586000Y-96012000D01*
X116586000Y-96012000D02*
X116586000Y-89281000D01*
X116586000Y-89281000D02*
X117348000Y-88519000D01*
X117348000Y-88519000D02*
X117348000Y-84836000D01*
X117348000Y-84836000D02*
X117475000Y-84709000D01*
X117475000Y-84709000D02*
X117475000Y-83693000D01*
X117475000Y-83693000D02*
X117424200Y-83642200D01*
X117805200Y-110883700D02*
X117856000Y-110871000D01*
X117856000Y-110871000D02*
X117221000Y-110236000D01*
X117221000Y-110236000D02*
X117221000Y-89662000D01*
X126669800Y-86385400D02*
X126619000Y-86360000D01*
X126619000Y-86360000D02*
X127000000Y-86360000D01*
X127000000Y-86360000D02*
X128270000Y-85090000D01*
X157353000Y-83210400D02*
X157353000Y-83185000D01*
X157353000Y-83185000D02*
X160655000Y-86487000D01*
X160655000Y-86487000D02*
X160655000Y-107569000D01*
X160655000Y-107569000D02*
X160705800Y-107569000D01*
X133081000Y-81599800D02*
X133096000Y-81661000D01*
X133096000Y-81661000D02*
X132461000Y-81026000D01*
X132461000Y-81026000D02*
X132461000Y-73279000D01*
X132461000Y-73279000D02*
X132511800Y-73279000D01*
X101600000Y-127685800D02*
X101600000Y-127635000D01*
X101600000Y-127635000D02*
X101473000Y-127508000D01*
X101473000Y-127508000D02*
X101473000Y-113842800D01*
X126746000Y-127228600D02*
X126746000Y-127254000D01*
X126746000Y-127254000D02*
X125476000Y-125984000D01*
X125476000Y-125984000D02*
X125476000Y-118110000D01*
X125476000Y-118110000D02*
X125425200Y-118071900D01*
X160883600Y-112649000D02*
X160909000Y-112649000D01*
X160909000Y-112649000D02*
X161798000Y-113538000D01*
X161798000Y-113538000D02*
X161798000Y-118364000D01*
X161798000Y-118364000D02*
X161671000Y-118491000D01*
X161671000Y-118491000D02*
X161671000Y-118618000D01*
X161671000Y-118618000D02*
X161544000Y-118745000D01*
X161544000Y-118745000D02*
X161544000Y-118872000D01*
X161544000Y-118872000D02*
X160655000Y-119761000D01*
X160655000Y-119761000D02*
X160655000Y-122885200D01*
X160655000Y-122885200D02*
X160655000Y-122936000D01*
X160655000Y-122936000D02*
X160274000Y-123317000D01*
X160274000Y-123317000D02*
X160274000Y-128270000D01*
X160274000Y-128270000D02*
X160299400Y-128295400D01*
X108077000Y-110998000D02*
X114173000Y-104902000D01*
X114173000Y-104902000D02*
X114173000Y-91567000D01*
X118745000Y-86995000D02*
X120523000Y-86995000D01*
X120523000Y-86995000D02*
X120777000Y-87249000D01*
X130302000Y-87249000D02*
X130429000Y-87249000D01*
X130429000Y-87249000D02*
X130937000Y-87757000D01*
X130937000Y-87757000D02*
X131699000Y-87757000D01*
X131699000Y-87757000D02*
X138430000Y-81026000D01*
X110007400Y-105156000D02*
X111226600Y-103936800D01*
X111226600Y-103936800D02*
X112826800Y-103936800D01*
X121208800Y-108381800D02*
X121894600Y-107696000D01*
X121894600Y-107696000D02*
X124409200Y-107696000D01*
X132003800Y-104698800D02*
X132080000Y-104521000D01*
X132080000Y-104521000D02*
X133985000Y-102616000D01*
X148590000Y-97663000D02*
X159004000Y-87249000D01*
X117475700Y-77825500D02*
X117475000Y-77851000D01*
X117475000Y-77851000D02*
X112268000Y-83058000D01*
X112268000Y-83058000D02*
X112268000Y-99187000D01*
X112268000Y-99187000D02*
X112141000Y-99314000D01*
X112141000Y-99314000D02*
X112141000Y-99568000D01*
X112141000Y-99568000D02*
X107315000Y-104394000D01*
X107315000Y-104394000D02*
X107315000Y-116205000D01*
X107315000Y-116205000D02*
X105537000Y-117983000D01*
X105537000Y-117983000D02*
X105537000Y-127635000D01*
X105537000Y-127635000D02*
X105562400Y-127685800D01*
X167513000Y-108458000D02*
X171704000Y-112649000D01*
X109524800Y-127685800D02*
X109601000Y-127508000D01*
X109601000Y-127508000D02*
X112776000Y-124333000D01*
X120345200Y-118071900D02*
X120396000Y-118110000D01*
X120396000Y-118110000D02*
X122174000Y-116332000D01*
X122174000Y-116332000D02*
X122174000Y-116205000D01*
X123698000Y-114681000D02*
X126873000Y-111506000D01*
X126873000Y-111506000D02*
X126873000Y-110363000D01*
X126873000Y-110363000D02*
X127000000Y-110236000D01*
X127000000Y-110236000D02*
X127000000Y-110109000D01*
X127000000Y-110109000D02*
X129413000Y-107696000D01*
X129413000Y-107696000D02*
X129413000Y-104648000D01*
X129413000Y-104648000D02*
X129463800Y-104698800D01*
X145034000Y-116205000D02*
X145034000Y-117221000D01*
X145034000Y-117221000D02*
X145028200Y-117246400D01*
X159893000Y-102362000D02*
X156845000Y-105410000D01*
X156845000Y-105410000D02*
X156845000Y-105537000D01*
X156845000Y-105537000D02*
X156718000Y-105664000D01*
X156718000Y-105664000D02*
X156718000Y-105791000D01*
X156718000Y-105791000D02*
X155702000Y-106807000D01*
X155702000Y-106807000D02*
X155702000Y-106934000D01*
X143383000Y-111506000D02*
X144018000Y-112141000D01*
X144018000Y-112141000D02*
X144018000Y-115062000D01*
X144018000Y-115062000D02*
X144145000Y-115189000D01*
X144145000Y-115189000D02*
X144145000Y-115316000D01*
X144145000Y-115316000D02*
X145034000Y-116205000D01*
X165100000Y-97156600D02*
X165100000Y-97155000D01*
X165100000Y-97155000D02*
X167640000Y-94615000D01*
X167640000Y-94615000D02*
X167640000Y-81762600D01*
X159639000Y-104775000D02*
X147828000Y-116586000D01*
X147828000Y-116586000D02*
X147828000Y-120269000D01*
X146685000Y-121412000D02*
X146050000Y-122047000D01*
X146050000Y-122047000D02*
X146050000Y-122682000D01*
X146050000Y-122682000D02*
X145923000Y-122809000D01*
X145923000Y-122809000D02*
X145923000Y-122936000D01*
X145923000Y-122936000D02*
X145034000Y-123825000D01*
X167640000Y-77800200D02*
X167640000Y-77851000D01*
X167640000Y-77851000D02*
X167259000Y-77851000D01*
X167259000Y-77851000D02*
X164084000Y-81026000D01*
X164084000Y-81026000D02*
X164084000Y-97536000D01*
X164084000Y-97536000D02*
X164211000Y-97663000D01*
X164211000Y-97663000D02*
X164211000Y-97790000D01*
X164211000Y-97790000D02*
X165100000Y-98679000D01*
X165100000Y-98679000D02*
X165100000Y-99696600D01*
X145034000Y-123825000D02*
X145034000Y-124841000D01*
X145034000Y-124841000D02*
X145028200Y-124866400D01*
X106146600Y-96470800D02*
X106172000Y-96520000D01*
X106172000Y-96520000D02*
X105029000Y-95377000D01*
X105029000Y-95377000D02*
X105029000Y-81026000D01*
X105029000Y-81026000D02*
X104978200Y-81076800D01*
X137033000Y-120523000D02*
X134112000Y-117602000D01*
X134112000Y-117602000D02*
X134112000Y-117475000D01*
X134112000Y-117475000D02*
X132842000Y-116205000D01*
X124968000Y-112268000D02*
X124079000Y-111379000D01*
X124079000Y-111379000D02*
X124079000Y-110617000D01*
X124079000Y-110617000D02*
X123952000Y-110490000D01*
X123952000Y-110490000D02*
X123952000Y-110236000D01*
X123952000Y-110236000D02*
X122682000Y-108966000D01*
X104978200Y-77114400D02*
X105029000Y-77089000D01*
X105029000Y-77089000D02*
X107188000Y-79248000D01*
X107188000Y-79248000D02*
X107315000Y-79248000D01*
X107315000Y-79248000D02*
X107315000Y-82931000D01*
X107315000Y-82931000D02*
X107188000Y-83058000D01*
X107188000Y-83058000D02*
X107188000Y-96647000D01*
X107188000Y-96647000D02*
X107061000Y-96774000D01*
X107061000Y-96774000D02*
X107061000Y-97028000D01*
X107061000Y-97028000D02*
X106172000Y-97917000D01*
X106172000Y-97917000D02*
X106172000Y-99060000D01*
X106172000Y-99060000D02*
X106146600Y-99010800D01*
X154559000Y-106934000D02*
X156210000Y-105283000D01*
X156210000Y-105283000D02*
X156210000Y-104521000D01*
X156210000Y-104521000D02*
X156083000Y-104394000D01*
X156083000Y-104394000D02*
X156083000Y-104140000D01*
X156083000Y-104140000D02*
X155956000Y-104013000D01*
X155956000Y-104013000D02*
X155956000Y-103886000D01*
X155956000Y-103886000D02*
X154686000Y-102616000D01*
X153828200Y-129946400D02*
X153797000Y-129921000D01*
X153797000Y-129921000D02*
X154813000Y-128905000D01*
X154813000Y-128905000D02*
X154813000Y-114173000D01*
X154813000Y-114173000D02*
X153797000Y-113157000D01*
X153797000Y-113157000D02*
X153797000Y-112141000D01*
X153797000Y-112141000D02*
X153828200Y-112166400D01*
X129971800Y-73279000D02*
X129921000Y-73279000D01*
X129921000Y-73279000D02*
X128778000Y-74422000D01*
X128778000Y-74422000D02*
X128778000Y-74549000D01*
X128778000Y-74549000D02*
X128143000Y-75184000D01*
X128143000Y-75184000D02*
X128143000Y-75438000D01*
X120015000Y-82042000D02*
X118745000Y-83312000D01*
X118745000Y-83312000D02*
X118745000Y-83947000D01*
X118745000Y-83947000D02*
X118618000Y-84074000D01*
X118618000Y-84074000D02*
X118618000Y-84328000D01*
X118618000Y-84328000D02*
X117983000Y-84963000D01*
X117983000Y-84963000D02*
X117983000Y-106045000D01*
X117983000Y-106045000D02*
X121793000Y-109855000D01*
X121793000Y-109855000D02*
X121793000Y-111506000D01*
X121793000Y-111506000D02*
X122174000Y-111887000D01*
X122174000Y-111887000D02*
X122174000Y-112141000D01*
X124841000Y-114808000D02*
X126873000Y-116840000D01*
X126873000Y-116840000D02*
X126873000Y-118618000D01*
X126873000Y-118618000D02*
X127000000Y-118745000D01*
X127000000Y-118745000D02*
X127000000Y-118872000D01*
X127000000Y-118872000D02*
X130683000Y-122555000D01*
X130683000Y-122555000D02*
X130683000Y-127254000D01*
X130683000Y-127254000D02*
X130708400Y-127228600D01*
X145028200Y-129946400D02*
X145034000Y-129921000D01*
X145034000Y-129921000D02*
X139192000Y-124079000D01*
X120015000Y-119507000D02*
X118999000Y-118491000D01*
X118999000Y-118491000D02*
X118999000Y-116967000D01*
X118999000Y-116967000D02*
X116205000Y-114173000D01*
X116205000Y-114173000D02*
X116205000Y-97409000D01*
X108839000Y-90043000D02*
X107950000Y-89154000D01*
X107950000Y-89154000D02*
X107950000Y-82677000D01*
X107950000Y-82677000D02*
X107823000Y-82550000D01*
X107823000Y-82550000D02*
X107823000Y-78740000D01*
X107823000Y-78740000D02*
X107315000Y-78232000D01*
X107315000Y-78232000D02*
X107315000Y-71247000D01*
X107315000Y-71247000D02*
X105537000Y-69469000D01*
X105537000Y-69469000D02*
X105537000Y-66395600D01*
X178181000Y-115316000D02*
X161417000Y-98552000D01*
X161417000Y-98552000D02*
X161417000Y-93091000D01*
X159893000Y-91567000D02*
X159893000Y-87757000D01*
X152527000Y-86995000D02*
X149860000Y-84328000D01*
X149860000Y-84328000D02*
X149860000Y-83185000D01*
X149860000Y-83185000D02*
X149809200Y-83210400D01*
X124383800Y-89458800D02*
X124333000Y-89408000D01*
X124333000Y-89408000D02*
X124333000Y-104648000D01*
X124333000Y-104648000D02*
X124383800Y-104698800D01*
X146812000Y-132842000D02*
X146685000Y-132715000D01*
X146685000Y-132715000D02*
X146685000Y-129286000D01*
X146685000Y-129286000D02*
X146558000Y-129159000D01*
X146558000Y-129159000D02*
X146558000Y-129032000D01*
X146558000Y-129032000D02*
X146431000Y-128905000D01*
X146431000Y-128905000D02*
X146431000Y-128778000D01*
X146431000Y-128778000D02*
X146050000Y-128397000D01*
X146050000Y-128397000D02*
X146050000Y-127000000D01*
X146050000Y-127000000D02*
X145923000Y-126873000D01*
X145923000Y-126873000D02*
X145923000Y-126746000D01*
X145923000Y-126746000D02*
X145669000Y-126492000D01*
X145669000Y-126492000D02*
X145415000Y-126492000D01*
X145415000Y-126492000D02*
X145288000Y-126365000D01*
X145288000Y-126365000D02*
X145034000Y-126365000D01*
X145034000Y-126365000D02*
X143256000Y-124587000D01*
X143256000Y-124587000D02*
X143256000Y-115443000D01*
X146913600Y-136982200D02*
X146939000Y-137033000D01*
X146939000Y-137033000D02*
X146050000Y-136144000D01*
X146050000Y-136144000D02*
X146050000Y-129540000D01*
X146050000Y-129540000D02*
X145923000Y-129413000D01*
X145923000Y-129413000D02*
X145923000Y-129286000D01*
X145923000Y-129286000D02*
X145034000Y-128397000D01*
X145034000Y-128397000D02*
X145034000Y-127381000D01*
X145034000Y-127381000D02*
X145028200Y-127406400D01*
X145028200Y-127406400D02*
X145034000Y-127381000D01*
X145034000Y-127381000D02*
X137033000Y-119380000D01*
X137033000Y-119380000D02*
X137033000Y-104648000D01*
X137033000Y-104648000D02*
X137083800Y-104698800D01*
X150876000Y-136982200D02*
X150876000Y-137033000D01*
X150876000Y-137033000D02*
X152781000Y-135128000D01*
X152781000Y-135128000D02*
X152781000Y-129667000D01*
X152781000Y-129667000D02*
X152908000Y-129540000D01*
X152908000Y-129540000D02*
X152908000Y-129413000D01*
X152908000Y-129413000D02*
X153035000Y-129286000D01*
X153035000Y-129286000D02*
X153035000Y-129159000D01*
X153035000Y-129159000D02*
X153797000Y-128397000D01*
X153797000Y-128397000D02*
X153797000Y-127381000D01*
X153797000Y-127381000D02*
X153828200Y-127406400D01*
X153828200Y-127406400D02*
X153797000Y-127381000D01*
X153797000Y-127381000D02*
X146050000Y-119634000D01*
X146050000Y-119634000D02*
X146050000Y-111125000D01*
X146050000Y-111125000D02*
X139623800Y-104698800D01*
X154838400Y-136982200D02*
X154813000Y-137033000D01*
X154813000Y-137033000D02*
X155575000Y-136271000D01*
X155575000Y-136271000D02*
X155575000Y-116459000D01*
X150368000Y-112903000D02*
X142163800Y-104698800D01*
M02*
