M48
;DRILL file {KiCad 4.0.6} date 02/07/20 08:18:14
;FORMAT={-:-/ absolute / inch / decimal}
FMAT,2
INCH,TZ
T1C0.016
T2C0.019
T3C0.028
T4C0.030
T5C0.031
T6C0.033
T7C0.035
T8C0.039
T9C0.067
%
G90
G05
M72
T1
X4.09Y-3.83
X4.25Y-3.685
X4.255Y-4.37
X4.285Y-3.545
X4.331Y-4.14
X4.44Y-4.895
X4.442Y-4.092
X4.495Y-3.605
X4.575Y-3.835
X4.58Y-4.675
X4.605Y-4.57
X4.615Y-3.53
X4.63Y-3.015
X4.64Y-4.74
X4.675Y-3.425
X4.725Y-3.23
X4.725Y-4.705
X4.755Y-3.435
X4.772Y-4.267
X4.81Y-4.415
X4.81Y-4.575
X4.83Y-4.29
X4.87Y-4.515
X4.89Y-3.355
X4.898Y-4.24
X4.915Y-4.52
X4.92Y-4.42
X4.925Y-3.65
X4.995Y-3.25
X5.035Y-3.295
X5.045Y-2.97
X5.05Y-3.35
X5.13Y-3.435
X5.17Y-3.43
X5.2Y-2.77
X5.23Y-4.575
X5.245Y-3.11
X5.275Y-4.04
X5.295Y-4.84
X5.395Y-4.745
X5.45Y-3.19
X5.48Y-4.885
X5.5Y-5.04
X5.64Y-2.935
X5.64Y-4.545
X5.645Y-4.39
X5.775Y-4.78
X5.78Y-5.23
X5.82Y-4.735
X5.85Y-3.845
X5.92Y-4.445
X6.005Y-3.425
X6.085Y-4.21
X6.09Y-4.04
X6.125Y-4.585
X6.13Y-4.21
X6.26Y-3.435
X6.285Y-4.125
X6.295Y-3.455
X6.295Y-3.605
X6.295Y-4.03
X6.355Y-3.665
X6.57Y-3.655
X6.595Y-4.27
X6.76Y-4.435
X6.78Y-3.845
X7.015Y-4.54
T2
X4.5249Y-2.964
X4.625Y-3.064
X4.725Y-2.9639
X5.7209Y-2.905
X5.821Y-3.005
X5.921Y-2.9049
T3
X5.1394Y-3.2126
X5.2394Y-3.2126
T4
X4.155Y-2.614
X4.235Y-2.614
X4.638Y-4.3655
X4.638Y-4.6485
X4.738Y-4.3655
X4.738Y-4.3655
X4.738Y-4.6485
X4.838Y-4.3655
X4.838Y-4.6485
X4.938Y-4.3655
X4.938Y-4.6485
X5.038Y-4.3655
X5.038Y-4.6485
X5.138Y-4.3655
X5.138Y-4.6485
X5.238Y-4.3655
X5.238Y-4.6485
X5.922Y-2.658
X6.002Y-2.658
T5
X4.179Y-3.4981
X4.179Y-3.6981
X4.179Y-3.7981
X4.179Y-3.8981
X4.379Y-3.4981
X4.379Y-3.6981
X4.379Y-3.7981
X4.379Y-3.8981
X4.987Y-3.401
X5.787Y-3.401
X6.311Y-5.051
X6.312Y-5.287
X6.322Y-4.647
X6.325Y-4.838
X6.327Y-4.235
X6.334Y-4.435
X6.5Y-3.5251
X6.5Y-3.7251
X6.5Y-3.8251
X6.5Y-3.9251
X6.7Y-3.5251
X6.7Y-3.7251
X6.7Y-3.8251
X6.7Y-3.9251
X7.102Y-3.252
X7.102Y-4.052
X7.111Y-5.051
X7.112Y-5.287
X7.122Y-4.647
X7.125Y-4.838
X7.127Y-4.235
X7.134Y-4.435
T6
X4.811Y-3.235
X4.861Y-3.235
X4.911Y-3.235
X5.848Y-3.276
X5.898Y-3.276
X5.948Y-3.276
T7
X4.523Y-3.293
X4.623Y-3.293
X4.697Y-3.522
X4.697Y-4.122
X4.797Y-3.522
X4.797Y-4.122
X4.897Y-3.522
X4.897Y-4.122
X4.997Y-3.522
X4.997Y-4.122
X5.097Y-3.522
X5.097Y-4.122
X5.197Y-3.522
X5.197Y-4.122
X5.297Y-3.522
X5.297Y-4.122
X5.397Y-3.522
X5.397Y-4.122
X5.497Y-3.522
X5.497Y-4.122
X5.597Y-3.522
X5.597Y-4.122
X5.697Y-3.522
X5.697Y-4.122
X5.7098Y-4.416
X5.7098Y-4.516
X5.7098Y-4.616
X5.7098Y-4.716
X5.7098Y-4.816
X5.7098Y-4.916
X5.7098Y-5.016
X5.7098Y-5.116
X5.797Y-3.522
X5.797Y-4.122
X5.897Y-3.522
X5.897Y-4.122
X5.997Y-3.522
X5.997Y-4.122
X6.0562Y-4.416
X6.0562Y-4.516
X6.0562Y-4.616
X6.0562Y-4.716
X6.0562Y-4.816
X6.0562Y-4.916
X6.0562Y-5.016
X6.0562Y-5.116
X6.095Y-3.276
X6.097Y-3.522
X6.097Y-4.122
X6.195Y-3.276
T8
X3.999Y-3.512
X3.999Y-4.012
X4.594Y-2.621
X4.7909Y-2.621
X5.017Y-2.885
X5.117Y-2.885
X5.217Y-2.885
X6.871Y-3.488
X6.871Y-3.988
T9
X3.995Y-4.482
X4.Y-5.027
X4.133Y-2.88
X4.133Y-3.036
X4.133Y-3.192
X4.151Y-4.482
X4.156Y-5.027
X4.307Y-4.482
X4.312Y-5.027
X4.99Y-5.009
X5.146Y-5.009
X5.302Y-5.009
X5.628Y-5.393
X5.784Y-5.393
X5.94Y-5.393
X6.096Y-5.393
X6.6Y-2.907
X6.6Y-3.063
X6.6Y-3.219
T0
M30
