  0
SECTION
  2
HEADER
  9
$MEASUREMENT
  70
  1
  9
$INSUNITS
  70
  4
  0
ENDSEC
  0
SECTION
  2
TABLES
  0
TABLE
  2
LTYPE
 70
     1
  0
LTYPE
  2
CONTINUOUS
 70
    64
  3
Ausgezogene Linie
 72
    65
 73
     0
 40
0.0
  0
ENDTAB
  0
TABLE
  2
LAYER
 70
     3
  0
LAYER
  2
Contour
 70
    64
 62
     7
  6
CONTINUOUS
  0
LAYER
  2
Engraving
 70
    64
 62
     7
  6
CONTINUOUS
  0
LAYER
  2
Reference_points
 70
    64
 62
     1
  6
CONTINUOUS
  0
ENDTAB
  0
TABLE
  2
STYLE
 70
     1
  0
STYLE
  2
TXT
 70
    64
 40
0.0
 41
1.0
 50
0.0
 71
     0
 42
3.500000
  3
TXT
  0
ENDTAB
  0
ENDSEC
  0
SECTION
  2
BLOCKS
  0
ENDSEC
  0
SECTION
  2
ENTITIES
  0
LINE
  8
Contour
 62
   7
 39
0.100
  6
CONTINUOUS
 10
200.00000
 20
100.00000
 30
 0
 11
200.00000
 21
0.00000
  0
LINE
  8
Contour
 62
   7
 39
0.100
  6
CONTINUOUS
 10
200.00000
 20
0.00000
 30
 0
 11
0.00000
 21
0.00000
  0
LINE
  8
Contour
 62
   7
 39
0.100
  6
CONTINUOUS
 10
0.00000
 20
0.00000
 30
 0
 11
0.00000
 21
100.00000
  0
LINE
  8
Contour
 62
   7
 39
0.100
  6
CONTINUOUS
 10
0.00000
 20
100.00000
 30
 0
 11
200.00000
 21
100.00000
  0
LINE
  8
Engraving
 62
   7
 39
0.400
  6
CONTINUOUS
 10
6.70800
 20
16.60400
 30
 0
 11
19.25000
 21
16.61800
  0
LINE
  8
Engraving
 62
   7
 39
0.400
  6
CONTINUOUS
 10
19.26000
 20
16.47300
 30
 0
 11
19.26000
 21
5.85700
  0
LINE
  8
Engraving
 62
   7
 39
0.400
  6
CONTINUOUS
 10
19.25581
 20
5.83897
 30
 0
 11
6.56019
 21
5.74103
  0
LINE
  8
Engraving
 62
   7
 39
0.400
  6
CONTINUOUS
 10
6.71454
 20
16.55122
 30
 0
 11
6.53146
 21
5.78278
  0
LINE
  8
Engraving
 62
   7
 39
0.400
  6
CONTINUOUS
 10
181.01300
 20
92.72700
 30
 0
 11
193.55500
 21
92.74100
  0
LINE
  8
Engraving
 62
   7
 39
0.400
  6
CONTINUOUS
 10
193.56500
 20
92.59600
 30
 0
 11
193.56500
 21
81.98000
  0
LINE
  8
Engraving
 62
   7
 39
0.400
  6
CONTINUOUS
 10
193.56081
 20
81.96197
 30
 0
 11
180.86519
 21
81.86403
  0
LINE
  8
Engraving
 62
   7
 39
0.400
  6
CONTINUOUS
 10
181.01954
 20
92.67422
 30
 0
 11
180.83646
 21
81.90578
  0
LINE
  8
Engraving
 62
   12
 39
0.600
  6
CONTINUOUS
 10
76.73699
 20
19.52298
 30
 0
 11
76.62896
 21
19.63945
  0
LINE
  8
Engraving
 62
   12
 39
0.600
  6
CONTINUOUS
 10
76.62896
 20
19.63945
 30
 0
 11
76.50243
 21
19.74712
  0
LINE
  8
Engraving
 62
   12
 39
0.600
  6
CONTINUOUS
 10
76.50243
 20
19.74712
 30
 0
 11
76.35895
 21
19.84467
  0
LINE
  8
Engraving
 62
   12
 39
0.600
  6
CONTINUOUS
 10
76.35895
 20
19.84467
 30
 0
 11
76.20030
 21
19.93089
  0
LINE
  8
Engraving
 62
   12
 39
0.600
  6
CONTINUOUS
 10
76.20030
 20
19.93089
 30
 0
 11
76.02843
 21
20.00472
  0
LINE
  8
Engraving
 62
   12
 39
0.600
  6
CONTINUOUS
 10
76.02843
 20
20.00472
 30
 0
 11
75.84546
 21
20.06524
  0
LINE
  8
Engraving
 62
   12
 39
0.600
  6
CONTINUOUS
 10
75.84546
 20
20.06524
 30
 0
 11
75.65366
 21
20.11171
  0
LINE
  8
Engraving
 62
   12
 39
0.600
  6
CONTINUOUS
 10
75.65366
 20
20.11171
 30
 0
 11
75.45540
 21
20.14356
  0
LINE
  8
Engraving
 62
   12
 39
0.600
  6
CONTINUOUS
 10
75.45540
 20
20.14356
 30
 0
 11
75.25311
 21
20.16039
  0
LINE
  8
Engraving
 62
   12
 39
0.600
  6
CONTINUOUS
 10
75.25311
 20
20.16039
 30
 0
 11
75.04931
 21
20.16199
  0
LINE
  8
Engraving
 62
   12
 39
0.600
  6
CONTINUOUS
 10
75.04931
 20
20.16199
 30
 0
 11
74.84649
 21
20.14835
  0
LINE
  8
Engraving
 62
   12
 39
0.600
  6
CONTINUOUS
 10
74.84649
 20
20.14835
 30
 0
 11
74.64718
 21
20.11963
  0
LINE
  8
Engraving
 62
   12
 39
0.600
  6
CONTINUOUS
 10
74.64718
 20
20.11963
 30
 0
 11
74.45382
 21
20.07618
  0
LINE
  8
Engraving
 62
   12
 39
0.600
  6
CONTINUOUS
 10
74.45382
 20
20.07618
 30
 0
 11
74.26881
 21
20.01855
  0
LINE
  8
Engraving
 62
   12
 39
0.600
  6
CONTINUOUS
 10
74.26881
 20
20.01855
 30
 0
 11
74.09444
 21
19.94745
  0
LINE
  8
Engraving
 62
   12
 39
0.600
  6
CONTINUOUS
 10
74.09444
 20
19.94745
 30
 0
 11
73.93284
 21
19.86375
  0
LINE
  8
Engraving
 62
   12
 39
0.600
  6
CONTINUOUS
 10
73.93284
 20
19.86375
 30
 0
 11
73.78602
 21
19.76848
  0
LINE
  8
Engraving
 62
   12
 39
0.600
  6
CONTINUOUS
 10
73.78602
 20
19.76848
 30
 0
 11
73.65579
 21
19.66283
  0
LINE
  8
Engraving
 62
   12
 39
0.600
  6
CONTINUOUS
 10
73.65579
 20
19.66283
 30
 0
 11
73.54376
 21
19.54809
  0
LINE
  8
Engraving
 62
   12
 39
0.600
  6
CONTINUOUS
 10
73.54376
 20
19.54809
 30
 0
 11
73.45131
 21
19.42568
  0
LINE
  8
Engraving
 62
   12
 39
0.600
  6
CONTINUOUS
 10
73.45131
 20
19.42568
 30
 0
 11
73.37958
 21
19.29712
  0
LINE
  8
Engraving
 62
   12
 39
0.600
  6
CONTINUOUS
 10
73.37958
 20
19.29712
 30
 0
 11
73.32947
 21
19.16400
  0
LINE
  8
Engraving
 62
   12
 39
0.600
  6
CONTINUOUS
 10
73.32947
 20
19.16400
 30
 0
 11
73.30157
 21
19.02794
  0
LINE
  8
Engraving
 62
   12
 39
0.600
  6
CONTINUOUS
 10
73.30157
 20
19.02794
 30
 0
 11
73.29625
 21
18.89064
  0
LINE
  8
Engraving
 62
   12
 39
0.600
  6
CONTINUOUS
 10
73.29625
 20
18.89064
 30
 0
 11
73.29625
 21
17.45736
  0
LINE
  8
Engraving
 62
   12
 39
0.600
  6
CONTINUOUS
 10
73.29625
 20
17.45736
 30
 0
 11
73.30807
 21
17.31762
  0
LINE
  8
Engraving
 62
   12
 39
0.600
  6
CONTINUOUS
 10
73.30807
 20
17.31762
 30
 0
 11
73.34269
 21
17.17961
  0
LINE
  8
Engraving
 62
   12
 39
0.600
  6
CONTINUOUS
 10
73.34269
 20
17.17961
 30
 0
 11
73.39970
 21
17.04502
  0
LINE
  8
Engraving
 62
   12
 39
0.600
  6
CONTINUOUS
 10
73.39970
 20
17.04502
 30
 0
 11
73.47838
 21
16.91548
  0
LINE
  8
Engraving
 62
   12
 39
0.600
  6
CONTINUOUS
 10
73.47838
 20
16.91548
 30
 0
 11
73.57780
 21
16.79259
  0
LINE
  8
Engraving
 62
   12
 39
0.600
  6
CONTINUOUS
 10
73.57780
 20
16.79259
 30
 0
 11
73.69672
 21
16.67784
  0
LINE
  8
Engraving
 62
   12
 39
0.600
  6
CONTINUOUS
 10
73.69672
 20
16.67784
 30
 0
 11
73.83370
 21
16.57262
  0
LINE
  8
Engraving
 62
   12
 39
0.600
  6
CONTINUOUS
 10
73.83370
 20
16.57262
 30
 0
 11
73.98707
 21
16.47823
  0
LINE
  8
Engraving
 62
   12
 39
0.600
  6
CONTINUOUS
 10
73.98707
 20
16.47823
 30
 0
 11
74.15496
 21
16.39582
  0
LINE
  8
Engraving
 62
   12
 39
0.600
  6
CONTINUOUS
 10
74.15496
 20
16.39582
 30
 0
 11
74.33531
 21
16.32639
  0
LINE
  8
Engraving
 62
   12
 39
0.600
  6
CONTINUOUS
 10
74.33531
 20
16.32639
 30
 0
 11
74.52593
 21
16.27079
  0
LINE
  8
Engraving
 62
   12
 39
0.600
  6
CONTINUOUS
 10
74.52593
 20
16.27079
 30
 0
 11
74.72449
 21
16.22970
  0
LINE
  8
Engraving
 62
   12
 39
0.600
  6
CONTINUOUS
 10
74.72449
 20
16.22970
 30
 0
 11
74.92856
 21
16.20362
  0
LINE
  8
Engraving
 62
   12
 39
0.600
  6
CONTINUOUS
 10
74.92856
 20
16.20362
 30
 0
 11
75.13566
 21
16.19287
  0
LINE
  8
Engraving
 62
   12
 39
0.600
  6
CONTINUOUS
 10
75.13566
 20
16.19287
 30
 0
 11
75.34325
 21
16.19758
  0
LINE
  8
Engraving
 62
   12
 39
0.600
  6
CONTINUOUS
 10
75.34325
 20
16.19758
 30
 0
 11
75.54880
 21
16.21769
  0
LINE
  8
Engraving
 62
   12
 39
0.600
  6
CONTINUOUS
 10
75.54880
 20
16.21769
 30
 0
 11
75.74981
 21
16.25296
  0
LINE
  8
Engraving
 62
   12
 39
0.600
  6
CONTINUOUS
 10
75.74981
 20
16.25296
 30
 0
 11
75.94382
 21
16.30295
  0
LINE
  8
Engraving
 62
   12
 39
0.600
  6
CONTINUOUS
 10
75.94382
 20
16.30295
 30
 0
 11
76.12846
 21
16.36706
  0
LINE
  8
Engraving
 62
   12
 39
0.600
  6
CONTINUOUS
 10
76.12846
 20
16.36706
 30
 0
 11
76.30147
 21
16.44450
  0
LINE
  8
Engraving
 62
   12
 39
0.600
  6
CONTINUOUS
 10
76.30147
 20
16.44450
 30
 0
 11
76.46076
 21
16.53434
  0
LINE
  8
Engraving
 62
   12
 39
0.600
  6
CONTINUOUS
 10
76.46076
 20
16.53434
 30
 0
 11
76.60436
 21
16.63546
  0
LINE
  8
Engraving
 62
   12
 39
0.600
  6
CONTINUOUS
 10
76.60436
 20
16.63546
 30
 0
 11
76.73054
 21
16.74664
  0
LINE
  8
Engraving
 62
   12
 39
0.600
  6
CONTINUOUS
 10
76.73054
 20
16.74664
 30
 0
 11
76.83774
 21
16.86652
  0
LINE
  8
Engraving
 62
   12
 39
0.600
  6
CONTINUOUS
 10
76.83774
 20
16.86652
 30
 0
 11
76.92467
 21
16.99364
  0
LINE
  8
Engraving
 62
   12
 39
0.600
  6
CONTINUOUS
 10
78.42496
 20
17.32989
 30
 0
 11
78.42496
 21
17.75144
  0
LINE
  8
Engraving
 62
   12
 39
0.600
  6
CONTINUOUS
 10
78.42496
 20
17.75144
 30
 0
 11
78.43636
 21
17.87848
  0
LINE
  8
Engraving
 62
   12
 39
0.600
  6
CONTINUOUS
 10
78.43636
 20
17.87848
 30
 0
 11
78.47040
 21
18.00366
  0
LINE
  8
Engraving
 62
   12
 39
0.600
  6
CONTINUOUS
 10
78.47040
 20
18.00366
 30
 0
 11
78.52659
 21
18.12516
  0
LINE
  8
Engraving
 62
   12
 39
0.600
  6
CONTINUOUS
 10
78.52659
 20
18.12516
 30
 0
 11
78.60410
 21
18.24121
  0
LINE
  8
Engraving
 62
   12
 39
0.600
  6
CONTINUOUS
 10
78.60410
 20
18.24121
 30
 0
 11
78.70181
 21
18.35012
  0
LINE
  8
Engraving
 62
   12
 39
0.600
  6
CONTINUOUS
 10
78.70181
 20
18.35012
 30
 0
 11
78.81828
 21
18.45030
  0
LINE
  8
Engraving
 62
   12
 39
0.600
  6
CONTINUOUS
 10
78.81828
 20
18.45030
 30
 0
 11
78.95182
 21
18.54029
  0
LINE
  8
Engraving
 62
   12
 39
0.600
  6
CONTINUOUS
 10
78.95182
 20
18.54029
 30
 0
 11
79.10049
 21
18.61878
  0
LINE
  8
Engraving
 62
   12
 39
0.600
  6
CONTINUOUS
 10
79.10049
 20
18.61878
 30
 0
 11
79.26212
 21
18.68462
  0
LINE
  8
Engraving
 62
   12
 39
0.600
  6
CONTINUOUS
 10
79.26212
 20
18.68462
 30
 0
 11
79.43434
 21
18.73685
  0
LINE
  8
Engraving
 62
   12
 39
0.600
  6
CONTINUOUS
 10
79.43434
 20
18.73685
 30
 0
 11
79.61465
 21
18.77471
  0
LINE
  8
Engraving
 62
   12
 39
0.600
  6
CONTINUOUS
 10
79.61465
 20
18.77471
 30
 0
 11
79.80041
 21
18.79765
  0
LINE
  8
Engraving
 62
   12
 39
0.600
  6
CONTINUOUS
 10
79.80041
 20
18.79765
 30
 0
 11
79.98893
 21
18.80533
  0
LINE
  8
Engraving
 62
   12
 39
0.600
  6
CONTINUOUS
 10
79.98893
 20
18.80533
 30
 0
 11
80.17745
 21
18.79765
  0
LINE
  8
Engraving
 62
   12
 39
0.600
  6
CONTINUOUS
 10
80.17745
 20
18.79765
 30
 0
 11
80.36321
 21
18.77471
  0
LINE
  8
Engraving
 62
   12
 39
0.600
  6
CONTINUOUS
 10
80.36321
 20
18.77471
 30
 0
 11
80.54352
 21
18.73685
  0
LINE
  8
Engraving
 62
   12
 39
0.600
  6
CONTINUOUS
 10
80.54352
 20
18.73685
 30
 0
 11
80.71574
 21
18.68462
  0
LINE
  8
Engraving
 62
   12
 39
0.600
  6
CONTINUOUS
 10
80.71574
 20
18.68462
 30
 0
 11
80.87737
 21
18.61878
  0
LINE
  8
Engraving
 62
   12
 39
0.600
  6
CONTINUOUS
 10
80.87737
 20
18.61878
 30
 0
 11
81.02603
 21
18.54029
  0
LINE
  8
Engraving
 62
   12
 39
0.600
  6
CONTINUOUS
 10
81.02603
 20
18.54029
 30
 0
 11
81.15958
 21
18.45030
  0
LINE
  8
Engraving
 62
   12
 39
0.600
  6
CONTINUOUS
 10
81.15958
 20
18.45030
 30
 0
 11
81.27605
 21
18.35012
  0
LINE
  8
Engraving
 62
   12
 39
0.600
  6
CONTINUOUS
 10
81.27605
 20
18.35012
 30
 0
 11
81.37376
 21
18.24121
  0
LINE
  8
Engraving
 62
   12
 39
0.600
  6
CONTINUOUS
 10
81.37376
 20
18.24121
 30
 0
 11
81.45127
 21
18.12516
  0
LINE
  8
Engraving
 62
   12
 39
0.600
  6
CONTINUOUS
 10
81.45127
 20
18.12516
 30
 0
 11
81.50745
 21
18.00366
  0
LINE
  8
Engraving
 62
   12
 39
0.600
  6
CONTINUOUS
 10
81.50745
 20
18.00366
 30
 0
 11
81.54150
 21
17.87848
  0
LINE
  8
Engraving
 62
   12
 39
0.600
  6
CONTINUOUS
 10
81.54150
 20
17.87848
 30
 0
 11
81.55290
 21
17.75144
  0
LINE
  8
Engraving
 62
   12
 39
0.600
  6
CONTINUOUS
 10
81.55290
 20
17.75144
 30
 0
 11
81.55290
 21
17.32989
  0
LINE
  8
Engraving
 62
   12
 39
0.600
  6
CONTINUOUS
 10
81.55290
 20
17.32989
 30
 0
 11
81.54150
 21
17.20286
  0
LINE
  8
Engraving
 62
   12
 39
0.600
  6
CONTINUOUS
 10
81.54150
 20
17.20286
 30
 0
 11
81.50745
 21
17.07768
  0
LINE
  8
Engraving
 62
   12
 39
0.600
  6
CONTINUOUS
 10
81.50745
 20
17.07768
 30
 0
 11
81.45127
 21
16.95617
  0
LINE
  8
Engraving
 62
   12
 39
0.600
  6
CONTINUOUS
 10
81.45127
 20
16.95617
 30
 0
 11
81.37376
 21
16.84012
  0
LINE
  8
Engraving
 62
   12
 39
0.600
  6
CONTINUOUS
 10
81.37376
 20
16.84012
 30
 0
 11
81.27605
 21
16.73121
  0
LINE
  8
Engraving
 62
   12
 39
0.600
  6
CONTINUOUS
 10
81.27605
 20
16.73121
 30
 0
 11
81.15958
 21
16.63103
  0
LINE
  8
Engraving
 62
   12
 39
0.600
  6
CONTINUOUS
 10
81.15958
 20
16.63103
 30
 0
 11
81.02603
 21
16.54104
  0
LINE
  8
Engraving
 62
   12
 39
0.600
  6
CONTINUOUS
 10
81.02603
 20
16.54104
 30
 0
 11
80.87737
 21
16.46256
  0
LINE
  8
Engraving
 62
   12
 39
0.600
  6
CONTINUOUS
 10
80.87737
 20
16.46256
 30
 0
 11
80.71574
 21
16.39672
  0
LINE
  8
Engraving
 62
   12
 39
0.600
  6
CONTINUOUS
 10
80.71574
 20
16.39672
 30
 0
 11
80.54352
 21
16.34449
  0
LINE
  8
Engraving
 62
   12
 39
0.600
  6
CONTINUOUS
 10
80.54352
 20
16.34449
 30
 0
 11
80.36321
 21
16.30662
  0
LINE
  8
Engraving
 62
   12
 39
0.600
  6
CONTINUOUS
 10
80.36321
 20
16.30662
 30
 0
 11
80.17745
 21
16.28368
  0
LINE
  8
Engraving
 62
   12
 39
0.600
  6
CONTINUOUS
 10
80.17745
 20
16.28368
 30
 0
 11
79.98893
 21
16.27600
  0
LINE
  8
Engraving
 62
   12
 39
0.600
  6
CONTINUOUS
 10
79.98893
 20
16.27600
 30
 0
 11
79.80041
 21
16.28368
  0
LINE
  8
Engraving
 62
   12
 39
0.600
  6
CONTINUOUS
 10
79.80041
 20
16.28368
 30
 0
 11
79.61465
 21
16.30662
  0
LINE
  8
Engraving
 62
   12
 39
0.600
  6
CONTINUOUS
 10
79.61465
 20
16.30662
 30
 0
 11
79.43434
 21
16.34449
  0
LINE
  8
Engraving
 62
   12
 39
0.600
  6
CONTINUOUS
 10
79.43434
 20
16.34449
 30
 0
 11
79.26212
 21
16.39672
  0
LINE
  8
Engraving
 62
   12
 39
0.600
  6
CONTINUOUS
 10
79.26212
 20
16.39672
 30
 0
 11
79.10049
 21
16.46256
  0
LINE
  8
Engraving
 62
   12
 39
0.600
  6
CONTINUOUS
 10
79.10049
 20
16.46256
 30
 0
 11
78.95182
 21
16.54104
  0
LINE
  8
Engraving
 62
   12
 39
0.600
  6
CONTINUOUS
 10
78.95182
 20
16.54104
 30
 0
 11
78.81828
 21
16.63103
  0
LINE
  8
Engraving
 62
   12
 39
0.600
  6
CONTINUOUS
 10
78.81828
 20
16.63103
 30
 0
 11
78.70181
 21
16.73121
  0
LINE
  8
Engraving
 62
   12
 39
0.600
  6
CONTINUOUS
 10
78.70181
 20
16.73121
 30
 0
 11
78.60410
 21
16.84012
  0
LINE
  8
Engraving
 62
   12
 39
0.600
  6
CONTINUOUS
 10
78.60410
 20
16.84012
 30
 0
 11
78.52659
 21
16.95617
  0
LINE
  8
Engraving
 62
   12
 39
0.600
  6
CONTINUOUS
 10
78.52659
 20
16.95617
 30
 0
 11
78.47040
 21
17.07768
  0
LINE
  8
Engraving
 62
   12
 39
0.600
  6
CONTINUOUS
 10
78.47040
 20
17.07768
 30
 0
 11
78.43636
 21
17.20286
  0
LINE
  8
Engraving
 62
   12
 39
0.600
  6
CONTINUOUS
 10
78.43636
 20
17.20286
 30
 0
 11
78.42496
 21
17.32989
  0
LINE
  8
Engraving
 62
   12
 39
0.600
  6
CONTINUOUS
 10
83.05355
 20
16.27600
 30
 0
 11
83.05355
 21
18.80533
  0
LINE
  8
Engraving
 62
   12
 39
0.600
  6
CONTINUOUS
 10
83.05355
 20
18.80533
 30
 0
 11
83.05355
 21
17.96222
  0
LINE
  8
Engraving
 62
   12
 39
0.600
  6
CONTINUOUS
 10
83.05355
 20
17.96222
 30
 0
 11
83.06521
 21
18.07703
  0
LINE
  8
Engraving
 62
   12
 39
0.600
  6
CONTINUOUS
 10
83.06521
 20
18.07703
 30
 0
 11
83.09995
 21
18.18969
  0
LINE
  8
Engraving
 62
   12
 39
0.600
  6
CONTINUOUS
 10
83.09995
 20
18.18969
 30
 0
 11
83.15714
 21
18.29812
  0
LINE
  8
Engraving
 62
   12
 39
0.600
  6
CONTINUOUS
 10
83.15714
 20
18.29812
 30
 0
 11
83.23570
 21
18.40029
  0
LINE
  8
Engraving
 62
   12
 39
0.600
  6
CONTINUOUS
 10
83.23570
 20
18.40029
 30
 0
 11
83.33418
 21
18.49430
  0
LINE
  8
Engraving
 62
   12
 39
0.600
  6
CONTINUOUS
 10
83.33418
 20
18.49430
 30
 0
 11
83.45074
 21
18.57840
  0
LINE
  8
Engraving
 62
   12
 39
0.600
  6
CONTINUOUS
 10
83.45074
 20
18.57840
 30
 0
 11
83.58320
 21
18.65102
  0
LINE
  8
Engraving
 62
   12
 39
0.600
  6
CONTINUOUS
 10
83.58320
 20
18.65102
 30
 0
 11
83.72911
 21
18.71081
  0
LINE
  8
Engraving
 62
   12
 39
0.600
  6
CONTINUOUS
 10
83.72911
 20
18.71081
 30
 0
 11
83.88574
 21
18.75665
  0
LINE
  8
Engraving
 62
   12
 39
0.600
  6
CONTINUOUS
 10
83.88574
 20
18.75665
 30
 0
 11
84.05017
 21
18.78770
  0
LINE
  8
Engraving
 62
   12
 39
0.600
  6
CONTINUOUS
 10
84.05017
 20
18.78770
 30
 0
 11
84.21935
 21
18.80337
  0
LINE
  8
Engraving
 62
   12
 39
0.600
  6
CONTINUOUS
 10
84.21935
 20
18.80337
 30
 0
 11
84.39011
 21
18.80337
  0
LINE
  8
Engraving
 62
   12
 39
0.600
  6
CONTINUOUS
 10
84.39011
 20
18.80337
 30
 0
 11
84.55929
 21
18.78770
  0
LINE
  8
Engraving
 62
   12
 39
0.600
  6
CONTINUOUS
 10
84.55929
 20
18.78770
 30
 0
 11
84.72372
 21
18.75665
  0
LINE
  8
Engraving
 62
   12
 39
0.600
  6
CONTINUOUS
 10
84.72372
 20
18.75665
 30
 0
 11
84.88035
 21
18.71081
  0
LINE
  8
Engraving
 62
   12
 39
0.600
  6
CONTINUOUS
 10
84.88035
 20
18.71081
 30
 0
 11
85.02626
 21
18.65102
  0
LINE
  8
Engraving
 62
   12
 39
0.600
  6
CONTINUOUS
 10
85.02626
 20
18.65102
 30
 0
 11
85.15873
 21
18.57840
  0
LINE
  8
Engraving
 62
   12
 39
0.600
  6
CONTINUOUS
 10
85.15873
 20
18.57840
 30
 0
 11
85.27528
 21
18.49430
  0
LINE
  8
Engraving
 62
   12
 39
0.600
  6
CONTINUOUS
 10
85.27528
 20
18.49430
 30
 0
 11
85.37376
 21
18.40029
  0
LINE
  8
Engraving
 62
   12
 39
0.600
  6
CONTINUOUS
 10
85.37376
 20
18.40029
 30
 0
 11
85.45232
 21
18.29812
  0
LINE
  8
Engraving
 62
   12
 39
0.600
  6
CONTINUOUS
 10
85.45232
 20
18.29812
 30
 0
 11
85.50951
 21
18.18969
  0
LINE
  8
Engraving
 62
   12
 39
0.600
  6
CONTINUOUS
 10
85.50951
 20
18.18969
 30
 0
 11
85.54425
 21
18.07703
  0
LINE
  8
Engraving
 62
   12
 39
0.600
  6
CONTINUOUS
 10
85.54425
 20
18.07703
 30
 0
 11
85.55591
 21
17.96222
  0
LINE
  8
Engraving
 62
   12
 39
0.600
  6
CONTINUOUS
 10
85.55591
 20
17.96222
 30
 0
 11
85.55591
 21
16.27600
  0
LINE
  8
Engraving
 62
   12
 39
0.600
  6
CONTINUOUS
 10
85.55591
 20
16.27600
 30
 0
 11
85.55591
 21
17.96222
  0
LINE
  8
Engraving
 62
   12
 39
0.600
  6
CONTINUOUS
 10
85.55591
 20
17.96222
 30
 0
 11
85.56756
 21
18.07703
  0
LINE
  8
Engraving
 62
   12
 39
0.600
  6
CONTINUOUS
 10
85.56756
 20
18.07703
 30
 0
 11
85.60230
 21
18.18969
  0
LINE
  8
Engraving
 62
   12
 39
0.600
  6
CONTINUOUS
 10
85.60230
 20
18.18969
 30
 0
 11
85.65949
 21
18.29812
  0
LINE
  8
Engraving
 62
   12
 39
0.600
  6
CONTINUOUS
 10
85.65949
 20
18.29812
 30
 0
 11
85.73805
 21
18.40029
  0
LINE
  8
Engraving
 62
   12
 39
0.600
  6
CONTINUOUS
 10
85.73805
 20
18.40029
 30
 0
 11
85.83653
 21
18.49430
  0
LINE
  8
Engraving
 62
   12
 39
0.600
  6
CONTINUOUS
 10
85.83653
 20
18.49430
 30
 0
 11
85.95309
 21
18.57840
  0
LINE
  8
Engraving
 62
   12
 39
0.600
  6
CONTINUOUS
 10
85.95309
 20
18.57840
 30
 0
 11
86.08556
 21
18.65102
  0
LINE
  8
Engraving
 62
   12
 39
0.600
  6
CONTINUOUS
 10
86.08556
 20
18.65102
 30
 0
 11
86.23146
 21
18.71081
  0
LINE
  8
Engraving
 62
   12
 39
0.600
  6
CONTINUOUS
 10
86.23146
 20
18.71081
 30
 0
 11
86.38809
 21
18.75665
  0
LINE
  8
Engraving
 62
   12
 39
0.600
  6
CONTINUOUS
 10
86.38809
 20
18.75665
 30
 0
 11
86.55253
 21
18.78770
  0
LINE
  8
Engraving
 62
   12
 39
0.600
  6
CONTINUOUS
 10
86.55253
 20
18.78770
 30
 0
 11
86.72170
 21
18.80337
  0
LINE
  8
Engraving
 62
   12
 39
0.600
  6
CONTINUOUS
 10
86.72170
 20
18.80337
 30
 0
 11
86.89247
 21
18.80337
  0
LINE
  8
Engraving
 62
   12
 39
0.600
  6
CONTINUOUS
 10
86.89247
 20
18.80337
 30
 0
 11
87.06164
 21
18.78770
  0
LINE
  8
Engraving
 62
   12
 39
0.600
  6
CONTINUOUS
 10
87.06164
 20
18.78770
 30
 0
 11
87.22608
 21
18.75665
  0
LINE
  8
Engraving
 62
   12
 39
0.600
  6
CONTINUOUS
 10
87.22608
 20
18.75665
 30
 0
 11
87.38271
 21
18.71081
  0
LINE
  8
Engraving
 62
   12
 39
0.600
  6
CONTINUOUS
 10
87.38271
 20
18.71081
 30
 0
 11
87.52861
 21
18.65102
  0
LINE
  8
Engraving
 62
   12
 39
0.600
  6
CONTINUOUS
 10
87.52861
 20
18.65102
 30
 0
 11
87.66108
 21
18.57840
  0
LINE
  8
Engraving
 62
   12
 39
0.600
  6
CONTINUOUS
 10
87.66108
 20
18.57840
 30
 0
 11
87.77764
 21
18.49430
  0
LINE
  8
Engraving
 62
   12
 39
0.600
  6
CONTINUOUS
 10
87.77764
 20
18.49430
 30
 0
 11
87.87611
 21
18.40029
  0
LINE
  8
Engraving
 62
   12
 39
0.600
  6
CONTINUOUS
 10
87.87611
 20
18.40029
 30
 0
 11
87.95468
 21
18.29812
  0
LINE
  8
Engraving
 62
   12
 39
0.600
  6
CONTINUOUS
 10
87.95468
 20
18.29812
 30
 0
 11
88.01186
 21
18.18969
  0
LINE
  8
Engraving
 62
   12
 39
0.600
  6
CONTINUOUS
 10
88.01186
 20
18.18969
 30
 0
 11
88.04661
 21
18.07703
  0
LINE
  8
Engraving
 62
   12
 39
0.600
  6
CONTINUOUS
 10
88.04661
 20
18.07703
 30
 0
 11
88.05826
 21
17.96222
  0
LINE
  8
Engraving
 62
   12
 39
0.600
  6
CONTINUOUS
 10
88.05826
 20
17.96222
 30
 0
 11
88.05826
 21
16.27600
  0
LINE
  8
Engraving
 62
   12
 39
0.600
  6
CONTINUOUS
 10
89.55941
 20
15.01033
 30
 0
 11
89.55941
 21
17.75044
  0
LINE
  8
Engraving
 62
   12
 39
0.600
  6
CONTINUOUS
 10
89.55941
 20
17.75044
 30
 0
 11
89.57081
 21
17.87748
  0
LINE
  8
Engraving
 62
   12
 39
0.600
  6
CONTINUOUS
 10
89.57081
 20
17.87748
 30
 0
 11
89.60486
 21
18.00266
  0
LINE
  8
Engraving
 62
   12
 39
0.600
  6
CONTINUOUS
 10
89.60486
 20
18.00266
 30
 0
 11
89.66104
 21
18.12416
  0
LINE
  8
Engraving
 62
   12
 39
0.600
  6
CONTINUOUS
 10
89.66104
 20
18.12416
 30
 0
 11
89.73855
 21
18.24021
  0
LINE
  8
Engraving
 62
   12
 39
0.600
  6
CONTINUOUS
 10
89.73855
 20
18.24021
 30
 0
 11
89.83626
 21
18.34912
  0
LINE
  8
Engraving
 62
   12
 39
0.600
  6
CONTINUOUS
 10
89.83626
 20
18.34912
 30
 0
 11
89.95273
 21
18.44930
  0
LINE
  8
Engraving
 62
   12
 39
0.600
  6
CONTINUOUS
 10
89.95273
 20
18.44930
 30
 0
 11
90.08628
 21
18.53929
  0
LINE
  8
Engraving
 62
   12
 39
0.600
  6
CONTINUOUS
 10
90.08628
 20
18.53929
 30
 0
 11
90.23494
 21
18.61778
  0
LINE
  8
Engraving
 62
   12
 39
0.600
  6
CONTINUOUS
 10
90.23494
 20
18.61778
 30
 0
 11
90.39657
 21
18.68362
  0
LINE
  8
Engraving
 62
   12
 39
0.600
  6
CONTINUOUS
 10
90.39657
 20
18.68362
 30
 0
 11
90.56879
 21
18.73585
  0
LINE
  8
Engraving
 62
   12
 39
0.600
  6
CONTINUOUS
 10
90.56879
 20
18.73585
 30
 0
 11
90.74910
 21
18.77371
  0
LINE
  8
Engraving
 62
   12
 39
0.600
  6
CONTINUOUS
 10
90.74910
 20
18.77371
 30
 0
 11
90.93487
 21
18.79665
  0
LINE
  8
Engraving
 62
   12
 39
0.600
  6
CONTINUOUS
 10
90.93487
 20
18.79665
 30
 0
 11
91.12338
 21
18.80433
  0
LINE
  8
Engraving
 62
   12
 39
0.600
  6
CONTINUOUS
 10
91.12338
 20
18.80433
 30
 0
 11
91.31190
 21
18.79665
  0
LINE
  8
Engraving
 62
   12
 39
0.600
  6
CONTINUOUS
 10
91.31190
 20
18.79665
 30
 0
 11
91.49766
 21
18.77371
  0
LINE
  8
Engraving
 62
   12
 39
0.600
  6
CONTINUOUS
 10
91.49766
 20
18.77371
 30
 0
 11
91.67797
 21
18.73585
  0
LINE
  8
Engraving
 62
   12
 39
0.600
  6
CONTINUOUS
 10
91.67797
 20
18.73585
 30
 0
 11
91.85019
 21
18.68362
  0
LINE
  8
Engraving
 62
   12
 39
0.600
  6
CONTINUOUS
 10
91.85019
 20
18.68362
 30
 0
 11
92.01182
 21
18.61778
  0
LINE
  8
Engraving
 62
   12
 39
0.600
  6
CONTINUOUS
 10
92.01182
 20
18.61778
 30
 0
 11
92.16049
 21
18.53929
  0
LINE
  8
Engraving
 62
   12
 39
0.600
  6
CONTINUOUS
 10
92.16049
 20
18.53929
 30
 0
 11
92.29403
 21
18.44930
  0
LINE
  8
Engraving
 62
   12
 39
0.600
  6
CONTINUOUS
 10
92.29403
 20
18.44930
 30
 0
 11
92.41050
 21
18.34912
  0
LINE
  8
Engraving
 62
   12
 39
0.600
  6
CONTINUOUS
 10
92.41050
 20
18.34912
 30
 0
 11
92.50821
 21
18.24021
  0
LINE
  8
Engraving
 62
   12
 39
0.600
  6
CONTINUOUS
 10
92.50821
 20
18.24021
 30
 0
 11
92.58572
 21
18.12416
  0
LINE
  8
Engraving
 62
   12
 39
0.600
  6
CONTINUOUS
 10
92.58572
 20
18.12416
 30
 0
 11
92.64191
 21
18.00266
  0
LINE
  8
Engraving
 62
   12
 39
0.600
  6
CONTINUOUS
 10
92.64191
 20
18.00266
 30
 0
 11
92.67595
 21
17.87748
  0
LINE
  8
Engraving
 62
   12
 39
0.600
  6
CONTINUOUS
 10
92.67595
 20
17.87748
 30
 0
 11
92.68735
 21
17.75044
  0
LINE
  8
Engraving
 62
   12
 39
0.600
  6
CONTINUOUS
 10
92.68735
 20
17.75044
 30
 0
 11
92.68735
 21
17.32889
  0
LINE
  8
Engraving
 62
   12
 39
0.600
  6
CONTINUOUS
 10
92.68735
 20
17.32889
 30
 0
 11
92.67595
 21
17.20186
  0
LINE
  8
Engraving
 62
   12
 39
0.600
  6
CONTINUOUS
 10
92.67595
 20
17.20186
 30
 0
 11
92.64191
 21
17.07668
  0
LINE
  8
Engraving
 62
   12
 39
0.600
  6
CONTINUOUS
 10
92.64191
 20
17.07668
 30
 0
 11
92.58572
 21
16.95517
  0
LINE
  8
Engraving
 62
   12
 39
0.600
  6
CONTINUOUS
 10
92.58572
 20
16.95517
 30
 0
 11
92.50821
 21
16.83912
  0
LINE
  8
Engraving
 62
   12
 39
0.600
  6
CONTINUOUS
 10
92.50821
 20
16.83912
 30
 0
 11
92.41050
 21
16.73021
  0
LINE
  8
Engraving
 62
   12
 39
0.600
  6
CONTINUOUS
 10
92.41050
 20
16.73021
 30
 0
 11
92.29403
 21
16.63003
  0
LINE
  8
Engraving
 62
   12
 39
0.600
  6
CONTINUOUS
 10
92.29403
 20
16.63003
 30
 0
 11
92.16049
 21
16.54004
  0
LINE
  8
Engraving
 62
   12
 39
0.600
  6
CONTINUOUS
 10
92.16049
 20
16.54004
 30
 0
 11
92.01182
 21
16.46156
  0
LINE
  8
Engraving
 62
   12
 39
0.600
  6
CONTINUOUS
 10
92.01182
 20
16.46156
 30
 0
 11
91.85019
 21
16.39572
  0
LINE
  8
Engraving
 62
   12
 39
0.600
  6
CONTINUOUS
 10
91.85019
 20
16.39572
 30
 0
 11
91.67797
 21
16.34349
  0
LINE
  8
Engraving
 62
   12
 39
0.600
  6
CONTINUOUS
 10
91.67797
 20
16.34349
 30
 0
 11
91.49766
 21
16.30562
  0
LINE
  8
Engraving
 62
   12
 39
0.600
  6
CONTINUOUS
 10
91.49766
 20
16.30562
 30
 0
 11
91.31190
 21
16.28268
  0
LINE
  8
Engraving
 62
   12
 39
0.600
  6
CONTINUOUS
 10
91.31190
 20
16.28268
 30
 0
 11
91.12338
 21
16.27500
  0
LINE
  8
Engraving
 62
   12
 39
0.600
  6
CONTINUOUS
 10
91.12338
 20
16.27500
 30
 0
 11
90.93487
 21
16.28268
  0
LINE
  8
Engraving
 62
   12
 39
0.600
  6
CONTINUOUS
 10
90.93487
 20
16.28268
 30
 0
 11
90.74910
 21
16.30562
  0
LINE
  8
Engraving
 62
   12
 39
0.600
  6
CONTINUOUS
 10
90.74910
 20
16.30562
 30
 0
 11
90.56879
 21
16.34349
  0
LINE
  8
Engraving
 62
   12
 39
0.600
  6
CONTINUOUS
 10
90.56879
 20
16.34349
 30
 0
 11
90.39657
 21
16.39572
  0
LINE
  8
Engraving
 62
   12
 39
0.600
  6
CONTINUOUS
 10
90.39657
 20
16.39572
 30
 0
 11
90.23494
 21
16.46156
  0
LINE
  8
Engraving
 62
   12
 39
0.600
  6
CONTINUOUS
 10
90.23494
 20
16.46156
 30
 0
 11
90.08628
 21
16.54004
  0
LINE
  8
Engraving
 62
   12
 39
0.600
  6
CONTINUOUS
 10
90.08628
 20
16.54004
 30
 0
 11
89.95273
 21
16.63003
  0
LINE
  8
Engraving
 62
   12
 39
0.600
  6
CONTINUOUS
 10
89.95273
 20
16.63003
 30
 0
 11
89.83626
 21
16.73021
  0
LINE
  8
Engraving
 62
   12
 39
0.600
  6
CONTINUOUS
 10
89.83626
 20
16.73021
 30
 0
 11
89.73855
 21
16.83912
  0
LINE
  8
Engraving
 62
   12
 39
0.600
  6
CONTINUOUS
 10
89.73855
 20
16.83912
 30
 0
 11
89.66104
 21
16.95517
  0
LINE
  8
Engraving
 62
   12
 39
0.600
  6
CONTINUOUS
 10
89.66104
 20
16.95517
 30
 0
 11
89.60486
 21
17.07668
  0
LINE
  8
Engraving
 62
   12
 39
0.600
  6
CONTINUOUS
 10
89.60486
 20
17.07668
 30
 0
 11
89.57081
 21
17.20186
  0
LINE
  8
Engraving
 62
   12
 39
0.600
  6
CONTINUOUS
 10
89.57081
 20
17.20186
 30
 0
 11
89.55941
 21
17.32889
  0
LINE
  8
Engraving
 62
   12
 39
0.600
  6
CONTINUOUS
 10
89.55941
 20
17.32889
 30
 0
 11
89.55941
 21
18.80433
  0
LINE
  8
Engraving
 62
   12
 39
0.600
  6
CONTINUOUS
 10
94.18801
 20
16.27500
 30
 0
 11
94.18801
 21
18.80433
  0
LINE
  8
Engraving
 62
   12
 39
0.600
  6
CONTINUOUS
 10
94.18801
 20
18.80433
 30
 0
 11
94.18801
 21
17.96122
  0
LINE
  8
Engraving
 62
   12
 39
0.600
  6
CONTINUOUS
 10
94.18801
 20
17.96122
 30
 0
 11
94.19703
 21
18.06752
  0
LINE
  8
Engraving
 62
   12
 39
0.600
  6
CONTINUOUS
 10
94.19703
 20
18.06752
 30
 0
 11
94.22399
 21
18.17242
  0
LINE
  8
Engraving
 62
   12
 39
0.600
  6
CONTINUOUS
 10
94.22399
 20
18.17242
 30
 0
 11
94.26854
 21
18.27457
  0
LINE
  8
Engraving
 62
   12
 39
0.600
  6
CONTINUOUS
 10
94.26854
 20
18.27457
 30
 0
 11
94.33010
 21
18.37262
  0
LINE
  8
Engraving
 62
   12
 39
0.600
  6
CONTINUOUS
 10
94.33010
 20
18.37262
 30
 0
 11
94.40786
 21
18.46530
  0
LINE
  8
Engraving
 62
   12
 39
0.600
  6
CONTINUOUS
 10
94.40786
 20
18.46530
 30
 0
 11
94.50080
 21
18.55140
  0
LINE
  8
Engraving
 62
   12
 39
0.600
  6
CONTINUOUS
 10
94.50080
 20
18.55140
 30
 0
 11
94.60005
 21
18.62060
  0
LINE
  8
Engraving
 62
   12
 39
0.600
  6
CONTINUOUS
 10
94.60005
 20
18.62060
 30
 0
 11
94.71444
 21
18.67823
  0
LINE
  8
Engraving
 62
   12
 39
0.600
  6
CONTINUOUS
 10
94.71444
 20
18.67823
 30
 0
 11
94.84102
 21
18.72280
  0
LINE
  8
Engraving
 62
   12
 39
0.600
  6
CONTINUOUS
 10
94.84102
 20
18.72280
 30
 0
 11
94.97655
 21
18.75316
  0
LINE
  8
Engraving
 62
   12
 39
0.600
  6
CONTINUOUS
 10
94.97655
 20
18.75316
 30
 0
 11
95.11754
 21
18.76854
  0
LINE
  8
Engraving
 62
   12
 39
0.600
  6
CONTINUOUS
 10
95.11754
 20
18.76854
 30
 0
 11
95.26036
 21
18.76854
  0
LINE
  8
Engraving
 62
   12
 39
0.600
  6
CONTINUOUS
 10
95.26036
 20
18.76854
 30
 0
 11
95.40134
 21
18.75316
  0
LINE
  8
Engraving
 62
   12
 39
0.600
  6
CONTINUOUS
 10
95.40134
 20
18.75316
 30
 0
 11
95.53687
 21
18.72280
  0
LINE
  8
Engraving
 62
   12
 39
0.600
  6
CONTINUOUS
 10
95.53687
 20
18.72280
 30
 0
 11
95.66346
 21
18.67823
  0
LINE
  8
Engraving
 62
   12
 39
0.600
  6
CONTINUOUS
 10
95.66346
 20
18.67823
 30
 0
 11
95.77784
 21
18.62060
  0
LINE
  8
Engraving
 62
   12
 39
0.600
  6
CONTINUOUS
 10
95.77784
 20
18.62060
 30
 0
 11
95.87709
 21
18.55140
  0
LINE
  8
Engraving
 62
   12
 39
0.600
  6
CONTINUOUS
 10
97.31479
 20
17.53967
 30
 0
 11
100.44274
 21
17.53967
  0
LINE
  8
Engraving
 62
   12
 39
0.600
  6
CONTINUOUS
 10
100.44274
 20
17.53967
 30
 0
 11
100.44274
 21
17.75044
  0
LINE
  8
Engraving
 62
   12
 39
0.600
  6
CONTINUOUS
 10
100.44274
 20
17.75044
 30
 0
 11
100.43133
 21
17.87748
  0
LINE
  8
Engraving
 62
   12
 39
0.600
  6
CONTINUOUS
 10
100.43133
 20
17.87748
 30
 0
 11
100.39729
 21
18.00266
  0
LINE
  8
Engraving
 62
   12
 39
0.600
  6
CONTINUOUS
 10
100.39729
 20
18.00266
 30
 0
 11
100.34110
 21
18.12416
  0
LINE
  8
Engraving
 62
   12
 39
0.600
  6
CONTINUOUS
 10
100.34110
 20
18.12416
 30
 0
 11
100.26359
 21
18.24021
  0
LINE
  8
Engraving
 62
   12
 39
0.600
  6
CONTINUOUS
 10
100.26359
 20
18.24021
 30
 0
 11
100.16589
 21
18.34912
  0
LINE
  8
Engraving
 62
   12
 39
0.600
  6
CONTINUOUS
 10
100.16589
 20
18.34912
 30
 0
 11
100.04941
 21
18.44930
  0
LINE
  8
Engraving
 62
   12
 39
0.600
  6
CONTINUOUS
 10
100.04941
 20
18.44930
 30
 0
 11
99.91587
 21
18.53929
  0
LINE
  8
Engraving
 62
   12
 39
0.600
  6
CONTINUOUS
 10
99.91587
 20
18.53929
 30
 0
 11
99.76720
 21
18.61778
  0
LINE
  8
Engraving
 62
   12
 39
0.600
  6
CONTINUOUS
 10
99.76720
 20
18.61778
 30
 0
 11
99.60558
 21
18.68362
  0
LINE
  8
Engraving
 62
   12
 39
0.600
  6
CONTINUOUS
 10
99.60558
 20
18.68362
 30
 0
 11
99.43336
 21
18.73585
  0
LINE
  8
Engraving
 62
   12
 39
0.600
  6
CONTINUOUS
 10
99.43336
 20
18.73585
 30
 0
 11
99.25305
 21
18.77371
  0
LINE
  8
Engraving
 62
   12
 39
0.600
  6
CONTINUOUS
 10
99.25305
 20
18.77371
 30
 0
 11
99.06728
 21
18.79665
  0
LINE
  8
Engraving
 62
   12
 39
0.600
  6
CONTINUOUS
 10
99.06728
 20
18.79665
 30
 0
 11
98.87877
 21
18.80433
  0
LINE
  8
Engraving
 62
   12
 39
0.600
  6
CONTINUOUS
 10
98.87877
 20
18.80433
 30
 0
 11
98.69025
 21
18.79665
  0
LINE
  8
Engraving
 62
   12
 39
0.600
  6
CONTINUOUS
 10
98.69025
 20
18.79665
 30
 0
 11
98.50448
 21
18.77371
  0
LINE
  8
Engraving
 62
   12
 39
0.600
  6
CONTINUOUS
 10
98.50448
 20
18.77371
 30
 0
 11
98.32417
 21
18.73585
  0
LINE
  8
Engraving
 62
   12
 39
0.600
  6
CONTINUOUS
 10
98.32417
 20
18.73585
 30
 0
 11
98.15195
 21
18.68362
  0
LINE
  8
Engraving
 62
   12
 39
0.600
  6
CONTINUOUS
 10
98.15195
 20
18.68362
 30
 0
 11
97.99033
 21
18.61778
  0
LINE
  8
Engraving
 62
   12
 39
0.600
  6
CONTINUOUS
 10
97.99033
 20
18.61778
 30
 0
 11
97.84166
 21
18.53929
  0
LINE
  8
Engraving
 62
   12
 39
0.600
  6
CONTINUOUS
 10
97.84166
 20
18.53929
 30
 0
 11
97.70812
 21
18.44930
  0
LINE
  8
Engraving
 62
   12
 39
0.600
  6
CONTINUOUS
 10
97.70812
 20
18.44930
 30
 0
 11
97.59164
 21
18.34912
  0
LINE
  8
Engraving
 62
   12
 39
0.600
  6
CONTINUOUS
 10
97.59164
 20
18.34912
 30
 0
 11
97.49394
 21
18.24021
  0
LINE
  8
Engraving
 62
   12
 39
0.600
  6
CONTINUOUS
 10
97.49394
 20
18.24021
 30
 0
 11
97.41643
 21
18.12416
  0
LINE
  8
Engraving
 62
   12
 39
0.600
  6
CONTINUOUS
 10
97.41643
 20
18.12416
 30
 0
 11
97.36024
 21
18.00266
  0
LINE
  8
Engraving
 62
   12
 39
0.600
  6
CONTINUOUS
 10
97.36024
 20
18.00266
 30
 0
 11
97.32620
 21
17.87748
  0
LINE
  8
Engraving
 62
   12
 39
0.600
  6
CONTINUOUS
 10
97.32620
 20
17.87748
 30
 0
 11
97.31479
 21
17.75044
  0
LINE
  8
Engraving
 62
   12
 39
0.600
  6
CONTINUOUS
 10
97.31479
 20
17.75044
 30
 0
 11
97.31479
 21
17.32889
  0
LINE
  8
Engraving
 62
   12
 39
0.600
  6
CONTINUOUS
 10
97.31479
 20
17.32889
 30
 0
 11
97.32613
 21
17.19831
  0
LINE
  8
Engraving
 62
   12
 39
0.600
  6
CONTINUOUS
 10
97.32613
 20
17.19831
 30
 0
 11
97.36028
 21
17.06954
  0
LINE
  8
Engraving
 62
   12
 39
0.600
  6
CONTINUOUS
 10
97.36028
 20
17.06954
 30
 0
 11
97.41676
 21
16.94440
  0
LINE
  8
Engraving
 62
   12
 39
0.600
  6
CONTINUOUS
 10
97.41676
 20
16.94440
 30
 0
 11
97.49479
 21
16.82463
  0
LINE
  8
Engraving
 62
   12
 39
0.600
  6
CONTINUOUS
 10
97.49479
 20
16.82463
 30
 0
 11
97.59328
 21
16.71191
  0
LINE
  8
Engraving
 62
   12
 39
0.600
  6
CONTINUOUS
 10
97.59328
 20
16.71191
 30
 0
 11
97.71084
 21
16.60783
  0
LINE
  8
Engraving
 62
   12
 39
0.600
  6
CONTINUOUS
 10
97.71084
 20
16.60783
 30
 0
 11
97.84582
 21
16.51383
  0
LINE
  8
Engraving
 62
   12
 39
0.600
  6
CONTINUOUS
 10
97.84582
 20
16.51383
 30
 0
 11
97.99634
 21
16.43123
  0
LINE
  8
Engraving
 62
   12
 39
0.600
  6
CONTINUOUS
 10
97.99634
 20
16.43123
 30
 0
 11
98.16029
 21
16.36120
  0
LINE
  8
Engraving
 62
   12
 39
0.600
  6
CONTINUOUS
 10
98.16029
 20
16.36120
 30
 0
 11
98.33537
 21
16.30471
  0
LINE
  8
Engraving
 62
   12
 39
0.600
  6
CONTINUOUS
 10
98.33537
 20
16.30471
 30
 0
 11
98.51913
 21
16.26256
  0
LINE
  8
Engraving
 62
   12
 39
0.600
  6
CONTINUOUS
 10
98.51913
 20
16.26256
 30
 0
 11
98.70899
 21
16.23533
  0
LINE
  8
Engraving
 62
   12
 39
0.600
  6
CONTINUOUS
 10
98.70899
 20
16.23533
 30
 0
 11
98.90229
 21
16.22341
  0
LINE
  8
Engraving
 62
   12
 39
0.600
  6
CONTINUOUS
 10
98.90229
 20
16.22341
 30
 0
 11
99.09633
 21
16.22696
  0
LINE
  8
Engraving
 62
   12
 39
0.600
  6
CONTINUOUS
 10
99.09633
 20
16.22696
 30
 0
 11
99.28839
 21
16.24594
  0
LINE
  8
Engraving
 62
   12
 39
0.600
  6
CONTINUOUS
 10
99.28839
 20
16.24594
 30
 0
 11
99.47578
 21
16.28007
  0
LINE
  8
Engraving
 62
   12
 39
0.600
  6
CONTINUOUS
 10
99.47578
 20
16.28007
 30
 0
 11
99.65587
 21
16.32889
  0
LINE
  8
Engraving
 62
   12
 39
0.600
  6
CONTINUOUS
 10
99.65587
 20
16.32889
 30
 0
 11
99.82614
 21
16.39170
  0
LINE
  8
Engraving
 62
   12
 39
0.600
  6
CONTINUOUS
 10
99.82614
 20
16.39170
 30
 0
 11
99.98420
 21
16.46762
  0
LINE
  8
Engraving
 62
   12
 39
0.600
  6
CONTINUOUS
 10
99.98420
 20
16.46762
 30
 0
 11
100.12785
 21
16.55560
  0
LINE
  8
Engraving
 62
   12
 39
0.600
  6
CONTINUOUS
 10
100.12785
 20
16.55560
 30
 0
 11
100.25506
 21
16.65440
  0
LINE
  8
Engraving
 62
   12
 39
0.600
  6
CONTINUOUS
 10
101.94339
 20
16.61124
 30
 0
 11
102.11361
 21
16.51838
  0
LINE
  8
Engraving
 62
   12
 39
0.600
  6
CONTINUOUS
 10
102.11361
 20
16.51838
 30
 0
 11
102.29711
 21
16.43780
  0
LINE
  8
Engraving
 62
   12
 39
0.600
  6
CONTINUOUS
 10
102.29711
 20
16.43780
 30
 0
 11
102.49194
 21
16.37038
  0
LINE
  8
Engraving
 62
   12
 39
0.600
  6
CONTINUOUS
 10
102.49194
 20
16.37038
 30
 0
 11
102.69603
 21
16.31683
  0
LINE
  8
Engraving
 62
   12
 39
0.600
  6
CONTINUOUS
 10
102.69603
 20
16.31683
 30
 0
 11
102.90722
 21
16.27772
  0
LINE
  8
Engraving
 62
   12
 39
0.600
  6
CONTINUOUS
 10
102.90722
 20
16.27772
 30
 0
 11
103.12325
 21
16.25345
  0
LINE
  8
Engraving
 62
   12
 39
0.600
  6
CONTINUOUS
 10
103.12325
 20
16.25345
 30
 0
 11
103.34185
 21
16.24430
  0
LINE
  8
Engraving
 62
   12
 39
0.600
  6
CONTINUOUS
 10
103.34185
 20
16.24430
 30
 0
 11
103.56068
 21
16.25035
  0
LINE
  8
Engraving
 62
   12
 39
0.600
  6
CONTINUOUS
 10
103.56068
 20
16.25035
 30
 0
 11
103.77743
 21
16.27155
  0
LINE
  8
Engraving
 62
   12
 39
0.600
  6
CONTINUOUS
 10
103.77743
 20
16.27155
 30
 0
 11
103.98979
 21
16.30766
  0
LINE
  8
Engraving
 62
   12
 39
0.600
  6
CONTINUOUS
 10
103.98979
 20
16.30766
 30
 0
 11
104.19551
 21
16.35831
  0
LINE
  8
Engraving
 62
   12
 39
0.600
  6
CONTINUOUS
 10
104.19551
 20
16.35831
 30
 0
 11
104.31032
 21
16.39872
  0
LINE
  8
Engraving
 62
   12
 39
0.600
  6
CONTINUOUS
 10
104.31032
 20
16.39872
 30
 0
 11
104.41399
 21
16.45105
  0
LINE
  8
Engraving
 62
   12
 39
0.600
  6
CONTINUOUS
 10
104.41399
 20
16.45105
 30
 0
 11
104.50382
 21
16.51394
  0
LINE
  8
Engraving
 62
   12
 39
0.600
  6
CONTINUOUS
 10
104.50382
 20
16.51394
 30
 0
 11
104.57746
 21
16.58574
  0
LINE
  8
Engraving
 62
   12
 39
0.600
  6
CONTINUOUS
 10
104.57746
 20
16.58574
 30
 0
 11
104.63300
 21
16.66460
  0
LINE
  8
Engraving
 62
   12
 39
0.600
  6
CONTINUOUS
 10
104.63300
 20
16.66460
 30
 0
 11
104.66898
 21
16.74845
  0
LINE
  8
Engraving
 62
   12
 39
0.600
  6
CONTINUOUS
 10
104.66898
 20
16.74845
 30
 0
 11
104.68448
 21
16.83510
  0
LINE
  8
Engraving
 62
   12
 39
0.600
  6
CONTINUOUS
 10
104.68448
 20
16.83510
 30
 0
 11
104.67909
 21
16.92231
  0
LINE
  8
Engraving
 62
   12
 39
0.600
  6
CONTINUOUS
 10
104.67909
 20
16.92231
 30
 0
 11
104.65295
 21
17.00780
  0
LINE
  8
Engraving
 62
   12
 39
0.600
  6
CONTINUOUS
 10
104.65295
 20
17.00780
 30
 0
 11
104.60673
 21
17.08934
  0
LINE
  8
Engraving
 62
   12
 39
0.600
  6
CONTINUOUS
 10
104.60673
 20
17.08934
 30
 0
 11
104.54165
 21
17.16481
  0
LINE
  8
Engraving
 62
   12
 39
0.600
  6
CONTINUOUS
 10
104.54165
 20
17.16481
 30
 0
 11
104.45940
 21
17.23224
  0
LINE
  8
Engraving
 62
   12
 39
0.600
  6
CONTINUOUS
 10
104.45940
 20
17.23224
 30
 0
 11
104.36213
 21
17.28987
  0
LINE
  8
Engraving
 62
   12
 39
0.600
  6
CONTINUOUS
 10
104.36213
 20
17.28987
 30
 0
 11
104.25235
 21
17.33621
  0
LINE
  8
Engraving
 62
   12
 39
0.600
  6
CONTINUOUS
 10
104.25235
 20
17.33621
 30
 0
 11
104.13295
 21
17.37004
  0
LINE
  8
Engraving
 62
   12
 39
0.600
  6
CONTINUOUS
 10
104.13295
 20
17.37004
 30
 0
 11
102.44386
 21
17.74944
  0
LINE
  8
Engraving
 62
   12
 39
0.600
  6
CONTINUOUS
 10
102.44386
 20
17.74944
 30
 0
 11
102.32619
 21
17.78364
  0
LINE
  8
Engraving
 62
   12
 39
0.600
  6
CONTINUOUS
 10
102.32619
 20
17.78364
 30
 0
 11
102.21937
 21
17.83135
  0
LINE
  8
Engraving
 62
   12
 39
0.600
  6
CONTINUOUS
 10
102.21937
 20
17.83135
 30
 0
 11
102.12679
 21
17.89105
  0
LINE
  8
Engraving
 62
   12
 39
0.600
  6
CONTINUOUS
 10
102.12679
 20
17.89105
 30
 0
 11
102.05136
 21
17.96086
  0
LINE
  8
Engraving
 62
   12
 39
0.600
  6
CONTINUOUS
 10
102.05136
 20
17.96086
 30
 0
 11
101.99549
 21
18.03857
  0
LINE
  8
Engraving
 62
   12
 39
0.600
  6
CONTINUOUS
 10
101.99549
 20
18.03857
 30
 0
 11
101.96093
 21
18.12173
  0
LINE
  8
Engraving
 62
   12
 39
0.600
  6
CONTINUOUS
 10
101.96093
 20
18.12173
 30
 0
 11
101.94878
 21
18.20769
  0
LINE
  8
Engraving
 62
   12
 39
0.600
  6
CONTINUOUS
 10
101.94878
 20
18.20769
 30
 0
 11
101.95942
 21
18.29375
  0
LINE
  8
Engraving
 62
   12
 39
0.600
  6
CONTINUOUS
 10
101.95942
 20
18.29375
 30
 0
 11
101.99252
 21
18.37717
  0
LINE
  8
Engraving
 62
   12
 39
0.600
  6
CONTINUOUS
 10
101.99252
 20
18.37717
 30
 0
 11
102.04704
 21
18.45532
  0
LINE
  8
Engraving
 62
   12
 39
0.600
  6
CONTINUOUS
 10
102.04704
 20
18.45532
 30
 0
 11
102.12123
 21
18.52573
  0
LINE
  8
Engraving
 62
   12
 39
0.600
  6
CONTINUOUS
 10
102.12123
 20
18.52573
 30
 0
 11
102.21277
 21
18.58616
  0
LINE
  8
Engraving
 62
   12
 39
0.600
  6
CONTINUOUS
 10
102.21277
 20
18.58616
 30
 0
 11
102.31874
 21
18.63471
  0
LINE
  8
Engraving
 62
   12
 39
0.600
  6
CONTINUOUS
 10
102.31874
 20
18.63471
 30
 0
 11
102.52307
 21
18.70342
  0
LINE
  8
Engraving
 62
   12
 39
0.600
  6
CONTINUOUS
 10
102.52307
 20
18.70342
 30
 0
 11
102.73681
 21
18.75759
  0
LINE
  8
Engraving
 62
   12
 39
0.600
  6
CONTINUOUS
 10
102.73681
 20
18.75759
 30
 0
 11
102.95768
 21
18.79666
  0
LINE
  8
Engraving
 62
   12
 39
0.600
  6
CONTINUOUS
 10
102.95768
 20
18.79666
 30
 0
 11
103.18335
 21
18.82020
  0
LINE
  8
Engraving
 62
   12
 39
0.600
  6
CONTINUOUS
 10
103.18335
 20
18.82020
 30
 0
 11
103.41141
 21
18.82797
  0
LINE
  8
Engraving
 62
   12
 39
0.600
  6
CONTINUOUS
 10
103.41141
 20
18.82797
 30
 0
 11
103.63945
 21
18.81988
  0
LINE
  8
Engraving
 62
   12
 39
0.600
  6
CONTINUOUS
 10
103.63945
 20
18.81988
 30
 0
 11
103.86505
 21
18.79602
  0
LINE
  8
Engraving
 62
   12
 39
0.600
  6
CONTINUOUS
 10
103.86505
 20
18.79602
 30
 0
 11
104.08580
 21
18.75665
  0
LINE
  8
Engraving
 62
   12
 39
0.600
  6
CONTINUOUS
 10
104.08580
 20
18.75665
 30
 0
 11
104.29937
 21
18.70217
  0
LINE
  8
Engraving
 62
   12
 39
0.600
  6
CONTINUOUS
 10
104.29937
 20
18.70217
 30
 0
 11
104.50348
 21
18.63318
  0
LINE
  8
Engraving
 62
   12
 39
0.600
  6
CONTINUOUS
 10
104.50348
 20
18.63318
 30
 0
 11
104.69598
 21
18.55040
  0
LINE
  8
Engraving
 62
   12
 39
0.600
  6
CONTINUOUS
 10
106.19653
 20
16.61124
 30
 0
 11
106.36676
 21
16.51838
  0
LINE
  8
Engraving
 62
   12
 39
0.600
  6
CONTINUOUS
 10
106.36676
 20
16.51838
 30
 0
 11
106.55025
 21
16.43780
  0
LINE
  8
Engraving
 62
   12
 39
0.600
  6
CONTINUOUS
 10
106.55025
 20
16.43780
 30
 0
 11
106.74508
 21
16.37038
  0
LINE
  8
Engraving
 62
   12
 39
0.600
  6
CONTINUOUS
 10
106.74508
 20
16.37038
 30
 0
 11
106.94918
 21
16.31683
  0
LINE
  8
Engraving
 62
   12
 39
0.600
  6
CONTINUOUS
 10
106.94918
 20
16.31683
 30
 0
 11
107.16036
 21
16.27772
  0
LINE
  8
Engraving
 62
   12
 39
0.600
  6
CONTINUOUS
 10
107.16036
 20
16.27772
 30
 0
 11
107.37640
 21
16.25345
  0
LINE
  8
Engraving
 62
   12
 39
0.600
  6
CONTINUOUS
 10
107.37640
 20
16.25345
 30
 0
 11
107.59499
 21
16.24430
  0
LINE
  8
Engraving
 62
   12
 39
0.600
  6
CONTINUOUS
 10
107.59499
 20
16.24430
 30
 0
 11
107.81383
 21
16.25035
  0
LINE
  8
Engraving
 62
   12
 39
0.600
  6
CONTINUOUS
 10
107.81383
 20
16.25035
 30
 0
 11
108.03058
 21
16.27155
  0
LINE
  8
Engraving
 62
   12
 39
0.600
  6
CONTINUOUS
 10
108.03058
 20
16.27155
 30
 0
 11
108.24294
 21
16.30766
  0
LINE
  8
Engraving
 62
   12
 39
0.600
  6
CONTINUOUS
 10
108.24294
 20
16.30766
 30
 0
 11
108.44865
 21
16.35831
  0
LINE
  8
Engraving
 62
   12
 39
0.600
  6
CONTINUOUS
 10
108.44865
 20
16.35831
 30
 0
 11
108.56347
 21
16.39872
  0
LINE
  8
Engraving
 62
   12
 39
0.600
  6
CONTINUOUS
 10
108.56347
 20
16.39872
 30
 0
 11
108.66714
 21
16.45105
  0
LINE
  8
Engraving
 62
   12
 39
0.600
  6
CONTINUOUS
 10
108.66714
 20
16.45105
 30
 0
 11
108.75696
 21
16.51394
  0
LINE
  8
Engraving
 62
   12
 39
0.600
  6
CONTINUOUS
 10
108.75696
 20
16.51394
 30
 0
 11
108.83060
 21
16.58574
  0
LINE
  8
Engraving
 62
   12
 39
0.600
  6
CONTINUOUS
 10
108.83060
 20
16.58574
 30
 0
 11
108.88614
 21
16.66460
  0
LINE
  8
Engraving
 62
   12
 39
0.600
  6
CONTINUOUS
 10
108.88614
 20
16.66460
 30
 0
 11
108.92213
 21
16.74845
  0
LINE
  8
Engraving
 62
   12
 39
0.600
  6
CONTINUOUS
 10
108.92213
 20
16.74845
 30
 0
 11
108.93763
 21
16.83510
  0
LINE
  8
Engraving
 62
   12
 39
0.600
  6
CONTINUOUS
 10
108.93763
 20
16.83510
 30
 0
 11
108.93224
 21
16.92231
  0
LINE
  8
Engraving
 62
   12
 39
0.600
  6
CONTINUOUS
 10
108.93224
 20
16.92231
 30
 0
 11
108.90609
 21
17.00780
  0
LINE
  8
Engraving
 62
   12
 39
0.600
  6
CONTINUOUS
 10
108.90609
 20
17.00780
 30
 0
 11
108.85988
 21
17.08934
  0
LINE
  8
Engraving
 62
   12
 39
0.600
  6
CONTINUOUS
 10
108.85988
 20
17.08934
 30
 0
 11
108.79480
 21
17.16481
  0
LINE
  8
Engraving
 62
   12
 39
0.600
  6
CONTINUOUS
 10
108.79480
 20
17.16481
 30
 0
 11
108.71255
 21
17.23224
  0
LINE
  8
Engraving
 62
   12
 39
0.600
  6
CONTINUOUS
 10
108.71255
 20
17.23224
 30
 0
 11
108.61527
 21
17.28987
  0
LINE
  8
Engraving
 62
   12
 39
0.600
  6
CONTINUOUS
 10
108.61527
 20
17.28987
 30
 0
 11
108.50550
 21
17.33621
  0
LINE
  8
Engraving
 62
   12
 39
0.600
  6
CONTINUOUS
 10
108.50550
 20
17.33621
 30
 0
 11
108.38609
 21
17.37004
  0
LINE
  8
Engraving
 62
   12
 39
0.600
  6
CONTINUOUS
 10
108.38609
 20
17.37004
 30
 0
 11
106.69700
 21
17.74944
  0
LINE
  8
Engraving
 62
   12
 39
0.600
  6
CONTINUOUS
 10
106.69700
 20
17.74944
 30
 0
 11
106.57933
 21
17.78364
  0
LINE
  8
Engraving
 62
   12
 39
0.600
  6
CONTINUOUS
 10
106.57933
 20
17.78364
 30
 0
 11
106.47252
 21
17.83135
  0
LINE
  8
Engraving
 62
   12
 39
0.600
  6
CONTINUOUS
 10
106.47252
 20
17.83135
 30
 0
 11
106.37993
 21
17.89105
  0
LINE
  8
Engraving
 62
   12
 39
0.600
  6
CONTINUOUS
 10
106.37993
 20
17.89105
 30
 0
 11
106.30451
 21
17.96086
  0
LINE
  8
Engraving
 62
   12
 39
0.600
  6
CONTINUOUS
 10
106.30451
 20
17.96086
 30
 0
 11
106.24863
 21
18.03857
  0
LINE
  8
Engraving
 62
   12
 39
0.600
  6
CONTINUOUS
 10
106.24863
 20
18.03857
 30
 0
 11
106.21407
 21
18.12173
  0
LINE
  8
Engraving
 62
   12
 39
0.600
  6
CONTINUOUS
 10
106.21407
 20
18.12173
 30
 0
 11
106.20192
 21
18.20769
  0
LINE
  8
Engraving
 62
   12
 39
0.600
  6
CONTINUOUS
 10
106.20192
 20
18.20769
 30
 0
 11
106.21257
 21
18.29375
  0
LINE
  8
Engraving
 62
   12
 39
0.600
  6
CONTINUOUS
 10
106.21257
 20
18.29375
 30
 0
 11
106.24567
 21
18.37717
  0
LINE
  8
Engraving
 62
   12
 39
0.600
  6
CONTINUOUS
 10
106.24567
 20
18.37717
 30
 0
 11
106.30018
 21
18.45532
  0
LINE
  8
Engraving
 62
   12
 39
0.600
  6
CONTINUOUS
 10
106.30018
 20
18.45532
 30
 0
 11
106.37438
 21
18.52573
  0
LINE
  8
Engraving
 62
   12
 39
0.600
  6
CONTINUOUS
 10
106.37438
 20
18.52573
 30
 0
 11
106.46591
 21
18.58616
  0
LINE
  8
Engraving
 62
   12
 39
0.600
  6
CONTINUOUS
 10
106.46591
 20
18.58616
 30
 0
 11
106.57189
 21
18.63471
  0
LINE
  8
Engraving
 62
   12
 39
0.600
  6
CONTINUOUS
 10
106.57189
 20
18.63471
 30
 0
 11
106.77622
 21
18.70342
  0
LINE
  8
Engraving
 62
   12
 39
0.600
  6
CONTINUOUS
 10
106.77622
 20
18.70342
 30
 0
 11
106.98995
 21
18.75759
  0
LINE
  8
Engraving
 62
   12
 39
0.600
  6
CONTINUOUS
 10
106.98995
 20
18.75759
 30
 0
 11
107.21083
 21
18.79666
  0
LINE
  8
Engraving
 62
   12
 39
0.600
  6
CONTINUOUS
 10
107.21083
 20
18.79666
 30
 0
 11
107.43649
 21
18.82020
  0
LINE
  8
Engraving
 62
   12
 39
0.600
  6
CONTINUOUS
 10
107.43649
 20
18.82020
 30
 0
 11
107.66456
 21
18.82797
  0
LINE
  8
Engraving
 62
   12
 39
0.600
  6
CONTINUOUS
 10
107.66456
 20
18.82797
 30
 0
 11
107.89260
 21
18.81988
  0
LINE
  8
Engraving
 62
   12
 39
0.600
  6
CONTINUOUS
 10
107.89260
 20
18.81988
 30
 0
 11
108.11819
 21
18.79602
  0
LINE
  8
Engraving
 62
   12
 39
0.600
  6
CONTINUOUS
 10
108.11819
 20
18.79602
 30
 0
 11
108.33894
 21
18.75665
  0
LINE
  8
Engraving
 62
   12
 39
0.600
  6
CONTINUOUS
 10
108.33894
 20
18.75665
 30
 0
 11
108.55251
 21
18.70217
  0
LINE
  8
Engraving
 62
   12
 39
0.600
  6
CONTINUOUS
 10
108.55251
 20
18.70217
 30
 0
 11
108.75663
 21
18.63318
  0
LINE
  8
Engraving
 62
   12
 39
0.600
  6
CONTINUOUS
 10
108.75663
 20
18.63318
 30
 0
 11
108.94912
 21
18.55040
  0
LINE
  8
Engraving
 62
   12
 39
0.600
  6
CONTINUOUS
 10
110.44968
 20
17.53867
 30
 0
 11
113.57762
 21
17.53867
  0
LINE
  8
Engraving
 62
   12
 39
0.600
  6
CONTINUOUS
 10
113.57762
 20
17.53867
 30
 0
 11
113.57762
 21
17.74944
  0
LINE
  8
Engraving
 62
   12
 39
0.600
  6
CONTINUOUS
 10
113.57762
 20
17.74944
 30
 0
 11
113.56622
 21
17.87648
  0
LINE
  8
Engraving
 62
   12
 39
0.600
  6
CONTINUOUS
 10
113.56622
 20
17.87648
 30
 0
 11
113.53217
 21
18.00166
  0
LINE
  8
Engraving
 62
   12
 39
0.600
  6
CONTINUOUS
 10
113.53217
 20
18.00166
 30
 0
 11
113.47599
 21
18.12316
  0
LINE
  8
Engraving
 62
   12
 39
0.600
  6
CONTINUOUS
 10
113.47599
 20
18.12316
 30
 0
 11
113.39848
 21
18.23921
  0
LINE
  8
Engraving
 62
   12
 39
0.600
  6
CONTINUOUS
 10
113.39848
 20
18.23921
 30
 0
 11
113.30077
 21
18.34812
  0
LINE
  8
Engraving
 62
   12
 39
0.600
  6
CONTINUOUS
 10
113.30077
 20
18.34812
 30
 0
 11
113.18430
 21
18.44830
  0
LINE
  8
Engraving
 62
   12
 39
0.600
  6
CONTINUOUS
 10
113.18430
 20
18.44830
 30
 0
 11
113.05075
 21
18.53829
  0
LINE
  8
Engraving
 62
   12
 39
0.600
  6
CONTINUOUS
 10
113.05075
 20
18.53829
 30
 0
 11
112.90209
 21
18.61678
  0
LINE
  8
Engraving
 62
   12
 39
0.600
  6
CONTINUOUS
 10
112.90209
 20
18.61678
 30
 0
 11
112.74046
 21
18.68262
  0
LINE
  8
Engraving
 62
   12
 39
0.600
  6
CONTINUOUS
 10
112.74046
 20
18.68262
 30
 0
 11
112.56824
 21
18.73485
  0
LINE
  8
Engraving
 62
   12
 39
0.600
  6
CONTINUOUS
 10
112.56824
 20
18.73485
 30
 0
 11
112.38793
 21
18.77271
  0
LINE
  8
Engraving
 62
   12
 39
0.600
  6
CONTINUOUS
 10
112.38793
 20
18.77271
 30
 0
 11
112.20217
 21
18.79565
  0
LINE
  8
Engraving
 62
   12
 39
0.600
  6
CONTINUOUS
 10
112.20217
 20
18.79565
 30
 0
 11
112.01365
 21
18.80333
  0
LINE
  8
Engraving
 62
   12
 39
0.600
  6
CONTINUOUS
 10
112.01365
 20
18.80333
 30
 0
 11
111.82513
 21
18.79565
  0
LINE
  8
Engraving
 62
   12
 39
0.600
  6
CONTINUOUS
 10
111.82513
 20
18.79565
 30
 0
 11
111.63937
 21
18.77271
  0
LINE
  8
Engraving
 62
   12
 39
0.600
  6
CONTINUOUS
 10
111.63937
 20
18.77271
 30
 0
 11
111.45906
 21
18.73485
  0
LINE
  8
Engraving
 62
   12
 39
0.600
  6
CONTINUOUS
 10
111.45906
 20
18.73485
 30
 0
 11
111.28684
 21
18.68262
  0
LINE
  8
Engraving
 62
   12
 39
0.600
  6
CONTINUOUS
 10
111.28684
 20
18.68262
 30
 0
 11
111.12521
 21
18.61678
  0
LINE
  8
Engraving
 62
   12
 39
0.600
  6
CONTINUOUS
 10
111.12521
 20
18.61678
 30
 0
 11
110.97654
 21
18.53829
  0
LINE
  8
Engraving
 62
   12
 39
0.600
  6
CONTINUOUS
 10
110.97654
 20
18.53829
 30
 0
 11
110.84300
 21
18.44830
  0
LINE
  8
Engraving
 62
   12
 39
0.600
  6
CONTINUOUS
 10
110.84300
 20
18.44830
 30
 0
 11
110.72653
 21
18.34812
  0
LINE
  8
Engraving
 62
   12
 39
0.600
  6
CONTINUOUS
 10
110.72653
 20
18.34812
 30
 0
 11
110.62882
 21
18.23921
  0
LINE
  8
Engraving
 62
   12
 39
0.600
  6
CONTINUOUS
 10
110.62882
 20
18.23921
 30
 0
 11
110.55131
 21
18.12316
  0
LINE
  8
Engraving
 62
   12
 39
0.600
  6
CONTINUOUS
 10
110.55131
 20
18.12316
 30
 0
 11
110.49512
 21
18.00166
  0
LINE
  8
Engraving
 62
   12
 39
0.600
  6
CONTINUOUS
 10
110.49512
 20
18.00166
 30
 0
 11
110.46108
 21
17.87648
  0
LINE
  8
Engraving
 62
   12
 39
0.600
  6
CONTINUOUS
 10
110.46108
 20
17.87648
 30
 0
 11
110.44968
 21
17.74944
  0
LINE
  8
Engraving
 62
   12
 39
0.600
  6
CONTINUOUS
 10
110.44968
 20
17.74944
 30
 0
 11
110.44968
 21
17.32789
  0
LINE
  8
Engraving
 62
   12
 39
0.600
  6
CONTINUOUS
 10
110.44968
 20
17.32789
 30
 0
 11
110.46101
 21
17.19731
  0
LINE
  8
Engraving
 62
   12
 39
0.600
  6
CONTINUOUS
 10
110.46101
 20
17.19731
 30
 0
 11
110.49516
 21
17.06854
  0
LINE
  8
Engraving
 62
   12
 39
0.600
  6
CONTINUOUS
 10
110.49516
 20
17.06854
 30
 0
 11
110.55164
 21
16.94340
  0
LINE
  8
Engraving
 62
   12
 39
0.600
  6
CONTINUOUS
 10
110.55164
 20
16.94340
 30
 0
 11
110.62968
 21
16.82363
  0
LINE
  8
Engraving
 62
   12
 39
0.600
  6
CONTINUOUS
 10
110.62968
 20
16.82363
 30
 0
 11
110.72816
 21
16.71091
  0
LINE
  8
Engraving
 62
   12
 39
0.600
  6
CONTINUOUS
 10
110.72816
 20
16.71091
 30
 0
 11
110.84572
 21
16.60683
  0
LINE
  8
Engraving
 62
   12
 39
0.600
  6
CONTINUOUS
 10
110.84572
 20
16.60683
 30
 0
 11
110.98071
 21
16.51283
  0
LINE
  8
Engraving
 62
   12
 39
0.600
  6
CONTINUOUS
 10
110.98071
 20
16.51283
 30
 0
 11
111.13123
 21
16.43023
  0
LINE
  8
Engraving
 62
   12
 39
0.600
  6
CONTINUOUS
 10
111.13123
 20
16.43023
 30
 0
 11
111.29518
 21
16.36020
  0
LINE
  8
Engraving
 62
   12
 39
0.600
  6
CONTINUOUS
 10
111.29518
 20
16.36020
 30
 0
 11
111.47025
 21
16.30371
  0
LINE
  8
Engraving
 62
   12
 39
0.600
  6
CONTINUOUS
 10
111.47025
 20
16.30371
 30
 0
 11
111.65401
 21
16.26156
  0
LINE
  8
Engraving
 62
   12
 39
0.600
  6
CONTINUOUS
 10
111.65401
 20
16.26156
 30
 0
 11
111.84387
 21
16.23433
  0
LINE
  8
Engraving
 62
   12
 39
0.600
  6
CONTINUOUS
 10
111.84387
 20
16.23433
 30
 0
 11
112.03718
 21
16.22241
  0
LINE
  8
Engraving
 62
   12
 39
0.600
  6
CONTINUOUS
 10
112.03718
 20
16.22241
 30
 0
 11
112.23122
 21
16.22596
  0
LINE
  8
Engraving
 62
   12
 39
0.600
  6
CONTINUOUS
 10
112.23122
 20
16.22596
 30
 0
 11
112.42328
 21
16.24494
  0
LINE
  8
Engraving
 62
   12
 39
0.600
  6
CONTINUOUS
 10
112.42328
 20
16.24494
 30
 0
 11
112.61066
 21
16.27907
  0
LINE
  8
Engraving
 62
   12
 39
0.600
  6
CONTINUOUS
 10
112.61066
 20
16.27907
 30
 0
 11
112.79075
 21
16.32789
  0
LINE
  8
Engraving
 62
   12
 39
0.600
  6
CONTINUOUS
 10
112.79075
 20
16.32789
 30
 0
 11
112.96102
 21
16.39070
  0
LINE
  8
Engraving
 62
   12
 39
0.600
  6
CONTINUOUS
 10
112.96102
 20
16.39070
 30
 0
 11
113.11909
 21
16.46662
  0
LINE
  8
Engraving
 62
   12
 39
0.600
  6
CONTINUOUS
 10
113.11909
 20
16.46662
 30
 0
 11
113.26273
 21
16.55460
  0
LINE
  8
Engraving
 62
   12
 39
0.600
  6
CONTINUOUS
 10
113.26273
 20
16.55460
 30
 0
 11
113.38994
 21
16.65340
  0
LINE
  8
Engraving
 62
   12
 39
0.600
  6
CONTINUOUS
 10
118.20622
 20
20.06700
 30
 0
 11
118.20622
 21
17.32689
  0
LINE
  8
Engraving
 62
   12
 39
0.600
  6
CONTINUOUS
 10
118.20622
 20
17.32689
 30
 0
 11
118.20235
 21
17.19955
  0
LINE
  8
Engraving
 62
   12
 39
0.600
  6
CONTINUOUS
 10
118.20235
 20
17.19955
 30
 0
 11
118.17574
 21
17.07345
  0
LINE
  8
Engraving
 62
   12
 39
0.600
  6
CONTINUOUS
 10
118.17574
 20
17.07345
 30
 0
 11
118.12677
 21
16.95044
  0
LINE
  8
Engraving
 62
   12
 39
0.600
  6
CONTINUOUS
 10
118.12677
 20
16.95044
 30
 0
 11
118.05615
 21
16.83229
  0
LINE
  8
Engraving
 62
   12
 39
0.600
  6
CONTINUOUS
 10
118.05615
 20
16.83229
 30
 0
 11
117.96491
 21
16.72075
  0
LINE
  8
Engraving
 62
   12
 39
0.600
  6
CONTINUOUS
 10
117.96491
 20
16.72075
 30
 0
 11
117.85438
 21
16.61743
  0
LINE
  8
Engraving
 62
   12
 39
0.600
  6
CONTINUOUS
 10
117.85438
 20
16.61743
 30
 0
 11
117.72618
 21
16.52384
  0
LINE
  8
Engraving
 62
   12
 39
0.600
  6
CONTINUOUS
 10
117.72618
 20
16.52384
 30
 0
 11
117.58217
 21
16.44135
  0
LINE
  8
Engraving
 62
   12
 39
0.600
  6
CONTINUOUS
 10
117.58217
 20
16.44135
 30
 0
 11
117.42445
 21
16.37115
  0
LINE
  8
Engraving
 62
   12
 39
0.600
  6
CONTINUOUS
 10
117.42445
 20
16.37115
 30
 0
 11
117.25533
 21
16.31428
  0
LINE
  8
Engraving
 62
   12
 39
0.600
  6
CONTINUOUS
 10
117.25533
 20
16.31428
 30
 0
 11
117.07727
 21
16.27156
  0
LINE
  8
Engraving
 62
   12
 39
0.600
  6
CONTINUOUS
 10
117.07727
 20
16.27156
 30
 0
 11
116.89286
 21
16.24361
  0
LINE
  8
Engraving
 62
   12
 39
0.600
  6
CONTINUOUS
 10
116.89286
 20
16.24361
 30
 0
 11
116.70480
 21
16.23084
  0
LINE
  8
Engraving
 62
   12
 39
0.600
  6
CONTINUOUS
 10
116.70480
 20
16.23084
 30
 0
 11
116.51583
 21
16.23345
  0
LINE
  8
Engraving
 62
   12
 39
0.600
  6
CONTINUOUS
 10
116.51583
 20
16.23345
 30
 0
 11
116.32870
 21
16.25138
  0
LINE
  8
Engraving
 62
   12
 39
0.600
  6
CONTINUOUS
 10
116.32870
 20
16.25138
 30
 0
 11
116.14615
 21
16.28438
  0
LINE
  8
Engraving
 62
   12
 39
0.600
  6
CONTINUOUS
 10
116.14615
 20
16.28438
 30
 0
 11
115.97082
 21
16.33197
  0
LINE
  8
Engraving
 62
   12
 39
0.600
  6
CONTINUOUS
 10
115.97082
 20
16.33197
 30
 0
 11
115.80529
 21
16.39345
  0
LINE
  8
Engraving
 62
   12
 39
0.600
  6
CONTINUOUS
 10
115.80529
 20
16.39345
 30
 0
 11
115.65197
 21
16.46793
  0
LINE
  8
Engraving
 62
   12
 39
0.600
  6
CONTINUOUS
 10
115.65197
 20
16.46793
 30
 0
 11
115.51308
 21
16.55432
  0
LINE
  8
Engraving
 62
   12
 39
0.600
  6
CONTINUOUS
 10
115.51308
 20
16.55432
 30
 0
 11
115.39066
 21
16.65136
  0
LINE
  8
Engraving
 62
   12
 39
0.600
  6
CONTINUOUS
 10
115.39066
 20
16.65136
 30
 0
 11
115.28649
 21
16.75764
  0
LINE
  8
Engraving
 62
   12
 39
0.600
  6
CONTINUOUS
 10
115.28649
 20
16.75764
 30
 0
 11
115.20209
 21
16.87160
  0
LINE
  8
Engraving
 62
   12
 39
0.600
  6
CONTINUOUS
 10
115.20209
 20
16.87160
 30
 0
 11
115.13869
 21
16.99159
  0
LINE
  8
Engraving
 62
   12
 39
0.600
  6
CONTINUOUS
 10
115.13869
 20
16.99159
 30
 0
 11
115.09722
 21
17.11585
  0
LINE
  8
Engraving
 62
   12
 39
0.600
  6
CONTINUOUS
 10
115.09722
 20
17.11585
 30
 0
 11
115.07827
 21
17.24258
  0
LINE
  8
Engraving
 62
   12
 39
0.600
  6
CONTINUOUS
 10
115.07827
 20
17.24258
 30
 0
 11
115.07827
 21
17.74844
  0
LINE
  8
Engraving
 62
   12
 39
0.600
  6
CONTINUOUS
 10
115.07827
 20
17.74844
 30
 0
 11
115.08968
 21
17.87548
  0
LINE
  8
Engraving
 62
   12
 39
0.600
  6
CONTINUOUS
 10
115.08968
 20
17.87548
 30
 0
 11
115.12372
 21
18.00066
  0
LINE
  8
Engraving
 62
   12
 39
0.600
  6
CONTINUOUS
 10
115.12372
 20
18.00066
 30
 0
 11
115.17991
 21
18.12216
  0
LINE
  8
Engraving
 62
   12
 39
0.600
  6
CONTINUOUS
 10
115.17991
 20
18.12216
 30
 0
 11
115.25742
 21
18.23821
  0
LINE
  8
Engraving
 62
   12
 39
0.600
  6
CONTINUOUS
 10
115.25742
 20
18.23821
 30
 0
 11
115.35512
 21
18.34712
  0
LINE
  8
Engraving
 62
   12
 39
0.600
  6
CONTINUOUS
 10
115.35512
 20
18.34712
 30
 0
 11
115.47160
 21
18.44730
  0
LINE
  8
Engraving
 62
   12
 39
0.600
  6
CONTINUOUS
 10
115.47160
 20
18.44730
 30
 0
 11
115.60514
 21
18.53729
  0
LINE
  8
Engraving
 62
   12
 39
0.600
  6
CONTINUOUS
 10
115.60514
 20
18.53729
 30
 0
 11
115.75381
 21
18.61578
  0
LINE
  8
Engraving
 62
   12
 39
0.600
  6
CONTINUOUS
 10
115.75381
 20
18.61578
 30
 0
 11
115.91543
 21
18.68162
  0
LINE
  8
Engraving
 62
   12
 39
0.600
  6
CONTINUOUS
 10
115.91543
 20
18.68162
 30
 0
 11
116.08765
 21
18.73385
  0
LINE
  8
Engraving
 62
   12
 39
0.600
  6
CONTINUOUS
 10
116.08765
 20
18.73385
 30
 0
 11
116.26796
 21
18.77171
  0
LINE
  8
Engraving
 62
   12
 39
0.600
  6
CONTINUOUS
 10
116.26796
 20
18.77171
 30
 0
 11
116.45373
 21
18.79465
  0
LINE
  8
Engraving
 62
   12
 39
0.600
  6
CONTINUOUS
 10
116.45373
 20
18.79465
 30
 0
 11
116.64225
 21
18.80233
  0
LINE
  8
Engraving
 62
   12
 39
0.600
  6
CONTINUOUS
 10
116.64225
 20
18.80233
 30
 0
 11
116.83076
 21
18.79465
  0
LINE
  8
Engraving
 62
   12
 39
0.600
  6
CONTINUOUS
 10
116.83076
 20
18.79465
 30
 0
 11
117.01653
 21
18.77171
  0
LINE
  8
Engraving
 62
   12
 39
0.600
  6
CONTINUOUS
 10
117.01653
 20
18.77171
 30
 0
 11
117.19684
 21
18.73385
  0
LINE
  8
Engraving
 62
   12
 39
0.600
  6
CONTINUOUS
 10
117.19684
 20
18.73385
 30
 0
 11
117.36906
 21
18.68162
  0
LINE
  8
Engraving
 62
   12
 39
0.600
  6
CONTINUOUS
 10
117.36906
 20
18.68162
 30
 0
 11
117.53068
 21
18.61578
  0
LINE
  8
Engraving
 62
   12
 39
0.600
  6
CONTINUOUS
 10
117.53068
 20
18.61578
 30
 0
 11
117.67935
 21
18.53729
  0
LINE
  8
Engraving
 62
   12
 39
0.600
  6
CONTINUOUS
 10
117.67935
 20
18.53729
 30
 0
 11
117.81289
 21
18.44730
  0
LINE
  8
Engraving
 62
   12
 39
0.600
  6
CONTINUOUS
 10
117.81289
 20
18.44730
 30
 0
 11
117.92937
 21
18.34712
  0
LINE
  8
Engraving
 62
   12
 39
0.600
  6
CONTINUOUS
 10
117.92937
 20
18.34712
 30
 0
 11
118.02707
 21
18.23821
  0
LINE
  8
Engraving
 62
   12
 39
0.600
  6
CONTINUOUS
 10
118.02707
 20
18.23821
 30
 0
 11
118.10458
 21
18.12216
  0
LINE
  8
Engraving
 62
   12
 39
0.600
  6
CONTINUOUS
 10
118.10458
 20
18.12216
 30
 0
 11
118.16077
 21
18.00066
  0
LINE
  8
Engraving
 62
   12
 39
0.600
  6
CONTINUOUS
 10
118.16077
 20
18.00066
 30
 0
 11
118.19481
 21
17.87548
  0
LINE
  8
Engraving
 62
   12
 39
0.600
  6
CONTINUOUS
 10
118.19481
 20
17.87548
 30
 0
 11
118.20622
 21
17.74844
  0
LINE
  8
Engraving
 62
   12
 39
0.600
  6
CONTINUOUS
 10
118.20622
 20
17.74844
 30
 0
 11
118.20622
 21
16.27300
  0
LINE
  8
Engraving
 62
   12
 39
0.600
  6
CONTINUOUS
 10
124.33481
 20
17.32689
 30
 0
 11
127.46275
 21
17.32689
  0
LINE
  8
Engraving
 62
   12
 39
0.600
  6
CONTINUOUS
 10
123.70922
 20
16.27300
 30
 0
 11
125.89878
 21
20.06700
  0
LINE
  8
Engraving
 62
   12
 39
0.600
  6
CONTINUOUS
 10
125.89878
 20
20.06700
 30
 0
 11
128.08834
 21
16.27300
  0
LINE
  8
Engraving
 62
   12
 39
0.600
  6
CONTINUOUS
 10
129.58883
 20
20.06700
 30
 0
 11
129.58883
 21
19.85622
  0
LINE
  8
Engraving
 62
   12
 39
0.600
  6
CONTINUOUS
 10
129.58883
 20
18.80233
 30
 0
 11
129.58883
 21
16.27300
  0
LINE
  8
Engraving
 62
   12
 39
0.600
  6
CONTINUOUS
 10
131.08915
 20
16.27300
 30
 0
 11
131.08915
 21
18.80233
  0
LINE
  8
Engraving
 62
   12
 39
0.600
  6
CONTINUOUS
 10
131.08915
 20
18.80233
 30
 0
 11
131.08915
 21
17.95922
  0
LINE
  8
Engraving
 62
   12
 39
0.600
  6
CONTINUOUS
 10
131.08915
 20
17.95922
 30
 0
 11
131.09817
 21
18.06552
  0
LINE
  8
Engraving
 62
   12
 39
0.600
  6
CONTINUOUS
 10
131.09817
 20
18.06552
 30
 0
 11
131.12514
 21
18.17042
  0
LINE
  8
Engraving
 62
   12
 39
0.600
  6
CONTINUOUS
 10
131.12514
 20
18.17042
 30
 0
 11
131.16969
 21
18.27257
  0
LINE
  8
Engraving
 62
   12
 39
0.600
  6
CONTINUOUS
 10
131.16969
 20
18.27257
 30
 0
 11
131.23124
 21
18.37062
  0
LINE
  8
Engraving
 62
   12
 39
0.600
  6
CONTINUOUS
 10
131.23124
 20
18.37062
 30
 0
 11
131.30900
 21
18.46330
  0
LINE
  8
Engraving
 62
   12
 39
0.600
  6
CONTINUOUS
 10
131.30900
 20
18.46330
 30
 0
 11
131.40194
 21
18.54940
  0
LINE
  8
Engraving
 62
   12
 39
0.600
  6
CONTINUOUS
 10
131.40194
 20
18.54940
 30
 0
 11
131.50120
 21
18.61860
  0
LINE
  8
Engraving
 62
   12
 39
0.600
  6
CONTINUOUS
 10
131.50120
 20
18.61860
 30
 0
 11
131.61558
 21
18.67623
  0
LINE
  8
Engraving
 62
   12
 39
0.600
  6
CONTINUOUS
 10
131.61558
 20
18.67623
 30
 0
 11
131.74217
 21
18.72080
  0
LINE
  8
Engraving
 62
   12
 39
0.600
  6
CONTINUOUS
 10
131.74217
 20
18.72080
 30
 0
 11
131.87769
 21
18.75116
  0
LINE
  8
Engraving
 62
   12
 39
0.600
  6
CONTINUOUS
 10
131.87769
 20
18.75116
 30
 0
 11
132.01868
 21
18.76654
  0
LINE
  8
Engraving
 62
   12
 39
0.600
  6
CONTINUOUS
 10
132.01868
 20
18.76654
 30
 0
 11
132.16150
 21
18.76654
  0
LINE
  8
Engraving
 62
   12
 39
0.600
  6
CONTINUOUS
 10
132.16150
 20
18.76654
 30
 0
 11
132.30249
 21
18.75116
  0
LINE
  8
Engraving
 62
   12
 39
0.600
  6
CONTINUOUS
 10
132.30249
 20
18.75116
 30
 0
 11
132.43802
 21
18.72080
  0
LINE
  8
Engraving
 62
   12
 39
0.600
  6
CONTINUOUS
 10
132.43802
 20
18.72080
 30
 0
 11
132.56460
 21
18.67623
  0
LINE
  8
Engraving
 62
   12
 39
0.600
  6
CONTINUOUS
 10
132.56460
 20
18.67623
 30
 0
 11
132.67899
 21
18.61860
  0
LINE
  8
Engraving
 62
   12
 39
0.600
  6
CONTINUOUS
 10
132.67899
 20
18.61860
 30
 0
 11
132.77824
 21
18.54940
  0
LINE
  8
Engraving
 62
   7
 39
0.400
  6
CONTINUOUS
 10
2.50300
 20
97.48218
 30
 0
 11
197.46700
 21
97.52982
  0
LINE
  8
Engraving
 62
   7
 39
0.400
  6
CONTINUOUS
 10
197.50131
 20
2.58500
 30
 0
 11
197.49469
 21
97.50900
  0
LINE
  8
Engraving
 62
   7
 39
0.400
  6
CONTINUOUS
 10
2.51003
 20
2.64558
 30
 0
 11
197.51597
 21
2.49242
  0
LINE
  8
Engraving
 62
   7
 39
0.400
  6
CONTINUOUS
 10
2.50879
 20
2.64800
 30
 0
 11
2.49721
 21
97.51000
  0
ARC
  8
Contour
 62
   7
 39
0.100
  6
CONTINUOUS
 10
29.07700
 20
35.30800
 30
 0
 40
1.50000
 50
180.00000
 51
270.00000
  0
LINE
  8
Contour
 62
   7
 39
0.100
  6
CONTINUOUS
 10
29.07700
 20
33.80800
 30
 0
 11
50.92300
 21
33.80800
  0
ARC
  8
Contour
 62
   7
 39
0.100
  6
CONTINUOUS
 10
50.92300
 20
35.30800
 30
 0
 40
1.50000
 50
270.00000
 51
360.00000
  0
LINE
  8
Contour
 62
   7
 39
0.100
  6
CONTINUOUS
 10
52.42300
 20
35.30800
 30
 0
 11
52.42300
 21
64.69200
  0
ARC
  8
Contour
 62
   7
 39
0.100
  6
CONTINUOUS
 10
50.92300
 20
64.69200
 30
 0
 40
1.50000
 50
0.00000
 51
90.00000
  0
LINE
  8
Contour
 62
   7
 39
0.100
  6
CONTINUOUS
 10
50.92300
 20
66.19200
 30
 0
 11
29.07700
 21
66.19200
  0
ARC
  8
Contour
 62
   7
 39
0.100
  6
CONTINUOUS
 10
29.07700
 20
64.69200
 30
 0
 40
1.50000
 50
90.00000
 51
180.00000
  0
LINE
  8
Contour
 62
   7
 39
0.100
  6
CONTINUOUS
 10
27.57700
 20
64.69200
 30
 0
 11
27.57700
 21
35.30800
  0
CIRCLE
  8
Contour
 62
   7
 39
0.100
  6
CONTINUOUS
 10
112.57400
 20
50.00000
 30
 0
 40
7.50000
  0
CIRCLE
  8
Contour
 62
   7
 39
0.100
  6
CONTINUOUS
 10
84.17000
 20
50.00000
 30
 0
 40
7.50000
  0
CIRCLE
  8
Contour
 62
   7
 39
0.100
  6
CONTINUOUS
 10
12.73400
 20
11.27100
 30
 0
 40
4.29900
  0
CIRCLE
  8
Contour
 62
   7
 39
0.100
  6
CONTINUOUS
 10
187.03900
 20
87.39400
 30
 0
 40
4.29900
  0
LINE
  8
Reference_points
 62
   1
 39
0.100
  6
CONTINUOUS
 10
-0.99500
 20
0.00000
 30
 0
 11
0.99500
 21
0.00000
  0
LINE
  8
Reference_points
 62
   1
 39
0.100
  6
CONTINUOUS
 10
0.00000
 20
-0.99500
 30
 0
 11
0.00000
 21
0.99500
  0
LINE
  8
Reference_points
 62
   1
 39
0.100
  6
CONTINUOUS
 10
39.00500
 20
50.00000
 30
 0
 11
40.99500
 21
50.00000
  0
LINE
  8
Reference_points
 62
   1
 39
0.100
  6
CONTINUOUS
 10
40.00000
 20
49.00500
 30
 0
 11
40.00000
 21
50.99500
  0
LINE
  8
Reference_points
 62
   1
 39
0.100
  6
CONTINUOUS
 10
111.57900
 20
50.00000
 30
 0
 11
113.56900
 21
50.00000
  0
LINE
  8
Reference_points
 62
   1
 39
0.100
  6
CONTINUOUS
 10
112.57400
 20
49.00500
 30
 0
 11
112.57400
 21
50.99500
  0
LINE
  8
Reference_points
 62
   1
 39
0.100
  6
CONTINUOUS
 10
83.17500
 20
50.00000
 30
 0
 11
85.16500
 21
50.00000
  0
LINE
  8
Reference_points
 62
   1
 39
0.100
  6
CONTINUOUS
 10
84.17000
 20
49.00500
 30
 0
 11
84.17000
 21
50.99500
  0
LINE
  8
Reference_points
 62
   1
 39
0.100
  6
CONTINUOUS
 10
11.73900
 20
11.27100
 30
 0
 11
13.72900
 21
11.27100
  0
LINE
  8
Reference_points
 62
   1
 39
0.100
  6
CONTINUOUS
 10
12.73400
 20
10.27600
 30
 0
 11
12.73400
 21
12.26600
  0
LINE
  8
Reference_points
 62
   1
 39
0.100
  6
CONTINUOUS
 10
11.98400
 20
16.61100
 30
 0
 11
13.97400
 21
16.61100
  0
LINE
  8
Reference_points
 62
   1
 39
0.100
  6
CONTINUOUS
 10
12.97900
 20
15.61600
 30
 0
 11
12.97900
 21
17.60600
  0
LINE
  8
Reference_points
 62
   1
 39
0.100
  6
CONTINUOUS
 10
18.26500
 20
11.16500
 30
 0
 11
20.25500
 21
11.16500
  0
LINE
  8
Reference_points
 62
   1
 39
0.100
  6
CONTINUOUS
 10
19.26000
 20
10.17000
 30
 0
 11
19.26000
 21
12.16000
  0
LINE
  8
Reference_points
 62
   1
 39
0.100
  6
CONTINUOUS
 10
11.91300
 20
5.79000
 30
 0
 11
13.90300
 21
5.79000
  0
LINE
  8
Reference_points
 62
   1
 39
0.100
  6
CONTINUOUS
 10
12.90800
 20
4.79500
 30
 0
 11
12.90800
 21
6.78500
  0
LINE
  8
Reference_points
 62
   1
 39
0.100
  6
CONTINUOUS
 10
5.62800
 20
11.16700
 30
 0
 11
7.61800
 21
11.16700
  0
LINE
  8
Reference_points
 62
   1
 39
0.100
  6
CONTINUOUS
 10
6.62300
 20
10.17200
 30
 0
 11
6.62300
 21
12.16200
  0
LINE
  8
Reference_points
 62
   1
 39
0.100
  6
CONTINUOUS
 10
186.04400
 20
87.39400
 30
 0
 11
188.03400
 21
87.39400
  0
LINE
  8
Reference_points
 62
   1
 39
0.100
  6
CONTINUOUS
 10
187.03900
 20
86.39900
 30
 0
 11
187.03900
 21
88.38900
  0
LINE
  8
Reference_points
 62
   1
 39
0.100
  6
CONTINUOUS
 10
186.28900
 20
92.73400
 30
 0
 11
188.27900
 21
92.73400
  0
LINE
  8
Reference_points
 62
   1
 39
0.100
  6
CONTINUOUS
 10
187.28400
 20
91.73900
 30
 0
 11
187.28400
 21
93.72900
  0
LINE
  8
Reference_points
 62
   1
 39
0.100
  6
CONTINUOUS
 10
192.57000
 20
87.28800
 30
 0
 11
194.56000
 21
87.28800
  0
LINE
  8
Reference_points
 62
   1
 39
0.100
  6
CONTINUOUS
 10
193.56500
 20
86.29300
 30
 0
 11
193.56500
 21
88.28300
  0
LINE
  8
Reference_points
 62
   1
 39
0.100
  6
CONTINUOUS
 10
186.21800
 20
81.91300
 30
 0
 11
188.20800
 21
81.91300
  0
LINE
  8
Reference_points
 62
   1
 39
0.100
  6
CONTINUOUS
 10
187.21300
 20
80.91800
 30
 0
 11
187.21300
 21
82.90800
  0
LINE
  8
Reference_points
 62
   1
 39
0.100
  6
CONTINUOUS
 10
179.93300
 20
87.29000
 30
 0
 11
181.92300
 21
87.29000
  0
LINE
  8
Reference_points
 62
   1
 39
0.100
  6
CONTINUOUS
 10
180.92800
 20
86.29500
 30
 0
 11
180.92800
 21
88.28500
  0
LINE
  8
Reference_points
 62
   1
 39
0.100
  6
CONTINUOUS
 10
72.29700
 20
15.97700
 30
 0
 11
74.28700
 21
15.97700
  0
LINE
  8
Reference_points
 62
   1
 39
0.100
  6
CONTINUOUS
 10
73.29200
 20
14.98200
 30
 0
 11
73.29200
 21
16.97200
  0
LINE
  8
Reference_points
 62
   1
 39
0.100
  6
CONTINUOUS
 10
98.99000
 20
97.50600
 30
 0
 11
100.98000
 21
97.50600
  0
LINE
  8
Reference_points
 62
   1
 39
0.100
  6
CONTINUOUS
 10
99.98500
 20
96.51100
 30
 0
 11
99.98500
 21
98.50100
  0
LINE
  8
Reference_points
 62
   1
 39
0.100
  6
CONTINUOUS
 10
196.50300
 20
50.04700
 30
 0
 11
198.49300
 21
50.04700
  0
LINE
  8
Reference_points
 62
   1
 39
0.100
  6
CONTINUOUS
 10
197.49800
 20
49.05200
 30
 0
 11
197.49800
 21
51.04200
  0
LINE
  8
Reference_points
 62
   1
 39
0.100
  6
CONTINUOUS
 10
99.01800
 20
2.56900
 30
 0
 11
101.00800
 21
2.56900
  0
LINE
  8
Reference_points
 62
   1
 39
0.100
  6
CONTINUOUS
 10
100.01300
 20
1.57400
 30
 0
 11
100.01300
 21
3.56400
  0
LINE
  8
Reference_points
 62
   1
 39
0.100
  6
CONTINUOUS
 10
1.50800
 20
50.07900
 30
 0
 11
3.49800
 21
50.07900
  0
LINE
  8
Reference_points
 62
   1
 39
0.100
  6
CONTINUOUS
 10
2.50300
 20
49.08400
 30
 0
 11
2.50300
 21
51.07400
  0
LINE
  8
Reference_points
 62
   1
 39
0.100
  6
CONTINUOUS
 10
89.20400
 20
22.30100
 30
 0
 11
91.19400
 21
22.30100
  0
LINE
  8
Reference_points
 62
   1
 39
0.100
  6
CONTINUOUS
 10
90.19900
 20
21.30600
 30
 0
 11
90.19900
 21
23.29600
  0
ENDSEC
  0
EOF
