G04 #@! TF.FileFunction,Legend,Top*
%FSLAX46Y46*%
G04 Gerber Fmt 4.6, Leading zero omitted, Abs format (unit mm)*
G04 Created by KiCad (PCBNEW 4.0.6) date 03/10/20 09:40:22*
%MOMM*%
%LPD*%
G01*
G04 APERTURE LIST*
%ADD10C,0.100000*%
%ADD11C,0.584200*%
%ADD12C,0.152400*%
%ADD13C,0.203200*%
G04 APERTURE END LIST*
D10*
D11*
X106490105Y-90831005D02*
X105099152Y-90831005D01*
X104960057Y-92221957D01*
X105099152Y-92082862D01*
X105377343Y-91943767D01*
X106072819Y-91943767D01*
X106351009Y-92082862D01*
X106490105Y-92221957D01*
X106629200Y-92500148D01*
X106629200Y-93195624D01*
X106490105Y-93473814D01*
X106351009Y-93612910D01*
X106072819Y-93752005D01*
X105377343Y-93752005D01*
X105099152Y-93612910D01*
X104960057Y-93473814D01*
X109132914Y-90831005D02*
X108576533Y-90831005D01*
X108298343Y-90970100D01*
X108159248Y-91109195D01*
X107881057Y-91526481D01*
X107741962Y-92082862D01*
X107741962Y-93195624D01*
X107881057Y-93473814D01*
X108020152Y-93612910D01*
X108298343Y-93752005D01*
X108854724Y-93752005D01*
X109132914Y-93612910D01*
X109272010Y-93473814D01*
X109411105Y-93195624D01*
X109411105Y-92500148D01*
X109272010Y-92221957D01*
X109132914Y-92082862D01*
X108854724Y-91943767D01*
X108298343Y-91943767D01*
X108020152Y-92082862D01*
X107881057Y-92221957D01*
X107741962Y-92500148D01*
X112471200Y-90831005D02*
X113444867Y-93752005D01*
X114418534Y-90831005D01*
X115392200Y-93752005D02*
X115392200Y-90831005D01*
X116087676Y-90831005D01*
X116504962Y-90970100D01*
X116783153Y-91248290D01*
X116922248Y-91526481D01*
X117061343Y-92082862D01*
X117061343Y-92500148D01*
X116922248Y-93056529D01*
X116783153Y-93334719D01*
X116504962Y-93612910D01*
X116087676Y-93752005D01*
X115392200Y-93752005D01*
X119982343Y-93473814D02*
X119843248Y-93612910D01*
X119425962Y-93752005D01*
X119147772Y-93752005D01*
X118730486Y-93612910D01*
X118452295Y-93334719D01*
X118313200Y-93056529D01*
X118174105Y-92500148D01*
X118174105Y-92082862D01*
X118313200Y-91526481D01*
X118452295Y-91248290D01*
X118730486Y-90970100D01*
X119147772Y-90831005D01*
X119425962Y-90831005D01*
X119843248Y-90970100D01*
X119982343Y-91109195D01*
D12*
X114599860Y-73571100D02*
X113964860Y-74206100D01*
X113964860Y-75476100D02*
X114599860Y-76111100D01*
X114599860Y-76111100D02*
X113964860Y-76746100D01*
X113964860Y-78016100D02*
X114599860Y-78651100D01*
X114599860Y-78651100D02*
X113964860Y-79286100D01*
X113964860Y-80556100D02*
X114599860Y-81191100D01*
X114599860Y-81191100D02*
X113964860Y-81826100D01*
X113964860Y-83096100D02*
X114599860Y-83731100D01*
X114599860Y-73571100D02*
X118409860Y-73571100D01*
X118409860Y-73571100D02*
X119044860Y-74206100D01*
X119044860Y-74206100D02*
X119044860Y-75476100D01*
X119044860Y-75476100D02*
X118409860Y-76111100D01*
X118409860Y-76111100D02*
X119044860Y-76746100D01*
X119044860Y-76746100D02*
X119044860Y-78016100D01*
X119044860Y-78016100D02*
X118409860Y-78651100D01*
X118409860Y-78651100D02*
X119044860Y-79286100D01*
X119044860Y-79286100D02*
X119044860Y-80556100D01*
X119044860Y-80556100D02*
X118409860Y-81191100D01*
X118409860Y-81191100D02*
X119044860Y-81826100D01*
X119044860Y-81826100D02*
X119044860Y-83096100D01*
X119044860Y-83096100D02*
X118409860Y-83731100D01*
X118409860Y-76111100D02*
X114599860Y-76111100D01*
X118409860Y-78651100D02*
X114599860Y-78651100D01*
X118409860Y-81191100D02*
X114599860Y-81191100D01*
X118409860Y-83731100D02*
X114599860Y-83731100D01*
X113964860Y-81826100D02*
X113964860Y-83096100D01*
X113964860Y-79286100D02*
X113964860Y-80556100D01*
X113964860Y-76746100D02*
X113964860Y-78016100D01*
X113964860Y-74206100D02*
X113964860Y-75476100D01*
X114599860Y-83731100D02*
X113964860Y-84366100D01*
X113964860Y-85636100D02*
X114599860Y-86271100D01*
X118409860Y-83731100D02*
X119044860Y-84366100D01*
X119044860Y-84366100D02*
X119044860Y-85636100D01*
X119044860Y-85636100D02*
X118409860Y-86271100D01*
X118409860Y-86271100D02*
X114599860Y-86271100D01*
X113964860Y-84366100D02*
X113964860Y-85636100D01*
D13*
X113583860Y-74206100D02*
X113583860Y-75476100D01*
X113583860Y-74206100D02*
X113583860Y-75476100D01*
D11*
X115785194Y-69685505D02*
X115785194Y-71771933D01*
X115646098Y-72189219D01*
X115367908Y-72467410D01*
X114950622Y-72606505D01*
X114672432Y-72606505D01*
X118706194Y-72606505D02*
X117037051Y-72606505D01*
X117871622Y-72606505D02*
X117871622Y-69685505D01*
X117593432Y-70102790D01*
X117315241Y-70380981D01*
X117037051Y-70520076D01*
M02*
