G04 #@! TF.FileFunction,Copper,L2,Bot,Signal*
%FSLAX46Y46*%
G04 Gerber Fmt 4.6, Leading zero omitted, Abs format (unit mm)*
G04 Created by KiCad (PCBNEW 4.0.6) date 02/21/20 15:01:47*
%MOMM*%
%LPD*%
G01*
G04 APERTURE LIST*
%ADD10C,0.100000*%
%ADD11O,1.727200X1.727200*%
%ADD12C,1.879600*%
%ADD13R,1.600000X1.600000*%
%ADD14C,1.600000*%
%ADD15R,1.800000X1.800000*%
%ADD16C,1.800000*%
%ADD17O,1.800000X1.800000*%
%ADD18R,2.800000X2.800000*%
%ADD19O,2.800000X2.800000*%
%ADD20R,1.200000X1.200000*%
%ADD21C,1.200000*%
%ADD22R,1.700000X1.700000*%
%ADD23O,1.700000X1.700000*%
%ADD24R,1.350000X1.350000*%
%ADD25O,1.350000X1.350000*%
%ADD26C,3.000000*%
%ADD27R,1.350000X1.800000*%
%ADD28O,1.350000X1.800000*%
%ADD29O,1.600000X1.600000*%
%ADD30C,0.600000*%
%ADD31C,0.250000*%
G04 APERTURE END LIST*
D10*
D11*
X163932000Y-219456000D03*
X161392000Y-219456000D03*
X161392000Y-216916000D03*
X163932000Y-216916000D03*
X161392000Y-214376000D03*
X176759000Y-242316000D03*
X181839000Y-242316000D03*
X184379000Y-242316000D03*
X186919000Y-242316000D03*
X189459000Y-242316000D03*
X191999000Y-242316000D03*
X194539000Y-242316000D03*
X197079000Y-242316000D03*
X141199000Y-194056000D03*
X143739000Y-194056000D03*
X146279000Y-194056000D03*
X148819000Y-194056000D03*
X151359000Y-194056000D03*
X153899000Y-194056000D03*
X156439000Y-194056000D03*
X158979000Y-194056000D03*
X164059000Y-194056000D03*
X166599000Y-194056000D03*
X169139000Y-194056000D03*
X171679000Y-194056000D03*
X174219000Y-194056000D03*
X176759000Y-194056000D03*
X179299000Y-194056000D03*
X181839000Y-194056000D03*
X201143000Y-194056000D03*
X185903000Y-194056000D03*
X188443000Y-194056000D03*
X190983000Y-194056000D03*
X208763000Y-194056000D03*
X206223000Y-194056000D03*
X203683000Y-194056000D03*
X198603000Y-194056000D03*
X196063000Y-194056000D03*
X193523000Y-194056000D03*
X199619000Y-242316000D03*
X174219000Y-242316000D03*
X171679000Y-242316000D03*
X169139000Y-242316000D03*
X166599000Y-242316000D03*
X164059000Y-242316000D03*
X161519000Y-242316000D03*
X158979000Y-242316000D03*
X153899000Y-242316000D03*
X151359000Y-242316000D03*
X148819000Y-242316000D03*
X146279000Y-242316000D03*
X143739000Y-242316000D03*
X141199000Y-242316000D03*
X138659000Y-242316000D03*
X136119000Y-242316000D03*
X133579000Y-194056000D03*
X131039000Y-194056000D03*
X133579000Y-196596000D03*
X131039000Y-196596000D03*
X133579000Y-199136000D03*
X131039000Y-199136000D03*
X133579000Y-201676000D03*
X131039000Y-201676000D03*
X133579000Y-204216000D03*
X131039000Y-204216000D03*
X133579000Y-206756000D03*
X131039000Y-206756000D03*
X133579000Y-209296000D03*
X131039000Y-209296000D03*
X133579000Y-211836000D03*
X131039000Y-211836000D03*
X133579000Y-214376000D03*
X131039000Y-214376000D03*
X133579000Y-216916000D03*
X131039000Y-216916000D03*
X133579000Y-219456000D03*
X131039000Y-219456000D03*
X133579000Y-221996000D03*
X131039000Y-221996000D03*
X133579000Y-224536000D03*
X131039000Y-224536000D03*
X133579000Y-227076000D03*
X131039000Y-227076000D03*
X133579000Y-229616000D03*
X131039000Y-229616000D03*
X133579000Y-232156000D03*
X131039000Y-232156000D03*
X133579000Y-234696000D03*
X131039000Y-234696000D03*
X133579000Y-237236000D03*
X131039000Y-237236000D03*
X163932000Y-214376000D03*
D12*
X133400000Y-102400000D03*
X133400000Y-104940000D03*
X135940000Y-102400000D03*
X135940000Y-104940000D03*
X138480000Y-102400000D03*
X138480000Y-104940000D03*
X141020000Y-102400000D03*
X141020000Y-104940000D03*
X143560000Y-102400000D03*
X143560000Y-104940000D03*
X146100000Y-102400000D03*
X146100000Y-104940000D03*
X148640000Y-102400000D03*
X148640000Y-104940000D03*
X188800000Y-102400000D03*
X188800000Y-104940000D03*
X191340000Y-102400000D03*
X191340000Y-104940000D03*
X193880000Y-102400000D03*
X193880000Y-104940000D03*
X196420000Y-102400000D03*
X196420000Y-104940000D03*
X198960000Y-102400000D03*
X198960000Y-104940000D03*
X201500000Y-102400000D03*
X201500000Y-104940000D03*
X204040000Y-102400000D03*
X204040000Y-104940000D03*
X188800000Y-151200000D03*
X188800000Y-153740000D03*
X191340000Y-151200000D03*
X191340000Y-153740000D03*
X193880000Y-151200000D03*
X193880000Y-153740000D03*
X196420000Y-151200000D03*
X196420000Y-153740000D03*
X198960000Y-151200000D03*
X198960000Y-153740000D03*
X201500000Y-151200000D03*
X201500000Y-153740000D03*
X204040000Y-151200000D03*
X204040000Y-153740000D03*
X133400000Y-151200000D03*
X133400000Y-153740000D03*
X135940000Y-151200000D03*
X135940000Y-153740000D03*
X138480000Y-151200000D03*
X138480000Y-153740000D03*
X141020000Y-151200000D03*
X141020000Y-153740000D03*
X143560000Y-151200000D03*
X143560000Y-153740000D03*
X146100000Y-151200000D03*
X146100000Y-153740000D03*
X148640000Y-151200000D03*
X148640000Y-153740000D03*
X148100000Y-282000000D03*
X148100000Y-279460000D03*
X145560000Y-282000000D03*
X145560000Y-279460000D03*
X143020000Y-282000000D03*
X143020000Y-279460000D03*
X140480000Y-282000000D03*
X140480000Y-279460000D03*
X137940000Y-282000000D03*
X137940000Y-279460000D03*
X135400000Y-282000000D03*
X135400000Y-279460000D03*
X132860000Y-282000000D03*
X132860000Y-279460000D03*
X204343000Y-282000000D03*
X204343000Y-279460000D03*
X201803000Y-282000000D03*
X201803000Y-279460000D03*
X199263000Y-282000000D03*
X199263000Y-279460000D03*
X196723000Y-282000000D03*
X196723000Y-279460000D03*
X194183000Y-282000000D03*
X194183000Y-279460000D03*
X191643000Y-282000000D03*
X191643000Y-279460000D03*
X189103000Y-282000000D03*
X189103000Y-279460000D03*
X269000000Y-243200000D03*
X266460000Y-243200000D03*
X269000000Y-240660000D03*
X266460000Y-240660000D03*
X269000000Y-238120000D03*
X266460000Y-238120000D03*
X269000000Y-235580000D03*
X266460000Y-235580000D03*
X269000000Y-233040000D03*
X266460000Y-233040000D03*
X269000000Y-230500000D03*
X266460000Y-230500000D03*
X269000000Y-227960000D03*
X266460000Y-227960000D03*
X408600000Y-143600000D03*
X406060000Y-143600000D03*
X408600000Y-141060000D03*
X406060000Y-141060000D03*
X408600000Y-138520000D03*
X406060000Y-138520000D03*
X408600000Y-135980000D03*
X406060000Y-135980000D03*
X408600000Y-133440000D03*
X406060000Y-133440000D03*
X408600000Y-130900000D03*
X406060000Y-130900000D03*
X408600000Y-128360000D03*
X406060000Y-128360000D03*
X323800000Y-156400000D03*
X321260000Y-156400000D03*
X323800000Y-153860000D03*
X321260000Y-153860000D03*
X323800000Y-151320000D03*
X321260000Y-151320000D03*
X306000000Y-156400000D03*
X303460000Y-156400000D03*
X306000000Y-153860000D03*
X303460000Y-153860000D03*
X306000000Y-151320000D03*
X303460000Y-151320000D03*
X323800000Y-181800000D03*
X321260000Y-181800000D03*
X323800000Y-179260000D03*
X321260000Y-179260000D03*
X323800000Y-176720000D03*
X321260000Y-176720000D03*
X323800000Y-174180000D03*
X321260000Y-174180000D03*
D13*
X467538000Y-305918000D03*
D14*
X470038000Y-305918000D03*
D13*
X467716000Y-296316000D03*
D14*
X470216000Y-296316000D03*
D15*
X312852000Y-232995000D03*
D16*
X315392000Y-232995000D03*
D15*
X429616000Y-291236000D03*
D17*
X429616000Y-281076000D03*
D15*
X434975000Y-291186000D03*
D17*
X434975000Y-281026000D03*
D15*
X450113000Y-290957000D03*
D17*
X450113000Y-280797000D03*
D15*
X444627000Y-290957000D03*
D17*
X444627000Y-280797000D03*
D15*
X425298000Y-231800000D03*
D16*
X427838000Y-231800000D03*
D18*
X459613000Y-303809000D03*
D19*
X459613000Y-293649000D03*
D15*
X439598000Y-290957000D03*
D17*
X439598000Y-280797000D03*
D15*
X309601000Y-226924000D03*
D16*
X312141000Y-226924000D03*
D15*
X306350000Y-233071000D03*
D16*
X308890000Y-233071000D03*
D20*
X388622000Y-115519000D03*
D21*
X388622000Y-110439000D03*
X393702000Y-115519000D03*
X398782000Y-110439000D03*
X396242000Y-115519000D03*
X398782000Y-115519000D03*
X393702000Y-110439000D03*
X396242000Y-110439000D03*
D20*
X349455000Y-115748000D03*
D21*
X349455000Y-110668000D03*
X354535000Y-115748000D03*
X359615000Y-110668000D03*
X357075000Y-115748000D03*
X359615000Y-115748000D03*
X354535000Y-110668000D03*
X357075000Y-110668000D03*
D20*
X362431000Y-98882000D03*
D21*
X362431000Y-103962000D03*
X357351000Y-98882000D03*
X352271000Y-103962000D03*
X354811000Y-98882000D03*
X352271000Y-98882000D03*
X357351000Y-103962000D03*
X354811000Y-103962000D03*
D20*
X349404000Y-92964000D03*
D21*
X349404000Y-87884000D03*
X354484000Y-92964000D03*
X359564000Y-87884000D03*
X357024000Y-92964000D03*
X359564000Y-92964000D03*
X354484000Y-87884000D03*
X357024000Y-87884000D03*
D20*
X389638000Y-94183200D03*
D21*
X389638000Y-89103200D03*
X394718000Y-94183200D03*
X399798000Y-89103200D03*
X397258000Y-94183200D03*
X399798000Y-94183200D03*
X394718000Y-89103200D03*
X397258000Y-89103200D03*
D22*
X477596000Y-306172000D03*
D23*
X477596000Y-308712000D03*
D15*
X459892000Y-279476000D03*
D16*
X462432000Y-279476000D03*
X464972000Y-279476000D03*
X467512000Y-279476000D03*
X470052000Y-279476000D03*
X472592000Y-279476000D03*
X475132000Y-279476000D03*
X477672000Y-279476000D03*
X480212000Y-279476000D03*
X482752000Y-279476000D03*
X485292000Y-279476000D03*
X487832000Y-279476000D03*
X490372000Y-279476000D03*
X492912000Y-279476000D03*
X495452000Y-279476000D03*
X495452000Y-264236000D03*
X492912000Y-264236000D03*
X490372000Y-264236000D03*
X487832000Y-264236000D03*
X485292000Y-264236000D03*
X482752000Y-264236000D03*
X480212000Y-264236000D03*
X477672000Y-264236000D03*
X475132000Y-264236000D03*
X472592000Y-264236000D03*
X470052000Y-264236000D03*
X467512000Y-264236000D03*
X464972000Y-264236000D03*
X462432000Y-264236000D03*
X459892000Y-264236000D03*
D24*
X479069000Y-285090000D03*
D25*
X479069000Y-287090000D03*
D26*
X372720000Y-115011000D03*
X380340000Y-115011000D03*
X372720000Y-94691000D03*
X380340000Y-89691000D03*
X380340000Y-99691000D03*
X372720000Y-99691000D03*
X380340000Y-94691000D03*
X372720000Y-89691000D03*
D27*
X484556000Y-310896000D03*
D28*
X486256000Y-310896000D03*
X487956000Y-310896000D03*
X489656000Y-310896000D03*
X491356000Y-310896000D03*
D22*
X490880000Y-286131000D03*
D23*
X488340000Y-286131000D03*
D14*
X465988000Y-286334000D03*
D29*
X468528000Y-286334000D03*
D22*
X461518000Y-307950000D03*
D23*
X461518000Y-310490000D03*
D14*
X405308000Y-308559000D03*
D29*
X420548000Y-308559000D03*
D14*
X405587000Y-293649000D03*
D29*
X420827000Y-293649000D03*
D14*
X405867000Y-289458000D03*
D29*
X421107000Y-289458000D03*
D14*
X420675000Y-302692000D03*
D29*
X405435000Y-302692000D03*
D14*
X420548000Y-297739000D03*
D29*
X405308000Y-297739000D03*
D12*
X268986000Y-212877000D03*
X266446000Y-212877000D03*
X268986000Y-210337000D03*
X266446000Y-210337000D03*
X268986000Y-207797000D03*
X266446000Y-207797000D03*
D26*
X369443000Y-295021000D03*
X369443000Y-302641000D03*
X389763000Y-295021000D03*
X394763000Y-302641000D03*
X384763000Y-302641000D03*
X384763000Y-295021000D03*
X389763000Y-302641000D03*
X394763000Y-295021000D03*
D30*
X467402700Y-285608700D03*
X241553500Y-299366500D03*
X233469800Y-248553000D03*
X387052000Y-280614700D03*
X389177500Y-108656500D03*
X150074000Y-257891100D03*
X391808800Y-117699100D03*
X326012500Y-168824300D03*
X390944400Y-111517900D03*
X305383100Y-185449800D03*
X153405000Y-260467000D03*
X393538700Y-291182500D03*
X246734200Y-291182500D03*
X253517500Y-298121900D03*
X133447600Y-106756500D03*
X187155400Y-280734900D03*
X181733600Y-147441900D03*
X184666400Y-150986600D03*
X147614100Y-273379500D03*
X197870200Y-283803500D03*
X185993600Y-283106000D03*
X152952200Y-154876800D03*
X146407300Y-273631400D03*
X192875900Y-273986500D03*
X146132100Y-285112100D03*
X239291500Y-238953300D03*
X231775100Y-237665100D03*
X205717000Y-156798000D03*
X193926000Y-156798000D03*
X146333200Y-274447400D03*
X193849000Y-274593600D03*
X142940900Y-284460900D03*
X153202000Y-101332000D03*
X127479100Y-152470000D03*
X143123600Y-275075300D03*
X141760000Y-106934000D03*
X194173100Y-276046500D03*
X139885900Y-283945900D03*
X152075000Y-101090700D03*
X240356400Y-234280400D03*
X223463600Y-231671000D03*
X221879400Y-251593600D03*
X218185500Y-251593600D03*
X197849000Y-149934800D03*
X200765000Y-106676900D03*
X181672800Y-148811700D03*
X192492800Y-276128000D03*
X225115100Y-230500000D03*
X190070000Y-148367400D03*
X151823500Y-282655400D03*
X188267000Y-229229800D03*
X244257000Y-225398100D03*
X423093800Y-86843300D03*
X413681100Y-94793600D03*
X454746100Y-85007000D03*
X421928900Y-93093300D03*
X453914500Y-86651400D03*
X449156600Y-96300700D03*
X449157500Y-90048500D03*
X446976000Y-96698900D03*
X448338100Y-90499200D03*
X441162000Y-97189400D03*
X440131500Y-90940600D03*
X428851700Y-97844800D03*
X429116600Y-91594800D03*
X282558700Y-234314900D03*
X302480700Y-202802500D03*
X301339100Y-155125200D03*
X280207600Y-241934900D03*
X300935500Y-228239500D03*
X290664600Y-239394900D03*
X231682900Y-241289200D03*
X294359500Y-168824300D03*
X231074500Y-240088700D03*
X296501600Y-167960800D03*
X234935500Y-238396300D03*
X301269500Y-153758300D03*
X235501400Y-237159100D03*
X337181100Y-112694100D03*
X326167600Y-174180000D03*
X326012500Y-171817000D03*
X394907500Y-118875700D03*
X394282200Y-116522600D03*
X180265800Y-298741200D03*
X190852800Y-299991800D03*
X174838900Y-300803600D03*
X187127500Y-297356400D03*
X137868600Y-202864900D03*
X179062700Y-215955100D03*
X243743900Y-296708100D03*
X174550700Y-302641000D03*
D31*
X389763000Y-302641000D02*
X389763000Y-295021000D01*
X462693300Y-309637400D02*
X466412700Y-305918000D01*
X462693300Y-310490000D02*
X462693300Y-309637400D01*
X467538000Y-305918000D02*
X466412700Y-305918000D01*
X461518000Y-310490000D02*
X462693300Y-310490000D01*
X484556000Y-288189200D02*
X484556000Y-310896000D01*
X487804400Y-284940800D02*
X484556000Y-288189200D01*
X488881800Y-284940800D02*
X487804400Y-284940800D01*
X489704700Y-285763700D02*
X488881800Y-284940800D01*
X489704700Y-286131000D02*
X489704700Y-285763700D01*
X490880000Y-286131000D02*
X489704700Y-286131000D01*
X467716000Y-296316000D02*
X467716000Y-295190700D01*
X468528000Y-294378700D02*
X468528000Y-286334000D01*
X467716000Y-295190700D02*
X468528000Y-294378700D01*
X386853600Y-88177400D02*
X380340000Y-94691000D01*
X390095100Y-88177400D02*
X386853600Y-88177400D01*
X392310200Y-90392500D02*
X390095100Y-88177400D01*
X392310200Y-117316100D02*
X392310200Y-90392500D01*
X392434100Y-117440000D02*
X392310200Y-117316100D01*
X392434100Y-171692500D02*
X392434100Y-117440000D01*
X450858800Y-230117200D02*
X392434100Y-171692500D01*
X450858800Y-245301100D02*
X450858800Y-230117200D01*
X468782000Y-263224300D02*
X450858800Y-245301100D01*
X468782000Y-284229400D02*
X468782000Y-263224300D01*
X467402700Y-285608700D02*
X468782000Y-284229400D01*
X233469800Y-291282800D02*
X233469800Y-248553000D01*
X241553500Y-299366500D02*
X233469800Y-291282800D01*
X429616000Y-291236000D02*
X428390700Y-291236000D01*
X389762000Y-277904700D02*
X387052000Y-280614700D01*
X403093200Y-291236000D02*
X389762000Y-277904700D01*
X428390700Y-291236000D02*
X403093200Y-291236000D01*
X388622000Y-276764800D02*
X388622000Y-115519000D01*
X389762000Y-277904700D02*
X388622000Y-276764800D01*
X432822900Y-287808600D02*
X434975000Y-289960700D01*
X432822900Y-234907100D02*
X432822900Y-287808600D01*
X390282800Y-192367000D02*
X432822900Y-234907100D01*
X390282800Y-113119500D02*
X390282800Y-192367000D01*
X389832400Y-112669100D02*
X390282800Y-113119500D01*
X389832400Y-109311400D02*
X389832400Y-112669100D01*
X389177500Y-108656500D02*
X389832400Y-109311400D01*
X434975000Y-291186000D02*
X434975000Y-289960700D01*
X130669500Y-228264900D02*
X131039000Y-228264900D01*
X129848200Y-229086200D02*
X130669500Y-228264900D01*
X129848200Y-230164600D02*
X129848200Y-229086200D01*
X130569600Y-230886000D02*
X129848200Y-230164600D01*
X134022800Y-230886000D02*
X130569600Y-230886000D01*
X142469000Y-239332200D02*
X134022800Y-230886000D01*
X142469000Y-244723100D02*
X142469000Y-239332200D01*
X150074000Y-252328100D02*
X142469000Y-244723100D01*
X150074000Y-257891100D02*
X150074000Y-252328100D01*
X131039000Y-227076000D02*
X131039000Y-228264900D01*
X450113000Y-290957000D02*
X450113000Y-289731700D01*
X349455000Y-115748000D02*
X349455000Y-116673300D01*
X348142100Y-116673300D02*
X349455000Y-116673300D01*
X326425800Y-138389600D02*
X348142100Y-116673300D01*
X326425800Y-168411000D02*
X326425800Y-138389600D01*
X326012500Y-168824300D02*
X326425800Y-168411000D01*
X391808800Y-171704100D02*
X391808800Y-117699100D01*
X448887700Y-228783000D02*
X391808800Y-171704100D01*
X448887700Y-288506400D02*
X448887700Y-228783000D01*
X450113000Y-289731700D02*
X448887700Y-288506400D01*
X444627000Y-290957000D02*
X444627000Y-289731700D01*
X349404000Y-92964000D02*
X349404000Y-93889300D01*
X314032400Y-176800500D02*
X305383100Y-185449800D01*
X314032400Y-129260900D02*
X314032400Y-176800500D01*
X349404000Y-93889300D02*
X314032400Y-129260900D01*
X391183400Y-111756900D02*
X390944400Y-111517900D01*
X391183400Y-181683600D02*
X391183400Y-111756900D01*
X443401700Y-233901900D02*
X391183400Y-181683600D01*
X443401700Y-288506400D02*
X443401700Y-233901900D01*
X444627000Y-289731700D02*
X443401700Y-288506400D01*
X429471100Y-293649000D02*
X420827000Y-293649000D01*
X430859900Y-292260200D02*
X429471100Y-293649000D01*
X430859900Y-234821900D02*
X430859900Y-292260200D01*
X427838000Y-231800000D02*
X430859900Y-234821900D01*
X459613000Y-303809000D02*
X459613000Y-302083700D01*
X465988000Y-295708700D02*
X459613000Y-302083700D01*
X465988000Y-286334000D02*
X465988000Y-295708700D01*
X152548000Y-259610000D02*
X153405000Y-260467000D01*
X152548000Y-241782400D02*
X152548000Y-259610000D01*
X133950500Y-223184900D02*
X152548000Y-241782400D01*
X133579000Y-223184900D02*
X133950500Y-223184900D01*
X133579000Y-221996000D02*
X133579000Y-223184900D01*
X439598000Y-290957000D02*
X439598000Y-289731700D01*
X389638000Y-94183200D02*
X389638000Y-95108500D01*
X390282800Y-95753300D02*
X389638000Y-95108500D01*
X390282800Y-112257700D02*
X390282800Y-95753300D01*
X390733100Y-112708000D02*
X390282800Y-112257700D01*
X390733100Y-191862200D02*
X390733100Y-112708000D01*
X438372700Y-239501800D02*
X390733100Y-191862200D01*
X438372700Y-288506400D02*
X438372700Y-239501800D01*
X439598000Y-289731700D02*
X438372700Y-288506400D01*
X405435000Y-302692000D02*
X404309700Y-302692000D01*
X234628100Y-279076400D02*
X246734200Y-291182500D01*
X234628100Y-247906800D02*
X234628100Y-279076400D01*
X238876300Y-243658600D02*
X234628100Y-247906800D01*
X251780800Y-243658600D02*
X238876300Y-243658600D01*
X253981200Y-245859000D02*
X251780800Y-243658600D01*
X285091600Y-245859000D02*
X253981200Y-245859000D01*
X305252000Y-225698600D02*
X285091600Y-245859000D01*
X310915600Y-225698600D02*
X305252000Y-225698600D01*
X312141000Y-226924000D02*
X310915600Y-225698600D01*
X404309700Y-301953500D02*
X393538700Y-291182500D01*
X404309700Y-302692000D02*
X404309700Y-301953500D01*
X295649700Y-246311300D02*
X308890000Y-233071000D01*
X253796500Y-246311300D02*
X295649700Y-246311300D01*
X251594100Y-244108900D02*
X253796500Y-246311300D01*
X239062900Y-244108900D02*
X251594100Y-244108900D01*
X235107000Y-248064800D02*
X239062900Y-244108900D01*
X235107000Y-278646600D02*
X235107000Y-248064800D01*
X253517500Y-297057100D02*
X235107000Y-278646600D01*
X253517500Y-298121900D02*
X253517500Y-297057100D01*
X133447600Y-151152400D02*
X133447600Y-106756500D01*
X133400000Y-151200000D02*
X133447600Y-151152400D01*
X181733600Y-109466400D02*
X181733600Y-147441900D01*
X188800000Y-102400000D02*
X181733600Y-109466400D01*
X184666400Y-150374700D02*
X184666400Y-150986600D01*
X181733600Y-147441900D02*
X184666400Y-150374700D01*
X183167900Y-276747400D02*
X187155400Y-280734900D01*
X183167900Y-152485100D02*
X183167900Y-276747400D01*
X184666400Y-150986600D02*
X183167900Y-152485100D01*
X231897900Y-254445100D02*
X204343000Y-282000000D01*
X231897900Y-248603700D02*
X231897900Y-254445100D01*
X238193900Y-242307700D02*
X231897900Y-248603700D01*
X252340600Y-242307700D02*
X238193900Y-242307700D01*
X254503000Y-244470100D02*
X252340600Y-242307700D01*
X267729900Y-244470100D02*
X254503000Y-244470100D01*
X269000000Y-243200000D02*
X267729900Y-244470100D01*
X132087800Y-106252200D02*
X133400000Y-104940000D01*
X132087800Y-152427800D02*
X132087800Y-106252200D01*
X133400000Y-153740000D02*
X132087800Y-152427800D01*
X147614100Y-278974100D02*
X147614100Y-273379500D01*
X148100000Y-279460000D02*
X147614100Y-278974100D01*
X129817300Y-157322700D02*
X133400000Y-153740000D01*
X129817300Y-199641000D02*
X129817300Y-157322700D01*
X130501200Y-200324900D02*
X129817300Y-199641000D01*
X131370300Y-200324900D02*
X130501200Y-200324900D01*
X132275400Y-201230000D02*
X131370300Y-200324900D01*
X132275400Y-222462900D02*
X132275400Y-201230000D01*
X131472300Y-223266000D02*
X132275400Y-222462900D01*
X130559700Y-223266000D02*
X131472300Y-223266000D01*
X128472200Y-225353500D02*
X130559700Y-223266000D01*
X128472200Y-254237600D02*
X128472200Y-225353500D01*
X147614100Y-273379500D02*
X128472200Y-254237600D01*
X188800000Y-141242500D02*
X188800000Y-104940000D01*
X187533300Y-142509200D02*
X188800000Y-141242500D01*
X187533300Y-152473300D02*
X187533300Y-142509200D01*
X188800000Y-153740000D02*
X187533300Y-152473300D01*
X204343000Y-275521700D02*
X204343000Y-279460000D01*
X238007300Y-241857400D02*
X204343000Y-275521700D01*
X252527200Y-241857400D02*
X238007300Y-241857400D01*
X253869800Y-243200000D02*
X252527200Y-241857400D01*
X266460000Y-243200000D02*
X253869800Y-243200000D01*
X190070000Y-103670000D02*
X191340000Y-102400000D01*
X190070000Y-147483000D02*
X190070000Y-103670000D01*
X191340000Y-148753000D02*
X190070000Y-147483000D01*
X191340000Y-151200000D02*
X191340000Y-148753000D01*
X187149500Y-284261900D02*
X185993600Y-283106000D01*
X197411800Y-284261900D02*
X187149500Y-284261900D01*
X197870200Y-283803500D02*
X197411800Y-284261900D01*
X179707300Y-276819700D02*
X185993600Y-283106000D01*
X179707300Y-212244200D02*
X179707300Y-276819700D01*
X134670000Y-167206900D02*
X179707300Y-212244200D01*
X134670000Y-152470000D02*
X134670000Y-167206900D01*
X135940000Y-151200000D02*
X134670000Y-152470000D01*
X134670000Y-149930000D02*
X135940000Y-151200000D01*
X134670000Y-103670000D02*
X134670000Y-149930000D01*
X135940000Y-102400000D02*
X134670000Y-103670000D01*
X203073000Y-280730000D02*
X201803000Y-282000000D01*
X203073000Y-276154800D02*
X203073000Y-280730000D01*
X237820700Y-241407100D02*
X203073000Y-276154800D01*
X252769500Y-241407100D02*
X237820700Y-241407100D01*
X253292300Y-241929900D02*
X252769500Y-241407100D01*
X267730100Y-241929900D02*
X253292300Y-241929900D01*
X269000000Y-240660000D02*
X267730100Y-241929900D01*
X137205200Y-152474800D02*
X136315400Y-153364600D01*
X137205200Y-106205200D02*
X137205200Y-152474800D01*
X135940000Y-104940000D02*
X137205200Y-106205200D01*
X136315400Y-153364600D02*
X135940000Y-153740000D01*
X192610000Y-152470000D02*
X191340000Y-153740000D01*
X192610000Y-106210000D02*
X192610000Y-152470000D01*
X191340000Y-104940000D02*
X192610000Y-106210000D01*
X146991900Y-278028100D02*
X145560000Y-279460000D01*
X146991900Y-274216000D02*
X146991900Y-278028100D01*
X146407300Y-273631400D02*
X146991900Y-274216000D01*
X192253000Y-154653000D02*
X191340000Y-153740000D01*
X192253000Y-217842900D02*
X192253000Y-154653000D01*
X193231500Y-218821400D02*
X192253000Y-217842900D01*
X193231500Y-273630900D02*
X193231500Y-218821400D01*
X192875900Y-273986500D02*
X193231500Y-273630900D01*
X152373500Y-155455500D02*
X152952200Y-154876800D01*
X138406300Y-155455500D02*
X152373500Y-155455500D01*
X136315400Y-153364600D02*
X138406300Y-155455500D01*
X201803000Y-276787900D02*
X201803000Y-279460000D01*
X237930900Y-240660000D02*
X201803000Y-276787900D01*
X266460000Y-240660000D02*
X237930900Y-240660000D01*
X137210000Y-103670000D02*
X138480000Y-102400000D01*
X137210000Y-105573100D02*
X137210000Y-103670000D01*
X138029600Y-106392700D02*
X137210000Y-105573100D01*
X138029600Y-150749600D02*
X138029600Y-106392700D01*
X138480000Y-151200000D02*
X138029600Y-150749600D01*
X231775100Y-182856100D02*
X205717000Y-156798000D01*
X231775100Y-237665100D02*
X231775100Y-182856100D01*
X193926000Y-155689100D02*
X193926000Y-156798000D01*
X192610000Y-154373100D02*
X193926000Y-155689100D01*
X192610000Y-153163800D02*
X192610000Y-154373100D01*
X193880000Y-151893800D02*
X192610000Y-153163800D01*
X193880000Y-151200000D02*
X193880000Y-151893800D01*
X193085700Y-150405700D02*
X193880000Y-151200000D01*
X193085700Y-105934900D02*
X193085700Y-150405700D01*
X192610000Y-105459200D02*
X193085700Y-105934900D01*
X192610000Y-103670000D02*
X192610000Y-105459200D01*
X193880000Y-102400000D02*
X192610000Y-103670000D01*
X143020000Y-282000000D02*
X146132100Y-285112100D01*
X239291500Y-239389900D02*
X239291500Y-238953300D01*
X267730100Y-239389900D02*
X239291500Y-239389900D01*
X269000000Y-238120000D02*
X267730100Y-239389900D01*
X200533000Y-280730000D02*
X199263000Y-282000000D01*
X200533000Y-277421000D02*
X200533000Y-280730000D01*
X238564100Y-239389900D02*
X200533000Y-277421000D01*
X239291500Y-239389900D02*
X238564100Y-239389900D01*
X146333200Y-276146800D02*
X146333200Y-274447400D01*
X143020000Y-279460000D02*
X146333200Y-276146800D01*
X138480000Y-149353800D02*
X138480000Y-104940000D01*
X139750000Y-150623800D02*
X138480000Y-149353800D01*
X139750000Y-152470000D02*
X139750000Y-150623800D01*
X138480000Y-153740000D02*
X139750000Y-152470000D01*
X194793000Y-154653000D02*
X193880000Y-153740000D01*
X194793000Y-196723800D02*
X194793000Y-154653000D01*
X198298200Y-200229000D02*
X194793000Y-196723800D01*
X198298200Y-270144400D02*
X198298200Y-200229000D01*
X193849000Y-274593600D02*
X198298200Y-270144400D01*
X193880000Y-149353800D02*
X193880000Y-104940000D01*
X195150000Y-150623800D02*
X193880000Y-149353800D01*
X195150000Y-152470000D02*
X195150000Y-150623800D01*
X193880000Y-153740000D02*
X195150000Y-152470000D01*
X239197100Y-238120000D02*
X266460000Y-238120000D01*
X199263000Y-278054100D02*
X239197100Y-238120000D01*
X199263000Y-279460000D02*
X199263000Y-278054100D01*
X195150000Y-149930000D02*
X196420000Y-151200000D01*
X195150000Y-103670000D02*
X195150000Y-149930000D01*
X196420000Y-102400000D02*
X195150000Y-103670000D01*
X139750000Y-103670000D02*
X141020000Y-102400000D01*
X139750000Y-149930000D02*
X139750000Y-103670000D01*
X141020000Y-151200000D02*
X139750000Y-149930000D01*
X152075200Y-100205200D02*
X153202000Y-101332000D01*
X143214800Y-100205200D02*
X152075200Y-100205200D01*
X141020000Y-102400000D02*
X143214800Y-100205200D01*
X142940900Y-284460900D02*
X140480000Y-282000000D01*
X127479100Y-262872500D02*
X127479100Y-152470000D01*
X139210000Y-274603400D02*
X127479100Y-262872500D01*
X139210000Y-280730000D02*
X139210000Y-274603400D01*
X140480000Y-282000000D02*
X139210000Y-280730000D01*
X197993000Y-280730000D02*
X196723000Y-282000000D01*
X197993000Y-278687200D02*
X197993000Y-280730000D01*
X239830200Y-236850000D02*
X197993000Y-278687200D01*
X267730000Y-236850000D02*
X239830200Y-236850000D01*
X269000000Y-235580000D02*
X267730000Y-236850000D01*
X143123600Y-276816400D02*
X143123600Y-275075300D01*
X140480000Y-279460000D02*
X143123600Y-276816400D01*
X196420000Y-149390200D02*
X196420000Y-104940000D01*
X197690000Y-150660200D02*
X196420000Y-149390200D01*
X197690000Y-152470000D02*
X197690000Y-150660200D01*
X196420000Y-153740000D02*
X197690000Y-152470000D01*
X141020000Y-106194000D02*
X141020000Y-104940000D01*
X141760000Y-106934000D02*
X141020000Y-106194000D01*
X142285200Y-107459200D02*
X141760000Y-106934000D01*
X142285200Y-152474800D02*
X142285200Y-107459200D01*
X141020000Y-153740000D02*
X142285200Y-152474800D01*
X200815800Y-269403800D02*
X194173100Y-276046500D01*
X200815800Y-195656200D02*
X200815800Y-269403800D01*
X199873000Y-194713400D02*
X200815800Y-195656200D01*
X199873000Y-157193000D02*
X199873000Y-194713400D01*
X196420000Y-153740000D02*
X199873000Y-157193000D01*
X196723000Y-279320300D02*
X196723000Y-279460000D01*
X240463300Y-235580000D02*
X196723000Y-279320300D01*
X266460000Y-235580000D02*
X240463300Y-235580000D01*
X137940000Y-282000000D02*
X139885900Y-283945900D01*
X145304400Y-100655600D02*
X143560000Y-102400000D01*
X151639900Y-100655600D02*
X145304400Y-100655600D01*
X152075000Y-101090700D02*
X151639900Y-100655600D01*
X142735600Y-150375600D02*
X143560000Y-151200000D01*
X142735600Y-106555300D02*
X142735600Y-150375600D01*
X142294800Y-106114500D02*
X142735600Y-106555300D01*
X142294800Y-103665200D02*
X142294800Y-106114500D01*
X143560000Y-102400000D02*
X142294800Y-103665200D01*
X200004800Y-150155200D02*
X198960000Y-151200000D01*
X200004800Y-106552800D02*
X200004800Y-150155200D01*
X200230000Y-106327600D02*
X200004800Y-106552800D01*
X200230000Y-103670000D02*
X200230000Y-106327600D01*
X198960000Y-102400000D02*
X200230000Y-103670000D01*
X200230000Y-152470000D02*
X198960000Y-151200000D01*
X200230000Y-154373100D02*
X200230000Y-152470000D01*
X223463600Y-177606700D02*
X200230000Y-154373100D01*
X223463600Y-231671000D02*
X223463600Y-177606700D01*
X267730000Y-234310000D02*
X269000000Y-233040000D01*
X240356400Y-234310000D02*
X267730000Y-234310000D01*
X240356400Y-234310000D02*
X240356400Y-234280400D01*
X240356400Y-234496700D02*
X240356400Y-234310000D01*
X222634100Y-252219000D02*
X240356400Y-234496700D01*
X222157500Y-252219000D02*
X222634100Y-252219000D01*
X195453000Y-278923500D02*
X222157500Y-252219000D01*
X195453000Y-280730000D02*
X195453000Y-278923500D01*
X194183000Y-282000000D02*
X195453000Y-280730000D01*
X221879400Y-251763600D02*
X194183000Y-279460000D01*
X221879400Y-251593600D02*
X221879400Y-251763600D01*
X144830000Y-152470000D02*
X143560000Y-153740000D01*
X144830000Y-150644300D02*
X144830000Y-152470000D01*
X143560000Y-149374300D02*
X144830000Y-150644300D01*
X143560000Y-104940000D02*
X143560000Y-149374300D01*
X198960000Y-148823800D02*
X197849000Y-149934800D01*
X198960000Y-104940000D02*
X198960000Y-148823800D01*
X218185500Y-172965500D02*
X218185500Y-251593600D01*
X198960000Y-153740000D02*
X218185500Y-172965500D01*
X240712500Y-233040000D02*
X266460000Y-233040000D01*
X239731100Y-234021400D02*
X240712500Y-233040000D01*
X239731100Y-234485100D02*
X239731100Y-234021400D01*
X222622600Y-251593600D02*
X239731100Y-234485100D01*
X221879400Y-251593600D02*
X222622600Y-251593600D01*
X200765000Y-150465000D02*
X200765000Y-106676900D01*
X201500000Y-151200000D02*
X200765000Y-150465000D01*
X144830000Y-103670000D02*
X146100000Y-102400000D01*
X144830000Y-149930000D02*
X144830000Y-103670000D01*
X146100000Y-151200000D02*
X144830000Y-149930000D01*
X164724800Y-165759700D02*
X181672800Y-148811700D01*
X146100000Y-151893800D02*
X146100000Y-151200000D01*
X144830000Y-153163800D02*
X146100000Y-151893800D01*
X144830000Y-154285600D02*
X144830000Y-153163800D01*
X145549500Y-155005100D02*
X144830000Y-154285600D01*
X150625600Y-155005100D02*
X145549500Y-155005100D01*
X151421700Y-154209000D02*
X150625600Y-155005100D01*
X153174100Y-154209000D02*
X151421700Y-154209000D01*
X164724800Y-165759700D02*
X153174100Y-154209000D01*
X180650000Y-181684900D02*
X164724800Y-165759700D01*
X180650000Y-275976600D02*
X180650000Y-181684900D01*
X188436300Y-283762900D02*
X180650000Y-275976600D01*
X189880100Y-283762900D02*
X188436300Y-283762900D01*
X191643000Y-282000000D02*
X189880100Y-283762900D01*
X192921800Y-283278800D02*
X191643000Y-282000000D01*
X197510600Y-283278800D02*
X192921800Y-283278800D01*
X197611200Y-283178200D02*
X197510600Y-283278800D01*
X198129300Y-283178200D02*
X197611200Y-283178200D01*
X198229900Y-283278800D02*
X198129300Y-283178200D01*
X204897100Y-283278800D02*
X198229900Y-283278800D01*
X232348200Y-255827700D02*
X204897100Y-283278800D01*
X232348200Y-248790300D02*
X232348200Y-255827700D01*
X238380500Y-242758000D02*
X232348200Y-248790300D01*
X252154000Y-242758000D02*
X238380500Y-242758000D01*
X254321300Y-244925300D02*
X252154000Y-242758000D01*
X269127500Y-244925300D02*
X254321300Y-244925300D01*
X270265200Y-243787600D02*
X269127500Y-244925300D01*
X270265200Y-231765200D02*
X270265200Y-243787600D01*
X269000000Y-230500000D02*
X270265200Y-231765200D01*
X147370000Y-106210000D02*
X146100000Y-104940000D01*
X147370000Y-152470000D02*
X147370000Y-106210000D01*
X146100000Y-153740000D02*
X147370000Y-152470000D01*
X193047900Y-278055100D02*
X193047900Y-276683100D01*
X191643000Y-279460000D02*
X193047900Y-278055100D01*
X192492800Y-276128100D02*
X192492800Y-276128000D01*
X192492900Y-276128100D02*
X192492800Y-276128100D01*
X193047900Y-276683100D02*
X192492900Y-276128100D01*
X201500000Y-153740000D02*
X202770000Y-153740000D01*
X201500000Y-149353800D02*
X201500000Y-104940000D01*
X202770000Y-150623800D02*
X201500000Y-149353800D01*
X202770000Y-153740000D02*
X202770000Y-150623800D01*
X202770000Y-156191500D02*
X202770000Y-153740000D01*
X225115100Y-178536600D02*
X202770000Y-156191500D01*
X225115100Y-230500000D02*
X225115100Y-178536600D01*
X194499100Y-276683100D02*
X193047900Y-276683100D01*
X225115100Y-246067100D02*
X194499100Y-276683100D01*
X225115100Y-230500000D02*
X225115100Y-246067100D01*
X149914800Y-103674800D02*
X148640000Y-102400000D01*
X149914800Y-149925200D02*
X149914800Y-103674800D01*
X148640000Y-151200000D02*
X149914800Y-149925200D01*
X136598400Y-285738400D02*
X132860000Y-282000000D01*
X148740500Y-285738400D02*
X136598400Y-285738400D01*
X151823500Y-282655400D02*
X148740500Y-285738400D01*
X188227000Y-229189800D02*
X188267000Y-229229800D01*
X187241400Y-229189800D02*
X188227000Y-229189800D01*
X187241400Y-191673300D02*
X187241400Y-229189800D01*
X190070000Y-188844700D02*
X187241400Y-191673300D01*
X190070000Y-148367400D02*
X190070000Y-188844700D01*
X190373000Y-280730000D02*
X189103000Y-282000000D01*
X190373000Y-248577900D02*
X190373000Y-280730000D01*
X185717400Y-243922300D02*
X190373000Y-248577900D01*
X185717400Y-230713800D02*
X185717400Y-243922300D01*
X187241400Y-229189800D02*
X185717400Y-230713800D01*
X202770000Y-103670000D02*
X204040000Y-102400000D01*
X202770000Y-149930000D02*
X202770000Y-103670000D01*
X204040000Y-151200000D02*
X202770000Y-149930000D01*
X147370000Y-103670000D02*
X148640000Y-104940000D01*
X147370000Y-101878500D02*
X147370000Y-103670000D01*
X148124800Y-101123700D02*
X147370000Y-101878500D01*
X149195800Y-101123700D02*
X148124800Y-101123700D01*
X150371800Y-102299700D02*
X149195800Y-101123700D01*
X150371800Y-152008200D02*
X150371800Y-102299700D01*
X148640000Y-153740000D02*
X150371800Y-152008200D01*
X205314800Y-152465200D02*
X204040000Y-153740000D01*
X205314800Y-106214800D02*
X205314800Y-152465200D01*
X204040000Y-104940000D02*
X205314800Y-106214800D01*
X187831200Y-280731800D02*
X189103000Y-279460000D01*
X187831200Y-282519400D02*
X187831200Y-280731800D01*
X188624300Y-283312500D02*
X187831200Y-282519400D01*
X189693600Y-283312500D02*
X188624300Y-283312500D01*
X190373000Y-282633100D02*
X189693600Y-283312500D01*
X190373000Y-281423800D02*
X190373000Y-282633100D01*
X191071600Y-280725200D02*
X190373000Y-281423800D01*
X192196300Y-280725200D02*
X191071600Y-280725200D01*
X192913000Y-280008500D02*
X192196300Y-280725200D01*
X192913000Y-278906100D02*
X192913000Y-280008500D01*
X229277700Y-242541400D02*
X192913000Y-278906100D01*
X229277700Y-240967200D02*
X229277700Y-242541400D01*
X230925800Y-239319100D02*
X229277700Y-240967200D01*
X231073600Y-239319100D02*
X230925800Y-239319100D01*
X236900900Y-233491800D02*
X231073600Y-239319100D01*
X236900900Y-232754200D02*
X236900900Y-233491800D01*
X244257000Y-225398100D02*
X236900900Y-232754200D01*
X244257000Y-193957000D02*
X244257000Y-225398100D01*
X204040000Y-153740000D02*
X244257000Y-193957000D01*
X404288600Y-105648500D02*
X423093800Y-86843300D01*
X404288600Y-141119700D02*
X404288600Y-105648500D01*
X405498900Y-142330000D02*
X404288600Y-141119700D01*
X407330000Y-142330000D02*
X405498900Y-142330000D01*
X408600000Y-143600000D02*
X407330000Y-142330000D01*
X403809500Y-104665200D02*
X413681100Y-94793600D01*
X403809500Y-141349500D02*
X403809500Y-104665200D01*
X406060000Y-143600000D02*
X403809500Y-141349500D01*
X454746100Y-94913900D02*
X408600000Y-141060000D01*
X454746100Y-85007000D02*
X454746100Y-94913900D01*
X404785200Y-110237000D02*
X421928900Y-93093300D01*
X404785200Y-139785200D02*
X404785200Y-110237000D01*
X406060000Y-141060000D02*
X404785200Y-139785200D01*
X453914500Y-93205500D02*
X408600000Y-138520000D01*
X453914500Y-86651400D02*
X453914500Y-93205500D01*
X449156600Y-97235000D02*
X449156600Y-96300700D01*
X409141600Y-137250000D02*
X449156600Y-97235000D01*
X407330000Y-137250000D02*
X409141600Y-137250000D01*
X406060000Y-138520000D02*
X407330000Y-137250000D01*
X448390900Y-96189100D02*
X408600000Y-135980000D01*
X448390900Y-95785300D02*
X448390900Y-96189100D01*
X449157500Y-95018700D02*
X448390900Y-95785300D01*
X449157500Y-90048500D02*
X449157500Y-95018700D01*
X446976000Y-96875600D02*
X446976000Y-96698900D01*
X409141600Y-134710000D02*
X446976000Y-96875600D01*
X407330000Y-134710000D02*
X409141600Y-134710000D01*
X406060000Y-135980000D02*
X407330000Y-134710000D01*
X448338100Y-93701900D02*
X448338100Y-90499200D01*
X408600000Y-133440000D02*
X448338100Y-93701900D01*
X441162000Y-100149600D02*
X441162000Y-97189400D01*
X409141600Y-132170000D02*
X441162000Y-100149600D01*
X407330000Y-132170000D02*
X409141600Y-132170000D01*
X406060000Y-133440000D02*
X407330000Y-132170000D01*
X440131500Y-99368500D02*
X440131500Y-90940600D01*
X408600000Y-130900000D02*
X440131500Y-99368500D01*
X428851700Y-109920000D02*
X428851700Y-97844800D01*
X409141700Y-129630000D02*
X428851700Y-109920000D01*
X407330000Y-129630000D02*
X409141700Y-129630000D01*
X406060000Y-130900000D02*
X407330000Y-129630000D01*
X408600000Y-112111400D02*
X429116600Y-91594800D01*
X408600000Y-128360000D02*
X408600000Y-112111400D01*
X382338300Y-87692700D02*
X380340000Y-89691000D01*
X390263400Y-87692700D02*
X382338300Y-87692700D01*
X392776600Y-90205900D02*
X390263400Y-87692700D01*
X392776600Y-97188700D02*
X392776600Y-90205900D01*
X397512100Y-101924200D02*
X392776600Y-97188700D01*
X397512100Y-137176800D02*
X397512100Y-101924200D01*
X460616600Y-200281300D02*
X397512100Y-137176800D01*
X460616600Y-247946800D02*
X460616600Y-200281300D01*
X476402000Y-263732200D02*
X460616600Y-247946800D01*
X476402000Y-271629200D02*
X476402000Y-263732200D01*
X478986600Y-274213800D02*
X476402000Y-271629200D01*
X478986600Y-284007300D02*
X478986600Y-274213800D01*
X479069000Y-284089700D02*
X478986600Y-284007300D01*
X479069000Y-285090000D02*
X479069000Y-284089700D01*
X307269200Y-155130800D02*
X306000000Y-156400000D01*
X307269200Y-150799900D02*
X307269200Y-155130800D01*
X306481200Y-150011900D02*
X307269200Y-150799900D01*
X305451100Y-150011900D02*
X306481200Y-150011900D01*
X304730000Y-150733000D02*
X305451100Y-150011900D01*
X304730000Y-151896200D02*
X304730000Y-150733000D01*
X304036200Y-152590000D02*
X304730000Y-151896200D01*
X302902500Y-152590000D02*
X304036200Y-152590000D01*
X301977400Y-153515100D02*
X302902500Y-152590000D01*
X301977400Y-154017400D02*
X301977400Y-153515100D01*
X301611200Y-154383600D02*
X301977400Y-154017400D01*
X301108900Y-154383600D02*
X301611200Y-154383600D01*
X297139400Y-158353100D02*
X301108900Y-154383600D01*
X297139400Y-219734200D02*
X297139400Y-158353100D01*
X282558700Y-234314900D02*
X297139400Y-219734200D01*
X302480700Y-157379300D02*
X302480700Y-202802500D01*
X303460000Y-156400000D02*
X302480700Y-157379300D01*
X280207600Y-239477300D02*
X280207600Y-241934900D01*
X301339100Y-218345800D02*
X280207600Y-239477300D01*
X301339100Y-155125200D02*
X301339100Y-218345800D01*
X301855400Y-227319600D02*
X300935500Y-228239500D01*
X301855400Y-202543500D02*
X301855400Y-227319600D01*
X301967300Y-202431600D02*
X301855400Y-202543500D01*
X301967300Y-155352700D02*
X301967300Y-202431600D01*
X303460000Y-153860000D02*
X301967300Y-155352700D01*
X304730000Y-225329500D02*
X290664600Y-239394900D01*
X304730000Y-152590000D02*
X304730000Y-225329500D01*
X306000000Y-151320000D02*
X304730000Y-152590000D01*
X231682900Y-240764600D02*
X231682900Y-241289200D01*
X234676500Y-237771000D02*
X231682900Y-240764600D01*
X234676600Y-237771000D02*
X234676500Y-237771000D01*
X234676600Y-237099600D02*
X234676600Y-237771000D01*
X235242400Y-236533800D02*
X234676600Y-237099600D01*
X235279700Y-236533800D02*
X235242400Y-236533800D01*
X237801500Y-234012000D02*
X235279700Y-236533800D01*
X237801500Y-233375100D02*
X237801500Y-234012000D01*
X266196300Y-204980300D02*
X237801500Y-233375100D01*
X273544700Y-204980300D02*
X266196300Y-204980300D01*
X294984900Y-183540100D02*
X273544700Y-204980300D01*
X294984900Y-159158200D02*
X294984900Y-183540100D01*
X302823100Y-151320000D02*
X294984900Y-159158200D01*
X303460000Y-151320000D02*
X302823100Y-151320000D01*
X231074500Y-240064800D02*
X231074500Y-240088700D01*
X237351100Y-233788200D02*
X231074500Y-240064800D01*
X237351200Y-233788200D02*
X237351100Y-233788200D01*
X237351200Y-233188500D02*
X237351200Y-233788200D01*
X266141500Y-204398200D02*
X237351200Y-233188500D01*
X273489900Y-204398200D02*
X266141500Y-204398200D01*
X294359500Y-183528600D02*
X273489900Y-204398200D01*
X294359500Y-168824300D02*
X294359500Y-183528600D01*
X296501600Y-183297200D02*
X296501600Y-167960800D01*
X273890300Y-205908500D02*
X296501600Y-183297200D01*
X266542000Y-205908500D02*
X273890300Y-205908500D01*
X238795600Y-233654900D02*
X266542000Y-205908500D01*
X238795600Y-234749300D02*
X238795600Y-233654900D01*
X235148600Y-238396300D02*
X238795600Y-234749300D01*
X234935500Y-238396300D02*
X235148600Y-238396300D01*
X238345200Y-234315300D02*
X235501400Y-237159100D01*
X238345200Y-233468300D02*
X238345200Y-234315300D01*
X266355700Y-205457800D02*
X238345200Y-233468300D01*
X273704100Y-205457800D02*
X266355700Y-205457800D01*
X295829300Y-183332600D02*
X273704100Y-205457800D01*
X295829300Y-158950700D02*
X295829300Y-183332600D01*
X301021700Y-153758300D02*
X295829300Y-158950700D01*
X301269500Y-153758300D02*
X301021700Y-153758300D01*
X323800000Y-126075200D02*
X337181100Y-112694100D01*
X323800000Y-151320000D02*
X323800000Y-126075200D01*
X339536900Y-166063100D02*
X323800000Y-181800000D01*
X339536900Y-127826100D02*
X339536900Y-166063100D01*
X344023600Y-123339400D02*
X339536900Y-127826100D01*
X354012200Y-123339400D02*
X344023600Y-123339400D01*
X378079900Y-99271700D02*
X354012200Y-123339400D01*
X378079900Y-89313000D02*
X378079900Y-99271700D01*
X380174100Y-87218800D02*
X378079900Y-89313000D01*
X390426400Y-87218800D02*
X380174100Y-87218800D01*
X395828500Y-92620900D02*
X390426400Y-87218800D01*
X395828500Y-94098400D02*
X395828500Y-92620900D01*
X396839400Y-95109300D02*
X395828500Y-94098400D01*
X398871900Y-95109300D02*
X396839400Y-95109300D01*
X399798000Y-94183200D02*
X398871900Y-95109300D01*
X322530000Y-180530000D02*
X321260000Y-181800000D01*
X324321800Y-180530000D02*
X322530000Y-180530000D01*
X338927300Y-165924500D02*
X324321800Y-180530000D01*
X338927300Y-127798800D02*
X338927300Y-165924500D01*
X343995900Y-122730200D02*
X338927300Y-127798800D01*
X353984500Y-122730200D02*
X343995900Y-122730200D01*
X375369500Y-101345200D02*
X353984500Y-122730200D01*
X375369500Y-91386400D02*
X375369500Y-101345200D01*
X379987400Y-86768500D02*
X375369500Y-91386400D01*
X390613100Y-86768500D02*
X379987400Y-86768500D01*
X397258000Y-93413400D02*
X390613100Y-86768500D01*
X397258000Y-94183200D02*
X397258000Y-93413400D01*
X356081100Y-96446900D02*
X359564000Y-92964000D01*
X356081100Y-98963700D02*
X356081100Y-96446900D01*
X352055700Y-102989100D02*
X356081100Y-98963700D01*
X351875700Y-102989100D02*
X352055700Y-102989100D01*
X325975500Y-128889300D02*
X351875700Y-102989100D01*
X325975500Y-157813300D02*
X325975500Y-128889300D01*
X325387100Y-158401700D02*
X325975500Y-157813300D01*
X325387100Y-172242000D02*
X325387100Y-158401700D01*
X325534200Y-172389100D02*
X325387100Y-172242000D01*
X325534200Y-177525800D02*
X325534200Y-172389100D01*
X323800000Y-179260000D02*
X325534200Y-177525800D01*
X355993800Y-92964000D02*
X357024000Y-92964000D01*
X319985200Y-128972600D02*
X355993800Y-92964000D01*
X319985200Y-177985200D02*
X319985200Y-128972600D01*
X321260000Y-179260000D02*
X319985200Y-177985200D01*
X352271000Y-99518900D02*
X352271000Y-98882000D01*
X325525200Y-126264700D02*
X352271000Y-99518900D01*
X325525200Y-157626700D02*
X325525200Y-126264700D01*
X324936800Y-158215100D02*
X325525200Y-157626700D01*
X324936800Y-172428600D02*
X324936800Y-158215100D01*
X325083900Y-172575700D02*
X324936800Y-172428600D01*
X325083900Y-175436100D02*
X325083900Y-172575700D01*
X323800000Y-176720000D02*
X325083900Y-175436100D01*
X322530000Y-175450000D02*
X321260000Y-176720000D01*
X322530000Y-159759700D02*
X322530000Y-175450000D01*
X325074900Y-157214800D02*
X322530000Y-159759700D01*
X325074900Y-126078100D02*
X325074900Y-157214800D01*
X348409100Y-102743900D02*
X325074900Y-126078100D01*
X348409100Y-101407600D02*
X348409100Y-102743900D01*
X351905300Y-97911400D02*
X348409100Y-101407600D01*
X353840400Y-97911400D02*
X351905300Y-97911400D01*
X354811000Y-98882000D02*
X353840400Y-97911400D01*
X338477000Y-161870600D02*
X326167600Y-174180000D01*
X338477000Y-127612200D02*
X338477000Y-161870600D01*
X343809400Y-122279800D02*
X338477000Y-127612200D01*
X353083200Y-122279800D02*
X343809400Y-122279800D01*
X359615000Y-115748000D02*
X353083200Y-122279800D01*
X338026700Y-159802800D02*
X326012500Y-171817000D01*
X338026700Y-127425600D02*
X338026700Y-159802800D01*
X343622800Y-121829500D02*
X338026700Y-127425600D01*
X350993500Y-121829500D02*
X343622800Y-121829500D01*
X357075000Y-115748000D02*
X350993500Y-121829500D01*
X473858300Y-280742300D02*
X472592000Y-279476000D01*
X475603500Y-280742300D02*
X473858300Y-280742300D01*
X476361700Y-279984100D02*
X475603500Y-280742300D01*
X476361700Y-278705500D02*
X476361700Y-279984100D01*
X473862000Y-276205800D02*
X476361700Y-278705500D01*
X473862000Y-262499700D02*
X473862000Y-276205800D01*
X459941200Y-248578900D02*
X473862000Y-262499700D01*
X459941200Y-220694300D02*
X459941200Y-248578900D01*
X394907500Y-155660600D02*
X459941200Y-220694300D01*
X394907500Y-118875700D02*
X394907500Y-155660600D01*
X471321900Y-275665900D02*
X475132000Y-279476000D01*
X471321900Y-262097800D02*
X471321900Y-275665900D01*
X459490900Y-250266800D02*
X471321900Y-262097800D01*
X459490900Y-236122500D02*
X459490900Y-250266800D01*
X394282200Y-170913800D02*
X459490900Y-236122500D01*
X394282200Y-116522600D02*
X394282200Y-170913800D01*
X133579000Y-199136000D02*
X133579000Y-200324900D01*
X180265800Y-293265300D02*
X180265800Y-298741200D01*
X155734400Y-268733900D02*
X180265800Y-293265300D01*
X155734400Y-222108700D02*
X155734400Y-268733900D01*
X133950600Y-200324900D02*
X155734400Y-222108700D01*
X133579000Y-200324900D02*
X133950600Y-200324900D01*
X131039000Y-199136000D02*
X132227900Y-199136000D01*
X157755000Y-266894000D02*
X190852800Y-299991800D01*
X157755000Y-236271500D02*
X157755000Y-266894000D01*
X157714000Y-236230500D02*
X157755000Y-236271500D01*
X157714000Y-221550100D02*
X157714000Y-236230500D01*
X134111000Y-197947100D02*
X157714000Y-221550100D01*
X133045200Y-197947100D02*
X134111000Y-197947100D01*
X132227900Y-198764400D02*
X133045200Y-197947100D01*
X132227900Y-199136000D02*
X132227900Y-198764400D01*
X133579000Y-201676000D02*
X133579000Y-202864900D01*
X133950500Y-202864900D02*
X133579000Y-202864900D01*
X155198600Y-224113000D02*
X133950500Y-202864900D01*
X155198600Y-280526400D02*
X155198600Y-224113000D01*
X174838900Y-300166700D02*
X155198600Y-280526400D01*
X174838900Y-300803600D02*
X174838900Y-300166700D01*
X156184800Y-266413700D02*
X187127500Y-297356400D01*
X156184800Y-221181100D02*
X156184800Y-266413700D01*
X137868600Y-202864900D02*
X156184800Y-221181100D01*
X476788000Y-307536700D02*
X477596000Y-307536700D01*
X473598200Y-304346900D02*
X476788000Y-307536700D01*
X473598200Y-283022200D02*
X473598200Y-304346900D01*
X470052000Y-279476000D02*
X473598200Y-283022200D01*
X477596000Y-308712000D02*
X477596000Y-307536700D01*
X461162000Y-275666000D02*
X464972000Y-279476000D01*
X461162000Y-263685800D02*
X461162000Y-275666000D01*
X461877300Y-262970500D02*
X461162000Y-263685800D01*
X463706500Y-262970500D02*
X461877300Y-262970500D01*
X464972000Y-264236000D02*
X463706500Y-262970500D01*
X429389000Y-282301300D02*
X429616000Y-282301300D01*
X422232300Y-289458000D02*
X429389000Y-282301300D01*
X421107000Y-289458000D02*
X422232300Y-289458000D01*
X429616000Y-281076000D02*
X429616000Y-282301300D01*
X489242200Y-312182200D02*
X487956000Y-310896000D01*
X490069800Y-312182200D02*
X489242200Y-312182200D01*
X491356000Y-310896000D02*
X490069800Y-312182200D01*
X459613000Y-293649000D02*
X459613000Y-291923700D01*
X461518000Y-307950000D02*
X462693300Y-307950000D01*
X491356000Y-290322300D02*
X491356000Y-310896000D01*
X488340000Y-287306300D02*
X491356000Y-290322300D01*
X488340000Y-286131000D02*
X488340000Y-287306300D01*
X450113000Y-280797000D02*
X450113000Y-282022300D01*
X429616000Y-281076000D02*
X429616000Y-279850700D01*
X470216000Y-303446200D02*
X468891100Y-304771100D01*
X470216000Y-296316000D02*
X470216000Y-303446200D01*
X465872200Y-304771100D02*
X468891100Y-304771100D01*
X462693300Y-307950000D02*
X465872200Y-304771100D01*
X468891100Y-304771100D02*
X470038000Y-305918000D01*
X455465700Y-287375000D02*
X459613000Y-287375000D01*
X450113000Y-282022300D02*
X455465700Y-287375000D01*
X467512000Y-279476000D02*
X459613000Y-287375000D01*
X459613000Y-287375000D02*
X459613000Y-291923700D01*
X267716000Y-211607000D02*
X268986000Y-212877000D01*
X267716000Y-209067000D02*
X267716000Y-211607000D01*
X266446000Y-207797000D02*
X267716000Y-209067000D01*
X425298000Y-275532700D02*
X429616000Y-279850700D01*
X425298000Y-231800000D02*
X425298000Y-275532700D01*
X462432000Y-274396000D02*
X462432000Y-264236000D01*
X467512000Y-279476000D02*
X462432000Y-274396000D01*
X312852000Y-232995000D02*
X312852000Y-231769700D01*
X309601000Y-226924000D02*
X309601000Y-228036700D01*
X306350000Y-233071000D02*
X307575300Y-233071000D01*
X361505600Y-103036600D02*
X362431000Y-103962000D01*
X352946000Y-107177000D02*
X349455000Y-110668000D01*
X357365200Y-107177000D02*
X352946000Y-107177000D01*
X361505600Y-103036600D02*
X357365200Y-107177000D01*
X314949000Y-229672700D02*
X312852000Y-231769700D01*
X314949000Y-130530800D02*
X314949000Y-229672700D01*
X353499900Y-91979900D02*
X314949000Y-130530800D01*
X349404000Y-87884000D02*
X353499900Y-91979900D01*
X361505600Y-93568600D02*
X361505600Y-103036600D01*
X359916900Y-91979900D02*
X361505600Y-93568600D01*
X353499900Y-91979900D02*
X359916900Y-91979900D01*
X307575300Y-232611500D02*
X310634600Y-229552200D01*
X307575300Y-233071000D02*
X307575300Y-232611500D01*
X309601000Y-228518700D02*
X310634600Y-229552200D01*
X309601000Y-228036700D02*
X309601000Y-228518700D01*
X310634600Y-229552200D02*
X312852000Y-231769700D01*
X388552200Y-110369200D02*
X388622000Y-110439000D01*
X388552200Y-90189000D02*
X388552200Y-110369200D01*
X389638000Y-89103200D02*
X388552200Y-90189000D01*
X422179500Y-231800000D02*
X425298000Y-231800000D01*
X389832400Y-199452900D02*
X422179500Y-231800000D01*
X389832400Y-113306300D02*
X389832400Y-199452900D01*
X388622000Y-112095900D02*
X389832400Y-113306300D01*
X388622000Y-110439000D02*
X388622000Y-112095900D01*
X161519000Y-242316000D02*
X161519000Y-241127100D01*
X179062700Y-223583400D02*
X179062700Y-215955100D01*
X161519000Y-241127100D02*
X179062700Y-223583400D01*
X394763000Y-295021000D02*
X394763000Y-302641000D01*
X234121700Y-287085900D02*
X243743900Y-296708100D01*
X234121700Y-247776300D02*
X234121700Y-287085900D01*
X238689700Y-243208300D02*
X234121700Y-247776300D01*
X251967400Y-243208300D02*
X238689700Y-243208300D01*
X254142600Y-245383500D02*
X251967400Y-243208300D01*
X269306200Y-245383500D02*
X254142600Y-245383500D01*
X270715800Y-243973900D02*
X269306200Y-245383500D01*
X270715800Y-227886600D02*
X270715800Y-243973900D01*
X267716000Y-224886800D02*
X270715800Y-227886600D01*
X267716000Y-212243900D02*
X267716000Y-224886800D01*
X266446000Y-210973900D02*
X267716000Y-212243900D01*
X266446000Y-210337000D02*
X266446000Y-210973900D01*
X131039000Y-232156000D02*
X131039000Y-233344900D01*
X172586700Y-300677000D02*
X174550700Y-302641000D01*
X172586700Y-298869700D02*
X172586700Y-300677000D01*
X149448700Y-275731700D02*
X172586700Y-298869700D01*
X149448700Y-257484900D02*
X149448700Y-275731700D01*
X132227900Y-240264100D02*
X149448700Y-257484900D01*
X132227900Y-234162200D02*
X132227900Y-240264100D01*
X131410600Y-233344900D02*
X132227900Y-234162200D01*
X131039000Y-233344900D02*
X131410600Y-233344900D01*
X384763000Y-295021000D02*
X384763000Y-302641000D01*
M02*
