G04 #@! TF.FileFunction,Copper,L1,Top,Signal*
%FSLAX46Y46*%
G04 Gerber Fmt 4.6, Leading zero omitted, Abs format (unit mm)*
G04 Created by KiCad (PCBNEW 4.0.6) date 02/21/20 15:01:47*
%MOMM*%
%LPD*%
G01*
G04 APERTURE LIST*
%ADD10C,0.100000*%
%ADD11O,1.727200X1.727200*%
%ADD12C,1.879600*%
%ADD13R,1.600000X1.600000*%
%ADD14C,1.600000*%
%ADD15R,1.800000X1.800000*%
%ADD16C,1.800000*%
%ADD17O,1.800000X1.800000*%
%ADD18R,2.800000X2.800000*%
%ADD19O,2.800000X2.800000*%
%ADD20R,1.200000X1.200000*%
%ADD21C,1.200000*%
%ADD22R,1.700000X1.700000*%
%ADD23O,1.700000X1.700000*%
%ADD24R,1.350000X1.350000*%
%ADD25O,1.350000X1.350000*%
%ADD26C,3.000000*%
%ADD27R,1.350000X1.800000*%
%ADD28O,1.350000X1.800000*%
%ADD29O,1.600000X1.600000*%
%ADD30R,1.000000X2.750000*%
%ADD31C,0.600000*%
%ADD32C,0.250000*%
G04 APERTURE END LIST*
D10*
D11*
X163932000Y-219456000D03*
X161392000Y-219456000D03*
X161392000Y-216916000D03*
X163932000Y-216916000D03*
X161392000Y-214376000D03*
X176759000Y-242316000D03*
X181839000Y-242316000D03*
X184379000Y-242316000D03*
X186919000Y-242316000D03*
X189459000Y-242316000D03*
X191999000Y-242316000D03*
X194539000Y-242316000D03*
X197079000Y-242316000D03*
X141199000Y-194056000D03*
X143739000Y-194056000D03*
X146279000Y-194056000D03*
X148819000Y-194056000D03*
X151359000Y-194056000D03*
X153899000Y-194056000D03*
X156439000Y-194056000D03*
X158979000Y-194056000D03*
X164059000Y-194056000D03*
X166599000Y-194056000D03*
X169139000Y-194056000D03*
X171679000Y-194056000D03*
X174219000Y-194056000D03*
X176759000Y-194056000D03*
X179299000Y-194056000D03*
X181839000Y-194056000D03*
X201143000Y-194056000D03*
X185903000Y-194056000D03*
X188443000Y-194056000D03*
X190983000Y-194056000D03*
X208763000Y-194056000D03*
X206223000Y-194056000D03*
X203683000Y-194056000D03*
X198603000Y-194056000D03*
X196063000Y-194056000D03*
X193523000Y-194056000D03*
X199619000Y-242316000D03*
X174219000Y-242316000D03*
X171679000Y-242316000D03*
X169139000Y-242316000D03*
X166599000Y-242316000D03*
X164059000Y-242316000D03*
X161519000Y-242316000D03*
X158979000Y-242316000D03*
X153899000Y-242316000D03*
X151359000Y-242316000D03*
X148819000Y-242316000D03*
X146279000Y-242316000D03*
X143739000Y-242316000D03*
X141199000Y-242316000D03*
X138659000Y-242316000D03*
X136119000Y-242316000D03*
X133579000Y-194056000D03*
X131039000Y-194056000D03*
X133579000Y-196596000D03*
X131039000Y-196596000D03*
X133579000Y-199136000D03*
X131039000Y-199136000D03*
X133579000Y-201676000D03*
X131039000Y-201676000D03*
X133579000Y-204216000D03*
X131039000Y-204216000D03*
X133579000Y-206756000D03*
X131039000Y-206756000D03*
X133579000Y-209296000D03*
X131039000Y-209296000D03*
X133579000Y-211836000D03*
X131039000Y-211836000D03*
X133579000Y-214376000D03*
X131039000Y-214376000D03*
X133579000Y-216916000D03*
X131039000Y-216916000D03*
X133579000Y-219456000D03*
X131039000Y-219456000D03*
X133579000Y-221996000D03*
X131039000Y-221996000D03*
X133579000Y-224536000D03*
X131039000Y-224536000D03*
X133579000Y-227076000D03*
X131039000Y-227076000D03*
X133579000Y-229616000D03*
X131039000Y-229616000D03*
X133579000Y-232156000D03*
X131039000Y-232156000D03*
X133579000Y-234696000D03*
X131039000Y-234696000D03*
X133579000Y-237236000D03*
X131039000Y-237236000D03*
X163932000Y-214376000D03*
D12*
X133400000Y-102400000D03*
X133400000Y-104940000D03*
X135940000Y-102400000D03*
X135940000Y-104940000D03*
X138480000Y-102400000D03*
X138480000Y-104940000D03*
X141020000Y-102400000D03*
X141020000Y-104940000D03*
X143560000Y-102400000D03*
X143560000Y-104940000D03*
X146100000Y-102400000D03*
X146100000Y-104940000D03*
X148640000Y-102400000D03*
X148640000Y-104940000D03*
X188800000Y-102400000D03*
X188800000Y-104940000D03*
X191340000Y-102400000D03*
X191340000Y-104940000D03*
X193880000Y-102400000D03*
X193880000Y-104940000D03*
X196420000Y-102400000D03*
X196420000Y-104940000D03*
X198960000Y-102400000D03*
X198960000Y-104940000D03*
X201500000Y-102400000D03*
X201500000Y-104940000D03*
X204040000Y-102400000D03*
X204040000Y-104940000D03*
X188800000Y-151200000D03*
X188800000Y-153740000D03*
X191340000Y-151200000D03*
X191340000Y-153740000D03*
X193880000Y-151200000D03*
X193880000Y-153740000D03*
X196420000Y-151200000D03*
X196420000Y-153740000D03*
X198960000Y-151200000D03*
X198960000Y-153740000D03*
X201500000Y-151200000D03*
X201500000Y-153740000D03*
X204040000Y-151200000D03*
X204040000Y-153740000D03*
X133400000Y-151200000D03*
X133400000Y-153740000D03*
X135940000Y-151200000D03*
X135940000Y-153740000D03*
X138480000Y-151200000D03*
X138480000Y-153740000D03*
X141020000Y-151200000D03*
X141020000Y-153740000D03*
X143560000Y-151200000D03*
X143560000Y-153740000D03*
X146100000Y-151200000D03*
X146100000Y-153740000D03*
X148640000Y-151200000D03*
X148640000Y-153740000D03*
X148100000Y-282000000D03*
X148100000Y-279460000D03*
X145560000Y-282000000D03*
X145560000Y-279460000D03*
X143020000Y-282000000D03*
X143020000Y-279460000D03*
X140480000Y-282000000D03*
X140480000Y-279460000D03*
X137940000Y-282000000D03*
X137940000Y-279460000D03*
X135400000Y-282000000D03*
X135400000Y-279460000D03*
X132860000Y-282000000D03*
X132860000Y-279460000D03*
X204343000Y-282000000D03*
X204343000Y-279460000D03*
X201803000Y-282000000D03*
X201803000Y-279460000D03*
X199263000Y-282000000D03*
X199263000Y-279460000D03*
X196723000Y-282000000D03*
X196723000Y-279460000D03*
X194183000Y-282000000D03*
X194183000Y-279460000D03*
X191643000Y-282000000D03*
X191643000Y-279460000D03*
X189103000Y-282000000D03*
X189103000Y-279460000D03*
X269000000Y-243200000D03*
X266460000Y-243200000D03*
X269000000Y-240660000D03*
X266460000Y-240660000D03*
X269000000Y-238120000D03*
X266460000Y-238120000D03*
X269000000Y-235580000D03*
X266460000Y-235580000D03*
X269000000Y-233040000D03*
X266460000Y-233040000D03*
X269000000Y-230500000D03*
X266460000Y-230500000D03*
X269000000Y-227960000D03*
X266460000Y-227960000D03*
X408600000Y-143600000D03*
X406060000Y-143600000D03*
X408600000Y-141060000D03*
X406060000Y-141060000D03*
X408600000Y-138520000D03*
X406060000Y-138520000D03*
X408600000Y-135980000D03*
X406060000Y-135980000D03*
X408600000Y-133440000D03*
X406060000Y-133440000D03*
X408600000Y-130900000D03*
X406060000Y-130900000D03*
X408600000Y-128360000D03*
X406060000Y-128360000D03*
X323800000Y-156400000D03*
X321260000Y-156400000D03*
X323800000Y-153860000D03*
X321260000Y-153860000D03*
X323800000Y-151320000D03*
X321260000Y-151320000D03*
X306000000Y-156400000D03*
X303460000Y-156400000D03*
X306000000Y-153860000D03*
X303460000Y-153860000D03*
X306000000Y-151320000D03*
X303460000Y-151320000D03*
X323800000Y-181800000D03*
X321260000Y-181800000D03*
X323800000Y-179260000D03*
X321260000Y-179260000D03*
X323800000Y-176720000D03*
X321260000Y-176720000D03*
X323800000Y-174180000D03*
X321260000Y-174180000D03*
D13*
X467538000Y-305918000D03*
D14*
X470038000Y-305918000D03*
D13*
X467716000Y-296316000D03*
D14*
X470216000Y-296316000D03*
D15*
X312852000Y-232995000D03*
D16*
X315392000Y-232995000D03*
D15*
X429616000Y-291236000D03*
D17*
X429616000Y-281076000D03*
D15*
X434975000Y-291186000D03*
D17*
X434975000Y-281026000D03*
D15*
X450113000Y-290957000D03*
D17*
X450113000Y-280797000D03*
D15*
X444627000Y-290957000D03*
D17*
X444627000Y-280797000D03*
D15*
X425298000Y-231800000D03*
D16*
X427838000Y-231800000D03*
D18*
X459613000Y-303809000D03*
D19*
X459613000Y-293649000D03*
D15*
X439598000Y-290957000D03*
D17*
X439598000Y-280797000D03*
D15*
X309601000Y-226924000D03*
D16*
X312141000Y-226924000D03*
D15*
X306350000Y-233071000D03*
D16*
X308890000Y-233071000D03*
D20*
X388622000Y-115519000D03*
D21*
X388622000Y-110439000D03*
X393702000Y-115519000D03*
X398782000Y-110439000D03*
X396242000Y-115519000D03*
X398782000Y-115519000D03*
X393702000Y-110439000D03*
X396242000Y-110439000D03*
D20*
X349455000Y-115748000D03*
D21*
X349455000Y-110668000D03*
X354535000Y-115748000D03*
X359615000Y-110668000D03*
X357075000Y-115748000D03*
X359615000Y-115748000D03*
X354535000Y-110668000D03*
X357075000Y-110668000D03*
D20*
X362431000Y-98882000D03*
D21*
X362431000Y-103962000D03*
X357351000Y-98882000D03*
X352271000Y-103962000D03*
X354811000Y-98882000D03*
X352271000Y-98882000D03*
X357351000Y-103962000D03*
X354811000Y-103962000D03*
D20*
X349404000Y-92964000D03*
D21*
X349404000Y-87884000D03*
X354484000Y-92964000D03*
X359564000Y-87884000D03*
X357024000Y-92964000D03*
X359564000Y-92964000D03*
X354484000Y-87884000D03*
X357024000Y-87884000D03*
D20*
X389638000Y-94183200D03*
D21*
X389638000Y-89103200D03*
X394718000Y-94183200D03*
X399798000Y-89103200D03*
X397258000Y-94183200D03*
X399798000Y-94183200D03*
X394718000Y-89103200D03*
X397258000Y-89103200D03*
D22*
X477596000Y-306172000D03*
D23*
X477596000Y-308712000D03*
D15*
X459892000Y-279476000D03*
D16*
X462432000Y-279476000D03*
X464972000Y-279476000D03*
X467512000Y-279476000D03*
X470052000Y-279476000D03*
X472592000Y-279476000D03*
X475132000Y-279476000D03*
X477672000Y-279476000D03*
X480212000Y-279476000D03*
X482752000Y-279476000D03*
X485292000Y-279476000D03*
X487832000Y-279476000D03*
X490372000Y-279476000D03*
X492912000Y-279476000D03*
X495452000Y-279476000D03*
X495452000Y-264236000D03*
X492912000Y-264236000D03*
X490372000Y-264236000D03*
X487832000Y-264236000D03*
X485292000Y-264236000D03*
X482752000Y-264236000D03*
X480212000Y-264236000D03*
X477672000Y-264236000D03*
X475132000Y-264236000D03*
X472592000Y-264236000D03*
X470052000Y-264236000D03*
X467512000Y-264236000D03*
X464972000Y-264236000D03*
X462432000Y-264236000D03*
X459892000Y-264236000D03*
D24*
X479069000Y-285090000D03*
D25*
X479069000Y-287090000D03*
D26*
X372720000Y-115011000D03*
X380340000Y-115011000D03*
X372720000Y-94691000D03*
X380340000Y-89691000D03*
X380340000Y-99691000D03*
X372720000Y-99691000D03*
X380340000Y-94691000D03*
X372720000Y-89691000D03*
D27*
X484556000Y-310896000D03*
D28*
X486256000Y-310896000D03*
X487956000Y-310896000D03*
X489656000Y-310896000D03*
X491356000Y-310896000D03*
D22*
X490880000Y-286131000D03*
D23*
X488340000Y-286131000D03*
D14*
X465988000Y-286334000D03*
D29*
X468528000Y-286334000D03*
D22*
X461518000Y-307950000D03*
D23*
X461518000Y-310490000D03*
D30*
X450184000Y-88543600D03*
X450184000Y-94793600D03*
X452184000Y-88543600D03*
X452184000Y-94793600D03*
X454184000Y-88543600D03*
X454184000Y-94793600D03*
X456184000Y-88543600D03*
X456184000Y-94793600D03*
X458184000Y-88543600D03*
X458184000Y-94793600D03*
X460184000Y-88543600D03*
X460184000Y-94793600D03*
X462184000Y-88543600D03*
X462184000Y-94793600D03*
D14*
X405308000Y-308559000D03*
D29*
X420548000Y-308559000D03*
D14*
X405587000Y-293649000D03*
D29*
X420827000Y-293649000D03*
D14*
X405867000Y-289458000D03*
D29*
X421107000Y-289458000D03*
D14*
X420675000Y-302692000D03*
D29*
X405435000Y-302692000D03*
D14*
X420548000Y-297739000D03*
D29*
X405308000Y-297739000D03*
D12*
X268986000Y-212877000D03*
X266446000Y-212877000D03*
X268986000Y-210337000D03*
X266446000Y-210337000D03*
X268986000Y-207797000D03*
X266446000Y-207797000D03*
D26*
X369443000Y-295021000D03*
X369443000Y-302641000D03*
X389763000Y-295021000D03*
X394763000Y-302641000D03*
X384763000Y-302641000D03*
X384763000Y-295021000D03*
X389763000Y-302641000D03*
X394763000Y-295021000D03*
D31*
X467402700Y-285608700D03*
X241553500Y-299366500D03*
X233469800Y-248553000D03*
X387052000Y-280614700D03*
X389177500Y-108656500D03*
X150074000Y-257891100D03*
X391808800Y-117699100D03*
X326012500Y-168824300D03*
X390944400Y-111517900D03*
X305383100Y-185449800D03*
X153405000Y-260467000D03*
X393538700Y-291182500D03*
X246734200Y-291182500D03*
X253517500Y-298121900D03*
X133447600Y-106756500D03*
X187155400Y-280734900D03*
X181733600Y-147441900D03*
X184666400Y-150986600D03*
X147614100Y-273379500D03*
X197870200Y-283803500D03*
X185993600Y-283106000D03*
X152952200Y-154876800D03*
X146407300Y-273631400D03*
X192875900Y-273986500D03*
X146132100Y-285112100D03*
X239291500Y-238953300D03*
X231775100Y-237665100D03*
X205717000Y-156798000D03*
X193926000Y-156798000D03*
X146333200Y-274447400D03*
X193849000Y-274593600D03*
X142940900Y-284460900D03*
X153202000Y-101332000D03*
X127479100Y-152470000D03*
X143123600Y-275075300D03*
X141760000Y-106934000D03*
X194173100Y-276046500D03*
X139885900Y-283945900D03*
X152075000Y-101090700D03*
X240356400Y-234280400D03*
X223463600Y-231671000D03*
X221879400Y-251593600D03*
X218185500Y-251593600D03*
X197849000Y-149934800D03*
X200765000Y-106676900D03*
X181672800Y-148811700D03*
X192492800Y-276128000D03*
X225115100Y-230500000D03*
X190070000Y-148367400D03*
X151823500Y-282655400D03*
X188267000Y-229229800D03*
X244257000Y-225398100D03*
X423093800Y-86843300D03*
X413681100Y-94793600D03*
X454746100Y-85007000D03*
X421928900Y-93093300D03*
X453914500Y-86651400D03*
X449156600Y-96300700D03*
X449157500Y-90048500D03*
X446976000Y-96698900D03*
X448338100Y-90499200D03*
X441162000Y-97189400D03*
X440131500Y-90940600D03*
X428851700Y-97844800D03*
X429116600Y-91594800D03*
X282558700Y-234314900D03*
X302480700Y-202802500D03*
X301339100Y-155125200D03*
X280207600Y-241934900D03*
X300935500Y-228239500D03*
X290664600Y-239394900D03*
X231682900Y-241289200D03*
X294359500Y-168824300D03*
X231074500Y-240088700D03*
X296501600Y-167960800D03*
X234935500Y-238396300D03*
X301269500Y-153758300D03*
X235501400Y-237159100D03*
X337181100Y-112694100D03*
X326167600Y-174180000D03*
X326012500Y-171817000D03*
X394907500Y-118875700D03*
X394282200Y-116522600D03*
X180265800Y-298741200D03*
X190852800Y-299991800D03*
X174838900Y-300803600D03*
X187127500Y-297356400D03*
X137868600Y-202864900D03*
X179062700Y-215955100D03*
X243743900Y-296708100D03*
X174550700Y-302641000D03*
D32*
X468663300Y-306199300D02*
X468663300Y-305918000D01*
X473360000Y-310896000D02*
X468663300Y-306199300D01*
X484556000Y-310896000D02*
X473360000Y-310896000D01*
X467538000Y-305918000D02*
X468663300Y-305918000D01*
X461518000Y-310490000D02*
X460342700Y-310490000D01*
X489704700Y-285763600D02*
X489704700Y-286131000D01*
X488896800Y-284955700D02*
X489704700Y-285763600D01*
X486482100Y-284955700D02*
X488896800Y-284955700D01*
X481482000Y-279955600D02*
X486482100Y-284955700D01*
X481482000Y-278996800D02*
X481482000Y-279955600D01*
X479371800Y-276886600D02*
X481482000Y-278996800D01*
X472542600Y-276886600D02*
X479371800Y-276886600D01*
X459892000Y-264236000D02*
X472542600Y-276886600D01*
X490880000Y-286131000D02*
X489704700Y-286131000D01*
X397612000Y-310490000D02*
X389763000Y-302641000D01*
X460342700Y-310490000D02*
X397612000Y-310490000D01*
X380340000Y-94691000D02*
X372720000Y-94691000D01*
X467716000Y-296316000D02*
X468841300Y-296316000D01*
X484932000Y-306172000D02*
X477596000Y-306172000D01*
X489656000Y-310896000D02*
X484932000Y-306172000D01*
X468841300Y-296591300D02*
X468841300Y-296316000D01*
X477246700Y-304996700D02*
X468841300Y-296591300D01*
X477596000Y-304996700D02*
X477246700Y-304996700D01*
X477596000Y-306172000D02*
X477596000Y-304996700D01*
X468528000Y-286334000D02*
X467402700Y-286334000D01*
X467402700Y-286334000D02*
X467402700Y-285608700D01*
X419006400Y-299366500D02*
X241553500Y-299366500D01*
X421841000Y-302201100D02*
X419006400Y-299366500D01*
X421841000Y-306140700D02*
X421841000Y-302201100D01*
X420548000Y-307433700D02*
X421841000Y-306140700D01*
X420548000Y-308559000D02*
X420548000Y-307433700D01*
X237937800Y-244085000D02*
X233469800Y-248553000D01*
X264474300Y-244085000D02*
X237937800Y-244085000D01*
X264862200Y-244472900D02*
X264474300Y-244085000D01*
X291445000Y-244472900D02*
X264862200Y-244472900D01*
X304153600Y-231764300D02*
X291445000Y-244472900D01*
X314161300Y-231764300D02*
X304153600Y-231764300D01*
X315392000Y-232995000D02*
X314161300Y-231764300D01*
X131039000Y-229616000D02*
X132227900Y-229616000D01*
X132227900Y-229987600D02*
X132227900Y-229616000D01*
X133045200Y-230804900D02*
X132227900Y-229987600D01*
X133934700Y-230804900D02*
X133045200Y-230804900D01*
X135233700Y-232103900D02*
X133934700Y-230804900D01*
X135233700Y-241111600D02*
X135233700Y-232103900D01*
X134880400Y-241464900D02*
X135233700Y-241111600D01*
X134880400Y-242796900D02*
X134880400Y-241464900D01*
X149349300Y-257265800D02*
X134880400Y-242796900D01*
X215182100Y-257265800D02*
X149349300Y-257265800D01*
X238531000Y-280614700D02*
X215182100Y-257265800D01*
X387052000Y-280614700D02*
X238531000Y-280614700D01*
X373130800Y-108656500D02*
X389177500Y-108656500D01*
X363356300Y-98882000D02*
X373130800Y-108656500D01*
X362431000Y-98882000D02*
X363356300Y-98882000D01*
X215170500Y-257891100D02*
X150074000Y-257891100D01*
X239812700Y-282533300D02*
X215170500Y-257891100D01*
X388086200Y-282533300D02*
X239812700Y-282533300D01*
X396181600Y-290628700D02*
X388086200Y-282533300D01*
X423331300Y-290628700D02*
X396181600Y-290628700D01*
X423949400Y-290010600D02*
X423331300Y-290628700D01*
X432574300Y-290010600D02*
X423949400Y-290010600D01*
X433749700Y-291186000D02*
X432574300Y-290010600D01*
X434975000Y-291186000D02*
X433749700Y-291186000D01*
X349455000Y-115748000D02*
X350380300Y-115748000D01*
X133579000Y-229616000D02*
X134767900Y-229616000D01*
X322893000Y-168824300D02*
X326012500Y-168824300D01*
X290191800Y-201525500D02*
X322893000Y-168824300D01*
X162858400Y-201525500D02*
X290191800Y-201525500D01*
X134767900Y-229616000D02*
X162858400Y-201525500D01*
X377989700Y-117699100D02*
X391808800Y-117699100D01*
X373470600Y-113180000D02*
X377989700Y-117699100D01*
X352948300Y-113180000D02*
X373470600Y-113180000D01*
X350380300Y-115748000D02*
X352948300Y-113180000D01*
X371295700Y-111517900D02*
X390944400Y-111517900D01*
X352741800Y-92964000D02*
X371295700Y-111517900D01*
X349404000Y-92964000D02*
X352741800Y-92964000D01*
X131039000Y-221996000D02*
X132227900Y-221996000D01*
X132227900Y-221624400D02*
X132227900Y-221996000D01*
X133045200Y-220807100D02*
X132227900Y-221624400D01*
X135884800Y-220807100D02*
X133045200Y-220807100D01*
X156837900Y-199854000D02*
X135884800Y-220807100D01*
X290978900Y-199854000D02*
X156837900Y-199854000D01*
X305383100Y-185449800D02*
X290978900Y-199854000D01*
X469650600Y-312121300D02*
X486256000Y-312121300D01*
X461338300Y-303809000D02*
X469650600Y-312121300D01*
X459613000Y-303809000D02*
X461338300Y-303809000D01*
X486256000Y-310896000D02*
X486256000Y-312121300D01*
X439598000Y-290957000D02*
X438372700Y-290957000D01*
X436868300Y-292461400D02*
X438372700Y-290957000D01*
X247128800Y-292461400D02*
X436868300Y-292461400D01*
X215134400Y-260467000D02*
X247128800Y-292461400D01*
X153405000Y-260467000D02*
X215134400Y-260467000D01*
X246734200Y-291182500D02*
X393538700Y-291182500D01*
X403799800Y-298121900D02*
X253517500Y-298121900D01*
X404182700Y-297739000D02*
X403799800Y-298121900D01*
X405308000Y-297739000D02*
X404182700Y-297739000D01*
X132125200Y-103674800D02*
X133400000Y-102400000D01*
X132125200Y-105516700D02*
X132125200Y-103674800D01*
X133365000Y-106756500D02*
X132125200Y-105516700D01*
X133447600Y-106756500D02*
X133365000Y-106756500D01*
X203077900Y-280734900D02*
X187155400Y-280734900D01*
X204343000Y-282000000D02*
X203077900Y-280734900D01*
X137158100Y-147441900D02*
X181733600Y-147441900D01*
X133400000Y-151200000D02*
X137158100Y-147441900D01*
X188586600Y-150986600D02*
X188800000Y-151200000D01*
X184666400Y-150986600D02*
X188586600Y-150986600D01*
X185578400Y-282000000D02*
X148100000Y-282000000D01*
X186843500Y-280734900D02*
X185578400Y-282000000D01*
X187155400Y-280734900D02*
X186843500Y-280734900D01*
X187534800Y-106205200D02*
X188800000Y-104940000D01*
X134665200Y-106205200D02*
X187534800Y-106205200D01*
X133400000Y-104940000D02*
X134665200Y-106205200D01*
X147632400Y-273361200D02*
X147614100Y-273379500D01*
X198244200Y-273361200D02*
X147632400Y-273361200D01*
X204343000Y-279460000D02*
X198244200Y-273361200D01*
X190032300Y-149892300D02*
X191340000Y-151200000D01*
X181946800Y-149892300D02*
X190032300Y-149892300D01*
X181496600Y-149442100D02*
X181946800Y-149892300D01*
X137697900Y-149442100D02*
X181496600Y-149442100D01*
X135940000Y-151200000D02*
X137697900Y-149442100D01*
X199999500Y-283803500D02*
X197870200Y-283803500D01*
X201803000Y-282000000D02*
X199999500Y-283803500D01*
X146301900Y-282000000D02*
X145560000Y-282000000D01*
X147612800Y-283310900D02*
X146301900Y-282000000D01*
X185788700Y-283310900D02*
X147612800Y-283310900D01*
X185993600Y-283106000D02*
X185788700Y-283310900D01*
X192952000Y-273910400D02*
X192875900Y-273986500D01*
X196253400Y-273910400D02*
X192952000Y-273910400D01*
X201803000Y-279460000D02*
X196253400Y-273910400D01*
X192857500Y-274004900D02*
X192875900Y-273986500D01*
X146780800Y-274004900D02*
X192857500Y-274004900D01*
X146407300Y-273631400D02*
X146780800Y-274004900D01*
X153102100Y-155026700D02*
X152952200Y-154876800D01*
X190053300Y-155026700D02*
X153102100Y-155026700D01*
X191340000Y-153740000D02*
X190053300Y-155026700D01*
X205717000Y-156798000D02*
X193926000Y-156798000D01*
X144760100Y-156798000D02*
X193926000Y-156798000D01*
X142290000Y-154327900D02*
X144760100Y-156798000D01*
X142290000Y-150670500D02*
X142290000Y-154327900D01*
X141533900Y-149914400D02*
X142290000Y-150670500D01*
X139765600Y-149914400D02*
X141533900Y-149914400D01*
X138480000Y-151200000D02*
X139765600Y-149914400D01*
X198789400Y-282000000D02*
X199263000Y-282000000D01*
X195677400Y-285112000D02*
X198789400Y-282000000D01*
X195677400Y-285112100D02*
X195677400Y-285112000D01*
X146132100Y-285112100D02*
X195677400Y-285112100D01*
X236411300Y-238953300D02*
X239291500Y-238953300D01*
X235123100Y-237665100D02*
X236411300Y-238953300D01*
X231775100Y-237665100D02*
X235123100Y-237665100D01*
X139750000Y-103670000D02*
X138480000Y-104940000D01*
X192610000Y-103670000D02*
X139750000Y-103670000D01*
X193880000Y-104940000D02*
X192610000Y-103670000D01*
X193830800Y-274611800D02*
X193849000Y-274593600D01*
X146497600Y-274611800D02*
X193830800Y-274611800D01*
X146333200Y-274447400D02*
X146497600Y-274611800D01*
X194396600Y-274593600D02*
X193849000Y-274593600D01*
X199263000Y-279460000D02*
X194396600Y-274593600D01*
X195154900Y-101134900D02*
X196420000Y-102400000D01*
X153399100Y-101134900D02*
X195154900Y-101134900D01*
X153202000Y-101332000D02*
X153399100Y-101134900D01*
X139750000Y-152470000D02*
X127479100Y-152470000D01*
X141020000Y-151200000D02*
X139750000Y-152470000D01*
X194061200Y-284661800D02*
X196723000Y-282000000D01*
X147053000Y-284661800D02*
X194061200Y-284661800D01*
X146852100Y-284460900D02*
X147053000Y-284661800D01*
X142940900Y-284460900D02*
X146852100Y-284460900D01*
X194426000Y-106934000D02*
X141760000Y-106934000D01*
X196420000Y-104940000D02*
X194426000Y-106934000D01*
X194173100Y-276910100D02*
X194173100Y-276046500D01*
X196723000Y-279460000D02*
X194173100Y-276910100D01*
X193201900Y-275075300D02*
X194173100Y-276046500D01*
X143123600Y-275075300D02*
X193201900Y-275075300D01*
X152481100Y-100684600D02*
X152075000Y-101090700D01*
X197244600Y-100684600D02*
X152481100Y-100684600D01*
X198960000Y-102400000D02*
X197244600Y-100684600D01*
X191971500Y-284211500D02*
X194183000Y-282000000D01*
X147239600Y-284211500D02*
X191971500Y-284211500D01*
X146833300Y-283805200D02*
X147239600Y-284211500D01*
X140026600Y-283805200D02*
X146833300Y-283805200D01*
X139885900Y-283945900D02*
X140026600Y-283805200D01*
X237747000Y-231671000D02*
X223463600Y-231671000D01*
X240356400Y-234280400D02*
X237747000Y-231671000D01*
X140821600Y-276578400D02*
X137940000Y-279460000D01*
X191301400Y-276578400D02*
X140821600Y-276578400D01*
X194183000Y-279460000D02*
X191301400Y-276578400D01*
X197690000Y-152470000D02*
X195150000Y-152470000D01*
X198960000Y-153740000D02*
X197690000Y-152470000D01*
X144830000Y-152470000D02*
X143560000Y-153740000D01*
X195150000Y-152470000D02*
X144830000Y-152470000D01*
X195863000Y-149934800D02*
X197849000Y-149934800D01*
X195150000Y-150647800D02*
X195863000Y-149934800D01*
X195150000Y-152470000D02*
X195150000Y-150647800D01*
X221879400Y-251593600D02*
X218185500Y-251593600D01*
X200230000Y-103670000D02*
X201500000Y-102400000D01*
X200230000Y-106141900D02*
X200230000Y-103670000D01*
X200765000Y-106676900D02*
X200230000Y-106141900D01*
X181884300Y-149023200D02*
X181672800Y-148811700D01*
X199323200Y-149023200D02*
X181884300Y-149023200D01*
X201500000Y-151200000D02*
X199323200Y-149023200D01*
X189881800Y-283761200D02*
X191643000Y-282000000D01*
X147426200Y-283761200D02*
X189881800Y-283761200D01*
X146975900Y-283310900D02*
X147426200Y-283761200D01*
X136710900Y-283310900D02*
X146975900Y-283310900D01*
X135400000Y-282000000D02*
X136710900Y-283310900D01*
X199272500Y-155967500D02*
X201500000Y-153740000D01*
X148327500Y-155967500D02*
X199272500Y-155967500D01*
X146100000Y-153740000D02*
X148327500Y-155967500D01*
X138732000Y-276128000D02*
X192492800Y-276128000D01*
X135400000Y-279460000D02*
X138732000Y-276128000D01*
X266460000Y-230500000D02*
X225115100Y-230500000D01*
X201207400Y-148367400D02*
X190070000Y-148367400D01*
X204040000Y-151200000D02*
X201207400Y-148367400D01*
X150805700Y-100234300D02*
X148640000Y-102400000D01*
X201874300Y-100234300D02*
X150805700Y-100234300D01*
X204040000Y-102400000D02*
X201874300Y-100234300D01*
X267730200Y-229229800D02*
X188267000Y-229229800D01*
X269000000Y-227960000D02*
X267730200Y-229229800D01*
X185559900Y-282655400D02*
X151823500Y-282655400D01*
X186215300Y-282000000D02*
X185559900Y-282655400D01*
X189103000Y-282000000D02*
X186215300Y-282000000D01*
X134130000Y-280730000D02*
X132860000Y-279460000D01*
X150882300Y-280730000D02*
X134130000Y-280730000D01*
X151375400Y-281223100D02*
X150882300Y-280730000D01*
X185568000Y-281223100D02*
X151375400Y-281223100D01*
X187331100Y-279460000D02*
X185568000Y-281223100D01*
X189103000Y-279460000D02*
X187331100Y-279460000D01*
X150417200Y-155517200D02*
X148640000Y-153740000D01*
X199012000Y-155517200D02*
X150417200Y-155517200D01*
X200230000Y-154299200D02*
X199012000Y-155517200D01*
X200230000Y-153191500D02*
X200230000Y-154299200D01*
X200946700Y-152474800D02*
X200230000Y-153191500D01*
X202774800Y-152474800D02*
X200946700Y-152474800D01*
X204040000Y-153740000D02*
X202774800Y-152474800D01*
X246818900Y-227960000D02*
X244257000Y-225398100D01*
X266460000Y-227960000D02*
X246818900Y-227960000D01*
X450184000Y-88543600D02*
X450184000Y-86843300D01*
X450184000Y-86843300D02*
X423093800Y-86843300D01*
X413681100Y-94793600D02*
X450184000Y-94793600D01*
X454020300Y-85007000D02*
X454746100Y-85007000D01*
X452184000Y-86843300D02*
X454020300Y-85007000D01*
X452184000Y-88543600D02*
X452184000Y-86843300D01*
X452184000Y-94793600D02*
X452184000Y-93093300D01*
X452184000Y-93093300D02*
X421928900Y-93093300D01*
X454106400Y-86843300D02*
X453914500Y-86651400D01*
X454184000Y-86843300D02*
X454106400Y-86843300D01*
X454184000Y-88543600D02*
X454184000Y-86843300D01*
X454184000Y-94793600D02*
X454184000Y-96493900D01*
X449349800Y-96493900D02*
X449156600Y-96300700D01*
X454184000Y-96493900D02*
X449349800Y-96493900D01*
X456184000Y-88543600D02*
X456184000Y-90243900D01*
X449352900Y-90243900D02*
X449157500Y-90048500D01*
X456184000Y-90243900D02*
X449352900Y-90243900D01*
X456184000Y-94793600D02*
X456184000Y-96493900D01*
X447221300Y-96944200D02*
X446976000Y-96698900D01*
X455733700Y-96944200D02*
X447221300Y-96944200D01*
X456184000Y-96493900D02*
X455733700Y-96944200D01*
X458184000Y-88543600D02*
X458184000Y-90243900D01*
X448533100Y-90694200D02*
X448338100Y-90499200D01*
X457733700Y-90694200D02*
X448533100Y-90694200D01*
X458184000Y-90243900D02*
X457733700Y-90694200D01*
X458184000Y-94793600D02*
X458184000Y-96493900D01*
X441367100Y-97394500D02*
X441162000Y-97189400D01*
X457283400Y-97394500D02*
X441367100Y-97394500D01*
X458184000Y-96493900D02*
X457283400Y-97394500D01*
X460184000Y-88543600D02*
X460184000Y-90243900D01*
X459283400Y-91144500D02*
X460184000Y-90243900D01*
X440335400Y-91144500D02*
X459283400Y-91144500D01*
X440131500Y-90940600D02*
X440335400Y-91144500D01*
X460184000Y-94793600D02*
X460184000Y-96493900D01*
X458833100Y-97844800D02*
X428851700Y-97844800D01*
X460184000Y-96493900D02*
X458833100Y-97844800D01*
X462184000Y-88543600D02*
X462184000Y-90243900D01*
X460833100Y-91594800D02*
X462184000Y-90243900D01*
X429116600Y-91594800D02*
X460833100Y-91594800D01*
X462184000Y-94793600D02*
X462184000Y-96493900D01*
X460382800Y-98295100D02*
X462184000Y-96493900D01*
X436124900Y-98295100D02*
X460382800Y-98295100D01*
X406060000Y-128360000D02*
X436124900Y-98295100D01*
X372720000Y-89691000D02*
X380340000Y-89691000D01*
X158979000Y-242316000D02*
X160167900Y-242316000D01*
X160167900Y-242687600D02*
X160167900Y-242316000D01*
X161504600Y-244024300D02*
X160167900Y-242687600D01*
X206490900Y-243998900D02*
X161504600Y-244024300D01*
X214224600Y-236265200D02*
X206490900Y-243998900D01*
X263960200Y-236290600D02*
X214224600Y-236265200D01*
X265935900Y-234314900D02*
X263960200Y-236290600D01*
X282558700Y-234314900D02*
X265935900Y-234314900D01*
X137307900Y-241944500D02*
X137307900Y-242316000D01*
X139740200Y-239512200D02*
X137307900Y-241944500D01*
X152787900Y-239512200D02*
X139740200Y-239512200D01*
X189497600Y-202802500D02*
X152787900Y-239512200D01*
X302480700Y-202802500D02*
X189497600Y-202802500D01*
X136119000Y-242316000D02*
X137307900Y-242316000D01*
X138659000Y-242316000D02*
X139847900Y-242316000D01*
X304734800Y-155125200D02*
X301339100Y-155125200D01*
X306000000Y-153860000D02*
X304734800Y-155125200D01*
X265936000Y-241934900D02*
X280207600Y-241934900D01*
X264671200Y-243199700D02*
X265936000Y-241934900D01*
X264671200Y-243199800D02*
X264671200Y-243199700D01*
X220004800Y-243199800D02*
X264671200Y-243199800D01*
X216476900Y-246727700D02*
X220004800Y-243199800D01*
X143888000Y-246727700D02*
X216476900Y-246727700D01*
X139847900Y-242687600D02*
X143888000Y-246727700D01*
X139847900Y-242316000D02*
X139847900Y-242687600D01*
X141199000Y-242316000D02*
X142387900Y-242316000D01*
X274541700Y-228239500D02*
X300935500Y-228239500D01*
X271006300Y-231774900D02*
X274541700Y-228239500D01*
X265936000Y-231774900D02*
X271006300Y-231774900D01*
X262805300Y-234905600D02*
X265936000Y-231774900D01*
X262805300Y-234905700D02*
X262805300Y-234905600D01*
X210789400Y-234905700D02*
X262805300Y-234905700D01*
X202158800Y-243536300D02*
X210789400Y-234905700D01*
X163577200Y-243536300D02*
X202158800Y-243536300D01*
X162789000Y-242748100D02*
X163577200Y-243536300D01*
X162789000Y-241893600D02*
X162789000Y-242748100D01*
X162022500Y-241127100D02*
X162789000Y-241893600D01*
X143205200Y-241127100D02*
X162022500Y-241127100D01*
X142387900Y-241944400D02*
X143205200Y-241127100D01*
X142387900Y-242316000D02*
X142387900Y-241944400D01*
X143739000Y-242316000D02*
X144927900Y-242316000D01*
X265936000Y-239394900D02*
X290664600Y-239394900D01*
X263401000Y-241929900D02*
X265936000Y-239394900D01*
X263401000Y-241930000D02*
X263401000Y-241929900D01*
X220000800Y-241930000D02*
X263401000Y-241930000D01*
X215653400Y-246277400D02*
X220000800Y-241930000D01*
X148517800Y-246277400D02*
X215653400Y-246277400D01*
X144927900Y-242687500D02*
X148517800Y-246277400D01*
X144927900Y-242316000D02*
X144927900Y-242687500D01*
X146279000Y-242316000D02*
X147467900Y-242316000D01*
X220004700Y-241289200D02*
X231682900Y-241289200D01*
X215466800Y-245827100D02*
X220004700Y-241289200D01*
X150607500Y-245827100D02*
X215466800Y-245827100D01*
X147467900Y-242687500D02*
X150607500Y-245827100D01*
X147467900Y-242316000D02*
X147467900Y-242687500D01*
X148819000Y-242316000D02*
X150007900Y-242316000D01*
X308835700Y-168824300D02*
X294359500Y-168824300D01*
X321260000Y-156400000D02*
X308835700Y-168824300D01*
X220438400Y-240088700D02*
X231074500Y-240088700D01*
X215150300Y-245376800D02*
X220438400Y-240088700D01*
X152697200Y-245376800D02*
X215150300Y-245376800D01*
X150007900Y-242687500D02*
X152697200Y-245376800D01*
X150007900Y-242316000D02*
X150007900Y-242687500D01*
X151359000Y-242316000D02*
X152547900Y-242316000D01*
X309332500Y-155129900D02*
X296501600Y-167960800D01*
X322530100Y-155129900D02*
X309332500Y-155129900D01*
X323800000Y-153860000D02*
X322530100Y-155129900D01*
X220938800Y-238396300D02*
X234935500Y-238396300D01*
X214408600Y-244926500D02*
X220938800Y-238396300D01*
X154786900Y-244926500D02*
X214408600Y-244926500D01*
X152547900Y-242687500D02*
X154786900Y-244926500D01*
X152547900Y-242316000D02*
X152547900Y-242687500D01*
X157248100Y-244476200D02*
X155087900Y-242316000D01*
X207750900Y-244476200D02*
X157248100Y-244476200D01*
X215204800Y-237022300D02*
X207750900Y-244476200D01*
X235364600Y-237022300D02*
X215204800Y-237022300D01*
X235501400Y-237159100D02*
X235364600Y-237022300D01*
X153899000Y-242316000D02*
X155087900Y-242316000D01*
X301269500Y-151678800D02*
X301269500Y-153758300D01*
X302936700Y-150011600D02*
X301269500Y-151678800D01*
X317411600Y-150011600D02*
X302936700Y-150011600D01*
X321260000Y-153860000D02*
X317411600Y-150011600D01*
X393417100Y-112694100D02*
X337181100Y-112694100D01*
X396242000Y-115519000D02*
X393417100Y-112694100D01*
X398782000Y-115885600D02*
X398782000Y-115519000D01*
X395166600Y-119501000D02*
X398782000Y-115885600D01*
X347872500Y-119501000D02*
X395166600Y-119501000D01*
X321260000Y-146113500D02*
X347872500Y-119501000D01*
X321260000Y-151320000D02*
X321260000Y-146113500D01*
X323800000Y-174180000D02*
X326167600Y-174180000D01*
X323623000Y-171817000D02*
X326012500Y-171817000D01*
X321260000Y-174180000D02*
X323623000Y-171817000D01*
X376584700Y-118875700D02*
X394907500Y-118875700D01*
X372720000Y-115011000D02*
X376584700Y-118875700D01*
X381851600Y-116522600D02*
X394282200Y-116522600D01*
X380340000Y-115011000D02*
X381851600Y-116522600D01*
X372720000Y-99691000D02*
X380340000Y-99691000D01*
X241812600Y-298741200D02*
X180265800Y-298741200D01*
X241958900Y-298887500D02*
X241812600Y-298741200D01*
X419399500Y-298887500D02*
X241958900Y-298887500D01*
X420548000Y-297739000D02*
X419399500Y-298887500D01*
X417974800Y-299991800D02*
X420675000Y-302692000D01*
X190852800Y-299991800D02*
X417974800Y-299991800D01*
X397552600Y-300803600D02*
X174838900Y-300803600D01*
X405308000Y-308559000D02*
X397552600Y-300803600D01*
X131039000Y-201676000D02*
X132227900Y-201676000D01*
X133045200Y-202864900D02*
X137868600Y-202864900D01*
X132227900Y-202047600D02*
X133045200Y-202864900D01*
X132227900Y-201676000D02*
X132227900Y-202047600D01*
X401879600Y-297356400D02*
X405587000Y-293649000D01*
X187127500Y-297356400D02*
X401879600Y-297356400D01*
X464319400Y-285208600D02*
X470052000Y-279476000D01*
X410116400Y-285208600D02*
X464319400Y-285208600D01*
X405867000Y-289458000D02*
X410116400Y-285208600D01*
X471467400Y-307347400D02*
X470038000Y-305918000D01*
X484407400Y-307347400D02*
X471467400Y-307347400D01*
X487956000Y-310896000D02*
X484407400Y-307347400D01*
X486205700Y-287090000D02*
X487164700Y-286131000D01*
X479069000Y-287090000D02*
X486205700Y-287090000D01*
X488340000Y-286131000D02*
X487164700Y-286131000D01*
X350332600Y-86955400D02*
X349404000Y-87884000D01*
X387490200Y-86955400D02*
X350332600Y-86955400D01*
X389638000Y-89103200D02*
X387490200Y-86955400D01*
X467549000Y-293649000D02*
X470216000Y-296316000D01*
X459613000Y-293649000D02*
X467549000Y-293649000D01*
X436429300Y-280797000D02*
X436200300Y-281026000D01*
X439598000Y-280797000D02*
X436429300Y-280797000D01*
X444627000Y-280797000D02*
X439598000Y-280797000D01*
X450113000Y-280797000D02*
X444627000Y-280797000D01*
X435587700Y-281026000D02*
X436200300Y-281026000D01*
X435587700Y-281026000D02*
X434975000Y-281026000D01*
X430891300Y-281026000D02*
X430841300Y-281076000D01*
X434975000Y-281026000D02*
X430891300Y-281026000D01*
X429616000Y-281076000D02*
X430841300Y-281076000D01*
X283033000Y-226924000D02*
X268986000Y-212877000D01*
X309601000Y-226924000D02*
X283033000Y-226924000D01*
X194315400Y-212877000D02*
X266446000Y-212877000D01*
X165247900Y-241944500D02*
X194315400Y-212877000D01*
X165247900Y-242316000D02*
X165247900Y-241944500D01*
X164059000Y-242316000D02*
X165247900Y-242316000D01*
X183410900Y-211606900D02*
X179062700Y-215955100D01*
X267716100Y-211606900D02*
X183410900Y-211606900D01*
X268986000Y-210337000D02*
X267716100Y-211606900D01*
X243889900Y-296854100D02*
X243743900Y-296708100D01*
X392929900Y-296854100D02*
X243889900Y-296854100D01*
X394763000Y-295021000D02*
X392929900Y-296854100D01*
X133579000Y-232156000D02*
X133579000Y-233344900D01*
X249051500Y-295021000D02*
X369443000Y-295021000D01*
X226733800Y-272703300D02*
X249051500Y-295021000D01*
X164001900Y-272703300D02*
X226733800Y-272703300D01*
X134373900Y-243075300D02*
X164001900Y-272703300D01*
X134373900Y-241109200D02*
X134373900Y-243075300D01*
X134767900Y-240715200D02*
X134373900Y-241109200D01*
X134767900Y-234162200D02*
X134767900Y-240715200D01*
X133950600Y-233344900D02*
X134767900Y-234162200D01*
X133579000Y-233344900D02*
X133950600Y-233344900D01*
X369443000Y-302641000D02*
X174550700Y-302641000D01*
M02*
