M48
;DRILL file {KiCad 4.0.6} date 02/21/20 15:01:51
;FORMAT={-:-/ absolute / inch / decimal}
FMAT,2
INCH,TZ
T1C0.016
T2C0.031
T3C0.035
T4C0.039
T5C0.040
T6C0.051
T7C0.055
%
G90
G05
M72
T1
X5.0189Y-6.0028
X5.2538Y-4.203
X5.4279Y-7.9868
X5.5073Y-11.179
X5.5811Y-4.21
X5.6276Y-11.1992
X5.6348Y-10.8297
X5.7532Y-11.2249
X5.7611Y-10.805
X5.7641Y-10.7729
X5.8116Y-10.763
X5.9084Y-10.1532
X5.9773Y-11.1282
X5.9872Y-3.9799
X6.0217Y-6.0975
X6.0316Y-3.9894
X6.0396Y-10.2546
X6.8721Y-11.915
X6.8834Y-11.8427
X7.0497Y-8.5022
X7.0971Y-11.7615
X7.1525Y-5.8587
X7.1549Y-5.8048
X7.2703Y-5.9444
X7.3226Y-11.1459
X7.3672Y-11.7069
X7.3683Y-11.0526
X7.4121Y-9.0248
X7.4831Y-5.8412
X7.5139Y-11.8107
X7.5785Y-10.8712
X7.5935Y-10.7869
X7.6319Y-10.8108
X7.6349Y-6.1731
X7.6446Y-10.868
X7.7893Y-5.9029
X7.7902Y-11.1734
X7.9041Y-4.1999
X8.0991Y-6.1731
X8.59Y-9.9053
X8.7354Y-9.9053
X8.7978Y-9.1209
X8.8628Y-9.0748
X9.0974Y-9.4523
X9.1214Y-9.4996
X9.125Y-9.3569
X9.1917Y-9.7856
X9.2494Y-9.3857
X9.2717Y-9.337
X9.4209Y-9.4076
X9.4629Y-9.2236
X9.51Y-11.7861
X9.5962Y-11.6814
X9.6164Y-8.8739
X9.7139Y-11.4639
X9.981Y-11.7371
X11.0318Y-9.525
X11.1244Y-9.225
X11.4435Y-9.425
X11.589Y-6.6466
X11.6733Y-6.6126
X11.8479Y-8.9858
X11.861Y-6.0535
X11.8637Y-6.1073
X11.9087Y-7.9844
X12.023Y-7.3012
X12.8351Y-6.6466
X12.8351Y-6.7644
X12.8412Y-6.8575
X13.2748Y-4.4368
X15.2383Y-11.0478
X15.3219Y-4.2778
X15.3915Y-4.3905
X15.4255Y-4.6338
X15.4936Y-11.4639
X15.5229Y-4.5875
X15.5475Y-4.6801
X16.2867Y-3.732
X16.6114Y-3.6651
X16.6572Y-3.419
X16.8839Y-3.8522
X16.8944Y-3.6061
X17.328Y-3.5803
X17.3686Y-3.8264
X17.5975Y-3.807
X17.6511Y-3.563
X17.6833Y-3.7914
X17.6834Y-3.5452
X17.8706Y-3.4115
X17.9034Y-3.3467
X18.4017Y-11.2444
T2
X13.7561Y-3.46
X13.7561Y-3.66
X13.7581Y-4.357
X13.7581Y-4.557
X13.8689Y-3.893
X13.8689Y-4.093
X13.9561Y-3.46
X13.9561Y-3.66
X13.9581Y-4.357
X13.9581Y-4.557
X13.9689Y-3.893
X13.9689Y-4.093
X14.0561Y-3.46
X14.0561Y-3.66
X14.0581Y-4.357
X14.0581Y-4.557
X14.0689Y-3.893
X14.0689Y-4.093
X14.1561Y-3.46
X14.1561Y-3.66
X14.1581Y-4.357
X14.1581Y-4.557
X14.2689Y-3.893
X14.2689Y-4.093
X15.3001Y-4.348
X15.3001Y-4.548
X15.3401Y-3.508
X15.3401Y-3.708
X15.5001Y-4.348
X15.5001Y-4.548
X15.5401Y-3.508
X15.5401Y-3.708
X15.6001Y-4.348
X15.6001Y-4.548
X15.6401Y-3.508
X15.6401Y-3.708
X15.7001Y-4.348
X15.7001Y-4.548
X15.7401Y-3.508
X15.7401Y-3.708
X15.957Y-11.722
X15.957Y-12.148
X15.962Y-11.917
X15.968Y-11.561
X15.979Y-11.396
X16.557Y-11.722
X16.557Y-12.148
X16.562Y-11.917
X16.568Y-11.561
X16.579Y-11.396
X18.346Y-11.273
X18.407Y-12.044
X18.414Y-11.666
X18.446Y-11.273
X18.5054Y-12.044
X18.5124Y-11.666
X18.861Y-11.224
X18.861Y-11.3028
T3
X12.061Y-9.176
X12.161Y-9.176
X12.189Y-8.934
X12.289Y-8.934
X12.317Y-9.173
X12.417Y-9.173
X16.744Y-9.126
X16.844Y-9.126
X16.914Y-11.066
X16.914Y-11.466
X17.125Y-11.064
X17.125Y-11.464
X17.307Y-11.055
X17.307Y-11.455
X17.505Y-11.055
X17.505Y-11.455
X17.721Y-11.055
X17.721Y-11.455
X18.106Y-10.403
X18.106Y-11.003
X18.206Y-10.403
X18.206Y-11.003
X18.306Y-10.403
X18.306Y-11.003
X18.406Y-10.403
X18.406Y-11.003
X18.506Y-10.403
X18.506Y-11.003
X18.606Y-10.403
X18.606Y-11.003
X18.706Y-10.403
X18.706Y-11.003
X18.806Y-10.403
X18.806Y-11.003
X18.906Y-10.403
X18.906Y-11.003
X19.006Y-10.403
X19.006Y-11.003
X19.106Y-10.403
X19.106Y-11.003
X19.206Y-10.403
X19.206Y-11.003
X19.306Y-10.403
X19.306Y-11.003
X19.406Y-10.403
X19.406Y-11.003
X19.506Y-10.403
X19.506Y-11.003
T4
X18.17Y-12.124
X18.17Y-12.224
X18.803Y-12.054
X18.803Y-12.154
X19.077Y-12.24
X19.1439Y-12.24
X19.2109Y-12.24
X19.226Y-11.265
X19.2778Y-12.24
X19.326Y-11.265
X19.3447Y-12.24
T5
X5.159Y-7.64
X5.159Y-7.74
X5.159Y-7.84
X5.159Y-7.94
X5.159Y-8.04
X5.159Y-8.14
X5.159Y-8.24
X5.159Y-8.34
X5.159Y-8.44
X5.159Y-8.54
X5.159Y-8.64
X5.159Y-8.74
X5.159Y-8.84
X5.159Y-8.94
X5.159Y-9.04
X5.159Y-9.14
X5.159Y-9.24
X5.159Y-9.34
X5.2307Y-11.0024
X5.2307Y-11.1024
X5.252Y-4.0315
X5.252Y-4.1315
X5.252Y-5.9528
X5.252Y-6.0528
X5.259Y-7.64
X5.259Y-7.74
X5.259Y-7.84
X5.259Y-7.94
X5.259Y-8.04
X5.259Y-8.14
X5.259Y-8.24
X5.259Y-8.34
X5.259Y-8.44
X5.259Y-8.54
X5.259Y-8.64
X5.259Y-8.74
X5.259Y-8.84
X5.259Y-8.94
X5.259Y-9.04
X5.259Y-9.14
X5.259Y-9.24
X5.259Y-9.34
X5.3307Y-11.0024
X5.3307Y-11.1024
X5.352Y-4.0315
X5.352Y-4.1315
X5.352Y-5.9528
X5.352Y-6.0528
X5.359Y-9.54
X5.4307Y-11.0024
X5.4307Y-11.1024
X5.452Y-4.0315
X5.452Y-4.1315
X5.452Y-5.9528
X5.452Y-6.0528
X5.459Y-9.54
X5.5307Y-11.0024
X5.5307Y-11.1024
X5.552Y-4.0315
X5.552Y-4.1315
X5.552Y-5.9528
X5.552Y-6.0528
X5.559Y-7.64
X5.559Y-9.54
X5.6307Y-11.0024
X5.6307Y-11.1024
X5.652Y-4.0315
X5.652Y-4.1315
X5.652Y-5.9528
X5.652Y-6.0528
X5.659Y-7.64
X5.659Y-9.54
X5.7307Y-11.0024
X5.7307Y-11.1024
X5.752Y-4.0315
X5.752Y-4.1315
X5.752Y-5.9528
X5.752Y-6.0528
X5.759Y-7.64
X5.759Y-9.54
X5.8307Y-11.0024
X5.8307Y-11.1024
X5.852Y-4.0315
X5.852Y-4.1315
X5.852Y-5.9528
X5.852Y-6.0528
X5.859Y-7.64
X5.859Y-9.54
X5.959Y-7.64
X5.959Y-9.54
X6.059Y-7.64
X6.059Y-9.54
X6.159Y-7.64
X6.259Y-7.64
X6.259Y-9.54
X6.354Y-8.44
X6.354Y-8.54
X6.354Y-8.64
X6.359Y-9.54
X6.454Y-8.44
X6.454Y-8.54
X6.454Y-8.64
X6.459Y-7.64
X6.459Y-9.54
X6.559Y-7.64
X6.559Y-9.54
X6.659Y-7.64
X6.659Y-9.54
X6.759Y-7.64
X6.759Y-9.54
X6.859Y-7.64
X6.859Y-9.54
X6.959Y-7.64
X6.959Y-9.54
X7.059Y-7.64
X7.159Y-7.64
X7.159Y-9.54
X7.259Y-9.54
X7.319Y-7.64
X7.359Y-9.54
X7.419Y-7.64
X7.4331Y-4.0315
X7.4331Y-4.1315
X7.4331Y-5.9528
X7.4331Y-6.0528
X7.445Y-11.0024
X7.445Y-11.1024
X7.459Y-9.54
X7.519Y-7.64
X7.5331Y-4.0315
X7.5331Y-4.1315
X7.5331Y-5.9528
X7.5331Y-6.0528
X7.545Y-11.0024
X7.545Y-11.1024
X7.559Y-9.54
X7.619Y-7.64
X7.6331Y-4.0315
X7.6331Y-4.1315
X7.6331Y-5.9528
X7.6331Y-6.0528
X7.645Y-11.0024
X7.645Y-11.1024
X7.659Y-9.54
X7.719Y-7.64
X7.7331Y-4.0315
X7.7331Y-4.1315
X7.7331Y-5.9528
X7.7331Y-6.0528
X7.745Y-11.0024
X7.745Y-11.1024
X7.759Y-9.54
X7.819Y-7.64
X7.8331Y-4.0315
X7.8331Y-4.1315
X7.8331Y-5.9528
X7.8331Y-6.0528
X7.845Y-11.0024
X7.845Y-11.1024
X7.859Y-9.54
X7.919Y-7.64
X7.9331Y-4.0315
X7.9331Y-4.1315
X7.9331Y-5.9528
X7.9331Y-6.0528
X7.945Y-11.0024
X7.945Y-11.1024
X8.019Y-7.64
X8.0331Y-4.0315
X8.0331Y-4.1315
X8.0331Y-5.9528
X8.0331Y-6.0528
X8.045Y-11.0024
X8.045Y-11.1024
X8.119Y-7.64
X8.219Y-7.64
X10.49Y-8.181
X10.49Y-8.281
X10.49Y-8.381
X10.4906Y-8.9748
X10.4906Y-9.0748
X10.4906Y-9.1748
X10.4906Y-9.2748
X10.4906Y-9.3748
X10.4906Y-9.4748
X10.4906Y-9.5748
X10.59Y-8.181
X10.59Y-8.281
X10.59Y-8.381
X10.5906Y-8.9748
X10.5906Y-9.0748
X10.5906Y-9.1748
X10.5906Y-9.2748
X10.5906Y-9.3748
X10.5906Y-9.4748
X10.5906Y-9.5748
X11.9472Y-5.9575
X11.9472Y-6.0575
X11.9472Y-6.1575
X12.0472Y-5.9575
X12.0472Y-6.0575
X12.0472Y-6.1575
X12.648Y-5.9575
X12.648Y-6.0575
X12.648Y-6.1575
X12.648Y-6.8575
X12.648Y-6.9575
X12.648Y-7.0575
X12.648Y-7.1575
X12.748Y-5.9575
X12.748Y-6.0575
X12.748Y-6.1575
X12.748Y-6.8575
X12.748Y-6.9575
X12.748Y-7.0575
X12.748Y-7.1575
X15.9866Y-5.0535
X15.9866Y-5.1535
X15.9866Y-5.2535
X15.9866Y-5.3535
X15.9866Y-5.4535
X15.9866Y-5.5535
X15.9866Y-5.6535
X16.0866Y-5.0535
X16.0866Y-5.1535
X16.0866Y-5.2535
X16.0866Y-5.3535
X16.0866Y-5.4535
X16.0866Y-5.5535
X16.0866Y-5.6535
T6
X14.545Y-11.615
X14.545Y-11.915
X14.674Y-3.5311
X14.674Y-3.728
X14.674Y-3.9248
X14.674Y-4.528
X14.974Y-3.5311
X14.974Y-3.728
X14.974Y-3.9248
X14.974Y-4.528
X15.1481Y-11.615
X15.1481Y-11.915
X15.345Y-11.615
X15.345Y-11.915
X15.5419Y-11.615
X15.5419Y-11.915
T7
X18.095Y-11.561
X18.095Y-11.961
T0
M30
