M48
;DRILL file {KiCad 4.0.6} date 02/28/20 07:27:59
;FORMAT={-:-/ absolute / inch / decimal}
FMAT,2
INCH,TZ
T1C0.016
T2C0.031
T3C0.035
T4C0.039
T5C0.040
T6C0.051
T7C0.055
%
G90
G05
M72
T1
X4.9919Y-8.7674
X5.0249Y-8.7197
X5.1245Y-5.704
X5.153Y-5.9528
X5.1985Y-5.5708
X5.6458Y-6.1508
X5.668Y-5.8308
X5.7519Y-10.7507
X5.8602Y-5.7944
X5.8975Y-4.2961
X5.9316Y-4.2435
X5.9502Y-11.1404
X5.9715Y-4.401
X5.9726Y-10.656
X5.9742Y-8.6492
X5.9796Y-6.0528
X5.9813Y-6.1701
X6.0091Y-5.9528
X6.0347Y-11.1122
X6.0375Y-5.7944
X6.0644Y-6.0447
X6.0769Y-8.807
X6.0897Y-9.2372
X6.0915Y-10.7138
X6.1029Y-4.162
X6.1034Y-4.3073
X6.1272Y-8.6563
X6.1312Y-5.9467
X6.2066Y-5.8382
X6.247Y-10.8555
X6.2709Y-11.1024
X6.3342Y-11.315
X6.4259Y-10.6341
X6.4406Y-11.3769
X6.4565Y-5.8838
X6.6387Y-11.7885
X6.6635Y-4.8474
X6.6838Y-4.3588
X6.9194Y-5.2328
X6.9201Y-5.3514
X7.0371Y-6.1509
X7.069Y-5.8603
X7.1036Y-11.2316
X7.1461Y-11.7518
X7.1569Y-4.4399
X7.1771Y-10.7322
X7.2147Y-8.1185
X7.2308Y-5.7579
X7.2556Y-6.2228
X7.2668Y-11.3967
X7.2787Y-5.6956
X7.2787Y-5.9528
X7.2929Y-4.1864
X7.3286Y-5.8969
X7.3895Y-6.294
X7.4536Y-11.915
X7.4728Y-6.2578
X7.4769Y-8.381
X7.4996Y-3.898
X7.5057Y-4.3588
X7.6304Y-12.071
X7.6661Y-4.2984
X7.7196Y-10.7686
X7.7255Y-11.2692
X7.7585Y-10.8595
X7.8104Y-12.0305
X7.8319Y-4.2606
X7.845Y-10.8893
X7.945Y-10.7945
X8.2055Y-5.9143
X8.2516Y-6.0205
X8.2883Y-5.9528
X8.3266Y-5.8219
X8.3924Y-9.393
X8.4652Y-7.6973
X8.5679Y-9.5922
X8.6866Y-8.9182
X8.6894Y-8.5455
X8.7233Y-8.9748
X8.767Y-9.5102
X8.8059Y-9.7433
X8.848Y-9.701
X8.9725Y-9.79
X9.0258Y-9.6363
X9.1449Y-9.817
X9.1453Y-9.9038
X9.2745Y-11.2466
X9.3103Y-9.5102
X9.8644Y-7.6973
X9.9855Y-11.7214
X10.0493Y-9.7396
X10.2241Y-11.8288
X10.298Y-8.5455
X10.3296Y-8.1757
X10.4388Y-12.2051
X11.1934Y-8.83
X11.2698Y-8.9196
X11.2929Y-9.6672
X11.3072Y-8.8832
X11.389Y-8.5467
X11.389Y-8.6115
X11.3941Y-8.6631
X11.4521Y-7.8177
X11.5871Y-8.8011
X11.6121Y-8.7635
X11.8651Y-6.2932
X12.7916Y-5.2328
X13.0161Y-4.557
X13.242Y-4.995
X13.2453Y-4.8793
X13.6249Y-4.1658
X13.6786Y-4.4015
X13.7459Y-4.1691
X14.2519Y-3.7907
X14.8165Y-3.8264
X15.4034Y-10.5404
X15.7787Y-11.4082
X16.0018Y-3.7956
X16.006Y-3.732
X16.1058Y-3.8406
X16.2485Y-12.0305
X16.2752Y-3.8818
X16.31Y-3.9182
X16.5722Y-11.005
X16.7293Y-5.3535
X16.8884Y-3.6238
X16.9876Y-3.5873
X17.6507Y-3.5576
X17.6534Y-11.0025
X17.8025Y-3.4
X17.8719Y-3.3476
X17.9295Y-3.3621
X17.9641Y-3.4
X18.0917Y-11.1378
X18.1528Y-10.5039
X18.3512Y-11.9391
T2
X13.7561Y-3.46
X13.7561Y-3.66
X13.7581Y-4.357
X13.7581Y-4.557
X13.8689Y-3.893
X13.8689Y-4.093
X13.9561Y-3.46
X13.9561Y-3.66
X13.9581Y-4.357
X13.9581Y-4.557
X13.9689Y-3.893
X13.9689Y-4.093
X14.0561Y-3.46
X14.0561Y-3.66
X14.0581Y-4.357
X14.0581Y-4.557
X14.0689Y-3.893
X14.0689Y-4.093
X14.1561Y-3.46
X14.1561Y-3.66
X14.1581Y-4.357
X14.1581Y-4.557
X14.2689Y-3.893
X14.2689Y-4.093
X15.3001Y-4.348
X15.3001Y-4.548
X15.3401Y-3.508
X15.3401Y-3.708
X15.5001Y-4.348
X15.5001Y-4.548
X15.5401Y-3.508
X15.5401Y-3.708
X15.6001Y-4.348
X15.6001Y-4.548
X15.6401Y-3.508
X15.6401Y-3.708
X15.7001Y-4.348
X15.7001Y-4.548
X15.7401Y-3.508
X15.7401Y-3.708
X15.957Y-11.722
X15.957Y-12.148
X15.959Y-10.892
X15.962Y-11.107
X15.962Y-11.917
X15.968Y-11.561
X15.979Y-11.396
X16.557Y-11.722
X16.557Y-12.148
X16.559Y-10.892
X16.562Y-11.107
X16.562Y-11.917
X16.568Y-11.561
X16.579Y-11.396
X18.346Y-11.273
X18.407Y-12.044
X18.414Y-11.666
X18.446Y-11.273
X18.5054Y-12.044
X18.5124Y-11.666
X18.861Y-11.224
X18.861Y-11.3028
T3
X12.061Y-9.176
X12.161Y-9.176
X12.189Y-8.934
X12.289Y-8.934
X12.317Y-9.173
X12.417Y-9.173
X16.744Y-9.126
X16.844Y-9.126
X16.914Y-11.066
X16.914Y-11.466
X17.125Y-11.064
X17.125Y-11.464
X17.307Y-11.055
X17.307Y-11.455
X17.505Y-11.055
X17.505Y-11.455
X17.721Y-11.055
X17.721Y-11.455
X18.106Y-10.403
X18.106Y-11.003
X18.206Y-10.403
X18.206Y-11.003
X18.306Y-10.403
X18.306Y-11.003
X18.406Y-10.403
X18.406Y-11.003
X18.506Y-10.403
X18.506Y-11.003
X18.606Y-10.403
X18.606Y-11.003
X18.706Y-10.403
X18.706Y-11.003
X18.806Y-10.403
X18.806Y-11.003
X18.906Y-10.403
X18.906Y-11.003
X19.006Y-10.403
X19.006Y-11.003
X19.106Y-10.403
X19.106Y-11.003
X19.206Y-10.403
X19.206Y-11.003
X19.306Y-10.403
X19.306Y-11.003
X19.406Y-10.403
X19.406Y-11.003
X19.506Y-10.403
X19.506Y-11.003
T4
X18.17Y-12.124
X18.17Y-12.224
X18.803Y-12.054
X18.803Y-12.154
X19.077Y-12.24
X19.1439Y-12.24
X19.2109Y-12.24
X19.226Y-11.265
X19.2778Y-12.24
X19.326Y-11.265
X19.3447Y-12.24
T5
X5.159Y-7.64
X5.159Y-7.74
X5.159Y-7.84
X5.159Y-7.94
X5.159Y-8.04
X5.159Y-8.14
X5.159Y-8.24
X5.159Y-8.34
X5.159Y-8.44
X5.159Y-8.54
X5.159Y-8.64
X5.159Y-8.74
X5.159Y-8.84
X5.159Y-8.94
X5.159Y-9.04
X5.159Y-9.14
X5.159Y-9.24
X5.159Y-9.34
X5.2307Y-11.0024
X5.2307Y-11.1024
X5.252Y-4.0315
X5.252Y-4.1315
X5.252Y-5.9528
X5.252Y-6.0528
X5.259Y-7.64
X5.259Y-7.74
X5.259Y-7.84
X5.259Y-7.94
X5.259Y-8.04
X5.259Y-8.14
X5.259Y-8.24
X5.259Y-8.34
X5.259Y-8.44
X5.259Y-8.54
X5.259Y-8.64
X5.259Y-8.74
X5.259Y-8.84
X5.259Y-8.94
X5.259Y-9.04
X5.259Y-9.14
X5.259Y-9.24
X5.259Y-9.34
X5.3307Y-11.0024
X5.3307Y-11.1024
X5.352Y-4.0315
X5.352Y-4.1315
X5.352Y-5.9528
X5.352Y-6.0528
X5.359Y-9.54
X5.4307Y-11.0024
X5.4307Y-11.1024
X5.452Y-4.0315
X5.452Y-4.1315
X5.452Y-5.9528
X5.452Y-6.0528
X5.459Y-9.54
X5.5307Y-11.0024
X5.5307Y-11.1024
X5.552Y-4.0315
X5.552Y-4.1315
X5.552Y-5.9528
X5.552Y-6.0528
X5.559Y-7.64
X5.559Y-9.54
X5.6307Y-11.0024
X5.6307Y-11.1024
X5.652Y-4.0315
X5.652Y-4.1315
X5.652Y-5.9528
X5.652Y-6.0528
X5.659Y-7.64
X5.659Y-9.54
X5.7307Y-11.0024
X5.7307Y-11.1024
X5.752Y-4.0315
X5.752Y-4.1315
X5.752Y-5.9528
X5.752Y-6.0528
X5.759Y-7.64
X5.759Y-9.54
X5.8307Y-11.0024
X5.8307Y-11.1024
X5.852Y-4.0315
X5.852Y-4.1315
X5.852Y-5.9528
X5.852Y-6.0528
X5.859Y-7.64
X5.859Y-9.54
X5.959Y-7.64
X5.959Y-9.54
X6.059Y-7.64
X6.059Y-9.54
X6.159Y-7.64
X6.259Y-7.64
X6.259Y-9.54
X6.354Y-8.44
X6.354Y-8.54
X6.354Y-8.64
X6.359Y-9.54
X6.454Y-8.44
X6.454Y-8.54
X6.454Y-8.64
X6.459Y-7.64
X6.459Y-9.54
X6.559Y-7.64
X6.559Y-9.54
X6.659Y-7.64
X6.659Y-9.54
X6.759Y-7.64
X6.759Y-9.54
X6.859Y-7.64
X6.859Y-9.54
X6.959Y-7.64
X6.959Y-9.54
X7.059Y-7.64
X7.159Y-7.64
X7.159Y-9.54
X7.259Y-9.54
X7.319Y-7.64
X7.359Y-9.54
X7.419Y-7.64
X7.4331Y-4.0315
X7.4331Y-4.1315
X7.4331Y-5.9528
X7.4331Y-6.0528
X7.445Y-11.0024
X7.445Y-11.1024
X7.459Y-9.54
X7.519Y-7.64
X7.5331Y-4.0315
X7.5331Y-4.1315
X7.5331Y-5.9528
X7.5331Y-6.0528
X7.545Y-11.0024
X7.545Y-11.1024
X7.559Y-9.54
X7.619Y-7.64
X7.6331Y-4.0315
X7.6331Y-4.1315
X7.6331Y-5.9528
X7.6331Y-6.0528
X7.645Y-11.0024
X7.645Y-11.1024
X7.659Y-9.54
X7.719Y-7.64
X7.7331Y-4.0315
X7.7331Y-4.1315
X7.7331Y-5.9528
X7.7331Y-6.0528
X7.745Y-11.0024
X7.745Y-11.1024
X7.759Y-9.54
X7.819Y-7.64
X7.8331Y-4.0315
X7.8331Y-4.1315
X7.8331Y-5.9528
X7.8331Y-6.0528
X7.845Y-11.0024
X7.845Y-11.1024
X7.859Y-9.54
X7.919Y-7.64
X7.9331Y-4.0315
X7.9331Y-4.1315
X7.9331Y-5.9528
X7.9331Y-6.0528
X7.945Y-11.0024
X7.945Y-11.1024
X8.019Y-7.64
X8.0331Y-4.0315
X8.0331Y-4.1315
X8.0331Y-5.9528
X8.0331Y-6.0528
X8.045Y-11.0024
X8.045Y-11.1024
X8.119Y-7.64
X8.219Y-7.64
X10.49Y-8.181
X10.49Y-8.281
X10.49Y-8.381
X10.4906Y-8.9748
X10.4906Y-9.0748
X10.4906Y-9.1748
X10.4906Y-9.2748
X10.4906Y-9.3748
X10.4906Y-9.4748
X10.4906Y-9.5748
X10.59Y-8.181
X10.59Y-8.281
X10.59Y-8.381
X10.5906Y-8.9748
X10.5906Y-9.0748
X10.5906Y-9.1748
X10.5906Y-9.2748
X10.5906Y-9.3748
X10.5906Y-9.4748
X10.5906Y-9.5748
X11.9472Y-5.9575
X11.9472Y-6.0575
X11.9472Y-6.1575
X12.0472Y-5.9575
X12.0472Y-6.0575
X12.0472Y-6.1575
X12.648Y-5.9575
X12.648Y-6.0575
X12.648Y-6.1575
X12.648Y-6.8575
X12.648Y-6.9575
X12.648Y-7.0575
X12.648Y-7.1575
X12.748Y-5.9575
X12.748Y-6.0575
X12.748Y-6.1575
X12.748Y-6.8575
X12.748Y-6.9575
X12.748Y-7.0575
X12.748Y-7.1575
X15.9866Y-5.0535
X15.9866Y-5.1535
X15.9866Y-5.2535
X15.9866Y-5.3535
X15.9866Y-5.4535
X15.9866Y-5.5535
X15.9866Y-5.6535
X16.0866Y-5.0535
X16.0866Y-5.1535
X16.0866Y-5.2535
X16.0866Y-5.3535
X16.0866Y-5.4535
X16.0866Y-5.5535
X16.0866Y-5.6535
T6
X14.545Y-11.615
X14.545Y-11.915
X14.674Y-3.5311
X14.674Y-3.728
X14.674Y-3.9248
X14.674Y-4.528
X14.974Y-3.5311
X14.974Y-3.728
X14.974Y-3.9248
X14.974Y-4.528
X15.1481Y-11.615
X15.1481Y-11.915
X15.345Y-11.615
X15.345Y-11.915
X15.5419Y-11.615
X15.5419Y-11.915
T7
X18.095Y-11.561
X18.095Y-11.961
T0
M30
