G04 #@! TF.FileFunction,Copper,L2,Bot,Signal*
%FSLAX46Y46*%
G04 Gerber Fmt 4.6, Leading zero omitted, Abs format (unit mm)*
G04 Created by KiCad (PCBNEW 4.0.6) date 02/28/20 07:27:54*
%MOMM*%
%LPD*%
G01*
G04 APERTURE LIST*
%ADD10C,0.100000*%
%ADD11O,1.727200X1.727200*%
%ADD12C,1.879600*%
%ADD13R,1.600000X1.600000*%
%ADD14C,1.600000*%
%ADD15R,1.800000X1.800000*%
%ADD16C,1.800000*%
%ADD17O,1.800000X1.800000*%
%ADD18R,2.800000X2.800000*%
%ADD19O,2.800000X2.800000*%
%ADD20R,1.200000X1.200000*%
%ADD21C,1.200000*%
%ADD22R,1.700000X1.700000*%
%ADD23O,1.700000X1.700000*%
%ADD24R,1.350000X1.350000*%
%ADD25O,1.350000X1.350000*%
%ADD26C,3.000000*%
%ADD27R,1.350000X1.800000*%
%ADD28O,1.350000X1.800000*%
%ADD29O,1.600000X1.600000*%
%ADD30C,0.600000*%
%ADD31C,0.250000*%
G04 APERTURE END LIST*
D10*
D11*
X163932000Y-219456000D03*
X161392000Y-219456000D03*
X161392000Y-216916000D03*
X163932000Y-216916000D03*
X161392000Y-214376000D03*
X176759000Y-242316000D03*
X181839000Y-242316000D03*
X184379000Y-242316000D03*
X186919000Y-242316000D03*
X189459000Y-242316000D03*
X191999000Y-242316000D03*
X194539000Y-242316000D03*
X197079000Y-242316000D03*
X141199000Y-194056000D03*
X143739000Y-194056000D03*
X146279000Y-194056000D03*
X148819000Y-194056000D03*
X151359000Y-194056000D03*
X153899000Y-194056000D03*
X156439000Y-194056000D03*
X158979000Y-194056000D03*
X164059000Y-194056000D03*
X166599000Y-194056000D03*
X169139000Y-194056000D03*
X171679000Y-194056000D03*
X174219000Y-194056000D03*
X176759000Y-194056000D03*
X179299000Y-194056000D03*
X181839000Y-194056000D03*
X201143000Y-194056000D03*
X185903000Y-194056000D03*
X188443000Y-194056000D03*
X190983000Y-194056000D03*
X208763000Y-194056000D03*
X206223000Y-194056000D03*
X203683000Y-194056000D03*
X198603000Y-194056000D03*
X196063000Y-194056000D03*
X193523000Y-194056000D03*
X199619000Y-242316000D03*
X174219000Y-242316000D03*
X171679000Y-242316000D03*
X169139000Y-242316000D03*
X166599000Y-242316000D03*
X164059000Y-242316000D03*
X161519000Y-242316000D03*
X158979000Y-242316000D03*
X153899000Y-242316000D03*
X151359000Y-242316000D03*
X148819000Y-242316000D03*
X146279000Y-242316000D03*
X143739000Y-242316000D03*
X141199000Y-242316000D03*
X138659000Y-242316000D03*
X136119000Y-242316000D03*
X133579000Y-194056000D03*
X131039000Y-194056000D03*
X133579000Y-196596000D03*
X131039000Y-196596000D03*
X133579000Y-199136000D03*
X131039000Y-199136000D03*
X133579000Y-201676000D03*
X131039000Y-201676000D03*
X133579000Y-204216000D03*
X131039000Y-204216000D03*
X133579000Y-206756000D03*
X131039000Y-206756000D03*
X133579000Y-209296000D03*
X131039000Y-209296000D03*
X133579000Y-211836000D03*
X131039000Y-211836000D03*
X133579000Y-214376000D03*
X131039000Y-214376000D03*
X133579000Y-216916000D03*
X131039000Y-216916000D03*
X133579000Y-219456000D03*
X131039000Y-219456000D03*
X133579000Y-221996000D03*
X131039000Y-221996000D03*
X133579000Y-224536000D03*
X131039000Y-224536000D03*
X133579000Y-227076000D03*
X131039000Y-227076000D03*
X133579000Y-229616000D03*
X131039000Y-229616000D03*
X133579000Y-232156000D03*
X131039000Y-232156000D03*
X133579000Y-234696000D03*
X131039000Y-234696000D03*
X133579000Y-237236000D03*
X131039000Y-237236000D03*
X163932000Y-214376000D03*
D12*
X133400000Y-102400000D03*
X133400000Y-104940000D03*
X135940000Y-102400000D03*
X135940000Y-104940000D03*
X138480000Y-102400000D03*
X138480000Y-104940000D03*
X141020000Y-102400000D03*
X141020000Y-104940000D03*
X143560000Y-102400000D03*
X143560000Y-104940000D03*
X146100000Y-102400000D03*
X146100000Y-104940000D03*
X148640000Y-102400000D03*
X148640000Y-104940000D03*
X188800000Y-102400000D03*
X188800000Y-104940000D03*
X191340000Y-102400000D03*
X191340000Y-104940000D03*
X193880000Y-102400000D03*
X193880000Y-104940000D03*
X196420000Y-102400000D03*
X196420000Y-104940000D03*
X198960000Y-102400000D03*
X198960000Y-104940000D03*
X201500000Y-102400000D03*
X201500000Y-104940000D03*
X204040000Y-102400000D03*
X204040000Y-104940000D03*
X188800000Y-151200000D03*
X188800000Y-153740000D03*
X191340000Y-151200000D03*
X191340000Y-153740000D03*
X193880000Y-151200000D03*
X193880000Y-153740000D03*
X196420000Y-151200000D03*
X196420000Y-153740000D03*
X198960000Y-151200000D03*
X198960000Y-153740000D03*
X201500000Y-151200000D03*
X201500000Y-153740000D03*
X204040000Y-151200000D03*
X204040000Y-153740000D03*
X133400000Y-151200000D03*
X133400000Y-153740000D03*
X135940000Y-151200000D03*
X135940000Y-153740000D03*
X138480000Y-151200000D03*
X138480000Y-153740000D03*
X141020000Y-151200000D03*
X141020000Y-153740000D03*
X143560000Y-151200000D03*
X143560000Y-153740000D03*
X146100000Y-151200000D03*
X146100000Y-153740000D03*
X148640000Y-151200000D03*
X148640000Y-153740000D03*
X148100000Y-282000000D03*
X148100000Y-279460000D03*
X145560000Y-282000000D03*
X145560000Y-279460000D03*
X143020000Y-282000000D03*
X143020000Y-279460000D03*
X140480000Y-282000000D03*
X140480000Y-279460000D03*
X137940000Y-282000000D03*
X137940000Y-279460000D03*
X135400000Y-282000000D03*
X135400000Y-279460000D03*
X132860000Y-282000000D03*
X132860000Y-279460000D03*
X204343000Y-282000000D03*
X204343000Y-279460000D03*
X201803000Y-282000000D03*
X201803000Y-279460000D03*
X199263000Y-282000000D03*
X199263000Y-279460000D03*
X196723000Y-282000000D03*
X196723000Y-279460000D03*
X194183000Y-282000000D03*
X194183000Y-279460000D03*
X191643000Y-282000000D03*
X191643000Y-279460000D03*
X189103000Y-282000000D03*
X189103000Y-279460000D03*
X269000000Y-243200000D03*
X266460000Y-243200000D03*
X269000000Y-240660000D03*
X266460000Y-240660000D03*
X269000000Y-238120000D03*
X266460000Y-238120000D03*
X269000000Y-235580000D03*
X266460000Y-235580000D03*
X269000000Y-233040000D03*
X266460000Y-233040000D03*
X269000000Y-230500000D03*
X266460000Y-230500000D03*
X269000000Y-227960000D03*
X266460000Y-227960000D03*
X408600000Y-143600000D03*
X406060000Y-143600000D03*
X408600000Y-141060000D03*
X406060000Y-141060000D03*
X408600000Y-138520000D03*
X406060000Y-138520000D03*
X408600000Y-135980000D03*
X406060000Y-135980000D03*
X408600000Y-133440000D03*
X406060000Y-133440000D03*
X408600000Y-130900000D03*
X406060000Y-130900000D03*
X408600000Y-128360000D03*
X406060000Y-128360000D03*
X323800000Y-156400000D03*
X321260000Y-156400000D03*
X323800000Y-153860000D03*
X321260000Y-153860000D03*
X323800000Y-151320000D03*
X321260000Y-151320000D03*
X306000000Y-156400000D03*
X303460000Y-156400000D03*
X306000000Y-153860000D03*
X303460000Y-153860000D03*
X306000000Y-151320000D03*
X303460000Y-151320000D03*
X323800000Y-181800000D03*
X321260000Y-181800000D03*
X323800000Y-179260000D03*
X321260000Y-179260000D03*
X323800000Y-176720000D03*
X321260000Y-176720000D03*
X323800000Y-174180000D03*
X321260000Y-174180000D03*
D13*
X467538000Y-305918000D03*
D14*
X470038000Y-305918000D03*
D13*
X467716000Y-296316000D03*
D14*
X470216000Y-296316000D03*
D15*
X312852000Y-232995000D03*
D16*
X315392000Y-232995000D03*
D15*
X429616000Y-291236000D03*
D17*
X429616000Y-281076000D03*
D15*
X434975000Y-291186000D03*
D17*
X434975000Y-281026000D03*
D15*
X450113000Y-290957000D03*
D17*
X450113000Y-280797000D03*
D15*
X444627000Y-290957000D03*
D17*
X444627000Y-280797000D03*
D15*
X425298000Y-231800000D03*
D16*
X427838000Y-231800000D03*
D18*
X459613000Y-303809000D03*
D19*
X459613000Y-293649000D03*
D15*
X439598000Y-290957000D03*
D17*
X439598000Y-280797000D03*
D15*
X309601000Y-226924000D03*
D16*
X312141000Y-226924000D03*
D15*
X306350000Y-233071000D03*
D16*
X308890000Y-233071000D03*
D20*
X388622000Y-115519000D03*
D21*
X388622000Y-110439000D03*
X393702000Y-115519000D03*
X398782000Y-110439000D03*
X396242000Y-115519000D03*
X398782000Y-115519000D03*
X393702000Y-110439000D03*
X396242000Y-110439000D03*
D20*
X349455000Y-115748000D03*
D21*
X349455000Y-110668000D03*
X354535000Y-115748000D03*
X359615000Y-110668000D03*
X357075000Y-115748000D03*
X359615000Y-115748000D03*
X354535000Y-110668000D03*
X357075000Y-110668000D03*
D20*
X362431000Y-98882000D03*
D21*
X362431000Y-103962000D03*
X357351000Y-98882000D03*
X352271000Y-103962000D03*
X354811000Y-98882000D03*
X352271000Y-98882000D03*
X357351000Y-103962000D03*
X354811000Y-103962000D03*
D20*
X349404000Y-92964000D03*
D21*
X349404000Y-87884000D03*
X354484000Y-92964000D03*
X359564000Y-87884000D03*
X357024000Y-92964000D03*
X359564000Y-92964000D03*
X354484000Y-87884000D03*
X357024000Y-87884000D03*
D20*
X389638000Y-94183200D03*
D21*
X389638000Y-89103200D03*
X394718000Y-94183200D03*
X399798000Y-89103200D03*
X397258000Y-94183200D03*
X399798000Y-94183200D03*
X394718000Y-89103200D03*
X397258000Y-89103200D03*
D22*
X477596000Y-306172000D03*
D23*
X477596000Y-308712000D03*
D15*
X459892000Y-279476000D03*
D16*
X462432000Y-279476000D03*
X464972000Y-279476000D03*
X467512000Y-279476000D03*
X470052000Y-279476000D03*
X472592000Y-279476000D03*
X475132000Y-279476000D03*
X477672000Y-279476000D03*
X480212000Y-279476000D03*
X482752000Y-279476000D03*
X485292000Y-279476000D03*
X487832000Y-279476000D03*
X490372000Y-279476000D03*
X492912000Y-279476000D03*
X495452000Y-279476000D03*
X495452000Y-264236000D03*
X492912000Y-264236000D03*
X490372000Y-264236000D03*
X487832000Y-264236000D03*
X485292000Y-264236000D03*
X482752000Y-264236000D03*
X480212000Y-264236000D03*
X477672000Y-264236000D03*
X475132000Y-264236000D03*
X472592000Y-264236000D03*
X470052000Y-264236000D03*
X467512000Y-264236000D03*
X464972000Y-264236000D03*
X462432000Y-264236000D03*
X459892000Y-264236000D03*
D24*
X479069000Y-285090000D03*
D25*
X479069000Y-287090000D03*
D26*
X372720000Y-115011000D03*
X380340000Y-115011000D03*
X372720000Y-94691000D03*
X380340000Y-89691000D03*
X380340000Y-99691000D03*
X372720000Y-99691000D03*
X380340000Y-94691000D03*
X372720000Y-89691000D03*
D27*
X484556000Y-310896000D03*
D28*
X486256000Y-310896000D03*
X487956000Y-310896000D03*
X489656000Y-310896000D03*
X491356000Y-310896000D03*
D22*
X490880000Y-286131000D03*
D23*
X488340000Y-286131000D03*
D14*
X465988000Y-286334000D03*
D29*
X468528000Y-286334000D03*
D22*
X461518000Y-307950000D03*
D23*
X461518000Y-310490000D03*
D14*
X405308000Y-308559000D03*
D29*
X420548000Y-308559000D03*
D14*
X405587000Y-293649000D03*
D29*
X420827000Y-293649000D03*
D14*
X405867000Y-289458000D03*
D29*
X421107000Y-289458000D03*
D14*
X420675000Y-302692000D03*
D29*
X405435000Y-302692000D03*
D14*
X420548000Y-297739000D03*
D29*
X405308000Y-297739000D03*
D12*
X268986000Y-212877000D03*
X266446000Y-212877000D03*
X268986000Y-210337000D03*
X266446000Y-210337000D03*
X268986000Y-207797000D03*
X266446000Y-207797000D03*
D26*
X369443000Y-295021000D03*
X369443000Y-302641000D03*
X389763000Y-295021000D03*
X394763000Y-302641000D03*
X384763000Y-302641000D03*
X384763000Y-295021000D03*
X389763000Y-302641000D03*
X394763000Y-295021000D03*
D14*
X405435000Y-282118000D03*
D29*
X420675000Y-282118000D03*
D14*
X405359000Y-276657000D03*
D29*
X420599000Y-276657000D03*
D30*
X459528600Y-282900500D03*
X265144400Y-310010400D03*
X181510600Y-298495800D03*
X175751500Y-132911900D03*
X127631900Y-221480000D03*
X330610200Y-115748000D03*
X289280300Y-217085200D03*
X361997500Y-96284600D03*
X169251800Y-123123100D03*
X126794100Y-222692900D03*
X466121000Y-303253300D03*
X376340000Y-97191000D03*
X175771700Y-135924800D03*
X155631900Y-219870200D03*
X259691100Y-300452700D03*
X255253000Y-247386300D03*
X286840500Y-245546900D03*
X232290700Y-251555700D03*
X235571500Y-285663400D03*
X400779300Y-289769200D03*
X130885300Y-151200000D03*
X184878300Y-151200000D03*
X132042300Y-141499000D03*
X184878300Y-144669300D03*
X163591400Y-288973700D03*
X227900900Y-248666500D03*
X223671100Y-247480700D03*
X187693300Y-159868400D03*
X160888600Y-287401800D03*
X186145300Y-149780700D03*
X236481000Y-241559400D03*
X222682800Y-241559400D03*
X183663200Y-146251600D03*
X130162400Y-144882700D03*
X201803000Y-274181100D03*
X146098700Y-273068900D03*
X182298800Y-272598200D03*
X185239800Y-106333400D03*
X181785400Y-112773700D03*
X184292400Y-158060100D03*
X189809300Y-158949000D03*
X180432400Y-285282200D03*
X163994600Y-149448900D03*
X190489800Y-99009800D03*
X179552800Y-148852600D03*
X199263000Y-276588500D03*
X154034600Y-153536100D03*
X150662600Y-107784500D03*
X229254400Y-244763000D03*
X224738000Y-246405600D03*
X157647900Y-148290000D03*
X143966400Y-148102300D03*
X232281600Y-249351200D03*
X196227600Y-286237600D03*
X197067100Y-275830600D03*
X143402800Y-156230500D03*
X190645800Y-110714200D03*
X178742500Y-156232500D03*
X169769500Y-110714200D03*
X155013000Y-105713700D03*
X155731300Y-151046200D03*
X250555200Y-195511800D03*
X215015300Y-195511800D03*
X184577100Y-289475300D03*
X196078500Y-273523500D03*
X194719800Y-109180200D03*
X155027500Y-109405800D03*
X151924200Y-156721200D03*
X217625500Y-243641800D03*
X211495900Y-147875400D03*
X151136200Y-282965100D03*
X148848000Y-147176900D03*
X153351800Y-147176900D03*
X261570000Y-217055300D03*
X220710300Y-217055300D03*
X154724200Y-272130300D03*
X158674500Y-275730400D03*
X198929200Y-108220000D03*
X208420600Y-150223400D03*
X213168100Y-238581800D03*
X149795600Y-109122200D03*
X210523600Y-151200000D03*
X220640300Y-226521400D03*
X152632000Y-151200000D03*
X151703200Y-270662800D03*
X159281800Y-282000000D03*
X209591500Y-152921000D03*
X153282600Y-282249500D03*
X221571500Y-227960000D03*
X151881700Y-153740000D03*
X151676200Y-111785700D03*
X453947000Y-85028700D03*
X406553100Y-94793600D03*
X452183900Y-86359600D03*
X406445800Y-96407000D03*
X448328100Y-90364000D03*
X409088000Y-97552400D03*
X424924700Y-135980000D03*
X456288700Y-86360100D03*
X413391100Y-98597200D03*
X455408300Y-85396500D03*
X414273200Y-99522600D03*
X431485900Y-91118300D03*
X428966300Y-92044500D03*
X448397000Y-279462300D03*
X301373500Y-159846200D03*
X286253200Y-226559100D03*
X287202600Y-225632500D03*
X290882200Y-198570800D03*
X151745800Y-219689100D03*
X284312200Y-224282200D03*
X289409500Y-220041800D03*
X262372100Y-207662400D03*
X154352900Y-223697200D03*
X294947100Y-222594000D03*
X294313500Y-223547500D03*
X289280300Y-218730900D03*
X154679300Y-234624900D03*
X324906600Y-132911900D03*
X347435800Y-111799000D03*
X346073000Y-105812200D03*
X349146400Y-105894500D03*
X336347600Y-126871800D03*
X336431600Y-123933800D03*
X391245600Y-267725500D03*
X420934600Y-279528100D03*
X412712100Y-305574900D03*
X198384300Y-305574900D03*
X168622000Y-299427200D03*
X193812100Y-306603100D03*
X163216700Y-270106300D03*
X461080800Y-266800200D03*
X189913600Y-212877000D03*
X183253800Y-206210800D03*
X253632500Y-297723800D03*
X189320200Y-302641000D03*
D31*
X389763000Y-302641000D02*
X389763000Y-295021000D01*
X466140000Y-307343300D02*
X467538000Y-307343300D01*
X462993300Y-310490000D02*
X466140000Y-307343300D01*
X461518000Y-310490000D02*
X462993300Y-310490000D01*
X484556000Y-287738700D02*
X484556000Y-310896000D01*
X487647400Y-284647300D02*
X484556000Y-287738700D01*
X489396300Y-284647300D02*
X487647400Y-284647300D01*
X490880000Y-286131000D02*
X489396300Y-284647300D01*
X467538000Y-305918000D02*
X467538000Y-306383900D01*
X467538000Y-306383900D02*
X467538000Y-307343300D01*
X458343000Y-265785000D02*
X459892000Y-264236000D01*
X458343000Y-280653500D02*
X458343000Y-265785000D01*
X459664700Y-281975200D02*
X458343000Y-280653500D01*
X459926200Y-281975200D02*
X459664700Y-281975200D01*
X463309700Y-285358700D02*
X459926200Y-281975200D01*
X463309700Y-302155600D02*
X463309700Y-285358700D01*
X467538000Y-306383900D02*
X463309700Y-302155600D01*
X467716000Y-296316000D02*
X467716000Y-294890700D01*
X468528000Y-294078700D02*
X468528000Y-286334000D01*
X467716000Y-294890700D02*
X468528000Y-294078700D01*
X392254600Y-106605600D02*
X380340000Y-94691000D01*
X392254600Y-123712900D02*
X392254600Y-106605600D01*
X393004900Y-124463200D02*
X392254600Y-123712900D01*
X393004900Y-134263100D02*
X393004900Y-124463200D01*
X432459100Y-173717300D02*
X393004900Y-134263100D01*
X432459100Y-255831000D02*
X432459100Y-173717300D01*
X459528600Y-282900500D02*
X432459100Y-255831000D01*
X315392000Y-233232700D02*
X315392000Y-232995000D01*
X300781700Y-247843000D02*
X315392000Y-233232700D01*
X257085400Y-247843000D02*
X300781700Y-247843000D01*
X252300700Y-243058300D02*
X257085400Y-247843000D01*
X238659000Y-243058300D02*
X252300700Y-243058300D01*
X234041200Y-247676100D02*
X238659000Y-243058300D01*
X234041200Y-277071400D02*
X234041200Y-247676100D01*
X245079000Y-288109200D02*
X234041200Y-277071400D01*
X245401700Y-288109200D02*
X245079000Y-288109200D01*
X265144400Y-307851900D02*
X245401700Y-288109200D01*
X265144400Y-310010400D02*
X265144400Y-307851900D01*
X429616000Y-291236000D02*
X429616000Y-289710700D01*
X388622000Y-115519000D02*
X388622000Y-116744300D01*
X388622000Y-124324700D02*
X388622000Y-116744300D01*
X390003700Y-125706400D02*
X388622000Y-124324700D01*
X390003700Y-178326700D02*
X390003700Y-125706400D01*
X429424300Y-217747300D02*
X390003700Y-178326700D01*
X429424300Y-232853100D02*
X429424300Y-217747300D01*
X428047100Y-234230300D02*
X429424300Y-232853100D01*
X428047100Y-288141800D02*
X428047100Y-234230300D01*
X429616000Y-289710700D02*
X428047100Y-288141800D01*
X131039000Y-230050200D02*
X131039000Y-229616000D01*
X128063400Y-233025800D02*
X131039000Y-230050200D01*
X128063400Y-243548500D02*
X128063400Y-233025800D01*
X153695800Y-269180900D02*
X128063400Y-243548500D01*
X163653000Y-269180900D02*
X153695800Y-269180900D01*
X164316800Y-269844700D02*
X163653000Y-269180900D01*
X164316800Y-281302000D02*
X164316800Y-269844700D01*
X181510600Y-298495800D02*
X164316800Y-281302000D01*
X361060600Y-97511600D02*
X362431000Y-98882000D01*
X361060600Y-95909500D02*
X361060600Y-97511600D01*
X361635200Y-95334900D02*
X361060600Y-95909500D01*
X364458600Y-95334900D02*
X361635200Y-95334900D01*
X376826300Y-107702600D02*
X364458600Y-95334900D01*
X387689300Y-107702600D02*
X376826300Y-107702600D01*
X390003700Y-110017000D02*
X387689300Y-107702600D01*
X390003700Y-124645300D02*
X390003700Y-110017000D01*
X390754000Y-125395600D02*
X390003700Y-124645300D01*
X390754000Y-177674800D02*
X390754000Y-125395600D01*
X430208100Y-217128900D02*
X390754000Y-177674800D01*
X430208100Y-278416400D02*
X430208100Y-217128900D01*
X434975000Y-283183300D02*
X430208100Y-278416400D01*
X434975000Y-291186000D02*
X434975000Y-283183300D01*
X127631900Y-192080900D02*
X127631900Y-221480000D01*
X159148300Y-160564500D02*
X127631900Y-192080900D01*
X159148300Y-151239300D02*
X159148300Y-160564500D01*
X175751500Y-134636100D02*
X159148300Y-151239300D01*
X175751500Y-132911900D02*
X175751500Y-134636100D01*
X349455000Y-115748000D02*
X350680300Y-115748000D01*
X450113000Y-290957000D02*
X448587700Y-290957000D01*
X353579500Y-112848800D02*
X350680300Y-115748000D01*
X373630700Y-112848800D02*
X353579500Y-112848800D01*
X374845400Y-114063500D02*
X373630700Y-112848800D01*
X374845400Y-114792500D02*
X374845400Y-114063500D01*
X387002500Y-126949600D02*
X374845400Y-114792500D01*
X387002500Y-254211800D02*
X387002500Y-126949600D01*
X417591000Y-284800300D02*
X387002500Y-254211800D01*
X417591000Y-293572900D02*
X417591000Y-284800300D01*
X419892700Y-295874600D02*
X417591000Y-293572900D01*
X443670100Y-295874600D02*
X419892700Y-295874600D01*
X448587700Y-290957000D02*
X443670100Y-295874600D01*
X289280300Y-203078600D02*
X289280300Y-217085200D01*
X309179800Y-183179100D02*
X289280300Y-203078600D01*
X309179800Y-137178400D02*
X309179800Y-183179100D01*
X330610200Y-115748000D02*
X309179800Y-137178400D01*
X444627000Y-290957000D02*
X443101700Y-290957000D01*
X375595700Y-109882800D02*
X361997500Y-96284600D01*
X375595700Y-114481700D02*
X375595700Y-109882800D01*
X387752800Y-126638800D02*
X375595700Y-114481700D01*
X387752800Y-250563000D02*
X387752800Y-126638800D01*
X418729200Y-281539400D02*
X387752800Y-250563000D01*
X418729200Y-293581300D02*
X418729200Y-281539400D01*
X420270400Y-295122500D02*
X418729200Y-293581300D01*
X438936200Y-295122500D02*
X420270400Y-295122500D01*
X443101700Y-290957000D02*
X438936200Y-295122500D01*
X126706600Y-222605400D02*
X126794100Y-222692900D01*
X126706600Y-183306000D02*
X126706600Y-222605400D01*
X158132600Y-151880000D02*
X126706600Y-183306000D01*
X158132600Y-150818900D02*
X158132600Y-151880000D01*
X169251800Y-139699700D02*
X158132600Y-150818900D01*
X169251800Y-123123100D02*
X169251800Y-139699700D01*
X427296700Y-285754000D02*
X420827000Y-292223700D01*
X427296700Y-232341300D02*
X427296700Y-285754000D01*
X427838000Y-231800000D02*
X427296700Y-232341300D01*
X420827000Y-293649000D02*
X420827000Y-292223700D01*
X486256000Y-310896000D02*
X486256000Y-312421300D01*
X465988000Y-303120300D02*
X466121000Y-303253300D01*
X465988000Y-286334000D02*
X465988000Y-303120300D01*
X469543000Y-303253300D02*
X466121000Y-303253300D01*
X478711000Y-312421300D02*
X469543000Y-303253300D01*
X486256000Y-312421300D02*
X478711000Y-312421300D01*
X376340000Y-98776600D02*
X376340000Y-97191000D01*
X384250600Y-106687200D02*
X376340000Y-98776600D01*
X387735000Y-106687200D02*
X384250600Y-106687200D01*
X390754000Y-109706200D02*
X387735000Y-106687200D01*
X390754000Y-124334500D02*
X390754000Y-109706200D01*
X391504300Y-125084800D02*
X390754000Y-124334500D01*
X391504300Y-177090700D02*
X391504300Y-125084800D01*
X430958500Y-216544900D02*
X391504300Y-177090700D01*
X430958500Y-274314800D02*
X430958500Y-216544900D01*
X439598000Y-282954300D02*
X430958500Y-274314800D01*
X439598000Y-290957000D02*
X439598000Y-282954300D01*
X160768700Y-150927800D02*
X175771700Y-135924800D01*
X160768700Y-203889900D02*
X160768700Y-150927800D01*
X155631900Y-209026700D02*
X160768700Y-203889900D01*
X155631900Y-219870200D02*
X155631900Y-209026700D01*
X255253000Y-247338100D02*
X255253000Y-247386300D01*
X251723500Y-243808600D02*
X255253000Y-247338100D01*
X238969800Y-243808600D02*
X251723500Y-243808600D01*
X234791500Y-247986900D02*
X238969800Y-243808600D01*
X234791500Y-276760600D02*
X234791500Y-247986900D01*
X244321300Y-286290400D02*
X234791500Y-276760600D01*
X245528800Y-286290400D02*
X244321300Y-286290400D01*
X259691100Y-300452700D02*
X245528800Y-286290400D01*
X400779300Y-291785000D02*
X405308000Y-296313700D01*
X400779300Y-289769200D02*
X400779300Y-291785000D01*
X405308000Y-297739000D02*
X405308000Y-296313700D01*
X296611500Y-245546900D02*
X286840500Y-245546900D01*
X308890000Y-233268400D02*
X296611500Y-245546900D01*
X308890000Y-233071000D02*
X308890000Y-233268400D01*
X232290700Y-282382600D02*
X232290700Y-251555700D01*
X235571500Y-285663400D02*
X232290700Y-282382600D01*
X228826200Y-257516800D02*
X204343000Y-282000000D01*
X228826200Y-248646700D02*
X228826200Y-257516800D01*
X235555700Y-241917200D02*
X228826200Y-248646700D01*
X235555700Y-241176200D02*
X235555700Y-241917200D01*
X236674800Y-240057100D02*
X235555700Y-241176200D01*
X261038700Y-240057100D02*
X236674800Y-240057100D01*
X265779200Y-244797600D02*
X261038700Y-240057100D01*
X267402400Y-244797600D02*
X265779200Y-244797600D01*
X269000000Y-243200000D02*
X267402400Y-244797600D01*
X187957300Y-141590300D02*
X184878300Y-144669300D01*
X187957300Y-124552900D02*
X187957300Y-141590300D01*
X187226600Y-123822200D02*
X187957300Y-124552900D01*
X187226600Y-103973400D02*
X187226600Y-123822200D01*
X188800000Y-102400000D02*
X187226600Y-103973400D01*
X184878300Y-144669300D02*
X184878300Y-151200000D01*
X132042300Y-106149700D02*
X132042300Y-141499000D01*
X131782100Y-105889500D02*
X132042300Y-106149700D01*
X131782100Y-104017900D02*
X131782100Y-105889500D01*
X133400000Y-102400000D02*
X131782100Y-104017900D01*
X132042300Y-144311400D02*
X132042300Y-141499000D01*
X130885300Y-145468400D02*
X132042300Y-144311400D01*
X130885300Y-151200000D02*
X130885300Y-145468400D01*
X125774900Y-156310400D02*
X130885300Y-151200000D01*
X125774900Y-251235700D02*
X125774900Y-156310400D01*
X149700100Y-275160900D02*
X125774900Y-251235700D01*
X149700100Y-280572800D02*
X149700100Y-275160900D01*
X149527200Y-280572800D02*
X149700100Y-280572800D01*
X148100000Y-282000000D02*
X149527200Y-280572800D01*
X163591400Y-288777900D02*
X163591400Y-288973700D01*
X155386300Y-280572800D02*
X163591400Y-288777900D01*
X149700100Y-280572800D02*
X155386300Y-280572800D01*
X204343000Y-272224400D02*
X204343000Y-279460000D01*
X227900900Y-248666500D02*
X204343000Y-272224400D01*
X227900900Y-248510900D02*
X227900900Y-248666500D01*
X234805400Y-241606400D02*
X227900900Y-248510900D01*
X234805400Y-240865400D02*
X234805400Y-241606400D01*
X236364000Y-239306800D02*
X234805400Y-240865400D01*
X262566800Y-239306800D02*
X236364000Y-239306800D01*
X266460000Y-243200000D02*
X262566800Y-239306800D01*
X187223900Y-152163900D02*
X188800000Y-153740000D01*
X187223900Y-144305500D02*
X187223900Y-152163900D01*
X188800000Y-142729400D02*
X187223900Y-144305500D01*
X188800000Y-104940000D02*
X188800000Y-142729400D01*
X188800000Y-153740000D02*
X188800000Y-160023300D01*
X223671100Y-201177700D02*
X223671100Y-247480700D01*
X188800000Y-166306600D02*
X223671100Y-201177700D01*
X188800000Y-160023300D02*
X188800000Y-166306600D01*
X187848200Y-160023300D02*
X187693300Y-159868400D01*
X188800000Y-160023300D02*
X187848200Y-160023300D01*
X133400000Y-148371700D02*
X133400000Y-104940000D01*
X131810700Y-149961000D02*
X133400000Y-148371700D01*
X131810700Y-152150700D02*
X131810700Y-149961000D01*
X133400000Y-153740000D02*
X131810700Y-152150700D01*
X186145300Y-151241900D02*
X186145300Y-149780700D01*
X185219400Y-152167800D02*
X186145300Y-151241900D01*
X270591600Y-242251600D02*
X269000000Y-240660000D01*
X270591600Y-243836100D02*
X270591600Y-242251600D01*
X268879800Y-245547900D02*
X270591600Y-243836100D01*
X265468400Y-245547900D02*
X268879800Y-245547900D01*
X260727900Y-240807400D02*
X265468400Y-245547900D01*
X237233000Y-240807400D02*
X260727900Y-240807400D01*
X236481000Y-241559400D02*
X237233000Y-240807400D01*
X203403100Y-283600100D02*
X201803000Y-282000000D01*
X205001400Y-283600100D02*
X203403100Y-283600100D01*
X229576500Y-259025000D02*
X205001400Y-283600100D01*
X229576500Y-248957500D02*
X229576500Y-259025000D01*
X236481000Y-242053000D02*
X229576500Y-248957500D01*
X236481000Y-241559400D02*
X236481000Y-242053000D01*
X183663200Y-138910600D02*
X183663200Y-146251600D01*
X186476200Y-136097600D02*
X183663200Y-138910600D01*
X186476200Y-102488800D02*
X186476200Y-136097600D01*
X188131800Y-100833200D02*
X186476200Y-102488800D01*
X189773200Y-100833200D02*
X188131800Y-100833200D01*
X191340000Y-102400000D02*
X189773200Y-100833200D01*
X184518400Y-152167800D02*
X185219400Y-152167800D01*
X183663200Y-151312600D02*
X184518400Y-152167800D01*
X183663200Y-146251600D02*
X183663200Y-151312600D01*
X222682800Y-201250500D02*
X222682800Y-241559400D01*
X185219400Y-163787100D02*
X222682800Y-201250500D01*
X185219400Y-152167800D02*
X185219400Y-163787100D01*
X134373900Y-100833900D02*
X135940000Y-102400000D01*
X132750500Y-100833900D02*
X134373900Y-100833900D01*
X127806500Y-105777900D02*
X132750500Y-100833900D01*
X127806500Y-142526800D02*
X127806500Y-105777900D01*
X130162400Y-144882700D02*
X127806500Y-142526800D01*
X154810900Y-281324100D02*
X160888600Y-287401800D01*
X150997100Y-281324100D02*
X154810900Y-281324100D01*
X148720700Y-283600500D02*
X150997100Y-281324100D01*
X147160500Y-283600500D02*
X148720700Y-283600500D01*
X145560000Y-282000000D02*
X147160500Y-283600500D01*
X201803000Y-274181100D02*
X201803000Y-279460000D01*
X145560000Y-273607600D02*
X146098700Y-273068900D01*
X145560000Y-279460000D02*
X145560000Y-273607600D01*
X181785400Y-109787800D02*
X185239800Y-106333400D01*
X181785400Y-112773700D02*
X181785400Y-109787800D01*
X201803000Y-273455900D02*
X201803000Y-274181100D01*
X227517700Y-247741200D02*
X201803000Y-273455900D01*
X227609500Y-247741200D02*
X227517700Y-247741200D01*
X234055100Y-241295600D02*
X227609500Y-247741200D01*
X234055100Y-240554600D02*
X234055100Y-241295600D01*
X236053200Y-238556500D02*
X234055100Y-240554600D01*
X264356500Y-238556500D02*
X236053200Y-238556500D01*
X266460000Y-240660000D02*
X264356500Y-238556500D01*
X181785400Y-155553100D02*
X184292400Y-158060100D01*
X181785400Y-112773700D02*
X181785400Y-155553100D01*
X191340000Y-157418300D02*
X189809300Y-158949000D01*
X191340000Y-153740000D02*
X191340000Y-157418300D01*
X180288000Y-270587400D02*
X182298800Y-272598200D01*
X180288000Y-227397800D02*
X180288000Y-270587400D01*
X190852700Y-216833100D02*
X180288000Y-227397800D01*
X190852700Y-211724100D02*
X190852700Y-216833100D01*
X184292400Y-205163800D02*
X190852700Y-211724100D01*
X184292400Y-158060100D02*
X184292400Y-205163800D01*
X193880000Y-102400000D02*
X190489800Y-99009800D01*
X201613400Y-284350400D02*
X199263000Y-282000000D01*
X205312200Y-284350400D02*
X201613400Y-284350400D01*
X230615100Y-259047500D02*
X205312200Y-284350400D01*
X230615100Y-248980000D02*
X230615100Y-259047500D01*
X238037400Y-241557700D02*
X230615100Y-248980000D01*
X253265400Y-241557700D02*
X238037400Y-241557700D01*
X258005900Y-246298200D02*
X253265400Y-241557700D01*
X269190600Y-246298200D02*
X258005900Y-246298200D01*
X271341900Y-244146900D02*
X269190600Y-246298200D01*
X271341900Y-240461900D02*
X271341900Y-244146900D01*
X269000000Y-238120000D02*
X271341900Y-240461900D01*
X179552800Y-108276100D02*
X179552800Y-148852600D01*
X188819100Y-99009800D02*
X179552800Y-108276100D01*
X190489800Y-99009800D02*
X188819100Y-99009800D01*
X162269400Y-151174100D02*
X163994600Y-149448900D01*
X162269400Y-204049200D02*
X162269400Y-151174100D01*
X157480300Y-208838300D02*
X162269400Y-204049200D01*
X157480300Y-257038900D02*
X157480300Y-208838300D01*
X174591000Y-274149600D02*
X157480300Y-257038900D01*
X174591000Y-279440800D02*
X174591000Y-274149600D01*
X180432400Y-285282200D02*
X174591000Y-279440800D01*
X199263000Y-276588500D02*
X199263000Y-279460000D01*
X199263000Y-274754400D02*
X229254400Y-244763000D01*
X199263000Y-276588500D02*
X199263000Y-274754400D01*
X229254400Y-244294200D02*
X229254400Y-244763000D01*
X235742400Y-237806200D02*
X229254400Y-244294200D01*
X266146200Y-237806200D02*
X235742400Y-237806200D01*
X266460000Y-238120000D02*
X266146200Y-237806200D01*
X224738000Y-200500100D02*
X224738000Y-246405600D01*
X193880000Y-169642100D02*
X224738000Y-200500100D01*
X193880000Y-153740000D02*
X193880000Y-169642100D01*
X150662600Y-107784500D02*
X150214600Y-108232500D01*
X141653300Y-108113300D02*
X138480000Y-104940000D01*
X149338300Y-108113300D02*
X141653300Y-108113300D01*
X149391400Y-108166400D02*
X149338300Y-108113300D01*
X149792400Y-108166400D02*
X149391400Y-108166400D01*
X149822900Y-108196900D02*
X149792400Y-108166400D01*
X150178900Y-108196900D02*
X149822900Y-108196900D01*
X150214600Y-108232500D02*
X150178900Y-108196900D01*
X152844700Y-154726000D02*
X154034600Y-153536100D01*
X151546400Y-154726000D02*
X152844700Y-154726000D01*
X150956300Y-154135900D02*
X151546400Y-154726000D01*
X150956300Y-148787400D02*
X150956300Y-154135900D01*
X150925900Y-148757000D02*
X150956300Y-148787400D01*
X150925900Y-112343900D02*
X150925900Y-148757000D01*
X150750900Y-112168900D02*
X150925900Y-112343900D01*
X150750900Y-109178700D02*
X150750900Y-112168900D01*
X150720900Y-109148700D02*
X150750900Y-109178700D01*
X150720900Y-108738900D02*
X150720900Y-109148700D01*
X150214600Y-108232500D02*
X150720900Y-108738900D01*
X144087200Y-99332800D02*
X141020000Y-102400000D01*
X149965800Y-99332800D02*
X144087200Y-99332800D01*
X157437200Y-106804200D02*
X149965800Y-99332800D01*
X141020000Y-151048700D02*
X143966400Y-148102300D01*
X141020000Y-151200000D02*
X141020000Y-151048700D01*
X157437200Y-148079300D02*
X157647900Y-148290000D01*
X157437200Y-106804200D02*
X157437200Y-148079300D01*
X199537300Y-99282700D02*
X196420000Y-102400000D01*
X205361200Y-99282700D02*
X199537300Y-99282700D01*
X241890800Y-135812300D02*
X205361200Y-99282700D01*
X241890800Y-184027900D02*
X241890800Y-135812300D01*
X259535600Y-201672700D02*
X241890800Y-184027900D01*
X259535600Y-209695600D02*
X259535600Y-201672700D01*
X272138000Y-222298000D02*
X259535600Y-209695600D01*
X272138000Y-232442000D02*
X272138000Y-222298000D01*
X269000000Y-235580000D02*
X272138000Y-232442000D01*
X166212500Y-98028900D02*
X157437200Y-106804200D01*
X192048900Y-98028900D02*
X166212500Y-98028900D01*
X196420000Y-102400000D02*
X192048900Y-98028900D01*
X198594100Y-283871100D02*
X196227600Y-286237600D01*
X196723000Y-282000000D02*
X198594100Y-283871100D01*
X231365400Y-250267400D02*
X232281600Y-249351200D01*
X231365400Y-259427800D02*
X231365400Y-250267400D01*
X205664900Y-285128300D02*
X231365400Y-259427800D01*
X199851300Y-285128300D02*
X205664900Y-285128300D01*
X198594100Y-283871100D02*
X199851300Y-285128300D01*
X196723000Y-276174700D02*
X197067100Y-275830600D01*
X196723000Y-279460000D02*
X196723000Y-276174700D01*
X196420000Y-104940000D02*
X190645800Y-110714200D01*
X143402800Y-156122800D02*
X143402800Y-156230500D01*
X141020000Y-153740000D02*
X143402800Y-156122800D01*
X236907500Y-209085600D02*
X236907500Y-235580000D01*
X196420000Y-168598100D02*
X236907500Y-209085600D01*
X196420000Y-153740000D02*
X196420000Y-168598100D01*
X266460000Y-235580000D02*
X236907500Y-235580000D01*
X197067100Y-275420400D02*
X197067100Y-275830600D01*
X236907500Y-235580000D02*
X197067100Y-275420400D01*
X178627500Y-156117500D02*
X178742500Y-156232500D01*
X178627500Y-119572200D02*
X178627500Y-156117500D01*
X169769500Y-110714200D02*
X178627500Y-119572200D01*
X208666200Y-153304200D02*
X209600500Y-154238400D01*
X208666200Y-152543400D02*
X208666200Y-153304200D01*
X204954100Y-148831300D02*
X208666200Y-152543400D01*
X201328700Y-148831300D02*
X204954100Y-148831300D01*
X198960000Y-151200000D02*
X201328700Y-148831300D01*
X155013000Y-105441100D02*
X155013000Y-105713700D01*
X149655000Y-100083100D02*
X155013000Y-105441100D01*
X145876900Y-100083100D02*
X149655000Y-100083100D01*
X143560000Y-102400000D02*
X145876900Y-100083100D01*
X155957200Y-150820300D02*
X155731300Y-151046200D01*
X155957200Y-106657900D02*
X155957200Y-150820300D01*
X155013000Y-105713700D02*
X155957200Y-106657900D01*
X212262900Y-151576000D02*
X209600500Y-154238400D01*
X212262900Y-148708400D02*
X212262900Y-151576000D01*
X212468900Y-148502400D02*
X212262900Y-148708400D01*
X212468900Y-142773800D02*
X212468900Y-148502400D01*
X212262900Y-142567800D02*
X212468900Y-142773800D01*
X212262900Y-113002400D02*
X212262900Y-142567800D01*
X211512600Y-112252100D02*
X212262900Y-113002400D01*
X211512600Y-108157800D02*
X211512600Y-112252100D01*
X210014100Y-106659300D02*
X211512600Y-108157800D01*
X210014100Y-106128700D02*
X210014100Y-106659300D01*
X207548100Y-103662700D02*
X210014100Y-106128700D01*
X207548100Y-102601600D02*
X207548100Y-103662700D01*
X204987200Y-100040700D02*
X207548100Y-102601600D01*
X202539100Y-100040700D02*
X204987200Y-100040700D01*
X201788800Y-100791000D02*
X202539100Y-100040700D01*
X200569000Y-100791000D02*
X201788800Y-100791000D01*
X198960000Y-102400000D02*
X200569000Y-100791000D01*
X250555200Y-195193200D02*
X250555200Y-195511800D01*
X209600500Y-154238400D02*
X250555200Y-195193200D01*
X250555200Y-204731900D02*
X250555200Y-195511800D01*
X271363000Y-225539700D02*
X250555200Y-204731900D01*
X271363000Y-230677000D02*
X271363000Y-225539700D01*
X269000000Y-233040000D02*
X271363000Y-230677000D01*
X191841700Y-284341300D02*
X194183000Y-282000000D01*
X186006400Y-284341300D02*
X191841700Y-284341300D01*
X186006400Y-259439500D02*
X186006400Y-284341300D01*
X215015300Y-230430600D02*
X186006400Y-259439500D01*
X215015300Y-195511800D02*
X215015300Y-230430600D01*
X184577100Y-285770600D02*
X184577100Y-289475300D01*
X186006400Y-284341300D02*
X184577100Y-285770600D01*
X198960000Y-104940000D02*
X194719800Y-109180200D01*
X198960100Y-153740000D02*
X198960000Y-153740000D01*
X198960100Y-165540100D02*
X198960100Y-153740000D01*
X266460000Y-233040000D02*
X198960100Y-165540100D01*
X194183000Y-275419000D02*
X196078500Y-273523500D01*
X194183000Y-279460000D02*
X194183000Y-275419000D01*
X217625500Y-251976500D02*
X196078500Y-273523500D01*
X217625500Y-243641800D02*
X217625500Y-251976500D01*
X151924200Y-156089300D02*
X151924200Y-156721200D01*
X154806000Y-109627300D02*
X155027500Y-109405800D01*
X154806000Y-151429400D02*
X154806000Y-109627300D01*
X154972100Y-151595500D02*
X154806000Y-151429400D01*
X154972100Y-153923700D02*
X154972100Y-151595500D01*
X152806500Y-156089300D02*
X154972100Y-153923700D01*
X151924200Y-156089300D02*
X152806500Y-156089300D01*
X145909300Y-156089300D02*
X151924200Y-156089300D01*
X143560000Y-153740000D02*
X145909300Y-156089300D01*
X146100000Y-149924900D02*
X148848000Y-147176900D01*
X146100000Y-151200000D02*
X146100000Y-149924900D01*
X211495900Y-113296600D02*
X211495900Y-147875400D01*
X209263800Y-111064500D02*
X211495900Y-113296600D01*
X209263800Y-106562500D02*
X209263800Y-111064500D01*
X206532600Y-103831300D02*
X209263800Y-106562500D01*
X206532600Y-102647200D02*
X206532600Y-103831300D01*
X204676400Y-100791000D02*
X206532600Y-102647200D01*
X203109000Y-100791000D02*
X204676400Y-100791000D01*
X201500000Y-102400000D02*
X203109000Y-100791000D01*
X218067800Y-219697800D02*
X220710300Y-217055300D01*
X218067800Y-229093900D02*
X218067800Y-219697800D01*
X186756700Y-260405000D02*
X218067800Y-229093900D01*
X186756700Y-281890400D02*
X186756700Y-260405000D01*
X188447700Y-283581400D02*
X186756700Y-281890400D01*
X190061600Y-283581400D02*
X188447700Y-283581400D01*
X191643000Y-282000000D02*
X190061600Y-283581400D01*
X248981800Y-204467100D02*
X261570000Y-217055300D01*
X248981800Y-194680900D02*
X248981800Y-204467100D01*
X207915900Y-153615000D02*
X248981800Y-194680900D01*
X207915900Y-152854300D02*
X207915900Y-153615000D01*
X204695500Y-149633900D02*
X207915900Y-152854300D01*
X203066100Y-149633900D02*
X204695500Y-149633900D01*
X201500000Y-151200000D02*
X203066100Y-149633900D01*
X270612600Y-226097900D02*
X261570000Y-217055300D01*
X270612600Y-228887400D02*
X270612600Y-226097900D01*
X269000000Y-230500000D02*
X270612600Y-228887400D01*
X147666600Y-100833400D02*
X146100000Y-102400000D01*
X149344200Y-100833400D02*
X147666600Y-100833400D01*
X153423700Y-104912900D02*
X149344200Y-100833400D01*
X153423700Y-147105000D02*
X153423700Y-104912900D01*
X153351800Y-147176900D02*
X153423700Y-147105000D01*
X149750500Y-284350800D02*
X151136200Y-282965100D01*
X137750800Y-284350800D02*
X149750500Y-284350800D01*
X135400000Y-282000000D02*
X137750800Y-284350800D01*
X201500000Y-105649200D02*
X198929200Y-108220000D01*
X201500000Y-104940000D02*
X201500000Y-105649200D01*
X208420600Y-117711400D02*
X198929200Y-108220000D01*
X208420600Y-150223400D02*
X208420600Y-117711400D01*
X201500000Y-165540000D02*
X201500000Y-153740000D01*
X266460000Y-230500000D02*
X201500000Y-165540000D01*
X191643000Y-260106900D02*
X213168100Y-238581800D01*
X191643000Y-279460000D02*
X191643000Y-260106900D01*
X158324300Y-275730400D02*
X158674500Y-275730400D01*
X154724200Y-272130300D02*
X158324300Y-275730400D01*
X147698900Y-155338900D02*
X146100000Y-153740000D01*
X149316300Y-155338900D02*
X147698900Y-155338900D01*
X150205600Y-154449600D02*
X149316300Y-155338900D01*
X150205600Y-149449700D02*
X150205600Y-154449600D01*
X149795600Y-149039700D02*
X150205600Y-149449700D01*
X149795600Y-109122200D02*
X149795600Y-149039700D01*
X208322400Y-155482400D02*
X204040000Y-151200000D01*
X208322400Y-167282400D02*
X208322400Y-155482400D01*
X269000000Y-227960000D02*
X208322400Y-167282400D01*
X210523600Y-113385400D02*
X210523600Y-151200000D01*
X208513500Y-111375300D02*
X210523600Y-113385400D01*
X208513500Y-106873500D02*
X208513500Y-111375300D01*
X204040000Y-102400000D02*
X208513500Y-106873500D01*
X220640300Y-227582500D02*
X220640300Y-226521400D01*
X187537100Y-260685700D02*
X220640300Y-227582500D01*
X187537100Y-280434100D02*
X187537100Y-260685700D01*
X189103000Y-282000000D02*
X187537100Y-280434100D01*
X152614100Y-106374100D02*
X148640000Y-102400000D01*
X152614100Y-112659200D02*
X152614100Y-106374100D01*
X152426500Y-112846800D02*
X152614100Y-112659200D01*
X152426500Y-148135400D02*
X152426500Y-112846800D01*
X152632000Y-148340900D02*
X152426500Y-148135400D01*
X152632000Y-151200000D02*
X152632000Y-148340900D01*
X151703200Y-274421400D02*
X159281800Y-282000000D01*
X151703200Y-270662800D02*
X151703200Y-274421400D01*
X209591500Y-113514400D02*
X209591500Y-152921000D01*
X204040000Y-107962900D02*
X209591500Y-113514400D01*
X204040000Y-104940000D02*
X204040000Y-107962900D01*
X204040000Y-165540000D02*
X204040000Y-153740000D01*
X266460000Y-227960000D02*
X204040000Y-165540000D01*
X189103000Y-260428500D02*
X221571500Y-227960000D01*
X189103000Y-279460000D02*
X189103000Y-260428500D01*
X151676200Y-148446200D02*
X151676200Y-111785700D01*
X151706600Y-148476600D02*
X151676200Y-148446200D01*
X151706600Y-153564900D02*
X151706600Y-148476600D01*
X151881700Y-153740000D02*
X151706600Y-153564900D01*
X149126900Y-104940000D02*
X148640000Y-104940000D01*
X151676200Y-107489300D02*
X149126900Y-104940000D01*
X151676200Y-111785700D02*
X151676200Y-107489300D01*
X150431000Y-285101100D02*
X153282600Y-282249500D01*
X133684400Y-285101100D02*
X150431000Y-285101100D01*
X131284200Y-282700900D02*
X133684400Y-285101100D01*
X131284200Y-281035800D02*
X131284200Y-282700900D01*
X132860000Y-279460000D02*
X131284200Y-281035800D01*
X453947000Y-98253000D02*
X408600000Y-143600000D01*
X453947000Y-85028700D02*
X453947000Y-98253000D01*
X401461400Y-139001400D02*
X406060000Y-143600000D01*
X401461400Y-99885300D02*
X401461400Y-139001400D01*
X406553100Y-94793600D02*
X401461400Y-99885300D01*
X452183900Y-97476100D02*
X408600000Y-141060000D01*
X452183900Y-86359600D02*
X452183900Y-97476100D01*
X402211700Y-137211700D02*
X406060000Y-141060000D01*
X402211700Y-100641100D02*
X402211700Y-137211700D01*
X406445800Y-96407000D02*
X402211700Y-100641100D01*
X448328100Y-98791900D02*
X408600000Y-138520000D01*
X448328100Y-90364000D02*
X448328100Y-98791900D01*
X402962000Y-135422000D02*
X406060000Y-138520000D01*
X402962000Y-103678400D02*
X402962000Y-135422000D01*
X409088000Y-97552400D02*
X402962000Y-103678400D01*
X456288700Y-104616000D02*
X424924700Y-135980000D01*
X456288700Y-86360100D02*
X456288700Y-104616000D01*
X403712300Y-133632300D02*
X406060000Y-135980000D01*
X403712300Y-108276000D02*
X403712300Y-133632300D01*
X413391100Y-98597200D02*
X403712300Y-108276000D01*
X455408300Y-85142600D02*
X455408300Y-85396500D01*
X454369000Y-84103300D02*
X455408300Y-85142600D01*
X453109300Y-84103300D02*
X454369000Y-84103300D01*
X447158100Y-90054500D02*
X453109300Y-84103300D01*
X447158100Y-94881900D02*
X447158100Y-90054500D01*
X408600000Y-133440000D02*
X447158100Y-94881900D01*
X404462600Y-109333200D02*
X414273200Y-99522600D01*
X404462600Y-131842600D02*
X404462600Y-109333200D01*
X406060000Y-133440000D02*
X404462600Y-131842600D01*
X431485900Y-108014100D02*
X431485900Y-91118300D01*
X408600000Y-130900000D02*
X431485900Y-108014100D01*
X408600000Y-112410800D02*
X428966300Y-92044500D01*
X408600000Y-128360000D02*
X408600000Y-112410800D01*
X378204100Y-91826900D02*
X380340000Y-89691000D01*
X378204100Y-95635100D02*
X378204100Y-91826900D01*
X379760000Y-97191000D02*
X378204100Y-95635100D01*
X380889400Y-97191000D02*
X379760000Y-97191000D01*
X391504300Y-107805900D02*
X380889400Y-97191000D01*
X391504300Y-124023700D02*
X391504300Y-107805900D01*
X392254600Y-124774000D02*
X391504300Y-124023700D01*
X392254600Y-176715600D02*
X392254600Y-124774000D01*
X431708800Y-216169800D02*
X392254600Y-176715600D01*
X431708800Y-262774100D02*
X431708800Y-216169800D01*
X448397000Y-279462300D02*
X431708800Y-262774100D01*
X286253200Y-196633600D02*
X286253200Y-226559100D01*
X301373500Y-181513300D02*
X286253200Y-196633600D01*
X301373500Y-159846200D02*
X301373500Y-181513300D01*
X287202600Y-198532400D02*
X287202600Y-225632500D01*
X303460000Y-182275000D02*
X287202600Y-198532400D01*
X303460000Y-156400000D02*
X303460000Y-182275000D01*
X307570200Y-181882800D02*
X290882200Y-198570800D01*
X307570200Y-155430200D02*
X307570200Y-181882800D01*
X306000000Y-153860000D02*
X307570200Y-155430200D01*
X138659000Y-242316000D02*
X138659000Y-240827100D01*
X151745800Y-227740300D02*
X151745800Y-219689100D01*
X138659000Y-240827100D02*
X151745800Y-227740300D01*
X284312200Y-197266700D02*
X284312200Y-224282200D01*
X289684600Y-191894300D02*
X284312200Y-197266700D01*
X289684600Y-167635400D02*
X289684600Y-191894300D01*
X303460000Y-153860000D02*
X289684600Y-167635400D01*
X308320500Y-153640500D02*
X306000000Y-151320000D01*
X308320500Y-182647900D02*
X308320500Y-153640500D01*
X288354900Y-202613500D02*
X308320500Y-182647900D01*
X288354900Y-219204700D02*
X288354900Y-202613500D01*
X289191900Y-220041700D02*
X288354900Y-219204700D01*
X289409500Y-220041700D02*
X289191900Y-220041700D01*
X289409500Y-220041800D02*
X289409500Y-220041700D01*
X154352900Y-232753200D02*
X146279000Y-240827100D01*
X154352900Y-223697200D02*
X154352900Y-232753200D01*
X146279000Y-242316000D02*
X146279000Y-240827100D01*
X266722600Y-203311900D02*
X262372100Y-207662400D01*
X275057400Y-203311900D02*
X266722600Y-203311900D01*
X288572000Y-189797300D02*
X275057400Y-203311900D01*
X288572000Y-166208000D02*
X288572000Y-189797300D01*
X303460000Y-151320000D02*
X288572000Y-166208000D01*
X316609100Y-200932000D02*
X294947100Y-222594000D01*
X316609100Y-161050900D02*
X316609100Y-200932000D01*
X321260000Y-156400000D02*
X316609100Y-161050900D01*
X295306200Y-223547500D02*
X294313500Y-223547500D01*
X317382400Y-201471300D02*
X295306200Y-223547500D01*
X317382400Y-165964600D02*
X317382400Y-201471300D01*
X325381800Y-157965200D02*
X317382400Y-165964600D01*
X325381800Y-155441800D02*
X325381800Y-157965200D01*
X323800000Y-153860000D02*
X325381800Y-155441800D01*
X153899000Y-235405200D02*
X154679300Y-234624900D01*
X153899000Y-242316000D02*
X153899000Y-235405200D01*
X290205600Y-217805600D02*
X289280300Y-218730900D01*
X290205600Y-203214400D02*
X290205600Y-217805600D01*
X310195200Y-183224800D02*
X290205600Y-203214400D01*
X310195200Y-164924800D02*
X310195200Y-183224800D01*
X321260000Y-153860000D02*
X310195200Y-164924800D01*
X323800000Y-134018500D02*
X324906600Y-132911900D01*
X323800000Y-151320000D02*
X323800000Y-134018500D01*
X338857500Y-120377300D02*
X347435800Y-111799000D01*
X338857500Y-166742500D02*
X338857500Y-120377300D01*
X323800000Y-181800000D02*
X338857500Y-166742500D01*
X389725700Y-86650900D02*
X397258000Y-94183200D01*
X348836200Y-86650900D02*
X389725700Y-86650900D01*
X332580800Y-102906300D02*
X348836200Y-86650900D01*
X332580800Y-115682300D02*
X332580800Y-102906300D01*
X326132200Y-122130900D02*
X332580800Y-115682300D01*
X326132200Y-160652400D02*
X326132200Y-122130900D01*
X318132700Y-168651900D02*
X326132200Y-160652400D01*
X318132700Y-178672700D02*
X318132700Y-168651900D01*
X321260000Y-181800000D02*
X318132700Y-178672700D01*
X356081000Y-96447000D02*
X359564000Y-92964000D01*
X356081000Y-99687500D02*
X356081000Y-96447000D01*
X353541000Y-102227500D02*
X356081000Y-99687500D01*
X353541000Y-104490400D02*
X353541000Y-102227500D01*
X347157700Y-110873700D02*
X353541000Y-104490400D01*
X347052600Y-110873700D02*
X347157700Y-110873700D01*
X338107200Y-119819100D02*
X347052600Y-110873700D01*
X338107200Y-164952800D02*
X338107200Y-119819100D01*
X323800000Y-179260000D02*
X338107200Y-164952800D01*
X356451400Y-92964000D02*
X357024000Y-92964000D01*
X332146500Y-117268900D02*
X356451400Y-92964000D01*
X332146500Y-159359200D02*
X332146500Y-117268900D01*
X318926400Y-172579300D02*
X332146500Y-159359200D01*
X318926400Y-176926400D02*
X318926400Y-172579300D01*
X321260000Y-179260000D02*
X318926400Y-176926400D01*
X346073000Y-105080000D02*
X346073000Y-105812200D01*
X352271000Y-98882000D02*
X346073000Y-105080000D01*
X337356900Y-117684000D02*
X349146400Y-105894500D01*
X337356900Y-163163100D02*
X337356900Y-117684000D01*
X323800000Y-176720000D02*
X337356900Y-163163100D01*
X333336300Y-120356700D02*
X354811000Y-98882000D01*
X333336300Y-159605500D02*
X333336300Y-120356700D01*
X319676700Y-173265100D02*
X333336300Y-159605500D01*
X319676700Y-175136700D02*
X319676700Y-173265100D01*
X321260000Y-176720000D02*
X319676700Y-175136700D01*
X336347600Y-161632400D02*
X336347600Y-126871800D01*
X323800000Y-174180000D02*
X336347600Y-161632400D01*
X334827300Y-160612700D02*
X321260000Y-174180000D01*
X334827300Y-125538100D02*
X334827300Y-160612700D01*
X336431600Y-123933800D02*
X334827300Y-125538100D01*
X386157600Y-262637500D02*
X391245600Y-267725500D01*
X386157600Y-127182100D02*
X386157600Y-262637500D01*
X373986500Y-115011000D02*
X386157600Y-127182100D01*
X372720000Y-115011000D02*
X373986500Y-115011000D01*
X380340000Y-118164900D02*
X380340000Y-115011000D01*
X388503100Y-126328000D02*
X380340000Y-118164900D01*
X388503100Y-200994000D02*
X388503100Y-126328000D01*
X422024400Y-234515300D02*
X388503100Y-200994000D01*
X422024400Y-278438300D02*
X422024400Y-234515300D01*
X420934600Y-279528100D02*
X422024400Y-278438300D01*
X198384300Y-304536400D02*
X198384300Y-305574900D01*
X193905900Y-300058000D02*
X198384300Y-304536400D01*
X193812100Y-300058000D02*
X193905900Y-300058000D01*
X173840600Y-280086500D02*
X193812100Y-300058000D01*
X173840600Y-274460300D02*
X173840600Y-280086500D01*
X156438900Y-257058600D02*
X173840600Y-274460300D01*
X156438900Y-221985900D02*
X156438900Y-257058600D01*
X135067900Y-200614900D02*
X156438900Y-221985900D01*
X135067900Y-199136000D02*
X135067900Y-200614900D01*
X420548000Y-297739000D02*
X412712100Y-305574900D01*
X133579000Y-199136000D02*
X135067900Y-199136000D01*
X131039000Y-199136000D02*
X129550100Y-199136000D01*
X128560500Y-200125600D02*
X129550100Y-199136000D01*
X128560500Y-230232900D02*
X128560500Y-200125600D01*
X126562800Y-232230600D02*
X128560500Y-230232900D01*
X126562800Y-250589500D02*
X126562800Y-232230600D01*
X168622000Y-292648700D02*
X126562800Y-250589500D01*
X168622000Y-299427200D02*
X168622000Y-292648700D01*
X133579000Y-201676000D02*
X135067900Y-201676000D01*
X193812100Y-301119000D02*
X193812100Y-306603100D01*
X193812000Y-301119000D02*
X193812100Y-301119000D01*
X173090300Y-280397300D02*
X193812000Y-301119000D01*
X173090300Y-274771100D02*
X173090300Y-280397300D01*
X155688600Y-257369400D02*
X173090300Y-274771100D01*
X155688600Y-222296700D02*
X155688600Y-257369400D01*
X135067900Y-201676000D02*
X155688600Y-222296700D01*
X163216700Y-270106200D02*
X163216700Y-270106300D01*
X153560000Y-270106200D02*
X163216700Y-270106200D01*
X127313100Y-243859300D02*
X153560000Y-270106200D01*
X127313100Y-232541400D02*
X127313100Y-243859300D01*
X129541100Y-230313400D02*
X127313100Y-232541400D01*
X129541100Y-203173900D02*
X129541100Y-230313400D01*
X131039000Y-201676000D02*
X129541100Y-203173900D01*
X474802500Y-307393800D02*
X476120700Y-308712000D01*
X474802500Y-284226500D02*
X474802500Y-307393800D01*
X470052000Y-279476000D02*
X474802500Y-284226500D01*
X477596000Y-308712000D02*
X476120700Y-308712000D01*
X461080800Y-275584800D02*
X464972000Y-279476000D01*
X461080800Y-266800200D02*
X461080800Y-275584800D01*
X421107000Y-283975300D02*
X421107000Y-289458000D01*
X420675000Y-283543300D02*
X421107000Y-283975300D01*
X491356000Y-312421300D02*
X487956000Y-312421300D01*
X487956000Y-310896000D02*
X487956000Y-312421300D01*
X491356000Y-310979300D02*
X491356000Y-312421300D01*
X491356000Y-310979300D02*
X491356000Y-310896000D01*
X488340000Y-290796000D02*
X488340000Y-286131000D01*
X491356000Y-293812000D02*
X488340000Y-290796000D01*
X491356000Y-310896000D02*
X491356000Y-293812000D01*
X450311600Y-282322300D02*
X459613000Y-291623700D01*
X450113000Y-282322300D02*
X450311600Y-282322300D01*
X450113000Y-280797000D02*
X450113000Y-282322300D01*
X306504600Y-231545700D02*
X309601000Y-228449300D01*
X306350000Y-231545700D02*
X306504600Y-231545700D01*
X306350000Y-233071000D02*
X306350000Y-231545700D01*
X309601000Y-227686600D02*
X309601000Y-228449300D01*
X312852000Y-230937600D02*
X312852000Y-232995000D01*
X309601000Y-227686600D02*
X312852000Y-230937600D01*
X459613000Y-293649000D02*
X459613000Y-292636300D01*
X459613000Y-292636300D02*
X459613000Y-291623700D01*
X457551500Y-305458800D02*
X460042700Y-307950000D01*
X457551500Y-294697800D02*
X457551500Y-305458800D01*
X459613000Y-292636300D02*
X457551500Y-294697800D01*
X461518000Y-307950000D02*
X460042700Y-307950000D01*
X270583400Y-211279600D02*
X268986000Y-212877000D01*
X270583400Y-207163000D02*
X270583400Y-211279600D01*
X269618900Y-206198500D02*
X270583400Y-207163000D01*
X268044500Y-206198500D02*
X269618900Y-206198500D01*
X266446000Y-207797000D02*
X268044500Y-206198500D01*
X309601000Y-226924000D02*
X309601000Y-227305300D01*
X309601000Y-227305300D02*
X309601000Y-227686600D01*
X470216000Y-282180000D02*
X467512000Y-279476000D01*
X470216000Y-296316000D02*
X470216000Y-282180000D01*
X420675000Y-282830600D02*
X420675000Y-283543300D01*
X420675000Y-282830600D02*
X420675000Y-282118000D01*
X420675000Y-282118000D02*
X420675000Y-280692700D01*
X462432000Y-274396000D02*
X462432000Y-264236000D01*
X467512000Y-279476000D02*
X462432000Y-274396000D01*
X425298000Y-276473300D02*
X425298000Y-231800000D01*
X421078600Y-280692700D02*
X425298000Y-276473300D01*
X420675000Y-280692700D02*
X421078600Y-280692700D01*
X360277400Y-95203800D02*
X360277400Y-103962000D01*
X360808000Y-94673200D02*
X360277400Y-95203800D01*
X360808000Y-92405000D02*
X360808000Y-94673200D01*
X359227500Y-90824500D02*
X360808000Y-92405000D01*
X352344500Y-90824500D02*
X359227500Y-90824500D01*
X349404000Y-87884000D02*
X352344500Y-90824500D01*
X362431000Y-103962000D02*
X360277400Y-103962000D01*
X352417600Y-110668000D02*
X349455000Y-110668000D01*
X359123600Y-103962000D02*
X352417600Y-110668000D01*
X360277400Y-103962000D02*
X359123600Y-103962000D01*
X387377600Y-111683400D02*
X388622000Y-110439000D01*
X387377600Y-124141400D02*
X387377600Y-111683400D01*
X389253400Y-126017200D02*
X387377600Y-124141400D01*
X389253400Y-179698700D02*
X389253400Y-126017200D01*
X425298000Y-215743300D02*
X389253400Y-179698700D01*
X425298000Y-231800000D02*
X425298000Y-215743300D01*
X349455000Y-111729100D02*
X349455000Y-110668000D01*
X339607800Y-121576300D02*
X349455000Y-111729100D01*
X339607800Y-197298500D02*
X339607800Y-121576300D01*
X309601000Y-227305300D02*
X339607800Y-197298500D01*
X189913600Y-214972500D02*
X189913600Y-212877000D01*
X164059000Y-240827100D02*
X189913600Y-214972500D01*
X164059000Y-242316000D02*
X164059000Y-240827100D01*
X183253800Y-219092300D02*
X183253800Y-206210800D01*
X161519000Y-240827100D02*
X183253800Y-219092300D01*
X161519000Y-242316000D02*
X161519000Y-240827100D01*
X394763000Y-295021000D02*
X394763000Y-302641000D01*
X233290900Y-277382200D02*
X253632500Y-297723800D01*
X233290900Y-247365300D02*
X233290900Y-277382200D01*
X238348200Y-242308000D02*
X233290900Y-247365300D01*
X252954600Y-242308000D02*
X238348200Y-242308000D01*
X257728800Y-247082200D02*
X252954600Y-242308000D01*
X269513400Y-247082200D02*
X257728800Y-247082200D01*
X272888300Y-243707300D02*
X269513400Y-247082200D01*
X272888300Y-221544800D02*
X272888300Y-243707300D01*
X264850600Y-213507100D02*
X272888300Y-221544800D01*
X264850600Y-211932400D02*
X264850600Y-213507100D01*
X266446000Y-210337000D02*
X264850600Y-211932400D01*
X394763000Y-294477000D02*
X394763000Y-295021000D01*
X400396100Y-288843900D02*
X394763000Y-294477000D01*
X400804100Y-288843900D02*
X400396100Y-288843900D01*
X406902500Y-282745500D02*
X400804100Y-288843900D01*
X406902500Y-278200500D02*
X406902500Y-282745500D01*
X405359000Y-276657000D02*
X406902500Y-278200500D01*
X165609100Y-278929900D02*
X189320200Y-302641000D01*
X165609100Y-270007000D02*
X165609100Y-278929900D01*
X164032700Y-268430600D02*
X165609100Y-270007000D01*
X154006600Y-268430600D02*
X164032700Y-268430600D01*
X128813700Y-243237700D02*
X154006600Y-268430600D01*
X128813700Y-234381300D02*
X128813700Y-243237700D01*
X131039000Y-232156000D02*
X128813700Y-234381300D01*
X384763000Y-295021000D02*
X384763000Y-302641000D01*
M02*
