G04 #@! TF.FileFunction,Copper,L1,Top,Signal*
%FSLAX46Y46*%
G04 Gerber Fmt 4.6, Leading zero omitted, Abs format (unit mm)*
G04 Created by KiCad (PCBNEW 4.0.6) date 02/28/20 07:27:54*
%MOMM*%
%LPD*%
G01*
G04 APERTURE LIST*
%ADD10C,0.100000*%
%ADD11O,1.727200X1.727200*%
%ADD12C,1.879600*%
%ADD13R,1.600000X1.600000*%
%ADD14C,1.600000*%
%ADD15R,1.800000X1.800000*%
%ADD16C,1.800000*%
%ADD17O,1.800000X1.800000*%
%ADD18R,2.800000X2.800000*%
%ADD19O,2.800000X2.800000*%
%ADD20R,1.200000X1.200000*%
%ADD21C,1.200000*%
%ADD22R,1.700000X1.700000*%
%ADD23O,1.700000X1.700000*%
%ADD24R,1.350000X1.350000*%
%ADD25O,1.350000X1.350000*%
%ADD26C,3.000000*%
%ADD27R,1.350000X1.800000*%
%ADD28O,1.350000X1.800000*%
%ADD29O,1.600000X1.600000*%
%ADD30R,1.000000X2.750000*%
%ADD31C,0.600000*%
%ADD32C,0.250000*%
G04 APERTURE END LIST*
D10*
D11*
X163932000Y-219456000D03*
X161392000Y-219456000D03*
X161392000Y-216916000D03*
X163932000Y-216916000D03*
X161392000Y-214376000D03*
X176759000Y-242316000D03*
X181839000Y-242316000D03*
X184379000Y-242316000D03*
X186919000Y-242316000D03*
X189459000Y-242316000D03*
X191999000Y-242316000D03*
X194539000Y-242316000D03*
X197079000Y-242316000D03*
X141199000Y-194056000D03*
X143739000Y-194056000D03*
X146279000Y-194056000D03*
X148819000Y-194056000D03*
X151359000Y-194056000D03*
X153899000Y-194056000D03*
X156439000Y-194056000D03*
X158979000Y-194056000D03*
X164059000Y-194056000D03*
X166599000Y-194056000D03*
X169139000Y-194056000D03*
X171679000Y-194056000D03*
X174219000Y-194056000D03*
X176759000Y-194056000D03*
X179299000Y-194056000D03*
X181839000Y-194056000D03*
X201143000Y-194056000D03*
X185903000Y-194056000D03*
X188443000Y-194056000D03*
X190983000Y-194056000D03*
X208763000Y-194056000D03*
X206223000Y-194056000D03*
X203683000Y-194056000D03*
X198603000Y-194056000D03*
X196063000Y-194056000D03*
X193523000Y-194056000D03*
X199619000Y-242316000D03*
X174219000Y-242316000D03*
X171679000Y-242316000D03*
X169139000Y-242316000D03*
X166599000Y-242316000D03*
X164059000Y-242316000D03*
X161519000Y-242316000D03*
X158979000Y-242316000D03*
X153899000Y-242316000D03*
X151359000Y-242316000D03*
X148819000Y-242316000D03*
X146279000Y-242316000D03*
X143739000Y-242316000D03*
X141199000Y-242316000D03*
X138659000Y-242316000D03*
X136119000Y-242316000D03*
X133579000Y-194056000D03*
X131039000Y-194056000D03*
X133579000Y-196596000D03*
X131039000Y-196596000D03*
X133579000Y-199136000D03*
X131039000Y-199136000D03*
X133579000Y-201676000D03*
X131039000Y-201676000D03*
X133579000Y-204216000D03*
X131039000Y-204216000D03*
X133579000Y-206756000D03*
X131039000Y-206756000D03*
X133579000Y-209296000D03*
X131039000Y-209296000D03*
X133579000Y-211836000D03*
X131039000Y-211836000D03*
X133579000Y-214376000D03*
X131039000Y-214376000D03*
X133579000Y-216916000D03*
X131039000Y-216916000D03*
X133579000Y-219456000D03*
X131039000Y-219456000D03*
X133579000Y-221996000D03*
X131039000Y-221996000D03*
X133579000Y-224536000D03*
X131039000Y-224536000D03*
X133579000Y-227076000D03*
X131039000Y-227076000D03*
X133579000Y-229616000D03*
X131039000Y-229616000D03*
X133579000Y-232156000D03*
X131039000Y-232156000D03*
X133579000Y-234696000D03*
X131039000Y-234696000D03*
X133579000Y-237236000D03*
X131039000Y-237236000D03*
X163932000Y-214376000D03*
D12*
X133400000Y-102400000D03*
X133400000Y-104940000D03*
X135940000Y-102400000D03*
X135940000Y-104940000D03*
X138480000Y-102400000D03*
X138480000Y-104940000D03*
X141020000Y-102400000D03*
X141020000Y-104940000D03*
X143560000Y-102400000D03*
X143560000Y-104940000D03*
X146100000Y-102400000D03*
X146100000Y-104940000D03*
X148640000Y-102400000D03*
X148640000Y-104940000D03*
X188800000Y-102400000D03*
X188800000Y-104940000D03*
X191340000Y-102400000D03*
X191340000Y-104940000D03*
X193880000Y-102400000D03*
X193880000Y-104940000D03*
X196420000Y-102400000D03*
X196420000Y-104940000D03*
X198960000Y-102400000D03*
X198960000Y-104940000D03*
X201500000Y-102400000D03*
X201500000Y-104940000D03*
X204040000Y-102400000D03*
X204040000Y-104940000D03*
X188800000Y-151200000D03*
X188800000Y-153740000D03*
X191340000Y-151200000D03*
X191340000Y-153740000D03*
X193880000Y-151200000D03*
X193880000Y-153740000D03*
X196420000Y-151200000D03*
X196420000Y-153740000D03*
X198960000Y-151200000D03*
X198960000Y-153740000D03*
X201500000Y-151200000D03*
X201500000Y-153740000D03*
X204040000Y-151200000D03*
X204040000Y-153740000D03*
X133400000Y-151200000D03*
X133400000Y-153740000D03*
X135940000Y-151200000D03*
X135940000Y-153740000D03*
X138480000Y-151200000D03*
X138480000Y-153740000D03*
X141020000Y-151200000D03*
X141020000Y-153740000D03*
X143560000Y-151200000D03*
X143560000Y-153740000D03*
X146100000Y-151200000D03*
X146100000Y-153740000D03*
X148640000Y-151200000D03*
X148640000Y-153740000D03*
X148100000Y-282000000D03*
X148100000Y-279460000D03*
X145560000Y-282000000D03*
X145560000Y-279460000D03*
X143020000Y-282000000D03*
X143020000Y-279460000D03*
X140480000Y-282000000D03*
X140480000Y-279460000D03*
X137940000Y-282000000D03*
X137940000Y-279460000D03*
X135400000Y-282000000D03*
X135400000Y-279460000D03*
X132860000Y-282000000D03*
X132860000Y-279460000D03*
X204343000Y-282000000D03*
X204343000Y-279460000D03*
X201803000Y-282000000D03*
X201803000Y-279460000D03*
X199263000Y-282000000D03*
X199263000Y-279460000D03*
X196723000Y-282000000D03*
X196723000Y-279460000D03*
X194183000Y-282000000D03*
X194183000Y-279460000D03*
X191643000Y-282000000D03*
X191643000Y-279460000D03*
X189103000Y-282000000D03*
X189103000Y-279460000D03*
X269000000Y-243200000D03*
X266460000Y-243200000D03*
X269000000Y-240660000D03*
X266460000Y-240660000D03*
X269000000Y-238120000D03*
X266460000Y-238120000D03*
X269000000Y-235580000D03*
X266460000Y-235580000D03*
X269000000Y-233040000D03*
X266460000Y-233040000D03*
X269000000Y-230500000D03*
X266460000Y-230500000D03*
X269000000Y-227960000D03*
X266460000Y-227960000D03*
X408600000Y-143600000D03*
X406060000Y-143600000D03*
X408600000Y-141060000D03*
X406060000Y-141060000D03*
X408600000Y-138520000D03*
X406060000Y-138520000D03*
X408600000Y-135980000D03*
X406060000Y-135980000D03*
X408600000Y-133440000D03*
X406060000Y-133440000D03*
X408600000Y-130900000D03*
X406060000Y-130900000D03*
X408600000Y-128360000D03*
X406060000Y-128360000D03*
X323800000Y-156400000D03*
X321260000Y-156400000D03*
X323800000Y-153860000D03*
X321260000Y-153860000D03*
X323800000Y-151320000D03*
X321260000Y-151320000D03*
X306000000Y-156400000D03*
X303460000Y-156400000D03*
X306000000Y-153860000D03*
X303460000Y-153860000D03*
X306000000Y-151320000D03*
X303460000Y-151320000D03*
X323800000Y-181800000D03*
X321260000Y-181800000D03*
X323800000Y-179260000D03*
X321260000Y-179260000D03*
X323800000Y-176720000D03*
X321260000Y-176720000D03*
X323800000Y-174180000D03*
X321260000Y-174180000D03*
D13*
X467538000Y-305918000D03*
D14*
X470038000Y-305918000D03*
D13*
X467716000Y-296316000D03*
D14*
X470216000Y-296316000D03*
D15*
X312852000Y-232995000D03*
D16*
X315392000Y-232995000D03*
D15*
X429616000Y-291236000D03*
D17*
X429616000Y-281076000D03*
D15*
X434975000Y-291186000D03*
D17*
X434975000Y-281026000D03*
D15*
X450113000Y-290957000D03*
D17*
X450113000Y-280797000D03*
D15*
X444627000Y-290957000D03*
D17*
X444627000Y-280797000D03*
D15*
X425298000Y-231800000D03*
D16*
X427838000Y-231800000D03*
D18*
X459613000Y-303809000D03*
D19*
X459613000Y-293649000D03*
D15*
X439598000Y-290957000D03*
D17*
X439598000Y-280797000D03*
D15*
X309601000Y-226924000D03*
D16*
X312141000Y-226924000D03*
D15*
X306350000Y-233071000D03*
D16*
X308890000Y-233071000D03*
D20*
X388622000Y-115519000D03*
D21*
X388622000Y-110439000D03*
X393702000Y-115519000D03*
X398782000Y-110439000D03*
X396242000Y-115519000D03*
X398782000Y-115519000D03*
X393702000Y-110439000D03*
X396242000Y-110439000D03*
D20*
X349455000Y-115748000D03*
D21*
X349455000Y-110668000D03*
X354535000Y-115748000D03*
X359615000Y-110668000D03*
X357075000Y-115748000D03*
X359615000Y-115748000D03*
X354535000Y-110668000D03*
X357075000Y-110668000D03*
D20*
X362431000Y-98882000D03*
D21*
X362431000Y-103962000D03*
X357351000Y-98882000D03*
X352271000Y-103962000D03*
X354811000Y-98882000D03*
X352271000Y-98882000D03*
X357351000Y-103962000D03*
X354811000Y-103962000D03*
D20*
X349404000Y-92964000D03*
D21*
X349404000Y-87884000D03*
X354484000Y-92964000D03*
X359564000Y-87884000D03*
X357024000Y-92964000D03*
X359564000Y-92964000D03*
X354484000Y-87884000D03*
X357024000Y-87884000D03*
D20*
X389638000Y-94183200D03*
D21*
X389638000Y-89103200D03*
X394718000Y-94183200D03*
X399798000Y-89103200D03*
X397258000Y-94183200D03*
X399798000Y-94183200D03*
X394718000Y-89103200D03*
X397258000Y-89103200D03*
D22*
X477596000Y-306172000D03*
D23*
X477596000Y-308712000D03*
D15*
X459892000Y-279476000D03*
D16*
X462432000Y-279476000D03*
X464972000Y-279476000D03*
X467512000Y-279476000D03*
X470052000Y-279476000D03*
X472592000Y-279476000D03*
X475132000Y-279476000D03*
X477672000Y-279476000D03*
X480212000Y-279476000D03*
X482752000Y-279476000D03*
X485292000Y-279476000D03*
X487832000Y-279476000D03*
X490372000Y-279476000D03*
X492912000Y-279476000D03*
X495452000Y-279476000D03*
X495452000Y-264236000D03*
X492912000Y-264236000D03*
X490372000Y-264236000D03*
X487832000Y-264236000D03*
X485292000Y-264236000D03*
X482752000Y-264236000D03*
X480212000Y-264236000D03*
X477672000Y-264236000D03*
X475132000Y-264236000D03*
X472592000Y-264236000D03*
X470052000Y-264236000D03*
X467512000Y-264236000D03*
X464972000Y-264236000D03*
X462432000Y-264236000D03*
X459892000Y-264236000D03*
D24*
X479069000Y-285090000D03*
D25*
X479069000Y-287090000D03*
D26*
X372720000Y-115011000D03*
X380340000Y-115011000D03*
X372720000Y-94691000D03*
X380340000Y-89691000D03*
X380340000Y-99691000D03*
X372720000Y-99691000D03*
X380340000Y-94691000D03*
X372720000Y-89691000D03*
D27*
X484556000Y-310896000D03*
D28*
X486256000Y-310896000D03*
X487956000Y-310896000D03*
X489656000Y-310896000D03*
X491356000Y-310896000D03*
D22*
X490880000Y-286131000D03*
D23*
X488340000Y-286131000D03*
D14*
X465988000Y-286334000D03*
D29*
X468528000Y-286334000D03*
D22*
X461518000Y-307950000D03*
D23*
X461518000Y-310490000D03*
D30*
X450184000Y-88543600D03*
X450184000Y-94793600D03*
X452184000Y-88543600D03*
X452184000Y-94793600D03*
X454184000Y-88543600D03*
X454184000Y-94793600D03*
X456184000Y-88543600D03*
X456184000Y-94793600D03*
X458184000Y-88543600D03*
X458184000Y-94793600D03*
X460184000Y-88543600D03*
X460184000Y-94793600D03*
X462184000Y-88543600D03*
X462184000Y-94793600D03*
D14*
X405308000Y-308559000D03*
D29*
X420548000Y-308559000D03*
D14*
X405587000Y-293649000D03*
D29*
X420827000Y-293649000D03*
D14*
X405867000Y-289458000D03*
D29*
X421107000Y-289458000D03*
D14*
X420675000Y-302692000D03*
D29*
X405435000Y-302692000D03*
D14*
X420548000Y-297739000D03*
D29*
X405308000Y-297739000D03*
D12*
X268986000Y-212877000D03*
X266446000Y-212877000D03*
X268986000Y-210337000D03*
X266446000Y-210337000D03*
X268986000Y-207797000D03*
X266446000Y-207797000D03*
D26*
X369443000Y-295021000D03*
X369443000Y-302641000D03*
X389763000Y-295021000D03*
X394763000Y-302641000D03*
X384763000Y-302641000D03*
X384763000Y-295021000D03*
X389763000Y-302641000D03*
X394763000Y-295021000D03*
D14*
X405435000Y-282118000D03*
D29*
X420675000Y-282118000D03*
D14*
X405359000Y-276657000D03*
D29*
X420599000Y-276657000D03*
D31*
X459528600Y-282900500D03*
X265144400Y-310010400D03*
X181510600Y-298495800D03*
X175751500Y-132911900D03*
X127631900Y-221480000D03*
X330610200Y-115748000D03*
X289280300Y-217085200D03*
X361997500Y-96284600D03*
X169251800Y-123123100D03*
X126794100Y-222692900D03*
X466121000Y-303253300D03*
X376340000Y-97191000D03*
X175771700Y-135924800D03*
X155631900Y-219870200D03*
X259691100Y-300452700D03*
X255253000Y-247386300D03*
X286840500Y-245546900D03*
X232290700Y-251555700D03*
X235571500Y-285663400D03*
X400779300Y-289769200D03*
X130885300Y-151200000D03*
X184878300Y-151200000D03*
X132042300Y-141499000D03*
X184878300Y-144669300D03*
X163591400Y-288973700D03*
X227900900Y-248666500D03*
X223671100Y-247480700D03*
X187693300Y-159868400D03*
X160888600Y-287401800D03*
X186145300Y-149780700D03*
X236481000Y-241559400D03*
X222682800Y-241559400D03*
X183663200Y-146251600D03*
X130162400Y-144882700D03*
X201803000Y-274181100D03*
X146098700Y-273068900D03*
X182298800Y-272598200D03*
X185239800Y-106333400D03*
X181785400Y-112773700D03*
X184292400Y-158060100D03*
X189809300Y-158949000D03*
X180432400Y-285282200D03*
X163994600Y-149448900D03*
X190489800Y-99009800D03*
X179552800Y-148852600D03*
X199263000Y-276588500D03*
X154034600Y-153536100D03*
X150662600Y-107784500D03*
X229254400Y-244763000D03*
X224738000Y-246405600D03*
X157647900Y-148290000D03*
X143966400Y-148102300D03*
X232281600Y-249351200D03*
X196227600Y-286237600D03*
X197067100Y-275830600D03*
X143402800Y-156230500D03*
X190645800Y-110714200D03*
X178742500Y-156232500D03*
X169769500Y-110714200D03*
X155013000Y-105713700D03*
X155731300Y-151046200D03*
X250555200Y-195511800D03*
X215015300Y-195511800D03*
X184577100Y-289475300D03*
X196078500Y-273523500D03*
X194719800Y-109180200D03*
X155027500Y-109405800D03*
X151924200Y-156721200D03*
X217625500Y-243641800D03*
X211495900Y-147875400D03*
X151136200Y-282965100D03*
X148848000Y-147176900D03*
X153351800Y-147176900D03*
X261570000Y-217055300D03*
X220710300Y-217055300D03*
X154724200Y-272130300D03*
X158674500Y-275730400D03*
X198929200Y-108220000D03*
X208420600Y-150223400D03*
X213168100Y-238581800D03*
X149795600Y-109122200D03*
X210523600Y-151200000D03*
X220640300Y-226521400D03*
X152632000Y-151200000D03*
X151703200Y-270662800D03*
X159281800Y-282000000D03*
X209591500Y-152921000D03*
X153282600Y-282249500D03*
X221571500Y-227960000D03*
X151881700Y-153740000D03*
X151676200Y-111785700D03*
X453947000Y-85028700D03*
X406553100Y-94793600D03*
X452183900Y-86359600D03*
X406445800Y-96407000D03*
X448328100Y-90364000D03*
X409088000Y-97552400D03*
X424924700Y-135980000D03*
X456288700Y-86360100D03*
X413391100Y-98597200D03*
X455408300Y-85396500D03*
X414273200Y-99522600D03*
X431485900Y-91118300D03*
X428966300Y-92044500D03*
X448397000Y-279462300D03*
X301373500Y-159846200D03*
X286253200Y-226559100D03*
X287202600Y-225632500D03*
X290882200Y-198570800D03*
X151745800Y-219689100D03*
X284312200Y-224282200D03*
X289409500Y-220041800D03*
X262372100Y-207662400D03*
X154352900Y-223697200D03*
X294947100Y-222594000D03*
X294313500Y-223547500D03*
X289280300Y-218730900D03*
X154679300Y-234624900D03*
X324906600Y-132911900D03*
X347435800Y-111799000D03*
X346073000Y-105812200D03*
X349146400Y-105894500D03*
X336347600Y-126871800D03*
X336431600Y-123933800D03*
X391245600Y-267725500D03*
X420934600Y-279528100D03*
X412712100Y-305574900D03*
X198384300Y-305574900D03*
X168622000Y-299427200D03*
X193812100Y-306603100D03*
X163216700Y-270106300D03*
X461080800Y-266800200D03*
X189913600Y-212877000D03*
X183253800Y-206210800D03*
X253632500Y-297723800D03*
X189320200Y-302641000D03*
D32*
X463399300Y-310896000D02*
X462993300Y-310490000D01*
X484556000Y-310896000D02*
X463399300Y-310896000D01*
X461518000Y-310490000D02*
X462993300Y-310490000D01*
X391907500Y-300496500D02*
X389763000Y-302641000D01*
X416277500Y-300496500D02*
X391907500Y-300496500D01*
X426271000Y-310490000D02*
X416277500Y-300496500D01*
X461518000Y-310490000D02*
X426271000Y-310490000D01*
X482270000Y-309370700D02*
X479071300Y-306172000D01*
X489656000Y-309370700D02*
X482270000Y-309370700D01*
X489656000Y-310896000D02*
X489656000Y-309370700D01*
X380340000Y-94691000D02*
X372720000Y-94691000D01*
X478333700Y-306172000D02*
X479071300Y-306172000D01*
X478333700Y-306172000D02*
X477596000Y-306172000D01*
X476120700Y-306146000D02*
X467716000Y-297741300D01*
X476120700Y-306172000D02*
X476120700Y-306146000D01*
X477596000Y-306172000D02*
X476120700Y-306172000D01*
X467716000Y-296316000D02*
X467716000Y-297741300D01*
X465094500Y-282900500D02*
X459528600Y-282900500D01*
X468528000Y-286334000D02*
X465094500Y-282900500D01*
X417671300Y-310010400D02*
X265144400Y-310010400D01*
X419122700Y-308559000D02*
X417671300Y-310010400D01*
X420548000Y-308559000D02*
X419122700Y-308559000D01*
X429616000Y-291236000D02*
X428090700Y-291236000D01*
X423067100Y-296259600D02*
X428090700Y-291236000D01*
X399273100Y-296259600D02*
X423067100Y-296259600D01*
X396855800Y-298676900D02*
X399273100Y-296259600D01*
X181691700Y-298676900D02*
X396855800Y-298676900D01*
X181510600Y-298495800D02*
X181691700Y-298676900D01*
X185085300Y-132911900D02*
X175751500Y-132911900D01*
X217889900Y-100107300D02*
X185085300Y-132911900D01*
X359980400Y-100107300D02*
X217889900Y-100107300D01*
X361205700Y-98882000D02*
X359980400Y-100107300D01*
X131039000Y-227076000D02*
X129550100Y-227076000D01*
X362431000Y-98882000D02*
X361205700Y-98882000D01*
X126630800Y-221480000D02*
X127631900Y-221480000D01*
X125852200Y-222258600D02*
X126630800Y-221480000D01*
X125852200Y-223378100D02*
X125852200Y-222258600D01*
X129550100Y-227076000D02*
X125852200Y-223378100D01*
X349455000Y-115748000D02*
X330610200Y-115748000D01*
X288384900Y-217980600D02*
X289280300Y-217085200D01*
X170262300Y-217980600D02*
X288384900Y-217980600D01*
X158626900Y-229616000D02*
X170262300Y-217980600D01*
X133579000Y-229616000D02*
X158626900Y-229616000D01*
X353949900Y-96284600D02*
X361997500Y-96284600D01*
X350629300Y-92964000D02*
X353949900Y-96284600D01*
X350016700Y-92964000D02*
X350629300Y-92964000D01*
X350016700Y-92964000D02*
X349404000Y-92964000D01*
X128853200Y-222692900D02*
X129550100Y-221996000D01*
X126794100Y-222692900D02*
X128853200Y-222692900D01*
X131039000Y-221996000D02*
X129550100Y-221996000D01*
X188070500Y-123123100D02*
X169251800Y-123123100D01*
X218229600Y-92964000D02*
X188070500Y-123123100D01*
X349404000Y-92964000D02*
X218229600Y-92964000D01*
X462194000Y-303253300D02*
X461638300Y-303809000D01*
X466121000Y-303253300D02*
X462194000Y-303253300D01*
X459613000Y-303809000D02*
X461638300Y-303809000D01*
X389638000Y-94183200D02*
X388412700Y-94183200D01*
X385404900Y-97191000D02*
X376340000Y-97191000D01*
X388412700Y-94183200D02*
X385404900Y-97191000D01*
X199665900Y-135924800D02*
X175771700Y-135924800D01*
X234196300Y-101394400D02*
X199665900Y-135924800D01*
X365805100Y-101394400D02*
X234196300Y-101394400D01*
X370008500Y-97191000D02*
X365805100Y-101394400D01*
X376340000Y-97191000D02*
X370008500Y-97191000D01*
X153506100Y-221996000D02*
X155631900Y-219870200D01*
X133579000Y-221996000D02*
X153506100Y-221996000D01*
X405435000Y-302692000D02*
X404009700Y-302692000D01*
X312141000Y-227176700D02*
X312141000Y-226924000D01*
X310372800Y-228944900D02*
X312141000Y-227176700D01*
X304751100Y-228944900D02*
X310372800Y-228944900D01*
X286309700Y-247386300D02*
X304751100Y-228944900D01*
X255253000Y-247386300D02*
X286309700Y-247386300D01*
X373760300Y-300452700D02*
X259691100Y-300452700D01*
X378103100Y-304795500D02*
X373760300Y-300452700D01*
X401906200Y-304795500D02*
X378103100Y-304795500D01*
X404009700Y-302692000D02*
X401906200Y-304795500D01*
X396673500Y-285663400D02*
X400779300Y-289769200D01*
X235571500Y-285663400D02*
X396673500Y-285663400D01*
X234276200Y-249570200D02*
X232290700Y-251555700D01*
X234276200Y-248505000D02*
X234276200Y-249570200D01*
X238933600Y-243847600D02*
X234276200Y-248505000D01*
X252494600Y-243847600D02*
X238933600Y-243847600D01*
X254193900Y-245546900D02*
X252494600Y-243847600D01*
X286840500Y-245546900D02*
X254193900Y-245546900D01*
X133400000Y-151200000D02*
X130885300Y-151200000D01*
X184878300Y-151200000D02*
X188800000Y-151200000D01*
X181708000Y-141499000D02*
X132042300Y-141499000D01*
X184878300Y-144669300D02*
X181708000Y-141499000D01*
X164412900Y-288152200D02*
X163591400Y-288973700D01*
X198190800Y-288152200D02*
X164412900Y-288152200D01*
X204343000Y-282000000D02*
X198190800Y-288152200D01*
X224856900Y-248666500D02*
X223671100Y-247480700D01*
X227900900Y-248666500D02*
X224856900Y-248666500D01*
X153636400Y-279460000D02*
X148100000Y-279460000D01*
X158313300Y-274783100D02*
X153636400Y-279460000D01*
X179991700Y-274783100D02*
X158313300Y-274783100D01*
X180983000Y-275774400D02*
X179991700Y-274783100D01*
X193885500Y-275774400D02*
X180983000Y-275774400D01*
X195660200Y-277549100D02*
X193885500Y-275774400D01*
X202432100Y-277549100D02*
X195660200Y-277549100D01*
X204343000Y-279460000D02*
X202432100Y-277549100D01*
X139528400Y-159868400D02*
X133400000Y-153740000D01*
X187693300Y-159868400D02*
X139528400Y-159868400D01*
X189742900Y-149602900D02*
X191340000Y-151200000D01*
X186323100Y-149602900D02*
X189742900Y-149602900D01*
X186145300Y-149780700D02*
X186323100Y-149602900D01*
X236481000Y-241559400D02*
X222682800Y-241559400D01*
X196401200Y-287401800D02*
X201803000Y-282000000D01*
X160888600Y-287401800D02*
X196401200Y-287401800D01*
X135940000Y-146290100D02*
X135940000Y-151200000D01*
X135978500Y-146251600D02*
X135940000Y-146290100D01*
X183663200Y-146251600D02*
X135978500Y-146251600D01*
X131569800Y-146290100D02*
X130162400Y-144882700D01*
X135940000Y-146290100D02*
X131569800Y-146290100D01*
X185411600Y-106505200D02*
X185239800Y-106333400D01*
X189774800Y-106505200D02*
X185411600Y-106505200D01*
X191340000Y-104940000D02*
X189774800Y-106505200D01*
X143773700Y-112773700D02*
X181785400Y-112773700D01*
X135940000Y-104940000D02*
X143773700Y-112773700D01*
X188920400Y-158060100D02*
X189809300Y-158949000D01*
X184292400Y-158060100D02*
X188920400Y-158060100D01*
X200220100Y-272598200D02*
X182298800Y-272598200D01*
X201803000Y-274181100D02*
X200220100Y-272598200D01*
X155199600Y-273068900D02*
X146098700Y-273068900D01*
X156486600Y-271781900D02*
X155199600Y-273068900D01*
X181482500Y-271781900D02*
X156486600Y-271781900D01*
X182298800Y-272598200D02*
X181482500Y-271781900D01*
X140260100Y-158060100D02*
X135940000Y-153740000D01*
X184292400Y-158060100D02*
X140260100Y-158060100D01*
X141870200Y-99009800D02*
X190489800Y-99009800D01*
X138480000Y-102400000D02*
X141870200Y-99009800D01*
X195980800Y-285282200D02*
X180432400Y-285282200D01*
X199263000Y-282000000D02*
X195980800Y-285282200D01*
X191532600Y-148852600D02*
X193880000Y-151200000D01*
X179552800Y-148852600D02*
X191532600Y-148852600D01*
X157498100Y-149448900D02*
X163994600Y-149448900D01*
X156901800Y-148852600D02*
X157498100Y-149448900D01*
X144599100Y-148852600D02*
X156901800Y-148852600D01*
X143848800Y-149602900D02*
X144599100Y-148852600D01*
X140077100Y-149602900D02*
X143848800Y-149602900D01*
X138480000Y-151200000D02*
X140077100Y-149602900D01*
X164590900Y-148852600D02*
X179552800Y-148852600D01*
X163994600Y-149448900D02*
X164590900Y-148852600D01*
X177979200Y-285282200D02*
X180432400Y-285282200D01*
X176622100Y-283925100D02*
X177979200Y-285282200D01*
X144945100Y-283925100D02*
X176622100Y-283925100D01*
X143020000Y-282000000D02*
X144945100Y-283925100D01*
X151167200Y-107279900D02*
X150662600Y-107784500D01*
X191540100Y-107279900D02*
X151167200Y-107279900D01*
X193880000Y-104940000D02*
X191540100Y-107279900D01*
X155805700Y-155307200D02*
X154034600Y-153536100D01*
X192312800Y-155307200D02*
X155805700Y-155307200D01*
X193880000Y-153740000D02*
X192312800Y-155307200D01*
X227611800Y-246405600D02*
X224738000Y-246405600D01*
X229254400Y-244763000D02*
X227611800Y-246405600D01*
X146985100Y-275494900D02*
X143020000Y-279460000D01*
X156540400Y-275494900D02*
X146985100Y-275494900D01*
X158002500Y-274032800D02*
X156540400Y-275494900D01*
X180302500Y-274032800D02*
X158002500Y-274032800D01*
X181293800Y-275024100D02*
X180302500Y-274032800D01*
X194201500Y-275024100D02*
X181293800Y-275024100D01*
X195976200Y-276798800D02*
X194201500Y-275024100D01*
X199052700Y-276798800D02*
X195976200Y-276798800D01*
X199263000Y-276588500D02*
X199052700Y-276798800D01*
X140045100Y-155305100D02*
X138480000Y-153740000D01*
X150297100Y-155305100D02*
X140045100Y-155305100D01*
X150893400Y-154708800D02*
X150297100Y-155305100D01*
X152861900Y-154708800D02*
X150893400Y-154708800D01*
X154034600Y-153536100D02*
X152861900Y-154708800D01*
X157460200Y-148102300D02*
X157647900Y-148290000D01*
X143966400Y-148102300D02*
X157460200Y-148102300D01*
X238535500Y-243097300D02*
X232281600Y-249351200D01*
X252869700Y-243097300D02*
X238535500Y-243097300D01*
X254555800Y-244783400D02*
X252869700Y-243097300D01*
X269630500Y-244783400D02*
X254555800Y-244783400D01*
X270610100Y-243803800D02*
X269630500Y-244783400D01*
X270610100Y-237190100D02*
X270610100Y-243803800D01*
X269000000Y-235580000D02*
X270610100Y-237190100D01*
X158063700Y-147874200D02*
X157647900Y-148290000D01*
X179936100Y-147874200D02*
X158063700Y-147874200D01*
X180164200Y-148102300D02*
X179936100Y-147874200D01*
X193322300Y-148102300D02*
X180164200Y-148102300D01*
X196420000Y-151200000D02*
X193322300Y-148102300D01*
X161515700Y-286237600D02*
X196227600Y-286237600D01*
X159953500Y-284675400D02*
X161515700Y-286237600D01*
X143155400Y-284675400D02*
X159953500Y-284675400D01*
X140480000Y-282000000D02*
X143155400Y-284675400D01*
X169769500Y-110714200D02*
X190645800Y-110714200D01*
X178742500Y-156191300D02*
X178742500Y-156232500D01*
X178793100Y-156140700D02*
X178742500Y-156191300D01*
X194019300Y-156140700D02*
X178793100Y-156140700D01*
X196420000Y-153740000D02*
X194019300Y-156140700D01*
X145195400Y-274744600D02*
X140480000Y-279460000D01*
X155646100Y-274744600D02*
X145195400Y-274744600D01*
X157108200Y-273282500D02*
X155646100Y-274744600D01*
X180613300Y-273282500D02*
X157108200Y-273282500D01*
X181604600Y-274273800D02*
X180613300Y-273282500D01*
X195510300Y-274273800D02*
X181604600Y-274273800D01*
X197067100Y-275830600D02*
X195510300Y-274273800D01*
X150432900Y-156230500D02*
X143402800Y-156230500D01*
X150872600Y-155790800D02*
X150432900Y-156230500D01*
X152302400Y-155790800D02*
X150872600Y-155790800D01*
X152702900Y-156191300D02*
X152302400Y-155790800D01*
X178742500Y-156191300D02*
X152702900Y-156191300D01*
X169685900Y-110797800D02*
X169769500Y-110714200D01*
X146877800Y-110797800D02*
X169685900Y-110797800D01*
X141020000Y-104940000D02*
X146877800Y-110797800D01*
X159910200Y-100816500D02*
X155013000Y-105713700D01*
X197376500Y-100816500D02*
X159910200Y-100816500D01*
X198960000Y-102400000D02*
X197376500Y-100816500D01*
X145157100Y-149602900D02*
X143560000Y-151200000D01*
X154288000Y-149602900D02*
X145157100Y-149602900D01*
X155731300Y-151046200D02*
X154288000Y-149602900D01*
X250555200Y-195511800D02*
X215015300Y-195511800D01*
X179003300Y-295049100D02*
X184577100Y-289475300D01*
X150989100Y-295049100D02*
X179003300Y-295049100D01*
X137940000Y-282000000D02*
X150989100Y-295049100D01*
X155253100Y-109180200D02*
X155027500Y-109405800D01*
X194719800Y-109180200D02*
X155253100Y-109180200D01*
X236868700Y-243641800D02*
X217625500Y-243641800D01*
X239125900Y-241384600D02*
X236868700Y-243641800D01*
X258115400Y-241384600D02*
X239125900Y-241384600D01*
X266460000Y-233040000D02*
X258115400Y-241384600D01*
X143405700Y-273994300D02*
X137940000Y-279460000D01*
X155335300Y-273994300D02*
X143405700Y-273994300D01*
X156797400Y-272532200D02*
X155335300Y-273994300D01*
X180924100Y-272532200D02*
X156797400Y-272532200D01*
X181915400Y-273523500D02*
X180924100Y-272532200D01*
X196078500Y-273523500D02*
X181915400Y-273523500D01*
X152360800Y-157157800D02*
X151924200Y-156721200D01*
X181083500Y-157157800D02*
X152360800Y-157157800D01*
X181350300Y-156891000D02*
X181083500Y-157157800D01*
X195809000Y-156891000D02*
X181350300Y-156891000D01*
X198960000Y-153740000D02*
X195809000Y-156891000D01*
X154385800Y-110047500D02*
X155027500Y-109405800D01*
X148667500Y-110047500D02*
X154385800Y-110047500D01*
X143560000Y-104940000D02*
X148667500Y-110047500D01*
X201500000Y-151200000D02*
X201500000Y-147875400D01*
X201500000Y-147875400D02*
X211495900Y-147875400D01*
X153351800Y-147176900D02*
X148848000Y-147176900D01*
X261570000Y-217055300D02*
X220710300Y-217055300D01*
X153404800Y-147123900D02*
X153351800Y-147176900D01*
X180246900Y-147123900D02*
X153404800Y-147123900D01*
X180299900Y-147176900D02*
X180246900Y-147123900D01*
X200801500Y-147176900D02*
X180299900Y-147176900D01*
X201500000Y-147875400D02*
X200801500Y-147176900D01*
X151345900Y-283174800D02*
X151136200Y-282965100D01*
X178039200Y-283174800D02*
X151345900Y-283174800D01*
X178441700Y-283577300D02*
X178039200Y-283174800D01*
X190065700Y-283577300D02*
X178441700Y-283577300D01*
X191643000Y-282000000D02*
X190065700Y-283577300D01*
X142729700Y-272130300D02*
X135400000Y-279460000D01*
X154724200Y-272130300D02*
X142729700Y-272130300D01*
X210880600Y-150223400D02*
X208420600Y-150223400D01*
X211463900Y-150806700D02*
X210880600Y-150223400D01*
X211463900Y-152364500D02*
X211463900Y-150806700D01*
X208508400Y-155320000D02*
X211463900Y-152364500D01*
X203080000Y-155320000D02*
X208508400Y-155320000D01*
X201500000Y-153740000D02*
X203080000Y-155320000D01*
X258378200Y-238581800D02*
X213168100Y-238581800D01*
X266460000Y-230500000D02*
X258378200Y-238581800D01*
X158871500Y-275533400D02*
X158674500Y-275730400D01*
X179680900Y-275533400D02*
X158871500Y-275533400D01*
X180672200Y-276524700D02*
X179680900Y-275533400D01*
X188707700Y-276524700D02*
X180672200Y-276524700D01*
X191643000Y-279460000D02*
X188707700Y-276524700D01*
X149795600Y-108709800D02*
X149795600Y-109122200D01*
X151045900Y-108709800D02*
X149795600Y-108709800D01*
X151535700Y-108220000D02*
X151045900Y-108709800D01*
X198929200Y-108220000D02*
X151535700Y-108220000D01*
X146100000Y-105014200D02*
X146100000Y-104940000D01*
X149795600Y-108709800D02*
X146100000Y-105014200D01*
X204040000Y-151200000D02*
X210523600Y-151200000D01*
X148640000Y-151200000D02*
X152632000Y-151200000D01*
X150973800Y-100066200D02*
X148640000Y-102400000D01*
X201706200Y-100066200D02*
X150973800Y-100066200D01*
X204040000Y-102400000D02*
X201706200Y-100066200D01*
X220816200Y-226345500D02*
X220640300Y-226521400D01*
X267385500Y-226345500D02*
X220816200Y-226345500D01*
X269000000Y-227960000D02*
X267385500Y-226345500D01*
X139404400Y-270662800D02*
X151703200Y-270662800D01*
X131293700Y-278773500D02*
X139404400Y-270662800D01*
X131293700Y-280433700D02*
X131293700Y-278773500D01*
X132860000Y-282000000D02*
X131293700Y-280433700D01*
X189103000Y-282000000D02*
X159281800Y-282000000D01*
X208772500Y-153740000D02*
X209591500Y-152921000D01*
X204040000Y-153740000D02*
X208772500Y-153740000D01*
X148640000Y-153740000D02*
X151881700Y-153740000D01*
X266460000Y-227960000D02*
X221571500Y-227960000D01*
X197194300Y-111785700D02*
X151676200Y-111785700D01*
X204040000Y-104940000D02*
X197194300Y-111785700D01*
X153464200Y-282249500D02*
X153282600Y-282249500D01*
X159430000Y-276283700D02*
X153464200Y-282249500D01*
X179370100Y-276283700D02*
X159430000Y-276283700D01*
X182546400Y-279460000D02*
X179370100Y-276283700D01*
X189103000Y-279460000D02*
X182546400Y-279460000D01*
X451698600Y-85028700D02*
X453947000Y-85028700D01*
X450184000Y-86543300D02*
X451698600Y-85028700D01*
X450184000Y-88543600D02*
X450184000Y-86543300D01*
X450184000Y-94793600D02*
X406553100Y-94793600D01*
X452184000Y-86359600D02*
X452183900Y-86359600D01*
X452184000Y-88543600D02*
X452184000Y-86359600D01*
X452184000Y-94793600D02*
X452184000Y-96793900D01*
X433738600Y-96407000D02*
X406445800Y-96407000D01*
X434125500Y-96793900D02*
X433738600Y-96407000D01*
X452184000Y-96793900D02*
X434125500Y-96793900D01*
X454184000Y-88543600D02*
X454184000Y-90543900D01*
X448508000Y-90543900D02*
X448328100Y-90364000D01*
X454184000Y-90543900D02*
X448508000Y-90543900D01*
X453425500Y-97552400D02*
X409088000Y-97552400D01*
X454184000Y-96793900D02*
X453425500Y-97552400D01*
X454184000Y-94793600D02*
X454184000Y-96793900D01*
X456184000Y-86464800D02*
X456184000Y-88543600D01*
X456288700Y-86360100D02*
X456184000Y-86464800D01*
X408600000Y-135980000D02*
X424924700Y-135980000D01*
X454380700Y-98597200D02*
X413391100Y-98597200D01*
X456184000Y-96793900D02*
X454380700Y-98597200D01*
X456184000Y-94793600D02*
X456184000Y-96793900D01*
X458184000Y-88543600D02*
X458184000Y-86543300D01*
X457037200Y-85396500D02*
X455408300Y-85396500D01*
X458184000Y-86543300D02*
X457037200Y-85396500D01*
X455455300Y-99522600D02*
X414273200Y-99522600D01*
X458184000Y-96793900D02*
X455455300Y-99522600D01*
X458184000Y-94793600D02*
X458184000Y-96793900D01*
X460184000Y-88543600D02*
X460184000Y-90543900D01*
X431661800Y-91294200D02*
X431485900Y-91118300D01*
X459433700Y-91294200D02*
X431661800Y-91294200D01*
X460184000Y-90543900D02*
X459433700Y-91294200D01*
X460184000Y-94793600D02*
X460184000Y-96793900D01*
X456469400Y-100508500D02*
X460184000Y-96793900D01*
X431688200Y-100508500D02*
X456469400Y-100508500D01*
X404447600Y-127749100D02*
X431688200Y-100508500D01*
X404447600Y-129287600D02*
X404447600Y-127749100D01*
X406060000Y-130900000D02*
X404447600Y-129287600D01*
X462184000Y-88543600D02*
X462184000Y-90543900D01*
X461245000Y-90543900D02*
X462184000Y-90543900D01*
X461245000Y-90544000D02*
X461245000Y-90543900D01*
X459744500Y-92044500D02*
X461245000Y-90544000D01*
X428966300Y-92044500D02*
X459744500Y-92044500D01*
X462184000Y-94793600D02*
X462184000Y-96793900D01*
X457719100Y-101258800D02*
X462184000Y-96793900D01*
X433161200Y-101258800D02*
X457719100Y-101258800D01*
X406060000Y-128360000D02*
X433161200Y-101258800D01*
X372720000Y-89691000D02*
X380340000Y-89691000D01*
X479069000Y-285090000D02*
X477768700Y-285090000D01*
X474651800Y-281973100D02*
X477768700Y-285090000D01*
X458430900Y-281973100D02*
X474651800Y-281973100D01*
X455729400Y-279271600D02*
X458430900Y-281973100D01*
X448587700Y-279271600D02*
X455729400Y-279271600D01*
X448397000Y-279462300D02*
X448587700Y-279271600D01*
X302553800Y-159846200D02*
X301373500Y-159846200D01*
X306000000Y-156400000D02*
X302553800Y-159846200D01*
X282778600Y-226559100D02*
X286253200Y-226559100D01*
X281814700Y-225595200D02*
X282778600Y-226559100D01*
X220051400Y-225595200D02*
X281814700Y-225595200D01*
X205349900Y-240296700D02*
X220051400Y-225595200D01*
X160998300Y-240296700D02*
X205349900Y-240296700D01*
X158979000Y-242316000D02*
X160998300Y-240296700D01*
X282913300Y-225632500D02*
X287202600Y-225632500D01*
X282125700Y-224844900D02*
X282913300Y-225632500D01*
X216250300Y-224844900D02*
X282125700Y-224844900D01*
X201591400Y-239503800D02*
X216250300Y-224844900D01*
X159671000Y-239503800D02*
X201591400Y-239503800D01*
X157490000Y-241684800D02*
X159671000Y-239503800D01*
X157490000Y-241954500D02*
X157490000Y-241684800D01*
X154882800Y-244561700D02*
X157490000Y-241954500D01*
X138364700Y-244561700D02*
X154882800Y-244561700D01*
X136119000Y-242316000D02*
X138364700Y-244561700D01*
X175391300Y-198570800D02*
X290882200Y-198570800D01*
X161897000Y-212065100D02*
X175391300Y-198570800D01*
X159369800Y-212065100D02*
X161897000Y-212065100D01*
X151745800Y-219689100D02*
X159369800Y-212065100D01*
X284124600Y-224094600D02*
X284312200Y-224282200D01*
X171472100Y-224094600D02*
X284124600Y-224094600D01*
X156439000Y-239127700D02*
X171472100Y-224094600D01*
X156439000Y-241904800D02*
X156439000Y-239127700D01*
X154532600Y-243811200D02*
X156439000Y-241904800D01*
X142694200Y-243811200D02*
X154532600Y-243811200D01*
X141199000Y-242316000D02*
X142694200Y-243811200D01*
X146302900Y-239752100D02*
X143739000Y-242316000D01*
X151175500Y-239752100D02*
X146302900Y-239752100D01*
X170885800Y-220041800D02*
X151175500Y-239752100D01*
X289409500Y-220041800D02*
X170885800Y-220041800D01*
X162795200Y-223697200D02*
X154352900Y-223697200D01*
X178830000Y-207662400D02*
X162795200Y-223697200D01*
X262372100Y-207662400D02*
X178830000Y-207662400D01*
X150632500Y-240502500D02*
X148819000Y-242316000D01*
X151486200Y-240502500D02*
X150632500Y-240502500D01*
X169394700Y-222594000D02*
X151486200Y-240502500D01*
X294947100Y-222594000D02*
X169394700Y-222594000D01*
X170330700Y-223344300D02*
X151359000Y-242316000D01*
X294110300Y-223344300D02*
X170330700Y-223344300D01*
X294313500Y-223547500D02*
X294110300Y-223344300D01*
X170573300Y-218730900D02*
X289280300Y-218730900D01*
X154679300Y-234624900D02*
X170573300Y-218730900D01*
X392586200Y-119174800D02*
X396242000Y-115519000D01*
X346563100Y-119174800D02*
X392586200Y-119174800D01*
X332826000Y-132911900D02*
X346563100Y-119174800D01*
X324906600Y-132911900D02*
X332826000Y-132911900D01*
X392476300Y-121824700D02*
X398782000Y-115519000D01*
X392476300Y-121824800D02*
X392476300Y-121824700D01*
X345111300Y-121824800D02*
X392476300Y-121824800D01*
X321260000Y-145676100D02*
X345111300Y-121824800D01*
X321260000Y-151320000D02*
X321260000Y-145676100D01*
X391390400Y-102590800D02*
X399798000Y-94183200D01*
X361940400Y-102590800D02*
X391390400Y-102590800D01*
X356249600Y-108281600D02*
X361940400Y-102590800D01*
X349996000Y-108281600D02*
X356249600Y-108281600D01*
X347435800Y-110841800D02*
X349996000Y-108281600D01*
X347435800Y-111799000D02*
X347435800Y-110841800D01*
X349064100Y-105812200D02*
X349146400Y-105894500D01*
X346073000Y-105812200D02*
X349064100Y-105812200D01*
X357639300Y-117723700D02*
X359615000Y-115748000D01*
X345495700Y-117723700D02*
X357639300Y-117723700D01*
X336347600Y-126871800D02*
X345495700Y-117723700D01*
X343392000Y-116973400D02*
X336431600Y-123933800D01*
X355849600Y-116973400D02*
X343392000Y-116973400D01*
X357075000Y-115748000D02*
X355849600Y-116973400D01*
X460841500Y-267725500D02*
X472592000Y-279476000D01*
X391245600Y-267725500D02*
X460841500Y-267725500D01*
X427897400Y-279528100D02*
X420934600Y-279528100D01*
X428904200Y-278521300D02*
X427897400Y-279528100D01*
X456228000Y-278521300D02*
X428904200Y-278521300D01*
X458741900Y-281035200D02*
X456228000Y-278521300D01*
X473572800Y-281035200D02*
X458741900Y-281035200D01*
X475132000Y-279476000D02*
X473572800Y-281035200D01*
X372720000Y-99691000D02*
X380340000Y-99691000D01*
X198384300Y-305574900D02*
X412712100Y-305574900D01*
X417410200Y-299427200D02*
X420675000Y-302692000D01*
X168622000Y-299427200D02*
X417410200Y-299427200D01*
X403352100Y-306603100D02*
X193812100Y-306603100D01*
X405308000Y-308559000D02*
X403352100Y-306603100D01*
X200966800Y-270106300D02*
X163216700Y-270106300D01*
X214715800Y-283855300D02*
X200966800Y-270106300D01*
X396174000Y-283855300D02*
X214715800Y-283855300D01*
X405587000Y-293268300D02*
X396174000Y-283855300D01*
X405587000Y-293649000D02*
X405587000Y-293268300D01*
X409696300Y-289458000D02*
X405867000Y-289458000D01*
X409696300Y-289457900D02*
X409696300Y-289458000D01*
X420551400Y-278602800D02*
X409696300Y-289457900D01*
X427386300Y-278602800D02*
X420551400Y-278602800D01*
X428218100Y-277771000D02*
X427386300Y-278602800D01*
X468347000Y-277771000D02*
X428218100Y-277771000D01*
X470052000Y-279476000D02*
X468347000Y-277771000D01*
X462407800Y-266800200D02*
X461080800Y-266800200D01*
X464972000Y-264236000D02*
X462407800Y-266800200D01*
X427048700Y-282118000D02*
X428090700Y-281076000D01*
X420675000Y-282118000D02*
X427048700Y-282118000D01*
X429616000Y-281076000D02*
X428090700Y-281076000D01*
X488340000Y-286131000D02*
X486864700Y-286131000D01*
X468006000Y-307950000D02*
X470038000Y-305918000D01*
X461518000Y-307950000D02*
X468006000Y-307950000D01*
X485905700Y-287090000D02*
X479069000Y-287090000D01*
X486864700Y-286131000D02*
X485905700Y-287090000D01*
X478141700Y-288390300D02*
X470216000Y-296316000D01*
X479069000Y-288390300D02*
X478141700Y-288390300D01*
X479069000Y-287090000D02*
X479069000Y-288390300D01*
X382145000Y-103962000D02*
X388622000Y-110439000D01*
X362431000Y-103962000D02*
X382145000Y-103962000D01*
X467549000Y-293649000D02*
X470216000Y-296316000D01*
X459613000Y-293649000D02*
X467549000Y-293649000D01*
X444627000Y-280797000D02*
X439598000Y-280797000D01*
X436729300Y-280797000D02*
X436500300Y-281026000D01*
X439598000Y-280797000D02*
X436729300Y-280797000D01*
X435737700Y-281026000D02*
X436500300Y-281026000D01*
X435737700Y-281026000D02*
X434975000Y-281026000D01*
X431191300Y-281026000D02*
X431141300Y-281076000D01*
X434975000Y-281026000D02*
X431191300Y-281026000D01*
X429616000Y-281076000D02*
X431141300Y-281076000D01*
X309601000Y-226924000D02*
X308075700Y-226924000D01*
X294028700Y-212877000D02*
X268986000Y-212877000D01*
X308075700Y-226924000D02*
X294028700Y-212877000D01*
X444627000Y-280797000D02*
X450113000Y-280797000D01*
X350672600Y-86615400D02*
X349404000Y-87884000D01*
X387150200Y-86615400D02*
X350672600Y-86615400D01*
X389638000Y-89103200D02*
X387150200Y-86615400D01*
X266446000Y-212877000D02*
X189913600Y-212877000D01*
X269617400Y-206210800D02*
X183253800Y-206210800D01*
X270574200Y-207167600D02*
X269617400Y-206210800D01*
X270574200Y-208748800D02*
X270574200Y-207167600D01*
X268986000Y-210337000D02*
X270574200Y-208748800D01*
X391857400Y-297926600D02*
X394763000Y-295021000D01*
X253835300Y-297926600D02*
X391857400Y-297926600D01*
X253632500Y-297723800D02*
X253835300Y-297926600D01*
X135129400Y-233706400D02*
X133579000Y-232156000D01*
X135129400Y-238225600D02*
X135129400Y-233706400D01*
X134614600Y-238740400D02*
X135129400Y-238225600D01*
X134614600Y-242931400D02*
X134614600Y-238740400D01*
X162714800Y-271031600D02*
X134614600Y-242931400D01*
X200831000Y-271031600D02*
X162714800Y-271031600D01*
X224820400Y-295021000D02*
X200831000Y-271031600D01*
X369443000Y-295021000D02*
X224820400Y-295021000D01*
X369443000Y-302641000D02*
X189320200Y-302641000D01*
X420599000Y-276657000D02*
X419173700Y-276657000D01*
X413712700Y-282118000D02*
X405435000Y-282118000D01*
X419173700Y-276657000D02*
X413712700Y-282118000D01*
X170038300Y-245755300D02*
X166599000Y-242316000D01*
X178086400Y-245755300D02*
X170038300Y-245755300D01*
X214449100Y-282118000D02*
X178086400Y-245755300D01*
X405435000Y-282118000D02*
X214449100Y-282118000D01*
M02*
