G04 #@! TF.FileFunction,Legend,Top*
%FSLAX46Y46*%
G04 Gerber Fmt 4.6, Leading zero omitted, Abs format (unit mm)*
G04 Created by KiCad (PCBNEW 4.0.6) date 02/07/20 07:53:38*
%MOMM*%
%LPD*%
G01*
G04 APERTURE LIST*
%ADD10C,0.100000*%
%ADD11C,0.584200*%
%ADD12C,0.152400*%
%ADD13C,0.203200*%
%ADD14C,0.127000*%
G04 APERTURE END LIST*
D10*
D11*
X82575400Y-58319005D02*
X80906257Y-58319005D01*
X81740828Y-58319005D02*
X81740828Y-55398005D01*
X81462638Y-55815290D01*
X81184447Y-56093481D01*
X80906257Y-56232576D01*
X83688162Y-55676195D02*
X83827257Y-55537100D01*
X84105448Y-55398005D01*
X84800924Y-55398005D01*
X85079114Y-55537100D01*
X85218210Y-55676195D01*
X85357305Y-55954386D01*
X85357305Y-56232576D01*
X85218210Y-56649862D01*
X83549067Y-58319005D01*
X85357305Y-58319005D01*
X88417400Y-55398005D02*
X89391067Y-58319005D01*
X90364734Y-55398005D01*
X91338400Y-58319005D02*
X91338400Y-55398005D01*
X92033876Y-55398005D01*
X92451162Y-55537100D01*
X92729353Y-55815290D01*
X92868448Y-56093481D01*
X93007543Y-56649862D01*
X93007543Y-57067148D01*
X92868448Y-57623529D01*
X92729353Y-57901719D01*
X92451162Y-58179910D01*
X92033876Y-58319005D01*
X91338400Y-58319005D01*
X95928543Y-58040814D02*
X95789448Y-58179910D01*
X95372162Y-58319005D01*
X95093972Y-58319005D01*
X94676686Y-58179910D01*
X94398495Y-57901719D01*
X94259400Y-57623529D01*
X94120305Y-57067148D01*
X94120305Y-56649862D01*
X94259400Y-56093481D01*
X94398495Y-55815290D01*
X94676686Y-55537100D01*
X95093972Y-55398005D01*
X95372162Y-55398005D01*
X95789448Y-55537100D01*
X95928543Y-55676195D01*
D12*
X82092800Y-38392100D02*
X81457800Y-39027100D01*
X81457800Y-40297100D02*
X82092800Y-40932100D01*
X82092800Y-40932100D02*
X81457800Y-41567100D01*
X81457800Y-42837100D02*
X82092800Y-43472100D01*
X82092800Y-43472100D02*
X81457800Y-44107100D01*
X81457800Y-45377100D02*
X82092800Y-46012100D01*
X82092800Y-46012100D02*
X81457800Y-46647100D01*
X81457800Y-47917100D02*
X82092800Y-48552100D01*
X82092800Y-38392100D02*
X85902800Y-38392100D01*
X85902800Y-38392100D02*
X86537800Y-39027100D01*
X86537800Y-39027100D02*
X86537800Y-40297100D01*
X86537800Y-40297100D02*
X85902800Y-40932100D01*
X85902800Y-40932100D02*
X86537800Y-41567100D01*
X86537800Y-41567100D02*
X86537800Y-42837100D01*
X86537800Y-42837100D02*
X85902800Y-43472100D01*
X85902800Y-43472100D02*
X86537800Y-44107100D01*
X86537800Y-44107100D02*
X86537800Y-45377100D01*
X86537800Y-45377100D02*
X85902800Y-46012100D01*
X85902800Y-46012100D02*
X86537800Y-46647100D01*
X86537800Y-46647100D02*
X86537800Y-47917100D01*
X86537800Y-47917100D02*
X85902800Y-48552100D01*
X85902800Y-40932100D02*
X82092800Y-40932100D01*
X85902800Y-43472100D02*
X82092800Y-43472100D01*
X85902800Y-46012100D02*
X82092800Y-46012100D01*
X85902800Y-48552100D02*
X82092800Y-48552100D01*
X81457800Y-46647100D02*
X81457800Y-47917100D01*
X81457800Y-44107100D02*
X81457800Y-45377100D01*
X81457800Y-41567100D02*
X81457800Y-42837100D01*
X81457800Y-39027100D02*
X81457800Y-40297100D01*
X82092800Y-48552100D02*
X81457800Y-49187100D01*
X81457800Y-50457100D02*
X82092800Y-51092100D01*
X85902800Y-48552100D02*
X86537800Y-49187100D01*
X86537800Y-49187100D02*
X86537800Y-50457100D01*
X86537800Y-50457100D02*
X85902800Y-51092100D01*
X85902800Y-51092100D02*
X82092800Y-51092100D01*
X81457800Y-49187100D02*
X81457800Y-50457100D01*
D13*
X81076800Y-39027100D02*
X81076800Y-40297100D01*
X81076800Y-39027100D02*
X81076800Y-40297100D01*
D11*
X83202134Y-33579405D02*
X83202134Y-35665833D01*
X83063038Y-36083119D01*
X82784848Y-36361310D01*
X82367562Y-36500405D01*
X82089372Y-36500405D01*
X84453991Y-33857595D02*
X84593086Y-33718500D01*
X84871277Y-33579405D01*
X85566753Y-33579405D01*
X85844943Y-33718500D01*
X85984039Y-33857595D01*
X86123134Y-34135786D01*
X86123134Y-34413976D01*
X85984039Y-34831262D01*
X84314896Y-36500405D01*
X86123134Y-36500405D01*
D14*
X80438171Y-50486127D02*
X80844571Y-50486127D01*
X80205943Y-50631270D02*
X80641371Y-50776413D01*
X80641371Y-50399041D01*
X80234971Y-49876527D02*
X80234971Y-50166813D01*
X80525257Y-50195842D01*
X80496229Y-50166813D01*
X80467200Y-50108756D01*
X80467200Y-49963613D01*
X80496229Y-49905556D01*
X80525257Y-49876527D01*
X80583314Y-49847499D01*
X80728457Y-49847499D01*
X80786514Y-49876527D01*
X80815543Y-49905556D01*
X80844571Y-49963613D01*
X80844571Y-50108756D01*
X80815543Y-50166813D01*
X80786514Y-50195842D01*
X80612343Y-49586242D02*
X80612343Y-49121785D01*
X80844571Y-48512185D02*
X80844571Y-48860528D01*
X80844571Y-48686356D02*
X80234971Y-48686356D01*
X80322057Y-48744413D01*
X80380114Y-48802471D01*
X80409143Y-48860528D01*
X80234971Y-47960642D02*
X80234971Y-48250928D01*
X80525257Y-48279957D01*
X80496229Y-48250928D01*
X80467200Y-48192871D01*
X80467200Y-48047728D01*
X80496229Y-47989671D01*
X80525257Y-47960642D01*
X80583314Y-47931614D01*
X80728457Y-47931614D01*
X80786514Y-47960642D01*
X80815543Y-47989671D01*
X80844571Y-48047728D01*
X80844571Y-48192871D01*
X80815543Y-48250928D01*
X80786514Y-48279957D01*
X80844571Y-47641329D02*
X80844571Y-47525214D01*
X80815543Y-47467157D01*
X80786514Y-47438129D01*
X80699429Y-47380071D01*
X80583314Y-47351043D01*
X80351086Y-47351043D01*
X80293029Y-47380071D01*
X80264000Y-47409100D01*
X80234971Y-47467157D01*
X80234971Y-47583271D01*
X80264000Y-47641329D01*
X80293029Y-47670357D01*
X80351086Y-47699386D01*
X80496229Y-47699386D01*
X80554286Y-47670357D01*
X80583314Y-47641329D01*
X80612343Y-47583271D01*
X80612343Y-47467157D01*
X80583314Y-47409100D01*
X80554286Y-47380071D01*
X80496229Y-47351043D01*
X80844571Y-46770472D02*
X80844571Y-47118815D01*
X80844571Y-46944643D02*
X80234971Y-46944643D01*
X80322057Y-47002700D01*
X80380114Y-47060758D01*
X80409143Y-47118815D01*
X80612343Y-46509215D02*
X80612343Y-46044758D01*
X80844571Y-45435158D02*
X80844571Y-45783501D01*
X80844571Y-45609329D02*
X80234971Y-45609329D01*
X80322057Y-45667386D01*
X80380114Y-45725444D01*
X80409143Y-45783501D01*
X80612343Y-45173901D02*
X80612343Y-44709444D01*
X80234971Y-44244987D02*
X80670400Y-44244987D01*
X80757486Y-44274015D01*
X80815543Y-44332072D01*
X80844571Y-44419158D01*
X80844571Y-44477215D01*
X80293029Y-43983730D02*
X80264000Y-43954701D01*
X80234971Y-43896644D01*
X80234971Y-43751501D01*
X80264000Y-43693444D01*
X80293029Y-43664415D01*
X80351086Y-43635387D01*
X80409143Y-43635387D01*
X80496229Y-43664415D01*
X80844571Y-44012758D01*
X80844571Y-43635387D01*
M02*
