G04 #@! TF.FileFunction,Legend,Bot*
%FSLAX46Y46*%
G04 Gerber Fmt 4.6, Leading zero omitted, Abs format (unit mm)*
G04 Created by KiCad (PCBNEW 4.0.6) date 02/18/20 12:40:55*
%MOMM*%
%LPD*%
G01*
G04 APERTURE LIST*
%ADD10C,0.100000*%
%ADD11C,0.150000*%
G04 APERTURE END LIST*
D10*
D11*
X227559000Y-191516000D02*
X227559000Y-244856000D01*
X128499000Y-204216000D02*
X128499000Y-193040000D01*
X125959000Y-206756000D02*
X128499000Y-204216000D01*
X125959000Y-241046000D02*
X125959000Y-206756000D01*
X128499000Y-243586000D02*
X125959000Y-241046000D01*
X128499000Y-244856000D02*
X128499000Y-243586000D01*
X130023000Y-191516000D02*
X128499000Y-193040000D01*
X227559000Y-244856000D02*
X128499000Y-244856000D01*
X227559000Y-191516000D02*
X130023000Y-191516000D01*
X227161857Y-190952381D02*
X227161857Y-189952381D01*
X226828523Y-190666667D01*
X226495190Y-189952381D01*
X226495190Y-190952381D01*
X225638047Y-190904762D02*
X225733285Y-190952381D01*
X225923762Y-190952381D01*
X226019000Y-190904762D01*
X226066619Y-190809524D01*
X226066619Y-190428571D01*
X226019000Y-190333333D01*
X225923762Y-190285714D01*
X225733285Y-190285714D01*
X225638047Y-190333333D01*
X225590428Y-190428571D01*
X225590428Y-190523810D01*
X226066619Y-190619048D01*
X224733285Y-190285714D02*
X224733285Y-191095238D01*
X224780904Y-191190476D01*
X224828523Y-191238095D01*
X224923762Y-191285714D01*
X225066619Y-191285714D01*
X225161857Y-191238095D01*
X224733285Y-190904762D02*
X224828523Y-190952381D01*
X225019000Y-190952381D01*
X225114238Y-190904762D01*
X225161857Y-190857143D01*
X225209476Y-190761905D01*
X225209476Y-190476190D01*
X225161857Y-190380952D01*
X225114238Y-190333333D01*
X225019000Y-190285714D01*
X224828523Y-190285714D01*
X224733285Y-190333333D01*
X223828523Y-190952381D02*
X223828523Y-190428571D01*
X223876142Y-190333333D01*
X223971380Y-190285714D01*
X224161857Y-190285714D01*
X224257095Y-190333333D01*
X223828523Y-190904762D02*
X223923761Y-190952381D01*
X224161857Y-190952381D01*
X224257095Y-190904762D01*
X224304714Y-190809524D01*
X224304714Y-190714286D01*
X224257095Y-190619048D01*
X224161857Y-190571429D01*
X223923761Y-190571429D01*
X223828523Y-190523810D01*
X222828523Y-190952381D02*
X223399952Y-190952381D01*
X223114238Y-190952381D02*
X223114238Y-189952381D01*
X223209476Y-190095238D01*
X223304714Y-190190476D01*
X223399952Y-190238095D01*
X165075000Y-213209143D02*
X165027381Y-213256762D01*
X165075000Y-213304381D01*
X165122619Y-213256762D01*
X165075000Y-213209143D01*
X165075000Y-213304381D01*
M02*
