G04 #@! TF.FileFunction,Soldermask,Bot*
%FSLAX46Y46*%
G04 Gerber Fmt 4.6, Leading zero omitted, Abs format (unit mm)*
G04 Created by KiCad (PCBNEW 4.0.6) date 02/18/20 12:40:55*
%MOMM*%
%LPD*%
G01*
G04 APERTURE LIST*
%ADD10C,0.100000*%
%ADD11C,2.082800*%
%ADD12R,2.000000X2.000000*%
%ADD13C,2.000000*%
%ADD14R,2.200000X2.200000*%
%ADD15C,2.200000*%
%ADD16O,2.200000X2.200000*%
%ADD17R,3.200000X3.200000*%
%ADD18O,3.200000X3.200000*%
%ADD19R,2.360000X2.360000*%
%ADD20C,2.360000*%
%ADD21C,3.600000*%
%ADD22R,1.750000X1.750000*%
%ADD23O,1.750000X1.750000*%
%ADD24R,1.600000X1.600000*%
%ADD25C,1.600000*%
%ADD26C,3.400000*%
%ADD27O,2.000000X2.000000*%
%ADD28O,2.127200X2.127200*%
%ADD29R,2.100000X2.100000*%
%ADD30O,2.100000X2.100000*%
%ADD31O,1.808000X3.216000*%
G04 APERTURE END LIST*
D10*
D11*
X133400000Y-102400000D03*
X133400000Y-99860000D03*
X135940000Y-102400000D03*
X135940000Y-99860000D03*
X138480000Y-102400000D03*
X138480000Y-99860000D03*
X141020000Y-102400000D03*
X141020000Y-99860000D03*
X143560000Y-102400000D03*
X143560000Y-99860000D03*
X146100000Y-102400000D03*
X146100000Y-99860000D03*
X148640000Y-102400000D03*
X148640000Y-99860000D03*
X188800000Y-102400000D03*
X188800000Y-99860000D03*
X191340000Y-102400000D03*
X191340000Y-99860000D03*
X193880000Y-102400000D03*
X193880000Y-99860000D03*
X196420000Y-102400000D03*
X196420000Y-99860000D03*
X198960000Y-102400000D03*
X198960000Y-99860000D03*
X201500000Y-102400000D03*
X201500000Y-99860000D03*
X204040000Y-102400000D03*
X204040000Y-99860000D03*
X188800000Y-151200000D03*
X188800000Y-148660000D03*
X191340000Y-151200000D03*
X191340000Y-148660000D03*
X193880000Y-151200000D03*
X193880000Y-148660000D03*
X196420000Y-151200000D03*
X196420000Y-148660000D03*
X198960000Y-151200000D03*
X198960000Y-148660000D03*
X201500000Y-151200000D03*
X201500000Y-148660000D03*
X204040000Y-151200000D03*
X204040000Y-148660000D03*
X134400000Y-151200000D03*
X134400000Y-148660000D03*
X136940000Y-151200000D03*
X136940000Y-148660000D03*
X139480000Y-151200000D03*
X139480000Y-148660000D03*
X142020000Y-151200000D03*
X142020000Y-148660000D03*
X144560000Y-151200000D03*
X144560000Y-148660000D03*
X147100000Y-151200000D03*
X147100000Y-148660000D03*
X149640000Y-151200000D03*
X149640000Y-148660000D03*
X133400000Y-280400000D03*
X133400000Y-277860000D03*
X135940000Y-280400000D03*
X135940000Y-277860000D03*
X138480000Y-280400000D03*
X138480000Y-277860000D03*
X141020000Y-280400000D03*
X141020000Y-277860000D03*
X143560000Y-280400000D03*
X143560000Y-277860000D03*
X146100000Y-280400000D03*
X146100000Y-277860000D03*
X148640000Y-280400000D03*
X148640000Y-277860000D03*
X188800000Y-280400000D03*
X188800000Y-277860000D03*
X191340000Y-280400000D03*
X191340000Y-277860000D03*
X193880000Y-280400000D03*
X193880000Y-277860000D03*
X196420000Y-280400000D03*
X196420000Y-277860000D03*
X198960000Y-280400000D03*
X198960000Y-277860000D03*
X201500000Y-280400000D03*
X201500000Y-277860000D03*
X204040000Y-280400000D03*
X204040000Y-277860000D03*
X133400000Y-258300000D03*
X133400000Y-255760000D03*
X135940000Y-258300000D03*
X135940000Y-255760000D03*
X138480000Y-258300000D03*
X138480000Y-255760000D03*
X141020000Y-258300000D03*
X141020000Y-255760000D03*
X143560000Y-258300000D03*
X143560000Y-255760000D03*
X146100000Y-258300000D03*
X146100000Y-255760000D03*
X148640000Y-258300000D03*
X148640000Y-255760000D03*
X188800000Y-258300000D03*
X188800000Y-255760000D03*
X191340000Y-258300000D03*
X191340000Y-255760000D03*
X193880000Y-258300000D03*
X193880000Y-255760000D03*
X196420000Y-258300000D03*
X196420000Y-255760000D03*
X198960000Y-258300000D03*
X198960000Y-255760000D03*
X201500000Y-258300000D03*
X201500000Y-255760000D03*
X204040000Y-258300000D03*
X204040000Y-255760000D03*
X269000000Y-243200000D03*
X266460000Y-243200000D03*
X269000000Y-240660000D03*
X266460000Y-240660000D03*
X269000000Y-238120000D03*
X266460000Y-238120000D03*
X269000000Y-235580000D03*
X266460000Y-235580000D03*
X269000000Y-233040000D03*
X266460000Y-233040000D03*
X269000000Y-230500000D03*
X266460000Y-230500000D03*
X269000000Y-227960000D03*
X266460000Y-227960000D03*
X408600000Y-143600000D03*
X406060000Y-143600000D03*
X408600000Y-141060000D03*
X406060000Y-141060000D03*
X408600000Y-138520000D03*
X406060000Y-138520000D03*
X408600000Y-135980000D03*
X406060000Y-135980000D03*
X408600000Y-133440000D03*
X406060000Y-133440000D03*
X408600000Y-130900000D03*
X406060000Y-130900000D03*
X408600000Y-128360000D03*
X406060000Y-128360000D03*
X323800000Y-156400000D03*
X321260000Y-156400000D03*
X323800000Y-153860000D03*
X321260000Y-153860000D03*
X323800000Y-151320000D03*
X321260000Y-151320000D03*
X306000000Y-156400000D03*
X303460000Y-156400000D03*
X306000000Y-153860000D03*
X303460000Y-153860000D03*
X306000000Y-151320000D03*
X303460000Y-151320000D03*
X323800000Y-181800000D03*
X321260000Y-181800000D03*
X323800000Y-179260000D03*
X321260000Y-179260000D03*
X323800000Y-176720000D03*
X321260000Y-176720000D03*
X323800000Y-174180000D03*
X321260000Y-174180000D03*
X408600000Y-204267000D03*
X406060000Y-204267000D03*
X408600000Y-201727000D03*
X406060000Y-201727000D03*
X408600000Y-199187000D03*
X406060000Y-199187000D03*
X408600000Y-196647000D03*
X406060000Y-196647000D03*
X408600000Y-194107000D03*
X406060000Y-194107000D03*
D12*
X467258000Y-309067000D03*
D13*
X469758000Y-309067000D03*
D12*
X467081000Y-298679000D03*
D13*
X469581000Y-298679000D03*
D14*
X311404000Y-240132000D03*
D15*
X313944000Y-240132000D03*
D14*
X419100000Y-281381000D03*
D16*
X429260000Y-281381000D03*
D14*
X434975000Y-291186000D03*
D16*
X434975000Y-281026000D03*
D14*
X419278000Y-286283000D03*
D16*
X429438000Y-286283000D03*
D14*
X444627000Y-290957000D03*
D16*
X444627000Y-280797000D03*
D14*
X425298000Y-231800000D03*
D15*
X427838000Y-231800000D03*
D17*
X459613000Y-303809000D03*
D18*
X459613000Y-293649000D03*
D14*
X439598000Y-290957000D03*
D16*
X439598000Y-280797000D03*
D14*
X308153000Y-234061000D03*
D15*
X310693000Y-234061000D03*
D14*
X304902000Y-240208000D03*
D15*
X307442000Y-240208000D03*
D19*
X420243000Y-178308000D03*
D20*
X417703000Y-177038000D03*
X420243000Y-175768000D03*
X417703000Y-174498000D03*
X420243000Y-173228000D03*
X417703000Y-171958000D03*
X420243000Y-170688000D03*
X417703000Y-169418000D03*
D21*
X426593000Y-179578000D03*
X426593000Y-168148000D03*
D22*
X482651000Y-308407000D03*
D23*
X482651000Y-310407000D03*
D22*
X493751000Y-308407000D03*
D23*
X493751000Y-310407000D03*
D22*
X454914000Y-308610000D03*
D23*
X454914000Y-310610000D03*
D24*
X443560000Y-140692000D03*
D25*
X448640000Y-140692000D03*
X443560000Y-145772000D03*
X448640000Y-150852000D03*
X443560000Y-148312000D03*
X443560000Y-150852000D03*
X448640000Y-145772000D03*
X448640000Y-148312000D03*
D24*
X459665000Y-167183000D03*
D25*
X459665000Y-162103000D03*
X464745000Y-167183000D03*
X469825000Y-162103000D03*
X467285000Y-167183000D03*
X469825000Y-167183000D03*
X464745000Y-162103000D03*
X467285000Y-162103000D03*
D24*
X472642000Y-151536000D03*
D25*
X472642000Y-156616000D03*
X467562000Y-151536000D03*
X462482000Y-156616000D03*
X465022000Y-151536000D03*
X462482000Y-151536000D03*
X467562000Y-156616000D03*
X465022000Y-156616000D03*
D24*
X459742000Y-146482000D03*
D25*
X459742000Y-141402000D03*
X464822000Y-146482000D03*
X469902000Y-141402000D03*
X467362000Y-146482000D03*
X469902000Y-146482000D03*
X464822000Y-141402000D03*
X467362000Y-141402000D03*
D24*
X443484000Y-159361000D03*
D25*
X448564000Y-159361000D03*
X443484000Y-164441000D03*
X448564000Y-169521000D03*
X443484000Y-166981000D03*
X443484000Y-169521000D03*
X448564000Y-164441000D03*
X448564000Y-166981000D03*
D26*
X481051000Y-167411000D03*
X488671000Y-167411000D03*
X481051000Y-147091000D03*
X488671000Y-142091000D03*
X488671000Y-152091000D03*
D13*
X472999000Y-293726000D03*
D27*
X483159000Y-293726000D03*
D28*
X163932000Y-219456000D03*
X161392000Y-219456000D03*
X161392000Y-216916000D03*
X163932000Y-216916000D03*
X161392000Y-214376000D03*
X176759000Y-242316000D03*
X181839000Y-242316000D03*
X184379000Y-242316000D03*
X186919000Y-242316000D03*
X189459000Y-242316000D03*
X191999000Y-242316000D03*
X194539000Y-242316000D03*
X197079000Y-242316000D03*
X141199000Y-194056000D03*
X143739000Y-194056000D03*
X146279000Y-194056000D03*
X148819000Y-194056000D03*
X151359000Y-194056000D03*
X153899000Y-194056000D03*
X156439000Y-194056000D03*
X158979000Y-194056000D03*
X164059000Y-194056000D03*
X166599000Y-194056000D03*
X169139000Y-194056000D03*
X171679000Y-194056000D03*
X174219000Y-194056000D03*
X176759000Y-194056000D03*
X179299000Y-194056000D03*
X181839000Y-194056000D03*
X201143000Y-194056000D03*
X185903000Y-194056000D03*
X188443000Y-194056000D03*
X190983000Y-194056000D03*
D21*
X161519000Y-237236000D03*
X161519000Y-209296000D03*
X137389000Y-194056000D03*
X212319000Y-194056000D03*
X131039000Y-242316000D03*
X213589000Y-242316000D03*
D28*
X208763000Y-194056000D03*
X206223000Y-194056000D03*
X203683000Y-194056000D03*
X198603000Y-194056000D03*
X196063000Y-194056000D03*
X193523000Y-194056000D03*
X199619000Y-242316000D03*
X174219000Y-242316000D03*
X171679000Y-242316000D03*
X169139000Y-242316000D03*
X166599000Y-242316000D03*
X164059000Y-242316000D03*
X161519000Y-242316000D03*
X158979000Y-242316000D03*
X153899000Y-242316000D03*
X151359000Y-242316000D03*
X148819000Y-242316000D03*
X146279000Y-242316000D03*
X143739000Y-242316000D03*
X141199000Y-242316000D03*
X138659000Y-242316000D03*
X136119000Y-242316000D03*
X133579000Y-194056000D03*
X131039000Y-194056000D03*
X133579000Y-196596000D03*
X131039000Y-196596000D03*
X133579000Y-199136000D03*
X131039000Y-199136000D03*
X133579000Y-201676000D03*
X131039000Y-201676000D03*
X133579000Y-204216000D03*
X131039000Y-204216000D03*
X133579000Y-206756000D03*
X131039000Y-206756000D03*
X133579000Y-209296000D03*
X131039000Y-209296000D03*
X133579000Y-211836000D03*
X131039000Y-211836000D03*
X133579000Y-214376000D03*
X131039000Y-214376000D03*
X133579000Y-216916000D03*
X131039000Y-216916000D03*
X133579000Y-219456000D03*
X131039000Y-219456000D03*
X133579000Y-221996000D03*
X131039000Y-221996000D03*
X133579000Y-224536000D03*
X131039000Y-224536000D03*
X133579000Y-227076000D03*
X131039000Y-227076000D03*
X133579000Y-229616000D03*
X131039000Y-229616000D03*
X133579000Y-232156000D03*
X131039000Y-232156000D03*
X133579000Y-234696000D03*
X131039000Y-234696000D03*
X133579000Y-237236000D03*
X131039000Y-237236000D03*
X163932000Y-214376000D03*
D13*
X419456000Y-291059000D03*
D27*
X429616000Y-291059000D03*
D13*
X405130000Y-291160000D03*
D27*
X415290000Y-291160000D03*
D13*
X404952000Y-286360000D03*
D27*
X415112000Y-286360000D03*
D13*
X399644000Y-290855000D03*
D27*
X399644000Y-280695000D03*
D13*
X415341000Y-280391000D03*
D27*
X405181000Y-280391000D03*
D29*
X475539000Y-305892000D03*
D30*
X475539000Y-308432000D03*
D14*
X459892000Y-279476000D03*
D15*
X462432000Y-279476000D03*
X464972000Y-279476000D03*
X467512000Y-279476000D03*
X470052000Y-279476000D03*
X472592000Y-279476000D03*
X475132000Y-279476000D03*
X477672000Y-279476000D03*
X480212000Y-279476000D03*
X482752000Y-279476000D03*
X485292000Y-279476000D03*
X487832000Y-279476000D03*
X490372000Y-279476000D03*
X492912000Y-279476000D03*
X495452000Y-279476000D03*
X495452000Y-264236000D03*
X492912000Y-264236000D03*
X490372000Y-264236000D03*
X487832000Y-264236000D03*
X485292000Y-264236000D03*
X482752000Y-264236000D03*
X480212000Y-264236000D03*
X477672000Y-264236000D03*
X475132000Y-264236000D03*
X472592000Y-264236000D03*
X470052000Y-264236000D03*
X467512000Y-264236000D03*
X464972000Y-264236000D03*
X462432000Y-264236000D03*
X459892000Y-264236000D03*
D31*
X495197000Y-299817000D03*
X491797000Y-299817000D03*
X496897000Y-295917000D03*
X493497000Y-295917000D03*
X490097000Y-295917000D03*
D22*
X462508600Y-94081600D03*
D23*
X462508600Y-92081600D03*
X460508600Y-94081600D03*
X460508600Y-92081600D03*
X458508600Y-94081600D03*
X458508600Y-92081600D03*
X456508600Y-94081600D03*
X456508600Y-92081600D03*
X454508600Y-94081600D03*
X454508600Y-92081600D03*
X452508600Y-94081600D03*
X452508600Y-92081600D03*
X450508600Y-94081600D03*
X450508600Y-92081600D03*
M02*
