G04 #@! TF.FileFunction,Copper,L1,Top,Signal*
%FSLAX46Y46*%
G04 Gerber Fmt 4.6, Leading zero omitted, Abs format (unit mm)*
G04 Created by KiCad (PCBNEW 4.0.6) date 02/18/20 12:40:55*
%MOMM*%
%LPD*%
G01*
G04 APERTURE LIST*
%ADD10C,0.100000*%
%ADD11C,1.879600*%
%ADD12R,1.600000X1.600000*%
%ADD13C,1.600000*%
%ADD14R,1.800000X1.800000*%
%ADD15C,1.800000*%
%ADD16O,1.800000X1.800000*%
%ADD17R,2.800000X2.800000*%
%ADD18O,2.800000X2.800000*%
%ADD19R,1.960000X1.960000*%
%ADD20C,1.960000*%
%ADD21R,1.350000X1.350000*%
%ADD22O,1.350000X1.350000*%
%ADD23R,1.200000X1.200000*%
%ADD24C,1.200000*%
%ADD25C,3.000000*%
%ADD26O,1.600000X1.600000*%
%ADD27O,1.727200X1.727200*%
%ADD28R,1.700000X1.700000*%
%ADD29O,1.700000X1.700000*%
%ADD30O,1.408000X2.816000*%
%ADD31C,0.600000*%
%ADD32C,0.250000*%
G04 APERTURE END LIST*
D10*
D11*
X133400000Y-102400000D03*
X133400000Y-99860000D03*
X135940000Y-102400000D03*
X135940000Y-99860000D03*
X138480000Y-102400000D03*
X138480000Y-99860000D03*
X141020000Y-102400000D03*
X141020000Y-99860000D03*
X143560000Y-102400000D03*
X143560000Y-99860000D03*
X146100000Y-102400000D03*
X146100000Y-99860000D03*
X148640000Y-102400000D03*
X148640000Y-99860000D03*
X188800000Y-102400000D03*
X188800000Y-99860000D03*
X191340000Y-102400000D03*
X191340000Y-99860000D03*
X193880000Y-102400000D03*
X193880000Y-99860000D03*
X196420000Y-102400000D03*
X196420000Y-99860000D03*
X198960000Y-102400000D03*
X198960000Y-99860000D03*
X201500000Y-102400000D03*
X201500000Y-99860000D03*
X204040000Y-102400000D03*
X204040000Y-99860000D03*
X188800000Y-151200000D03*
X188800000Y-148660000D03*
X191340000Y-151200000D03*
X191340000Y-148660000D03*
X193880000Y-151200000D03*
X193880000Y-148660000D03*
X196420000Y-151200000D03*
X196420000Y-148660000D03*
X198960000Y-151200000D03*
X198960000Y-148660000D03*
X201500000Y-151200000D03*
X201500000Y-148660000D03*
X204040000Y-151200000D03*
X204040000Y-148660000D03*
X134400000Y-151200000D03*
X134400000Y-148660000D03*
X136940000Y-151200000D03*
X136940000Y-148660000D03*
X139480000Y-151200000D03*
X139480000Y-148660000D03*
X142020000Y-151200000D03*
X142020000Y-148660000D03*
X144560000Y-151200000D03*
X144560000Y-148660000D03*
X147100000Y-151200000D03*
X147100000Y-148660000D03*
X149640000Y-151200000D03*
X149640000Y-148660000D03*
X133400000Y-280400000D03*
X133400000Y-277860000D03*
X135940000Y-280400000D03*
X135940000Y-277860000D03*
X138480000Y-280400000D03*
X138480000Y-277860000D03*
X141020000Y-280400000D03*
X141020000Y-277860000D03*
X143560000Y-280400000D03*
X143560000Y-277860000D03*
X146100000Y-280400000D03*
X146100000Y-277860000D03*
X148640000Y-280400000D03*
X148640000Y-277860000D03*
X188800000Y-280400000D03*
X188800000Y-277860000D03*
X191340000Y-280400000D03*
X191340000Y-277860000D03*
X193880000Y-280400000D03*
X193880000Y-277860000D03*
X196420000Y-280400000D03*
X196420000Y-277860000D03*
X198960000Y-280400000D03*
X198960000Y-277860000D03*
X201500000Y-280400000D03*
X201500000Y-277860000D03*
X204040000Y-280400000D03*
X204040000Y-277860000D03*
X133400000Y-258300000D03*
X133400000Y-255760000D03*
X135940000Y-258300000D03*
X135940000Y-255760000D03*
X138480000Y-258300000D03*
X138480000Y-255760000D03*
X141020000Y-258300000D03*
X141020000Y-255760000D03*
X143560000Y-258300000D03*
X143560000Y-255760000D03*
X146100000Y-258300000D03*
X146100000Y-255760000D03*
X148640000Y-258300000D03*
X148640000Y-255760000D03*
X188800000Y-258300000D03*
X188800000Y-255760000D03*
X191340000Y-258300000D03*
X191340000Y-255760000D03*
X193880000Y-258300000D03*
X193880000Y-255760000D03*
X196420000Y-258300000D03*
X196420000Y-255760000D03*
X198960000Y-258300000D03*
X198960000Y-255760000D03*
X201500000Y-258300000D03*
X201500000Y-255760000D03*
X204040000Y-258300000D03*
X204040000Y-255760000D03*
X269000000Y-243200000D03*
X266460000Y-243200000D03*
X269000000Y-240660000D03*
X266460000Y-240660000D03*
X269000000Y-238120000D03*
X266460000Y-238120000D03*
X269000000Y-235580000D03*
X266460000Y-235580000D03*
X269000000Y-233040000D03*
X266460000Y-233040000D03*
X269000000Y-230500000D03*
X266460000Y-230500000D03*
X269000000Y-227960000D03*
X266460000Y-227960000D03*
X408600000Y-143600000D03*
X406060000Y-143600000D03*
X408600000Y-141060000D03*
X406060000Y-141060000D03*
X408600000Y-138520000D03*
X406060000Y-138520000D03*
X408600000Y-135980000D03*
X406060000Y-135980000D03*
X408600000Y-133440000D03*
X406060000Y-133440000D03*
X408600000Y-130900000D03*
X406060000Y-130900000D03*
X408600000Y-128360000D03*
X406060000Y-128360000D03*
X323800000Y-156400000D03*
X321260000Y-156400000D03*
X323800000Y-153860000D03*
X321260000Y-153860000D03*
X323800000Y-151320000D03*
X321260000Y-151320000D03*
X306000000Y-156400000D03*
X303460000Y-156400000D03*
X306000000Y-153860000D03*
X303460000Y-153860000D03*
X306000000Y-151320000D03*
X303460000Y-151320000D03*
X323800000Y-181800000D03*
X321260000Y-181800000D03*
X323800000Y-179260000D03*
X321260000Y-179260000D03*
X323800000Y-176720000D03*
X321260000Y-176720000D03*
X323800000Y-174180000D03*
X321260000Y-174180000D03*
X408600000Y-204267000D03*
X406060000Y-204267000D03*
X408600000Y-201727000D03*
X406060000Y-201727000D03*
X408600000Y-199187000D03*
X406060000Y-199187000D03*
X408600000Y-196647000D03*
X406060000Y-196647000D03*
X408600000Y-194107000D03*
X406060000Y-194107000D03*
D12*
X467258000Y-309067000D03*
D13*
X469758000Y-309067000D03*
D12*
X467081000Y-298679000D03*
D13*
X469581000Y-298679000D03*
D14*
X311404000Y-240132000D03*
D15*
X313944000Y-240132000D03*
D14*
X419100000Y-281381000D03*
D16*
X429260000Y-281381000D03*
D14*
X434975000Y-291186000D03*
D16*
X434975000Y-281026000D03*
D14*
X419278000Y-286283000D03*
D16*
X429438000Y-286283000D03*
D14*
X444627000Y-290957000D03*
D16*
X444627000Y-280797000D03*
D14*
X425298000Y-231800000D03*
D15*
X427838000Y-231800000D03*
D17*
X459613000Y-303809000D03*
D18*
X459613000Y-293649000D03*
D14*
X439598000Y-290957000D03*
D16*
X439598000Y-280797000D03*
D14*
X308153000Y-234061000D03*
D15*
X310693000Y-234061000D03*
D14*
X304902000Y-240208000D03*
D15*
X307442000Y-240208000D03*
D19*
X420243000Y-178308000D03*
D20*
X417703000Y-177038000D03*
X420243000Y-175768000D03*
X417703000Y-174498000D03*
X420243000Y-173228000D03*
X417703000Y-171958000D03*
X420243000Y-170688000D03*
X417703000Y-169418000D03*
D21*
X482651000Y-308407000D03*
D22*
X482651000Y-310407000D03*
D21*
X493751000Y-308407000D03*
D22*
X493751000Y-310407000D03*
D21*
X454914000Y-308610000D03*
D22*
X454914000Y-310610000D03*
D23*
X443560000Y-140692000D03*
D24*
X448640000Y-140692000D03*
X443560000Y-145772000D03*
X448640000Y-150852000D03*
X443560000Y-148312000D03*
X443560000Y-150852000D03*
X448640000Y-145772000D03*
X448640000Y-148312000D03*
D23*
X459665000Y-167183000D03*
D24*
X459665000Y-162103000D03*
X464745000Y-167183000D03*
X469825000Y-162103000D03*
X467285000Y-167183000D03*
X469825000Y-167183000D03*
X464745000Y-162103000D03*
X467285000Y-162103000D03*
D23*
X472642000Y-151536000D03*
D24*
X472642000Y-156616000D03*
X467562000Y-151536000D03*
X462482000Y-156616000D03*
X465022000Y-151536000D03*
X462482000Y-151536000D03*
X467562000Y-156616000D03*
X465022000Y-156616000D03*
D23*
X459742000Y-146482000D03*
D24*
X459742000Y-141402000D03*
X464822000Y-146482000D03*
X469902000Y-141402000D03*
X467362000Y-146482000D03*
X469902000Y-146482000D03*
X464822000Y-141402000D03*
X467362000Y-141402000D03*
D23*
X443484000Y-159361000D03*
D24*
X448564000Y-159361000D03*
X443484000Y-164441000D03*
X448564000Y-169521000D03*
X443484000Y-166981000D03*
X443484000Y-169521000D03*
X448564000Y-164441000D03*
X448564000Y-166981000D03*
D25*
X481051000Y-167411000D03*
X488671000Y-167411000D03*
X481051000Y-147091000D03*
X488671000Y-142091000D03*
X488671000Y-152091000D03*
D13*
X472999000Y-293726000D03*
D26*
X483159000Y-293726000D03*
D27*
X163932000Y-219456000D03*
X161392000Y-219456000D03*
X161392000Y-216916000D03*
X163932000Y-216916000D03*
X161392000Y-214376000D03*
X176759000Y-242316000D03*
X181839000Y-242316000D03*
X184379000Y-242316000D03*
X186919000Y-242316000D03*
X189459000Y-242316000D03*
X191999000Y-242316000D03*
X194539000Y-242316000D03*
X197079000Y-242316000D03*
X141199000Y-194056000D03*
X143739000Y-194056000D03*
X146279000Y-194056000D03*
X148819000Y-194056000D03*
X151359000Y-194056000D03*
X153899000Y-194056000D03*
X156439000Y-194056000D03*
X158979000Y-194056000D03*
X164059000Y-194056000D03*
X166599000Y-194056000D03*
X169139000Y-194056000D03*
X171679000Y-194056000D03*
X174219000Y-194056000D03*
X176759000Y-194056000D03*
X179299000Y-194056000D03*
X181839000Y-194056000D03*
X201143000Y-194056000D03*
X185903000Y-194056000D03*
X188443000Y-194056000D03*
X190983000Y-194056000D03*
X208763000Y-194056000D03*
X206223000Y-194056000D03*
X203683000Y-194056000D03*
X198603000Y-194056000D03*
X196063000Y-194056000D03*
X193523000Y-194056000D03*
X199619000Y-242316000D03*
X174219000Y-242316000D03*
X171679000Y-242316000D03*
X169139000Y-242316000D03*
X166599000Y-242316000D03*
X164059000Y-242316000D03*
X161519000Y-242316000D03*
X158979000Y-242316000D03*
X153899000Y-242316000D03*
X151359000Y-242316000D03*
X148819000Y-242316000D03*
X146279000Y-242316000D03*
X143739000Y-242316000D03*
X141199000Y-242316000D03*
X138659000Y-242316000D03*
X136119000Y-242316000D03*
X133579000Y-194056000D03*
X131039000Y-194056000D03*
X133579000Y-196596000D03*
X131039000Y-196596000D03*
X133579000Y-199136000D03*
X131039000Y-199136000D03*
X133579000Y-201676000D03*
X131039000Y-201676000D03*
X133579000Y-204216000D03*
X131039000Y-204216000D03*
X133579000Y-206756000D03*
X131039000Y-206756000D03*
X133579000Y-209296000D03*
X131039000Y-209296000D03*
X133579000Y-211836000D03*
X131039000Y-211836000D03*
X133579000Y-214376000D03*
X131039000Y-214376000D03*
X133579000Y-216916000D03*
X131039000Y-216916000D03*
X133579000Y-219456000D03*
X131039000Y-219456000D03*
X133579000Y-221996000D03*
X131039000Y-221996000D03*
X133579000Y-224536000D03*
X131039000Y-224536000D03*
X133579000Y-227076000D03*
X131039000Y-227076000D03*
X133579000Y-229616000D03*
X131039000Y-229616000D03*
X133579000Y-232156000D03*
X131039000Y-232156000D03*
X133579000Y-234696000D03*
X131039000Y-234696000D03*
X133579000Y-237236000D03*
X131039000Y-237236000D03*
X163932000Y-214376000D03*
D13*
X419456000Y-291059000D03*
D26*
X429616000Y-291059000D03*
D13*
X405130000Y-291160000D03*
D26*
X415290000Y-291160000D03*
D13*
X404952000Y-286360000D03*
D26*
X415112000Y-286360000D03*
D13*
X399644000Y-290855000D03*
D26*
X399644000Y-280695000D03*
D13*
X415341000Y-280391000D03*
D26*
X405181000Y-280391000D03*
D28*
X475539000Y-305892000D03*
D29*
X475539000Y-308432000D03*
D14*
X459892000Y-279476000D03*
D15*
X462432000Y-279476000D03*
X464972000Y-279476000D03*
X467512000Y-279476000D03*
X470052000Y-279476000D03*
X472592000Y-279476000D03*
X475132000Y-279476000D03*
X477672000Y-279476000D03*
X480212000Y-279476000D03*
X482752000Y-279476000D03*
X485292000Y-279476000D03*
X487832000Y-279476000D03*
X490372000Y-279476000D03*
X492912000Y-279476000D03*
X495452000Y-279476000D03*
X495452000Y-264236000D03*
X492912000Y-264236000D03*
X490372000Y-264236000D03*
X487832000Y-264236000D03*
X485292000Y-264236000D03*
X482752000Y-264236000D03*
X480212000Y-264236000D03*
X477672000Y-264236000D03*
X475132000Y-264236000D03*
X472592000Y-264236000D03*
X470052000Y-264236000D03*
X467512000Y-264236000D03*
X464972000Y-264236000D03*
X462432000Y-264236000D03*
X459892000Y-264236000D03*
D30*
X495197000Y-299817000D03*
X491797000Y-299817000D03*
X496897000Y-295917000D03*
X493497000Y-295917000D03*
X490097000Y-295917000D03*
D21*
X462508600Y-94081600D03*
D22*
X462508600Y-92081600D03*
X460508600Y-94081600D03*
X460508600Y-92081600D03*
X458508600Y-94081600D03*
X458508600Y-92081600D03*
X456508600Y-94081600D03*
X456508600Y-92081600D03*
X454508600Y-94081600D03*
X454508600Y-92081600D03*
X452508600Y-94081600D03*
X452508600Y-92081600D03*
X450508600Y-94081600D03*
X450508600Y-92081600D03*
D31*
X404943000Y-288140200D03*
X169773800Y-254494800D03*
X189040600Y-146203100D03*
X197861700Y-104735900D03*
X215586100Y-233190300D03*
X220336300Y-232554400D03*
X227411400Y-232112300D03*
X174246700Y-227865600D03*
X154596800Y-224829600D03*
D32*
X464589700Y-310610000D02*
X466132700Y-309067000D01*
X454914000Y-310610000D02*
X464589700Y-310610000D01*
X467258000Y-309067000D02*
X466132700Y-309067000D01*
X493751000Y-308407000D02*
X493751000Y-307444300D01*
X467258000Y-309067000D02*
X468383300Y-309067000D01*
X496897000Y-303921300D02*
X493581300Y-307237000D01*
X496897000Y-295917000D02*
X496897000Y-303921300D01*
X493751000Y-307406700D02*
X493581300Y-307237000D01*
X493751000Y-307444300D02*
X493751000Y-307406700D01*
X468383300Y-308785700D02*
X468383300Y-309067000D01*
X469932000Y-307237000D02*
X468383300Y-308785700D01*
X493581300Y-307237000D02*
X469932000Y-307237000D01*
X490097000Y-295917000D02*
X493497000Y-295917000D01*
X415112000Y-286360000D02*
X416237300Y-286360000D01*
X429438000Y-286283000D02*
X428212700Y-286283000D01*
X471098000Y-310407000D02*
X469758000Y-309067000D01*
X482651000Y-310407000D02*
X471098000Y-310407000D01*
X466191000Y-280797000D02*
X444627000Y-280797000D01*
X467512000Y-279476000D02*
X466191000Y-280797000D01*
X426523300Y-232259600D02*
X426523300Y-231800000D01*
X427289000Y-233025300D02*
X426523300Y-232259600D01*
X431221300Y-233025300D02*
X427289000Y-233025300D01*
X462432000Y-264236000D02*
X431221300Y-233025300D01*
X425298000Y-231800000D02*
X426523300Y-231800000D01*
X444627000Y-280797000D02*
X439598000Y-280797000D01*
X436429300Y-280797000D02*
X436200300Y-281026000D01*
X439598000Y-280797000D02*
X436429300Y-280797000D01*
X434975000Y-281026000D02*
X436200300Y-281026000D01*
X417539600Y-285057700D02*
X427073800Y-285057700D01*
X416237300Y-286360000D02*
X417539600Y-285057700D01*
X427073800Y-284792500D02*
X427073800Y-285057700D01*
X429260000Y-282606300D02*
X427073800Y-284792500D01*
X427073800Y-285144100D02*
X428212700Y-286283000D01*
X427073800Y-285057700D02*
X427073800Y-285144100D01*
X429260000Y-281381000D02*
X429260000Y-282606300D01*
X456923000Y-159361000D02*
X459665000Y-162103000D01*
X448564000Y-159361000D02*
X456923000Y-159361000D01*
X471712700Y-155686700D02*
X472642000Y-156616000D01*
X466629500Y-155686700D02*
X471712700Y-155686700D01*
X460896800Y-162103000D02*
X459665000Y-162103000D01*
X466629500Y-156370300D02*
X460896800Y-162103000D01*
X466629500Y-155686700D02*
X466629500Y-156370300D01*
X466629500Y-149598200D02*
X466629500Y-155686700D01*
X459742000Y-142710700D02*
X466629500Y-149598200D01*
X459742000Y-141402000D02*
X459742000Y-142710700D01*
X449350000Y-141402000D02*
X448640000Y-140692000D01*
X459742000Y-141402000D02*
X449350000Y-141402000D01*
X468206300Y-299734600D02*
X468206300Y-298679000D01*
X474363700Y-305892000D02*
X468206300Y-299734600D01*
X467081000Y-298679000D02*
X468206300Y-298679000D01*
X475539000Y-305892000D02*
X474363700Y-305892000D01*
X484006400Y-150046400D02*
X481051000Y-147091000D01*
X484006400Y-291753300D02*
X484006400Y-150046400D01*
X483159000Y-292600700D02*
X484006400Y-291753300D01*
X483159000Y-293726000D02*
X483159000Y-292600700D01*
X406736500Y-289933700D02*
X404943000Y-288140200D01*
X427365400Y-289933700D02*
X406736500Y-289933700D01*
X428490700Y-291059000D02*
X427365400Y-289933700D01*
X429616000Y-291059000D02*
X428490700Y-291059000D01*
X131039000Y-229616000D02*
X131039000Y-230804900D01*
X419100000Y-281381000D02*
X417874700Y-281381000D01*
X131410600Y-230804900D02*
X131039000Y-230804900D01*
X132227900Y-231622200D02*
X131410600Y-230804900D01*
X132227900Y-240145100D02*
X132227900Y-231622200D01*
X133414600Y-241331800D02*
X132227900Y-240145100D01*
X133414600Y-241974000D02*
X133414600Y-241331800D01*
X140002300Y-248561700D02*
X133414600Y-241974000D01*
X165362000Y-248561700D02*
X140002300Y-248561700D01*
X183288000Y-266487700D02*
X165362000Y-248561700D01*
X211510700Y-266487700D02*
X183288000Y-266487700D01*
X227326700Y-282303700D02*
X211510700Y-266487700D01*
X416952000Y-282303700D02*
X227326700Y-282303700D01*
X417874700Y-281381000D02*
X416952000Y-282303700D01*
X459665000Y-167183000D02*
X459665000Y-168108300D01*
X419278000Y-286283000D02*
X418052700Y-286283000D01*
X414455300Y-213318000D02*
X459665000Y-168108300D01*
X414455300Y-274739500D02*
X414455300Y-213318000D01*
X416827400Y-287508300D02*
X418052700Y-286283000D01*
X414666600Y-287508300D02*
X416827400Y-287508300D01*
X413984800Y-286826500D02*
X414666600Y-287508300D01*
X413984800Y-285883600D02*
X413984800Y-286826500D01*
X417114300Y-282754100D02*
X413984800Y-285883600D01*
X419990900Y-282754100D02*
X417114300Y-282754100D01*
X420335900Y-282409100D02*
X419990900Y-282754100D01*
X420335900Y-280338700D02*
X420335900Y-282409100D01*
X414736700Y-274739500D02*
X420335900Y-280338700D01*
X414455300Y-274739500D02*
X414736700Y-274739500D01*
X133579000Y-229616000D02*
X133579000Y-230804900D01*
X133950600Y-230804900D02*
X133579000Y-230804900D01*
X134767900Y-231622200D02*
X133950600Y-230804900D01*
X134767900Y-242669600D02*
X134767900Y-231622200D01*
X140209600Y-248111300D02*
X134767900Y-242669600D01*
X175700300Y-248111300D02*
X140209600Y-248111300D01*
X191324500Y-263735500D02*
X175700300Y-248111300D01*
X219715200Y-263735500D02*
X191324500Y-263735500D01*
X237800100Y-281820400D02*
X219715200Y-263735500D01*
X407374400Y-281820400D02*
X237800100Y-281820400D01*
X414455300Y-274739500D02*
X407374400Y-281820400D01*
X131039000Y-221996000D02*
X131039000Y-223184900D01*
X444627000Y-290957000D02*
X443401700Y-290957000D01*
X130667400Y-223184900D02*
X131039000Y-223184900D01*
X129811100Y-224041200D02*
X130667400Y-223184900D01*
X129811100Y-238365200D02*
X129811100Y-224041200D01*
X132964300Y-241518400D02*
X129811100Y-238365200D01*
X132964300Y-242216400D02*
X132964300Y-241518400D01*
X144603800Y-253855900D02*
X132964300Y-242216400D01*
X170019300Y-253855900D02*
X144603800Y-253855900D01*
X186903600Y-270740200D02*
X170019300Y-253855900D01*
X203021700Y-270740200D02*
X186903600Y-270740200D01*
X216099500Y-283818000D02*
X203021700Y-270740200D01*
X400799600Y-283818000D02*
X216099500Y-283818000D01*
X404496500Y-287514900D02*
X400799600Y-283818000D01*
X405202100Y-287514900D02*
X404496500Y-287514900D01*
X406164500Y-288477300D02*
X405202100Y-287514900D01*
X440922000Y-288477300D02*
X406164500Y-288477300D01*
X443401700Y-290957000D02*
X440922000Y-288477300D01*
X477338800Y-293726000D02*
X472999000Y-293726000D01*
X481658900Y-298046100D02*
X477338800Y-293726000D01*
X493426100Y-298046100D02*
X481658900Y-298046100D01*
X495197000Y-299817000D02*
X493426100Y-298046100D01*
X461338300Y-302299400D02*
X461338300Y-303809000D01*
X469911700Y-293726000D02*
X461338300Y-302299400D01*
X472999000Y-293726000D02*
X469911700Y-293726000D01*
X459613000Y-303809000D02*
X461338300Y-303809000D01*
X399644000Y-280695000D02*
X398518700Y-280695000D01*
X309149000Y-235605000D02*
X310693000Y-234061000D01*
X303934800Y-235605000D02*
X309149000Y-235605000D01*
X294613100Y-244926700D02*
X303934800Y-235605000D01*
X264596500Y-244926700D02*
X294613100Y-244926700D01*
X263341700Y-243671900D02*
X264596500Y-244926700D01*
X238855500Y-243671900D02*
X263341700Y-243671900D01*
X234626500Y-247900900D02*
X238855500Y-243671900D01*
X234626500Y-276833800D02*
X234626500Y-247900900D01*
X238882000Y-281089300D02*
X234626500Y-276833800D01*
X398124400Y-281089300D02*
X238882000Y-281089300D01*
X398518700Y-280695000D02*
X398124400Y-281089300D01*
X405181000Y-280391000D02*
X404055700Y-280391000D01*
X302263900Y-245386100D02*
X307442000Y-240208000D01*
X264418800Y-245386100D02*
X302263900Y-245386100D01*
X263155000Y-244122300D02*
X264418800Y-245386100D01*
X239061700Y-244122300D02*
X263155000Y-244122300D01*
X235076900Y-248107100D02*
X239061700Y-244122300D01*
X235076900Y-276612400D02*
X235076900Y-248107100D01*
X239094900Y-280630400D02*
X235076900Y-276612400D01*
X389614300Y-280630400D02*
X239094900Y-280630400D01*
X390694400Y-279550300D02*
X389614300Y-280630400D01*
X403215000Y-279550300D02*
X390694400Y-279550300D01*
X404055700Y-280391000D02*
X403215000Y-279550300D01*
X189493800Y-280400000D02*
X188800000Y-280400000D01*
X190763800Y-279130000D02*
X189493800Y-280400000D01*
X191916200Y-279130000D02*
X190763800Y-279130000D01*
X192610000Y-279823800D02*
X191916200Y-279130000D01*
X192610000Y-280921000D02*
X192610000Y-279823800D01*
X188420200Y-285110800D02*
X192610000Y-280921000D01*
X153772900Y-285110800D02*
X188420200Y-285110800D01*
X152683200Y-286200500D02*
X153772900Y-285110800D01*
X139200500Y-286200500D02*
X152683200Y-286200500D01*
X133400000Y-280400000D02*
X139200500Y-286200500D01*
X132096600Y-279096600D02*
X133400000Y-280400000D01*
X132096600Y-259603400D02*
X132096600Y-279096600D01*
X133400000Y-258300000D02*
X132096600Y-259603400D01*
X133129300Y-102670700D02*
X133400000Y-102400000D01*
X133129300Y-151200000D02*
X133129300Y-102670700D01*
X133129300Y-151200000D02*
X134400000Y-151200000D01*
X267723600Y-244476400D02*
X269000000Y-243200000D01*
X265419800Y-244476400D02*
X267723600Y-244476400D01*
X264164900Y-243221500D02*
X265419800Y-244476400D01*
X238516900Y-243221500D02*
X264164900Y-243221500D01*
X219867900Y-261870500D02*
X238516900Y-243221500D01*
X192370500Y-261870500D02*
X219867900Y-261870500D01*
X188800000Y-258300000D02*
X192370500Y-261870500D01*
X128613100Y-253513100D02*
X133400000Y-258300000D01*
X128613100Y-155716200D02*
X128613100Y-253513100D01*
X133129300Y-151200000D02*
X128613100Y-155716200D01*
X134665200Y-254494800D02*
X133400000Y-255760000D01*
X169773800Y-254494800D02*
X134665200Y-254494800D01*
X190070000Y-257030000D02*
X188800000Y-255760000D01*
X190070000Y-258861100D02*
X190070000Y-257030000D01*
X192626000Y-261417100D02*
X190070000Y-258861100D01*
X219289100Y-261417100D02*
X192626000Y-261417100D01*
X237935100Y-242771100D02*
X219289100Y-261417100D01*
X266031100Y-242771100D02*
X237935100Y-242771100D01*
X266460000Y-243200000D02*
X266031100Y-242771100D01*
X187079500Y-284660500D02*
X191340000Y-280400000D01*
X152391700Y-284660500D02*
X187079500Y-284660500D01*
X151302000Y-285750200D02*
X152391700Y-284660500D01*
X141290200Y-285750200D02*
X151302000Y-285750200D01*
X135940000Y-280400000D02*
X141290200Y-285750200D01*
X135665200Y-149925200D02*
X136940000Y-151200000D01*
X135665200Y-102674800D02*
X135665200Y-149925200D01*
X135940000Y-102400000D02*
X135665200Y-102674800D01*
X138210000Y-149930000D02*
X136940000Y-151200000D01*
X190070000Y-149930000D02*
X138210000Y-149930000D01*
X191340000Y-151200000D02*
X190070000Y-149930000D01*
X193996400Y-260956400D02*
X191340000Y-258300000D01*
X218157700Y-260956400D02*
X193996400Y-260956400D01*
X237188900Y-241925200D02*
X218157700Y-260956400D01*
X267734800Y-241925200D02*
X237188900Y-241925200D01*
X269000000Y-240660000D02*
X267734800Y-241925200D01*
X129075300Y-159064700D02*
X136940000Y-151200000D01*
X129075300Y-253338400D02*
X129075300Y-159064700D01*
X132766900Y-257030000D02*
X129075300Y-253338400D01*
X134670000Y-257030000D02*
X132766900Y-257030000D01*
X135940000Y-258300000D02*
X134670000Y-257030000D01*
X192610000Y-257030000D02*
X191340000Y-255760000D01*
X192610000Y-258861100D02*
X192610000Y-257030000D01*
X194230400Y-260481500D02*
X192610000Y-258861100D01*
X213155500Y-260481500D02*
X194230400Y-260481500D01*
X232977000Y-240660000D02*
X213155500Y-260481500D01*
X266460000Y-240660000D02*
X232977000Y-240660000D01*
X139396900Y-146203100D02*
X189040600Y-146203100D01*
X136940000Y-148660000D02*
X139396900Y-146203100D01*
X190070000Y-279130000D02*
X191340000Y-277860000D01*
X182881800Y-279130000D02*
X190070000Y-279130000D01*
X177801600Y-284210200D02*
X182881800Y-279130000D01*
X152205100Y-284210200D02*
X177801600Y-284210200D01*
X151115400Y-285299900D02*
X152205100Y-284210200D01*
X141548800Y-285299900D02*
X151115400Y-285299900D01*
X137210000Y-280961100D02*
X141548800Y-285299900D01*
X137210000Y-279130000D02*
X137210000Y-280961100D01*
X135940000Y-277860000D02*
X137210000Y-279130000D01*
X137210000Y-276590000D02*
X135940000Y-277860000D01*
X137210000Y-257030000D02*
X137210000Y-276590000D01*
X135940000Y-255760000D02*
X137210000Y-257030000D01*
X192610000Y-279130000D02*
X193880000Y-280400000D01*
X192610000Y-277298900D02*
X192610000Y-279130000D01*
X191894800Y-276583700D02*
X192610000Y-277298900D01*
X159194700Y-276583700D02*
X191894800Y-276583700D01*
X150928800Y-284849600D02*
X159194700Y-276583700D01*
X142929600Y-284849600D02*
X150928800Y-284849600D01*
X138480000Y-280400000D02*
X142929600Y-284849600D01*
X267730000Y-239390000D02*
X269000000Y-238120000D01*
X231300300Y-239390000D02*
X267730000Y-239390000D01*
X210666900Y-260023400D02*
X231300300Y-239390000D01*
X195603400Y-260023400D02*
X210666900Y-260023400D01*
X193880000Y-258300000D02*
X195603400Y-260023400D01*
X141250400Y-152970400D02*
X139480000Y-151200000D01*
X196451300Y-152970400D02*
X141250400Y-152970400D01*
X197690000Y-151731700D02*
X196451300Y-152970400D01*
X197690000Y-150638900D02*
X197690000Y-151731700D01*
X196981100Y-149930000D02*
X197690000Y-150638900D01*
X195150000Y-149930000D02*
X196981100Y-149930000D01*
X193880000Y-151200000D02*
X195150000Y-149930000D01*
X192152600Y-276132600D02*
X193880000Y-277860000D01*
X159008900Y-276132600D02*
X192152600Y-276132600D01*
X150742200Y-284399300D02*
X159008900Y-276132600D01*
X143188200Y-284399300D02*
X150742200Y-284399300D01*
X139750000Y-280961100D02*
X143188200Y-284399300D01*
X139750000Y-279130000D02*
X139750000Y-280961100D01*
X138480000Y-277860000D02*
X139750000Y-279130000D01*
X192130900Y-146910900D02*
X193880000Y-148660000D01*
X141229100Y-146910900D02*
X192130900Y-146910900D01*
X139480000Y-148660000D02*
X141229100Y-146910900D01*
X195150000Y-257030000D02*
X193880000Y-255760000D01*
X195150000Y-258861100D02*
X195150000Y-257030000D01*
X195861900Y-259573000D02*
X195150000Y-258861100D01*
X206512900Y-259573000D02*
X195861900Y-259573000D01*
X227965900Y-238120000D02*
X206512900Y-259573000D01*
X266460000Y-238120000D02*
X227965900Y-238120000D01*
X195150000Y-279130000D02*
X196420000Y-280400000D01*
X195150000Y-277331400D02*
X195150000Y-279130000D01*
X193500900Y-275682300D02*
X195150000Y-277331400D01*
X158822300Y-275682300D02*
X193500900Y-275682300D01*
X150555600Y-283949000D02*
X158822300Y-275682300D01*
X144569000Y-283949000D02*
X150555600Y-283949000D01*
X141020000Y-280400000D02*
X144569000Y-283949000D01*
X141020000Y-279666300D02*
X141020000Y-280400000D01*
X139750000Y-278396300D02*
X141020000Y-279666300D01*
X139750000Y-259570000D02*
X139750000Y-278396300D01*
X141020000Y-258300000D02*
X139750000Y-259570000D01*
X267734800Y-236845200D02*
X269000000Y-235580000D01*
X228415300Y-236845200D02*
X267734800Y-236845200D01*
X208230500Y-257030000D02*
X228415300Y-236845200D01*
X197690000Y-257030000D02*
X208230500Y-257030000D01*
X196420000Y-258300000D02*
X197690000Y-257030000D01*
X143292000Y-152472000D02*
X142020000Y-151200000D01*
X195148000Y-152472000D02*
X143292000Y-152472000D01*
X196420000Y-151200000D02*
X195148000Y-152472000D01*
X141020000Y-267686000D02*
X141020000Y-277860000D01*
X142290000Y-266416000D02*
X141020000Y-267686000D01*
X142290000Y-257030000D02*
X142290000Y-266416000D01*
X141020000Y-255760000D02*
X142290000Y-257030000D01*
X193792000Y-275232000D02*
X196420000Y-277860000D01*
X158635700Y-275232000D02*
X193792000Y-275232000D01*
X150369000Y-283498700D02*
X158635700Y-275232000D01*
X144834700Y-283498700D02*
X150369000Y-283498700D01*
X142290000Y-280954000D02*
X144834700Y-283498700D01*
X142290000Y-279766900D02*
X142290000Y-280954000D01*
X141020000Y-278496900D02*
X142290000Y-279766900D01*
X141020000Y-277860000D02*
X141020000Y-278496900D01*
X143318800Y-147361200D02*
X142020000Y-148660000D01*
X191848000Y-147361200D02*
X143318800Y-147361200D01*
X192610000Y-148123200D02*
X191848000Y-147361200D01*
X192610000Y-149221100D02*
X192610000Y-148123200D01*
X193318900Y-149930000D02*
X192610000Y-149221100D01*
X194441100Y-149930000D02*
X193318900Y-149930000D01*
X195711100Y-148660000D02*
X194441100Y-149930000D01*
X196420000Y-148660000D02*
X195711100Y-148660000D01*
X216600000Y-235580000D02*
X196420000Y-255760000D01*
X266460000Y-235580000D02*
X216600000Y-235580000D01*
X142290000Y-279130000D02*
X143560000Y-280400000D01*
X142290000Y-267689800D02*
X142290000Y-279130000D01*
X143560000Y-266419800D02*
X142290000Y-267689800D01*
X143560000Y-258300000D02*
X143560000Y-266419800D01*
X197690000Y-279130000D02*
X198960000Y-280400000D01*
X197690000Y-277306000D02*
X197690000Y-279130000D01*
X195165700Y-274781700D02*
X197690000Y-277306000D01*
X158449000Y-274781700D02*
X195165700Y-274781700D01*
X150182300Y-283048400D02*
X158449000Y-274781700D01*
X146208400Y-283048400D02*
X150182300Y-283048400D01*
X143560000Y-280400000D02*
X146208400Y-283048400D01*
X145752400Y-104592400D02*
X143560000Y-102400000D01*
X197718200Y-104592400D02*
X145752400Y-104592400D01*
X197861700Y-104735900D02*
X197718200Y-104592400D01*
X197690200Y-104907400D02*
X197861700Y-104735900D01*
X197690200Y-149930200D02*
X197690200Y-104907400D01*
X198960000Y-151200000D02*
X197690200Y-149930200D01*
X267730000Y-231770000D02*
X269000000Y-233040000D01*
X265826900Y-231770000D02*
X267730000Y-231770000D01*
X264406600Y-233190300D02*
X265826900Y-231770000D01*
X215586100Y-233190300D02*
X264406600Y-233190300D01*
X195431400Y-274331400D02*
X198960000Y-277860000D01*
X158238000Y-274331400D02*
X195431400Y-274331400D01*
X149971300Y-282598100D02*
X158238000Y-274331400D01*
X146467000Y-282598100D02*
X149971300Y-282598100D01*
X144830000Y-280961100D02*
X146467000Y-282598100D01*
X144830000Y-279130000D02*
X144830000Y-280961100D01*
X143560000Y-277860000D02*
X144830000Y-279130000D01*
X144830000Y-101130000D02*
X143560000Y-99860000D01*
X146648500Y-101130000D02*
X144830000Y-101130000D01*
X147365200Y-100413300D02*
X146648500Y-101130000D01*
X147365200Y-99345200D02*
X147365200Y-100413300D01*
X148144200Y-98566200D02*
X147365200Y-99345200D01*
X197666200Y-98566200D02*
X148144200Y-98566200D01*
X198960000Y-99860000D02*
X197666200Y-98566200D01*
X265565600Y-233934400D02*
X266460000Y-233040000D01*
X265565600Y-233934500D02*
X265565600Y-233934400D01*
X216444900Y-233934500D02*
X265565600Y-233934500D01*
X195150000Y-255229400D02*
X216444900Y-233934500D01*
X195150000Y-256336200D02*
X195150000Y-255229400D01*
X195843800Y-257030000D02*
X195150000Y-256336200D01*
X196996200Y-257030000D02*
X195843800Y-257030000D01*
X198266200Y-255760000D02*
X196996200Y-257030000D01*
X198960000Y-255760000D02*
X198266200Y-255760000D01*
X200217000Y-103683000D02*
X201500000Y-102400000D01*
X198453800Y-103683000D02*
X200217000Y-103683000D01*
X198379000Y-103608200D02*
X198453800Y-103683000D01*
X197460000Y-103608200D02*
X198379000Y-103608200D01*
X197403000Y-103665200D02*
X197460000Y-103608200D01*
X152495100Y-103665200D02*
X197403000Y-103665200D01*
X149959900Y-101130000D02*
X152495100Y-103665200D01*
X147370000Y-101130000D02*
X149959900Y-101130000D01*
X146100000Y-102400000D02*
X147370000Y-101130000D01*
X200230000Y-279130000D02*
X201500000Y-280400000D01*
X200230000Y-277331100D02*
X200230000Y-279130000D01*
X196780000Y-273881100D02*
X200230000Y-277331100D01*
X157889300Y-273881100D02*
X196780000Y-273881100D01*
X149622600Y-282147800D02*
X157889300Y-273881100D01*
X147847800Y-282147800D02*
X149622600Y-282147800D01*
X146100000Y-280400000D02*
X147847800Y-282147800D01*
X202772900Y-98587100D02*
X201500000Y-99860000D01*
X204572200Y-98587100D02*
X202772900Y-98587100D01*
X205333800Y-99348700D02*
X204572200Y-98587100D01*
X205333800Y-144826200D02*
X205333800Y-99348700D01*
X201500000Y-148660000D02*
X205333800Y-144826200D01*
X147370000Y-279130000D02*
X146100000Y-277860000D01*
X147370000Y-280921400D02*
X147370000Y-279130000D01*
X148146100Y-281697500D02*
X147370000Y-280921400D01*
X149397600Y-281697500D02*
X148146100Y-281697500D01*
X157707200Y-273387900D02*
X149397600Y-281697500D01*
X197027900Y-273387900D02*
X157707200Y-273387900D01*
X201500000Y-277860000D02*
X197027900Y-273387900D01*
X147844100Y-98115900D02*
X146100000Y-99860000D01*
X199755900Y-98115900D02*
X147844100Y-98115900D01*
X201500000Y-99860000D02*
X199755900Y-98115900D01*
X220521800Y-232739900D02*
X220336300Y-232554400D01*
X264220100Y-232739900D02*
X220521800Y-232739900D01*
X266460000Y-230500000D02*
X264220100Y-232739900D01*
X147370000Y-278436200D02*
X148640000Y-279706200D01*
X147370000Y-259570000D02*
X147370000Y-278436200D01*
X148640000Y-258300000D02*
X147370000Y-259570000D01*
X148640000Y-279706200D02*
X148640000Y-280400000D01*
X202770000Y-279130000D02*
X204040000Y-280400000D01*
X202770000Y-277325900D02*
X202770000Y-279130000D01*
X198381700Y-272937600D02*
X202770000Y-277325900D01*
X155408600Y-272937600D02*
X198381700Y-272937600D01*
X148640000Y-279706200D02*
X155408600Y-272937600D01*
X202306700Y-104133300D02*
X204040000Y-102400000D01*
X198267200Y-104133300D02*
X202306700Y-104133300D01*
X198192400Y-104058500D02*
X198267200Y-104133300D01*
X197646600Y-104058500D02*
X198192400Y-104058500D01*
X197589600Y-104115500D02*
X197646600Y-104058500D01*
X150355500Y-104115500D02*
X197589600Y-104115500D01*
X148640000Y-102400000D02*
X150355500Y-104115500D01*
X154012800Y-261132800D02*
X154012800Y-272487200D01*
X148640000Y-255760000D02*
X154012800Y-261132800D01*
X198667200Y-272487200D02*
X154012800Y-272487200D01*
X204040000Y-277860000D02*
X198667200Y-272487200D01*
X154012800Y-272487200D02*
X148640000Y-277860000D01*
X150251700Y-99860000D02*
X148640000Y-99860000D01*
X151521700Y-101130000D02*
X150251700Y-99860000D01*
X202770000Y-101130000D02*
X151521700Y-101130000D01*
X204040000Y-99860000D02*
X202770000Y-101130000D01*
X262307700Y-232112300D02*
X227411400Y-232112300D01*
X266460000Y-227960000D02*
X262307700Y-232112300D01*
X407330000Y-202997000D02*
X406060000Y-204267000D01*
X407330000Y-187411000D02*
X407330000Y-202997000D01*
X417703000Y-177038000D02*
X407330000Y-187411000D01*
X422025600Y-185761400D02*
X408600000Y-199187000D01*
X422025600Y-170579200D02*
X422025600Y-185761400D01*
X420818400Y-169372000D02*
X422025600Y-170579200D01*
X419713000Y-169372000D02*
X420818400Y-169372000D01*
X418930800Y-170154200D02*
X419713000Y-169372000D01*
X418930800Y-171339600D02*
X418930800Y-170154200D01*
X420243000Y-172651800D02*
X418930800Y-171339600D01*
X420243000Y-173228000D02*
X420243000Y-172651800D01*
X421548400Y-171993400D02*
X420243000Y-170688000D01*
X421548400Y-183698600D02*
X421548400Y-171993400D01*
X408600000Y-196647000D02*
X421548400Y-183698600D01*
X252012900Y-227865600D02*
X174246700Y-227865600D01*
X306000000Y-173878500D02*
X252012900Y-227865600D01*
X306000000Y-156400000D02*
X306000000Y-173878500D01*
X136119000Y-242316000D02*
X137307900Y-242316000D01*
X303460000Y-175071500D02*
X303460000Y-156400000D01*
X253076600Y-225454900D02*
X303460000Y-175071500D01*
X153797500Y-225454900D02*
X253076600Y-225454900D01*
X137307900Y-241944500D02*
X153797500Y-225454900D01*
X137307900Y-242316000D02*
X137307900Y-241944500D01*
X304730000Y-155130000D02*
X306000000Y-153860000D01*
X304730000Y-174439400D02*
X304730000Y-155130000D01*
X252349900Y-226819500D02*
X304730000Y-174439400D01*
X154972900Y-226819500D02*
X252349900Y-226819500D01*
X139847900Y-241944500D02*
X154972900Y-226819500D01*
X139847900Y-242316000D02*
X139847900Y-241944500D01*
X138659000Y-242316000D02*
X139847900Y-242316000D01*
X141199000Y-242316000D02*
X142387900Y-242316000D01*
X142387900Y-241944500D02*
X142387900Y-242316000D01*
X155547500Y-228784900D02*
X142387900Y-241944500D01*
X251730500Y-228784900D02*
X155547500Y-228784900D01*
X307292600Y-173222800D02*
X251730500Y-228784900D01*
X307292600Y-153321500D02*
X307292600Y-173222800D01*
X306561100Y-152590000D02*
X307292600Y-153321500D01*
X304730000Y-152590000D02*
X306561100Y-152590000D01*
X303460000Y-153860000D02*
X304730000Y-152590000D01*
X143739000Y-242316000D02*
X144927900Y-242316000D01*
X144927900Y-241944500D02*
X144927900Y-242316000D01*
X157637200Y-229235200D02*
X144927900Y-241944500D01*
X251917100Y-229235200D02*
X157637200Y-229235200D01*
X307743000Y-173409300D02*
X251917100Y-229235200D01*
X307743000Y-153063000D02*
X307743000Y-173409300D01*
X306000000Y-151320000D02*
X307743000Y-153063000D01*
X288107300Y-166672700D02*
X303460000Y-151320000D01*
X288107300Y-189781000D02*
X288107300Y-166672700D01*
X253058700Y-224829600D02*
X288107300Y-189781000D01*
X154596800Y-224829600D02*
X253058700Y-224829600D01*
X321260000Y-161873000D02*
X321260000Y-156400000D01*
X252030600Y-231102400D02*
X321260000Y-161873000D01*
X212846800Y-231102400D02*
X252030600Y-231102400D01*
X200395500Y-243553700D02*
X212846800Y-231102400D01*
X150874100Y-243553700D02*
X200395500Y-243553700D01*
X150007900Y-242687500D02*
X150874100Y-243553700D01*
X150007900Y-242316000D02*
X150007900Y-242687500D01*
X148819000Y-242316000D02*
X150007900Y-242316000D01*
X151359000Y-242316000D02*
X152547900Y-242316000D01*
X152547900Y-241944500D02*
X152547900Y-242316000D01*
X164581700Y-229910700D02*
X152547900Y-241944500D01*
X251878500Y-229910700D02*
X164581700Y-229910700D01*
X308427000Y-173362200D02*
X251878500Y-229910700D01*
X308427000Y-164865800D02*
X308427000Y-173362200D01*
X320707600Y-152585200D02*
X308427000Y-164865800D01*
X322525200Y-152585200D02*
X320707600Y-152585200D01*
X323800000Y-153860000D02*
X322525200Y-152585200D01*
X153899000Y-242316000D02*
X155087900Y-242316000D01*
X156727100Y-240676800D02*
X155087900Y-242316000D01*
X202558600Y-240676800D02*
X156727100Y-240676800D01*
X212835900Y-230399500D02*
X202558600Y-240676800D01*
X252062100Y-230399500D02*
X212835900Y-230399500D01*
X319985200Y-162476400D02*
X252062100Y-230399500D01*
X319985200Y-155134800D02*
X319985200Y-162476400D01*
X321260000Y-153860000D02*
X319985200Y-155134800D01*
X322530000Y-180530000D02*
X321260000Y-181800000D01*
X324355800Y-180530000D02*
X322530000Y-180530000D01*
X340041600Y-164844200D02*
X324355800Y-180530000D01*
X340041600Y-127304700D02*
X340041600Y-164844200D01*
X343959300Y-123387000D02*
X340041600Y-127304700D01*
X381962900Y-123387000D02*
X343959300Y-123387000D01*
X422316800Y-163740900D02*
X381962900Y-123387000D01*
X440243900Y-163740900D02*
X422316800Y-163740900D01*
X443484000Y-166981000D02*
X440243900Y-163740900D01*
X322530000Y-177990000D02*
X323800000Y-179260000D01*
X320698900Y-177990000D02*
X322530000Y-177990000D01*
X319518500Y-176809600D02*
X320698900Y-177990000D01*
X319518500Y-172633600D02*
X319518500Y-176809600D01*
X338127800Y-154024300D02*
X319518500Y-172633600D01*
X338127800Y-126670900D02*
X338127800Y-154024300D01*
X343212900Y-121585800D02*
X338127800Y-126670900D01*
X441307200Y-121585800D02*
X343212900Y-121585800D01*
X466092100Y-146370700D02*
X441307200Y-121585800D01*
X466092100Y-146520700D02*
X466092100Y-146370700D01*
X466978800Y-147407400D02*
X466092100Y-146520700D01*
X468976600Y-147407400D02*
X466978800Y-147407400D01*
X469902000Y-146482000D02*
X468976600Y-147407400D01*
X319068200Y-177068200D02*
X321260000Y-179260000D01*
X319068200Y-170127000D02*
X319068200Y-177068200D01*
X329344400Y-159850800D02*
X319068200Y-170127000D01*
X329344400Y-134817400D02*
X329344400Y-159850800D01*
X343026300Y-121135500D02*
X329344400Y-134817400D01*
X442015500Y-121135500D02*
X343026300Y-121135500D01*
X467362000Y-146482000D02*
X442015500Y-121135500D01*
X322530000Y-175450000D02*
X323800000Y-176720000D01*
X322530000Y-172276800D02*
X322530000Y-175450000D01*
X339028400Y-155778400D02*
X322530000Y-172276800D01*
X339028400Y-127044100D02*
X339028400Y-155778400D01*
X343586100Y-122486400D02*
X339028400Y-127044100D01*
X382448700Y-122486400D02*
X343586100Y-122486400D01*
X411808500Y-151846200D02*
X382448700Y-122486400D01*
X462171800Y-151846200D02*
X411808500Y-151846200D01*
X462482000Y-151536000D02*
X462171800Y-151846200D01*
X319985200Y-175445200D02*
X321260000Y-176720000D01*
X319985200Y-173016600D02*
X319985200Y-175445200D01*
X338578100Y-154423700D02*
X319985200Y-173016600D01*
X338578100Y-126857500D02*
X338578100Y-154423700D01*
X343399500Y-122036100D02*
X338578100Y-126857500D01*
X382635300Y-122036100D02*
X343399500Y-122036100D01*
X410181200Y-149582000D02*
X382635300Y-122036100D01*
X463068000Y-149582000D02*
X410181200Y-149582000D01*
X465022000Y-151536000D02*
X463068000Y-149582000D01*
X339478700Y-158501300D02*
X323800000Y-174180000D01*
X339478700Y-127230700D02*
X339478700Y-158501300D01*
X343772700Y-122936700D02*
X339478700Y-127230700D01*
X382262100Y-122936700D02*
X343772700Y-122936700D01*
X422390600Y-163065200D02*
X382262100Y-122936700D01*
X465707200Y-163065200D02*
X422390600Y-163065200D01*
X469825000Y-167183000D02*
X465707200Y-163065200D01*
X406553200Y-287961200D02*
X404952000Y-286360000D01*
X461566800Y-287961200D02*
X406553200Y-287961200D01*
X470052000Y-279476000D02*
X461566800Y-287961200D01*
X464972000Y-264236000D02*
X464972000Y-279476000D01*
M02*
