M48
;DRILL file {KiCad 4.0.6} date 02/18/20 12:41:01
;FORMAT={-:-/ absolute / inch / decimal}
FMAT,2
INCH,TZ
T1C0.016
T2C0.031
T3C0.035
T4C0.038
T5C0.039
T6C0.040
T7C0.051
T8C0.055
%
G90
G05
M72
T1
X6.0865Y-8.8516
X6.684Y-10.0195
X6.8601Y-8.9711
X7.4425Y-5.756
X7.7898Y-4.1235
X8.4876Y-9.1807
X8.6747Y-9.1557
X8.9532Y-9.1383
X15.9426Y-11.3441
T2
X15.734Y-11.051
X15.734Y-11.451
X15.943Y-11.274
X15.95Y-11.463
X15.952Y-11.039
X16.343Y-11.274
X16.35Y-11.463
X16.352Y-11.039
X16.514Y-11.459
X16.914Y-11.459
X17.46Y-6.2741
X17.46Y-6.4741
X17.46Y-6.5741
X17.46Y-6.6741
X17.463Y-5.5391
X17.463Y-5.7391
X17.463Y-5.8391
X17.463Y-5.9391
X17.66Y-6.2741
X17.66Y-6.4741
X17.66Y-6.5741
X17.66Y-6.6741
X17.663Y-5.5391
X17.663Y-5.7391
X17.663Y-5.8391
X17.663Y-5.9391
X17.7366Y-3.6253
X17.7366Y-3.704
X17.8153Y-3.6253
X17.8153Y-3.704
X17.894Y-3.6253
X17.894Y-3.704
X17.91Y-12.15
X17.91Y-12.2287
X17.9728Y-3.6253
X17.9728Y-3.704
X18.0515Y-3.6253
X18.0515Y-3.704
X18.097Y-6.382
X18.097Y-6.582
X18.1001Y-5.567
X18.1001Y-5.767
X18.1303Y-3.6253
X18.1303Y-3.704
X18.208Y-5.966
X18.208Y-6.166
X18.209Y-3.6253
X18.209Y-3.704
X18.297Y-6.382
X18.297Y-6.582
X18.3001Y-5.567
X18.3001Y-5.767
X18.308Y-5.966
X18.308Y-6.166
X18.389Y-11.759
X18.396Y-12.168
X18.397Y-6.382
X18.397Y-6.582
X18.4001Y-5.567
X18.4001Y-5.767
X18.408Y-5.966
X18.408Y-6.166
X18.4874Y-11.759
X18.4944Y-12.168
X18.497Y-6.382
X18.497Y-6.582
X18.5001Y-5.567
X18.5001Y-5.767
X18.608Y-5.966
X18.608Y-6.166
X18.622Y-11.564
X19.002Y-12.142
X19.002Y-12.2207
X19.022Y-11.564
X19.439Y-12.142
X19.439Y-12.2207
T3
X12.004Y-9.457
X12.104Y-9.457
X12.132Y-9.215
X12.232Y-9.215
X12.26Y-9.454
X12.36Y-9.454
X16.5Y-11.078
X16.507Y-11.271
X16.744Y-9.126
X16.844Y-9.126
X16.9Y-11.078
X16.907Y-11.271
X17.125Y-11.064
X17.125Y-11.464
X17.307Y-11.055
X17.307Y-11.455
X17.505Y-11.055
X17.505Y-11.455
X18.106Y-10.403
X18.106Y-11.003
X18.206Y-10.403
X18.206Y-11.003
X18.306Y-10.403
X18.306Y-11.003
X18.406Y-10.403
X18.406Y-11.003
X18.506Y-10.403
X18.506Y-11.003
X18.606Y-10.403
X18.606Y-11.003
X18.706Y-10.403
X18.706Y-11.003
X18.806Y-10.403
X18.806Y-11.003
X18.906Y-10.403
X18.906Y-11.003
X19.006Y-10.403
X19.006Y-11.003
X19.106Y-10.403
X19.106Y-11.003
X19.206Y-10.403
X19.206Y-11.003
X19.2952Y-11.6503
X19.306Y-10.403
X19.306Y-11.003
X19.3621Y-11.8038
X19.406Y-10.403
X19.406Y-11.003
X19.429Y-11.6503
X19.4959Y-11.8038
X19.506Y-10.403
X19.506Y-11.003
X19.5629Y-11.6503
T4
X16.445Y-6.67
X16.445Y-6.77
X16.445Y-6.87
X16.445Y-6.97
X16.545Y-6.72
X16.545Y-6.82
X16.545Y-6.92
X16.545Y-7.02
T5
X18.722Y-12.043
X18.722Y-12.143
T6
X5.159Y-7.64
X5.159Y-7.74
X5.159Y-7.84
X5.159Y-7.94
X5.159Y-8.04
X5.159Y-8.14
X5.159Y-8.24
X5.159Y-8.34
X5.159Y-8.44
X5.159Y-8.54
X5.159Y-8.64
X5.159Y-8.74
X5.159Y-8.84
X5.159Y-8.94
X5.159Y-9.04
X5.159Y-9.14
X5.159Y-9.24
X5.159Y-9.34
X5.252Y-3.9315
X5.252Y-4.0315
X5.252Y-10.0693
X5.252Y-10.1693
X5.252Y-10.9394
X5.252Y-11.0394
X5.259Y-7.64
X5.259Y-7.74
X5.259Y-7.84
X5.259Y-7.94
X5.259Y-8.04
X5.259Y-8.14
X5.259Y-8.24
X5.259Y-8.34
X5.259Y-8.44
X5.259Y-8.54
X5.259Y-8.64
X5.259Y-8.74
X5.259Y-8.84
X5.259Y-8.94
X5.259Y-9.04
X5.259Y-9.14
X5.259Y-9.24
X5.259Y-9.34
X5.2913Y-5.8528
X5.2913Y-5.9528
X5.352Y-3.9315
X5.352Y-4.0315
X5.352Y-10.0693
X5.352Y-10.1693
X5.352Y-10.9394
X5.352Y-11.0394
X5.359Y-9.54
X5.3913Y-5.8528
X5.3913Y-5.9528
X5.452Y-3.9315
X5.452Y-4.0315
X5.452Y-10.0693
X5.452Y-10.1693
X5.452Y-10.9394
X5.452Y-11.0394
X5.459Y-9.54
X5.4913Y-5.8528
X5.4913Y-5.9528
X5.552Y-3.9315
X5.552Y-4.0315
X5.552Y-10.0693
X5.552Y-10.1693
X5.552Y-10.9394
X5.552Y-11.0394
X5.559Y-7.64
X5.559Y-9.54
X5.5913Y-5.8528
X5.5913Y-5.9528
X5.652Y-3.9315
X5.652Y-4.0315
X5.652Y-10.0693
X5.652Y-10.1693
X5.652Y-10.9394
X5.652Y-11.0394
X5.659Y-7.64
X5.659Y-9.54
X5.6913Y-5.8528
X5.6913Y-5.9528
X5.752Y-3.9315
X5.752Y-4.0315
X5.752Y-10.0693
X5.752Y-10.1693
X5.752Y-10.9394
X5.752Y-11.0394
X5.759Y-7.64
X5.759Y-9.54
X5.7913Y-5.8528
X5.7913Y-5.9528
X5.852Y-3.9315
X5.852Y-4.0315
X5.852Y-10.0693
X5.852Y-10.1693
X5.852Y-10.9394
X5.852Y-11.0394
X5.859Y-7.64
X5.859Y-9.54
X5.8913Y-5.8528
X5.8913Y-5.9528
X5.959Y-7.64
X5.959Y-9.54
X6.059Y-7.64
X6.059Y-9.54
X6.159Y-7.64
X6.259Y-7.64
X6.259Y-9.54
X6.354Y-8.44
X6.354Y-8.54
X6.354Y-8.64
X6.359Y-9.54
X6.454Y-8.44
X6.454Y-8.54
X6.454Y-8.64
X6.459Y-7.64
X6.459Y-9.54
X6.559Y-7.64
X6.559Y-9.54
X6.659Y-7.64
X6.659Y-9.54
X6.759Y-7.64
X6.759Y-9.54
X6.859Y-7.64
X6.859Y-9.54
X6.959Y-7.64
X6.959Y-9.54
X7.059Y-7.64
X7.159Y-7.64
X7.159Y-9.54
X7.259Y-9.54
X7.319Y-7.64
X7.359Y-9.54
X7.419Y-7.64
X7.4331Y-3.9315
X7.4331Y-4.0315
X7.4331Y-5.8528
X7.4331Y-5.9528
X7.4331Y-10.0693
X7.4331Y-10.1693
X7.4331Y-10.9394
X7.4331Y-11.0394
X7.459Y-9.54
X7.519Y-7.64
X7.5331Y-3.9315
X7.5331Y-4.0315
X7.5331Y-5.8528
X7.5331Y-5.9528
X7.5331Y-10.0693
X7.5331Y-10.1693
X7.5331Y-10.9394
X7.5331Y-11.0394
X7.559Y-9.54
X7.619Y-7.64
X7.6331Y-3.9315
X7.6331Y-4.0315
X7.6331Y-5.8528
X7.6331Y-5.9528
X7.6331Y-10.0693
X7.6331Y-10.1693
X7.6331Y-10.9394
X7.6331Y-11.0394
X7.659Y-9.54
X7.719Y-7.64
X7.7331Y-3.9315
X7.7331Y-4.0315
X7.7331Y-5.8528
X7.7331Y-5.9528
X7.7331Y-10.0693
X7.7331Y-10.1693
X7.7331Y-10.9394
X7.7331Y-11.0394
X7.759Y-9.54
X7.819Y-7.64
X7.8331Y-3.9315
X7.8331Y-4.0315
X7.8331Y-5.8528
X7.8331Y-5.9528
X7.8331Y-10.0693
X7.8331Y-10.1693
X7.8331Y-10.9394
X7.8331Y-11.0394
X7.859Y-9.54
X7.919Y-7.64
X7.9331Y-3.9315
X7.9331Y-4.0315
X7.9331Y-5.8528
X7.9331Y-5.9528
X7.9331Y-10.0693
X7.9331Y-10.1693
X7.9331Y-10.9394
X7.9331Y-11.0394
X8.019Y-7.64
X8.0331Y-3.9315
X8.0331Y-4.0315
X8.0331Y-5.8528
X8.0331Y-5.9528
X8.0331Y-10.0693
X8.0331Y-10.1693
X8.0331Y-10.9394
X8.0331Y-11.0394
X8.119Y-7.64
X8.219Y-7.64
X10.4906Y-8.9748
X10.4906Y-9.0748
X10.4906Y-9.1748
X10.4906Y-9.2748
X10.4906Y-9.3748
X10.4906Y-9.4748
X10.4906Y-9.5748
X10.5906Y-8.9748
X10.5906Y-9.0748
X10.5906Y-9.1748
X10.5906Y-9.2748
X10.5906Y-9.3748
X10.5906Y-9.4748
X10.5906Y-9.5748
X11.9472Y-5.9575
X11.9472Y-6.0575
X11.9472Y-6.1575
X12.0472Y-5.9575
X12.0472Y-6.0575
X12.0472Y-6.1575
X12.648Y-5.9575
X12.648Y-6.0575
X12.648Y-6.1575
X12.648Y-6.8575
X12.648Y-6.9575
X12.648Y-7.0575
X12.648Y-7.1575
X12.748Y-5.9575
X12.748Y-6.0575
X12.748Y-6.1575
X12.748Y-6.8575
X12.748Y-6.9575
X12.748Y-7.0575
X12.748Y-7.1575
X15.9866Y-5.0535
X15.9866Y-5.1535
X15.9866Y-5.2535
X15.9866Y-5.3535
X15.9866Y-5.4535
X15.9866Y-5.5535
X15.9866Y-5.6535
X15.9866Y-7.642
X15.9866Y-7.742
X15.9866Y-7.842
X15.9866Y-7.942
X15.9866Y-8.042
X16.0866Y-5.0535
X16.0866Y-5.1535
X16.0866Y-5.2535
X16.0866Y-5.3535
X16.0866Y-5.4535
X16.0866Y-5.5535
X16.0866Y-5.6535
X16.0866Y-7.642
X16.0866Y-7.742
X16.0866Y-7.842
X16.0866Y-7.942
X16.0866Y-8.042
T7
X18.939Y-5.791
X18.939Y-6.591
X19.239Y-5.5941
X19.239Y-5.9878
X19.239Y-6.591
T8
X18.095Y-11.561
X18.095Y-11.961
T0
M30
