G04 #@! TF.FileFunction,Legend,Top*
%FSLAX46Y46*%
G04 Gerber Fmt 4.6, Leading zero omitted, Abs format (unit mm)*
G04 Created by KiCad (PCBNEW 4.0.6) date 03/10/20 06:56:11*
%MOMM*%
%LPD*%
G01*
G04 APERTURE LIST*
%ADD10C,0.100000*%
%ADD11C,0.300000*%
%ADD12C,0.120000*%
%ADD13C,0.200000*%
%ADD14C,0.127000*%
%ADD15C,0.101600*%
%ADD16C,0.150000*%
G04 APERTURE END LIST*
D10*
D11*
X67438607Y-132382811D02*
X66724321Y-132382811D01*
X66724321Y-130882811D01*
X67938607Y-132382811D02*
X67938607Y-131382811D01*
X67938607Y-130882811D02*
X67867178Y-130954240D01*
X67938607Y-131025669D01*
X68010035Y-130954240D01*
X67938607Y-130882811D01*
X67938607Y-131025669D01*
X68652893Y-131382811D02*
X68652893Y-132382811D01*
X68652893Y-131525669D02*
X68724321Y-131454240D01*
X68867179Y-131382811D01*
X69081464Y-131382811D01*
X69224321Y-131454240D01*
X69295750Y-131597097D01*
X69295750Y-132382811D01*
X70581464Y-132311383D02*
X70438607Y-132382811D01*
X70152893Y-132382811D01*
X70010036Y-132311383D01*
X69938607Y-132168526D01*
X69938607Y-131597097D01*
X70010036Y-131454240D01*
X70152893Y-131382811D01*
X70438607Y-131382811D01*
X70581464Y-131454240D01*
X70652893Y-131597097D01*
X70652893Y-131739954D01*
X69938607Y-131882811D01*
X72938607Y-131597097D02*
X72438607Y-131597097D01*
X72438607Y-132382811D02*
X72438607Y-130882811D01*
X73152893Y-130882811D01*
X73938607Y-132382811D02*
X73795749Y-132311383D01*
X73724321Y-132239954D01*
X73652892Y-132097097D01*
X73652892Y-131668526D01*
X73724321Y-131525669D01*
X73795749Y-131454240D01*
X73938607Y-131382811D01*
X74152892Y-131382811D01*
X74295749Y-131454240D01*
X74367178Y-131525669D01*
X74438607Y-131668526D01*
X74438607Y-132097097D01*
X74367178Y-132239954D01*
X74295749Y-132311383D01*
X74152892Y-132382811D01*
X73938607Y-132382811D01*
X75295750Y-132382811D02*
X75152892Y-132311383D01*
X75081464Y-132168526D01*
X75081464Y-130882811D01*
X76081464Y-132382811D02*
X75938606Y-132311383D01*
X75867178Y-132168526D01*
X75867178Y-130882811D01*
X76867178Y-132382811D02*
X76724320Y-132311383D01*
X76652892Y-132239954D01*
X76581463Y-132097097D01*
X76581463Y-131668526D01*
X76652892Y-131525669D01*
X76724320Y-131454240D01*
X76867178Y-131382811D01*
X77081463Y-131382811D01*
X77224320Y-131454240D01*
X77295749Y-131525669D01*
X77367178Y-131668526D01*
X77367178Y-132097097D01*
X77295749Y-132239954D01*
X77224320Y-132311383D01*
X77081463Y-132382811D01*
X76867178Y-132382811D01*
X77867178Y-131382811D02*
X78152892Y-132382811D01*
X78438606Y-131668526D01*
X78724321Y-132382811D01*
X79010035Y-131382811D01*
X80152892Y-132311383D02*
X80010035Y-132382811D01*
X79724321Y-132382811D01*
X79581464Y-132311383D01*
X79510035Y-132168526D01*
X79510035Y-131597097D01*
X79581464Y-131454240D01*
X79724321Y-131382811D01*
X80010035Y-131382811D01*
X80152892Y-131454240D01*
X80224321Y-131597097D01*
X80224321Y-131739954D01*
X79510035Y-131882811D01*
X80867178Y-132382811D02*
X80867178Y-131382811D01*
X80867178Y-131668526D02*
X80938606Y-131525669D01*
X81010035Y-131454240D01*
X81152892Y-131382811D01*
X81295749Y-131382811D01*
X82795749Y-131382811D02*
X83152892Y-132382811D01*
X83510034Y-131382811D01*
X84367177Y-130882811D02*
X84510034Y-130882811D01*
X84652891Y-130954240D01*
X84724320Y-131025669D01*
X84795749Y-131168526D01*
X84867177Y-131454240D01*
X84867177Y-131811383D01*
X84795749Y-132097097D01*
X84724320Y-132239954D01*
X84652891Y-132311383D01*
X84510034Y-132382811D01*
X84367177Y-132382811D01*
X84224320Y-132311383D01*
X84152891Y-132239954D01*
X84081463Y-132097097D01*
X84010034Y-131811383D01*
X84010034Y-131454240D01*
X84081463Y-131168526D01*
X84152891Y-131025669D01*
X84224320Y-130954240D01*
X84367177Y-130882811D01*
X85438605Y-131025669D02*
X85510034Y-130954240D01*
X85652891Y-130882811D01*
X86010034Y-130882811D01*
X86152891Y-130954240D01*
X86224320Y-131025669D01*
X86295748Y-131168526D01*
X86295748Y-131311383D01*
X86224320Y-131525669D01*
X85367177Y-132382811D01*
X86295748Y-132382811D01*
X70081463Y-134504240D02*
X70795749Y-134504240D01*
X69938606Y-134932811D02*
X70438606Y-133432811D01*
X70938606Y-134932811D01*
X71438606Y-133932811D02*
X71438606Y-135218526D01*
X71367177Y-135361383D01*
X71224320Y-135432811D01*
X71152892Y-135432811D01*
X71438606Y-133432811D02*
X71367177Y-133504240D01*
X71438606Y-133575669D01*
X71510034Y-133504240D01*
X71438606Y-133432811D01*
X71438606Y-133575669D01*
X72795749Y-134932811D02*
X72795749Y-134147097D01*
X72724320Y-134004240D01*
X72581463Y-133932811D01*
X72295749Y-133932811D01*
X72152892Y-134004240D01*
X72795749Y-134861383D02*
X72652892Y-134932811D01*
X72295749Y-134932811D01*
X72152892Y-134861383D01*
X72081463Y-134718526D01*
X72081463Y-134575669D01*
X72152892Y-134432811D01*
X72295749Y-134361383D01*
X72652892Y-134361383D01*
X72795749Y-134289954D01*
X73367178Y-133932811D02*
X73724321Y-134932811D01*
X74081463Y-133932811D02*
X73724321Y-134932811D01*
X73581463Y-135289954D01*
X73510035Y-135361383D01*
X73367178Y-135432811D01*
X75295749Y-134932811D02*
X75295749Y-134147097D01*
X75224320Y-134004240D01*
X75081463Y-133932811D01*
X74795749Y-133932811D01*
X74652892Y-134004240D01*
X75295749Y-134861383D02*
X75152892Y-134932811D01*
X74795749Y-134932811D01*
X74652892Y-134861383D01*
X74581463Y-134718526D01*
X74581463Y-134575669D01*
X74652892Y-134432811D01*
X74795749Y-134361383D01*
X75152892Y-134361383D01*
X75295749Y-134289954D01*
X77152892Y-134932811D02*
X77152892Y-133432811D01*
X77510035Y-133432811D01*
X77724320Y-133504240D01*
X77867178Y-133647097D01*
X77938606Y-133789954D01*
X78010035Y-134075669D01*
X78010035Y-134289954D01*
X77938606Y-134575669D01*
X77867178Y-134718526D01*
X77724320Y-134861383D01*
X77510035Y-134932811D01*
X77152892Y-134932811D01*
X79295749Y-134932811D02*
X79295749Y-134147097D01*
X79224320Y-134004240D01*
X79081463Y-133932811D01*
X78795749Y-133932811D01*
X78652892Y-134004240D01*
X79295749Y-134861383D02*
X79152892Y-134932811D01*
X78795749Y-134932811D01*
X78652892Y-134861383D01*
X78581463Y-134718526D01*
X78581463Y-134575669D01*
X78652892Y-134432811D01*
X78795749Y-134361383D01*
X79152892Y-134361383D01*
X79295749Y-134289954D01*
X80010035Y-134932811D02*
X80010035Y-133432811D01*
X80652892Y-134932811D02*
X80652892Y-134147097D01*
X80581463Y-134004240D01*
X80438606Y-133932811D01*
X80224321Y-133932811D01*
X80081463Y-134004240D01*
X80010035Y-134075669D01*
X82010035Y-134932811D02*
X82010035Y-134147097D01*
X81938606Y-134004240D01*
X81795749Y-133932811D01*
X81510035Y-133932811D01*
X81367178Y-134004240D01*
X82010035Y-134861383D02*
X81867178Y-134932811D01*
X81510035Y-134932811D01*
X81367178Y-134861383D01*
X81295749Y-134718526D01*
X81295749Y-134575669D01*
X81367178Y-134432811D01*
X81510035Y-134361383D01*
X81867178Y-134361383D01*
X82010035Y-134289954D01*
X82938607Y-134932811D02*
X82795749Y-134861383D01*
X82724321Y-134718526D01*
X82724321Y-133432811D01*
X66617179Y-137482811D02*
X66617179Y-135982811D01*
X67117179Y-137054240D01*
X67617179Y-135982811D01*
X67617179Y-137482811D01*
X68260036Y-137411383D02*
X68474322Y-137482811D01*
X68831465Y-137482811D01*
X68974322Y-137411383D01*
X69045751Y-137339954D01*
X69117179Y-137197097D01*
X69117179Y-137054240D01*
X69045751Y-136911383D01*
X68974322Y-136839954D01*
X68831465Y-136768526D01*
X68545751Y-136697097D01*
X68402893Y-136625669D01*
X68331465Y-136554240D01*
X68260036Y-136411383D01*
X68260036Y-136268526D01*
X68331465Y-136125669D01*
X68402893Y-136054240D01*
X68545751Y-135982811D01*
X68902893Y-135982811D01*
X69117179Y-136054240D01*
X69688607Y-137411383D02*
X69902893Y-137482811D01*
X70260036Y-137482811D01*
X70402893Y-137411383D01*
X70474322Y-137339954D01*
X70545750Y-137197097D01*
X70545750Y-137054240D01*
X70474322Y-136911383D01*
X70402893Y-136839954D01*
X70260036Y-136768526D01*
X69974322Y-136697097D01*
X69831464Y-136625669D01*
X69760036Y-136554240D01*
X69688607Y-136411383D01*
X69688607Y-136268526D01*
X69760036Y-136125669D01*
X69831464Y-136054240D01*
X69974322Y-135982811D01*
X70331464Y-135982811D01*
X70545750Y-136054240D01*
X70974321Y-135982811D02*
X71831464Y-135982811D01*
X71402893Y-137482811D02*
X71402893Y-135982811D01*
X72260035Y-137054240D02*
X72974321Y-137054240D01*
X72117178Y-137482811D02*
X72617178Y-135982811D01*
X73117178Y-137482811D01*
X73402892Y-135982811D02*
X74260035Y-135982811D01*
X73831464Y-137482811D02*
X73831464Y-135982811D01*
X74760035Y-136697097D02*
X75260035Y-136697097D01*
X75474321Y-137482811D02*
X74760035Y-137482811D01*
X74760035Y-135982811D01*
X75474321Y-135982811D01*
X77188606Y-137411383D02*
X77402892Y-137482811D01*
X77760035Y-137482811D01*
X77902892Y-137411383D01*
X77974321Y-137339954D01*
X78045749Y-137197097D01*
X78045749Y-137054240D01*
X77974321Y-136911383D01*
X77902892Y-136839954D01*
X77760035Y-136768526D01*
X77474321Y-136697097D01*
X77331463Y-136625669D01*
X77260035Y-136554240D01*
X77188606Y-136411383D01*
X77188606Y-136268526D01*
X77260035Y-136125669D01*
X77331463Y-136054240D01*
X77474321Y-135982811D01*
X77831463Y-135982811D01*
X78045749Y-136054240D01*
X78688606Y-137482811D02*
X78688606Y-135982811D01*
X79260034Y-135982811D01*
X79402892Y-136054240D01*
X79474320Y-136125669D01*
X79545749Y-136268526D01*
X79545749Y-136482811D01*
X79474320Y-136625669D01*
X79402892Y-136697097D01*
X79260034Y-136768526D01*
X78688606Y-136768526D01*
X81260034Y-136125669D02*
X81331463Y-136054240D01*
X81474320Y-135982811D01*
X81831463Y-135982811D01*
X81974320Y-136054240D01*
X82045749Y-136125669D01*
X82117177Y-136268526D01*
X82117177Y-136411383D01*
X82045749Y-136625669D01*
X81188606Y-137482811D01*
X82117177Y-137482811D01*
X83045748Y-135982811D02*
X83188605Y-135982811D01*
X83331462Y-136054240D01*
X83402891Y-136125669D01*
X83474320Y-136268526D01*
X83545748Y-136554240D01*
X83545748Y-136911383D01*
X83474320Y-137197097D01*
X83402891Y-137339954D01*
X83331462Y-137411383D01*
X83188605Y-137482811D01*
X83045748Y-137482811D01*
X82902891Y-137411383D01*
X82831462Y-137339954D01*
X82760034Y-137197097D01*
X82688605Y-136911383D01*
X82688605Y-136554240D01*
X82760034Y-136268526D01*
X82831462Y-136125669D01*
X82902891Y-136054240D01*
X83045748Y-135982811D01*
X84117176Y-136125669D02*
X84188605Y-136054240D01*
X84331462Y-135982811D01*
X84688605Y-135982811D01*
X84831462Y-136054240D01*
X84902891Y-136125669D01*
X84974319Y-136268526D01*
X84974319Y-136411383D01*
X84902891Y-136625669D01*
X84045748Y-137482811D01*
X84974319Y-137482811D01*
X85902890Y-135982811D02*
X86045747Y-135982811D01*
X86188604Y-136054240D01*
X86260033Y-136125669D01*
X86331462Y-136268526D01*
X86402890Y-136554240D01*
X86402890Y-136911383D01*
X86331462Y-137197097D01*
X86260033Y-137339954D01*
X86188604Y-137411383D01*
X86045747Y-137482811D01*
X85902890Y-137482811D01*
X85760033Y-137411383D01*
X85688604Y-137339954D01*
X85617176Y-137197097D01*
X85545747Y-136911383D01*
X85545747Y-136554240D01*
X85617176Y-136268526D01*
X85688604Y-136125669D01*
X85760033Y-136054240D01*
X85902890Y-135982811D01*
D12*
X81265336Y-108306830D02*
G75*
G03X77572904Y-108306000I-1846436J-979170D01*
G01*
X81265336Y-110265170D02*
G75*
G02X77572904Y-110266000I-1846436J979170D01*
G01*
X81265336Y-110265170D02*
G75*
G03X81264896Y-108306000I-1846436J979170D01*
G01*
X79418900Y-110066000D02*
X79418900Y-111336000D01*
X79418900Y-107236000D02*
X79418900Y-108506000D01*
X79458900Y-107236000D02*
X79458900Y-108506000D01*
X79458900Y-110066000D02*
X79458900Y-111336000D01*
X79498900Y-107237000D02*
X79498900Y-108506000D01*
X79498900Y-110066000D02*
X79498900Y-111335000D01*
X79538900Y-107239000D02*
X79538900Y-108506000D01*
X79538900Y-110066000D02*
X79538900Y-111333000D01*
X79578900Y-107242000D02*
X79578900Y-108506000D01*
X79578900Y-110066000D02*
X79578900Y-111330000D01*
X79618900Y-107245000D02*
X79618900Y-108506000D01*
X79618900Y-110066000D02*
X79618900Y-111327000D01*
X79658900Y-107249000D02*
X79658900Y-108506000D01*
X79658900Y-110066000D02*
X79658900Y-111323000D01*
X79698900Y-107254000D02*
X79698900Y-108506000D01*
X79698900Y-110066000D02*
X79698900Y-111318000D01*
X79738900Y-107260000D02*
X79738900Y-108506000D01*
X79738900Y-110066000D02*
X79738900Y-111312000D01*
X79778900Y-107267000D02*
X79778900Y-108506000D01*
X79778900Y-110066000D02*
X79778900Y-111305000D01*
X79818900Y-107274000D02*
X79818900Y-108506000D01*
X79818900Y-110066000D02*
X79818900Y-111298000D01*
X79858900Y-107282000D02*
X79858900Y-108506000D01*
X79858900Y-110066000D02*
X79858900Y-111290000D01*
X79898900Y-107291000D02*
X79898900Y-108506000D01*
X79898900Y-110066000D02*
X79898900Y-111281000D01*
X79938900Y-107301000D02*
X79938900Y-108506000D01*
X79938900Y-110066000D02*
X79938900Y-111271000D01*
X79978900Y-107312000D02*
X79978900Y-108506000D01*
X79978900Y-110066000D02*
X79978900Y-111260000D01*
X80018900Y-107323000D02*
X80018900Y-108506000D01*
X80018900Y-110066000D02*
X80018900Y-111249000D01*
X80058900Y-107336000D02*
X80058900Y-108506000D01*
X80058900Y-110066000D02*
X80058900Y-111236000D01*
X80098900Y-107349000D02*
X80098900Y-108506000D01*
X80098900Y-110066000D02*
X80098900Y-111223000D01*
X80139900Y-107363000D02*
X80139900Y-108506000D01*
X80139900Y-110066000D02*
X80139900Y-111209000D01*
X80179900Y-107379000D02*
X80179900Y-108506000D01*
X80179900Y-110066000D02*
X80179900Y-111193000D01*
X80219900Y-107395000D02*
X80219900Y-108506000D01*
X80219900Y-110066000D02*
X80219900Y-111177000D01*
X80259900Y-107412000D02*
X80259900Y-108506000D01*
X80259900Y-110066000D02*
X80259900Y-111160000D01*
X80299900Y-107430000D02*
X80299900Y-108506000D01*
X80299900Y-110066000D02*
X80299900Y-111142000D01*
X80339900Y-107449000D02*
X80339900Y-108506000D01*
X80339900Y-110066000D02*
X80339900Y-111123000D01*
X80379900Y-107469000D02*
X80379900Y-108506000D01*
X80379900Y-110066000D02*
X80379900Y-111103000D01*
X80419900Y-107490000D02*
X80419900Y-108506000D01*
X80419900Y-110066000D02*
X80419900Y-111082000D01*
X80459900Y-107513000D02*
X80459900Y-108506000D01*
X80459900Y-110066000D02*
X80459900Y-111059000D01*
X80499900Y-107536000D02*
X80499900Y-108506000D01*
X80499900Y-110066000D02*
X80499900Y-111036000D01*
X80539900Y-107561000D02*
X80539900Y-108506000D01*
X80539900Y-110066000D02*
X80539900Y-111011000D01*
X80579900Y-107587000D02*
X80579900Y-108506000D01*
X80579900Y-110066000D02*
X80579900Y-110985000D01*
X80619900Y-107614000D02*
X80619900Y-108506000D01*
X80619900Y-110066000D02*
X80619900Y-110958000D01*
X80659900Y-107643000D02*
X80659900Y-108506000D01*
X80659900Y-110066000D02*
X80659900Y-110929000D01*
X80699900Y-107673000D02*
X80699900Y-108506000D01*
X80699900Y-110066000D02*
X80699900Y-110899000D01*
X80739900Y-107705000D02*
X80739900Y-108506000D01*
X80739900Y-110066000D02*
X80739900Y-110867000D01*
X80779900Y-107739000D02*
X80779900Y-108506000D01*
X80779900Y-110066000D02*
X80779900Y-110833000D01*
X80819900Y-107774000D02*
X80819900Y-108506000D01*
X80819900Y-110066000D02*
X80819900Y-110798000D01*
X80859900Y-107811000D02*
X80859900Y-108506000D01*
X80859900Y-110066000D02*
X80859900Y-110761000D01*
X80899900Y-107850000D02*
X80899900Y-108506000D01*
X80899900Y-110066000D02*
X80899900Y-110722000D01*
X80939900Y-107891000D02*
X80939900Y-108506000D01*
X80939900Y-110066000D02*
X80939900Y-110681000D01*
X80979900Y-107935000D02*
X80979900Y-110637000D01*
X81019900Y-107981000D02*
X81019900Y-110591000D01*
X81059900Y-108030000D02*
X81059900Y-110542000D01*
X81099900Y-108082000D02*
X81099900Y-110490000D01*
X81139900Y-108138000D02*
X81139900Y-110434000D01*
X81179900Y-108198000D02*
X81179900Y-110374000D01*
X81219900Y-108263000D02*
X81219900Y-110309000D01*
X81259900Y-108334000D02*
X81259900Y-110238000D01*
X81299900Y-108412000D02*
X81299900Y-110160000D01*
X81339900Y-108500000D02*
X81339900Y-110072000D01*
X81379900Y-108600000D02*
X81379900Y-109972000D01*
X81419900Y-108719000D02*
X81419900Y-109853000D01*
X81459900Y-108871000D02*
X81459900Y-109701000D01*
X81499900Y-109121000D02*
X81499900Y-109451000D01*
X76968900Y-109286000D02*
X77868900Y-109286000D01*
X77418900Y-108836000D02*
X77418900Y-109736000D01*
X93260000Y-55140000D02*
X93260000Y-58860000D01*
X93260000Y-58860000D02*
X100980000Y-58860000D01*
X100980000Y-58860000D02*
X100980000Y-55140000D01*
X100980000Y-55140000D02*
X93260000Y-55140000D01*
X90880000Y-57000000D02*
X93260000Y-57000000D01*
X103360000Y-57000000D02*
X100980000Y-57000000D01*
X94460000Y-55140000D02*
X94460000Y-58860000D01*
X93260000Y-143580000D02*
X93260000Y-147300000D01*
X93260000Y-147300000D02*
X100980000Y-147300000D01*
X100980000Y-147300000D02*
X100980000Y-143580000D01*
X100980000Y-143580000D02*
X93260000Y-143580000D01*
X90880000Y-145440000D02*
X93260000Y-145440000D01*
X103360000Y-145440000D02*
X100980000Y-145440000D01*
X94460000Y-143580000D02*
X94460000Y-147300000D01*
X114323242Y-138228276D02*
G75*
G03X110020000Y-137910251I-2243242J-1080724D01*
G01*
X114323242Y-140389724D02*
G75*
G02X110020000Y-140707749I-2243242J1080724D01*
G01*
X113762713Y-138228039D02*
G75*
G03X110396670Y-138229000I-1682713J-1080961D01*
G01*
X113762713Y-140389961D02*
G75*
G02X110396670Y-140389000I-1682713J1080961D01*
G01*
X110020000Y-137910000D02*
X110020000Y-138229000D01*
X110020000Y-140389000D02*
X110020000Y-140708000D01*
X112513242Y-64745876D02*
G75*
G03X108210000Y-64427851I-2243242J-1080724D01*
G01*
X112513242Y-66907324D02*
G75*
G02X108210000Y-67225349I-2243242J1080724D01*
G01*
X111952713Y-64745639D02*
G75*
G03X108586670Y-64746600I-1682713J-1080961D01*
G01*
X111952713Y-66907561D02*
G75*
G02X108586670Y-66906600I-1682713J1080961D01*
G01*
X108210000Y-64427600D02*
X108210000Y-64746600D01*
X108210000Y-66906600D02*
X108210000Y-67225600D01*
D13*
X81960500Y-118252000D02*
X76880500Y-118252000D01*
X76880500Y-118252000D02*
X76880500Y-115072000D01*
X76880500Y-115072000D02*
X81960500Y-115072000D01*
X81960500Y-115072000D02*
X81960500Y-118252000D01*
D12*
X181410000Y-116330000D02*
X181410000Y-113670000D01*
X176270000Y-116330000D02*
X181410000Y-116330000D01*
X176270000Y-113670000D02*
X181410000Y-113670000D01*
X176270000Y-116330000D02*
X176270000Y-113670000D01*
X175000000Y-116330000D02*
X173670000Y-116330000D01*
X173670000Y-116330000D02*
X173670000Y-115000000D01*
X181410000Y-91967400D02*
X181410000Y-89307400D01*
X176270000Y-91967400D02*
X181410000Y-91967400D01*
X176270000Y-89307400D02*
X181410000Y-89307400D01*
X176270000Y-91967400D02*
X176270000Y-89307400D01*
X175000000Y-91967400D02*
X173670000Y-91967400D01*
X173670000Y-91967400D02*
X173670000Y-90637400D01*
X74981800Y-120072000D02*
X74981800Y-122732000D01*
X80121800Y-120072000D02*
X74981800Y-120072000D01*
X80121800Y-122732000D02*
X74981800Y-122732000D01*
X80121800Y-120072000D02*
X80121800Y-122732000D01*
X81391800Y-120072000D02*
X82721800Y-120072000D01*
X82721800Y-120072000D02*
X82721800Y-121402000D01*
X70341800Y-88890800D02*
X67681800Y-88890800D01*
X70341800Y-94030800D02*
X70341800Y-88890800D01*
X67681800Y-94030800D02*
X67681800Y-88890800D01*
X70341800Y-94030800D02*
X67681800Y-94030800D01*
X70341800Y-95300800D02*
X70341800Y-96630800D01*
X70341800Y-96630800D02*
X69011800Y-96630800D01*
X67798600Y-107611000D02*
X67798600Y-110271000D01*
X70398600Y-107611000D02*
X67798600Y-107611000D01*
X70398600Y-110271000D02*
X67798600Y-110271000D01*
X70398600Y-107611000D02*
X70398600Y-110271000D01*
X71668600Y-107611000D02*
X72998600Y-107611000D01*
X72998600Y-107611000D02*
X72998600Y-108941000D01*
X136509000Y-99051000D02*
X133849000Y-99051000D01*
X136509000Y-104191000D02*
X136509000Y-99051000D01*
X133849000Y-104191000D02*
X133849000Y-99051000D01*
X136509000Y-104191000D02*
X133849000Y-104191000D01*
X136509000Y-105461000D02*
X136509000Y-106791000D01*
X136509000Y-106791000D02*
X135179000Y-106791000D01*
X72897000Y-125663000D02*
X72897000Y-123003000D01*
X70297000Y-125663000D02*
X72897000Y-125663000D01*
X70297000Y-123003000D02*
X72897000Y-123003000D01*
X70297000Y-125663000D02*
X70297000Y-123003000D01*
X69027000Y-125663000D02*
X67697000Y-125663000D01*
X67697000Y-125663000D02*
X67697000Y-124333000D01*
X70367200Y-74489000D02*
X67707200Y-74489000D01*
X70367200Y-82169000D02*
X70367200Y-74489000D01*
X67707200Y-82169000D02*
X67707200Y-74489000D01*
X70367200Y-82169000D02*
X67707200Y-82169000D01*
X70367200Y-83439000D02*
X70367200Y-84769000D01*
X70367200Y-84769000D02*
X69037200Y-84769000D01*
D14*
X88000000Y-68350000D02*
X88000000Y-60850000D01*
X88000000Y-60850000D02*
X103000000Y-60850000D01*
X103000000Y-60850000D02*
X103000000Y-68350000D01*
X103000000Y-68350000D02*
X88000000Y-68350000D01*
D13*
X89230000Y-68800000D02*
G75*
G03X89230000Y-68800000I-100000J0D01*
G01*
D14*
X88000000Y-140850000D02*
X88000000Y-133350000D01*
X88000000Y-133350000D02*
X103000000Y-133350000D01*
X103000000Y-133350000D02*
X103000000Y-140850000D01*
X103000000Y-140850000D02*
X88000000Y-140850000D01*
D13*
X89230000Y-141300000D02*
G75*
G03X89230000Y-141300000I-100000J0D01*
G01*
D12*
X108740000Y-60036300D02*
X112340000Y-60036300D01*
X108215816Y-59309095D02*
G75*
G03X108740000Y-60036300I2324184J1122795D01*
G01*
X108183600Y-57087493D02*
G75*
G02X110540000Y-55586300I2356400J-1098807D01*
G01*
X112896400Y-57087493D02*
G75*
G03X110540000Y-55586300I-2356400J-1098807D01*
G01*
X112864184Y-59309095D02*
G75*
G02X112340000Y-60036300I-2324184J1122795D01*
G01*
X113260000Y-144718000D02*
X109660000Y-144718000D01*
X113784184Y-145445205D02*
G75*
G03X113260000Y-144718000I-2324184J-1122795D01*
G01*
X113816400Y-147666807D02*
G75*
G02X111460000Y-149168000I-2356400J1098807D01*
G01*
X109103600Y-147666807D02*
G75*
G03X111460000Y-149168000I2356400J1098807D01*
G01*
X109135816Y-145445205D02*
G75*
G02X109660000Y-144718000I2324184J-1122795D01*
G01*
X130400000Y-112500000D02*
G75*
G03X130400000Y-112500000I-900000J0D01*
G01*
X127873000Y-109290000D02*
X132710000Y-109290000D01*
X127873000Y-115710000D02*
X132710000Y-115710000D01*
X126290000Y-110758000D02*
X126290000Y-114243000D01*
X132710000Y-109290000D02*
X132710000Y-111743000D01*
X132710000Y-113258000D02*
X132710000Y-115710000D01*
X130400000Y-93500000D02*
G75*
G03X130400000Y-93500000I-900000J0D01*
G01*
X127873000Y-90290000D02*
X132710000Y-90290000D01*
X127873000Y-96710000D02*
X132710000Y-96710000D01*
X126290000Y-91758000D02*
X126290000Y-95243000D01*
X132710000Y-90290000D02*
X132710000Y-92743000D01*
X132710000Y-94258000D02*
X132710000Y-96710000D01*
X72442000Y-89486400D02*
X75762000Y-89486400D01*
X75762000Y-89486400D02*
X75762000Y-80366400D01*
X75762000Y-80366400D02*
X72442000Y-80366400D01*
X72442000Y-80366400D02*
X72442000Y-89486400D01*
X74102000Y-94106400D02*
X74102000Y-89486400D01*
X74102000Y-75746400D02*
X74102000Y-80366400D01*
X107951000Y-89486400D02*
X111271000Y-89486400D01*
X111271000Y-89486400D02*
X111271000Y-80366400D01*
X111271000Y-80366400D02*
X107951000Y-80366400D01*
X107951000Y-80366400D02*
X107951000Y-89486400D01*
X109611000Y-94106400D02*
X109611000Y-89486400D01*
X109611000Y-75746400D02*
X109611000Y-80366400D01*
X89264000Y-92040600D02*
X89264000Y-95360600D01*
X89264000Y-95360600D02*
X98384000Y-95360600D01*
X98384000Y-95360600D02*
X98384000Y-92040600D01*
X98384000Y-92040600D02*
X89264000Y-92040600D01*
X84644000Y-93700600D02*
X89264000Y-93700600D01*
X103004000Y-93700600D02*
X98384000Y-93700600D01*
X77395000Y-89486400D02*
X80715000Y-89486400D01*
X80715000Y-89486400D02*
X80715000Y-80366400D01*
X80715000Y-80366400D02*
X77395000Y-80366400D01*
X77395000Y-80366400D02*
X77395000Y-89486400D01*
X79055000Y-94106400D02*
X79055000Y-89486400D01*
X79055000Y-75746400D02*
X79055000Y-80366400D01*
X113290000Y-89486400D02*
X116610000Y-89486400D01*
X116610000Y-89486400D02*
X116610000Y-80366400D01*
X116610000Y-80366400D02*
X113290000Y-80366400D01*
X113290000Y-80366400D02*
X113290000Y-89486400D01*
X114950000Y-94106400D02*
X114950000Y-89486400D01*
X114950000Y-75746400D02*
X114950000Y-80366400D01*
X89264000Y-74646700D02*
X89264000Y-77966700D01*
X89264000Y-77966700D02*
X98384000Y-77966700D01*
X98384000Y-77966700D02*
X98384000Y-74646700D01*
X98384000Y-74646700D02*
X89264000Y-74646700D01*
X84644000Y-76306700D02*
X89264000Y-76306700D01*
X103004000Y-76306700D02*
X98384000Y-76306700D01*
X89264000Y-80570000D02*
X89264000Y-83890000D01*
X89264000Y-83890000D02*
X98384000Y-83890000D01*
X98384000Y-83890000D02*
X98384000Y-80570000D01*
X98384000Y-80570000D02*
X89264000Y-80570000D01*
X84644000Y-82230000D02*
X89264000Y-82230000D01*
X103004000Y-82230000D02*
X98384000Y-82230000D01*
X89264000Y-86158000D02*
X89264000Y-89478000D01*
X89264000Y-89478000D02*
X98384000Y-89478000D01*
X98384000Y-89478000D02*
X98384000Y-86158000D01*
X98384000Y-86158000D02*
X89264000Y-86158000D01*
X84644000Y-87818000D02*
X89264000Y-87818000D01*
X103004000Y-87818000D02*
X98384000Y-87818000D01*
D13*
X142800000Y-113200000D02*
G75*
G03X142800000Y-113200000I-100000J0D01*
G01*
D14*
X138910000Y-111890000D02*
X138910000Y-94110000D01*
X138910000Y-94110000D02*
X182090000Y-94110000D01*
X182090000Y-94110000D02*
X182090000Y-111890000D01*
X182090000Y-111890000D02*
X138910000Y-111890000D01*
D15*
X88468200Y-126822000D02*
G75*
G03X88468200Y-124790000I0J1016000D01*
G01*
X88214200Y-129616000D02*
G75*
G03X88214200Y-129616000I-254000J0D01*
G01*
D16*
X106756200Y-129362000D02*
X88468200Y-129362000D01*
X106756200Y-122758000D02*
X106756200Y-129362000D01*
X88468200Y-122758000D02*
X106756200Y-122758000D01*
D15*
X88468200Y-129362000D02*
X88468200Y-122758000D01*
D12*
X72608300Y-98850000D02*
X80848300Y-98850000D01*
X72608300Y-102340000D02*
X80848300Y-102340000D01*
X72608300Y-98850000D02*
X72608300Y-102340000D01*
X80848300Y-98850000D02*
X80848300Y-102340000D01*
X75128300Y-98850000D02*
X75128300Y-99920000D01*
X75128300Y-102020000D02*
X75128300Y-102340000D01*
X78329300Y-98850000D02*
X78329300Y-100430000D01*
X78329300Y-101510000D02*
X78329300Y-102340000D01*
D13*
X87323600Y-109767000D02*
G75*
G03X87323600Y-109767000I-100000J0D01*
G01*
D14*
X86113600Y-107792000D02*
X86113600Y-100692000D01*
X106113600Y-107792000D02*
X106113600Y-100692000D01*
D16*
X79228424Y-106333143D02*
X79180805Y-106380762D01*
X79037948Y-106428381D01*
X78942710Y-106428381D01*
X78799852Y-106380762D01*
X78704614Y-106285524D01*
X78656995Y-106190286D01*
X78609376Y-105999810D01*
X78609376Y-105856952D01*
X78656995Y-105666476D01*
X78704614Y-105571238D01*
X78799852Y-105476000D01*
X78942710Y-105428381D01*
X79037948Y-105428381D01*
X79180805Y-105476000D01*
X79228424Y-105523619D01*
X79656995Y-106428381D02*
X79656995Y-105428381D01*
X80037948Y-105428381D01*
X80133186Y-105476000D01*
X80180805Y-105523619D01*
X80228424Y-105618857D01*
X80228424Y-105761714D01*
X80180805Y-105856952D01*
X80133186Y-105904571D01*
X80037948Y-105952190D01*
X79656995Y-105952190D01*
X88206865Y-60335421D02*
X88206865Y-59335421D01*
X88444960Y-59335421D01*
X88587818Y-59383040D01*
X88683056Y-59478278D01*
X88730675Y-59573516D01*
X88778294Y-59763992D01*
X88778294Y-59906850D01*
X88730675Y-60097326D01*
X88683056Y-60192564D01*
X88587818Y-60287802D01*
X88444960Y-60335421D01*
X88206865Y-60335421D01*
X89730675Y-60335421D02*
X89159246Y-60335421D01*
X89444960Y-60335421D02*
X89444960Y-59335421D01*
X89349722Y-59478278D01*
X89254484Y-59573516D01*
X89159246Y-59621135D01*
X88196705Y-148981021D02*
X88196705Y-147981021D01*
X88434800Y-147981021D01*
X88577658Y-148028640D01*
X88672896Y-148123878D01*
X88720515Y-148219116D01*
X88768134Y-148409592D01*
X88768134Y-148552450D01*
X88720515Y-148742926D01*
X88672896Y-148838164D01*
X88577658Y-148933402D01*
X88434800Y-148981021D01*
X88196705Y-148981021D01*
X89149086Y-148076259D02*
X89196705Y-148028640D01*
X89291943Y-147981021D01*
X89530039Y-147981021D01*
X89625277Y-148028640D01*
X89672896Y-148076259D01*
X89720515Y-148171497D01*
X89720515Y-148266735D01*
X89672896Y-148409592D01*
X89101467Y-148981021D01*
X89720515Y-148981021D01*
X109401345Y-143352941D02*
X109401345Y-142352941D01*
X109639440Y-142352941D01*
X109782298Y-142400560D01*
X109877536Y-142495798D01*
X109925155Y-142591036D01*
X109972774Y-142781512D01*
X109972774Y-142924370D01*
X109925155Y-143114846D01*
X109877536Y-143210084D01*
X109782298Y-143305322D01*
X109639440Y-143352941D01*
X109401345Y-143352941D01*
X110306107Y-142352941D02*
X110925155Y-142352941D01*
X110591821Y-142733893D01*
X110734679Y-142733893D01*
X110829917Y-142781512D01*
X110877536Y-142829131D01*
X110925155Y-142924370D01*
X110925155Y-143162465D01*
X110877536Y-143257703D01*
X110829917Y-143305322D01*
X110734679Y-143352941D01*
X110448964Y-143352941D01*
X110353726Y-143305322D01*
X110306107Y-143257703D01*
X107811345Y-69987381D02*
X107811345Y-68987381D01*
X108049440Y-68987381D01*
X108192298Y-69035000D01*
X108287536Y-69130238D01*
X108335155Y-69225476D01*
X108382774Y-69415952D01*
X108382774Y-69558810D01*
X108335155Y-69749286D01*
X108287536Y-69844524D01*
X108192298Y-69939762D01*
X108049440Y-69987381D01*
X107811345Y-69987381D01*
X109239917Y-69320714D02*
X109239917Y-69987381D01*
X109001821Y-68939762D02*
X108763726Y-69654048D01*
X109382774Y-69654048D01*
X77512607Y-119003331D02*
X77179273Y-119003331D01*
X77179273Y-119527141D02*
X77179273Y-118527141D01*
X77655464Y-118527141D01*
X78560226Y-119527141D02*
X77988797Y-119527141D01*
X78274511Y-119527141D02*
X78274511Y-118527141D01*
X78179273Y-118669998D01*
X78084035Y-118765236D01*
X77988797Y-118812855D01*
X173890347Y-116993421D02*
X173890347Y-117707707D01*
X173842727Y-117850564D01*
X173747489Y-117945802D01*
X173604632Y-117993421D01*
X173509394Y-117993421D01*
X174890347Y-117993421D02*
X174318918Y-117993421D01*
X174604632Y-117993421D02*
X174604632Y-116993421D01*
X174509394Y-117136278D01*
X174414156Y-117231516D01*
X174318918Y-117279135D01*
X173692227Y-92584061D02*
X173692227Y-93298347D01*
X173644607Y-93441204D01*
X173549369Y-93536442D01*
X173406512Y-93584061D01*
X173311274Y-93584061D01*
X174120798Y-92679299D02*
X174168417Y-92631680D01*
X174263655Y-92584061D01*
X174501751Y-92584061D01*
X174596989Y-92631680D01*
X174644608Y-92679299D01*
X174692227Y-92774537D01*
X174692227Y-92869775D01*
X174644608Y-93012632D01*
X174073179Y-93584061D01*
X174692227Y-93584061D01*
X82207707Y-118279621D02*
X82207707Y-118993907D01*
X82160087Y-119136764D01*
X82064849Y-119232002D01*
X81921992Y-119279621D01*
X81826754Y-119279621D01*
X82588659Y-118279621D02*
X83207707Y-118279621D01*
X82874373Y-118660573D01*
X83017231Y-118660573D01*
X83112469Y-118708192D01*
X83160088Y-118755811D01*
X83207707Y-118851050D01*
X83207707Y-119089145D01*
X83160088Y-119184383D01*
X83112469Y-119232002D01*
X83017231Y-119279621D01*
X82731516Y-119279621D01*
X82636278Y-119232002D01*
X82588659Y-119184383D01*
X71252981Y-96636053D02*
X71967267Y-96636053D01*
X72110124Y-96683673D01*
X72205362Y-96778911D01*
X72252981Y-96921768D01*
X72252981Y-97017006D01*
X71586314Y-95731291D02*
X72252981Y-95731291D01*
X71205362Y-95969387D02*
X71919648Y-96207482D01*
X71919648Y-95588434D01*
X67576067Y-111040061D02*
X67576067Y-111754347D01*
X67528447Y-111897204D01*
X67433209Y-111992442D01*
X67290352Y-112040061D01*
X67195114Y-112040061D01*
X68528448Y-111040061D02*
X68052257Y-111040061D01*
X68004638Y-111516251D01*
X68052257Y-111468632D01*
X68147495Y-111421013D01*
X68385591Y-111421013D01*
X68480829Y-111468632D01*
X68528448Y-111516251D01*
X68576067Y-111611490D01*
X68576067Y-111849585D01*
X68528448Y-111944823D01*
X68480829Y-111992442D01*
X68385591Y-112040061D01*
X68147495Y-112040061D01*
X68052257Y-111992442D01*
X68004638Y-111944823D01*
X133428347Y-107626101D02*
X133428347Y-108340387D01*
X133380727Y-108483244D01*
X133285489Y-108578482D01*
X133142632Y-108626101D01*
X133047394Y-108626101D01*
X134333109Y-107626101D02*
X134142632Y-107626101D01*
X134047394Y-107673720D01*
X133999775Y-107721339D01*
X133904537Y-107864196D01*
X133856918Y-108054672D01*
X133856918Y-108435625D01*
X133904537Y-108530863D01*
X133952156Y-108578482D01*
X134047394Y-108626101D01*
X134237871Y-108626101D01*
X134333109Y-108578482D01*
X134380728Y-108530863D01*
X134428347Y-108435625D01*
X134428347Y-108197530D01*
X134380728Y-108102291D01*
X134333109Y-108054672D01*
X134237871Y-108007053D01*
X134047394Y-108007053D01*
X133952156Y-108054672D01*
X133904537Y-108102291D01*
X133856918Y-108197530D01*
X67738627Y-126635261D02*
X67738627Y-127349547D01*
X67691007Y-127492404D01*
X67595769Y-127587642D01*
X67452912Y-127635261D01*
X67357674Y-127635261D01*
X68119579Y-126635261D02*
X68786246Y-126635261D01*
X68357674Y-127635261D01*
X67672627Y-85512661D02*
X67672627Y-86226947D01*
X67625007Y-86369804D01*
X67529769Y-86465042D01*
X67386912Y-86512661D01*
X67291674Y-86512661D01*
X68291674Y-85941232D02*
X68196436Y-85893613D01*
X68148817Y-85845994D01*
X68101198Y-85750756D01*
X68101198Y-85703137D01*
X68148817Y-85607899D01*
X68196436Y-85560280D01*
X68291674Y-85512661D01*
X68482151Y-85512661D01*
X68577389Y-85560280D01*
X68625008Y-85607899D01*
X68672627Y-85703137D01*
X68672627Y-85750756D01*
X68625008Y-85845994D01*
X68577389Y-85893613D01*
X68482151Y-85941232D01*
X68291674Y-85941232D01*
X68196436Y-85988851D01*
X68148817Y-86036470D01*
X68101198Y-86131709D01*
X68101198Y-86322185D01*
X68148817Y-86417423D01*
X68196436Y-86465042D01*
X68291674Y-86512661D01*
X68482151Y-86512661D01*
X68577389Y-86465042D01*
X68625008Y-86417423D01*
X68672627Y-86322185D01*
X68672627Y-86131709D01*
X68625008Y-86036470D01*
X68577389Y-85988851D01*
X68482151Y-85941232D01*
X87950705Y-70353181D02*
X87950705Y-69353181D01*
X88522134Y-70353181D02*
X88093562Y-69781752D01*
X88522134Y-69353181D02*
X87950705Y-69924610D01*
X89474515Y-70353181D02*
X88903086Y-70353181D01*
X89188800Y-70353181D02*
X89188800Y-69353181D01*
X89093562Y-69496038D01*
X88998324Y-69591276D01*
X88903086Y-69638895D01*
X87986265Y-142931141D02*
X87986265Y-141931141D01*
X88557694Y-142931141D02*
X88129122Y-142359712D01*
X88557694Y-141931141D02*
X87986265Y-142502570D01*
X88938646Y-142026379D02*
X88986265Y-141978760D01*
X89081503Y-141931141D01*
X89319599Y-141931141D01*
X89414837Y-141978760D01*
X89462456Y-142026379D01*
X89510075Y-142121617D01*
X89510075Y-142216855D01*
X89462456Y-142359712D01*
X88891027Y-142931141D01*
X89510075Y-142931141D01*
X107727762Y-61792079D02*
X107632524Y-61744460D01*
X107537286Y-61649222D01*
X107394429Y-61506365D01*
X107299190Y-61458746D01*
X107203952Y-61458746D01*
X107251571Y-61696841D02*
X107156333Y-61649222D01*
X107061095Y-61553984D01*
X107013476Y-61363508D01*
X107013476Y-61030174D01*
X107061095Y-60839698D01*
X107156333Y-60744460D01*
X107251571Y-60696841D01*
X107442048Y-60696841D01*
X107537286Y-60744460D01*
X107632524Y-60839698D01*
X107680143Y-61030174D01*
X107680143Y-61363508D01*
X107632524Y-61553984D01*
X107537286Y-61649222D01*
X107442048Y-61696841D01*
X107251571Y-61696841D01*
X108632524Y-61696841D02*
X108061095Y-61696841D01*
X108346809Y-61696841D02*
X108346809Y-60696841D01*
X108251571Y-60839698D01*
X108156333Y-60934936D01*
X108061095Y-60982555D01*
X108850442Y-150763059D02*
X108755204Y-150715440D01*
X108659966Y-150620202D01*
X108517109Y-150477345D01*
X108421870Y-150429726D01*
X108326632Y-150429726D01*
X108374251Y-150667821D02*
X108279013Y-150620202D01*
X108183775Y-150524964D01*
X108136156Y-150334488D01*
X108136156Y-150001154D01*
X108183775Y-149810678D01*
X108279013Y-149715440D01*
X108374251Y-149667821D01*
X108564728Y-149667821D01*
X108659966Y-149715440D01*
X108755204Y-149810678D01*
X108802823Y-150001154D01*
X108802823Y-150334488D01*
X108755204Y-150524964D01*
X108659966Y-150620202D01*
X108564728Y-150667821D01*
X108374251Y-150667821D01*
X109183775Y-149763059D02*
X109231394Y-149715440D01*
X109326632Y-149667821D01*
X109564728Y-149667821D01*
X109659966Y-149715440D01*
X109707585Y-149763059D01*
X109755204Y-149858297D01*
X109755204Y-149953535D01*
X109707585Y-150096392D01*
X109136156Y-150667821D01*
X109755204Y-150667821D01*
X126477734Y-117647981D02*
X126144400Y-117171790D01*
X125906305Y-117647981D02*
X125906305Y-116647981D01*
X126287258Y-116647981D01*
X126382496Y-116695600D01*
X126430115Y-116743219D01*
X126477734Y-116838457D01*
X126477734Y-116981314D01*
X126430115Y-117076552D01*
X126382496Y-117124171D01*
X126287258Y-117171790D01*
X125906305Y-117171790D01*
X127430115Y-117647981D02*
X126858686Y-117647981D01*
X127144400Y-117647981D02*
X127144400Y-116647981D01*
X127049162Y-116790838D01*
X126953924Y-116886076D01*
X126858686Y-116933695D01*
X126604734Y-98953581D02*
X126271400Y-98477390D01*
X126033305Y-98953581D02*
X126033305Y-97953581D01*
X126414258Y-97953581D01*
X126509496Y-98001200D01*
X126557115Y-98048819D01*
X126604734Y-98144057D01*
X126604734Y-98286914D01*
X126557115Y-98382152D01*
X126509496Y-98429771D01*
X126414258Y-98477390D01*
X126033305Y-98477390D01*
X126985686Y-98048819D02*
X127033305Y-98001200D01*
X127128543Y-97953581D01*
X127366639Y-97953581D01*
X127461877Y-98001200D01*
X127509496Y-98048819D01*
X127557115Y-98144057D01*
X127557115Y-98239295D01*
X127509496Y-98382152D01*
X126938067Y-98953581D01*
X127557115Y-98953581D01*
X72756774Y-97312781D02*
X72423440Y-96836590D01*
X72185345Y-97312781D02*
X72185345Y-96312781D01*
X72566298Y-96312781D01*
X72661536Y-96360400D01*
X72709155Y-96408019D01*
X72756774Y-96503257D01*
X72756774Y-96646114D01*
X72709155Y-96741352D01*
X72661536Y-96788971D01*
X72566298Y-96836590D01*
X72185345Y-96836590D01*
X73090107Y-96312781D02*
X73709155Y-96312781D01*
X73375821Y-96693733D01*
X73518679Y-96693733D01*
X73613917Y-96741352D01*
X73661536Y-96788971D01*
X73709155Y-96884210D01*
X73709155Y-97122305D01*
X73661536Y-97217543D01*
X73613917Y-97265162D01*
X73518679Y-97312781D01*
X73232964Y-97312781D01*
X73137726Y-97265162D01*
X73090107Y-97217543D01*
X108408014Y-97465181D02*
X108074680Y-96988990D01*
X107836585Y-97465181D02*
X107836585Y-96465181D01*
X108217538Y-96465181D01*
X108312776Y-96512800D01*
X108360395Y-96560419D01*
X108408014Y-96655657D01*
X108408014Y-96798514D01*
X108360395Y-96893752D01*
X108312776Y-96941371D01*
X108217538Y-96988990D01*
X107836585Y-96988990D01*
X109265157Y-96798514D02*
X109265157Y-97465181D01*
X109027061Y-96417562D02*
X108788966Y-97131848D01*
X109408014Y-97131848D01*
X83409534Y-96794581D02*
X83076200Y-96318390D01*
X82838105Y-96794581D02*
X82838105Y-95794581D01*
X83219058Y-95794581D01*
X83314296Y-95842200D01*
X83361915Y-95889819D01*
X83409534Y-95985057D01*
X83409534Y-96127914D01*
X83361915Y-96223152D01*
X83314296Y-96270771D01*
X83219058Y-96318390D01*
X82838105Y-96318390D01*
X84314296Y-95794581D02*
X83838105Y-95794581D01*
X83790486Y-96270771D01*
X83838105Y-96223152D01*
X83933343Y-96175533D01*
X84171439Y-96175533D01*
X84266677Y-96223152D01*
X84314296Y-96270771D01*
X84361915Y-96366010D01*
X84361915Y-96604105D01*
X84314296Y-96699343D01*
X84266677Y-96746962D01*
X84171439Y-96794581D01*
X83933343Y-96794581D01*
X83838105Y-96746962D01*
X83790486Y-96699343D01*
X77821534Y-97419461D02*
X77488200Y-96943270D01*
X77250105Y-97419461D02*
X77250105Y-96419461D01*
X77631058Y-96419461D01*
X77726296Y-96467080D01*
X77773915Y-96514699D01*
X77821534Y-96609937D01*
X77821534Y-96752794D01*
X77773915Y-96848032D01*
X77726296Y-96895651D01*
X77631058Y-96943270D01*
X77250105Y-96943270D01*
X78678677Y-96419461D02*
X78488200Y-96419461D01*
X78392962Y-96467080D01*
X78345343Y-96514699D01*
X78250105Y-96657556D01*
X78202486Y-96848032D01*
X78202486Y-97228985D01*
X78250105Y-97324223D01*
X78297724Y-97371842D01*
X78392962Y-97419461D01*
X78583439Y-97419461D01*
X78678677Y-97371842D01*
X78726296Y-97324223D01*
X78773915Y-97228985D01*
X78773915Y-96990890D01*
X78726296Y-96895651D01*
X78678677Y-96848032D01*
X78583439Y-96800413D01*
X78392962Y-96800413D01*
X78297724Y-96848032D01*
X78250105Y-96895651D01*
X78202486Y-96990890D01*
X113818134Y-97571861D02*
X113484800Y-97095670D01*
X113246705Y-97571861D02*
X113246705Y-96571861D01*
X113627658Y-96571861D01*
X113722896Y-96619480D01*
X113770515Y-96667099D01*
X113818134Y-96762337D01*
X113818134Y-96905194D01*
X113770515Y-97000432D01*
X113722896Y-97048051D01*
X113627658Y-97095670D01*
X113246705Y-97095670D01*
X114151467Y-96571861D02*
X114818134Y-96571861D01*
X114389562Y-97571861D01*
X83307934Y-79598801D02*
X82974600Y-79122610D01*
X82736505Y-79598801D02*
X82736505Y-78598801D01*
X83117458Y-78598801D01*
X83212696Y-78646420D01*
X83260315Y-78694039D01*
X83307934Y-78789277D01*
X83307934Y-78932134D01*
X83260315Y-79027372D01*
X83212696Y-79074991D01*
X83117458Y-79122610D01*
X82736505Y-79122610D01*
X83879362Y-79027372D02*
X83784124Y-78979753D01*
X83736505Y-78932134D01*
X83688886Y-78836896D01*
X83688886Y-78789277D01*
X83736505Y-78694039D01*
X83784124Y-78646420D01*
X83879362Y-78598801D01*
X84069839Y-78598801D01*
X84165077Y-78646420D01*
X84212696Y-78694039D01*
X84260315Y-78789277D01*
X84260315Y-78836896D01*
X84212696Y-78932134D01*
X84165077Y-78979753D01*
X84069839Y-79027372D01*
X83879362Y-79027372D01*
X83784124Y-79074991D01*
X83736505Y-79122610D01*
X83688886Y-79217849D01*
X83688886Y-79408325D01*
X83736505Y-79503563D01*
X83784124Y-79551182D01*
X83879362Y-79598801D01*
X84069839Y-79598801D01*
X84165077Y-79551182D01*
X84212696Y-79503563D01*
X84260315Y-79408325D01*
X84260315Y-79217849D01*
X84212696Y-79122610D01*
X84165077Y-79074991D01*
X84069839Y-79027372D01*
X83536534Y-85349381D02*
X83203200Y-84873190D01*
X82965105Y-85349381D02*
X82965105Y-84349381D01*
X83346058Y-84349381D01*
X83441296Y-84397000D01*
X83488915Y-84444619D01*
X83536534Y-84539857D01*
X83536534Y-84682714D01*
X83488915Y-84777952D01*
X83441296Y-84825571D01*
X83346058Y-84873190D01*
X82965105Y-84873190D01*
X84012724Y-85349381D02*
X84203200Y-85349381D01*
X84298439Y-85301762D01*
X84346058Y-85254143D01*
X84441296Y-85111286D01*
X84488915Y-84920810D01*
X84488915Y-84539857D01*
X84441296Y-84444619D01*
X84393677Y-84397000D01*
X84298439Y-84349381D01*
X84107962Y-84349381D01*
X84012724Y-84397000D01*
X83965105Y-84444619D01*
X83917486Y-84539857D01*
X83917486Y-84777952D01*
X83965105Y-84873190D01*
X84012724Y-84920810D01*
X84107962Y-84968429D01*
X84298439Y-84968429D01*
X84393677Y-84920810D01*
X84441296Y-84873190D01*
X84488915Y-84777952D01*
X83405783Y-90988181D02*
X83072449Y-90511990D01*
X82834354Y-90988181D02*
X82834354Y-89988181D01*
X83215307Y-89988181D01*
X83310545Y-90035800D01*
X83358164Y-90083419D01*
X83405783Y-90178657D01*
X83405783Y-90321514D01*
X83358164Y-90416752D01*
X83310545Y-90464371D01*
X83215307Y-90511990D01*
X82834354Y-90511990D01*
X84358164Y-90988181D02*
X83786735Y-90988181D01*
X84072449Y-90988181D02*
X84072449Y-89988181D01*
X83977211Y-90131038D01*
X83881973Y-90226276D01*
X83786735Y-90273895D01*
X84977211Y-89988181D02*
X85072450Y-89988181D01*
X85167688Y-90035800D01*
X85215307Y-90083419D01*
X85262926Y-90178657D01*
X85310545Y-90369133D01*
X85310545Y-90607229D01*
X85262926Y-90797705D01*
X85215307Y-90892943D01*
X85167688Y-90940562D01*
X85072450Y-90988181D01*
X84977211Y-90988181D01*
X84881973Y-90940562D01*
X84834354Y-90892943D01*
X84786735Y-90797705D01*
X84739116Y-90607229D01*
X84739116Y-90369133D01*
X84786735Y-90178657D01*
X84834354Y-90083419D01*
X84881973Y-90035800D01*
X84977211Y-89988181D01*
X138732783Y-114244381D02*
X138732783Y-113244381D01*
X139304212Y-114244381D01*
X139304212Y-113244381D01*
X140208974Y-114244381D02*
X140208974Y-113720571D01*
X140161355Y-113625333D01*
X140066117Y-113577714D01*
X139875640Y-113577714D01*
X139780402Y-113625333D01*
X140208974Y-114196762D02*
X140113736Y-114244381D01*
X139875640Y-114244381D01*
X139780402Y-114196762D01*
X139732783Y-114101524D01*
X139732783Y-114006286D01*
X139780402Y-113911048D01*
X139875640Y-113863429D01*
X140113736Y-113863429D01*
X140208974Y-113815810D01*
X140685164Y-113577714D02*
X140685164Y-114244381D01*
X140685164Y-113672952D02*
X140732783Y-113625333D01*
X140828021Y-113577714D01*
X140970879Y-113577714D01*
X141066117Y-113625333D01*
X141113736Y-113720571D01*
X141113736Y-114244381D01*
X141732783Y-114244381D02*
X141637545Y-114196762D01*
X141589926Y-114149143D01*
X141542307Y-114053905D01*
X141542307Y-113768190D01*
X141589926Y-113672952D01*
X141637545Y-113625333D01*
X141732783Y-113577714D01*
X141875641Y-113577714D01*
X141970879Y-113625333D01*
X142018498Y-113672952D01*
X142066117Y-113768190D01*
X142066117Y-114053905D01*
X142018498Y-114149143D01*
X141970879Y-114196762D01*
X141875641Y-114244381D01*
X141732783Y-114244381D01*
X88788335Y-130988621D02*
X88788335Y-131798145D01*
X88835954Y-131893383D01*
X88883573Y-131941002D01*
X88978811Y-131988621D01*
X89169288Y-131988621D01*
X89264526Y-131941002D01*
X89312145Y-131893383D01*
X89359764Y-131798145D01*
X89359764Y-130988621D01*
X90359764Y-131988621D02*
X89788335Y-131988621D01*
X90074049Y-131988621D02*
X90074049Y-130988621D01*
X89978811Y-131131478D01*
X89883573Y-131226716D01*
X89788335Y-131274335D01*
X72451035Y-102820141D02*
X72451035Y-103629665D01*
X72498654Y-103724903D01*
X72546273Y-103772522D01*
X72641511Y-103820141D01*
X72831988Y-103820141D01*
X72927226Y-103772522D01*
X72974845Y-103724903D01*
X73022464Y-103629665D01*
X73022464Y-102820141D01*
X73451035Y-102915379D02*
X73498654Y-102867760D01*
X73593892Y-102820141D01*
X73831988Y-102820141D01*
X73927226Y-102867760D01*
X73974845Y-102915379D01*
X74022464Y-103010617D01*
X74022464Y-103105855D01*
X73974845Y-103248712D01*
X73403416Y-103820141D01*
X74022464Y-103820141D01*
X85994335Y-110247581D02*
X85994335Y-111057105D01*
X86041954Y-111152343D01*
X86089573Y-111199962D01*
X86184811Y-111247581D01*
X86375288Y-111247581D01*
X86470526Y-111199962D01*
X86518145Y-111152343D01*
X86565764Y-111057105D01*
X86565764Y-110247581D01*
X86946716Y-110247581D02*
X87565764Y-110247581D01*
X87232430Y-110628533D01*
X87375288Y-110628533D01*
X87470526Y-110676152D01*
X87518145Y-110723771D01*
X87565764Y-110819010D01*
X87565764Y-111057105D01*
X87518145Y-111152343D01*
X87470526Y-111199962D01*
X87375288Y-111247581D01*
X87089573Y-111247581D01*
X86994335Y-111199962D01*
X86946716Y-111152343D01*
M02*
