G04 #@! TF.FileFunction,Soldermask,Bot*
%FSLAX46Y46*%
G04 Gerber Fmt 4.6, Leading zero omitted, Abs format (unit mm)*
G04 Created by KiCad (PCBNEW 4.0.6) date 03/10/20 06:56:11*
%MOMM*%
%LPD*%
G01*
G04 APERTURE LIST*
%ADD10C,0.100000*%
G04 APERTURE END LIST*
D10*
G36*
X109005183Y-145757534D02*
X109160980Y-145789515D01*
X109307600Y-145851149D01*
X109439459Y-145940088D01*
X109551525Y-146052939D01*
X109639541Y-146185414D01*
X109700149Y-146332460D01*
X109730869Y-146487609D01*
X109730869Y-146487637D01*
X109731035Y-146488477D01*
X109728498Y-146670137D01*
X109728308Y-146670972D01*
X109728308Y-146670997D01*
X109693266Y-146825234D01*
X109628577Y-146970528D01*
X109536899Y-147100491D01*
X109421719Y-147210174D01*
X109287436Y-147295393D01*
X109139149Y-147352910D01*
X108982522Y-147380527D01*
X108823507Y-147377197D01*
X108668175Y-147343044D01*
X108522428Y-147279370D01*
X108391828Y-147188600D01*
X108281346Y-147074193D01*
X108195188Y-146940501D01*
X108136640Y-146792627D01*
X108107929Y-146636190D01*
X108110149Y-146477158D01*
X108143216Y-146321592D01*
X108205872Y-146175404D01*
X108295727Y-146044174D01*
X108409361Y-145932895D01*
X108542447Y-145845807D01*
X108689913Y-145786226D01*
X108846140Y-145756425D01*
X109005183Y-145757534D01*
X109005183Y-145757534D01*
G37*
G36*
X111545183Y-145757534D02*
X111700980Y-145789515D01*
X111847600Y-145851149D01*
X111979459Y-145940088D01*
X112091525Y-146052939D01*
X112179541Y-146185414D01*
X112240149Y-146332460D01*
X112270869Y-146487609D01*
X112270869Y-146487637D01*
X112271035Y-146488477D01*
X112268498Y-146670137D01*
X112268308Y-146670972D01*
X112268308Y-146670997D01*
X112233266Y-146825234D01*
X112168577Y-146970528D01*
X112076899Y-147100491D01*
X111961719Y-147210174D01*
X111827436Y-147295393D01*
X111679149Y-147352910D01*
X111522522Y-147380527D01*
X111363507Y-147377197D01*
X111208175Y-147343044D01*
X111062428Y-147279370D01*
X110931828Y-147188600D01*
X110821346Y-147074193D01*
X110735188Y-146940501D01*
X110676640Y-146792627D01*
X110647929Y-146636190D01*
X110650149Y-146477158D01*
X110683216Y-146321592D01*
X110745872Y-146175404D01*
X110835727Y-146044174D01*
X110949361Y-145932895D01*
X111082447Y-145845807D01*
X111229913Y-145786226D01*
X111386140Y-145756425D01*
X111545183Y-145757534D01*
X111545183Y-145757534D01*
G37*
G36*
X114811000Y-147379000D02*
X113189000Y-147379000D01*
X113189000Y-145757000D01*
X114811000Y-145757000D01*
X114811000Y-147379000D01*
X114811000Y-147379000D01*
G37*
G36*
X104758447Y-144189085D02*
X104758462Y-144189087D01*
X104763520Y-144189122D01*
X105006151Y-144216337D01*
X105238874Y-144290162D01*
X105452827Y-144407783D01*
X105639858Y-144564721D01*
X105792845Y-144754998D01*
X105905960Y-144971367D01*
X105974894Y-145205586D01*
X105974901Y-145205665D01*
X105974910Y-145205695D01*
X105997028Y-145448733D01*
X105971520Y-145691425D01*
X105971512Y-145691450D01*
X105971502Y-145691548D01*
X105899304Y-145924782D01*
X105783179Y-146139550D01*
X105627550Y-146327673D01*
X105438346Y-146481984D01*
X105222772Y-146596607D01*
X104989040Y-146667175D01*
X104746053Y-146691000D01*
X104733784Y-146691000D01*
X104721553Y-146690915D01*
X104721538Y-146690913D01*
X104716480Y-146690878D01*
X104473849Y-146663663D01*
X104241126Y-146589838D01*
X104027173Y-146472217D01*
X103840142Y-146315279D01*
X103687155Y-146125002D01*
X103574040Y-145908633D01*
X103505106Y-145674414D01*
X103505099Y-145674335D01*
X103505090Y-145674305D01*
X103482972Y-145431267D01*
X103508480Y-145188575D01*
X103508488Y-145188550D01*
X103508498Y-145188452D01*
X103580696Y-144955218D01*
X103696821Y-144740450D01*
X103852450Y-144552327D01*
X104041654Y-144398016D01*
X104257228Y-144283393D01*
X104490960Y-144212825D01*
X104733947Y-144189000D01*
X104746216Y-144189000D01*
X104758447Y-144189085D01*
X104758447Y-144189085D01*
G37*
G36*
X90751000Y-146691000D02*
X88249000Y-146691000D01*
X88249000Y-144189000D01*
X90751000Y-144189000D01*
X90751000Y-146691000D01*
X90751000Y-146691000D01*
G37*
G36*
X113449888Y-138358628D02*
X113632579Y-138396129D01*
X113804510Y-138468403D01*
X113959130Y-138572694D01*
X114090541Y-138705027D01*
X114193751Y-138860371D01*
X114264822Y-139032801D01*
X114300875Y-139214881D01*
X114300875Y-139214914D01*
X114301040Y-139215750D01*
X114298066Y-139428769D01*
X114297875Y-139429608D01*
X114297875Y-139429628D01*
X114256751Y-139610640D01*
X114180895Y-139781014D01*
X114073388Y-139933415D01*
X113938332Y-140062027D01*
X113780861Y-140161962D01*
X113606984Y-140229404D01*
X113423315Y-140261789D01*
X113236850Y-140257884D01*
X113054698Y-140217835D01*
X112883801Y-140143172D01*
X112730650Y-140036729D01*
X112601099Y-139902575D01*
X112500069Y-139745807D01*
X112431411Y-139572399D01*
X112397745Y-139388966D01*
X112400349Y-139202476D01*
X112439125Y-139020054D01*
X112512595Y-138848633D01*
X112617962Y-138694748D01*
X112751212Y-138564260D01*
X112907272Y-138462138D01*
X113080192Y-138392274D01*
X113263392Y-138357327D01*
X113449888Y-138358628D01*
X113449888Y-138358628D01*
G37*
G36*
X111761000Y-140260000D02*
X109859000Y-140260000D01*
X109859000Y-138358000D01*
X111761000Y-138358000D01*
X111761000Y-140260000D01*
X111761000Y-140260000D01*
G37*
G36*
X96738378Y-138889428D02*
X96863438Y-138915099D01*
X96981135Y-138964575D01*
X97086973Y-139035962D01*
X97176935Y-139126556D01*
X97247586Y-139232893D01*
X97296237Y-139350930D01*
X97320863Y-139475297D01*
X97320863Y-139475330D01*
X97321028Y-139476166D01*
X97318992Y-139621987D01*
X97318801Y-139622826D01*
X97318801Y-139622847D01*
X97290712Y-139746486D01*
X97238785Y-139863115D01*
X97165194Y-139967438D01*
X97072737Y-140055482D01*
X96964943Y-140123891D01*
X96845918Y-140170058D01*
X96720188Y-140192227D01*
X96592543Y-140189554D01*
X96467854Y-140162139D01*
X96350865Y-140111027D01*
X96246025Y-140038162D01*
X96157344Y-139946329D01*
X96088184Y-139839014D01*
X96041186Y-139720312D01*
X96018139Y-139594737D01*
X96019921Y-139467079D01*
X96046465Y-139342204D01*
X96096758Y-139224858D01*
X96168887Y-139119517D01*
X96260103Y-139030192D01*
X96366933Y-138960285D01*
X96485305Y-138912460D01*
X96610713Y-138888537D01*
X96738378Y-138889428D01*
X96738378Y-138889428D01*
G37*
G36*
X99278378Y-138889428D02*
X99403438Y-138915099D01*
X99521135Y-138964575D01*
X99626973Y-139035962D01*
X99716935Y-139126556D01*
X99787586Y-139232893D01*
X99836237Y-139350930D01*
X99860863Y-139475297D01*
X99860863Y-139475330D01*
X99861028Y-139476166D01*
X99858992Y-139621987D01*
X99858801Y-139622826D01*
X99858801Y-139622847D01*
X99830712Y-139746486D01*
X99778785Y-139863115D01*
X99705194Y-139967438D01*
X99612737Y-140055482D01*
X99504943Y-140123891D01*
X99385918Y-140170058D01*
X99260188Y-140192227D01*
X99132543Y-140189554D01*
X99007854Y-140162139D01*
X98890865Y-140111027D01*
X98786025Y-140038162D01*
X98697344Y-139946329D01*
X98628184Y-139839014D01*
X98581186Y-139720312D01*
X98558139Y-139594737D01*
X98559921Y-139467079D01*
X98586465Y-139342204D01*
X98636758Y-139224858D01*
X98708887Y-139119517D01*
X98800103Y-139030192D01*
X98906933Y-138960285D01*
X99025305Y-138912460D01*
X99150713Y-138888537D01*
X99278378Y-138889428D01*
X99278378Y-138889428D01*
G37*
G36*
X94198378Y-138889428D02*
X94323438Y-138915099D01*
X94441135Y-138964575D01*
X94546973Y-139035962D01*
X94636935Y-139126556D01*
X94707586Y-139232893D01*
X94756237Y-139350930D01*
X94780863Y-139475297D01*
X94780863Y-139475330D01*
X94781028Y-139476166D01*
X94778992Y-139621987D01*
X94778801Y-139622826D01*
X94778801Y-139622847D01*
X94750712Y-139746486D01*
X94698785Y-139863115D01*
X94625194Y-139967438D01*
X94532737Y-140055482D01*
X94424943Y-140123891D01*
X94305918Y-140170058D01*
X94180188Y-140192227D01*
X94052543Y-140189554D01*
X93927854Y-140162139D01*
X93810865Y-140111027D01*
X93706025Y-140038162D01*
X93617344Y-139946329D01*
X93548184Y-139839014D01*
X93501186Y-139720312D01*
X93478139Y-139594737D01*
X93479921Y-139467079D01*
X93506465Y-139342204D01*
X93556758Y-139224858D01*
X93628887Y-139119517D01*
X93720103Y-139030192D01*
X93826933Y-138960285D01*
X93945305Y-138912460D01*
X94070713Y-138888537D01*
X94198378Y-138889428D01*
X94198378Y-138889428D01*
G37*
G36*
X89701000Y-140191000D02*
X88399000Y-140191000D01*
X88399000Y-138889000D01*
X89701000Y-138889000D01*
X89701000Y-140191000D01*
X89701000Y-140191000D01*
G37*
G36*
X89118378Y-133809428D02*
X89243438Y-133835099D01*
X89361135Y-133884575D01*
X89466973Y-133955962D01*
X89556935Y-134046556D01*
X89627586Y-134152893D01*
X89676237Y-134270930D01*
X89700863Y-134395297D01*
X89700863Y-134395330D01*
X89701028Y-134396166D01*
X89698992Y-134541987D01*
X89698801Y-134542826D01*
X89698801Y-134542847D01*
X89670712Y-134666486D01*
X89618785Y-134783115D01*
X89545194Y-134887438D01*
X89452737Y-134975482D01*
X89344943Y-135043891D01*
X89225918Y-135090058D01*
X89100188Y-135112227D01*
X88972543Y-135109554D01*
X88847854Y-135082139D01*
X88730865Y-135031027D01*
X88626025Y-134958162D01*
X88537344Y-134866329D01*
X88468184Y-134759014D01*
X88421186Y-134640312D01*
X88398139Y-134514737D01*
X88399921Y-134387079D01*
X88426465Y-134262204D01*
X88476758Y-134144858D01*
X88548887Y-134039517D01*
X88640103Y-133950192D01*
X88746933Y-133880285D01*
X88865305Y-133832460D01*
X88990713Y-133808537D01*
X89118378Y-133809428D01*
X89118378Y-133809428D01*
G37*
G36*
X94198378Y-133809428D02*
X94323438Y-133835099D01*
X94441135Y-133884575D01*
X94546973Y-133955962D01*
X94636935Y-134046556D01*
X94707586Y-134152893D01*
X94756237Y-134270930D01*
X94780863Y-134395297D01*
X94780863Y-134395330D01*
X94781028Y-134396166D01*
X94778992Y-134541987D01*
X94778801Y-134542826D01*
X94778801Y-134542847D01*
X94750712Y-134666486D01*
X94698785Y-134783115D01*
X94625194Y-134887438D01*
X94532737Y-134975482D01*
X94424943Y-135043891D01*
X94305918Y-135090058D01*
X94180188Y-135112227D01*
X94052543Y-135109554D01*
X93927854Y-135082139D01*
X93810865Y-135031027D01*
X93706025Y-134958162D01*
X93617344Y-134866329D01*
X93548184Y-134759014D01*
X93501186Y-134640312D01*
X93478139Y-134514737D01*
X93479921Y-134387079D01*
X93506465Y-134262204D01*
X93556758Y-134144858D01*
X93628887Y-134039517D01*
X93720103Y-133950192D01*
X93826933Y-133880285D01*
X93945305Y-133832460D01*
X94070713Y-133808537D01*
X94198378Y-133809428D01*
X94198378Y-133809428D01*
G37*
G36*
X96738378Y-133809428D02*
X96863438Y-133835099D01*
X96981135Y-133884575D01*
X97086973Y-133955962D01*
X97176935Y-134046556D01*
X97247586Y-134152893D01*
X97296237Y-134270930D01*
X97320863Y-134395297D01*
X97320863Y-134395330D01*
X97321028Y-134396166D01*
X97318992Y-134541987D01*
X97318801Y-134542826D01*
X97318801Y-134542847D01*
X97290712Y-134666486D01*
X97238785Y-134783115D01*
X97165194Y-134887438D01*
X97072737Y-134975482D01*
X96964943Y-135043891D01*
X96845918Y-135090058D01*
X96720188Y-135112227D01*
X96592543Y-135109554D01*
X96467854Y-135082139D01*
X96350865Y-135031027D01*
X96246025Y-134958162D01*
X96157344Y-134866329D01*
X96088184Y-134759014D01*
X96041186Y-134640312D01*
X96018139Y-134514737D01*
X96019921Y-134387079D01*
X96046465Y-134262204D01*
X96096758Y-134144858D01*
X96168887Y-134039517D01*
X96260103Y-133950192D01*
X96366933Y-133880285D01*
X96485305Y-133832460D01*
X96610713Y-133808537D01*
X96738378Y-133809428D01*
X96738378Y-133809428D01*
G37*
G36*
X99278378Y-133809428D02*
X99403438Y-133835099D01*
X99521135Y-133884575D01*
X99626973Y-133955962D01*
X99716935Y-134046556D01*
X99787586Y-134152893D01*
X99836237Y-134270930D01*
X99860863Y-134395297D01*
X99860863Y-134395330D01*
X99861028Y-134396166D01*
X99858992Y-134541987D01*
X99858801Y-134542826D01*
X99858801Y-134542847D01*
X99830712Y-134666486D01*
X99778785Y-134783115D01*
X99705194Y-134887438D01*
X99612737Y-134975482D01*
X99504943Y-135043891D01*
X99385918Y-135090058D01*
X99260188Y-135112227D01*
X99132543Y-135109554D01*
X99007854Y-135082139D01*
X98890865Y-135031027D01*
X98786025Y-134958162D01*
X98697344Y-134866329D01*
X98628184Y-134759014D01*
X98581186Y-134640312D01*
X98558139Y-134514737D01*
X98559921Y-134387079D01*
X98586465Y-134262204D01*
X98636758Y-134144858D01*
X98708887Y-134039517D01*
X98800103Y-133950192D01*
X98906933Y-133880285D01*
X99025305Y-133832460D01*
X99150713Y-133808537D01*
X99278378Y-133809428D01*
X99278378Y-133809428D01*
G37*
G36*
X97697593Y-128841635D02*
X97853776Y-128873696D01*
X98000755Y-128935480D01*
X98132936Y-129024637D01*
X98245284Y-129137772D01*
X98333516Y-129270571D01*
X98394273Y-129417979D01*
X98425070Y-129573513D01*
X98425070Y-129573545D01*
X98425235Y-129574381D01*
X98422692Y-129756489D01*
X98422502Y-129757324D01*
X98422502Y-129757349D01*
X98387374Y-129911969D01*
X98322525Y-130057620D01*
X98230619Y-130187904D01*
X98115157Y-130297858D01*
X97980543Y-130383287D01*
X97831889Y-130440946D01*
X97674877Y-130468631D01*
X97515469Y-130465293D01*
X97359751Y-130431056D01*
X97213649Y-130367225D01*
X97082722Y-130276229D01*
X96971972Y-130161544D01*
X96885599Y-130027519D01*
X96826908Y-129879283D01*
X96798126Y-129722459D01*
X96800352Y-129563033D01*
X96833501Y-129407083D01*
X96896310Y-129260536D01*
X96986387Y-129128982D01*
X97100301Y-129017429D01*
X97233715Y-128930126D01*
X97381544Y-128870398D01*
X97538159Y-128840523D01*
X97697593Y-128841635D01*
X97697593Y-128841635D01*
G37*
G36*
X95157593Y-128841635D02*
X95313776Y-128873696D01*
X95460755Y-128935480D01*
X95592936Y-129024637D01*
X95705284Y-129137772D01*
X95793516Y-129270571D01*
X95854273Y-129417979D01*
X95885070Y-129573513D01*
X95885070Y-129573545D01*
X95885235Y-129574381D01*
X95882692Y-129756489D01*
X95882502Y-129757324D01*
X95882502Y-129757349D01*
X95847374Y-129911969D01*
X95782525Y-130057620D01*
X95690619Y-130187904D01*
X95575157Y-130297858D01*
X95440543Y-130383287D01*
X95291889Y-130440946D01*
X95134877Y-130468631D01*
X94975469Y-130465293D01*
X94819751Y-130431056D01*
X94673649Y-130367225D01*
X94542722Y-130276229D01*
X94431972Y-130161544D01*
X94345599Y-130027519D01*
X94286908Y-129879283D01*
X94258126Y-129722459D01*
X94260352Y-129563033D01*
X94293501Y-129407083D01*
X94356310Y-129260536D01*
X94446387Y-129128982D01*
X94560301Y-129017429D01*
X94693715Y-128930126D01*
X94841544Y-128870398D01*
X94998159Y-128840523D01*
X95157593Y-128841635D01*
X95157593Y-128841635D01*
G37*
G36*
X100237593Y-128841635D02*
X100393776Y-128873696D01*
X100540755Y-128935480D01*
X100672936Y-129024637D01*
X100785284Y-129137772D01*
X100873516Y-129270571D01*
X100934273Y-129417979D01*
X100965070Y-129573513D01*
X100965070Y-129573545D01*
X100965235Y-129574381D01*
X100962692Y-129756489D01*
X100962502Y-129757324D01*
X100962502Y-129757349D01*
X100927374Y-129911969D01*
X100862525Y-130057620D01*
X100770619Y-130187904D01*
X100655157Y-130297858D01*
X100520543Y-130383287D01*
X100371889Y-130440946D01*
X100214877Y-130468631D01*
X100055469Y-130465293D01*
X99899751Y-130431056D01*
X99753649Y-130367225D01*
X99622722Y-130276229D01*
X99511972Y-130161544D01*
X99425599Y-130027519D01*
X99366908Y-129879283D01*
X99338126Y-129722459D01*
X99340352Y-129563033D01*
X99373501Y-129407083D01*
X99436310Y-129260536D01*
X99526387Y-129128982D01*
X99640301Y-129017429D01*
X99773715Y-128930126D01*
X99921544Y-128870398D01*
X100078159Y-128840523D01*
X100237593Y-128841635D01*
X100237593Y-128841635D01*
G37*
G36*
X92617593Y-128841635D02*
X92773776Y-128873696D01*
X92920755Y-128935480D01*
X93052936Y-129024637D01*
X93165284Y-129137772D01*
X93253516Y-129270571D01*
X93314273Y-129417979D01*
X93345070Y-129573513D01*
X93345070Y-129573545D01*
X93345235Y-129574381D01*
X93342692Y-129756489D01*
X93342502Y-129757324D01*
X93342502Y-129757349D01*
X93307374Y-129911969D01*
X93242525Y-130057620D01*
X93150619Y-130187904D01*
X93035157Y-130297858D01*
X92900543Y-130383287D01*
X92751889Y-130440946D01*
X92594877Y-130468631D01*
X92435469Y-130465293D01*
X92279751Y-130431056D01*
X92133649Y-130367225D01*
X92002722Y-130276229D01*
X91891972Y-130161544D01*
X91805599Y-130027519D01*
X91746908Y-129879283D01*
X91718126Y-129722459D01*
X91720352Y-129563033D01*
X91753501Y-129407083D01*
X91816310Y-129260536D01*
X91906387Y-129128982D01*
X92020301Y-129017429D01*
X92153715Y-128930126D01*
X92301544Y-128870398D01*
X92458159Y-128840523D01*
X92617593Y-128841635D01*
X92617593Y-128841635D01*
G37*
G36*
X102777593Y-128841635D02*
X102933776Y-128873696D01*
X103080755Y-128935480D01*
X103212936Y-129024637D01*
X103325284Y-129137772D01*
X103413516Y-129270571D01*
X103474273Y-129417979D01*
X103505070Y-129573513D01*
X103505070Y-129573545D01*
X103505235Y-129574381D01*
X103502692Y-129756489D01*
X103502502Y-129757324D01*
X103502502Y-129757349D01*
X103467374Y-129911969D01*
X103402525Y-130057620D01*
X103310619Y-130187904D01*
X103195157Y-130297858D01*
X103060543Y-130383287D01*
X102911889Y-130440946D01*
X102754877Y-130468631D01*
X102595469Y-130465293D01*
X102439751Y-130431056D01*
X102293649Y-130367225D01*
X102162722Y-130276229D01*
X102051972Y-130161544D01*
X101965599Y-130027519D01*
X101906908Y-129879283D01*
X101878126Y-129722459D01*
X101880352Y-129563033D01*
X101913501Y-129407083D01*
X101976310Y-129260536D01*
X102066387Y-129128982D01*
X102180301Y-129017429D01*
X102313715Y-128930126D01*
X102461544Y-128870398D01*
X102618159Y-128840523D01*
X102777593Y-128841635D01*
X102777593Y-128841635D01*
G37*
G36*
X105317593Y-128841635D02*
X105473776Y-128873696D01*
X105620755Y-128935480D01*
X105752936Y-129024637D01*
X105865284Y-129137772D01*
X105953516Y-129270571D01*
X106014273Y-129417979D01*
X106045070Y-129573513D01*
X106045070Y-129573545D01*
X106045235Y-129574381D01*
X106042692Y-129756489D01*
X106042502Y-129757324D01*
X106042502Y-129757349D01*
X106007374Y-129911969D01*
X105942525Y-130057620D01*
X105850619Y-130187904D01*
X105735157Y-130297858D01*
X105600543Y-130383287D01*
X105451889Y-130440946D01*
X105294877Y-130468631D01*
X105135469Y-130465293D01*
X104979751Y-130431056D01*
X104833649Y-130367225D01*
X104702722Y-130276229D01*
X104591972Y-130161544D01*
X104505599Y-130027519D01*
X104446908Y-129879283D01*
X104418126Y-129722459D01*
X104420352Y-129563033D01*
X104453501Y-129407083D01*
X104516310Y-129260536D01*
X104606387Y-129128982D01*
X104720301Y-129017429D01*
X104853715Y-128930126D01*
X105001544Y-128870398D01*
X105158159Y-128840523D01*
X105317593Y-128841635D01*
X105317593Y-128841635D01*
G37*
G36*
X90805200Y-130467100D02*
X89179200Y-130467100D01*
X89179200Y-128841100D01*
X90805200Y-128841100D01*
X90805200Y-130467100D01*
X90805200Y-130467100D01*
G37*
G36*
X71748049Y-123446026D02*
X71748069Y-123446032D01*
X71748171Y-123446043D01*
X71916152Y-123498041D01*
X72070833Y-123581677D01*
X72206323Y-123693765D01*
X72317462Y-123830034D01*
X72400016Y-123985296D01*
X72450841Y-124153635D01*
X72468000Y-124328640D01*
X72468000Y-124337521D01*
X72467949Y-124344865D01*
X72467947Y-124344879D01*
X72467912Y-124349940D01*
X72448311Y-124524688D01*
X72395141Y-124692302D01*
X72310427Y-124846395D01*
X72197397Y-124981100D01*
X72060354Y-125091285D01*
X71904521Y-125172753D01*
X71735831Y-125222401D01*
X71735746Y-125222409D01*
X71735721Y-125222416D01*
X71560710Y-125238343D01*
X71385951Y-125219974D01*
X71385931Y-125219968D01*
X71385829Y-125219957D01*
X71217848Y-125167959D01*
X71063167Y-125084323D01*
X70927677Y-124972235D01*
X70816538Y-124835966D01*
X70733984Y-124680704D01*
X70683159Y-124512365D01*
X70666000Y-124337360D01*
X70666000Y-124328479D01*
X70666051Y-124321135D01*
X70666053Y-124321121D01*
X70666088Y-124316060D01*
X70685689Y-124141312D01*
X70738859Y-123973698D01*
X70823573Y-123819605D01*
X70936603Y-123684900D01*
X71073646Y-123574715D01*
X71229479Y-123493247D01*
X71398169Y-123443599D01*
X71398254Y-123443591D01*
X71398279Y-123443584D01*
X71573290Y-123427657D01*
X71748049Y-123446026D01*
X71748049Y-123446026D01*
G37*
G36*
X69928000Y-125234000D02*
X68126000Y-125234000D01*
X68126000Y-123432000D01*
X69928000Y-123432000D01*
X69928000Y-125234000D01*
X69928000Y-125234000D01*
G37*
G36*
X97697593Y-121653435D02*
X97853776Y-121685496D01*
X98000755Y-121747280D01*
X98132936Y-121836437D01*
X98245284Y-121949572D01*
X98333516Y-122082371D01*
X98394273Y-122229779D01*
X98425070Y-122385313D01*
X98425070Y-122385345D01*
X98425235Y-122386181D01*
X98422692Y-122568289D01*
X98422502Y-122569124D01*
X98422502Y-122569149D01*
X98387374Y-122723769D01*
X98322525Y-122869420D01*
X98230619Y-122999704D01*
X98115157Y-123109658D01*
X97980543Y-123195087D01*
X97831889Y-123252746D01*
X97674877Y-123280431D01*
X97515469Y-123277093D01*
X97359751Y-123242856D01*
X97213649Y-123179025D01*
X97082722Y-123088029D01*
X96971972Y-122973344D01*
X96885599Y-122839319D01*
X96826908Y-122691083D01*
X96798126Y-122534259D01*
X96800352Y-122374833D01*
X96833501Y-122218883D01*
X96896310Y-122072336D01*
X96986387Y-121940782D01*
X97100301Y-121829229D01*
X97233715Y-121741926D01*
X97381544Y-121682198D01*
X97538159Y-121652323D01*
X97697593Y-121653435D01*
X97697593Y-121653435D01*
G37*
G36*
X90077593Y-121653435D02*
X90233776Y-121685496D01*
X90380755Y-121747280D01*
X90512936Y-121836437D01*
X90625284Y-121949572D01*
X90713516Y-122082371D01*
X90774273Y-122229779D01*
X90805070Y-122385313D01*
X90805070Y-122385345D01*
X90805235Y-122386181D01*
X90802692Y-122568289D01*
X90802502Y-122569124D01*
X90802502Y-122569149D01*
X90767374Y-122723769D01*
X90702525Y-122869420D01*
X90610619Y-122999704D01*
X90495157Y-123109658D01*
X90360543Y-123195087D01*
X90211889Y-123252746D01*
X90054877Y-123280431D01*
X89895469Y-123277093D01*
X89739751Y-123242856D01*
X89593649Y-123179025D01*
X89462722Y-123088029D01*
X89351972Y-122973344D01*
X89265599Y-122839319D01*
X89206908Y-122691083D01*
X89178126Y-122534259D01*
X89180352Y-122374833D01*
X89213501Y-122218883D01*
X89276310Y-122072336D01*
X89366387Y-121940782D01*
X89480301Y-121829229D01*
X89613715Y-121741926D01*
X89761544Y-121682198D01*
X89918159Y-121652323D01*
X90077593Y-121653435D01*
X90077593Y-121653435D01*
G37*
G36*
X92617593Y-121653435D02*
X92773776Y-121685496D01*
X92920755Y-121747280D01*
X93052936Y-121836437D01*
X93165284Y-121949572D01*
X93253516Y-122082371D01*
X93314273Y-122229779D01*
X93345070Y-122385313D01*
X93345070Y-122385345D01*
X93345235Y-122386181D01*
X93342692Y-122568289D01*
X93342502Y-122569124D01*
X93342502Y-122569149D01*
X93307374Y-122723769D01*
X93242525Y-122869420D01*
X93150619Y-122999704D01*
X93035157Y-123109658D01*
X92900543Y-123195087D01*
X92751889Y-123252746D01*
X92594877Y-123280431D01*
X92435469Y-123277093D01*
X92279751Y-123242856D01*
X92133649Y-123179025D01*
X92002722Y-123088029D01*
X91891972Y-122973344D01*
X91805599Y-122839319D01*
X91746908Y-122691083D01*
X91718126Y-122534259D01*
X91720352Y-122374833D01*
X91753501Y-122218883D01*
X91816310Y-122072336D01*
X91906387Y-121940782D01*
X92020301Y-121829229D01*
X92153715Y-121741926D01*
X92301544Y-121682198D01*
X92458159Y-121652323D01*
X92617593Y-121653435D01*
X92617593Y-121653435D01*
G37*
G36*
X95157593Y-121653435D02*
X95313776Y-121685496D01*
X95460755Y-121747280D01*
X95592936Y-121836437D01*
X95705284Y-121949572D01*
X95793516Y-122082371D01*
X95854273Y-122229779D01*
X95885070Y-122385313D01*
X95885070Y-122385345D01*
X95885235Y-122386181D01*
X95882692Y-122568289D01*
X95882502Y-122569124D01*
X95882502Y-122569149D01*
X95847374Y-122723769D01*
X95782525Y-122869420D01*
X95690619Y-122999704D01*
X95575157Y-123109658D01*
X95440543Y-123195087D01*
X95291889Y-123252746D01*
X95134877Y-123280431D01*
X94975469Y-123277093D01*
X94819751Y-123242856D01*
X94673649Y-123179025D01*
X94542722Y-123088029D01*
X94431972Y-122973344D01*
X94345599Y-122839319D01*
X94286908Y-122691083D01*
X94258126Y-122534259D01*
X94260352Y-122374833D01*
X94293501Y-122218883D01*
X94356310Y-122072336D01*
X94446387Y-121940782D01*
X94560301Y-121829229D01*
X94693715Y-121741926D01*
X94841544Y-121682198D01*
X94998159Y-121652323D01*
X95157593Y-121653435D01*
X95157593Y-121653435D01*
G37*
G36*
X100237593Y-121653435D02*
X100393776Y-121685496D01*
X100540755Y-121747280D01*
X100672936Y-121836437D01*
X100785284Y-121949572D01*
X100873516Y-122082371D01*
X100934273Y-122229779D01*
X100965070Y-122385313D01*
X100965070Y-122385345D01*
X100965235Y-122386181D01*
X100962692Y-122568289D01*
X100962502Y-122569124D01*
X100962502Y-122569149D01*
X100927374Y-122723769D01*
X100862525Y-122869420D01*
X100770619Y-122999704D01*
X100655157Y-123109658D01*
X100520543Y-123195087D01*
X100371889Y-123252746D01*
X100214877Y-123280431D01*
X100055469Y-123277093D01*
X99899751Y-123242856D01*
X99753649Y-123179025D01*
X99622722Y-123088029D01*
X99511972Y-122973344D01*
X99425599Y-122839319D01*
X99366908Y-122691083D01*
X99338126Y-122534259D01*
X99340352Y-122374833D01*
X99373501Y-122218883D01*
X99436310Y-122072336D01*
X99526387Y-121940782D01*
X99640301Y-121829229D01*
X99773715Y-121741926D01*
X99921544Y-121682198D01*
X100078159Y-121652323D01*
X100237593Y-121653435D01*
X100237593Y-121653435D01*
G37*
G36*
X102777593Y-121653435D02*
X102933776Y-121685496D01*
X103080755Y-121747280D01*
X103212936Y-121836437D01*
X103325284Y-121949572D01*
X103413516Y-122082371D01*
X103474273Y-122229779D01*
X103505070Y-122385313D01*
X103505070Y-122385345D01*
X103505235Y-122386181D01*
X103502692Y-122568289D01*
X103502502Y-122569124D01*
X103502502Y-122569149D01*
X103467374Y-122723769D01*
X103402525Y-122869420D01*
X103310619Y-122999704D01*
X103195157Y-123109658D01*
X103060543Y-123195087D01*
X102911889Y-123252746D01*
X102754877Y-123280431D01*
X102595469Y-123277093D01*
X102439751Y-123242856D01*
X102293649Y-123179025D01*
X102162722Y-123088029D01*
X102051972Y-122973344D01*
X101965599Y-122839319D01*
X101906908Y-122691083D01*
X101878126Y-122534259D01*
X101880352Y-122374833D01*
X101913501Y-122218883D01*
X101976310Y-122072336D01*
X102066387Y-121940782D01*
X102180301Y-121829229D01*
X102313715Y-121741926D01*
X102461544Y-121682198D01*
X102618159Y-121652323D01*
X102777593Y-121653435D01*
X102777593Y-121653435D01*
G37*
G36*
X105317593Y-121653435D02*
X105473776Y-121685496D01*
X105620755Y-121747280D01*
X105752936Y-121836437D01*
X105865284Y-121949572D01*
X105953516Y-122082371D01*
X106014273Y-122229779D01*
X106045070Y-122385313D01*
X106045070Y-122385345D01*
X106045235Y-122386181D01*
X106042692Y-122568289D01*
X106042502Y-122569124D01*
X106042502Y-122569149D01*
X106007374Y-122723769D01*
X105942525Y-122869420D01*
X105850619Y-122999704D01*
X105735157Y-123109658D01*
X105600543Y-123195087D01*
X105451889Y-123252746D01*
X105294877Y-123280431D01*
X105135469Y-123277093D01*
X104979751Y-123242856D01*
X104833649Y-123179025D01*
X104702722Y-123088029D01*
X104591972Y-122973344D01*
X104505599Y-122839319D01*
X104446908Y-122691083D01*
X104418126Y-122534259D01*
X104420352Y-122374833D01*
X104453501Y-122218883D01*
X104516310Y-122072336D01*
X104606387Y-121940782D01*
X104720301Y-121829229D01*
X104853715Y-121741926D01*
X105001544Y-121682198D01*
X105158159Y-121652323D01*
X105317593Y-121653435D01*
X105317593Y-121653435D01*
G37*
G36*
X79032849Y-120515026D02*
X79032869Y-120515032D01*
X79032971Y-120515043D01*
X79200952Y-120567041D01*
X79355633Y-120650677D01*
X79491123Y-120762765D01*
X79602262Y-120899034D01*
X79684816Y-121054296D01*
X79735641Y-121222635D01*
X79752800Y-121397640D01*
X79752800Y-121406521D01*
X79752749Y-121413865D01*
X79752747Y-121413879D01*
X79752712Y-121418940D01*
X79733111Y-121593688D01*
X79679941Y-121761302D01*
X79595227Y-121915395D01*
X79482197Y-122050100D01*
X79345154Y-122160285D01*
X79189321Y-122241753D01*
X79020631Y-122291401D01*
X79020546Y-122291409D01*
X79020521Y-122291416D01*
X78845510Y-122307343D01*
X78670751Y-122288974D01*
X78670731Y-122288968D01*
X78670629Y-122288957D01*
X78502648Y-122236959D01*
X78347967Y-122153323D01*
X78212477Y-122041235D01*
X78101338Y-121904966D01*
X78018784Y-121749704D01*
X77967959Y-121581365D01*
X77950800Y-121406360D01*
X77950800Y-121397479D01*
X77950851Y-121390135D01*
X77950853Y-121390121D01*
X77950888Y-121385060D01*
X77970489Y-121210312D01*
X78023659Y-121042698D01*
X78108373Y-120888605D01*
X78221403Y-120753900D01*
X78358446Y-120643715D01*
X78514279Y-120562247D01*
X78682969Y-120512599D01*
X78683054Y-120512591D01*
X78683079Y-120512584D01*
X78858090Y-120496657D01*
X79032849Y-120515026D01*
X79032849Y-120515026D01*
G37*
G36*
X76492849Y-120515026D02*
X76492869Y-120515032D01*
X76492971Y-120515043D01*
X76660952Y-120567041D01*
X76815633Y-120650677D01*
X76951123Y-120762765D01*
X77062262Y-120899034D01*
X77144816Y-121054296D01*
X77195641Y-121222635D01*
X77212800Y-121397640D01*
X77212800Y-121406521D01*
X77212749Y-121413865D01*
X77212747Y-121413879D01*
X77212712Y-121418940D01*
X77193111Y-121593688D01*
X77139941Y-121761302D01*
X77055227Y-121915395D01*
X76942197Y-122050100D01*
X76805154Y-122160285D01*
X76649321Y-122241753D01*
X76480631Y-122291401D01*
X76480546Y-122291409D01*
X76480521Y-122291416D01*
X76305510Y-122307343D01*
X76130751Y-122288974D01*
X76130731Y-122288968D01*
X76130629Y-122288957D01*
X75962648Y-122236959D01*
X75807967Y-122153323D01*
X75672477Y-122041235D01*
X75561338Y-121904966D01*
X75478784Y-121749704D01*
X75427959Y-121581365D01*
X75410800Y-121406360D01*
X75410800Y-121397479D01*
X75410851Y-121390135D01*
X75410853Y-121390121D01*
X75410888Y-121385060D01*
X75430489Y-121210312D01*
X75483659Y-121042698D01*
X75568373Y-120888605D01*
X75681403Y-120753900D01*
X75818446Y-120643715D01*
X75974279Y-120562247D01*
X76142969Y-120512599D01*
X76143054Y-120512591D01*
X76143079Y-120512584D01*
X76318090Y-120496657D01*
X76492849Y-120515026D01*
X76492849Y-120515026D01*
G37*
G36*
X82292800Y-122303000D02*
X80490800Y-122303000D01*
X80490800Y-120501000D01*
X82292800Y-120501000D01*
X82292800Y-122303000D01*
X82292800Y-122303000D01*
G37*
G36*
X69267143Y-116311728D02*
X69478652Y-116355145D01*
X69677698Y-116438816D01*
X69856705Y-116559558D01*
X70008845Y-116712764D01*
X70128334Y-116892609D01*
X70210613Y-117092231D01*
X70252381Y-117303178D01*
X70252381Y-117303201D01*
X70252547Y-117304041D01*
X70249103Y-117550660D01*
X70248913Y-117551495D01*
X70248913Y-117551519D01*
X70201272Y-117761216D01*
X70113451Y-117958464D01*
X69988988Y-118134900D01*
X69832625Y-118283803D01*
X69650319Y-118399498D01*
X69449017Y-118477578D01*
X69236379Y-118515071D01*
X69020503Y-118510550D01*
X68809622Y-118464184D01*
X68611768Y-118377745D01*
X68434461Y-118254512D01*
X68284476Y-118099198D01*
X68167511Y-117917704D01*
X68088024Y-117716944D01*
X68049048Y-117504578D01*
X68052062Y-117288675D01*
X68096953Y-117077482D01*
X68182014Y-116879019D01*
X68303999Y-116700863D01*
X68458268Y-116549793D01*
X68638940Y-116431564D01*
X68839137Y-116350680D01*
X69051231Y-116310221D01*
X69267143Y-116311728D01*
X69267143Y-116311728D01*
G37*
G36*
X78219403Y-116006431D02*
X78345425Y-116032301D01*
X78464021Y-116082153D01*
X78570676Y-116154093D01*
X78661328Y-116245381D01*
X78732522Y-116352535D01*
X78781546Y-116471477D01*
X78806363Y-116596809D01*
X78806363Y-116596840D01*
X78806528Y-116597676D01*
X78804476Y-116744616D01*
X78804286Y-116745451D01*
X78804286Y-116745476D01*
X78775979Y-116870072D01*
X78723653Y-116987596D01*
X78649496Y-117092721D01*
X78556332Y-117181439D01*
X78447705Y-117250377D01*
X78327769Y-117296897D01*
X78201073Y-117319236D01*
X78072448Y-117316542D01*
X77946799Y-117288916D01*
X77828916Y-117237414D01*
X77723270Y-117163988D01*
X77633906Y-117071450D01*
X77564216Y-116963311D01*
X77516855Y-116843691D01*
X77493632Y-116717162D01*
X77495429Y-116588524D01*
X77522177Y-116462682D01*
X77572857Y-116344437D01*
X77645539Y-116238288D01*
X77737454Y-116148277D01*
X77845105Y-116077833D01*
X77964386Y-116029640D01*
X78090757Y-116005534D01*
X78219403Y-116006431D01*
X78219403Y-116006431D01*
G37*
G36*
X80759403Y-116006431D02*
X80885425Y-116032301D01*
X81004021Y-116082153D01*
X81110676Y-116154093D01*
X81201328Y-116245381D01*
X81272522Y-116352535D01*
X81321546Y-116471477D01*
X81346363Y-116596809D01*
X81346363Y-116596840D01*
X81346528Y-116597676D01*
X81344476Y-116744616D01*
X81344286Y-116745451D01*
X81344286Y-116745476D01*
X81315979Y-116870072D01*
X81263653Y-116987596D01*
X81189496Y-117092721D01*
X81096332Y-117181439D01*
X80987705Y-117250377D01*
X80867769Y-117296897D01*
X80741073Y-117319236D01*
X80612448Y-117316542D01*
X80486799Y-117288916D01*
X80368916Y-117237414D01*
X80263270Y-117163988D01*
X80173906Y-117071450D01*
X80104216Y-116963311D01*
X80056855Y-116843691D01*
X80033632Y-116717162D01*
X80035429Y-116588524D01*
X80062177Y-116462682D01*
X80112857Y-116344437D01*
X80185539Y-116238288D01*
X80277454Y-116148277D01*
X80385105Y-116077833D01*
X80504386Y-116029640D01*
X80630757Y-116005534D01*
X80759403Y-116006431D01*
X80759403Y-116006431D01*
G37*
G36*
X180261049Y-114113026D02*
X180261069Y-114113032D01*
X180261171Y-114113043D01*
X180429152Y-114165041D01*
X180583833Y-114248677D01*
X180719323Y-114360765D01*
X180830462Y-114497034D01*
X180913016Y-114652296D01*
X180963841Y-114820635D01*
X180981000Y-114995640D01*
X180981000Y-115004521D01*
X180980949Y-115011865D01*
X180980947Y-115011879D01*
X180980912Y-115016940D01*
X180961311Y-115191688D01*
X180908141Y-115359302D01*
X180823427Y-115513395D01*
X180710397Y-115648100D01*
X180573354Y-115758285D01*
X180417521Y-115839753D01*
X180248831Y-115889401D01*
X180248746Y-115889409D01*
X180248721Y-115889416D01*
X180073710Y-115905343D01*
X179898951Y-115886974D01*
X179898931Y-115886968D01*
X179898829Y-115886957D01*
X179730848Y-115834959D01*
X179576167Y-115751323D01*
X179440677Y-115639235D01*
X179329538Y-115502966D01*
X179246984Y-115347704D01*
X179196159Y-115179365D01*
X179179000Y-115004360D01*
X179179000Y-114995479D01*
X179179051Y-114988135D01*
X179179053Y-114988121D01*
X179179088Y-114983060D01*
X179198689Y-114808312D01*
X179251859Y-114640698D01*
X179336573Y-114486605D01*
X179449603Y-114351900D01*
X179586646Y-114241715D01*
X179742479Y-114160247D01*
X179911169Y-114110599D01*
X179911254Y-114110591D01*
X179911279Y-114110584D01*
X180086290Y-114094657D01*
X180261049Y-114113026D01*
X180261049Y-114113026D01*
G37*
G36*
X177721049Y-114113026D02*
X177721069Y-114113032D01*
X177721171Y-114113043D01*
X177889152Y-114165041D01*
X178043833Y-114248677D01*
X178179323Y-114360765D01*
X178290462Y-114497034D01*
X178373016Y-114652296D01*
X178423841Y-114820635D01*
X178441000Y-114995640D01*
X178441000Y-115004521D01*
X178440949Y-115011865D01*
X178440947Y-115011879D01*
X178440912Y-115016940D01*
X178421311Y-115191688D01*
X178368141Y-115359302D01*
X178283427Y-115513395D01*
X178170397Y-115648100D01*
X178033354Y-115758285D01*
X177877521Y-115839753D01*
X177708831Y-115889401D01*
X177708746Y-115889409D01*
X177708721Y-115889416D01*
X177533710Y-115905343D01*
X177358951Y-115886974D01*
X177358931Y-115886968D01*
X177358829Y-115886957D01*
X177190848Y-115834959D01*
X177036167Y-115751323D01*
X176900677Y-115639235D01*
X176789538Y-115502966D01*
X176706984Y-115347704D01*
X176656159Y-115179365D01*
X176639000Y-115004360D01*
X176639000Y-114995479D01*
X176639051Y-114988135D01*
X176639053Y-114988121D01*
X176639088Y-114983060D01*
X176658689Y-114808312D01*
X176711859Y-114640698D01*
X176796573Y-114486605D01*
X176909603Y-114351900D01*
X177046646Y-114241715D01*
X177202479Y-114160247D01*
X177371169Y-114110599D01*
X177371254Y-114110591D01*
X177371279Y-114110584D01*
X177546290Y-114094657D01*
X177721049Y-114113026D01*
X177721049Y-114113026D01*
G37*
G36*
X175901000Y-115901000D02*
X174099000Y-115901000D01*
X174099000Y-114099000D01*
X175901000Y-114099000D01*
X175901000Y-115901000D01*
X175901000Y-115901000D01*
G37*
G36*
X127090435Y-114139568D02*
X127255839Y-114173521D01*
X127411496Y-114238953D01*
X127551484Y-114333376D01*
X127670460Y-114453185D01*
X127763902Y-114593828D01*
X127828245Y-114749937D01*
X127860871Y-114914706D01*
X127860871Y-114914735D01*
X127861037Y-114915575D01*
X127858344Y-115108434D01*
X127858153Y-115109273D01*
X127858153Y-115109295D01*
X127820940Y-115273093D01*
X127752262Y-115427344D01*
X127654931Y-115565320D01*
X127532653Y-115681765D01*
X127390086Y-115772240D01*
X127232662Y-115833301D01*
X127066377Y-115862621D01*
X126897558Y-115859085D01*
X126732644Y-115822826D01*
X126577921Y-115755229D01*
X126439263Y-115658859D01*
X126321971Y-115537401D01*
X126230502Y-115395467D01*
X126168343Y-115238473D01*
X126137863Y-115072399D01*
X126140221Y-114903562D01*
X126175327Y-114738397D01*
X126241845Y-114583199D01*
X126337239Y-114443879D01*
X126457881Y-114325739D01*
X126599169Y-114233282D01*
X126755725Y-114170030D01*
X126921588Y-114138390D01*
X127090435Y-114139568D01*
X127090435Y-114139568D01*
G37*
G36*
X121337643Y-111231728D02*
X121549152Y-111275145D01*
X121748198Y-111358816D01*
X121927205Y-111479558D01*
X122079345Y-111632764D01*
X122198834Y-111812609D01*
X122281113Y-112012231D01*
X122322881Y-112223178D01*
X122322881Y-112223201D01*
X122323047Y-112224041D01*
X122319603Y-112470660D01*
X122319413Y-112471495D01*
X122319413Y-112471519D01*
X122271772Y-112681216D01*
X122183951Y-112878464D01*
X122059488Y-113054900D01*
X121903125Y-113203803D01*
X121720819Y-113319498D01*
X121519517Y-113397578D01*
X121306879Y-113435071D01*
X121091003Y-113430550D01*
X120880122Y-113384184D01*
X120682268Y-113297745D01*
X120504961Y-113174512D01*
X120354976Y-113019198D01*
X120238011Y-112837704D01*
X120158524Y-112636944D01*
X120119548Y-112424578D01*
X120122562Y-112208675D01*
X120167453Y-111997482D01*
X120252514Y-111799019D01*
X120374499Y-111620863D01*
X120528768Y-111469793D01*
X120709440Y-111351564D01*
X120909637Y-111270680D01*
X121121731Y-111230221D01*
X121337643Y-111231728D01*
X121337643Y-111231728D01*
G37*
G36*
X132090435Y-111639568D02*
X132255839Y-111673521D01*
X132411496Y-111738953D01*
X132551484Y-111833376D01*
X132670460Y-111953185D01*
X132763902Y-112093828D01*
X132828245Y-112249937D01*
X132860871Y-112414706D01*
X132860871Y-112414735D01*
X132861037Y-112415575D01*
X132858344Y-112608434D01*
X132858153Y-112609273D01*
X132858153Y-112609295D01*
X132820940Y-112773093D01*
X132752262Y-112927344D01*
X132654931Y-113065320D01*
X132532653Y-113181765D01*
X132390086Y-113272240D01*
X132232662Y-113333301D01*
X132066377Y-113362621D01*
X131897558Y-113359085D01*
X131732644Y-113322826D01*
X131577921Y-113255229D01*
X131439263Y-113158859D01*
X131321971Y-113037401D01*
X131230502Y-112895467D01*
X131168343Y-112738473D01*
X131137863Y-112572399D01*
X131140221Y-112403562D01*
X131175327Y-112238397D01*
X131241845Y-112083199D01*
X131337239Y-111943879D01*
X131457881Y-111825739D01*
X131599169Y-111733282D01*
X131755725Y-111670030D01*
X131921588Y-111638390D01*
X132090435Y-111639568D01*
X132090435Y-111639568D01*
G37*
G36*
X168219888Y-109669628D02*
X168402579Y-109707129D01*
X168574510Y-109779403D01*
X168729130Y-109883694D01*
X168860541Y-110016027D01*
X168963751Y-110171371D01*
X169034822Y-110343801D01*
X169070875Y-110525881D01*
X169070875Y-110525914D01*
X169071040Y-110526750D01*
X169068066Y-110739769D01*
X169067875Y-110740608D01*
X169067875Y-110740628D01*
X169026751Y-110921640D01*
X168950895Y-111092014D01*
X168843388Y-111244415D01*
X168708332Y-111373027D01*
X168550861Y-111472962D01*
X168376984Y-111540404D01*
X168193315Y-111572789D01*
X168006850Y-111568884D01*
X167824698Y-111528835D01*
X167653801Y-111454172D01*
X167500650Y-111347729D01*
X167371099Y-111213575D01*
X167270069Y-111056807D01*
X167201411Y-110883399D01*
X167167745Y-110699966D01*
X167170349Y-110513476D01*
X167209125Y-110331054D01*
X167282595Y-110159633D01*
X167387962Y-110005748D01*
X167521212Y-109875260D01*
X167677272Y-109773138D01*
X167850192Y-109703274D01*
X168033392Y-109668327D01*
X168219888Y-109669628D01*
X168219888Y-109669628D01*
G37*
G36*
X145359888Y-109669628D02*
X145542579Y-109707129D01*
X145714510Y-109779403D01*
X145869130Y-109883694D01*
X146000541Y-110016027D01*
X146103751Y-110171371D01*
X146174822Y-110343801D01*
X146210875Y-110525881D01*
X146210875Y-110525914D01*
X146211040Y-110526750D01*
X146208066Y-110739769D01*
X146207875Y-110740608D01*
X146207875Y-110740628D01*
X146166751Y-110921640D01*
X146090895Y-111092014D01*
X145983388Y-111244415D01*
X145848332Y-111373027D01*
X145690861Y-111472962D01*
X145516984Y-111540404D01*
X145333315Y-111572789D01*
X145146850Y-111568884D01*
X144964698Y-111528835D01*
X144793801Y-111454172D01*
X144640650Y-111347729D01*
X144511099Y-111213575D01*
X144410069Y-111056807D01*
X144341411Y-110883399D01*
X144307745Y-110699966D01*
X144310349Y-110513476D01*
X144349125Y-110331054D01*
X144422595Y-110159633D01*
X144527962Y-110005748D01*
X144661212Y-109875260D01*
X144817272Y-109773138D01*
X144990192Y-109703274D01*
X145173392Y-109668327D01*
X145359888Y-109669628D01*
X145359888Y-109669628D01*
G37*
G36*
X147899888Y-109669628D02*
X148082579Y-109707129D01*
X148254510Y-109779403D01*
X148409130Y-109883694D01*
X148540541Y-110016027D01*
X148643751Y-110171371D01*
X148714822Y-110343801D01*
X148750875Y-110525881D01*
X148750875Y-110525914D01*
X148751040Y-110526750D01*
X148748066Y-110739769D01*
X148747875Y-110740608D01*
X148747875Y-110740628D01*
X148706751Y-110921640D01*
X148630895Y-111092014D01*
X148523388Y-111244415D01*
X148388332Y-111373027D01*
X148230861Y-111472962D01*
X148056984Y-111540404D01*
X147873315Y-111572789D01*
X147686850Y-111568884D01*
X147504698Y-111528835D01*
X147333801Y-111454172D01*
X147180650Y-111347729D01*
X147051099Y-111213575D01*
X146950069Y-111056807D01*
X146881411Y-110883399D01*
X146847745Y-110699966D01*
X146850349Y-110513476D01*
X146889125Y-110331054D01*
X146962595Y-110159633D01*
X147067962Y-110005748D01*
X147201212Y-109875260D01*
X147357272Y-109773138D01*
X147530192Y-109703274D01*
X147713392Y-109668327D01*
X147899888Y-109669628D01*
X147899888Y-109669628D01*
G37*
G36*
X150439888Y-109669628D02*
X150622579Y-109707129D01*
X150794510Y-109779403D01*
X150949130Y-109883694D01*
X151080541Y-110016027D01*
X151183751Y-110171371D01*
X151254822Y-110343801D01*
X151290875Y-110525881D01*
X151290875Y-110525914D01*
X151291040Y-110526750D01*
X151288066Y-110739769D01*
X151287875Y-110740608D01*
X151287875Y-110740628D01*
X151246751Y-110921640D01*
X151170895Y-111092014D01*
X151063388Y-111244415D01*
X150928332Y-111373027D01*
X150770861Y-111472962D01*
X150596984Y-111540404D01*
X150413315Y-111572789D01*
X150226850Y-111568884D01*
X150044698Y-111528835D01*
X149873801Y-111454172D01*
X149720650Y-111347729D01*
X149591099Y-111213575D01*
X149490069Y-111056807D01*
X149421411Y-110883399D01*
X149387745Y-110699966D01*
X149390349Y-110513476D01*
X149429125Y-110331054D01*
X149502595Y-110159633D01*
X149607962Y-110005748D01*
X149741212Y-109875260D01*
X149897272Y-109773138D01*
X150070192Y-109703274D01*
X150253392Y-109668327D01*
X150439888Y-109669628D01*
X150439888Y-109669628D01*
G37*
G36*
X152979888Y-109669628D02*
X153162579Y-109707129D01*
X153334510Y-109779403D01*
X153489130Y-109883694D01*
X153620541Y-110016027D01*
X153723751Y-110171371D01*
X153794822Y-110343801D01*
X153830875Y-110525881D01*
X153830875Y-110525914D01*
X153831040Y-110526750D01*
X153828066Y-110739769D01*
X153827875Y-110740608D01*
X153827875Y-110740628D01*
X153786751Y-110921640D01*
X153710895Y-111092014D01*
X153603388Y-111244415D01*
X153468332Y-111373027D01*
X153310861Y-111472962D01*
X153136984Y-111540404D01*
X152953315Y-111572789D01*
X152766850Y-111568884D01*
X152584698Y-111528835D01*
X152413801Y-111454172D01*
X152260650Y-111347729D01*
X152131099Y-111213575D01*
X152030069Y-111056807D01*
X151961411Y-110883399D01*
X151927745Y-110699966D01*
X151930349Y-110513476D01*
X151969125Y-110331054D01*
X152042595Y-110159633D01*
X152147962Y-110005748D01*
X152281212Y-109875260D01*
X152437272Y-109773138D01*
X152610192Y-109703274D01*
X152793392Y-109668327D01*
X152979888Y-109669628D01*
X152979888Y-109669628D01*
G37*
G36*
X155519888Y-109669628D02*
X155702579Y-109707129D01*
X155874510Y-109779403D01*
X156029130Y-109883694D01*
X156160541Y-110016027D01*
X156263751Y-110171371D01*
X156334822Y-110343801D01*
X156370875Y-110525881D01*
X156370875Y-110525914D01*
X156371040Y-110526750D01*
X156368066Y-110739769D01*
X156367875Y-110740608D01*
X156367875Y-110740628D01*
X156326751Y-110921640D01*
X156250895Y-111092014D01*
X156143388Y-111244415D01*
X156008332Y-111373027D01*
X155850861Y-111472962D01*
X155676984Y-111540404D01*
X155493315Y-111572789D01*
X155306850Y-111568884D01*
X155124698Y-111528835D01*
X154953801Y-111454172D01*
X154800650Y-111347729D01*
X154671099Y-111213575D01*
X154570069Y-111056807D01*
X154501411Y-110883399D01*
X154467745Y-110699966D01*
X154470349Y-110513476D01*
X154509125Y-110331054D01*
X154582595Y-110159633D01*
X154687962Y-110005748D01*
X154821212Y-109875260D01*
X154977272Y-109773138D01*
X155150192Y-109703274D01*
X155333392Y-109668327D01*
X155519888Y-109669628D01*
X155519888Y-109669628D01*
G37*
G36*
X158059888Y-109669628D02*
X158242579Y-109707129D01*
X158414510Y-109779403D01*
X158569130Y-109883694D01*
X158700541Y-110016027D01*
X158803751Y-110171371D01*
X158874822Y-110343801D01*
X158910875Y-110525881D01*
X158910875Y-110525914D01*
X158911040Y-110526750D01*
X158908066Y-110739769D01*
X158907875Y-110740608D01*
X158907875Y-110740628D01*
X158866751Y-110921640D01*
X158790895Y-111092014D01*
X158683388Y-111244415D01*
X158548332Y-111373027D01*
X158390861Y-111472962D01*
X158216984Y-111540404D01*
X158033315Y-111572789D01*
X157846850Y-111568884D01*
X157664698Y-111528835D01*
X157493801Y-111454172D01*
X157340650Y-111347729D01*
X157211099Y-111213575D01*
X157110069Y-111056807D01*
X157041411Y-110883399D01*
X157007745Y-110699966D01*
X157010349Y-110513476D01*
X157049125Y-110331054D01*
X157122595Y-110159633D01*
X157227962Y-110005748D01*
X157361212Y-109875260D01*
X157517272Y-109773138D01*
X157690192Y-109703274D01*
X157873392Y-109668327D01*
X158059888Y-109669628D01*
X158059888Y-109669628D01*
G37*
G36*
X163139888Y-109669628D02*
X163322579Y-109707129D01*
X163494510Y-109779403D01*
X163649130Y-109883694D01*
X163780541Y-110016027D01*
X163883751Y-110171371D01*
X163954822Y-110343801D01*
X163990875Y-110525881D01*
X163990875Y-110525914D01*
X163991040Y-110526750D01*
X163988066Y-110739769D01*
X163987875Y-110740608D01*
X163987875Y-110740628D01*
X163946751Y-110921640D01*
X163870895Y-111092014D01*
X163763388Y-111244415D01*
X163628332Y-111373027D01*
X163470861Y-111472962D01*
X163296984Y-111540404D01*
X163113315Y-111572789D01*
X162926850Y-111568884D01*
X162744698Y-111528835D01*
X162573801Y-111454172D01*
X162420650Y-111347729D01*
X162291099Y-111213575D01*
X162190069Y-111056807D01*
X162121411Y-110883399D01*
X162087745Y-110699966D01*
X162090349Y-110513476D01*
X162129125Y-110331054D01*
X162202595Y-110159633D01*
X162307962Y-110005748D01*
X162441212Y-109875260D01*
X162597272Y-109773138D01*
X162770192Y-109703274D01*
X162953392Y-109668327D01*
X163139888Y-109669628D01*
X163139888Y-109669628D01*
G37*
G36*
X165679888Y-109669628D02*
X165862579Y-109707129D01*
X166034510Y-109779403D01*
X166189130Y-109883694D01*
X166320541Y-110016027D01*
X166423751Y-110171371D01*
X166494822Y-110343801D01*
X166530875Y-110525881D01*
X166530875Y-110525914D01*
X166531040Y-110526750D01*
X166528066Y-110739769D01*
X166527875Y-110740608D01*
X166527875Y-110740628D01*
X166486751Y-110921640D01*
X166410895Y-111092014D01*
X166303388Y-111244415D01*
X166168332Y-111373027D01*
X166010861Y-111472962D01*
X165836984Y-111540404D01*
X165653315Y-111572789D01*
X165466850Y-111568884D01*
X165284698Y-111528835D01*
X165113801Y-111454172D01*
X164960650Y-111347729D01*
X164831099Y-111213575D01*
X164730069Y-111056807D01*
X164661411Y-110883399D01*
X164627745Y-110699966D01*
X164630349Y-110513476D01*
X164669125Y-110331054D01*
X164742595Y-110159633D01*
X164847962Y-110005748D01*
X164981212Y-109875260D01*
X165137272Y-109773138D01*
X165310192Y-109703274D01*
X165493392Y-109668327D01*
X165679888Y-109669628D01*
X165679888Y-109669628D01*
G37*
G36*
X178379888Y-109669628D02*
X178562579Y-109707129D01*
X178734510Y-109779403D01*
X178889130Y-109883694D01*
X179020541Y-110016027D01*
X179123751Y-110171371D01*
X179194822Y-110343801D01*
X179230875Y-110525881D01*
X179230875Y-110525914D01*
X179231040Y-110526750D01*
X179228066Y-110739769D01*
X179227875Y-110740608D01*
X179227875Y-110740628D01*
X179186751Y-110921640D01*
X179110895Y-111092014D01*
X179003388Y-111244415D01*
X178868332Y-111373027D01*
X178710861Y-111472962D01*
X178536984Y-111540404D01*
X178353315Y-111572789D01*
X178166850Y-111568884D01*
X177984698Y-111528835D01*
X177813801Y-111454172D01*
X177660650Y-111347729D01*
X177531099Y-111213575D01*
X177430069Y-111056807D01*
X177361411Y-110883399D01*
X177327745Y-110699966D01*
X177330349Y-110513476D01*
X177369125Y-110331054D01*
X177442595Y-110159633D01*
X177547962Y-110005748D01*
X177681212Y-109875260D01*
X177837272Y-109773138D01*
X178010192Y-109703274D01*
X178193392Y-109668327D01*
X178379888Y-109669628D01*
X178379888Y-109669628D01*
G37*
G36*
X170759888Y-109669628D02*
X170942579Y-109707129D01*
X171114510Y-109779403D01*
X171269130Y-109883694D01*
X171400541Y-110016027D01*
X171503751Y-110171371D01*
X171574822Y-110343801D01*
X171610875Y-110525881D01*
X171610875Y-110525914D01*
X171611040Y-110526750D01*
X171608066Y-110739769D01*
X171607875Y-110740608D01*
X171607875Y-110740628D01*
X171566751Y-110921640D01*
X171490895Y-111092014D01*
X171383388Y-111244415D01*
X171248332Y-111373027D01*
X171090861Y-111472962D01*
X170916984Y-111540404D01*
X170733315Y-111572789D01*
X170546850Y-111568884D01*
X170364698Y-111528835D01*
X170193801Y-111454172D01*
X170040650Y-111347729D01*
X169911099Y-111213575D01*
X169810069Y-111056807D01*
X169741411Y-110883399D01*
X169707745Y-110699966D01*
X169710349Y-110513476D01*
X169749125Y-110331054D01*
X169822595Y-110159633D01*
X169927962Y-110005748D01*
X170061212Y-109875260D01*
X170217272Y-109773138D01*
X170390192Y-109703274D01*
X170573392Y-109668327D01*
X170759888Y-109669628D01*
X170759888Y-109669628D01*
G37*
G36*
X173299888Y-109669628D02*
X173482579Y-109707129D01*
X173654510Y-109779403D01*
X173809130Y-109883694D01*
X173940541Y-110016027D01*
X174043751Y-110171371D01*
X174114822Y-110343801D01*
X174150875Y-110525881D01*
X174150875Y-110525914D01*
X174151040Y-110526750D01*
X174148066Y-110739769D01*
X174147875Y-110740608D01*
X174147875Y-110740628D01*
X174106751Y-110921640D01*
X174030895Y-111092014D01*
X173923388Y-111244415D01*
X173788332Y-111373027D01*
X173630861Y-111472962D01*
X173456984Y-111540404D01*
X173273315Y-111572789D01*
X173086850Y-111568884D01*
X172904698Y-111528835D01*
X172733801Y-111454172D01*
X172580650Y-111347729D01*
X172451099Y-111213575D01*
X172350069Y-111056807D01*
X172281411Y-110883399D01*
X172247745Y-110699966D01*
X172250349Y-110513476D01*
X172289125Y-110331054D01*
X172362595Y-110159633D01*
X172467962Y-110005748D01*
X172601212Y-109875260D01*
X172757272Y-109773138D01*
X172930192Y-109703274D01*
X173113392Y-109668327D01*
X173299888Y-109669628D01*
X173299888Y-109669628D01*
G37*
G36*
X175839888Y-109669628D02*
X176022579Y-109707129D01*
X176194510Y-109779403D01*
X176349130Y-109883694D01*
X176480541Y-110016027D01*
X176583751Y-110171371D01*
X176654822Y-110343801D01*
X176690875Y-110525881D01*
X176690875Y-110525914D01*
X176691040Y-110526750D01*
X176688066Y-110739769D01*
X176687875Y-110740608D01*
X176687875Y-110740628D01*
X176646751Y-110921640D01*
X176570895Y-111092014D01*
X176463388Y-111244415D01*
X176328332Y-111373027D01*
X176170861Y-111472962D01*
X175996984Y-111540404D01*
X175813315Y-111572789D01*
X175626850Y-111568884D01*
X175444698Y-111528835D01*
X175273801Y-111454172D01*
X175120650Y-111347729D01*
X174991099Y-111213575D01*
X174890069Y-111056807D01*
X174821411Y-110883399D01*
X174787745Y-110699966D01*
X174790349Y-110513476D01*
X174829125Y-110331054D01*
X174902595Y-110159633D01*
X175007962Y-110005748D01*
X175141212Y-109875260D01*
X175297272Y-109773138D01*
X175470192Y-109703274D01*
X175653392Y-109668327D01*
X175839888Y-109669628D01*
X175839888Y-109669628D01*
G37*
G36*
X160599888Y-109669628D02*
X160782579Y-109707129D01*
X160954510Y-109779403D01*
X161109130Y-109883694D01*
X161240541Y-110016027D01*
X161343751Y-110171371D01*
X161414822Y-110343801D01*
X161450875Y-110525881D01*
X161450875Y-110525914D01*
X161451040Y-110526750D01*
X161448066Y-110739769D01*
X161447875Y-110740608D01*
X161447875Y-110740628D01*
X161406751Y-110921640D01*
X161330895Y-111092014D01*
X161223388Y-111244415D01*
X161088332Y-111373027D01*
X160930861Y-111472962D01*
X160756984Y-111540404D01*
X160573315Y-111572789D01*
X160386850Y-111568884D01*
X160204698Y-111528835D01*
X160033801Y-111454172D01*
X159880650Y-111347729D01*
X159751099Y-111213575D01*
X159650069Y-111056807D01*
X159581411Y-110883399D01*
X159547745Y-110699966D01*
X159550349Y-110513476D01*
X159589125Y-110331054D01*
X159662595Y-110159633D01*
X159767962Y-110005748D01*
X159901212Y-109875260D01*
X160057272Y-109773138D01*
X160230192Y-109703274D01*
X160413392Y-109668327D01*
X160599888Y-109669628D01*
X160599888Y-109669628D01*
G37*
G36*
X143671000Y-111571000D02*
X141769000Y-111571000D01*
X141769000Y-109669000D01*
X143671000Y-109669000D01*
X143671000Y-111571000D01*
X143671000Y-111571000D01*
G37*
G36*
X127090435Y-109139568D02*
X127255839Y-109173521D01*
X127411496Y-109238953D01*
X127551484Y-109333376D01*
X127670460Y-109453185D01*
X127763902Y-109593828D01*
X127828245Y-109749937D01*
X127860871Y-109914706D01*
X127860871Y-109914735D01*
X127861037Y-109915575D01*
X127858344Y-110108434D01*
X127858153Y-110109273D01*
X127858153Y-110109295D01*
X127820940Y-110273093D01*
X127752262Y-110427344D01*
X127654931Y-110565320D01*
X127532653Y-110681765D01*
X127390086Y-110772240D01*
X127232662Y-110833301D01*
X127066377Y-110862621D01*
X126897558Y-110859085D01*
X126732644Y-110822826D01*
X126577921Y-110755229D01*
X126439263Y-110658859D01*
X126321971Y-110537401D01*
X126230502Y-110395467D01*
X126168343Y-110238473D01*
X126137863Y-110072399D01*
X126140221Y-109903562D01*
X126175327Y-109738397D01*
X126241845Y-109583199D01*
X126337239Y-109443879D01*
X126457881Y-109325739D01*
X126599169Y-109233282D01*
X126755725Y-109170030D01*
X126921588Y-109138390D01*
X127090435Y-109139568D01*
X127090435Y-109139568D01*
G37*
G36*
X80237278Y-108635428D02*
X80362338Y-108661099D01*
X80480035Y-108710575D01*
X80585873Y-108781962D01*
X80675835Y-108872556D01*
X80746486Y-108978893D01*
X80795137Y-109096930D01*
X80819763Y-109221297D01*
X80819763Y-109221330D01*
X80819928Y-109222166D01*
X80817892Y-109367987D01*
X80817701Y-109368826D01*
X80817701Y-109368847D01*
X80789612Y-109492486D01*
X80737685Y-109609115D01*
X80664094Y-109713438D01*
X80571637Y-109801482D01*
X80463843Y-109869891D01*
X80344818Y-109916058D01*
X80219088Y-109938227D01*
X80091443Y-109935554D01*
X79966754Y-109908139D01*
X79849765Y-109857027D01*
X79744925Y-109784162D01*
X79656244Y-109692329D01*
X79587084Y-109585014D01*
X79561122Y-109519443D01*
X79543701Y-109488886D01*
X79518456Y-109464392D01*
X79487388Y-109447901D01*
X79452955Y-109440719D01*
X79417884Y-109443413D01*
X79384953Y-109455772D01*
X79356768Y-109476815D01*
X79335562Y-109504878D01*
X79323013Y-109537737D01*
X79319900Y-109565459D01*
X79319900Y-109937000D01*
X78017900Y-109937000D01*
X78017900Y-108635000D01*
X79319900Y-108635000D01*
X79319900Y-109005300D01*
X79324849Y-109040124D01*
X79339304Y-109072191D01*
X79362120Y-109098961D01*
X79391490Y-109118315D01*
X79425090Y-109128720D01*
X79460258Y-109129353D01*
X79494211Y-109120163D01*
X79524258Y-109101878D01*
X79548022Y-109075945D01*
X79559792Y-109054542D01*
X79595658Y-108970858D01*
X79667787Y-108865517D01*
X79759003Y-108776192D01*
X79865833Y-108706285D01*
X79984205Y-108658460D01*
X80109613Y-108634537D01*
X80237278Y-108635428D01*
X80237278Y-108635428D01*
G37*
G36*
X69309649Y-108054026D02*
X69309669Y-108054032D01*
X69309771Y-108054043D01*
X69477752Y-108106041D01*
X69632433Y-108189677D01*
X69767923Y-108301765D01*
X69879062Y-108438034D01*
X69961616Y-108593296D01*
X70012441Y-108761635D01*
X70029600Y-108936640D01*
X70029600Y-108945521D01*
X70029549Y-108952865D01*
X70029547Y-108952879D01*
X70029512Y-108957940D01*
X70009911Y-109132688D01*
X69956741Y-109300302D01*
X69872027Y-109454395D01*
X69758997Y-109589100D01*
X69621954Y-109699285D01*
X69466121Y-109780753D01*
X69297431Y-109830401D01*
X69297346Y-109830409D01*
X69297321Y-109830416D01*
X69122310Y-109846343D01*
X68947551Y-109827974D01*
X68947531Y-109827968D01*
X68947429Y-109827957D01*
X68779448Y-109775959D01*
X68624767Y-109692323D01*
X68489277Y-109580235D01*
X68378138Y-109443966D01*
X68295584Y-109288704D01*
X68244759Y-109120365D01*
X68227600Y-108945360D01*
X68227600Y-108936479D01*
X68227651Y-108929135D01*
X68227653Y-108929121D01*
X68227688Y-108924060D01*
X68247289Y-108749312D01*
X68300459Y-108581698D01*
X68385173Y-108427605D01*
X68498203Y-108292900D01*
X68635246Y-108182715D01*
X68791079Y-108101247D01*
X68959769Y-108051599D01*
X68959854Y-108051591D01*
X68959879Y-108051584D01*
X69134890Y-108035657D01*
X69309649Y-108054026D01*
X69309649Y-108054026D01*
G37*
G36*
X72569600Y-109842000D02*
X70767600Y-109842000D01*
X70767600Y-108040000D01*
X72569600Y-108040000D01*
X72569600Y-109842000D01*
X72569600Y-109842000D01*
G37*
G36*
X99994603Y-107966444D02*
X100124468Y-107993102D01*
X100246680Y-108044475D01*
X100356586Y-108118608D01*
X100450002Y-108212679D01*
X100523366Y-108323100D01*
X100573885Y-108445668D01*
X100599464Y-108574847D01*
X100599464Y-108574879D01*
X100599629Y-108575715D01*
X100597515Y-108727135D01*
X100597324Y-108727974D01*
X100597324Y-108727996D01*
X100568149Y-108856415D01*
X100514228Y-108977523D01*
X100437810Y-109085853D01*
X100341805Y-109177276D01*
X100229871Y-109248312D01*
X100106269Y-109296254D01*
X99975715Y-109319274D01*
X99843168Y-109316498D01*
X99713692Y-109288031D01*
X99592210Y-109234956D01*
X99483345Y-109159293D01*
X99391258Y-109063935D01*
X99319439Y-108952493D01*
X99270637Y-108829234D01*
X99246706Y-108698843D01*
X99248557Y-108566278D01*
X99276119Y-108436611D01*
X99328346Y-108314755D01*
X99403243Y-108205370D01*
X99497964Y-108112614D01*
X99608893Y-108040023D01*
X99731812Y-107990360D01*
X99862035Y-107965520D01*
X99994603Y-107966444D01*
X99994603Y-107966444D01*
G37*
G36*
X97454603Y-107966444D02*
X97584468Y-107993102D01*
X97706680Y-108044475D01*
X97816586Y-108118608D01*
X97910002Y-108212679D01*
X97983366Y-108323100D01*
X98033885Y-108445668D01*
X98059464Y-108574847D01*
X98059464Y-108574879D01*
X98059629Y-108575715D01*
X98057515Y-108727135D01*
X98057324Y-108727974D01*
X98057324Y-108727996D01*
X98028149Y-108856415D01*
X97974228Y-108977523D01*
X97897810Y-109085853D01*
X97801805Y-109177276D01*
X97689871Y-109248312D01*
X97566269Y-109296254D01*
X97435715Y-109319274D01*
X97303168Y-109316498D01*
X97173692Y-109288031D01*
X97052210Y-109234956D01*
X96943345Y-109159293D01*
X96851258Y-109063935D01*
X96779439Y-108952493D01*
X96730637Y-108829234D01*
X96706706Y-108698843D01*
X96708557Y-108566278D01*
X96736119Y-108436611D01*
X96788346Y-108314755D01*
X96863243Y-108205370D01*
X96957964Y-108112614D01*
X97068893Y-108040023D01*
X97191812Y-107990360D01*
X97322035Y-107965520D01*
X97454603Y-107966444D01*
X97454603Y-107966444D01*
G37*
G36*
X89834603Y-107966444D02*
X89964468Y-107993102D01*
X90086680Y-108044475D01*
X90196586Y-108118608D01*
X90290002Y-108212679D01*
X90363366Y-108323100D01*
X90413885Y-108445668D01*
X90439464Y-108574847D01*
X90439464Y-108574879D01*
X90439629Y-108575715D01*
X90437515Y-108727135D01*
X90437324Y-108727974D01*
X90437324Y-108727996D01*
X90408149Y-108856415D01*
X90354228Y-108977523D01*
X90277810Y-109085853D01*
X90181805Y-109177276D01*
X90069871Y-109248312D01*
X89946269Y-109296254D01*
X89815715Y-109319274D01*
X89683168Y-109316498D01*
X89553692Y-109288031D01*
X89432210Y-109234956D01*
X89323345Y-109159293D01*
X89231258Y-109063935D01*
X89159439Y-108952493D01*
X89110637Y-108829234D01*
X89086706Y-108698843D01*
X89088557Y-108566278D01*
X89116119Y-108436611D01*
X89168346Y-108314755D01*
X89243243Y-108205370D01*
X89337964Y-108112614D01*
X89448893Y-108040023D01*
X89571812Y-107990360D01*
X89702035Y-107965520D01*
X89834603Y-107966444D01*
X89834603Y-107966444D01*
G37*
G36*
X92374603Y-107966444D02*
X92504468Y-107993102D01*
X92626680Y-108044475D01*
X92736586Y-108118608D01*
X92830002Y-108212679D01*
X92903366Y-108323100D01*
X92953885Y-108445668D01*
X92979464Y-108574847D01*
X92979464Y-108574879D01*
X92979629Y-108575715D01*
X92977515Y-108727135D01*
X92977324Y-108727974D01*
X92977324Y-108727996D01*
X92948149Y-108856415D01*
X92894228Y-108977523D01*
X92817810Y-109085853D01*
X92721805Y-109177276D01*
X92609871Y-109248312D01*
X92486269Y-109296254D01*
X92355715Y-109319274D01*
X92223168Y-109316498D01*
X92093692Y-109288031D01*
X91972210Y-109234956D01*
X91863345Y-109159293D01*
X91771258Y-109063935D01*
X91699439Y-108952493D01*
X91650637Y-108829234D01*
X91626706Y-108698843D01*
X91628557Y-108566278D01*
X91656119Y-108436611D01*
X91708346Y-108314755D01*
X91783243Y-108205370D01*
X91877964Y-108112614D01*
X91988893Y-108040023D01*
X92111812Y-107990360D01*
X92242035Y-107965520D01*
X92374603Y-107966444D01*
X92374603Y-107966444D01*
G37*
G36*
X94914603Y-107966444D02*
X95044468Y-107993102D01*
X95166680Y-108044475D01*
X95276586Y-108118608D01*
X95370002Y-108212679D01*
X95443366Y-108323100D01*
X95493885Y-108445668D01*
X95519464Y-108574847D01*
X95519464Y-108574879D01*
X95519629Y-108575715D01*
X95517515Y-108727135D01*
X95517324Y-108727974D01*
X95517324Y-108727996D01*
X95488149Y-108856415D01*
X95434228Y-108977523D01*
X95357810Y-109085853D01*
X95261805Y-109177276D01*
X95149871Y-109248312D01*
X95026269Y-109296254D01*
X94895715Y-109319274D01*
X94763168Y-109316498D01*
X94633692Y-109288031D01*
X94512210Y-109234956D01*
X94403345Y-109159293D01*
X94311258Y-109063935D01*
X94239439Y-108952493D01*
X94190637Y-108829234D01*
X94166706Y-108698843D01*
X94168557Y-108566278D01*
X94196119Y-108436611D01*
X94248346Y-108314755D01*
X94323243Y-108205370D01*
X94417964Y-108112614D01*
X94528893Y-108040023D01*
X94651812Y-107990360D01*
X94782035Y-107965520D01*
X94914603Y-107966444D01*
X94914603Y-107966444D01*
G37*
G36*
X105074603Y-107966444D02*
X105204468Y-107993102D01*
X105326680Y-108044475D01*
X105436586Y-108118608D01*
X105530002Y-108212679D01*
X105603366Y-108323100D01*
X105653885Y-108445668D01*
X105679464Y-108574847D01*
X105679464Y-108574879D01*
X105679629Y-108575715D01*
X105677515Y-108727135D01*
X105677324Y-108727974D01*
X105677324Y-108727996D01*
X105648149Y-108856415D01*
X105594228Y-108977523D01*
X105517810Y-109085853D01*
X105421805Y-109177276D01*
X105309871Y-109248312D01*
X105186269Y-109296254D01*
X105055715Y-109319274D01*
X104923168Y-109316498D01*
X104793692Y-109288031D01*
X104672210Y-109234956D01*
X104563345Y-109159293D01*
X104471258Y-109063935D01*
X104399439Y-108952493D01*
X104350637Y-108829234D01*
X104326706Y-108698843D01*
X104328557Y-108566278D01*
X104356119Y-108436611D01*
X104408346Y-108314755D01*
X104483243Y-108205370D01*
X104577964Y-108112614D01*
X104688893Y-108040023D01*
X104811812Y-107990360D01*
X104942035Y-107965520D01*
X105074603Y-107966444D01*
X105074603Y-107966444D01*
G37*
G36*
X102534603Y-107966444D02*
X102664468Y-107993102D01*
X102786680Y-108044475D01*
X102896586Y-108118608D01*
X102990002Y-108212679D01*
X103063366Y-108323100D01*
X103113885Y-108445668D01*
X103139464Y-108574847D01*
X103139464Y-108574879D01*
X103139629Y-108575715D01*
X103137515Y-108727135D01*
X103137324Y-108727974D01*
X103137324Y-108727996D01*
X103108149Y-108856415D01*
X103054228Y-108977523D01*
X102977810Y-109085853D01*
X102881805Y-109177276D01*
X102769871Y-109248312D01*
X102646269Y-109296254D01*
X102515715Y-109319274D01*
X102383168Y-109316498D01*
X102253692Y-109288031D01*
X102132210Y-109234956D01*
X102023345Y-109159293D01*
X101931258Y-109063935D01*
X101859439Y-108952493D01*
X101810637Y-108829234D01*
X101786706Y-108698843D01*
X101788557Y-108566278D01*
X101816119Y-108436611D01*
X101868346Y-108314755D01*
X101943243Y-108205370D01*
X102037964Y-108112614D01*
X102148893Y-108040023D01*
X102271812Y-107990360D01*
X102402035Y-107965520D01*
X102534603Y-107966444D01*
X102534603Y-107966444D01*
G37*
G36*
X87899600Y-109318000D02*
X86547600Y-109318000D01*
X86547600Y-107966000D01*
X87899600Y-107966000D01*
X87899600Y-109318000D01*
X87899600Y-109318000D01*
G37*
G36*
X136080000Y-106362000D02*
X134278000Y-106362000D01*
X134278000Y-104560000D01*
X136080000Y-104560000D01*
X136080000Y-106362000D01*
X136080000Y-106362000D01*
G37*
G36*
X135190865Y-102020051D02*
X135190879Y-102020053D01*
X135195940Y-102020088D01*
X135370688Y-102039689D01*
X135538302Y-102092859D01*
X135692395Y-102177573D01*
X135827100Y-102290603D01*
X135937285Y-102427646D01*
X136018753Y-102583479D01*
X136068401Y-102752169D01*
X136068409Y-102752254D01*
X136068416Y-102752279D01*
X136084343Y-102927290D01*
X136065974Y-103102049D01*
X136065968Y-103102069D01*
X136065957Y-103102171D01*
X136013959Y-103270152D01*
X135930323Y-103424833D01*
X135818235Y-103560323D01*
X135681966Y-103671462D01*
X135526704Y-103754016D01*
X135358365Y-103804841D01*
X135183360Y-103822000D01*
X135174479Y-103822000D01*
X135167135Y-103821949D01*
X135167121Y-103821947D01*
X135162060Y-103821912D01*
X134987312Y-103802311D01*
X134819698Y-103749141D01*
X134665605Y-103664427D01*
X134530900Y-103551397D01*
X134420715Y-103414354D01*
X134339247Y-103258521D01*
X134289599Y-103089831D01*
X134289591Y-103089746D01*
X134289584Y-103089721D01*
X134273657Y-102914710D01*
X134292026Y-102739951D01*
X134292032Y-102739931D01*
X134292043Y-102739829D01*
X134344041Y-102571848D01*
X134427677Y-102417167D01*
X134539765Y-102281677D01*
X134676034Y-102170538D01*
X134831296Y-102087984D01*
X134999635Y-102037159D01*
X135174640Y-102020000D01*
X135183521Y-102020000D01*
X135190865Y-102020051D01*
X135190865Y-102020051D01*
G37*
G36*
X79281106Y-100019056D02*
X79281120Y-100019058D01*
X79286179Y-100019093D01*
X79470625Y-100039782D01*
X79647540Y-100095902D01*
X79810185Y-100185317D01*
X79952365Y-100304620D01*
X80068664Y-100449267D01*
X80154653Y-100613749D01*
X80207056Y-100791800D01*
X80207064Y-100791884D01*
X80207071Y-100791909D01*
X80223883Y-100976639D01*
X80204495Y-101161103D01*
X80204487Y-101161128D01*
X80204477Y-101161225D01*
X80149593Y-101338527D01*
X80061316Y-101501792D01*
X79943008Y-101644802D01*
X79799176Y-101762108D01*
X79635299Y-101849243D01*
X79457618Y-101902888D01*
X79272901Y-101921000D01*
X79263539Y-101921000D01*
X79255494Y-101920944D01*
X79255480Y-101920942D01*
X79250421Y-101920907D01*
X79065975Y-101900218D01*
X78889060Y-101844098D01*
X78726415Y-101754683D01*
X78584235Y-101635380D01*
X78467936Y-101490733D01*
X78381947Y-101326251D01*
X78329544Y-101148200D01*
X78329536Y-101148116D01*
X78329529Y-101148091D01*
X78312717Y-100963361D01*
X78332105Y-100778897D01*
X78332113Y-100778872D01*
X78332123Y-100778775D01*
X78387007Y-100601473D01*
X78475284Y-100438208D01*
X78593592Y-100295198D01*
X78737424Y-100177892D01*
X78901301Y-100090757D01*
X79078982Y-100037112D01*
X79263699Y-100019000D01*
X79273061Y-100019000D01*
X79281106Y-100019056D01*
X79281106Y-100019056D01*
G37*
G36*
X75139300Y-101921000D02*
X73237300Y-101921000D01*
X73237300Y-100019000D01*
X75139300Y-100019000D01*
X75139300Y-101921000D01*
X75139300Y-101921000D01*
G37*
G36*
X76741106Y-100019056D02*
X76741120Y-100019058D01*
X76746179Y-100019093D01*
X76930625Y-100039782D01*
X77107540Y-100095902D01*
X77270185Y-100185317D01*
X77412365Y-100304620D01*
X77528664Y-100449267D01*
X77614653Y-100613749D01*
X77667056Y-100791800D01*
X77667064Y-100791884D01*
X77667071Y-100791909D01*
X77683883Y-100976639D01*
X77664495Y-101161103D01*
X77664487Y-101161128D01*
X77664477Y-101161225D01*
X77609593Y-101338527D01*
X77521316Y-101501792D01*
X77403008Y-101644802D01*
X77259176Y-101762108D01*
X77095299Y-101849243D01*
X76917618Y-101902888D01*
X76732901Y-101921000D01*
X76723539Y-101921000D01*
X76715494Y-101920944D01*
X76715480Y-101920942D01*
X76710421Y-101920907D01*
X76525975Y-101900218D01*
X76349060Y-101844098D01*
X76186415Y-101754683D01*
X76044235Y-101635380D01*
X75927936Y-101490733D01*
X75841947Y-101326251D01*
X75789544Y-101148200D01*
X75789536Y-101148116D01*
X75789529Y-101148091D01*
X75772717Y-100963361D01*
X75792105Y-100778897D01*
X75792113Y-100778872D01*
X75792123Y-100778775D01*
X75847007Y-100601473D01*
X75935284Y-100438208D01*
X76053592Y-100295198D01*
X76197424Y-100177892D01*
X76361301Y-100090757D01*
X76538982Y-100037112D01*
X76723699Y-100019000D01*
X76733061Y-100019000D01*
X76741106Y-100019056D01*
X76741106Y-100019056D01*
G37*
G36*
X135190865Y-99480051D02*
X135190879Y-99480053D01*
X135195940Y-99480088D01*
X135370688Y-99499689D01*
X135538302Y-99552859D01*
X135692395Y-99637573D01*
X135827100Y-99750603D01*
X135937285Y-99887646D01*
X136018753Y-100043479D01*
X136068401Y-100212169D01*
X136068409Y-100212254D01*
X136068416Y-100212279D01*
X136084343Y-100387290D01*
X136065974Y-100562049D01*
X136065968Y-100562069D01*
X136065957Y-100562171D01*
X136013959Y-100730152D01*
X135930323Y-100884833D01*
X135818235Y-101020323D01*
X135681966Y-101131462D01*
X135526704Y-101214016D01*
X135358365Y-101264841D01*
X135183360Y-101282000D01*
X135174479Y-101282000D01*
X135167135Y-101281949D01*
X135167121Y-101281947D01*
X135162060Y-101281912D01*
X134987312Y-101262311D01*
X134819698Y-101209141D01*
X134665605Y-101124427D01*
X134530900Y-101011397D01*
X134420715Y-100874354D01*
X134339247Y-100718521D01*
X134289599Y-100549831D01*
X134289591Y-100549746D01*
X134289584Y-100549721D01*
X134273657Y-100374710D01*
X134292026Y-100199951D01*
X134292032Y-100199931D01*
X134292043Y-100199829D01*
X134344041Y-100031848D01*
X134427677Y-99877167D01*
X134539765Y-99741677D01*
X134676034Y-99630538D01*
X134831296Y-99547984D01*
X134999635Y-99497159D01*
X135174640Y-99480000D01*
X135183521Y-99480000D01*
X135190865Y-99480051D01*
X135190865Y-99480051D01*
G37*
G36*
X92374603Y-99166444D02*
X92504468Y-99193102D01*
X92626680Y-99244475D01*
X92736586Y-99318608D01*
X92830002Y-99412679D01*
X92903366Y-99523100D01*
X92953885Y-99645668D01*
X92979464Y-99774847D01*
X92979464Y-99774879D01*
X92979629Y-99775715D01*
X92977515Y-99927135D01*
X92977324Y-99927974D01*
X92977324Y-99927996D01*
X92948149Y-100056415D01*
X92894228Y-100177523D01*
X92817810Y-100285853D01*
X92721805Y-100377276D01*
X92609871Y-100448312D01*
X92486269Y-100496254D01*
X92355715Y-100519274D01*
X92223168Y-100516498D01*
X92093692Y-100488031D01*
X91972210Y-100434956D01*
X91863345Y-100359293D01*
X91771258Y-100263935D01*
X91699439Y-100152493D01*
X91650637Y-100029234D01*
X91626706Y-99898843D01*
X91628557Y-99766278D01*
X91656119Y-99636611D01*
X91708346Y-99514755D01*
X91783243Y-99405370D01*
X91877964Y-99312614D01*
X91988893Y-99240023D01*
X92111812Y-99190360D01*
X92242035Y-99165520D01*
X92374603Y-99166444D01*
X92374603Y-99166444D01*
G37*
G36*
X87294603Y-99166444D02*
X87424468Y-99193102D01*
X87546680Y-99244475D01*
X87656586Y-99318608D01*
X87750002Y-99412679D01*
X87823366Y-99523100D01*
X87873885Y-99645668D01*
X87899464Y-99774847D01*
X87899464Y-99774879D01*
X87899629Y-99775715D01*
X87897515Y-99927135D01*
X87897324Y-99927974D01*
X87897324Y-99927996D01*
X87868149Y-100056415D01*
X87814228Y-100177523D01*
X87737810Y-100285853D01*
X87641805Y-100377276D01*
X87529871Y-100448312D01*
X87406269Y-100496254D01*
X87275715Y-100519274D01*
X87143168Y-100516498D01*
X87013692Y-100488031D01*
X86892210Y-100434956D01*
X86783345Y-100359293D01*
X86691258Y-100263935D01*
X86619439Y-100152493D01*
X86570637Y-100029234D01*
X86546706Y-99898843D01*
X86548557Y-99766278D01*
X86576119Y-99636611D01*
X86628346Y-99514755D01*
X86703243Y-99405370D01*
X86797964Y-99312614D01*
X86908893Y-99240023D01*
X87031812Y-99190360D01*
X87162035Y-99165520D01*
X87294603Y-99166444D01*
X87294603Y-99166444D01*
G37*
G36*
X94914603Y-99166444D02*
X95044468Y-99193102D01*
X95166680Y-99244475D01*
X95276586Y-99318608D01*
X95370002Y-99412679D01*
X95443366Y-99523100D01*
X95493885Y-99645668D01*
X95519464Y-99774847D01*
X95519464Y-99774879D01*
X95519629Y-99775715D01*
X95517515Y-99927135D01*
X95517324Y-99927974D01*
X95517324Y-99927996D01*
X95488149Y-100056415D01*
X95434228Y-100177523D01*
X95357810Y-100285853D01*
X95261805Y-100377276D01*
X95149871Y-100448312D01*
X95026269Y-100496254D01*
X94895715Y-100519274D01*
X94763168Y-100516498D01*
X94633692Y-100488031D01*
X94512210Y-100434956D01*
X94403345Y-100359293D01*
X94311258Y-100263935D01*
X94239439Y-100152493D01*
X94190637Y-100029234D01*
X94166706Y-99898843D01*
X94168557Y-99766278D01*
X94196119Y-99636611D01*
X94248346Y-99514755D01*
X94323243Y-99405370D01*
X94417964Y-99312614D01*
X94528893Y-99240023D01*
X94651812Y-99190360D01*
X94782035Y-99165520D01*
X94914603Y-99166444D01*
X94914603Y-99166444D01*
G37*
G36*
X97454603Y-99166444D02*
X97584468Y-99193102D01*
X97706680Y-99244475D01*
X97816586Y-99318608D01*
X97910002Y-99412679D01*
X97983366Y-99523100D01*
X98033885Y-99645668D01*
X98059464Y-99774847D01*
X98059464Y-99774879D01*
X98059629Y-99775715D01*
X98057515Y-99927135D01*
X98057324Y-99927974D01*
X98057324Y-99927996D01*
X98028149Y-100056415D01*
X97974228Y-100177523D01*
X97897810Y-100285853D01*
X97801805Y-100377276D01*
X97689871Y-100448312D01*
X97566269Y-100496254D01*
X97435715Y-100519274D01*
X97303168Y-100516498D01*
X97173692Y-100488031D01*
X97052210Y-100434956D01*
X96943345Y-100359293D01*
X96851258Y-100263935D01*
X96779439Y-100152493D01*
X96730637Y-100029234D01*
X96706706Y-99898843D01*
X96708557Y-99766278D01*
X96736119Y-99636611D01*
X96788346Y-99514755D01*
X96863243Y-99405370D01*
X96957964Y-99312614D01*
X97068893Y-99240023D01*
X97191812Y-99190360D01*
X97322035Y-99165520D01*
X97454603Y-99166444D01*
X97454603Y-99166444D01*
G37*
G36*
X99994603Y-99166444D02*
X100124468Y-99193102D01*
X100246680Y-99244475D01*
X100356586Y-99318608D01*
X100450002Y-99412679D01*
X100523366Y-99523100D01*
X100573885Y-99645668D01*
X100599464Y-99774847D01*
X100599464Y-99774879D01*
X100599629Y-99775715D01*
X100597515Y-99927135D01*
X100597324Y-99927974D01*
X100597324Y-99927996D01*
X100568149Y-100056415D01*
X100514228Y-100177523D01*
X100437810Y-100285853D01*
X100341805Y-100377276D01*
X100229871Y-100448312D01*
X100106269Y-100496254D01*
X99975715Y-100519274D01*
X99843168Y-100516498D01*
X99713692Y-100488031D01*
X99592210Y-100434956D01*
X99483345Y-100359293D01*
X99391258Y-100263935D01*
X99319439Y-100152493D01*
X99270637Y-100029234D01*
X99246706Y-99898843D01*
X99248557Y-99766278D01*
X99276119Y-99636611D01*
X99328346Y-99514755D01*
X99403243Y-99405370D01*
X99497964Y-99312614D01*
X99608893Y-99240023D01*
X99731812Y-99190360D01*
X99862035Y-99165520D01*
X99994603Y-99166444D01*
X99994603Y-99166444D01*
G37*
G36*
X102534603Y-99166444D02*
X102664468Y-99193102D01*
X102786680Y-99244475D01*
X102896586Y-99318608D01*
X102990002Y-99412679D01*
X103063366Y-99523100D01*
X103113885Y-99645668D01*
X103139464Y-99774847D01*
X103139464Y-99774879D01*
X103139629Y-99775715D01*
X103137515Y-99927135D01*
X103137324Y-99927974D01*
X103137324Y-99927996D01*
X103108149Y-100056415D01*
X103054228Y-100177523D01*
X102977810Y-100285853D01*
X102881805Y-100377276D01*
X102769871Y-100448312D01*
X102646269Y-100496254D01*
X102515715Y-100519274D01*
X102383168Y-100516498D01*
X102253692Y-100488031D01*
X102132210Y-100434956D01*
X102023345Y-100359293D01*
X101931258Y-100263935D01*
X101859439Y-100152493D01*
X101810637Y-100029234D01*
X101786706Y-99898843D01*
X101788557Y-99766278D01*
X101816119Y-99636611D01*
X101868346Y-99514755D01*
X101943243Y-99405370D01*
X102037964Y-99312614D01*
X102148893Y-99240023D01*
X102271812Y-99190360D01*
X102402035Y-99165520D01*
X102534603Y-99166444D01*
X102534603Y-99166444D01*
G37*
G36*
X105074603Y-99166444D02*
X105204468Y-99193102D01*
X105326680Y-99244475D01*
X105436586Y-99318608D01*
X105530002Y-99412679D01*
X105603366Y-99523100D01*
X105653885Y-99645668D01*
X105679464Y-99774847D01*
X105679464Y-99774879D01*
X105679629Y-99775715D01*
X105677515Y-99927135D01*
X105677324Y-99927974D01*
X105677324Y-99927996D01*
X105648149Y-100056415D01*
X105594228Y-100177523D01*
X105517810Y-100285853D01*
X105421805Y-100377276D01*
X105309871Y-100448312D01*
X105186269Y-100496254D01*
X105055715Y-100519274D01*
X104923168Y-100516498D01*
X104793692Y-100488031D01*
X104672210Y-100434956D01*
X104563345Y-100359293D01*
X104471258Y-100263935D01*
X104399439Y-100152493D01*
X104350637Y-100029234D01*
X104326706Y-99898843D01*
X104328557Y-99766278D01*
X104356119Y-99636611D01*
X104408346Y-99514755D01*
X104483243Y-99405370D01*
X104577964Y-99312614D01*
X104688893Y-99240023D01*
X104811812Y-99190360D01*
X104942035Y-99165520D01*
X105074603Y-99166444D01*
X105074603Y-99166444D01*
G37*
G36*
X89834603Y-99166444D02*
X89964468Y-99193102D01*
X90086680Y-99244475D01*
X90196586Y-99318608D01*
X90290002Y-99412679D01*
X90363366Y-99523100D01*
X90413885Y-99645668D01*
X90439464Y-99774847D01*
X90439464Y-99774879D01*
X90439629Y-99775715D01*
X90437515Y-99927135D01*
X90437324Y-99927974D01*
X90437324Y-99927996D01*
X90408149Y-100056415D01*
X90354228Y-100177523D01*
X90277810Y-100285853D01*
X90181805Y-100377276D01*
X90069871Y-100448312D01*
X89946269Y-100496254D01*
X89815715Y-100519274D01*
X89683168Y-100516498D01*
X89553692Y-100488031D01*
X89432210Y-100434956D01*
X89323345Y-100359293D01*
X89231258Y-100263935D01*
X89159439Y-100152493D01*
X89110637Y-100029234D01*
X89086706Y-99898843D01*
X89088557Y-99766278D01*
X89116119Y-99636611D01*
X89168346Y-99514755D01*
X89243243Y-99405370D01*
X89337964Y-99312614D01*
X89448893Y-99240023D01*
X89571812Y-99190360D01*
X89702035Y-99165520D01*
X89834603Y-99166444D01*
X89834603Y-99166444D01*
G37*
G36*
X127090435Y-95139568D02*
X127255839Y-95173521D01*
X127411496Y-95238953D01*
X127551484Y-95333376D01*
X127670460Y-95453185D01*
X127763902Y-95593828D01*
X127828245Y-95749937D01*
X127860871Y-95914706D01*
X127860871Y-95914735D01*
X127861037Y-95915575D01*
X127858344Y-96108434D01*
X127858153Y-96109273D01*
X127858153Y-96109295D01*
X127820940Y-96273093D01*
X127752262Y-96427344D01*
X127654931Y-96565320D01*
X127532653Y-96681765D01*
X127390086Y-96772240D01*
X127232662Y-96833301D01*
X127066377Y-96862621D01*
X126897558Y-96859085D01*
X126732644Y-96822826D01*
X126577921Y-96755229D01*
X126439263Y-96658859D01*
X126321971Y-96537401D01*
X126230502Y-96395467D01*
X126168343Y-96238473D01*
X126137863Y-96072399D01*
X126140221Y-95903562D01*
X126175327Y-95738397D01*
X126241845Y-95583199D01*
X126337239Y-95443879D01*
X126457881Y-95325739D01*
X126599169Y-95233282D01*
X126755725Y-95170030D01*
X126921588Y-95138390D01*
X127090435Y-95139568D01*
X127090435Y-95139568D01*
G37*
G36*
X163139888Y-94429628D02*
X163322579Y-94467129D01*
X163494510Y-94539403D01*
X163649130Y-94643694D01*
X163780541Y-94776027D01*
X163883751Y-94931371D01*
X163954822Y-95103801D01*
X163990875Y-95285881D01*
X163990875Y-95285914D01*
X163991040Y-95286750D01*
X163988066Y-95499769D01*
X163987875Y-95500608D01*
X163987875Y-95500628D01*
X163946751Y-95681640D01*
X163870895Y-95852014D01*
X163763388Y-96004415D01*
X163628332Y-96133027D01*
X163470861Y-96232962D01*
X163296984Y-96300404D01*
X163113315Y-96332789D01*
X162926850Y-96328884D01*
X162744698Y-96288835D01*
X162573801Y-96214172D01*
X162420650Y-96107729D01*
X162291099Y-95973575D01*
X162190069Y-95816807D01*
X162121411Y-95643399D01*
X162087745Y-95459966D01*
X162090349Y-95273476D01*
X162129125Y-95091054D01*
X162202595Y-94919633D01*
X162307962Y-94765748D01*
X162441212Y-94635260D01*
X162597272Y-94533138D01*
X162770192Y-94463274D01*
X162953392Y-94428327D01*
X163139888Y-94429628D01*
X163139888Y-94429628D01*
G37*
G36*
X142819888Y-94429628D02*
X143002579Y-94467129D01*
X143174510Y-94539403D01*
X143329130Y-94643694D01*
X143460541Y-94776027D01*
X143563751Y-94931371D01*
X143634822Y-95103801D01*
X143670875Y-95285881D01*
X143670875Y-95285914D01*
X143671040Y-95286750D01*
X143668066Y-95499769D01*
X143667875Y-95500608D01*
X143667875Y-95500628D01*
X143626751Y-95681640D01*
X143550895Y-95852014D01*
X143443388Y-96004415D01*
X143308332Y-96133027D01*
X143150861Y-96232962D01*
X142976984Y-96300404D01*
X142793315Y-96332789D01*
X142606850Y-96328884D01*
X142424698Y-96288835D01*
X142253801Y-96214172D01*
X142100650Y-96107729D01*
X141971099Y-95973575D01*
X141870069Y-95816807D01*
X141801411Y-95643399D01*
X141767745Y-95459966D01*
X141770349Y-95273476D01*
X141809125Y-95091054D01*
X141882595Y-94919633D01*
X141987962Y-94765748D01*
X142121212Y-94635260D01*
X142277272Y-94533138D01*
X142450192Y-94463274D01*
X142633392Y-94428327D01*
X142819888Y-94429628D01*
X142819888Y-94429628D01*
G37*
G36*
X158059888Y-94429628D02*
X158242579Y-94467129D01*
X158414510Y-94539403D01*
X158569130Y-94643694D01*
X158700541Y-94776027D01*
X158803751Y-94931371D01*
X158874822Y-95103801D01*
X158910875Y-95285881D01*
X158910875Y-95285914D01*
X158911040Y-95286750D01*
X158908066Y-95499769D01*
X158907875Y-95500608D01*
X158907875Y-95500628D01*
X158866751Y-95681640D01*
X158790895Y-95852014D01*
X158683388Y-96004415D01*
X158548332Y-96133027D01*
X158390861Y-96232962D01*
X158216984Y-96300404D01*
X158033315Y-96332789D01*
X157846850Y-96328884D01*
X157664698Y-96288835D01*
X157493801Y-96214172D01*
X157340650Y-96107729D01*
X157211099Y-95973575D01*
X157110069Y-95816807D01*
X157041411Y-95643399D01*
X157007745Y-95459966D01*
X157010349Y-95273476D01*
X157049125Y-95091054D01*
X157122595Y-94919633D01*
X157227962Y-94765748D01*
X157361212Y-94635260D01*
X157517272Y-94533138D01*
X157690192Y-94463274D01*
X157873392Y-94428327D01*
X158059888Y-94429628D01*
X158059888Y-94429628D01*
G37*
G36*
X145359888Y-94429628D02*
X145542579Y-94467129D01*
X145714510Y-94539403D01*
X145869130Y-94643694D01*
X146000541Y-94776027D01*
X146103751Y-94931371D01*
X146174822Y-95103801D01*
X146210875Y-95285881D01*
X146210875Y-95285914D01*
X146211040Y-95286750D01*
X146208066Y-95499769D01*
X146207875Y-95500608D01*
X146207875Y-95500628D01*
X146166751Y-95681640D01*
X146090895Y-95852014D01*
X145983388Y-96004415D01*
X145848332Y-96133027D01*
X145690861Y-96232962D01*
X145516984Y-96300404D01*
X145333315Y-96332789D01*
X145146850Y-96328884D01*
X144964698Y-96288835D01*
X144793801Y-96214172D01*
X144640650Y-96107729D01*
X144511099Y-95973575D01*
X144410069Y-95816807D01*
X144341411Y-95643399D01*
X144307745Y-95459966D01*
X144310349Y-95273476D01*
X144349125Y-95091054D01*
X144422595Y-94919633D01*
X144527962Y-94765748D01*
X144661212Y-94635260D01*
X144817272Y-94533138D01*
X144990192Y-94463274D01*
X145173392Y-94428327D01*
X145359888Y-94429628D01*
X145359888Y-94429628D01*
G37*
G36*
X147899888Y-94429628D02*
X148082579Y-94467129D01*
X148254510Y-94539403D01*
X148409130Y-94643694D01*
X148540541Y-94776027D01*
X148643751Y-94931371D01*
X148714822Y-95103801D01*
X148750875Y-95285881D01*
X148750875Y-95285914D01*
X148751040Y-95286750D01*
X148748066Y-95499769D01*
X148747875Y-95500608D01*
X148747875Y-95500628D01*
X148706751Y-95681640D01*
X148630895Y-95852014D01*
X148523388Y-96004415D01*
X148388332Y-96133027D01*
X148230861Y-96232962D01*
X148056984Y-96300404D01*
X147873315Y-96332789D01*
X147686850Y-96328884D01*
X147504698Y-96288835D01*
X147333801Y-96214172D01*
X147180650Y-96107729D01*
X147051099Y-95973575D01*
X146950069Y-95816807D01*
X146881411Y-95643399D01*
X146847745Y-95459966D01*
X146850349Y-95273476D01*
X146889125Y-95091054D01*
X146962595Y-94919633D01*
X147067962Y-94765748D01*
X147201212Y-94635260D01*
X147357272Y-94533138D01*
X147530192Y-94463274D01*
X147713392Y-94428327D01*
X147899888Y-94429628D01*
X147899888Y-94429628D01*
G37*
G36*
X150439888Y-94429628D02*
X150622579Y-94467129D01*
X150794510Y-94539403D01*
X150949130Y-94643694D01*
X151080541Y-94776027D01*
X151183751Y-94931371D01*
X151254822Y-95103801D01*
X151290875Y-95285881D01*
X151290875Y-95285914D01*
X151291040Y-95286750D01*
X151288066Y-95499769D01*
X151287875Y-95500608D01*
X151287875Y-95500628D01*
X151246751Y-95681640D01*
X151170895Y-95852014D01*
X151063388Y-96004415D01*
X150928332Y-96133027D01*
X150770861Y-96232962D01*
X150596984Y-96300404D01*
X150413315Y-96332789D01*
X150226850Y-96328884D01*
X150044698Y-96288835D01*
X149873801Y-96214172D01*
X149720650Y-96107729D01*
X149591099Y-95973575D01*
X149490069Y-95816807D01*
X149421411Y-95643399D01*
X149387745Y-95459966D01*
X149390349Y-95273476D01*
X149429125Y-95091054D01*
X149502595Y-94919633D01*
X149607962Y-94765748D01*
X149741212Y-94635260D01*
X149897272Y-94533138D01*
X150070192Y-94463274D01*
X150253392Y-94428327D01*
X150439888Y-94429628D01*
X150439888Y-94429628D01*
G37*
G36*
X152979888Y-94429628D02*
X153162579Y-94467129D01*
X153334510Y-94539403D01*
X153489130Y-94643694D01*
X153620541Y-94776027D01*
X153723751Y-94931371D01*
X153794822Y-95103801D01*
X153830875Y-95285881D01*
X153830875Y-95285914D01*
X153831040Y-95286750D01*
X153828066Y-95499769D01*
X153827875Y-95500608D01*
X153827875Y-95500628D01*
X153786751Y-95681640D01*
X153710895Y-95852014D01*
X153603388Y-96004415D01*
X153468332Y-96133027D01*
X153310861Y-96232962D01*
X153136984Y-96300404D01*
X152953315Y-96332789D01*
X152766850Y-96328884D01*
X152584698Y-96288835D01*
X152413801Y-96214172D01*
X152260650Y-96107729D01*
X152131099Y-95973575D01*
X152030069Y-95816807D01*
X151961411Y-95643399D01*
X151927745Y-95459966D01*
X151930349Y-95273476D01*
X151969125Y-95091054D01*
X152042595Y-94919633D01*
X152147962Y-94765748D01*
X152281212Y-94635260D01*
X152437272Y-94533138D01*
X152610192Y-94463274D01*
X152793392Y-94428327D01*
X152979888Y-94429628D01*
X152979888Y-94429628D01*
G37*
G36*
X155519888Y-94429628D02*
X155702579Y-94467129D01*
X155874510Y-94539403D01*
X156029130Y-94643694D01*
X156160541Y-94776027D01*
X156263751Y-94931371D01*
X156334822Y-95103801D01*
X156370875Y-95285881D01*
X156370875Y-95285914D01*
X156371040Y-95286750D01*
X156368066Y-95499769D01*
X156367875Y-95500608D01*
X156367875Y-95500628D01*
X156326751Y-95681640D01*
X156250895Y-95852014D01*
X156143388Y-96004415D01*
X156008332Y-96133027D01*
X155850861Y-96232962D01*
X155676984Y-96300404D01*
X155493315Y-96332789D01*
X155306850Y-96328884D01*
X155124698Y-96288835D01*
X154953801Y-96214172D01*
X154800650Y-96107729D01*
X154671099Y-95973575D01*
X154570069Y-95816807D01*
X154501411Y-95643399D01*
X154467745Y-95459966D01*
X154470349Y-95273476D01*
X154509125Y-95091054D01*
X154582595Y-94919633D01*
X154687962Y-94765748D01*
X154821212Y-94635260D01*
X154977272Y-94533138D01*
X155150192Y-94463274D01*
X155333392Y-94428327D01*
X155519888Y-94429628D01*
X155519888Y-94429628D01*
G37*
G36*
X160599888Y-94429628D02*
X160782579Y-94467129D01*
X160954510Y-94539403D01*
X161109130Y-94643694D01*
X161240541Y-94776027D01*
X161343751Y-94931371D01*
X161414822Y-95103801D01*
X161450875Y-95285881D01*
X161450875Y-95285914D01*
X161451040Y-95286750D01*
X161448066Y-95499769D01*
X161447875Y-95500608D01*
X161447875Y-95500628D01*
X161406751Y-95681640D01*
X161330895Y-95852014D01*
X161223388Y-96004415D01*
X161088332Y-96133027D01*
X160930861Y-96232962D01*
X160756984Y-96300404D01*
X160573315Y-96332789D01*
X160386850Y-96328884D01*
X160204698Y-96288835D01*
X160033801Y-96214172D01*
X159880650Y-96107729D01*
X159751099Y-95973575D01*
X159650069Y-95816807D01*
X159581411Y-95643399D01*
X159547745Y-95459966D01*
X159550349Y-95273476D01*
X159589125Y-95091054D01*
X159662595Y-94919633D01*
X159767962Y-94765748D01*
X159901212Y-94635260D01*
X160057272Y-94533138D01*
X160230192Y-94463274D01*
X160413392Y-94428327D01*
X160599888Y-94429628D01*
X160599888Y-94429628D01*
G37*
G36*
X165679888Y-94429628D02*
X165862579Y-94467129D01*
X166034510Y-94539403D01*
X166189130Y-94643694D01*
X166320541Y-94776027D01*
X166423751Y-94931371D01*
X166494822Y-95103801D01*
X166530875Y-95285881D01*
X166530875Y-95285914D01*
X166531040Y-95286750D01*
X166528066Y-95499769D01*
X166527875Y-95500608D01*
X166527875Y-95500628D01*
X166486751Y-95681640D01*
X166410895Y-95852014D01*
X166303388Y-96004415D01*
X166168332Y-96133027D01*
X166010861Y-96232962D01*
X165836984Y-96300404D01*
X165653315Y-96332789D01*
X165466850Y-96328884D01*
X165284698Y-96288835D01*
X165113801Y-96214172D01*
X164960650Y-96107729D01*
X164831099Y-95973575D01*
X164730069Y-95816807D01*
X164661411Y-95643399D01*
X164627745Y-95459966D01*
X164630349Y-95273476D01*
X164669125Y-95091054D01*
X164742595Y-94919633D01*
X164847962Y-94765748D01*
X164981212Y-94635260D01*
X165137272Y-94533138D01*
X165310192Y-94463274D01*
X165493392Y-94428327D01*
X165679888Y-94429628D01*
X165679888Y-94429628D01*
G37*
G36*
X168219888Y-94429628D02*
X168402579Y-94467129D01*
X168574510Y-94539403D01*
X168729130Y-94643694D01*
X168860541Y-94776027D01*
X168963751Y-94931371D01*
X169034822Y-95103801D01*
X169070875Y-95285881D01*
X169070875Y-95285914D01*
X169071040Y-95286750D01*
X169068066Y-95499769D01*
X169067875Y-95500608D01*
X169067875Y-95500628D01*
X169026751Y-95681640D01*
X168950895Y-95852014D01*
X168843388Y-96004415D01*
X168708332Y-96133027D01*
X168550861Y-96232962D01*
X168376984Y-96300404D01*
X168193315Y-96332789D01*
X168006850Y-96328884D01*
X167824698Y-96288835D01*
X167653801Y-96214172D01*
X167500650Y-96107729D01*
X167371099Y-95973575D01*
X167270069Y-95816807D01*
X167201411Y-95643399D01*
X167167745Y-95459966D01*
X167170349Y-95273476D01*
X167209125Y-95091054D01*
X167282595Y-94919633D01*
X167387962Y-94765748D01*
X167521212Y-94635260D01*
X167677272Y-94533138D01*
X167850192Y-94463274D01*
X168033392Y-94428327D01*
X168219888Y-94429628D01*
X168219888Y-94429628D01*
G37*
G36*
X170759888Y-94429628D02*
X170942579Y-94467129D01*
X171114510Y-94539403D01*
X171269130Y-94643694D01*
X171400541Y-94776027D01*
X171503751Y-94931371D01*
X171574822Y-95103801D01*
X171610875Y-95285881D01*
X171610875Y-95285914D01*
X171611040Y-95286750D01*
X171608066Y-95499769D01*
X171607875Y-95500608D01*
X171607875Y-95500628D01*
X171566751Y-95681640D01*
X171490895Y-95852014D01*
X171383388Y-96004415D01*
X171248332Y-96133027D01*
X171090861Y-96232962D01*
X170916984Y-96300404D01*
X170733315Y-96332789D01*
X170546850Y-96328884D01*
X170364698Y-96288835D01*
X170193801Y-96214172D01*
X170040650Y-96107729D01*
X169911099Y-95973575D01*
X169810069Y-95816807D01*
X169741411Y-95643399D01*
X169707745Y-95459966D01*
X169710349Y-95273476D01*
X169749125Y-95091054D01*
X169822595Y-94919633D01*
X169927962Y-94765748D01*
X170061212Y-94635260D01*
X170217272Y-94533138D01*
X170390192Y-94463274D01*
X170573392Y-94428327D01*
X170759888Y-94429628D01*
X170759888Y-94429628D01*
G37*
G36*
X173299888Y-94429628D02*
X173482579Y-94467129D01*
X173654510Y-94539403D01*
X173809130Y-94643694D01*
X173940541Y-94776027D01*
X174043751Y-94931371D01*
X174114822Y-95103801D01*
X174150875Y-95285881D01*
X174150875Y-95285914D01*
X174151040Y-95286750D01*
X174148066Y-95499769D01*
X174147875Y-95500608D01*
X174147875Y-95500628D01*
X174106751Y-95681640D01*
X174030895Y-95852014D01*
X173923388Y-96004415D01*
X173788332Y-96133027D01*
X173630861Y-96232962D01*
X173456984Y-96300404D01*
X173273315Y-96332789D01*
X173086850Y-96328884D01*
X172904698Y-96288835D01*
X172733801Y-96214172D01*
X172580650Y-96107729D01*
X172451099Y-95973575D01*
X172350069Y-95816807D01*
X172281411Y-95643399D01*
X172247745Y-95459966D01*
X172250349Y-95273476D01*
X172289125Y-95091054D01*
X172362595Y-94919633D01*
X172467962Y-94765748D01*
X172601212Y-94635260D01*
X172757272Y-94533138D01*
X172930192Y-94463274D01*
X173113392Y-94428327D01*
X173299888Y-94429628D01*
X173299888Y-94429628D01*
G37*
G36*
X178379888Y-94429628D02*
X178562579Y-94467129D01*
X178734510Y-94539403D01*
X178889130Y-94643694D01*
X179020541Y-94776027D01*
X179123751Y-94931371D01*
X179194822Y-95103801D01*
X179230875Y-95285881D01*
X179230875Y-95285914D01*
X179231040Y-95286750D01*
X179228066Y-95499769D01*
X179227875Y-95500608D01*
X179227875Y-95500628D01*
X179186751Y-95681640D01*
X179110895Y-95852014D01*
X179003388Y-96004415D01*
X178868332Y-96133027D01*
X178710861Y-96232962D01*
X178536984Y-96300404D01*
X178353315Y-96332789D01*
X178166850Y-96328884D01*
X177984698Y-96288835D01*
X177813801Y-96214172D01*
X177660650Y-96107729D01*
X177531099Y-95973575D01*
X177430069Y-95816807D01*
X177361411Y-95643399D01*
X177327745Y-95459966D01*
X177330349Y-95273476D01*
X177369125Y-95091054D01*
X177442595Y-94919633D01*
X177547962Y-94765748D01*
X177681212Y-94635260D01*
X177837272Y-94533138D01*
X178010192Y-94463274D01*
X178193392Y-94428327D01*
X178379888Y-94429628D01*
X178379888Y-94429628D01*
G37*
G36*
X175839888Y-94429628D02*
X176022579Y-94467129D01*
X176194510Y-94539403D01*
X176349130Y-94643694D01*
X176480541Y-94776027D01*
X176583751Y-94931371D01*
X176654822Y-95103801D01*
X176690875Y-95285881D01*
X176690875Y-95285914D01*
X176691040Y-95286750D01*
X176688066Y-95499769D01*
X176687875Y-95500608D01*
X176687875Y-95500628D01*
X176646751Y-95681640D01*
X176570895Y-95852014D01*
X176463388Y-96004415D01*
X176328332Y-96133027D01*
X176170861Y-96232962D01*
X175996984Y-96300404D01*
X175813315Y-96332789D01*
X175626850Y-96328884D01*
X175444698Y-96288835D01*
X175273801Y-96214172D01*
X175120650Y-96107729D01*
X174991099Y-95973575D01*
X174890069Y-95816807D01*
X174821411Y-95643399D01*
X174787745Y-95459966D01*
X174790349Y-95273476D01*
X174829125Y-95091054D01*
X174902595Y-94919633D01*
X175007962Y-94765748D01*
X175141212Y-94635260D01*
X175297272Y-94533138D01*
X175470192Y-94463274D01*
X175653392Y-94428327D01*
X175839888Y-94429628D01*
X175839888Y-94429628D01*
G37*
G36*
X69912800Y-96201800D02*
X68110800Y-96201800D01*
X68110800Y-94399800D01*
X69912800Y-94399800D01*
X69912800Y-96201800D01*
X69912800Y-96201800D01*
G37*
G36*
X115039384Y-94235961D02*
X115202867Y-94269520D01*
X115356716Y-94334192D01*
X115495078Y-94427519D01*
X115612671Y-94545936D01*
X115705029Y-94684945D01*
X115768626Y-94839244D01*
X115800870Y-95002087D01*
X115800870Y-95002110D01*
X115801037Y-95002955D01*
X115798375Y-95193575D01*
X115798184Y-95194414D01*
X115798184Y-95194435D01*
X115761405Y-95356321D01*
X115693525Y-95508781D01*
X115597325Y-95645154D01*
X115476467Y-95760244D01*
X115335556Y-95849670D01*
X115179958Y-95910023D01*
X115015606Y-95939002D01*
X114848748Y-95935507D01*
X114685751Y-95899670D01*
X114532820Y-95832856D01*
X114395777Y-95737607D01*
X114279849Y-95617561D01*
X114189439Y-95477272D01*
X114128003Y-95322104D01*
X114097877Y-95157958D01*
X114100207Y-94991077D01*
X114134904Y-94827840D01*
X114200652Y-94674438D01*
X114294935Y-94536740D01*
X114414176Y-94419971D01*
X114553825Y-94328588D01*
X114708564Y-94266069D01*
X114872499Y-94234797D01*
X115039384Y-94235961D01*
X115039384Y-94235961D01*
G37*
G36*
X109700384Y-94235961D02*
X109863867Y-94269520D01*
X110017716Y-94334192D01*
X110156078Y-94427519D01*
X110273671Y-94545936D01*
X110366029Y-94684945D01*
X110429626Y-94839244D01*
X110461870Y-95002087D01*
X110461870Y-95002110D01*
X110462037Y-95002955D01*
X110459375Y-95193575D01*
X110459184Y-95194414D01*
X110459184Y-95194435D01*
X110422405Y-95356321D01*
X110354525Y-95508781D01*
X110258325Y-95645154D01*
X110137467Y-95760244D01*
X109996556Y-95849670D01*
X109840958Y-95910023D01*
X109676606Y-95939002D01*
X109509748Y-95935507D01*
X109346751Y-95899670D01*
X109193820Y-95832856D01*
X109056777Y-95737607D01*
X108940849Y-95617561D01*
X108850439Y-95477272D01*
X108789003Y-95322104D01*
X108758877Y-95157958D01*
X108761207Y-94991077D01*
X108795904Y-94827840D01*
X108861652Y-94674438D01*
X108955935Y-94536740D01*
X109075176Y-94419971D01*
X109214825Y-94328588D01*
X109369564Y-94266069D01*
X109533499Y-94234797D01*
X109700384Y-94235961D01*
X109700384Y-94235961D01*
G37*
G36*
X79144384Y-94235961D02*
X79307867Y-94269520D01*
X79461716Y-94334192D01*
X79600078Y-94427519D01*
X79717671Y-94545936D01*
X79810029Y-94684945D01*
X79873626Y-94839244D01*
X79905870Y-95002087D01*
X79905870Y-95002110D01*
X79906037Y-95002955D01*
X79903375Y-95193575D01*
X79903184Y-95194414D01*
X79903184Y-95194435D01*
X79866405Y-95356321D01*
X79798525Y-95508781D01*
X79702325Y-95645154D01*
X79581467Y-95760244D01*
X79440556Y-95849670D01*
X79284958Y-95910023D01*
X79120606Y-95939002D01*
X78953748Y-95935507D01*
X78790751Y-95899670D01*
X78637820Y-95832856D01*
X78500777Y-95737607D01*
X78384849Y-95617561D01*
X78294439Y-95477272D01*
X78233003Y-95322104D01*
X78202877Y-95157958D01*
X78205207Y-94991077D01*
X78239904Y-94827840D01*
X78305652Y-94674438D01*
X78399935Y-94536740D01*
X78519176Y-94419971D01*
X78658825Y-94328588D01*
X78813564Y-94266069D01*
X78977499Y-94234797D01*
X79144384Y-94235961D01*
X79144384Y-94235961D01*
G37*
G36*
X74191384Y-94235961D02*
X74354867Y-94269520D01*
X74508716Y-94334192D01*
X74647078Y-94427519D01*
X74764671Y-94545936D01*
X74857029Y-94684945D01*
X74920626Y-94839244D01*
X74952870Y-95002087D01*
X74952870Y-95002110D01*
X74953037Y-95002955D01*
X74950375Y-95193575D01*
X74950184Y-95194414D01*
X74950184Y-95194435D01*
X74913405Y-95356321D01*
X74845525Y-95508781D01*
X74749325Y-95645154D01*
X74628467Y-95760244D01*
X74487556Y-95849670D01*
X74331958Y-95910023D01*
X74167606Y-95939002D01*
X74000748Y-95935507D01*
X73837751Y-95899670D01*
X73684820Y-95832856D01*
X73547777Y-95737607D01*
X73431849Y-95617561D01*
X73341439Y-95477272D01*
X73280003Y-95322104D01*
X73249877Y-95157958D01*
X73252207Y-94991077D01*
X73286904Y-94827840D01*
X73352652Y-94674438D01*
X73446935Y-94536740D01*
X73566176Y-94419971D01*
X73705825Y-94328588D01*
X73860564Y-94266069D01*
X74024499Y-94234797D01*
X74191384Y-94235961D01*
X74191384Y-94235961D01*
G37*
G36*
X83753384Y-92850161D02*
X83916867Y-92883720D01*
X84070716Y-92948392D01*
X84209078Y-93041719D01*
X84326671Y-93160136D01*
X84419029Y-93299145D01*
X84482626Y-93453444D01*
X84514870Y-93616287D01*
X84514870Y-93616310D01*
X84515037Y-93617155D01*
X84512375Y-93807775D01*
X84512184Y-93808614D01*
X84512184Y-93808635D01*
X84475405Y-93970521D01*
X84407525Y-94122981D01*
X84311325Y-94259354D01*
X84190467Y-94374444D01*
X84049556Y-94463870D01*
X83893958Y-94524223D01*
X83729606Y-94553202D01*
X83562748Y-94549707D01*
X83399751Y-94513870D01*
X83246820Y-94447056D01*
X83109777Y-94351807D01*
X82993849Y-94231761D01*
X82903439Y-94091472D01*
X82842003Y-93936304D01*
X82811877Y-93772158D01*
X82814207Y-93605277D01*
X82848904Y-93442040D01*
X82914652Y-93288638D01*
X83008935Y-93150940D01*
X83128176Y-93034171D01*
X83267825Y-92942788D01*
X83422564Y-92880269D01*
X83586499Y-92848997D01*
X83753384Y-92850161D01*
X83753384Y-92850161D01*
G37*
G36*
X103994926Y-92849646D02*
X103994941Y-92849648D01*
X104000000Y-92849683D01*
X104165051Y-92868196D01*
X104323363Y-92918416D01*
X104468905Y-92998428D01*
X104596134Y-93105186D01*
X104700204Y-93234624D01*
X104777151Y-93381810D01*
X104824044Y-93541139D01*
X104824052Y-93541223D01*
X104824059Y-93541248D01*
X104839101Y-93706541D01*
X104821753Y-93871594D01*
X104821748Y-93871609D01*
X104821737Y-93871717D01*
X104772624Y-94030376D01*
X104693629Y-94176473D01*
X104587762Y-94304445D01*
X104459054Y-94409416D01*
X104312409Y-94487389D01*
X104153411Y-94535393D01*
X103988118Y-94551600D01*
X103979719Y-94551600D01*
X103973074Y-94551554D01*
X103973059Y-94551552D01*
X103968000Y-94551517D01*
X103802949Y-94533004D01*
X103644637Y-94482784D01*
X103499095Y-94402772D01*
X103371866Y-94296014D01*
X103267796Y-94166576D01*
X103190849Y-94019390D01*
X103143956Y-93860061D01*
X103143948Y-93859977D01*
X103143941Y-93859952D01*
X103128899Y-93694659D01*
X103146247Y-93529606D01*
X103146252Y-93529591D01*
X103146263Y-93529483D01*
X103195376Y-93370824D01*
X103274371Y-93224727D01*
X103380238Y-93096755D01*
X103508946Y-92991784D01*
X103655591Y-92913811D01*
X103814589Y-92865807D01*
X103979882Y-92849600D01*
X103988281Y-92849600D01*
X103994926Y-92849646D01*
X103994926Y-92849646D01*
G37*
G36*
X132090435Y-92639568D02*
X132255839Y-92673521D01*
X132411496Y-92738953D01*
X132551484Y-92833376D01*
X132670460Y-92953185D01*
X132763902Y-93093828D01*
X132828245Y-93249937D01*
X132860871Y-93414706D01*
X132860871Y-93414735D01*
X132861037Y-93415575D01*
X132858344Y-93608434D01*
X132858153Y-93609273D01*
X132858153Y-93609295D01*
X132820940Y-93773093D01*
X132752262Y-93927344D01*
X132654931Y-94065320D01*
X132532653Y-94181765D01*
X132390086Y-94272240D01*
X132232662Y-94333301D01*
X132066377Y-94362621D01*
X131897558Y-94359085D01*
X131732644Y-94322826D01*
X131577921Y-94255229D01*
X131439263Y-94158859D01*
X131321971Y-94037401D01*
X131230502Y-93895467D01*
X131168343Y-93738473D01*
X131137863Y-93572399D01*
X131140221Y-93403562D01*
X131175327Y-93238397D01*
X131241845Y-93083199D01*
X131337239Y-92943879D01*
X131457881Y-92825739D01*
X131599169Y-92733282D01*
X131755725Y-92670030D01*
X131921588Y-92638390D01*
X132090435Y-92639568D01*
X132090435Y-92639568D01*
G37*
G36*
X69023665Y-91859851D02*
X69023679Y-91859853D01*
X69028740Y-91859888D01*
X69203488Y-91879489D01*
X69371102Y-91932659D01*
X69525195Y-92017373D01*
X69659900Y-92130403D01*
X69770085Y-92267446D01*
X69851553Y-92423279D01*
X69901201Y-92591969D01*
X69901209Y-92592054D01*
X69901216Y-92592079D01*
X69917143Y-92767090D01*
X69898774Y-92941849D01*
X69898768Y-92941869D01*
X69898757Y-92941971D01*
X69846759Y-93109952D01*
X69763123Y-93264633D01*
X69651035Y-93400123D01*
X69514766Y-93511262D01*
X69359504Y-93593816D01*
X69191165Y-93644641D01*
X69016160Y-93661800D01*
X69007279Y-93661800D01*
X68999935Y-93661749D01*
X68999921Y-93661747D01*
X68994860Y-93661712D01*
X68820112Y-93642111D01*
X68652498Y-93588941D01*
X68498405Y-93504227D01*
X68363700Y-93391197D01*
X68253515Y-93254154D01*
X68172047Y-93098321D01*
X68122399Y-92929631D01*
X68122391Y-92929546D01*
X68122384Y-92929521D01*
X68106457Y-92754510D01*
X68124826Y-92579751D01*
X68124832Y-92579731D01*
X68124843Y-92579629D01*
X68176841Y-92411648D01*
X68260477Y-92256967D01*
X68372565Y-92121477D01*
X68508834Y-92010338D01*
X68664096Y-91927784D01*
X68832435Y-91876959D01*
X69007440Y-91859800D01*
X69016321Y-91859800D01*
X69023665Y-91859851D01*
X69023665Y-91859851D01*
G37*
G36*
X127090435Y-90139568D02*
X127255839Y-90173521D01*
X127411496Y-90238953D01*
X127551484Y-90333376D01*
X127670460Y-90453185D01*
X127763902Y-90593828D01*
X127828245Y-90749937D01*
X127860871Y-90914706D01*
X127860871Y-90914735D01*
X127861037Y-90915575D01*
X127858344Y-91108434D01*
X127858153Y-91109273D01*
X127858153Y-91109295D01*
X127820940Y-91273093D01*
X127752262Y-91427344D01*
X127654931Y-91565320D01*
X127532653Y-91681765D01*
X127390086Y-91772240D01*
X127232662Y-91833301D01*
X127066377Y-91862621D01*
X126897558Y-91859085D01*
X126732644Y-91822826D01*
X126577921Y-91755229D01*
X126439263Y-91658859D01*
X126321971Y-91537401D01*
X126230502Y-91395467D01*
X126168343Y-91238473D01*
X126137863Y-91072399D01*
X126140221Y-90903562D01*
X126175327Y-90738397D01*
X126241845Y-90583199D01*
X126337239Y-90443879D01*
X126457881Y-90325739D01*
X126599169Y-90233282D01*
X126755725Y-90170030D01*
X126921588Y-90138390D01*
X127090435Y-90139568D01*
X127090435Y-90139568D01*
G37*
G36*
X177721049Y-89750426D02*
X177721069Y-89750432D01*
X177721171Y-89750443D01*
X177889152Y-89802441D01*
X178043833Y-89886077D01*
X178179323Y-89998165D01*
X178290462Y-90134434D01*
X178373016Y-90289696D01*
X178423841Y-90458035D01*
X178441000Y-90633040D01*
X178441000Y-90641921D01*
X178440949Y-90649265D01*
X178440947Y-90649279D01*
X178440912Y-90654340D01*
X178421311Y-90829088D01*
X178368141Y-90996702D01*
X178283427Y-91150795D01*
X178170397Y-91285500D01*
X178033354Y-91395685D01*
X177877521Y-91477153D01*
X177708831Y-91526801D01*
X177708746Y-91526809D01*
X177708721Y-91526816D01*
X177533710Y-91542743D01*
X177358951Y-91524374D01*
X177358931Y-91524368D01*
X177358829Y-91524357D01*
X177190848Y-91472359D01*
X177036167Y-91388723D01*
X176900677Y-91276635D01*
X176789538Y-91140366D01*
X176706984Y-90985104D01*
X176656159Y-90816765D01*
X176639000Y-90641760D01*
X176639000Y-90632879D01*
X176639051Y-90625535D01*
X176639053Y-90625521D01*
X176639088Y-90620460D01*
X176658689Y-90445712D01*
X176711859Y-90278098D01*
X176796573Y-90124005D01*
X176909603Y-89989300D01*
X177046646Y-89879115D01*
X177202479Y-89797647D01*
X177371169Y-89747999D01*
X177371254Y-89747991D01*
X177371279Y-89747984D01*
X177546290Y-89732057D01*
X177721049Y-89750426D01*
X177721049Y-89750426D01*
G37*
G36*
X180261049Y-89750426D02*
X180261069Y-89750432D01*
X180261171Y-89750443D01*
X180429152Y-89802441D01*
X180583833Y-89886077D01*
X180719323Y-89998165D01*
X180830462Y-90134434D01*
X180913016Y-90289696D01*
X180963841Y-90458035D01*
X180981000Y-90633040D01*
X180981000Y-90641921D01*
X180980949Y-90649265D01*
X180980947Y-90649279D01*
X180980912Y-90654340D01*
X180961311Y-90829088D01*
X180908141Y-90996702D01*
X180823427Y-91150795D01*
X180710397Y-91285500D01*
X180573354Y-91395685D01*
X180417521Y-91477153D01*
X180248831Y-91526801D01*
X180248746Y-91526809D01*
X180248721Y-91526816D01*
X180073710Y-91542743D01*
X179898951Y-91524374D01*
X179898931Y-91524368D01*
X179898829Y-91524357D01*
X179730848Y-91472359D01*
X179576167Y-91388723D01*
X179440677Y-91276635D01*
X179329538Y-91140366D01*
X179246984Y-90985104D01*
X179196159Y-90816765D01*
X179179000Y-90641760D01*
X179179000Y-90632879D01*
X179179051Y-90625535D01*
X179179053Y-90625521D01*
X179179088Y-90620460D01*
X179198689Y-90445712D01*
X179251859Y-90278098D01*
X179336573Y-90124005D01*
X179449603Y-89989300D01*
X179586646Y-89879115D01*
X179742479Y-89797647D01*
X179911169Y-89747999D01*
X179911254Y-89747991D01*
X179911279Y-89747984D01*
X180086290Y-89732057D01*
X180261049Y-89750426D01*
X180261049Y-89750426D01*
G37*
G36*
X175901000Y-91538400D02*
X174099000Y-91538400D01*
X174099000Y-89736400D01*
X175901000Y-89736400D01*
X175901000Y-91538400D01*
X175901000Y-91538400D01*
G37*
G36*
X69023665Y-89319851D02*
X69023679Y-89319853D01*
X69028740Y-89319888D01*
X69203488Y-89339489D01*
X69371102Y-89392659D01*
X69525195Y-89477373D01*
X69659900Y-89590403D01*
X69770085Y-89727446D01*
X69851553Y-89883279D01*
X69901201Y-90051969D01*
X69901209Y-90052054D01*
X69901216Y-90052079D01*
X69917143Y-90227090D01*
X69898774Y-90401849D01*
X69898768Y-90401869D01*
X69898757Y-90401971D01*
X69846759Y-90569952D01*
X69763123Y-90724633D01*
X69651035Y-90860123D01*
X69514766Y-90971262D01*
X69359504Y-91053816D01*
X69191165Y-91104641D01*
X69016160Y-91121800D01*
X69007279Y-91121800D01*
X68999935Y-91121749D01*
X68999921Y-91121747D01*
X68994860Y-91121712D01*
X68820112Y-91102111D01*
X68652498Y-91048941D01*
X68498405Y-90964227D01*
X68363700Y-90851197D01*
X68253515Y-90714154D01*
X68172047Y-90558321D01*
X68122399Y-90389631D01*
X68122391Y-90389546D01*
X68122384Y-90389521D01*
X68106457Y-90214510D01*
X68124826Y-90039751D01*
X68124832Y-90039731D01*
X68124843Y-90039629D01*
X68176841Y-89871648D01*
X68260477Y-89716967D01*
X68372565Y-89581477D01*
X68508834Y-89470338D01*
X68664096Y-89387784D01*
X68832435Y-89336959D01*
X69007440Y-89319800D01*
X69016321Y-89319800D01*
X69023665Y-89319851D01*
X69023665Y-89319851D01*
G37*
G36*
X83753384Y-86967561D02*
X83916867Y-87001120D01*
X84070716Y-87065792D01*
X84209078Y-87159119D01*
X84326671Y-87277536D01*
X84419029Y-87416545D01*
X84482626Y-87570844D01*
X84514870Y-87733687D01*
X84514870Y-87733710D01*
X84515037Y-87734555D01*
X84512375Y-87925175D01*
X84512184Y-87926014D01*
X84512184Y-87926035D01*
X84475405Y-88087921D01*
X84407525Y-88240381D01*
X84311325Y-88376754D01*
X84190467Y-88491844D01*
X84049556Y-88581270D01*
X83893958Y-88641623D01*
X83729606Y-88670602D01*
X83562748Y-88667107D01*
X83399751Y-88631270D01*
X83246820Y-88564456D01*
X83109777Y-88469207D01*
X82993849Y-88349161D01*
X82903439Y-88208872D01*
X82842003Y-88053704D01*
X82811877Y-87889558D01*
X82814207Y-87722677D01*
X82848904Y-87559440D01*
X82914652Y-87406038D01*
X83008935Y-87268340D01*
X83128176Y-87151571D01*
X83267825Y-87060188D01*
X83422564Y-86997669D01*
X83586499Y-86966397D01*
X83753384Y-86967561D01*
X83753384Y-86967561D01*
G37*
G36*
X103994926Y-86967046D02*
X103994941Y-86967048D01*
X104000000Y-86967083D01*
X104165051Y-86985596D01*
X104323363Y-87035816D01*
X104468905Y-87115828D01*
X104596134Y-87222586D01*
X104700204Y-87352024D01*
X104777151Y-87499210D01*
X104824044Y-87658539D01*
X104824052Y-87658623D01*
X104824059Y-87658648D01*
X104839101Y-87823941D01*
X104821753Y-87988994D01*
X104821748Y-87989009D01*
X104821737Y-87989117D01*
X104772624Y-88147776D01*
X104693629Y-88293873D01*
X104587762Y-88421845D01*
X104459054Y-88526816D01*
X104312409Y-88604789D01*
X104153411Y-88652793D01*
X103988118Y-88669000D01*
X103979719Y-88669000D01*
X103973074Y-88668954D01*
X103973059Y-88668952D01*
X103968000Y-88668917D01*
X103802949Y-88650404D01*
X103644637Y-88600184D01*
X103499095Y-88520172D01*
X103371866Y-88413414D01*
X103267796Y-88283976D01*
X103190849Y-88136790D01*
X103143956Y-87977461D01*
X103143948Y-87977377D01*
X103143941Y-87977352D01*
X103128899Y-87812059D01*
X103146247Y-87647006D01*
X103146252Y-87646991D01*
X103146263Y-87646883D01*
X103195376Y-87488224D01*
X103274371Y-87342127D01*
X103380238Y-87214155D01*
X103508946Y-87109184D01*
X103655591Y-87031211D01*
X103814589Y-86983207D01*
X103979882Y-86967000D01*
X103988281Y-86967000D01*
X103994926Y-86967046D01*
X103994926Y-86967046D01*
G37*
G36*
X121337643Y-83227728D02*
X121549152Y-83271145D01*
X121748198Y-83354816D01*
X121927205Y-83475558D01*
X122079345Y-83628764D01*
X122198834Y-83808609D01*
X122281113Y-84008231D01*
X122322881Y-84219178D01*
X122322881Y-84219201D01*
X122323047Y-84220041D01*
X122319603Y-84466660D01*
X122319413Y-84467495D01*
X122319413Y-84467519D01*
X122271772Y-84677216D01*
X122183951Y-84874464D01*
X122059488Y-85050900D01*
X121903125Y-85199803D01*
X121720819Y-85315498D01*
X121519517Y-85393578D01*
X121306879Y-85431071D01*
X121091003Y-85426550D01*
X120880122Y-85380184D01*
X120682268Y-85293745D01*
X120504961Y-85170512D01*
X120354976Y-85015198D01*
X120238011Y-84833704D01*
X120158524Y-84632944D01*
X120119548Y-84420578D01*
X120122562Y-84204675D01*
X120167453Y-83993482D01*
X120252514Y-83795019D01*
X120374499Y-83616863D01*
X120528768Y-83465793D01*
X120709440Y-83347564D01*
X120909637Y-83266680D01*
X121121731Y-83226221D01*
X121337643Y-83227728D01*
X121337643Y-83227728D01*
G37*
G36*
X69938200Y-84340000D02*
X68136200Y-84340000D01*
X68136200Y-82538000D01*
X69938200Y-82538000D01*
X69938200Y-84340000D01*
X69938200Y-84340000D01*
G37*
G36*
X83753384Y-81379561D02*
X83916867Y-81413120D01*
X84070716Y-81477792D01*
X84209078Y-81571119D01*
X84326671Y-81689536D01*
X84419029Y-81828545D01*
X84482626Y-81982844D01*
X84514870Y-82145687D01*
X84514870Y-82145710D01*
X84515037Y-82146555D01*
X84512375Y-82337175D01*
X84512184Y-82338014D01*
X84512184Y-82338035D01*
X84475405Y-82499921D01*
X84407525Y-82652381D01*
X84311325Y-82788754D01*
X84190467Y-82903844D01*
X84049556Y-82993270D01*
X83893958Y-83053623D01*
X83729606Y-83082602D01*
X83562748Y-83079107D01*
X83399751Y-83043270D01*
X83246820Y-82976456D01*
X83109777Y-82881207D01*
X82993849Y-82761161D01*
X82903439Y-82620872D01*
X82842003Y-82465704D01*
X82811877Y-82301558D01*
X82814207Y-82134677D01*
X82848904Y-81971440D01*
X82914652Y-81818038D01*
X83008935Y-81680340D01*
X83128176Y-81563571D01*
X83267825Y-81472188D01*
X83422564Y-81409669D01*
X83586499Y-81378397D01*
X83753384Y-81379561D01*
X83753384Y-81379561D01*
G37*
G36*
X103994926Y-81379046D02*
X103994941Y-81379048D01*
X104000000Y-81379083D01*
X104165051Y-81397596D01*
X104323363Y-81447816D01*
X104468905Y-81527828D01*
X104596134Y-81634586D01*
X104700204Y-81764024D01*
X104777151Y-81911210D01*
X104824044Y-82070539D01*
X104824052Y-82070623D01*
X104824059Y-82070648D01*
X104839101Y-82235941D01*
X104821753Y-82400994D01*
X104821748Y-82401009D01*
X104821737Y-82401117D01*
X104772624Y-82559776D01*
X104693629Y-82705873D01*
X104587762Y-82833845D01*
X104459054Y-82938816D01*
X104312409Y-83016789D01*
X104153411Y-83064793D01*
X103988118Y-83081000D01*
X103979719Y-83081000D01*
X103973074Y-83080954D01*
X103973059Y-83080952D01*
X103968000Y-83080917D01*
X103802949Y-83062404D01*
X103644637Y-83012184D01*
X103499095Y-82932172D01*
X103371866Y-82825414D01*
X103267796Y-82695976D01*
X103190849Y-82548790D01*
X103143956Y-82389461D01*
X103143948Y-82389377D01*
X103143941Y-82389352D01*
X103128899Y-82224059D01*
X103146247Y-82059006D01*
X103146252Y-82058991D01*
X103146263Y-82058883D01*
X103195376Y-81900224D01*
X103274371Y-81754127D01*
X103380238Y-81626155D01*
X103508946Y-81521184D01*
X103655591Y-81443211D01*
X103814589Y-81395207D01*
X103979882Y-81379000D01*
X103988281Y-81379000D01*
X103994926Y-81379046D01*
X103994926Y-81379046D01*
G37*
G36*
X69049065Y-79998051D02*
X69049079Y-79998053D01*
X69054140Y-79998088D01*
X69228888Y-80017689D01*
X69396502Y-80070859D01*
X69550595Y-80155573D01*
X69685300Y-80268603D01*
X69795485Y-80405646D01*
X69876953Y-80561479D01*
X69926601Y-80730169D01*
X69926609Y-80730254D01*
X69926616Y-80730279D01*
X69942543Y-80905290D01*
X69924174Y-81080049D01*
X69924168Y-81080069D01*
X69924157Y-81080171D01*
X69872159Y-81248152D01*
X69788523Y-81402833D01*
X69676435Y-81538323D01*
X69540166Y-81649462D01*
X69384904Y-81732016D01*
X69216565Y-81782841D01*
X69041560Y-81800000D01*
X69032679Y-81800000D01*
X69025335Y-81799949D01*
X69025321Y-81799947D01*
X69020260Y-81799912D01*
X68845512Y-81780311D01*
X68677898Y-81727141D01*
X68523805Y-81642427D01*
X68389100Y-81529397D01*
X68278915Y-81392354D01*
X68197447Y-81236521D01*
X68147799Y-81067831D01*
X68147791Y-81067746D01*
X68147784Y-81067721D01*
X68131857Y-80892710D01*
X68150226Y-80717951D01*
X68150232Y-80717931D01*
X68150243Y-80717829D01*
X68202241Y-80549848D01*
X68285877Y-80395167D01*
X68397965Y-80259677D01*
X68534234Y-80148538D01*
X68689496Y-80065984D01*
X68857835Y-80015159D01*
X69032840Y-79998000D01*
X69041721Y-79998000D01*
X69049065Y-79998051D01*
X69049065Y-79998051D01*
G37*
G36*
X69049065Y-77458051D02*
X69049079Y-77458053D01*
X69054140Y-77458088D01*
X69228888Y-77477689D01*
X69396502Y-77530859D01*
X69550595Y-77615573D01*
X69685300Y-77728603D01*
X69795485Y-77865646D01*
X69876953Y-78021479D01*
X69926601Y-78190169D01*
X69926609Y-78190254D01*
X69926616Y-78190279D01*
X69942543Y-78365290D01*
X69924174Y-78540049D01*
X69924168Y-78540069D01*
X69924157Y-78540171D01*
X69872159Y-78708152D01*
X69788523Y-78862833D01*
X69676435Y-78998323D01*
X69540166Y-79109462D01*
X69384904Y-79192016D01*
X69216565Y-79242841D01*
X69041560Y-79260000D01*
X69032679Y-79260000D01*
X69025335Y-79259949D01*
X69025321Y-79259947D01*
X69020260Y-79259912D01*
X68845512Y-79240311D01*
X68677898Y-79187141D01*
X68523805Y-79102427D01*
X68389100Y-78989397D01*
X68278915Y-78852354D01*
X68197447Y-78696521D01*
X68147799Y-78527831D01*
X68147791Y-78527746D01*
X68147784Y-78527721D01*
X68131857Y-78352710D01*
X68150226Y-78177951D01*
X68150232Y-78177931D01*
X68150243Y-78177829D01*
X68202241Y-78009848D01*
X68285877Y-77855167D01*
X68397965Y-77719677D01*
X68534234Y-77608538D01*
X68689496Y-77525984D01*
X68857835Y-77475159D01*
X69032840Y-77458000D01*
X69041721Y-77458000D01*
X69049065Y-77458051D01*
X69049065Y-77458051D01*
G37*
G36*
X83753384Y-75456261D02*
X83916867Y-75489820D01*
X84070716Y-75554492D01*
X84209078Y-75647819D01*
X84326671Y-75766236D01*
X84419029Y-75905245D01*
X84482626Y-76059544D01*
X84514870Y-76222387D01*
X84514870Y-76222410D01*
X84515037Y-76223255D01*
X84512375Y-76413875D01*
X84512184Y-76414714D01*
X84512184Y-76414735D01*
X84475405Y-76576621D01*
X84407525Y-76729081D01*
X84311325Y-76865454D01*
X84190467Y-76980544D01*
X84049556Y-77069970D01*
X83893958Y-77130323D01*
X83729606Y-77159302D01*
X83562748Y-77155807D01*
X83399751Y-77119970D01*
X83246820Y-77053156D01*
X83109777Y-76957907D01*
X82993849Y-76837861D01*
X82903439Y-76697572D01*
X82842003Y-76542404D01*
X82811877Y-76378258D01*
X82814207Y-76211377D01*
X82848904Y-76048140D01*
X82914652Y-75894738D01*
X83008935Y-75757040D01*
X83128176Y-75640271D01*
X83267825Y-75548888D01*
X83422564Y-75486369D01*
X83586499Y-75455097D01*
X83753384Y-75456261D01*
X83753384Y-75456261D01*
G37*
G36*
X103994926Y-75455746D02*
X103994941Y-75455748D01*
X104000000Y-75455783D01*
X104165051Y-75474296D01*
X104323363Y-75524516D01*
X104468905Y-75604528D01*
X104596134Y-75711286D01*
X104700204Y-75840724D01*
X104777151Y-75987910D01*
X104824044Y-76147239D01*
X104824052Y-76147323D01*
X104824059Y-76147348D01*
X104839101Y-76312641D01*
X104821753Y-76477694D01*
X104821748Y-76477709D01*
X104821737Y-76477817D01*
X104772624Y-76636476D01*
X104693629Y-76782573D01*
X104587762Y-76910545D01*
X104459054Y-77015516D01*
X104312409Y-77093489D01*
X104153411Y-77141493D01*
X103988118Y-77157700D01*
X103979719Y-77157700D01*
X103973074Y-77157654D01*
X103973059Y-77157652D01*
X103968000Y-77157617D01*
X103802949Y-77139104D01*
X103644637Y-77088884D01*
X103499095Y-77008872D01*
X103371866Y-76902114D01*
X103267796Y-76772676D01*
X103190849Y-76625490D01*
X103143956Y-76466161D01*
X103143948Y-76466077D01*
X103143941Y-76466052D01*
X103128899Y-76300759D01*
X103146247Y-76135706D01*
X103146252Y-76135691D01*
X103146263Y-76135583D01*
X103195376Y-75976924D01*
X103274371Y-75830827D01*
X103380238Y-75702855D01*
X103508946Y-75597884D01*
X103655591Y-75519911D01*
X103814589Y-75471907D01*
X103979882Y-75455700D01*
X103988281Y-75455700D01*
X103994926Y-75455746D01*
X103994926Y-75455746D01*
G37*
G36*
X69049065Y-74918051D02*
X69049079Y-74918053D01*
X69054140Y-74918088D01*
X69228888Y-74937689D01*
X69396502Y-74990859D01*
X69550595Y-75075573D01*
X69685300Y-75188603D01*
X69795485Y-75325646D01*
X69876953Y-75481479D01*
X69926601Y-75650169D01*
X69926609Y-75650254D01*
X69926616Y-75650279D01*
X69942543Y-75825290D01*
X69924174Y-76000049D01*
X69924168Y-76000069D01*
X69924157Y-76000171D01*
X69872159Y-76168152D01*
X69788523Y-76322833D01*
X69676435Y-76458323D01*
X69540166Y-76569462D01*
X69384904Y-76652016D01*
X69216565Y-76702841D01*
X69041560Y-76720000D01*
X69032679Y-76720000D01*
X69025335Y-76719949D01*
X69025321Y-76719947D01*
X69020260Y-76719912D01*
X68845512Y-76700311D01*
X68677898Y-76647141D01*
X68523805Y-76562427D01*
X68389100Y-76449397D01*
X68278915Y-76312354D01*
X68197447Y-76156521D01*
X68147799Y-75987831D01*
X68147791Y-75987746D01*
X68147784Y-75987721D01*
X68131857Y-75812710D01*
X68150226Y-75637951D01*
X68150232Y-75637931D01*
X68150243Y-75637829D01*
X68202241Y-75469848D01*
X68285877Y-75315167D01*
X68397965Y-75179677D01*
X68534234Y-75068538D01*
X68689496Y-74985984D01*
X68857835Y-74935159D01*
X69032840Y-74918000D01*
X69041721Y-74918000D01*
X69049065Y-74918051D01*
X69049065Y-74918051D01*
G37*
G36*
X79225994Y-73928647D02*
X79226009Y-73928652D01*
X79226117Y-73928663D01*
X79384776Y-73977776D01*
X79530873Y-74056771D01*
X79658845Y-74162638D01*
X79763816Y-74291346D01*
X79841789Y-74437991D01*
X79889793Y-74596989D01*
X79906000Y-74762282D01*
X79906000Y-74770681D01*
X79905954Y-74777326D01*
X79905952Y-74777341D01*
X79905917Y-74782400D01*
X79887404Y-74947451D01*
X79837184Y-75105763D01*
X79757172Y-75251305D01*
X79650414Y-75378534D01*
X79520976Y-75482604D01*
X79373790Y-75559551D01*
X79214461Y-75606444D01*
X79214377Y-75606452D01*
X79214352Y-75606459D01*
X79049059Y-75621501D01*
X78884006Y-75604153D01*
X78883991Y-75604148D01*
X78883883Y-75604137D01*
X78725224Y-75555024D01*
X78579127Y-75476029D01*
X78451155Y-75370162D01*
X78346184Y-75241454D01*
X78268211Y-75094809D01*
X78220207Y-74935811D01*
X78204000Y-74770518D01*
X78204000Y-74762119D01*
X78204046Y-74755474D01*
X78204048Y-74755459D01*
X78204083Y-74750400D01*
X78222596Y-74585349D01*
X78272816Y-74427037D01*
X78352828Y-74281495D01*
X78459586Y-74154266D01*
X78589024Y-74050196D01*
X78736210Y-73973249D01*
X78895539Y-73926356D01*
X78895623Y-73926348D01*
X78895648Y-73926341D01*
X79060941Y-73911299D01*
X79225994Y-73928647D01*
X79225994Y-73928647D01*
G37*
G36*
X109781994Y-73928647D02*
X109782009Y-73928652D01*
X109782117Y-73928663D01*
X109940776Y-73977776D01*
X110086873Y-74056771D01*
X110214845Y-74162638D01*
X110319816Y-74291346D01*
X110397789Y-74437991D01*
X110445793Y-74596989D01*
X110462000Y-74762282D01*
X110462000Y-74770681D01*
X110461954Y-74777326D01*
X110461952Y-74777341D01*
X110461917Y-74782400D01*
X110443404Y-74947451D01*
X110393184Y-75105763D01*
X110313172Y-75251305D01*
X110206414Y-75378534D01*
X110076976Y-75482604D01*
X109929790Y-75559551D01*
X109770461Y-75606444D01*
X109770377Y-75606452D01*
X109770352Y-75606459D01*
X109605059Y-75621501D01*
X109440006Y-75604153D01*
X109439991Y-75604148D01*
X109439883Y-75604137D01*
X109281224Y-75555024D01*
X109135127Y-75476029D01*
X109007155Y-75370162D01*
X108902184Y-75241454D01*
X108824211Y-75094809D01*
X108776207Y-74935811D01*
X108760000Y-74770518D01*
X108760000Y-74762119D01*
X108760046Y-74755474D01*
X108760048Y-74755459D01*
X108760083Y-74750400D01*
X108778596Y-74585349D01*
X108828816Y-74427037D01*
X108908828Y-74281495D01*
X109015586Y-74154266D01*
X109145024Y-74050196D01*
X109292210Y-73973249D01*
X109451539Y-73926356D01*
X109451623Y-73926348D01*
X109451648Y-73926341D01*
X109616941Y-73911299D01*
X109781994Y-73928647D01*
X109781994Y-73928647D01*
G37*
G36*
X74272994Y-73928647D02*
X74273009Y-73928652D01*
X74273117Y-73928663D01*
X74431776Y-73977776D01*
X74577873Y-74056771D01*
X74705845Y-74162638D01*
X74810816Y-74291346D01*
X74888789Y-74437991D01*
X74936793Y-74596989D01*
X74953000Y-74762282D01*
X74953000Y-74770681D01*
X74952954Y-74777326D01*
X74952952Y-74777341D01*
X74952917Y-74782400D01*
X74934404Y-74947451D01*
X74884184Y-75105763D01*
X74804172Y-75251305D01*
X74697414Y-75378534D01*
X74567976Y-75482604D01*
X74420790Y-75559551D01*
X74261461Y-75606444D01*
X74261377Y-75606452D01*
X74261352Y-75606459D01*
X74096059Y-75621501D01*
X73931006Y-75604153D01*
X73930991Y-75604148D01*
X73930883Y-75604137D01*
X73772224Y-75555024D01*
X73626127Y-75476029D01*
X73498155Y-75370162D01*
X73393184Y-75241454D01*
X73315211Y-75094809D01*
X73267207Y-74935811D01*
X73251000Y-74770518D01*
X73251000Y-74762119D01*
X73251046Y-74755474D01*
X73251048Y-74755459D01*
X73251083Y-74750400D01*
X73269596Y-74585349D01*
X73319816Y-74427037D01*
X73399828Y-74281495D01*
X73506586Y-74154266D01*
X73636024Y-74050196D01*
X73783210Y-73973249D01*
X73942539Y-73926356D01*
X73942623Y-73926348D01*
X73942648Y-73926341D01*
X74107941Y-73911299D01*
X74272994Y-73928647D01*
X74272994Y-73928647D01*
G37*
G36*
X115120994Y-73928647D02*
X115121009Y-73928652D01*
X115121117Y-73928663D01*
X115279776Y-73977776D01*
X115425873Y-74056771D01*
X115553845Y-74162638D01*
X115658816Y-74291346D01*
X115736789Y-74437991D01*
X115784793Y-74596989D01*
X115801000Y-74762282D01*
X115801000Y-74770681D01*
X115800954Y-74777326D01*
X115800952Y-74777341D01*
X115800917Y-74782400D01*
X115782404Y-74947451D01*
X115732184Y-75105763D01*
X115652172Y-75251305D01*
X115545414Y-75378534D01*
X115415976Y-75482604D01*
X115268790Y-75559551D01*
X115109461Y-75606444D01*
X115109377Y-75606452D01*
X115109352Y-75606459D01*
X114944059Y-75621501D01*
X114779006Y-75604153D01*
X114778991Y-75604148D01*
X114778883Y-75604137D01*
X114620224Y-75555024D01*
X114474127Y-75476029D01*
X114346155Y-75370162D01*
X114241184Y-75241454D01*
X114163211Y-75094809D01*
X114115207Y-74935811D01*
X114099000Y-74770518D01*
X114099000Y-74762119D01*
X114099046Y-74755474D01*
X114099048Y-74755459D01*
X114099083Y-74750400D01*
X114117596Y-74585349D01*
X114167816Y-74427037D01*
X114247828Y-74281495D01*
X114354586Y-74154266D01*
X114484024Y-74050196D01*
X114631210Y-73973249D01*
X114790539Y-73926356D01*
X114790623Y-73926348D01*
X114790648Y-73926341D01*
X114955941Y-73911299D01*
X115120994Y-73928647D01*
X115120994Y-73928647D01*
G37*
G36*
X70605743Y-67972528D02*
X70817252Y-68015945D01*
X71016298Y-68099616D01*
X71195305Y-68220358D01*
X71347445Y-68373564D01*
X71466934Y-68553409D01*
X71549213Y-68753031D01*
X71590981Y-68963978D01*
X71590981Y-68964001D01*
X71591147Y-68964841D01*
X71587703Y-69211460D01*
X71587513Y-69212295D01*
X71587513Y-69212319D01*
X71539872Y-69422016D01*
X71452051Y-69619264D01*
X71327588Y-69795700D01*
X71171225Y-69944603D01*
X70988919Y-70060298D01*
X70787617Y-70138378D01*
X70574979Y-70175871D01*
X70359103Y-70171350D01*
X70148222Y-70124984D01*
X69950368Y-70038545D01*
X69773061Y-69915312D01*
X69623076Y-69759998D01*
X69506111Y-69578504D01*
X69426624Y-69377744D01*
X69387648Y-69165378D01*
X69390662Y-68949475D01*
X69435553Y-68738282D01*
X69520614Y-68539819D01*
X69642599Y-68361663D01*
X69796868Y-68210593D01*
X69977540Y-68092364D01*
X70177737Y-68011480D01*
X70389831Y-67971021D01*
X70605743Y-67972528D01*
X70605743Y-67972528D01*
G37*
G36*
X99278378Y-66389428D02*
X99403438Y-66415099D01*
X99521135Y-66464575D01*
X99626973Y-66535962D01*
X99716935Y-66626556D01*
X99787586Y-66732893D01*
X99836237Y-66850930D01*
X99860863Y-66975297D01*
X99860863Y-66975330D01*
X99861028Y-66976166D01*
X99858992Y-67121987D01*
X99858801Y-67122826D01*
X99858801Y-67122847D01*
X99830712Y-67246486D01*
X99778785Y-67363115D01*
X99705194Y-67467438D01*
X99612737Y-67555482D01*
X99504943Y-67623891D01*
X99385918Y-67670058D01*
X99260188Y-67692227D01*
X99132543Y-67689554D01*
X99007854Y-67662139D01*
X98890865Y-67611027D01*
X98786025Y-67538162D01*
X98697344Y-67446329D01*
X98628184Y-67339014D01*
X98581186Y-67220312D01*
X98558139Y-67094737D01*
X98559921Y-66967079D01*
X98586465Y-66842204D01*
X98636758Y-66724858D01*
X98708887Y-66619517D01*
X98800103Y-66530192D01*
X98906933Y-66460285D01*
X99025305Y-66412460D01*
X99150713Y-66388537D01*
X99278378Y-66389428D01*
X99278378Y-66389428D01*
G37*
G36*
X96738378Y-66389428D02*
X96863438Y-66415099D01*
X96981135Y-66464575D01*
X97086973Y-66535962D01*
X97176935Y-66626556D01*
X97247586Y-66732893D01*
X97296237Y-66850930D01*
X97320863Y-66975297D01*
X97320863Y-66975330D01*
X97321028Y-66976166D01*
X97318992Y-67121987D01*
X97318801Y-67122826D01*
X97318801Y-67122847D01*
X97290712Y-67246486D01*
X97238785Y-67363115D01*
X97165194Y-67467438D01*
X97072737Y-67555482D01*
X96964943Y-67623891D01*
X96845918Y-67670058D01*
X96720188Y-67692227D01*
X96592543Y-67689554D01*
X96467854Y-67662139D01*
X96350865Y-67611027D01*
X96246025Y-67538162D01*
X96157344Y-67446329D01*
X96088184Y-67339014D01*
X96041186Y-67220312D01*
X96018139Y-67094737D01*
X96019921Y-66967079D01*
X96046465Y-66842204D01*
X96096758Y-66724858D01*
X96168887Y-66619517D01*
X96260103Y-66530192D01*
X96366933Y-66460285D01*
X96485305Y-66412460D01*
X96610713Y-66388537D01*
X96738378Y-66389428D01*
X96738378Y-66389428D01*
G37*
G36*
X94198378Y-66389428D02*
X94323438Y-66415099D01*
X94441135Y-66464575D01*
X94546973Y-66535962D01*
X94636935Y-66626556D01*
X94707586Y-66732893D01*
X94756237Y-66850930D01*
X94780863Y-66975297D01*
X94780863Y-66975330D01*
X94781028Y-66976166D01*
X94778992Y-67121987D01*
X94778801Y-67122826D01*
X94778801Y-67122847D01*
X94750712Y-67246486D01*
X94698785Y-67363115D01*
X94625194Y-67467438D01*
X94532737Y-67555482D01*
X94424943Y-67623891D01*
X94305918Y-67670058D01*
X94180188Y-67692227D01*
X94052543Y-67689554D01*
X93927854Y-67662139D01*
X93810865Y-67611027D01*
X93706025Y-67538162D01*
X93617344Y-67446329D01*
X93548184Y-67339014D01*
X93501186Y-67220312D01*
X93478139Y-67094737D01*
X93479921Y-66967079D01*
X93506465Y-66842204D01*
X93556758Y-66724858D01*
X93628887Y-66619517D01*
X93720103Y-66530192D01*
X93826933Y-66460285D01*
X93945305Y-66412460D01*
X94070713Y-66388537D01*
X94198378Y-66389428D01*
X94198378Y-66389428D01*
G37*
G36*
X89701000Y-67691000D02*
X88399000Y-67691000D01*
X88399000Y-66389000D01*
X89701000Y-66389000D01*
X89701000Y-67691000D01*
X89701000Y-67691000D01*
G37*
G36*
X111639888Y-64876228D02*
X111822579Y-64913729D01*
X111994510Y-64986003D01*
X112149130Y-65090294D01*
X112280541Y-65222627D01*
X112383751Y-65377971D01*
X112454822Y-65550401D01*
X112490875Y-65732481D01*
X112490875Y-65732514D01*
X112491040Y-65733350D01*
X112488066Y-65946369D01*
X112487875Y-65947208D01*
X112487875Y-65947228D01*
X112446751Y-66128240D01*
X112370895Y-66298614D01*
X112263388Y-66451015D01*
X112128332Y-66579627D01*
X111970861Y-66679562D01*
X111796984Y-66747004D01*
X111613315Y-66779389D01*
X111426850Y-66775484D01*
X111244698Y-66735435D01*
X111073801Y-66660772D01*
X110920650Y-66554329D01*
X110791099Y-66420175D01*
X110690069Y-66263407D01*
X110621411Y-66089999D01*
X110587745Y-65906566D01*
X110590349Y-65720076D01*
X110629125Y-65537654D01*
X110702595Y-65366233D01*
X110807962Y-65212348D01*
X110941212Y-65081860D01*
X111097272Y-64979738D01*
X111270192Y-64909874D01*
X111453392Y-64874927D01*
X111639888Y-64876228D01*
X111639888Y-64876228D01*
G37*
G36*
X109951000Y-66777600D02*
X108049000Y-66777600D01*
X108049000Y-64875600D01*
X109951000Y-64875600D01*
X109951000Y-66777600D01*
X109951000Y-66777600D01*
G37*
G36*
X99278378Y-61309428D02*
X99403438Y-61335099D01*
X99521135Y-61384575D01*
X99626973Y-61455962D01*
X99716935Y-61546556D01*
X99787586Y-61652893D01*
X99836237Y-61770930D01*
X99860863Y-61895297D01*
X99860863Y-61895330D01*
X99861028Y-61896166D01*
X99858992Y-62041987D01*
X99858801Y-62042826D01*
X99858801Y-62042847D01*
X99830712Y-62166486D01*
X99778785Y-62283115D01*
X99705194Y-62387438D01*
X99612737Y-62475482D01*
X99504943Y-62543891D01*
X99385918Y-62590058D01*
X99260188Y-62612227D01*
X99132543Y-62609554D01*
X99007854Y-62582139D01*
X98890865Y-62531027D01*
X98786025Y-62458162D01*
X98697344Y-62366329D01*
X98628184Y-62259014D01*
X98581186Y-62140312D01*
X98558139Y-62014737D01*
X98559921Y-61887079D01*
X98586465Y-61762204D01*
X98636758Y-61644858D01*
X98708887Y-61539517D01*
X98800103Y-61450192D01*
X98906933Y-61380285D01*
X99025305Y-61332460D01*
X99150713Y-61308537D01*
X99278378Y-61309428D01*
X99278378Y-61309428D01*
G37*
G36*
X96738378Y-61309428D02*
X96863438Y-61335099D01*
X96981135Y-61384575D01*
X97086973Y-61455962D01*
X97176935Y-61546556D01*
X97247586Y-61652893D01*
X97296237Y-61770930D01*
X97320863Y-61895297D01*
X97320863Y-61895330D01*
X97321028Y-61896166D01*
X97318992Y-62041987D01*
X97318801Y-62042826D01*
X97318801Y-62042847D01*
X97290712Y-62166486D01*
X97238785Y-62283115D01*
X97165194Y-62387438D01*
X97072737Y-62475482D01*
X96964943Y-62543891D01*
X96845918Y-62590058D01*
X96720188Y-62612227D01*
X96592543Y-62609554D01*
X96467854Y-62582139D01*
X96350865Y-62531027D01*
X96246025Y-62458162D01*
X96157344Y-62366329D01*
X96088184Y-62259014D01*
X96041186Y-62140312D01*
X96018139Y-62014737D01*
X96019921Y-61887079D01*
X96046465Y-61762204D01*
X96096758Y-61644858D01*
X96168887Y-61539517D01*
X96260103Y-61450192D01*
X96366933Y-61380285D01*
X96485305Y-61332460D01*
X96610713Y-61308537D01*
X96738378Y-61309428D01*
X96738378Y-61309428D01*
G37*
G36*
X94198378Y-61309428D02*
X94323438Y-61335099D01*
X94441135Y-61384575D01*
X94546973Y-61455962D01*
X94636935Y-61546556D01*
X94707586Y-61652893D01*
X94756237Y-61770930D01*
X94780863Y-61895297D01*
X94780863Y-61895330D01*
X94781028Y-61896166D01*
X94778992Y-62041987D01*
X94778801Y-62042826D01*
X94778801Y-62042847D01*
X94750712Y-62166486D01*
X94698785Y-62283115D01*
X94625194Y-62387438D01*
X94532737Y-62475482D01*
X94424943Y-62543891D01*
X94305918Y-62590058D01*
X94180188Y-62612227D01*
X94052543Y-62609554D01*
X93927854Y-62582139D01*
X93810865Y-62531027D01*
X93706025Y-62458162D01*
X93617344Y-62366329D01*
X93548184Y-62259014D01*
X93501186Y-62140312D01*
X93478139Y-62014737D01*
X93479921Y-61887079D01*
X93506465Y-61762204D01*
X93556758Y-61644858D01*
X93628887Y-61539517D01*
X93720103Y-61450192D01*
X93826933Y-61380285D01*
X93945305Y-61332460D01*
X94070713Y-61308537D01*
X94198378Y-61309428D01*
X94198378Y-61309428D01*
G37*
G36*
X89118378Y-61309428D02*
X89243438Y-61335099D01*
X89361135Y-61384575D01*
X89466973Y-61455962D01*
X89556935Y-61546556D01*
X89627586Y-61652893D01*
X89676237Y-61770930D01*
X89700863Y-61895297D01*
X89700863Y-61895330D01*
X89701028Y-61896166D01*
X89698992Y-62041987D01*
X89698801Y-62042826D01*
X89698801Y-62042847D01*
X89670712Y-62166486D01*
X89618785Y-62283115D01*
X89545194Y-62387438D01*
X89452737Y-62475482D01*
X89344943Y-62543891D01*
X89225918Y-62590058D01*
X89100188Y-62612227D01*
X88972543Y-62609554D01*
X88847854Y-62582139D01*
X88730865Y-62531027D01*
X88626025Y-62458162D01*
X88537344Y-62366329D01*
X88468184Y-62259014D01*
X88421186Y-62140312D01*
X88398139Y-62014737D01*
X88399921Y-61887079D01*
X88426465Y-61762204D01*
X88476758Y-61644858D01*
X88548887Y-61539517D01*
X88640103Y-61450192D01*
X88746933Y-61380285D01*
X88865305Y-61332460D01*
X88990713Y-61308537D01*
X89118378Y-61309428D01*
X89118378Y-61309428D01*
G37*
G36*
X110625183Y-57375834D02*
X110780980Y-57407815D01*
X110927600Y-57469449D01*
X111059459Y-57558388D01*
X111171525Y-57671239D01*
X111259541Y-57803714D01*
X111320149Y-57950760D01*
X111350869Y-58105909D01*
X111350869Y-58105937D01*
X111351035Y-58106777D01*
X111348498Y-58288437D01*
X111348308Y-58289272D01*
X111348308Y-58289297D01*
X111313266Y-58443534D01*
X111248577Y-58588828D01*
X111156899Y-58718791D01*
X111041719Y-58828474D01*
X110907436Y-58913693D01*
X110759149Y-58971210D01*
X110602522Y-58998827D01*
X110443507Y-58995497D01*
X110288175Y-58961344D01*
X110142428Y-58897670D01*
X110011828Y-58806900D01*
X109901346Y-58692493D01*
X109815188Y-58558801D01*
X109756640Y-58410927D01*
X109727929Y-58254490D01*
X109730149Y-58095458D01*
X109763216Y-57939892D01*
X109825872Y-57793704D01*
X109915727Y-57662474D01*
X110029361Y-57551195D01*
X110162447Y-57464107D01*
X110309913Y-57404526D01*
X110466140Y-57374725D01*
X110625183Y-57375834D01*
X110625183Y-57375834D01*
G37*
G36*
X113165183Y-57375834D02*
X113320980Y-57407815D01*
X113467600Y-57469449D01*
X113599459Y-57558388D01*
X113711525Y-57671239D01*
X113799541Y-57803714D01*
X113860149Y-57950760D01*
X113890869Y-58105909D01*
X113890869Y-58105937D01*
X113891035Y-58106777D01*
X113888498Y-58288437D01*
X113888308Y-58289272D01*
X113888308Y-58289297D01*
X113853266Y-58443534D01*
X113788577Y-58588828D01*
X113696899Y-58718791D01*
X113581719Y-58828474D01*
X113447436Y-58913693D01*
X113299149Y-58971210D01*
X113142522Y-58998827D01*
X112983507Y-58995497D01*
X112828175Y-58961344D01*
X112682428Y-58897670D01*
X112551828Y-58806900D01*
X112441346Y-58692493D01*
X112355188Y-58558801D01*
X112296640Y-58410927D01*
X112267929Y-58254490D01*
X112270149Y-58095458D01*
X112303216Y-57939892D01*
X112365872Y-57793704D01*
X112455727Y-57662474D01*
X112569361Y-57551195D01*
X112702447Y-57464107D01*
X112849913Y-57404526D01*
X113006140Y-57374725D01*
X113165183Y-57375834D01*
X113165183Y-57375834D01*
G37*
G36*
X108811000Y-58997300D02*
X107189000Y-58997300D01*
X107189000Y-57375300D01*
X108811000Y-57375300D01*
X108811000Y-58997300D01*
X108811000Y-58997300D01*
G37*
G36*
X90751000Y-58251000D02*
X88249000Y-58251000D01*
X88249000Y-55749000D01*
X90751000Y-55749000D01*
X90751000Y-58251000D01*
X90751000Y-58251000D01*
G37*
G36*
X104758447Y-55749085D02*
X104758462Y-55749087D01*
X104763520Y-55749122D01*
X105006151Y-55776337D01*
X105238874Y-55850162D01*
X105452827Y-55967783D01*
X105639858Y-56124721D01*
X105792845Y-56314998D01*
X105905960Y-56531367D01*
X105974894Y-56765586D01*
X105974901Y-56765665D01*
X105974910Y-56765695D01*
X105997028Y-57008733D01*
X105971520Y-57251425D01*
X105971512Y-57251450D01*
X105971502Y-57251548D01*
X105899304Y-57484782D01*
X105783179Y-57699550D01*
X105627550Y-57887673D01*
X105438346Y-58041984D01*
X105222772Y-58156607D01*
X104989040Y-58227175D01*
X104746053Y-58251000D01*
X104733784Y-58251000D01*
X104721553Y-58250915D01*
X104721538Y-58250913D01*
X104716480Y-58250878D01*
X104473849Y-58223663D01*
X104241126Y-58149838D01*
X104027173Y-58032217D01*
X103840142Y-57875279D01*
X103687155Y-57685002D01*
X103574040Y-57468633D01*
X103505106Y-57234414D01*
X103505099Y-57234335D01*
X103505090Y-57234305D01*
X103482972Y-56991267D01*
X103508480Y-56748575D01*
X103508488Y-56748550D01*
X103508498Y-56748452D01*
X103580696Y-56515218D01*
X103696821Y-56300450D01*
X103852450Y-56112327D01*
X104041654Y-55958016D01*
X104257228Y-55843393D01*
X104490960Y-55772825D01*
X104733947Y-55749000D01*
X104746216Y-55749000D01*
X104758447Y-55749085D01*
X104758447Y-55749085D01*
G37*
M02*
