G04 #@! TF.FileFunction,Copper,L2,Bot,Signal*
%FSLAX46Y46*%
G04 Gerber Fmt 4.6, Leading zero omitted, Abs format (unit mm)*
G04 Created by KiCad (PCBNEW 4.0.6) date 03/10/20 06:56:11*
%MOMM*%
%LPD*%
G01*
G04 APERTURE LIST*
%ADD10C,0.100000*%
%ADD11R,1.200000X1.200000*%
%ADD12C,1.200000*%
%ADD13R,2.400000X2.400000*%
%ADD14O,2.400000X2.400000*%
%ADD15R,1.800000X1.800000*%
%ADD16C,1.800000*%
%ADD17C,1.210000*%
%ADD18R,1.700000X1.700000*%
%ADD19O,1.700000X1.700000*%
%ADD20C,1.520000*%
%ADD21R,1.520000X1.520000*%
%ADD22C,1.620000*%
%ADD23C,1.600000*%
%ADD24O,1.600000X1.600000*%
%ADD25R,1.524000X1.524000*%
%ADD26C,1.524000*%
%ADD27O,1.800000X1.800000*%
%ADD28R,1.250000X1.250000*%
%ADD29C,1.250000*%
%ADD30C,0.800000*%
%ADD31C,0.250000*%
G04 APERTURE END LIST*
D10*
D11*
X78668900Y-109286000D03*
D12*
X80168900Y-109286000D03*
D13*
X89500000Y-57000000D03*
D14*
X104740000Y-57000000D03*
D13*
X89500000Y-145440000D03*
D14*
X104740000Y-145440000D03*
D15*
X110810000Y-139309000D03*
D16*
X113350000Y-139309000D03*
D15*
X109000000Y-65826600D03*
D16*
X111540000Y-65826600D03*
D17*
X80690500Y-116662000D03*
X78150500Y-116662000D03*
D18*
X175000000Y-115000000D03*
D19*
X177540000Y-115000000D03*
X180080000Y-115000000D03*
D18*
X175000000Y-90637400D03*
D19*
X177540000Y-90637400D03*
X180080000Y-90637400D03*
D18*
X81391800Y-121402000D03*
D19*
X78851800Y-121402000D03*
X76311800Y-121402000D03*
D18*
X69011800Y-95300800D03*
D19*
X69011800Y-92760800D03*
X69011800Y-90220800D03*
D18*
X71668600Y-108941000D03*
D19*
X69128600Y-108941000D03*
D18*
X135179000Y-105461000D03*
D19*
X135179000Y-102921000D03*
X135179000Y-100381000D03*
D18*
X69027000Y-124333000D03*
D19*
X71567000Y-124333000D03*
D18*
X69037200Y-83439000D03*
D19*
X69037200Y-80899000D03*
X69037200Y-78359000D03*
X69037200Y-75819000D03*
D11*
X89050000Y-67040000D03*
D12*
X89050000Y-61960000D03*
X94130000Y-67040000D03*
X99210000Y-61960000D03*
X96670000Y-67040000D03*
X99210000Y-67040000D03*
X94130000Y-61960000D03*
X96670000Y-61960000D03*
D11*
X89050000Y-139540000D03*
D12*
X89050000Y-134460000D03*
X94130000Y-139540000D03*
X99210000Y-134460000D03*
X96670000Y-139540000D03*
X99210000Y-139540000D03*
X94130000Y-134460000D03*
X96670000Y-134460000D03*
D20*
X110540000Y-58186300D03*
X113080000Y-58186300D03*
D21*
X108000000Y-58186300D03*
D20*
X111460000Y-146568000D03*
X108920000Y-146568000D03*
D21*
X114000000Y-146568000D03*
D22*
X127000000Y-110000000D03*
X132000000Y-112500000D03*
X127000000Y-115000000D03*
X127000000Y-91000000D03*
X132000000Y-93500000D03*
X127000000Y-96000000D03*
D23*
X74102000Y-95086400D03*
D24*
X74102000Y-74766400D03*
D23*
X109611000Y-95086400D03*
D24*
X109611000Y-74766400D03*
D23*
X83664000Y-93700600D03*
D24*
X103984000Y-93700600D03*
D23*
X79055000Y-95086400D03*
D24*
X79055000Y-74766400D03*
D23*
X114950000Y-95086400D03*
D24*
X114950000Y-74766400D03*
D23*
X83664000Y-76306700D03*
D24*
X103984000Y-76306700D03*
D23*
X83664000Y-82230000D03*
D24*
X103984000Y-82230000D03*
D23*
X83664000Y-87818000D03*
D24*
X103984000Y-87818000D03*
D15*
X142720000Y-110620000D03*
D16*
X145260000Y-110620000D03*
X147800000Y-110620000D03*
X150340000Y-110620000D03*
X152880000Y-110620000D03*
X155420000Y-110620000D03*
X157960000Y-110620000D03*
X160500000Y-110620000D03*
X163040000Y-110620000D03*
X165580000Y-110620000D03*
X168120000Y-110620000D03*
X170660000Y-110620000D03*
X173200000Y-110620000D03*
X175740000Y-110620000D03*
X178280000Y-110620000D03*
X178280000Y-95380000D03*
X175740000Y-95380000D03*
X173200000Y-95380000D03*
X170660000Y-95380000D03*
X168120000Y-95380000D03*
X165580000Y-95380000D03*
X163040000Y-95380000D03*
X160500000Y-95380000D03*
X157960000Y-95380000D03*
X155420000Y-95380000D03*
X152880000Y-95380000D03*
X150340000Y-95380000D03*
X147800000Y-95380000D03*
X145260000Y-95380000D03*
X142720000Y-95380000D03*
D25*
X89992200Y-129654100D03*
D26*
X92532200Y-129654100D03*
X95072200Y-129654100D03*
X97612200Y-129654100D03*
X100152200Y-129654100D03*
X102692200Y-129654100D03*
X105232200Y-129654100D03*
X105232200Y-122465900D03*
X102692200Y-122465900D03*
X100152200Y-122465900D03*
X97612200Y-122465900D03*
X95072200Y-122465900D03*
X92532200Y-122465900D03*
X89992200Y-122465900D03*
X92532200Y-122465900D03*
D15*
X74188300Y-100970000D03*
D27*
X76728300Y-100970000D03*
X79268300Y-100970000D03*
D28*
X87223600Y-108642000D03*
D29*
X89763600Y-108642000D03*
X92303600Y-108642000D03*
X94843600Y-108642000D03*
X97383600Y-108642000D03*
X99923600Y-108642000D03*
X102463600Y-108642000D03*
X105003600Y-108642000D03*
X105003600Y-99842000D03*
X102463600Y-99842000D03*
X99923600Y-99842000D03*
X97383600Y-99842000D03*
X94843600Y-99842000D03*
X92303600Y-99842000D03*
X89763600Y-99842000D03*
X87223600Y-99842000D03*
D30*
X86436900Y-112344100D03*
X146748500Y-116586000D03*
X117614700Y-122796300D03*
D31*
X78668900Y-114640400D02*
X80690500Y-116662000D01*
X78668900Y-109286000D02*
X78668900Y-114640400D01*
X95072200Y-122465900D02*
X95072200Y-129654100D01*
X71567000Y-112554700D02*
X69128600Y-110116300D01*
X71567000Y-124333000D02*
X71567000Y-112554700D01*
X69128600Y-108941000D02*
X69128600Y-110116300D01*
X145260000Y-95380000D02*
X145260000Y-109390800D01*
X145815700Y-109390800D02*
X145260000Y-109390800D01*
X146530000Y-110105100D02*
X145815700Y-109390800D01*
X146530000Y-111139700D02*
X146530000Y-110105100D01*
X147269300Y-111879000D02*
X146530000Y-111139700D01*
X149081000Y-111879000D02*
X147269300Y-111879000D01*
X150340000Y-110620000D02*
X149081000Y-111879000D01*
X132609200Y-109390800D02*
X127000000Y-115000000D01*
X145260000Y-109390800D02*
X132609200Y-109390800D01*
X74188300Y-100970000D02*
X74188300Y-99744700D01*
X74102000Y-74766400D02*
X72976700Y-74766400D01*
X103984000Y-87818000D02*
X103984000Y-88943300D01*
X101225000Y-91702300D02*
X103984000Y-88943300D01*
X101225000Y-99894200D02*
X101225000Y-91702300D01*
X100290900Y-100828300D02*
X101225000Y-99894200D01*
X97383600Y-100828300D02*
X100290900Y-100828300D01*
X97383600Y-108642000D02*
X97383600Y-100828300D01*
X97383600Y-100828300D02*
X97383600Y-99842000D01*
X72813700Y-74603400D02*
X72976700Y-74766400D01*
X68579600Y-74603400D02*
X72813700Y-74603400D01*
X67860300Y-75322700D02*
X68579600Y-74603400D01*
X67860300Y-85630100D02*
X67860300Y-75322700D01*
X72963000Y-90732800D02*
X67860300Y-85630100D01*
X72963000Y-98519400D02*
X72963000Y-90732800D01*
X74188300Y-99744700D02*
X72963000Y-98519400D01*
X83664000Y-87818000D02*
X83664000Y-82230000D01*
X83664000Y-76306700D02*
X83664000Y-82230000D01*
X89500000Y-57000000D02*
X89500000Y-58525300D01*
X89050000Y-70920700D02*
X83664000Y-76306700D01*
X89050000Y-67040000D02*
X89050000Y-70920700D01*
X89975400Y-59000700D02*
X89500000Y-58525300D01*
X89975400Y-65189300D02*
X89975400Y-59000700D01*
X89050000Y-66114700D02*
X89975400Y-65189300D01*
X89050000Y-67040000D02*
X89050000Y-66114700D01*
X114950000Y-100381000D02*
X134003700Y-100381000D01*
X114950000Y-100381000D02*
X114950000Y-95086400D01*
X135179000Y-100381000D02*
X134591400Y-100381000D01*
X134591400Y-100381000D02*
X134003700Y-100381000D01*
X144335000Y-90637400D02*
X175000000Y-90637400D01*
X134591400Y-100381000D02*
X144335000Y-90637400D01*
X103962200Y-123304100D02*
X97612200Y-129654100D01*
X103962200Y-121269500D02*
X103962200Y-123304100D01*
X114950000Y-110281700D02*
X103962200Y-121269500D01*
X114950000Y-100381000D02*
X114950000Y-110281700D01*
X89050000Y-138216300D02*
X89050000Y-139540000D01*
X97612200Y-129654100D02*
X89050000Y-138216300D01*
X89050000Y-143464700D02*
X89500000Y-143914700D01*
X89050000Y-139540000D02*
X89050000Y-143464700D01*
X89500000Y-145440000D02*
X89500000Y-143914700D01*
X86154300Y-96190900D02*
X83664000Y-93700600D01*
X86154300Y-100158200D02*
X86154300Y-96190900D01*
X90714600Y-104718500D02*
X86154300Y-100158200D01*
X90714600Y-109131800D02*
X90714600Y-104718500D01*
X79619800Y-120226600D02*
X90714600Y-109131800D01*
X78263200Y-120226600D02*
X79619800Y-120226600D01*
X77665500Y-120824300D02*
X78263200Y-120226600D01*
X77665500Y-121917000D02*
X77665500Y-120824300D01*
X85402600Y-129654100D02*
X77665500Y-121917000D01*
X89992200Y-129654100D02*
X85402600Y-129654100D01*
X75413700Y-96398100D02*
X74102000Y-95086400D01*
X75413700Y-116823600D02*
X75413700Y-96398100D01*
X75092100Y-117145200D02*
X75413700Y-116823600D01*
X75092100Y-133907200D02*
X75092100Y-117145200D01*
X88150300Y-146965400D02*
X75092100Y-133907200D01*
X93093400Y-146965400D02*
X88150300Y-146965400D01*
X98579000Y-141479800D02*
X93093400Y-146965400D01*
X111179200Y-141479800D02*
X98579000Y-141479800D01*
X113350000Y-139309000D02*
X111179200Y-141479800D01*
X81613400Y-97644800D02*
X79055000Y-95086400D01*
X81613400Y-107520600D02*
X81613400Y-97644800D01*
X86436900Y-112344100D02*
X81613400Y-107520600D01*
X111540000Y-93157400D02*
X109611000Y-95086400D01*
X111540000Y-65826600D02*
X111540000Y-93157400D01*
X77734300Y-116245800D02*
X78150500Y-116662000D01*
X77734300Y-103729300D02*
X77734300Y-116245800D01*
X79268300Y-102195300D02*
X77734300Y-103729300D01*
X79268300Y-100970000D02*
X79268300Y-102195300D01*
X177540000Y-115000000D02*
X176364700Y-115000000D01*
X176364700Y-114192000D02*
X176364700Y-115000000D01*
X174672700Y-112500000D02*
X176364700Y-114192000D01*
X132000000Y-112500000D02*
X174672700Y-112500000D01*
X114950000Y-74766400D02*
X114950000Y-75891700D01*
X178904700Y-114632700D02*
X178904700Y-115000000D01*
X176117400Y-111845400D02*
X178904700Y-114632700D01*
X156645400Y-111845400D02*
X176117400Y-111845400D01*
X155420000Y-110620000D02*
X156645400Y-111845400D01*
X180080000Y-115000000D02*
X178904700Y-115000000D01*
X113824700Y-77017000D02*
X114950000Y-75891700D01*
X113824700Y-110304500D02*
X113824700Y-77017000D01*
X103039100Y-121090100D02*
X113824700Y-110304500D01*
X93908000Y-121090100D02*
X103039100Y-121090100D01*
X92532200Y-122465900D02*
X93908000Y-121090100D01*
X123825000Y-116586000D02*
X146748500Y-116586000D01*
X117614700Y-122796300D02*
X123825000Y-116586000D01*
X105109300Y-84480600D02*
X103984000Y-83355300D01*
X105109300Y-89774000D02*
X105109300Y-84480600D01*
X102844900Y-92038400D02*
X105109300Y-89774000D01*
X102844900Y-94195500D02*
X102844900Y-92038400D01*
X103858400Y-95209000D02*
X102844900Y-94195500D01*
X103858400Y-119633800D02*
X103858400Y-95209000D01*
X103663600Y-119828600D02*
X103858400Y-119633800D01*
X93601700Y-119828600D02*
X103663600Y-119828600D01*
X91441000Y-121989300D02*
X93601700Y-119828600D01*
X91441000Y-128562900D02*
X91441000Y-121989300D01*
X92532200Y-129654100D02*
X91441000Y-128562900D01*
X103984000Y-82230000D02*
X103984000Y-83355300D01*
X178904700Y-91004800D02*
X178904700Y-90637400D01*
X178096800Y-91812700D02*
X178904700Y-91004800D01*
X172463000Y-91812700D02*
X178096800Y-91812700D01*
X169390100Y-94885600D02*
X172463000Y-91812700D01*
X169390100Y-95933300D02*
X169390100Y-94885600D01*
X168233000Y-97090400D02*
X169390100Y-95933300D01*
X166409600Y-97090400D02*
X168233000Y-97090400D01*
X152880000Y-110620000D02*
X166409600Y-97090400D01*
X180080000Y-90637400D02*
X178904700Y-90637400D01*
X81391800Y-119553800D02*
X81391800Y-121402000D01*
X92303600Y-108642000D02*
X81391800Y-119553800D01*
X80027100Y-122210100D02*
X80027100Y-121402000D01*
X80394300Y-122577300D02*
X80027100Y-122210100D01*
X82384100Y-122577300D02*
X80394300Y-122577300D01*
X83132700Y-121828700D02*
X82384100Y-122577300D01*
X83132700Y-119368100D02*
X83132700Y-121828700D01*
X92434200Y-110066600D02*
X83132700Y-119368100D01*
X98499000Y-110066600D02*
X92434200Y-110066600D01*
X99923600Y-108642000D02*
X98499000Y-110066600D01*
X78851800Y-121402000D02*
X80027100Y-121402000D01*
X99923600Y-70293600D02*
X96670000Y-67040000D01*
X99923600Y-99842000D02*
X99923600Y-70293600D01*
X98265200Y-66095200D02*
X99210000Y-67040000D01*
X96274800Y-66095200D02*
X98265200Y-66095200D01*
X95400000Y-66970000D02*
X96274800Y-66095200D01*
X95400000Y-96745600D02*
X95400000Y-66970000D01*
X92303600Y-99842000D02*
X95400000Y-96745600D01*
X135179000Y-105461000D02*
X135179000Y-104545600D01*
X142720000Y-97079200D02*
X142720000Y-95380000D01*
X135253600Y-104545600D02*
X142720000Y-97079200D01*
X135179000Y-104545600D02*
X135253600Y-104545600D01*
X69037200Y-83439000D02*
X69037200Y-84614300D01*
X85319600Y-104198000D02*
X89763600Y-108642000D01*
X85319600Y-99721400D02*
X85319600Y-104198000D01*
X70212500Y-84614300D02*
X85319600Y-99721400D01*
X69037200Y-84614300D02*
X70212500Y-84614300D01*
X72490600Y-80899000D02*
X69037200Y-80899000D01*
X88493700Y-96902100D02*
X72490600Y-80899000D01*
X88493700Y-100888500D02*
X88493700Y-96902100D01*
X96113700Y-108508500D02*
X88493700Y-100888500D01*
X96113700Y-108750200D02*
X96113700Y-108508500D01*
X96979700Y-109616200D02*
X96113700Y-108750200D01*
X97782100Y-109616200D02*
X96979700Y-109616200D01*
X98336300Y-109062000D02*
X97782100Y-109616200D01*
X98336300Y-108885000D02*
X98336300Y-109062000D01*
X99556200Y-107665100D02*
X98336300Y-108885000D01*
X101486700Y-107665100D02*
X99556200Y-107665100D01*
X102463600Y-108642000D02*
X101486700Y-107665100D01*
X69334800Y-76994300D02*
X69037200Y-76994300D01*
X89763600Y-97423100D02*
X69334800Y-76994300D01*
X89763600Y-99842000D02*
X89763600Y-97423100D01*
X69037200Y-75819000D02*
X69037200Y-76994300D01*
X103984000Y-93700600D02*
X103984000Y-92575300D01*
X106068800Y-62657500D02*
X110540000Y-58186300D01*
X106068800Y-90490500D02*
X106068800Y-62657500D01*
X103984000Y-92575300D02*
X106068800Y-90490500D01*
X110344500Y-145452500D02*
X111460000Y-146568000D01*
X107703200Y-145452500D02*
X110344500Y-145452500D01*
X105727600Y-147428100D02*
X107703200Y-145452500D01*
X87956800Y-147428100D02*
X105727600Y-147428100D01*
X67409900Y-126881200D02*
X87956800Y-147428100D01*
X67409900Y-75104900D02*
X67409900Y-126881200D01*
X68874200Y-73640600D02*
X67409900Y-75104900D01*
X76803900Y-73640600D02*
X68874200Y-73640600D01*
X77929700Y-74766400D02*
X76803900Y-73640600D01*
X79055000Y-74766400D02*
X77929700Y-74766400D01*
X147800000Y-95380000D02*
X147800000Y-110620000D01*
M02*
