G04 #@! TF.FileFunction,Copper,L1,Top,Signal*
%FSLAX46Y46*%
G04 Gerber Fmt 4.6, Leading zero omitted, Abs format (unit mm)*
G04 Created by KiCad (PCBNEW 4.0.6) date 03/10/20 06:56:11*
%MOMM*%
%LPD*%
G01*
G04 APERTURE LIST*
%ADD10C,0.100000*%
%ADD11R,1.200000X1.200000*%
%ADD12C,1.200000*%
%ADD13R,2.400000X2.400000*%
%ADD14O,2.400000X2.400000*%
%ADD15R,1.800000X1.800000*%
%ADD16C,1.800000*%
%ADD17C,1.210000*%
%ADD18R,1.700000X1.700000*%
%ADD19O,1.700000X1.700000*%
%ADD20C,1.520000*%
%ADD21R,1.520000X1.520000*%
%ADD22C,1.620000*%
%ADD23C,1.600000*%
%ADD24O,1.600000X1.600000*%
%ADD25R,1.524000X1.524000*%
%ADD26C,1.524000*%
%ADD27O,1.800000X1.800000*%
%ADD28R,1.250000X1.250000*%
%ADD29C,1.250000*%
%ADD30C,0.800000*%
%ADD31C,0.250000*%
G04 APERTURE END LIST*
D10*
D11*
X78668900Y-109286000D03*
D12*
X80168900Y-109286000D03*
D13*
X89500000Y-57000000D03*
D14*
X104740000Y-57000000D03*
D13*
X89500000Y-145440000D03*
D14*
X104740000Y-145440000D03*
D15*
X110810000Y-139309000D03*
D16*
X113350000Y-139309000D03*
D15*
X109000000Y-65826600D03*
D16*
X111540000Y-65826600D03*
D17*
X80690500Y-116662000D03*
X78150500Y-116662000D03*
D18*
X175000000Y-115000000D03*
D19*
X177540000Y-115000000D03*
X180080000Y-115000000D03*
D18*
X175000000Y-90637400D03*
D19*
X177540000Y-90637400D03*
X180080000Y-90637400D03*
D18*
X81391800Y-121402000D03*
D19*
X78851800Y-121402000D03*
X76311800Y-121402000D03*
D18*
X69011800Y-95300800D03*
D19*
X69011800Y-92760800D03*
X69011800Y-90220800D03*
D18*
X71668600Y-108941000D03*
D19*
X69128600Y-108941000D03*
D18*
X135179000Y-105461000D03*
D19*
X135179000Y-102921000D03*
X135179000Y-100381000D03*
D18*
X69027000Y-124333000D03*
D19*
X71567000Y-124333000D03*
D18*
X69037200Y-83439000D03*
D19*
X69037200Y-80899000D03*
X69037200Y-78359000D03*
X69037200Y-75819000D03*
D11*
X89050000Y-67040000D03*
D12*
X89050000Y-61960000D03*
X94130000Y-67040000D03*
X99210000Y-61960000D03*
X96670000Y-67040000D03*
X99210000Y-67040000D03*
X94130000Y-61960000D03*
X96670000Y-61960000D03*
D11*
X89050000Y-139540000D03*
D12*
X89050000Y-134460000D03*
X94130000Y-139540000D03*
X99210000Y-134460000D03*
X96670000Y-139540000D03*
X99210000Y-139540000D03*
X94130000Y-134460000D03*
X96670000Y-134460000D03*
D20*
X110540000Y-58186300D03*
X113080000Y-58186300D03*
D21*
X108000000Y-58186300D03*
D20*
X111460000Y-146568000D03*
X108920000Y-146568000D03*
D21*
X114000000Y-146568000D03*
D22*
X127000000Y-110000000D03*
X132000000Y-112500000D03*
X127000000Y-115000000D03*
X127000000Y-91000000D03*
X132000000Y-93500000D03*
X127000000Y-96000000D03*
D23*
X74102000Y-95086400D03*
D24*
X74102000Y-74766400D03*
D23*
X109611000Y-95086400D03*
D24*
X109611000Y-74766400D03*
D23*
X83664000Y-93700600D03*
D24*
X103984000Y-93700600D03*
D23*
X79055000Y-95086400D03*
D24*
X79055000Y-74766400D03*
D23*
X114950000Y-95086400D03*
D24*
X114950000Y-74766400D03*
D23*
X83664000Y-76306700D03*
D24*
X103984000Y-76306700D03*
D23*
X83664000Y-82230000D03*
D24*
X103984000Y-82230000D03*
D23*
X83664000Y-87818000D03*
D24*
X103984000Y-87818000D03*
D15*
X142720000Y-110620000D03*
D16*
X145260000Y-110620000D03*
X147800000Y-110620000D03*
X150340000Y-110620000D03*
X152880000Y-110620000D03*
X155420000Y-110620000D03*
X157960000Y-110620000D03*
X160500000Y-110620000D03*
X163040000Y-110620000D03*
X165580000Y-110620000D03*
X168120000Y-110620000D03*
X170660000Y-110620000D03*
X173200000Y-110620000D03*
X175740000Y-110620000D03*
X178280000Y-110620000D03*
X178280000Y-95380000D03*
X175740000Y-95380000D03*
X173200000Y-95380000D03*
X170660000Y-95380000D03*
X168120000Y-95380000D03*
X165580000Y-95380000D03*
X163040000Y-95380000D03*
X160500000Y-95380000D03*
X157960000Y-95380000D03*
X155420000Y-95380000D03*
X152880000Y-95380000D03*
X150340000Y-95380000D03*
X147800000Y-95380000D03*
X145260000Y-95380000D03*
X142720000Y-95380000D03*
D25*
X89992200Y-129654100D03*
D26*
X92532200Y-129654100D03*
X95072200Y-129654100D03*
X97612200Y-129654100D03*
X100152200Y-129654100D03*
X102692200Y-129654100D03*
X105232200Y-129654100D03*
X105232200Y-122465900D03*
X102692200Y-122465900D03*
X100152200Y-122465900D03*
X97612200Y-122465900D03*
X95072200Y-122465900D03*
X92532200Y-122465900D03*
X89992200Y-122465900D03*
X92532200Y-122465900D03*
D15*
X74188300Y-100970000D03*
D27*
X76728300Y-100970000D03*
X79268300Y-100970000D03*
D28*
X87223600Y-108642000D03*
D29*
X89763600Y-108642000D03*
X92303600Y-108642000D03*
X94843600Y-108642000D03*
X97383600Y-108642000D03*
X99923600Y-108642000D03*
X102463600Y-108642000D03*
X105003600Y-108642000D03*
X105003600Y-99842000D03*
X102463600Y-99842000D03*
X99923600Y-99842000D03*
X97383600Y-99842000D03*
X94843600Y-99842000D03*
X92303600Y-99842000D03*
X89763600Y-99842000D03*
X87223600Y-99842000D03*
D30*
X86436900Y-112344100D03*
X146748500Y-116586000D03*
X117614700Y-122796300D03*
D31*
X77398600Y-108941000D02*
X77743600Y-109286000D01*
X71668600Y-108941000D02*
X77398600Y-108941000D01*
X78668900Y-109286000D02*
X77743600Y-109286000D01*
X94843600Y-99842000D02*
X97383600Y-99842000D01*
X74188300Y-102195300D02*
X74188300Y-103146800D01*
X69569400Y-107765700D02*
X74188300Y-103146800D01*
X69128600Y-107765700D02*
X69569400Y-107765700D01*
X80168900Y-109066800D02*
X80168900Y-109286000D01*
X74248900Y-103146800D02*
X80168900Y-109066800D01*
X74188300Y-103146800D02*
X74248900Y-103146800D01*
X69128600Y-108941000D02*
X69128600Y-107765700D01*
X71567000Y-124333000D02*
X72742300Y-124333000D01*
X93962400Y-123575700D02*
X95072200Y-122465900D01*
X88892500Y-123575700D02*
X93962400Y-123575700D01*
X85486300Y-120169500D02*
X88892500Y-123575700D01*
X75877400Y-120169500D02*
X85486300Y-120169500D01*
X72742300Y-123304600D02*
X75877400Y-120169500D01*
X72742300Y-124333000D02*
X72742300Y-123304600D01*
X95072200Y-122465900D02*
X97612200Y-122465900D01*
X112914700Y-146432200D02*
X112914700Y-146568000D01*
X111965200Y-145482700D02*
X112914700Y-146432200D01*
X111545000Y-145482700D02*
X111965200Y-145482700D01*
X95716400Y-129654100D02*
X111545000Y-145482700D01*
X95072200Y-129654100D02*
X95716400Y-129654100D01*
X114000000Y-146568000D02*
X112914700Y-146568000D01*
X74188300Y-100970000D02*
X74188300Y-102195300D01*
X103984000Y-76306700D02*
X105109300Y-76306700D01*
X109611000Y-74766400D02*
X109048400Y-74766400D01*
X109048400Y-74766400D02*
X108485700Y-74766400D01*
X110225400Y-61497000D02*
X108000000Y-59271600D01*
X110225400Y-73589400D02*
X110225400Y-61497000D01*
X109048400Y-74766400D02*
X110225400Y-73589400D01*
X108000000Y-58186300D02*
X108000000Y-59271600D01*
X97383600Y-108642000D02*
X94843600Y-108642000D01*
X80967700Y-110084800D02*
X80168900Y-109286000D01*
X93400800Y-110084800D02*
X80967700Y-110084800D01*
X94843600Y-108642000D02*
X93400800Y-110084800D01*
X108485700Y-74766400D02*
X106027400Y-77224700D01*
X106027400Y-77224700D02*
X105109300Y-76306700D01*
X103984000Y-87818000D02*
X103984000Y-86692700D01*
X127607900Y-96607900D02*
X127000000Y-96000000D01*
X144032100Y-96607900D02*
X127607900Y-96607900D01*
X145260000Y-95380000D02*
X144032100Y-96607900D01*
X103984000Y-86692700D02*
X106027400Y-84649300D01*
X106027400Y-77224800D02*
X106027400Y-77224700D01*
X106027400Y-84649300D02*
X106027400Y-77224800D01*
X115649300Y-84649300D02*
X127000000Y-96000000D01*
X106027400Y-84649300D02*
X115649300Y-84649300D01*
X174497200Y-113321900D02*
X175000000Y-113824700D01*
X174497200Y-92315500D02*
X174497200Y-113321900D01*
X175000000Y-91812700D02*
X174497200Y-92315500D01*
X175000000Y-90637400D02*
X175000000Y-91812700D01*
X175000000Y-115000000D02*
X175000000Y-113824700D01*
X86605300Y-90759300D02*
X83664000Y-87818000D01*
X110622900Y-90759300D02*
X86605300Y-90759300D01*
X114950000Y-95086400D02*
X110622900Y-90759300D01*
X111893700Y-57000000D02*
X104740000Y-57000000D01*
X113080000Y-58186300D02*
X111893700Y-57000000D01*
X94010000Y-57000000D02*
X89050000Y-61960000D01*
X104740000Y-57000000D02*
X94010000Y-57000000D01*
X107393300Y-146568000D02*
X106265300Y-145440000D01*
X108920000Y-146568000D02*
X107393300Y-146568000D01*
X104740000Y-145440000D02*
X106265300Y-145440000D01*
X90309300Y-135719300D02*
X89050000Y-134460000D01*
X96775100Y-135719300D02*
X90309300Y-135719300D01*
X104740000Y-143684200D02*
X96775100Y-135719300D01*
X104740000Y-145440000D02*
X104740000Y-143684200D01*
X108247600Y-139309000D02*
X110810000Y-139309000D01*
X98882200Y-129943600D02*
X108247600Y-139309000D01*
X98882200Y-129322800D02*
X98882200Y-129943600D01*
X98088300Y-128528900D02*
X98882200Y-129322800D01*
X94649300Y-128528900D02*
X98088300Y-128528900D01*
X93802200Y-129376000D02*
X94649300Y-128528900D01*
X93802200Y-129971800D02*
X93802200Y-129376000D01*
X93027700Y-130746300D02*
X93802200Y-129971800D01*
X92035800Y-130746300D02*
X93027700Y-130746300D01*
X91079500Y-129790000D02*
X92035800Y-130746300D01*
X91079500Y-129654100D02*
X91079500Y-129790000D01*
X89992200Y-129654100D02*
X91079500Y-129654100D01*
X103996000Y-65826600D02*
X107774700Y-65826600D01*
X79055000Y-90767600D02*
X103996000Y-65826600D01*
X79055000Y-95086400D02*
X79055000Y-90767600D01*
X109000000Y-65826600D02*
X107774700Y-65826600D01*
X89992200Y-115899400D02*
X86436900Y-112344100D01*
X89992200Y-122465900D02*
X89992200Y-115899400D01*
X154193300Y-109393300D02*
X155420000Y-110620000D01*
X137477600Y-109393300D02*
X154193300Y-109393300D01*
X126813700Y-120057200D02*
X137477600Y-109393300D01*
X94940900Y-120057200D02*
X126813700Y-120057200D01*
X92532200Y-122465900D02*
X94940900Y-120057200D01*
X176364700Y-89829300D02*
X176364700Y-90637400D01*
X175997500Y-89462100D02*
X176364700Y-89829300D01*
X136037900Y-89462100D02*
X175997500Y-89462100D01*
X132000000Y-93500000D02*
X136037900Y-89462100D01*
X177540000Y-90637400D02*
X176364700Y-90637400D01*
X113157000Y-126060000D02*
X114351000Y-126060000D01*
X147224550Y-116109950D02*
X147390050Y-116109950D01*
X146748500Y-116586000D02*
X147224550Y-116109950D01*
X114351000Y-126060000D02*
X117614700Y-122796300D01*
X147390050Y-116109950D02*
X152880000Y-110620000D01*
X96126300Y-126060000D02*
X113157000Y-126060000D01*
X92532200Y-129654100D02*
X96126300Y-126060000D01*
X81391800Y-128147700D02*
X81391800Y-121402000D01*
X91233700Y-137989600D02*
X81391800Y-128147700D01*
X95119600Y-137989600D02*
X91233700Y-137989600D01*
X96670000Y-139540000D02*
X95119600Y-137989600D01*
X98244600Y-140505400D02*
X99210000Y-139540000D01*
X93100700Y-140505400D02*
X98244600Y-140505400D01*
X78851800Y-126256500D02*
X93100700Y-140505400D01*
X78851800Y-121402000D02*
X78851800Y-126256500D01*
X69011800Y-95300800D02*
X70187100Y-95300800D01*
X98970900Y-100794700D02*
X99923600Y-99842000D01*
X91883600Y-100794700D02*
X98970900Y-100794700D01*
X91033700Y-99944800D02*
X91883600Y-100794700D01*
X91033700Y-99689200D02*
X91033700Y-99944800D01*
X90098200Y-98753700D02*
X91033700Y-99689200D01*
X73640000Y-98753700D02*
X90098200Y-98753700D01*
X70187100Y-95300800D02*
X73640000Y-98753700D01*
X69011800Y-92760800D02*
X70187100Y-92760800D01*
X90480800Y-98019200D02*
X92303600Y-99842000D01*
X75372000Y-98019200D02*
X90480800Y-98019200D01*
X70187100Y-92834300D02*
X75372000Y-98019200D01*
X70187100Y-92760800D02*
X70187100Y-92834300D01*
X89077100Y-105838200D02*
X87223600Y-107691700D01*
X89077100Y-101695500D02*
X89077100Y-105838200D01*
X87223600Y-99842000D02*
X89077100Y-101695500D01*
X87223600Y-108642000D02*
X87223600Y-107691700D01*
X135179000Y-105461000D02*
X135179000Y-104285700D01*
X105003600Y-101582800D02*
X105003600Y-99842000D01*
X104890900Y-101695500D02*
X105003600Y-101582800D01*
X89077100Y-101695500D02*
X104890900Y-101695500D01*
X135546400Y-104285700D02*
X135179000Y-104285700D01*
X136354300Y-103477800D02*
X135546400Y-104285700D01*
X136354300Y-102405500D02*
X136354300Y-103477800D01*
X135531600Y-101582800D02*
X136354300Y-102405500D01*
X105003600Y-101582800D02*
X135531600Y-101582800D01*
X76728300Y-100970000D02*
X77953600Y-100970000D01*
X77953600Y-101429500D02*
X77953600Y-100970000D01*
X86154500Y-109630400D02*
X77953600Y-101429500D01*
X88004000Y-109630400D02*
X86154500Y-109630400D01*
X88334300Y-109300100D02*
X88004000Y-109630400D01*
X88334300Y-108696800D02*
X88334300Y-109300100D01*
X94110100Y-102921000D02*
X88334300Y-108696800D01*
X135179000Y-102921000D02*
X94110100Y-102921000D01*
X70202300Y-123965700D02*
X70202300Y-124333000D01*
X75577300Y-118590700D02*
X70202300Y-123965700D01*
X77639900Y-118590700D02*
X75577300Y-118590700D01*
X79420600Y-116810000D02*
X77639900Y-118590700D01*
X79420600Y-116549200D02*
X79420600Y-116810000D01*
X84479500Y-111490300D02*
X79420600Y-116549200D01*
X102155300Y-111490300D02*
X84479500Y-111490300D01*
X105003600Y-108642000D02*
X102155300Y-111490300D01*
X69027000Y-124333000D02*
X70202300Y-124333000D01*
X154979400Y-107639400D02*
X157960000Y-110620000D01*
X104655600Y-107639400D02*
X154979400Y-107639400D01*
X103733700Y-108561300D02*
X104655600Y-107639400D01*
X103733700Y-108727400D02*
X103733700Y-108561300D01*
X102868500Y-109592600D02*
X103733700Y-108727400D01*
X99424200Y-109592600D02*
X102868500Y-109592600D01*
X98653600Y-108822000D02*
X99424200Y-109592600D01*
X98653600Y-108565000D02*
X98653600Y-108822000D01*
X97729400Y-107640800D02*
X98653600Y-108565000D01*
X90764800Y-107640800D02*
X97729400Y-107640800D01*
X89763600Y-108642000D02*
X90764800Y-107640800D01*
X157069000Y-107189000D02*
X160500000Y-110620000D01*
X103916600Y-107189000D02*
X157069000Y-107189000D01*
X102463600Y-108642000D02*
X103916600Y-107189000D01*
X150828500Y-98408500D02*
X163040000Y-110620000D01*
X103897100Y-98408500D02*
X150828500Y-98408500D01*
X102463600Y-99842000D02*
X103897100Y-98408500D01*
X69037200Y-78359000D02*
X69037200Y-79534300D01*
X69404600Y-79534300D02*
X69037200Y-79534300D01*
X70212500Y-80342200D02*
X69404600Y-79534300D01*
X70212500Y-87859300D02*
X70212500Y-80342200D01*
X79177700Y-96824500D02*
X70212500Y-87859300D01*
X99446100Y-96824500D02*
X79177700Y-96824500D01*
X102463600Y-99842000D02*
X99446100Y-96824500D01*
X164314100Y-111885900D02*
X165580000Y-110620000D01*
X162512100Y-111885900D02*
X164314100Y-111885900D01*
X161770000Y-111143800D02*
X162512100Y-111885900D01*
X161770000Y-110109400D02*
X161770000Y-111143800D01*
X150519400Y-98858800D02*
X161770000Y-110109400D01*
X104592000Y-98858800D02*
X150519400Y-98858800D01*
X103892800Y-99558000D02*
X104592000Y-98858800D01*
X103892800Y-99791200D02*
X103892800Y-99558000D01*
X102438900Y-101245100D02*
X103892800Y-99791200D01*
X91166700Y-101245100D02*
X102438900Y-101245100D01*
X89763600Y-99842000D02*
X91166700Y-101245100D01*
M02*
