M48
;DRILL file {KiCad 4.0.6} date 03/10/20 06:56:13
;FORMAT={-:-/ absolute / inch / decimal}
FMAT,2
INCH,TZ
T1C0.016
T2C0.024
T3C0.028
T4C0.030
T5C0.031
T6C0.035
T7C0.039
T8C0.047
%
G90
G05
M72
T1
X3.403Y-4.423
X4.6305Y-4.8345
X5.7775Y-4.59
T2
X3.0972Y-4.3026
X3.1563Y-4.3026
T3
X3.0768Y-4.593
X3.1768Y-4.593
T4
X3.543Y-4.8215
X3.543Y-5.1045
X3.643Y-4.8215
X3.643Y-4.8215
X3.643Y-5.1045
X3.743Y-4.8215
X3.743Y-5.1045
X3.843Y-4.8215
X3.843Y-5.1045
X3.943Y-4.8215
X3.943Y-5.1045
X4.043Y-4.8215
X4.043Y-5.1045
X4.143Y-4.8215
X4.143Y-5.1045
T5
X2.9174Y-2.9436
X2.9174Y-3.7436
X3.1124Y-2.9436
X3.1124Y-3.7436
X3.2939Y-3.0042
X3.2939Y-3.2374
X3.2939Y-3.4574
X3.2939Y-3.689
X3.5059Y-2.4394
X3.5059Y-2.6394
X3.5059Y-5.2937
X3.5059Y-5.4937
X3.7059Y-2.4394
X3.7059Y-2.6394
X3.7059Y-5.2937
X3.7059Y-5.4937
X3.8059Y-2.4394
X3.8059Y-2.6394
X3.8059Y-5.2937
X3.8059Y-5.4937
X3.9059Y-2.4394
X3.9059Y-2.6394
X3.9059Y-5.2937
X3.9059Y-5.4937
X4.0939Y-3.0042
X4.0939Y-3.2374
X4.0939Y-3.4574
X4.0939Y-3.689
X4.252Y-2.2908
X4.2882Y-5.7704
X4.3154Y-2.9436
X4.3154Y-3.7436
X4.352Y-2.2908
X4.3882Y-5.7704
X4.452Y-2.2908
X4.4882Y-5.7704
X4.5256Y-2.9436
X4.5256Y-3.7436
T6
X3.434Y-3.9308
X3.434Y-4.2772
X3.534Y-3.9308
X3.534Y-4.2772
X3.634Y-3.9308
X3.634Y-4.2772
X3.734Y-3.9308
X3.734Y-4.2772
X3.834Y-3.9308
X3.834Y-4.2772
X3.934Y-3.9308
X3.934Y-4.2772
X4.034Y-3.9308
X4.034Y-4.2772
X4.134Y-3.9308
X4.134Y-4.2772
X4.2913Y-2.5916
X4.3626Y-5.4846
X4.3913Y-2.5916
X4.4626Y-5.4846
X5.Y-3.5827
X5.Y-3.7795
X5.Y-4.3307
X5.Y-4.5276
X5.1969Y-3.6811
X5.1969Y-4.4291
X5.6189Y-3.7551
X5.6189Y-4.3551
X5.7189Y-3.7551
X5.7189Y-4.3551
X5.8189Y-3.7551
X5.8189Y-4.3551
X5.9189Y-3.7551
X5.9189Y-4.3551
X6.0189Y-3.7551
X6.0189Y-4.3551
X6.1189Y-3.7551
X6.1189Y-4.3551
X6.2189Y-3.7551
X6.2189Y-4.3551
X6.3189Y-3.7551
X6.3189Y-4.3551
X6.4189Y-3.7551
X6.4189Y-4.3551
X6.5189Y-3.7551
X6.5189Y-4.3551
X6.6189Y-3.7551
X6.6189Y-4.3551
X6.7189Y-3.7551
X6.7189Y-4.3551
X6.8189Y-3.7551
X6.8189Y-4.3551
X6.9189Y-3.7551
X6.9189Y-4.3551
X7.0189Y-3.7551
X7.0189Y-4.3551
T7
X2.717Y-3.552
X2.717Y-3.652
X2.717Y-3.752
X2.7176Y-4.895
X2.718Y-2.985
X2.718Y-3.085
X2.718Y-3.185
X2.718Y-3.285
X2.7216Y-4.289
X2.8176Y-4.895
X2.8216Y-4.289
X2.9208Y-3.9752
X3.0044Y-4.7796
X3.0208Y-3.9752
X3.1044Y-4.7796
X3.1208Y-3.9752
X3.2044Y-4.7796
X5.322Y-3.952
X5.322Y-4.052
X5.322Y-4.152
X6.8898Y-3.5684
X6.8898Y-4.5276
X6.9898Y-3.5684
X6.9898Y-4.5276
X7.0898Y-3.5684
X7.0898Y-4.5276
T8
X3.5236Y-2.2441
X3.5236Y-5.726
X4.1236Y-2.2441
X4.1236Y-5.726
T0
M30
