G04 #@! TF.FileFunction,Profile,NP*
%FSLAX46Y46*%
G04 Gerber Fmt 4.6, Leading zero omitted, Abs format (unit mm)*
G04 Created by KiCad (PCBNEW 4.0.6) date 03/10/20 06:56:11*
%MOMM*%
%LPD*%
G01*
G04 APERTURE LIST*
%ADD10C,0.100000*%
%ADD11C,0.050000*%
G04 APERTURE END LIST*
D10*
D11*
X103527759Y-112433220D02*
X103527759Y-119433220D01*
X103528039Y-119433460D02*
X90528039Y-119433460D01*
X90528039Y-112433220D02*
X90528039Y-119433220D01*
X103528039Y-112433220D02*
X90528039Y-112433220D01*
X135166100Y-118402100D02*
X184137300Y-118397020D01*
X184137300Y-118397020D02*
X184147460Y-88422480D01*
X184147460Y-88422480D02*
X134315200Y-88374220D01*
X65567560Y-63466980D02*
X68534280Y-63383160D01*
X65521840Y-143446500D02*
X68511420Y-143449040D01*
X65528039Y-66397942D02*
X65521840Y-143446500D01*
X68549520Y-56438800D02*
X85618320Y-56362600D01*
X85618320Y-56362600D02*
X85598000Y-53426360D01*
X85598000Y-53426360D02*
X105481120Y-53416200D01*
X65567560Y-63466980D02*
X65528039Y-66397942D01*
X68534280Y-63383160D02*
X68549520Y-56438800D01*
X108082080Y-53558440D02*
X111660940Y-54218840D01*
X111660940Y-54218840D02*
X113827560Y-54782720D01*
X113827560Y-54782720D02*
X115458240Y-55661560D01*
X115458240Y-55661560D02*
X116933980Y-57073800D01*
X116933980Y-57073800D02*
X117970300Y-59082940D01*
X105481120Y-53416200D02*
X108082080Y-53558440D01*
X117970300Y-59082940D02*
X118745000Y-61595000D01*
X118745000Y-61595000D02*
X120528039Y-73433220D01*
X124037373Y-83075036D02*
X124921437Y-84039826D01*
X132923317Y-88205338D02*
X134315200Y-88374220D01*
X135166100Y-118402100D02*
X134175500Y-118427500D01*
X134175500Y-118427500D02*
X133286500Y-118554500D01*
X133286500Y-118554500D02*
X132923317Y-118661102D01*
X129188763Y-119838604D02*
X128028039Y-120442840D01*
X128028039Y-120442840D02*
X126924393Y-121145938D01*
X126924393Y-121145938D02*
X125886223Y-121942552D01*
X125886223Y-121942552D02*
X124921437Y-122826618D01*
X124921437Y-122826618D02*
X124037373Y-123791406D01*
X124037373Y-123791406D02*
X123240757Y-124829572D01*
X122537659Y-125933220D02*
X121432648Y-128302917D01*
X120585118Y-132125883D02*
X120528039Y-133433220D01*
X120528039Y-133433220D02*
X120470959Y-139740555D01*
X120470959Y-139740555D02*
X120300156Y-141037942D01*
X120300156Y-141037942D02*
X120016926Y-142315505D01*
X120016926Y-142315505D02*
X119623429Y-143563522D01*
X119623429Y-143563522D02*
X119122654Y-144772493D01*
X119122654Y-144772493D02*
X117815320Y-147036866D01*
X117815320Y-147036866D02*
X117018704Y-148075034D01*
X117018704Y-148075034D02*
X116134640Y-149039821D01*
X116134640Y-149039821D02*
X115169854Y-149923886D01*
X115169854Y-149923886D02*
X114131684Y-150720500D01*
X113028039Y-151423601D02*
X111867314Y-152027836D01*
X111867314Y-152027836D02*
X110658341Y-152528609D01*
X110658341Y-152528609D02*
X109410325Y-152922107D01*
X109410325Y-152922107D02*
X108132760Y-153205336D01*
X108132760Y-153205336D02*
X106835373Y-153376140D01*
X106835373Y-153376140D02*
X103528039Y-153433220D01*
X103528039Y-153433220D02*
X103528039Y-149433220D01*
X121432648Y-128302917D02*
X120585118Y-132125883D01*
X123240757Y-124829572D02*
X122537659Y-125933220D01*
X113028039Y-151423601D02*
X114131684Y-150720500D01*
X103528039Y-149433220D02*
X68546980Y-149415500D01*
X68546980Y-149415500D02*
X68511420Y-143449040D01*
X129188763Y-119838604D02*
X130238500Y-119316500D01*
X130238500Y-119316500D02*
X130746500Y-119126000D01*
X130746500Y-119126000D02*
X131645752Y-118944332D01*
X131645752Y-118944332D02*
X132923317Y-118661102D01*
X120528039Y-73433220D02*
X120713500Y-74803000D01*
X120713500Y-74803000D02*
X121031000Y-77089000D01*
X121031000Y-77089000D02*
X121285000Y-78676500D01*
X121285000Y-78676500D02*
X121539000Y-79502000D01*
X121539000Y-79502000D02*
X121729500Y-79946500D01*
X121729500Y-79946500D02*
X122174000Y-80772000D01*
X122174000Y-80772000D02*
X122999500Y-81851500D01*
X122999500Y-81851500D02*
X124037373Y-83075036D01*
X124921437Y-84039826D02*
X125603000Y-84645500D01*
X125603000Y-84645500D02*
X126111000Y-85090000D01*
X126111000Y-85090000D02*
X127317500Y-86233000D01*
X127317500Y-86233000D02*
X129095500Y-87249000D01*
X129095500Y-87249000D02*
X131000500Y-87757000D01*
X131000500Y-87757000D02*
X132923317Y-88205338D01*
X131000500Y-87757000D02*
X132923317Y-88205338D01*
X129095500Y-87249000D02*
X131000500Y-87757000D01*
X127317500Y-86233000D02*
X129095500Y-87249000D01*
X126111000Y-85090000D02*
X127317500Y-86233000D01*
X125603000Y-84645500D02*
X126111000Y-85090000D01*
X124921437Y-84039826D02*
X125603000Y-84645500D01*
X122999500Y-81851500D02*
X124037373Y-83075036D01*
X122174000Y-80772000D02*
X122999500Y-81851500D01*
X121729500Y-79946500D02*
X122174000Y-80772000D01*
X121539000Y-79502000D02*
X121729500Y-79946500D01*
X121285000Y-78676500D02*
X121539000Y-79502000D01*
X121031000Y-77089000D02*
X121285000Y-78676500D01*
X120713500Y-74803000D02*
X121031000Y-77089000D01*
X120528039Y-73433220D02*
X120713500Y-74803000D01*
X131645752Y-118944332D02*
X132923317Y-118661102D01*
X130746500Y-119126000D02*
X131645752Y-118944332D01*
X130238500Y-119316500D02*
X130746500Y-119126000D01*
X129188763Y-119838604D02*
X130238500Y-119316500D01*
X68546980Y-149415500D02*
X68511420Y-143449040D01*
X103528039Y-149433220D02*
X68546980Y-149415500D01*
X113028039Y-151423601D02*
X114131684Y-150720500D01*
X123240757Y-124829572D02*
X122537659Y-125933220D01*
X121432648Y-128302917D02*
X120585118Y-132125883D01*
X103528039Y-153433220D02*
X103528039Y-149433220D01*
X106835373Y-153376140D02*
X103528039Y-153433220D01*
X108132760Y-153205336D02*
X106835373Y-153376140D01*
X109410325Y-152922107D02*
X108132760Y-153205336D01*
X110658341Y-152528609D02*
X109410325Y-152922107D01*
X111867314Y-152027836D02*
X110658341Y-152528609D01*
X113028039Y-151423601D02*
X111867314Y-152027836D01*
X115169854Y-149923886D02*
X114131684Y-150720500D01*
X116134640Y-149039821D02*
X115169854Y-149923886D01*
X117018704Y-148075034D02*
X116134640Y-149039821D01*
X117815320Y-147036866D02*
X117018704Y-148075034D01*
X119122654Y-144772493D02*
X117815320Y-147036866D01*
X119623429Y-143563522D02*
X119122654Y-144772493D01*
X120016926Y-142315505D02*
X119623429Y-143563522D01*
X120300156Y-141037942D02*
X120016926Y-142315505D01*
X120470959Y-139740555D02*
X120300156Y-141037942D01*
X120528039Y-133433220D02*
X120470959Y-139740555D01*
X120585118Y-132125883D02*
X120528039Y-133433220D01*
X122537659Y-125933220D02*
X121432648Y-128302917D01*
X124037373Y-123791406D02*
X123240757Y-124829572D01*
X124921437Y-122826618D02*
X124037373Y-123791406D01*
X125886223Y-121942552D02*
X124921437Y-122826618D01*
X126924393Y-121145938D02*
X125886223Y-121942552D01*
X128028039Y-120442840D02*
X126924393Y-121145938D01*
X129188763Y-119838604D02*
X128028039Y-120442840D01*
X133286500Y-118554500D02*
X132923317Y-118661102D01*
X134175500Y-118427500D02*
X133286500Y-118554500D01*
X135166100Y-118402100D02*
X134175500Y-118427500D01*
X132923317Y-88205338D02*
X134315200Y-88374220D01*
X124037373Y-83075036D02*
X124921437Y-84039826D01*
X118745000Y-61595000D02*
X120528039Y-73433220D01*
X117970300Y-59082940D02*
X118745000Y-61595000D01*
X105481120Y-53416200D02*
X108082080Y-53558440D01*
X116933980Y-57073800D02*
X117970300Y-59082940D01*
X115458240Y-55661560D02*
X116933980Y-57073800D01*
X113827560Y-54782720D02*
X115458240Y-55661560D01*
X111660940Y-54218840D02*
X113827560Y-54782720D01*
X108082080Y-53558440D02*
X111660940Y-54218840D01*
X68534280Y-63383160D02*
X68549520Y-56438800D01*
X65567560Y-63466980D02*
X65528039Y-66397942D01*
X85598000Y-53426360D02*
X105481120Y-53416200D01*
X85618320Y-56362600D02*
X85598000Y-53426360D01*
X68549520Y-56438800D02*
X85618320Y-56362600D01*
X65528039Y-66397942D02*
X65521840Y-143446500D01*
X65521840Y-143446500D02*
X68511420Y-143449040D01*
X65567560Y-63466980D02*
X68534280Y-63383160D01*
X184147460Y-88422480D02*
X134315200Y-88374220D01*
X184137300Y-118397020D02*
X184147460Y-88422480D01*
X135166100Y-118402100D02*
X184137300Y-118397020D01*
X135166100Y-118402100D02*
X184137300Y-118397020D01*
X184137300Y-118397020D02*
X184147460Y-88422480D01*
X184147460Y-88422480D02*
X134315200Y-88374220D01*
X65567560Y-63466980D02*
X68534280Y-63383160D01*
X65521840Y-143446500D02*
X68511420Y-143449040D01*
X65528039Y-66397942D02*
X65521840Y-143446500D01*
X68549520Y-56438800D02*
X85618320Y-56362600D01*
X85618320Y-56362600D02*
X85598000Y-53426360D01*
X85598000Y-53426360D02*
X105481120Y-53416200D01*
X65567560Y-63466980D02*
X65528039Y-66397942D01*
X68534280Y-63383160D02*
X68549520Y-56438800D01*
X108082080Y-53558440D02*
X111660940Y-54218840D01*
X111660940Y-54218840D02*
X113827560Y-54782720D01*
X113827560Y-54782720D02*
X115458240Y-55661560D01*
X115458240Y-55661560D02*
X116933980Y-57073800D01*
X116933980Y-57073800D02*
X117970300Y-59082940D01*
X105481120Y-53416200D02*
X108082080Y-53558440D01*
X117970300Y-59082940D02*
X118745000Y-61595000D01*
X118745000Y-61595000D02*
X120528039Y-73433220D01*
X124037373Y-83075036D02*
X124921437Y-84039826D01*
X132923317Y-88205338D02*
X134315200Y-88374220D01*
X135166100Y-118402100D02*
X134175500Y-118427500D01*
X134175500Y-118427500D02*
X133286500Y-118554500D01*
X133286500Y-118554500D02*
X132923317Y-118661102D01*
X129188763Y-119838604D02*
X128028039Y-120442840D01*
X128028039Y-120442840D02*
X126924393Y-121145938D01*
X126924393Y-121145938D02*
X125886223Y-121942552D01*
X125886223Y-121942552D02*
X124921437Y-122826618D01*
X124921437Y-122826618D02*
X124037373Y-123791406D01*
X124037373Y-123791406D02*
X123240757Y-124829572D01*
X122537659Y-125933220D02*
X121432648Y-128302917D01*
X120585118Y-132125883D02*
X120528039Y-133433220D01*
X120528039Y-133433220D02*
X120470959Y-139740555D01*
X120470959Y-139740555D02*
X120300156Y-141037942D01*
X120300156Y-141037942D02*
X120016926Y-142315505D01*
X120016926Y-142315505D02*
X119623429Y-143563522D01*
X119623429Y-143563522D02*
X119122654Y-144772493D01*
X119122654Y-144772493D02*
X117815320Y-147036866D01*
X117815320Y-147036866D02*
X117018704Y-148075034D01*
X117018704Y-148075034D02*
X116134640Y-149039821D01*
X116134640Y-149039821D02*
X115169854Y-149923886D01*
X115169854Y-149923886D02*
X114131684Y-150720500D01*
X113028039Y-151423601D02*
X111867314Y-152027836D01*
X111867314Y-152027836D02*
X110658341Y-152528609D01*
X110658341Y-152528609D02*
X109410325Y-152922107D01*
X109410325Y-152922107D02*
X108132760Y-153205336D01*
X108132760Y-153205336D02*
X106835373Y-153376140D01*
X106835373Y-153376140D02*
X103528039Y-153433220D01*
X103528039Y-153433220D02*
X103528039Y-149433220D01*
X121432648Y-128302917D02*
X120585118Y-132125883D01*
X123240757Y-124829572D02*
X122537659Y-125933220D01*
X113028039Y-151423601D02*
X114131684Y-150720500D01*
X103528039Y-149433220D02*
X68546980Y-149415500D01*
X68546980Y-149415500D02*
X68511420Y-143449040D01*
X129188763Y-119838604D02*
X130238500Y-119316500D01*
X130238500Y-119316500D02*
X130746500Y-119126000D01*
X130746500Y-119126000D02*
X131645752Y-118944332D01*
X131645752Y-118944332D02*
X132923317Y-118661102D01*
X120528039Y-73433220D02*
X120713500Y-74803000D01*
X120713500Y-74803000D02*
X121031000Y-77089000D01*
X121031000Y-77089000D02*
X121285000Y-78676500D01*
X121285000Y-78676500D02*
X121539000Y-79502000D01*
X121539000Y-79502000D02*
X121729500Y-79946500D01*
X121729500Y-79946500D02*
X122174000Y-80772000D01*
X122174000Y-80772000D02*
X122999500Y-81851500D01*
X122999500Y-81851500D02*
X124037373Y-83075036D01*
X124921437Y-84039826D02*
X125603000Y-84645500D01*
X125603000Y-84645500D02*
X126111000Y-85090000D01*
X126111000Y-85090000D02*
X127317500Y-86233000D01*
X127317500Y-86233000D02*
X129095500Y-87249000D01*
X129095500Y-87249000D02*
X131000500Y-87757000D01*
X131000500Y-87757000D02*
X132923317Y-88205338D01*
X131000500Y-87757000D02*
X132923317Y-88205338D01*
X129095500Y-87249000D02*
X131000500Y-87757000D01*
X127317500Y-86233000D02*
X129095500Y-87249000D01*
X126111000Y-85090000D02*
X127317500Y-86233000D01*
X125603000Y-84645500D02*
X126111000Y-85090000D01*
X124921437Y-84039826D02*
X125603000Y-84645500D01*
X122999500Y-81851500D02*
X124037373Y-83075036D01*
X122174000Y-80772000D02*
X122999500Y-81851500D01*
X121729500Y-79946500D02*
X122174000Y-80772000D01*
X121539000Y-79502000D02*
X121729500Y-79946500D01*
X121285000Y-78676500D02*
X121539000Y-79502000D01*
X121031000Y-77089000D02*
X121285000Y-78676500D01*
X120713500Y-74803000D02*
X121031000Y-77089000D01*
X120528039Y-73433220D02*
X120713500Y-74803000D01*
X131645752Y-118944332D02*
X132923317Y-118661102D01*
X130746500Y-119126000D02*
X131645752Y-118944332D01*
X130238500Y-119316500D02*
X130746500Y-119126000D01*
X129188763Y-119838604D02*
X130238500Y-119316500D01*
X68546980Y-149415500D02*
X68511420Y-143449040D01*
X103528039Y-149433220D02*
X68546980Y-149415500D01*
X113028039Y-151423601D02*
X114131684Y-150720500D01*
X123240757Y-124829572D02*
X122537659Y-125933220D01*
X121432648Y-128302917D02*
X120585118Y-132125883D01*
X103528039Y-153433220D02*
X103528039Y-149433220D01*
X106835373Y-153376140D02*
X103528039Y-153433220D01*
X108132760Y-153205336D02*
X106835373Y-153376140D01*
X109410325Y-152922107D02*
X108132760Y-153205336D01*
X110658341Y-152528609D02*
X109410325Y-152922107D01*
X111867314Y-152027836D02*
X110658341Y-152528609D01*
X113028039Y-151423601D02*
X111867314Y-152027836D01*
X115169854Y-149923886D02*
X114131684Y-150720500D01*
X116134640Y-149039821D02*
X115169854Y-149923886D01*
X117018704Y-148075034D02*
X116134640Y-149039821D01*
X117815320Y-147036866D02*
X117018704Y-148075034D01*
X119122654Y-144772493D02*
X117815320Y-147036866D01*
X119623429Y-143563522D02*
X119122654Y-144772493D01*
X120016926Y-142315505D02*
X119623429Y-143563522D01*
X120300156Y-141037942D02*
X120016926Y-142315505D01*
X120470959Y-139740555D02*
X120300156Y-141037942D01*
X120528039Y-133433220D02*
X120470959Y-139740555D01*
X120585118Y-132125883D02*
X120528039Y-133433220D01*
X122537659Y-125933220D02*
X121432648Y-128302917D01*
X124037373Y-123791406D02*
X123240757Y-124829572D01*
X124921437Y-122826618D02*
X124037373Y-123791406D01*
X125886223Y-121942552D02*
X124921437Y-122826618D01*
X126924393Y-121145938D02*
X125886223Y-121942552D01*
X128028039Y-120442840D02*
X126924393Y-121145938D01*
X129188763Y-119838604D02*
X128028039Y-120442840D01*
X133286500Y-118554500D02*
X132923317Y-118661102D01*
X134175500Y-118427500D02*
X133286500Y-118554500D01*
X135166100Y-118402100D02*
X134175500Y-118427500D01*
X132923317Y-88205338D02*
X134315200Y-88374220D01*
X124037373Y-83075036D02*
X124921437Y-84039826D01*
X118745000Y-61595000D02*
X120528039Y-73433220D01*
X117970300Y-59082940D02*
X118745000Y-61595000D01*
X105481120Y-53416200D02*
X108082080Y-53558440D01*
X116933980Y-57073800D02*
X117970300Y-59082940D01*
X115458240Y-55661560D02*
X116933980Y-57073800D01*
X113827560Y-54782720D02*
X115458240Y-55661560D01*
X111660940Y-54218840D02*
X113827560Y-54782720D01*
X108082080Y-53558440D02*
X111660940Y-54218840D01*
X68534280Y-63383160D02*
X68549520Y-56438800D01*
X65567560Y-63466980D02*
X65528039Y-66397942D01*
X85598000Y-53426360D02*
X105481120Y-53416200D01*
X85618320Y-56362600D02*
X85598000Y-53426360D01*
X68549520Y-56438800D02*
X85618320Y-56362600D01*
X65528039Y-66397942D02*
X65521840Y-143446500D01*
X65521840Y-143446500D02*
X68511420Y-143449040D01*
X65567560Y-63466980D02*
X68534280Y-63383160D01*
X184147460Y-88422480D02*
X134315200Y-88374220D01*
X184137300Y-118397020D02*
X184147460Y-88422480D01*
X135166100Y-118402100D02*
X184137300Y-118397020D01*
X135166100Y-118402100D02*
X184137300Y-118397020D01*
X184137300Y-118397020D02*
X184147460Y-88422480D01*
X184147460Y-88422480D02*
X134315200Y-88374220D01*
X65567560Y-63466980D02*
X68534280Y-63383160D01*
X65521840Y-143446500D02*
X68511420Y-143449040D01*
X65528039Y-66397942D02*
X65521840Y-143446500D01*
X68549520Y-56438800D02*
X85618320Y-56362600D01*
X85618320Y-56362600D02*
X85598000Y-53426360D01*
X85598000Y-53426360D02*
X105481120Y-53416200D01*
X65567560Y-63466980D02*
X65528039Y-66397942D01*
X68534280Y-63383160D02*
X68549520Y-56438800D01*
X108082080Y-53558440D02*
X111660940Y-54218840D01*
X111660940Y-54218840D02*
X113827560Y-54782720D01*
X113827560Y-54782720D02*
X115458240Y-55661560D01*
X115458240Y-55661560D02*
X116933980Y-57073800D01*
X116933980Y-57073800D02*
X117970300Y-59082940D01*
X105481120Y-53416200D02*
X108082080Y-53558440D01*
X117970300Y-59082940D02*
X118745000Y-61595000D01*
X118745000Y-61595000D02*
X120528039Y-73433220D01*
X124037373Y-83075036D02*
X124921437Y-84039826D01*
X132923317Y-88205338D02*
X134315200Y-88374220D01*
X135166100Y-118402100D02*
X134175500Y-118427500D01*
X134175500Y-118427500D02*
X133286500Y-118554500D01*
X133286500Y-118554500D02*
X132923317Y-118661102D01*
X129188763Y-119838604D02*
X128028039Y-120442840D01*
X128028039Y-120442840D02*
X126924393Y-121145938D01*
X126924393Y-121145938D02*
X125886223Y-121942552D01*
X125886223Y-121942552D02*
X124921437Y-122826618D01*
X124921437Y-122826618D02*
X124037373Y-123791406D01*
X124037373Y-123791406D02*
X123240757Y-124829572D01*
X122537659Y-125933220D02*
X121432648Y-128302917D01*
X120585118Y-132125883D02*
X120528039Y-133433220D01*
X120528039Y-133433220D02*
X120470959Y-139740555D01*
X120470959Y-139740555D02*
X120300156Y-141037942D01*
X120300156Y-141037942D02*
X120016926Y-142315505D01*
X120016926Y-142315505D02*
X119623429Y-143563522D01*
X119623429Y-143563522D02*
X119122654Y-144772493D01*
X119122654Y-144772493D02*
X117815320Y-147036866D01*
X117815320Y-147036866D02*
X117018704Y-148075034D01*
X117018704Y-148075034D02*
X116134640Y-149039821D01*
X116134640Y-149039821D02*
X115169854Y-149923886D01*
X115169854Y-149923886D02*
X114131684Y-150720500D01*
X113028039Y-151423601D02*
X111867314Y-152027836D01*
X111867314Y-152027836D02*
X110658341Y-152528609D01*
X110658341Y-152528609D02*
X109410325Y-152922107D01*
X109410325Y-152922107D02*
X108132760Y-153205336D01*
X108132760Y-153205336D02*
X106835373Y-153376140D01*
X106835373Y-153376140D02*
X103528039Y-153433220D01*
X103528039Y-153433220D02*
X103528039Y-149433220D01*
X121432648Y-128302917D02*
X120585118Y-132125883D01*
X123240757Y-124829572D02*
X122537659Y-125933220D01*
X113028039Y-151423601D02*
X114131684Y-150720500D01*
X103528039Y-149433220D02*
X68546980Y-149415500D01*
X68546980Y-149415500D02*
X68511420Y-143449040D01*
X129188763Y-119838604D02*
X130238500Y-119316500D01*
X130238500Y-119316500D02*
X130746500Y-119126000D01*
X130746500Y-119126000D02*
X131645752Y-118944332D01*
X131645752Y-118944332D02*
X132923317Y-118661102D01*
X120528039Y-73433220D02*
X120713500Y-74803000D01*
X120713500Y-74803000D02*
X121031000Y-77089000D01*
X121031000Y-77089000D02*
X121285000Y-78676500D01*
X121285000Y-78676500D02*
X121539000Y-79502000D01*
X121539000Y-79502000D02*
X121729500Y-79946500D01*
X121729500Y-79946500D02*
X122174000Y-80772000D01*
X122174000Y-80772000D02*
X122999500Y-81851500D01*
X122999500Y-81851500D02*
X124037373Y-83075036D01*
X124921437Y-84039826D02*
X125603000Y-84645500D01*
X125603000Y-84645500D02*
X126111000Y-85090000D01*
X126111000Y-85090000D02*
X127317500Y-86233000D01*
X127317500Y-86233000D02*
X129095500Y-87249000D01*
X129095500Y-87249000D02*
X131000500Y-87757000D01*
X131000500Y-87757000D02*
X132923317Y-88205338D01*
X131000500Y-87757000D02*
X132923317Y-88205338D01*
X129095500Y-87249000D02*
X131000500Y-87757000D01*
X127317500Y-86233000D02*
X129095500Y-87249000D01*
X126111000Y-85090000D02*
X127317500Y-86233000D01*
X125603000Y-84645500D02*
X126111000Y-85090000D01*
X124921437Y-84039826D02*
X125603000Y-84645500D01*
X122999500Y-81851500D02*
X124037373Y-83075036D01*
X122174000Y-80772000D02*
X122999500Y-81851500D01*
X121729500Y-79946500D02*
X122174000Y-80772000D01*
X121539000Y-79502000D02*
X121729500Y-79946500D01*
X121285000Y-78676500D02*
X121539000Y-79502000D01*
X121031000Y-77089000D02*
X121285000Y-78676500D01*
X120713500Y-74803000D02*
X121031000Y-77089000D01*
X120528039Y-73433220D02*
X120713500Y-74803000D01*
X131645752Y-118944332D02*
X132923317Y-118661102D01*
X130746500Y-119126000D02*
X131645752Y-118944332D01*
X130238500Y-119316500D02*
X130746500Y-119126000D01*
X129188763Y-119838604D02*
X130238500Y-119316500D01*
X68546980Y-149415500D02*
X68511420Y-143449040D01*
X103528039Y-149433220D02*
X68546980Y-149415500D01*
X113028039Y-151423601D02*
X114131684Y-150720500D01*
X123240757Y-124829572D02*
X122537659Y-125933220D01*
X121432648Y-128302917D02*
X120585118Y-132125883D01*
X103528039Y-153433220D02*
X103528039Y-149433220D01*
X106835373Y-153376140D02*
X103528039Y-153433220D01*
X108132760Y-153205336D02*
X106835373Y-153376140D01*
X109410325Y-152922107D02*
X108132760Y-153205336D01*
X110658341Y-152528609D02*
X109410325Y-152922107D01*
X111867314Y-152027836D02*
X110658341Y-152528609D01*
X113028039Y-151423601D02*
X111867314Y-152027836D01*
X115169854Y-149923886D02*
X114131684Y-150720500D01*
X116134640Y-149039821D02*
X115169854Y-149923886D01*
X117018704Y-148075034D02*
X116134640Y-149039821D01*
X117815320Y-147036866D02*
X117018704Y-148075034D01*
X119122654Y-144772493D02*
X117815320Y-147036866D01*
X119623429Y-143563522D02*
X119122654Y-144772493D01*
X120016926Y-142315505D02*
X119623429Y-143563522D01*
X120300156Y-141037942D02*
X120016926Y-142315505D01*
X120470959Y-139740555D02*
X120300156Y-141037942D01*
X120528039Y-133433220D02*
X120470959Y-139740555D01*
X120585118Y-132125883D02*
X120528039Y-133433220D01*
X122537659Y-125933220D02*
X121432648Y-128302917D01*
X124037373Y-123791406D02*
X123240757Y-124829572D01*
X124921437Y-122826618D02*
X124037373Y-123791406D01*
X125886223Y-121942552D02*
X124921437Y-122826618D01*
X126924393Y-121145938D02*
X125886223Y-121942552D01*
X128028039Y-120442840D02*
X126924393Y-121145938D01*
X129188763Y-119838604D02*
X128028039Y-120442840D01*
X133286500Y-118554500D02*
X132923317Y-118661102D01*
X134175500Y-118427500D02*
X133286500Y-118554500D01*
X135166100Y-118402100D02*
X134175500Y-118427500D01*
X132923317Y-88205338D02*
X134315200Y-88374220D01*
X124037373Y-83075036D02*
X124921437Y-84039826D01*
X118745000Y-61595000D02*
X120528039Y-73433220D01*
X117970300Y-59082940D02*
X118745000Y-61595000D01*
X105481120Y-53416200D02*
X108082080Y-53558440D01*
X116933980Y-57073800D02*
X117970300Y-59082940D01*
X115458240Y-55661560D02*
X116933980Y-57073800D01*
X113827560Y-54782720D02*
X115458240Y-55661560D01*
X111660940Y-54218840D02*
X113827560Y-54782720D01*
X108082080Y-53558440D02*
X111660940Y-54218840D01*
X68534280Y-63383160D02*
X68549520Y-56438800D01*
X65567560Y-63466980D02*
X65528039Y-66397942D01*
X85598000Y-53426360D02*
X105481120Y-53416200D01*
X85618320Y-56362600D02*
X85598000Y-53426360D01*
X68549520Y-56438800D02*
X85618320Y-56362600D01*
X65528039Y-66397942D02*
X65521840Y-143446500D01*
X65521840Y-143446500D02*
X68511420Y-143449040D01*
X65567560Y-63466980D02*
X68534280Y-63383160D01*
X184147460Y-88422480D02*
X134315200Y-88374220D01*
X184137300Y-118397020D02*
X184147460Y-88422480D01*
X135166100Y-118402100D02*
X184137300Y-118397020D01*
X135166100Y-118402100D02*
X184137300Y-118397020D01*
X184137300Y-118397020D02*
X184147460Y-88422480D01*
X184147460Y-88422480D02*
X134315200Y-88374220D01*
X65567560Y-63466980D02*
X68534280Y-63383160D01*
X65521840Y-143446500D02*
X68511420Y-143449040D01*
X65528039Y-66397942D02*
X65521840Y-143446500D01*
X68549520Y-56438800D02*
X85618320Y-56362600D01*
X85618320Y-56362600D02*
X85598000Y-53426360D01*
X85598000Y-53426360D02*
X105481120Y-53416200D01*
X65567560Y-63466980D02*
X65528039Y-66397942D01*
X68534280Y-63383160D02*
X68549520Y-56438800D01*
X108082080Y-53558440D02*
X111660940Y-54218840D01*
X111660940Y-54218840D02*
X113827560Y-54782720D01*
X113827560Y-54782720D02*
X115458240Y-55661560D01*
X115458240Y-55661560D02*
X116933980Y-57073800D01*
X116933980Y-57073800D02*
X117970300Y-59082940D01*
X105481120Y-53416200D02*
X108082080Y-53558440D01*
X117970300Y-59082940D02*
X118745000Y-61595000D01*
X118745000Y-61595000D02*
X120528039Y-73433220D01*
X124037373Y-83075036D02*
X124921437Y-84039826D01*
X132923317Y-88205338D02*
X134315200Y-88374220D01*
X135166100Y-118402100D02*
X134175500Y-118427500D01*
X134175500Y-118427500D02*
X133286500Y-118554500D01*
X133286500Y-118554500D02*
X132923317Y-118661102D01*
X129188763Y-119838604D02*
X128028039Y-120442840D01*
X128028039Y-120442840D02*
X126924393Y-121145938D01*
X126924393Y-121145938D02*
X125886223Y-121942552D01*
X125886223Y-121942552D02*
X124921437Y-122826618D01*
X124921437Y-122826618D02*
X124037373Y-123791406D01*
X124037373Y-123791406D02*
X123240757Y-124829572D01*
X122537659Y-125933220D02*
X121432648Y-128302917D01*
X120585118Y-132125883D02*
X120528039Y-133433220D01*
X120528039Y-133433220D02*
X120470959Y-139740555D01*
X120470959Y-139740555D02*
X120300156Y-141037942D01*
X120300156Y-141037942D02*
X120016926Y-142315505D01*
X120016926Y-142315505D02*
X119623429Y-143563522D01*
X119623429Y-143563522D02*
X119122654Y-144772493D01*
X119122654Y-144772493D02*
X117815320Y-147036866D01*
X117815320Y-147036866D02*
X117018704Y-148075034D01*
X117018704Y-148075034D02*
X116134640Y-149039821D01*
X116134640Y-149039821D02*
X115169854Y-149923886D01*
X115169854Y-149923886D02*
X114131684Y-150720500D01*
X113028039Y-151423601D02*
X111867314Y-152027836D01*
X111867314Y-152027836D02*
X110658341Y-152528609D01*
X110658341Y-152528609D02*
X109410325Y-152922107D01*
X109410325Y-152922107D02*
X108132760Y-153205336D01*
X108132760Y-153205336D02*
X106835373Y-153376140D01*
X106835373Y-153376140D02*
X103528039Y-153433220D01*
X103528039Y-153433220D02*
X103528039Y-149433220D01*
X121432648Y-128302917D02*
X120585118Y-132125883D01*
X123240757Y-124829572D02*
X122537659Y-125933220D01*
X113028039Y-151423601D02*
X114131684Y-150720500D01*
X103528039Y-149433220D02*
X68546980Y-149415500D01*
X68546980Y-149415500D02*
X68511420Y-143449040D01*
X129188763Y-119838604D02*
X130238500Y-119316500D01*
X130238500Y-119316500D02*
X130746500Y-119126000D01*
X130746500Y-119126000D02*
X131645752Y-118944332D01*
X131645752Y-118944332D02*
X132923317Y-118661102D01*
X120528039Y-73433220D02*
X120713500Y-74803000D01*
X120713500Y-74803000D02*
X121031000Y-77089000D01*
X121031000Y-77089000D02*
X121285000Y-78676500D01*
X121285000Y-78676500D02*
X121539000Y-79502000D01*
X121539000Y-79502000D02*
X121729500Y-79946500D01*
X121729500Y-79946500D02*
X122174000Y-80772000D01*
X122174000Y-80772000D02*
X122999500Y-81851500D01*
X122999500Y-81851500D02*
X124037373Y-83075036D01*
X124921437Y-84039826D02*
X125603000Y-84645500D01*
X125603000Y-84645500D02*
X126111000Y-85090000D01*
X126111000Y-85090000D02*
X127317500Y-86233000D01*
X127317500Y-86233000D02*
X129095500Y-87249000D01*
X129095500Y-87249000D02*
X131000500Y-87757000D01*
X131000500Y-87757000D02*
X132923317Y-88205338D01*
X131000500Y-87757000D02*
X132923317Y-88205338D01*
X129095500Y-87249000D02*
X131000500Y-87757000D01*
X127317500Y-86233000D02*
X129095500Y-87249000D01*
X126111000Y-85090000D02*
X127317500Y-86233000D01*
X125603000Y-84645500D02*
X126111000Y-85090000D01*
X124921437Y-84039826D02*
X125603000Y-84645500D01*
X122999500Y-81851500D02*
X124037373Y-83075036D01*
X122174000Y-80772000D02*
X122999500Y-81851500D01*
X121729500Y-79946500D02*
X122174000Y-80772000D01*
X121539000Y-79502000D02*
X121729500Y-79946500D01*
X121285000Y-78676500D02*
X121539000Y-79502000D01*
X121031000Y-77089000D02*
X121285000Y-78676500D01*
X120713500Y-74803000D02*
X121031000Y-77089000D01*
X120528039Y-73433220D02*
X120713500Y-74803000D01*
X131645752Y-118944332D02*
X132923317Y-118661102D01*
X130746500Y-119126000D02*
X131645752Y-118944332D01*
X130238500Y-119316500D02*
X130746500Y-119126000D01*
X129188763Y-119838604D02*
X130238500Y-119316500D01*
X68546980Y-149415500D02*
X68511420Y-143449040D01*
X103528039Y-149433220D02*
X68546980Y-149415500D01*
X113028039Y-151423601D02*
X114131684Y-150720500D01*
X123240757Y-124829572D02*
X122537659Y-125933220D01*
X121432648Y-128302917D02*
X120585118Y-132125883D01*
X103528039Y-153433220D02*
X103528039Y-149433220D01*
X106835373Y-153376140D02*
X103528039Y-153433220D01*
X108132760Y-153205336D02*
X106835373Y-153376140D01*
X109410325Y-152922107D02*
X108132760Y-153205336D01*
X110658341Y-152528609D02*
X109410325Y-152922107D01*
X111867314Y-152027836D02*
X110658341Y-152528609D01*
X113028039Y-151423601D02*
X111867314Y-152027836D01*
X115169854Y-149923886D02*
X114131684Y-150720500D01*
X116134640Y-149039821D02*
X115169854Y-149923886D01*
X117018704Y-148075034D02*
X116134640Y-149039821D01*
X117815320Y-147036866D02*
X117018704Y-148075034D01*
X119122654Y-144772493D02*
X117815320Y-147036866D01*
X119623429Y-143563522D02*
X119122654Y-144772493D01*
X120016926Y-142315505D02*
X119623429Y-143563522D01*
X120300156Y-141037942D02*
X120016926Y-142315505D01*
X120470959Y-139740555D02*
X120300156Y-141037942D01*
X120528039Y-133433220D02*
X120470959Y-139740555D01*
X120585118Y-132125883D02*
X120528039Y-133433220D01*
X122537659Y-125933220D02*
X121432648Y-128302917D01*
X124037373Y-123791406D02*
X123240757Y-124829572D01*
X124921437Y-122826618D02*
X124037373Y-123791406D01*
X125886223Y-121942552D02*
X124921437Y-122826618D01*
X126924393Y-121145938D02*
X125886223Y-121942552D01*
X128028039Y-120442840D02*
X126924393Y-121145938D01*
X129188763Y-119838604D02*
X128028039Y-120442840D01*
X133286500Y-118554500D02*
X132923317Y-118661102D01*
X134175500Y-118427500D02*
X133286500Y-118554500D01*
X135166100Y-118402100D02*
X134175500Y-118427500D01*
X132923317Y-88205338D02*
X134315200Y-88374220D01*
X124037373Y-83075036D02*
X124921437Y-84039826D01*
X118745000Y-61595000D02*
X120528039Y-73433220D01*
X117970300Y-59082940D02*
X118745000Y-61595000D01*
X105481120Y-53416200D02*
X108082080Y-53558440D01*
X116933980Y-57073800D02*
X117970300Y-59082940D01*
X115458240Y-55661560D02*
X116933980Y-57073800D01*
X113827560Y-54782720D02*
X115458240Y-55661560D01*
X111660940Y-54218840D02*
X113827560Y-54782720D01*
X108082080Y-53558440D02*
X111660940Y-54218840D01*
X68534280Y-63383160D02*
X68549520Y-56438800D01*
X65567560Y-63466980D02*
X65528039Y-66397942D01*
X85598000Y-53426360D02*
X105481120Y-53416200D01*
X85618320Y-56362600D02*
X85598000Y-53426360D01*
X68549520Y-56438800D02*
X85618320Y-56362600D01*
X65528039Y-66397942D02*
X65521840Y-143446500D01*
X65521840Y-143446500D02*
X68511420Y-143449040D01*
X65567560Y-63466980D02*
X68534280Y-63383160D01*
X184147460Y-88422480D02*
X134315200Y-88374220D01*
X184137300Y-118397020D02*
X184147460Y-88422480D01*
X135166100Y-118402100D02*
X184137300Y-118397020D01*
M02*
