G04 #@! TF.FileFunction,Legend,Bot*
%FSLAX46Y46*%
G04 Gerber Fmt 4.6, Leading zero omitted, Abs format (unit mm)*
G04 Created by KiCad (PCBNEW 4.0.6) date 03/06/20 14:39:01*
%MOMM*%
%LPD*%
G01*
G04 APERTURE LIST*
%ADD10C,0.100000*%
%ADD11C,0.203200*%
%ADD12C,0.150000*%
G04 APERTURE END LIST*
D10*
D11*
X134035000Y-101130000D02*
X134670000Y-101765000D01*
X134670000Y-101765000D02*
X135305000Y-101130000D01*
X136575000Y-101130000D02*
X137210000Y-101765000D01*
X137210000Y-101765000D02*
X137845000Y-101130000D01*
X139115000Y-101130000D02*
X139750000Y-101765000D01*
X139750000Y-101765000D02*
X140385000Y-101130000D01*
X141655000Y-101130000D02*
X142290000Y-101765000D01*
X142290000Y-101765000D02*
X142925000Y-101130000D01*
X144195000Y-101130000D02*
X144830000Y-101765000D01*
X144830000Y-101765000D02*
X145465000Y-101130000D01*
X146735000Y-101130000D02*
X147370000Y-101765000D01*
X132765000Y-106210000D02*
X134035000Y-106210000D01*
X134035000Y-106210000D02*
X134670000Y-105575000D01*
X134670000Y-105575000D02*
X135305000Y-106210000D01*
X135305000Y-106210000D02*
X136575000Y-106210000D01*
X136575000Y-106210000D02*
X137210000Y-105575000D01*
X137210000Y-105575000D02*
X137845000Y-106210000D01*
X137845000Y-106210000D02*
X139115000Y-106210000D01*
X139115000Y-106210000D02*
X139750000Y-105575000D01*
X139750000Y-105575000D02*
X140385000Y-106210000D01*
X140385000Y-106210000D02*
X141655000Y-106210000D01*
X141655000Y-106210000D02*
X142290000Y-105575000D01*
X142290000Y-105575000D02*
X142925000Y-106210000D01*
X142925000Y-106210000D02*
X144195000Y-106210000D01*
X144195000Y-106210000D02*
X144830000Y-105575000D01*
X144830000Y-105575000D02*
X145465000Y-106210000D01*
X145465000Y-106210000D02*
X146735000Y-106210000D01*
X146735000Y-106210000D02*
X147370000Y-105575000D01*
X147370000Y-105575000D02*
X148005000Y-106210000D01*
X148005000Y-106210000D02*
X149275000Y-106210000D01*
X149275000Y-106210000D02*
X149910000Y-105575000D01*
X149910000Y-101765000D02*
X149275000Y-101130000D01*
X147370000Y-101765000D02*
X148005000Y-101130000D01*
X134670000Y-105575000D02*
X134670000Y-101765000D01*
X137210000Y-105575000D02*
X137210000Y-101765000D01*
X139750000Y-105575000D02*
X139750000Y-101765000D01*
X142290000Y-105575000D02*
X142290000Y-101765000D01*
X144830000Y-105575000D02*
X144830000Y-101765000D01*
X147370000Y-105575000D02*
X147370000Y-101765000D01*
X149910000Y-105575000D02*
X149910000Y-101765000D01*
X148005000Y-101130000D02*
X149275000Y-101130000D01*
X145465000Y-101130000D02*
X146735000Y-101130000D01*
X142925000Y-101130000D02*
X144195000Y-101130000D01*
X140385000Y-101130000D02*
X141655000Y-101130000D01*
X137845000Y-101130000D02*
X139115000Y-101130000D01*
X135305000Y-101130000D02*
X136575000Y-101130000D01*
X132765000Y-101130000D02*
X134035000Y-101130000D01*
X132130000Y-101765000D02*
X132765000Y-101130000D01*
X132130000Y-101765000D02*
X132130000Y-105575000D01*
X132130000Y-105575000D02*
X132765000Y-106210000D01*
X132638000Y-100749000D02*
X134035000Y-100749000D01*
X134035000Y-100749000D02*
X132638000Y-100749000D01*
X189435000Y-101130000D02*
X190070000Y-101765000D01*
X190070000Y-101765000D02*
X190705000Y-101130000D01*
X191975000Y-101130000D02*
X192610000Y-101765000D01*
X192610000Y-101765000D02*
X193245000Y-101130000D01*
X194515000Y-101130000D02*
X195150000Y-101765000D01*
X195150000Y-101765000D02*
X195785000Y-101130000D01*
X197055000Y-101130000D02*
X197690000Y-101765000D01*
X197690000Y-101765000D02*
X198325000Y-101130000D01*
X199595000Y-101130000D02*
X200230000Y-101765000D01*
X200230000Y-101765000D02*
X200865000Y-101130000D01*
X202135000Y-101130000D02*
X202770000Y-101765000D01*
X188165000Y-106210000D02*
X189435000Y-106210000D01*
X189435000Y-106210000D02*
X190070000Y-105575000D01*
X190070000Y-105575000D02*
X190705000Y-106210000D01*
X190705000Y-106210000D02*
X191975000Y-106210000D01*
X191975000Y-106210000D02*
X192610000Y-105575000D01*
X192610000Y-105575000D02*
X193245000Y-106210000D01*
X193245000Y-106210000D02*
X194515000Y-106210000D01*
X194515000Y-106210000D02*
X195150000Y-105575000D01*
X195150000Y-105575000D02*
X195785000Y-106210000D01*
X195785000Y-106210000D02*
X197055000Y-106210000D01*
X197055000Y-106210000D02*
X197690000Y-105575000D01*
X197690000Y-105575000D02*
X198325000Y-106210000D01*
X198325000Y-106210000D02*
X199595000Y-106210000D01*
X199595000Y-106210000D02*
X200230000Y-105575000D01*
X200230000Y-105575000D02*
X200865000Y-106210000D01*
X200865000Y-106210000D02*
X202135000Y-106210000D01*
X202135000Y-106210000D02*
X202770000Y-105575000D01*
X202770000Y-105575000D02*
X203405000Y-106210000D01*
X203405000Y-106210000D02*
X204675000Y-106210000D01*
X204675000Y-106210000D02*
X205310000Y-105575000D01*
X205310000Y-101765000D02*
X204675000Y-101130000D01*
X202770000Y-101765000D02*
X203405000Y-101130000D01*
X190070000Y-105575000D02*
X190070000Y-101765000D01*
X192610000Y-105575000D02*
X192610000Y-101765000D01*
X195150000Y-105575000D02*
X195150000Y-101765000D01*
X197690000Y-105575000D02*
X197690000Y-101765000D01*
X200230000Y-105575000D02*
X200230000Y-101765000D01*
X202770000Y-105575000D02*
X202770000Y-101765000D01*
X205310000Y-105575000D02*
X205310000Y-101765000D01*
X203405000Y-101130000D02*
X204675000Y-101130000D01*
X200865000Y-101130000D02*
X202135000Y-101130000D01*
X198325000Y-101130000D02*
X199595000Y-101130000D01*
X195785000Y-101130000D02*
X197055000Y-101130000D01*
X193245000Y-101130000D02*
X194515000Y-101130000D01*
X190705000Y-101130000D02*
X191975000Y-101130000D01*
X188165000Y-101130000D02*
X189435000Y-101130000D01*
X187530000Y-101765000D02*
X188165000Y-101130000D01*
X187530000Y-101765000D02*
X187530000Y-105575000D01*
X187530000Y-105575000D02*
X188165000Y-106210000D01*
X188038000Y-100749000D02*
X189435000Y-100749000D01*
X189435000Y-100749000D02*
X188038000Y-100749000D01*
X189435000Y-149930000D02*
X190070000Y-150565000D01*
X190070000Y-150565000D02*
X190705000Y-149930000D01*
X191975000Y-149930000D02*
X192610000Y-150565000D01*
X192610000Y-150565000D02*
X193245000Y-149930000D01*
X194515000Y-149930000D02*
X195150000Y-150565000D01*
X195150000Y-150565000D02*
X195785000Y-149930000D01*
X197055000Y-149930000D02*
X197690000Y-150565000D01*
X197690000Y-150565000D02*
X198325000Y-149930000D01*
X199595000Y-149930000D02*
X200230000Y-150565000D01*
X200230000Y-150565000D02*
X200865000Y-149930000D01*
X202135000Y-149930000D02*
X202770000Y-150565000D01*
X188165000Y-155010000D02*
X189435000Y-155010000D01*
X189435000Y-155010000D02*
X190070000Y-154375000D01*
X190070000Y-154375000D02*
X190705000Y-155010000D01*
X190705000Y-155010000D02*
X191975000Y-155010000D01*
X191975000Y-155010000D02*
X192610000Y-154375000D01*
X192610000Y-154375000D02*
X193245000Y-155010000D01*
X193245000Y-155010000D02*
X194515000Y-155010000D01*
X194515000Y-155010000D02*
X195150000Y-154375000D01*
X195150000Y-154375000D02*
X195785000Y-155010000D01*
X195785000Y-155010000D02*
X197055000Y-155010000D01*
X197055000Y-155010000D02*
X197690000Y-154375000D01*
X197690000Y-154375000D02*
X198325000Y-155010000D01*
X198325000Y-155010000D02*
X199595000Y-155010000D01*
X199595000Y-155010000D02*
X200230000Y-154375000D01*
X200230000Y-154375000D02*
X200865000Y-155010000D01*
X200865000Y-155010000D02*
X202135000Y-155010000D01*
X202135000Y-155010000D02*
X202770000Y-154375000D01*
X202770000Y-154375000D02*
X203405000Y-155010000D01*
X203405000Y-155010000D02*
X204675000Y-155010000D01*
X204675000Y-155010000D02*
X205310000Y-154375000D01*
X205310000Y-150565000D02*
X204675000Y-149930000D01*
X202770000Y-150565000D02*
X203405000Y-149930000D01*
X190070000Y-154375000D02*
X190070000Y-150565000D01*
X192610000Y-154375000D02*
X192610000Y-150565000D01*
X195150000Y-154375000D02*
X195150000Y-150565000D01*
X197690000Y-154375000D02*
X197690000Y-150565000D01*
X200230000Y-154375000D02*
X200230000Y-150565000D01*
X202770000Y-154375000D02*
X202770000Y-150565000D01*
X205310000Y-154375000D02*
X205310000Y-150565000D01*
X203405000Y-149930000D02*
X204675000Y-149930000D01*
X200865000Y-149930000D02*
X202135000Y-149930000D01*
X198325000Y-149930000D02*
X199595000Y-149930000D01*
X195785000Y-149930000D02*
X197055000Y-149930000D01*
X193245000Y-149930000D02*
X194515000Y-149930000D01*
X190705000Y-149930000D02*
X191975000Y-149930000D01*
X188165000Y-149930000D02*
X189435000Y-149930000D01*
X187530000Y-150565000D02*
X188165000Y-149930000D01*
X187530000Y-150565000D02*
X187530000Y-154375000D01*
X187530000Y-154375000D02*
X188165000Y-155010000D01*
X188038000Y-149549000D02*
X189435000Y-149549000D01*
X189435000Y-149549000D02*
X188038000Y-149549000D01*
X134035000Y-149930000D02*
X134670000Y-150565000D01*
X134670000Y-150565000D02*
X135305000Y-149930000D01*
X136575000Y-149930000D02*
X137210000Y-150565000D01*
X137210000Y-150565000D02*
X137845000Y-149930000D01*
X139115000Y-149930000D02*
X139750000Y-150565000D01*
X139750000Y-150565000D02*
X140385000Y-149930000D01*
X141655000Y-149930000D02*
X142290000Y-150565000D01*
X142290000Y-150565000D02*
X142925000Y-149930000D01*
X144195000Y-149930000D02*
X144830000Y-150565000D01*
X144830000Y-150565000D02*
X145465000Y-149930000D01*
X146735000Y-149930000D02*
X147370000Y-150565000D01*
X132765000Y-155010000D02*
X134035000Y-155010000D01*
X134035000Y-155010000D02*
X134670000Y-154375000D01*
X134670000Y-154375000D02*
X135305000Y-155010000D01*
X135305000Y-155010000D02*
X136575000Y-155010000D01*
X136575000Y-155010000D02*
X137210000Y-154375000D01*
X137210000Y-154375000D02*
X137845000Y-155010000D01*
X137845000Y-155010000D02*
X139115000Y-155010000D01*
X139115000Y-155010000D02*
X139750000Y-154375000D01*
X139750000Y-154375000D02*
X140385000Y-155010000D01*
X140385000Y-155010000D02*
X141655000Y-155010000D01*
X141655000Y-155010000D02*
X142290000Y-154375000D01*
X142290000Y-154375000D02*
X142925000Y-155010000D01*
X142925000Y-155010000D02*
X144195000Y-155010000D01*
X144195000Y-155010000D02*
X144830000Y-154375000D01*
X144830000Y-154375000D02*
X145465000Y-155010000D01*
X145465000Y-155010000D02*
X146735000Y-155010000D01*
X146735000Y-155010000D02*
X147370000Y-154375000D01*
X147370000Y-154375000D02*
X148005000Y-155010000D01*
X148005000Y-155010000D02*
X149275000Y-155010000D01*
X149275000Y-155010000D02*
X149910000Y-154375000D01*
X149910000Y-150565000D02*
X149275000Y-149930000D01*
X147370000Y-150565000D02*
X148005000Y-149930000D01*
X134670000Y-154375000D02*
X134670000Y-150565000D01*
X137210000Y-154375000D02*
X137210000Y-150565000D01*
X139750000Y-154375000D02*
X139750000Y-150565000D01*
X142290000Y-154375000D02*
X142290000Y-150565000D01*
X144830000Y-154375000D02*
X144830000Y-150565000D01*
X147370000Y-154375000D02*
X147370000Y-150565000D01*
X149910000Y-154375000D02*
X149910000Y-150565000D01*
X148005000Y-149930000D02*
X149275000Y-149930000D01*
X145465000Y-149930000D02*
X146735000Y-149930000D01*
X142925000Y-149930000D02*
X144195000Y-149930000D01*
X140385000Y-149930000D02*
X141655000Y-149930000D01*
X137845000Y-149930000D02*
X139115000Y-149930000D01*
X135305000Y-149930000D02*
X136575000Y-149930000D01*
X132765000Y-149930000D02*
X134035000Y-149930000D01*
X132130000Y-150565000D02*
X132765000Y-149930000D01*
X132130000Y-150565000D02*
X132130000Y-154375000D01*
X132130000Y-154375000D02*
X132765000Y-155010000D01*
X132638000Y-149549000D02*
X134035000Y-149549000D01*
X134035000Y-149549000D02*
X132638000Y-149549000D01*
X148465000Y-283270000D02*
X147830000Y-282635000D01*
X147830000Y-282635000D02*
X147195000Y-283270000D01*
X145925000Y-283270000D02*
X145290000Y-282635000D01*
X145290000Y-282635000D02*
X144655000Y-283270000D01*
X143385000Y-283270000D02*
X142750000Y-282635000D01*
X142750000Y-282635000D02*
X142115000Y-283270000D01*
X140845000Y-283270000D02*
X140210000Y-282635000D01*
X140210000Y-282635000D02*
X139575000Y-283270000D01*
X138305000Y-283270000D02*
X137670000Y-282635000D01*
X137670000Y-282635000D02*
X137035000Y-283270000D01*
X135765000Y-283270000D02*
X135130000Y-282635000D01*
X149735000Y-278190000D02*
X148465000Y-278190000D01*
X148465000Y-278190000D02*
X147830000Y-278825000D01*
X147830000Y-278825000D02*
X147195000Y-278190000D01*
X147195000Y-278190000D02*
X145925000Y-278190000D01*
X145925000Y-278190000D02*
X145290000Y-278825000D01*
X145290000Y-278825000D02*
X144655000Y-278190000D01*
X144655000Y-278190000D02*
X143385000Y-278190000D01*
X143385000Y-278190000D02*
X142750000Y-278825000D01*
X142750000Y-278825000D02*
X142115000Y-278190000D01*
X142115000Y-278190000D02*
X140845000Y-278190000D01*
X140845000Y-278190000D02*
X140210000Y-278825000D01*
X140210000Y-278825000D02*
X139575000Y-278190000D01*
X139575000Y-278190000D02*
X138305000Y-278190000D01*
X138305000Y-278190000D02*
X137670000Y-278825000D01*
X137670000Y-278825000D02*
X137035000Y-278190000D01*
X137035000Y-278190000D02*
X135765000Y-278190000D01*
X135765000Y-278190000D02*
X135130000Y-278825000D01*
X135130000Y-278825000D02*
X134495000Y-278190000D01*
X134495000Y-278190000D02*
X133225000Y-278190000D01*
X133225000Y-278190000D02*
X132590000Y-278825000D01*
X132590000Y-282635000D02*
X133225000Y-283270000D01*
X135130000Y-282635000D02*
X134495000Y-283270000D01*
X147830000Y-278825000D02*
X147830000Y-282635000D01*
X145290000Y-278825000D02*
X145290000Y-282635000D01*
X142750000Y-278825000D02*
X142750000Y-282635000D01*
X140210000Y-278825000D02*
X140210000Y-282635000D01*
X137670000Y-278825000D02*
X137670000Y-282635000D01*
X135130000Y-278825000D02*
X135130000Y-282635000D01*
X132590000Y-278825000D02*
X132590000Y-282635000D01*
X134495000Y-283270000D02*
X133225000Y-283270000D01*
X137035000Y-283270000D02*
X135765000Y-283270000D01*
X139575000Y-283270000D02*
X138305000Y-283270000D01*
X142115000Y-283270000D02*
X140845000Y-283270000D01*
X144655000Y-283270000D02*
X143385000Y-283270000D01*
X147195000Y-283270000D02*
X145925000Y-283270000D01*
X149735000Y-283270000D02*
X148465000Y-283270000D01*
X150370000Y-282635000D02*
X149735000Y-283270000D01*
X150370000Y-282635000D02*
X150370000Y-278825000D01*
X150370000Y-278825000D02*
X149735000Y-278190000D01*
X149862000Y-283651000D02*
X148465000Y-283651000D01*
X148465000Y-283651000D02*
X149862000Y-283651000D01*
X203708000Y-283270000D02*
X203073000Y-282635000D01*
X203073000Y-282635000D02*
X202438000Y-283270000D01*
X201168000Y-283270000D02*
X200533000Y-282635000D01*
X200533000Y-282635000D02*
X199898000Y-283270000D01*
X198628000Y-283270000D02*
X197993000Y-282635000D01*
X197993000Y-282635000D02*
X197358000Y-283270000D01*
X196088000Y-283270000D02*
X195453000Y-282635000D01*
X195453000Y-282635000D02*
X194818000Y-283270000D01*
X193548000Y-283270000D02*
X192913000Y-282635000D01*
X192913000Y-282635000D02*
X192278000Y-283270000D01*
X191008000Y-283270000D02*
X190373000Y-282635000D01*
X204978000Y-278190000D02*
X203708000Y-278190000D01*
X203708000Y-278190000D02*
X203073000Y-278825000D01*
X203073000Y-278825000D02*
X202438000Y-278190000D01*
X202438000Y-278190000D02*
X201168000Y-278190000D01*
X201168000Y-278190000D02*
X200533000Y-278825000D01*
X200533000Y-278825000D02*
X199898000Y-278190000D01*
X199898000Y-278190000D02*
X198628000Y-278190000D01*
X198628000Y-278190000D02*
X197993000Y-278825000D01*
X197993000Y-278825000D02*
X197358000Y-278190000D01*
X197358000Y-278190000D02*
X196088000Y-278190000D01*
X196088000Y-278190000D02*
X195453000Y-278825000D01*
X195453000Y-278825000D02*
X194818000Y-278190000D01*
X194818000Y-278190000D02*
X193548000Y-278190000D01*
X193548000Y-278190000D02*
X192913000Y-278825000D01*
X192913000Y-278825000D02*
X192278000Y-278190000D01*
X192278000Y-278190000D02*
X191008000Y-278190000D01*
X191008000Y-278190000D02*
X190373000Y-278825000D01*
X190373000Y-278825000D02*
X189738000Y-278190000D01*
X189738000Y-278190000D02*
X188468000Y-278190000D01*
X188468000Y-278190000D02*
X187833000Y-278825000D01*
X187833000Y-282635000D02*
X188468000Y-283270000D01*
X190373000Y-282635000D02*
X189738000Y-283270000D01*
X203073000Y-278825000D02*
X203073000Y-282635000D01*
X200533000Y-278825000D02*
X200533000Y-282635000D01*
X197993000Y-278825000D02*
X197993000Y-282635000D01*
X195453000Y-278825000D02*
X195453000Y-282635000D01*
X192913000Y-278825000D02*
X192913000Y-282635000D01*
X190373000Y-278825000D02*
X190373000Y-282635000D01*
X187833000Y-278825000D02*
X187833000Y-282635000D01*
X189738000Y-283270000D02*
X188468000Y-283270000D01*
X192278000Y-283270000D02*
X191008000Y-283270000D01*
X194818000Y-283270000D02*
X193548000Y-283270000D01*
X197358000Y-283270000D02*
X196088000Y-283270000D01*
X199898000Y-283270000D02*
X198628000Y-283270000D01*
X202438000Y-283270000D02*
X201168000Y-283270000D01*
X204978000Y-283270000D02*
X203708000Y-283270000D01*
X205613000Y-282635000D02*
X204978000Y-283270000D01*
X205613000Y-282635000D02*
X205613000Y-278825000D01*
X205613000Y-278825000D02*
X204978000Y-278190000D01*
X205105000Y-283651000D02*
X203708000Y-283651000D01*
X203708000Y-283651000D02*
X205105000Y-283651000D01*
D12*
X165075000Y-213209143D02*
X165027381Y-213256762D01*
X165075000Y-213304381D01*
X165122619Y-213256762D01*
X165075000Y-213209143D01*
X165075000Y-213304381D01*
M02*
