M48
;DRILL file {KiCad 4.0.6} date 03/06/20 14:39:06
;FORMAT={-:-/ absolute / inch / decimal}
FMAT,2
INCH,TZ
T1C0.016
T2C0.031
T3C0.035
T4C0.039
T5C0.040
T6C0.051
T7C0.055
%
G90
G05
M72
T1
X4.809Y-9.7615
X4.9575Y-8.022
X5.058Y-10.135
X5.3128Y-3.9322
X5.432Y-10.087
X5.6255Y-9.185
X5.7Y-11.629
X5.752Y-10.7359
X5.8474Y-4.3148
X5.8571Y-5.1149
X5.866Y-10.2927
X5.977Y-9.1545
X5.9923Y-6.0619
X5.9941Y-5.704
X6.0065Y-4.2756
X6.0763Y-5.6889
X6.0859Y-3.9723
X6.1285Y-8.708
X6.1425Y-9.96
X6.2085Y-9.7725
X6.2309Y-4.1537
X6.2493Y-4.201
X6.369Y-9.1545
X6.645Y-10.339
X6.688Y-10.947
X6.8Y-11.0966
X6.8565Y-11.6655
X6.8809Y-8.5756
X6.8975Y-9.293
X6.9025Y-9.8725
X6.9554Y-11.1315
X7.1015Y-9.2915
X7.1164Y-5.8573
X7.1549Y-9.3566
X7.1605Y-6.038
X7.1676Y-6.1945
X7.1763Y-8.2802
X7.214Y-11.5325
X7.2572Y-10.903
X7.2682Y-5.8478
X7.2892Y-6.0528
X7.2995Y-11.0365
X7.345Y-11.1135
X7.3627Y-4.3055
X7.395Y-11.4225
X7.402Y-10.7769
X7.4547Y-9.9457
X7.5195Y-11.4005
X7.575Y-7.055
X7.6412Y-10.7951
X8.232Y-10.7895
X8.2354Y-5.8866
X8.512Y-10.494
X8.643Y-10.6295
X8.7535Y-10.2535
X8.766Y-10.3995
X8.9434Y-9.5049
X8.955Y-10.1715
X9.0055Y-10.6295
X9.01Y-11.135
X9.031Y-9.9725
X9.0331Y-9.1147
X9.0905Y-11.0705
X9.335Y-5.075
X9.3932Y-7.5882
X9.5179Y-9.1283
X9.7621Y-8.0759
X9.7644Y-8.5579
X9.7732Y-8.5096
X10.629Y-8.5455
X11.661Y-7.5015
X12.012Y-6.798
X12.36Y-4.175
X12.395Y-3.84
X13.7Y-4.494
X13.7645Y-4.039
X13.961Y-4.398
X14.3475Y-4.2515
X15.105Y-4.404
X15.6905Y-11.0065
X15.917Y-10.773
X16.171Y-10.7815
X16.227Y-10.386
X16.281Y-11.6425
X16.5195Y-10.5105
X17.8037Y-3.9187
X17.8222Y-3.7275
X17.8474Y-3.6848
X17.9285Y-3.6824
X17.9383Y-3.9261
X18.0171Y-3.9276
X18.0859Y-3.6825
X18.0958Y-3.9263
X18.1478Y-3.6806
X18.172Y-3.926
X18.2533Y-3.4993
X18.2692Y-3.9263
X18.332Y-3.6796
X18.3393Y-3.9259
T2
X12.774Y-3.5547
X12.774Y-3.6547
X12.774Y-3.7547
X12.774Y-3.9547
X12.974Y-3.5547
X12.974Y-3.6547
X12.974Y-3.7547
X12.974Y-3.9547
X13.4039Y-3.5547
X13.4039Y-3.6547
X13.4039Y-3.7547
X13.4039Y-3.9547
X13.6039Y-3.5547
X13.6039Y-3.6547
X13.6039Y-3.7547
X13.6039Y-3.9547
X14.0339Y-3.5547
X14.0339Y-3.6547
X14.0339Y-3.7547
X14.0339Y-3.9547
X14.2339Y-3.5547
X14.2339Y-3.6547
X14.2339Y-3.7547
X14.2339Y-3.9547
X14.6638Y-3.5547
X14.6638Y-3.6547
X14.6638Y-3.7547
X14.6638Y-3.9547
X14.8638Y-3.5547
X14.8638Y-3.6547
X14.8638Y-3.7547
X14.8638Y-3.9547
X15.2937Y-3.5547
X15.2937Y-3.6547
X15.2937Y-3.7547
X15.2937Y-3.9547
X15.4937Y-3.5547
X15.4937Y-3.6547
X15.4937Y-3.7547
X15.4937Y-3.9547
X15.5527Y-10.6691
X15.5527Y-11.2691
X15.8283Y-10.6691
X15.8283Y-11.2691
X16.1039Y-10.6691
X16.1039Y-11.2691
X16.3795Y-10.6691
X16.3795Y-11.2691
X16.632Y-5.646
X16.6551Y-10.6691
X16.6551Y-11.2691
X16.732Y-5.646
X16.9307Y-10.6691
X16.9307Y-11.2691
X17.2063Y-10.6691
X17.2063Y-11.2691
X17.2441Y-4.932
X17.2441Y-5.579
X17.3425Y-4.932
X17.3425Y-5.579
T3
X12.061Y-9.176
X12.161Y-9.176
X12.189Y-8.934
X12.289Y-8.934
X12.317Y-9.173
X12.417Y-9.173
X15.8049Y-11.5682
X15.8049Y-11.9682
X16.1198Y-11.5682
X16.1198Y-11.9682
X16.4348Y-11.5682
X16.4348Y-11.9682
X16.744Y-9.126
X16.7498Y-11.5682
X16.7498Y-11.9682
X16.844Y-9.126
X17.0647Y-11.5682
X17.0647Y-11.9682
X18.068Y-10.683
X18.068Y-11.283
X18.168Y-10.683
X18.168Y-11.283
X18.268Y-10.683
X18.268Y-11.283
X18.368Y-10.683
X18.368Y-11.283
X18.468Y-10.683
X18.468Y-11.283
X18.568Y-10.683
X18.568Y-11.283
X18.668Y-10.683
X18.668Y-11.283
X18.768Y-10.683
X18.768Y-11.283
X18.868Y-10.683
X18.868Y-11.283
X18.968Y-10.683
X18.968Y-11.283
X19.068Y-10.683
X19.068Y-11.283
X19.168Y-10.683
X19.168Y-11.283
X19.268Y-10.683
X19.268Y-11.283
X19.368Y-10.683
X19.368Y-11.283
X19.468Y-10.683
X19.468Y-11.283
T4
X16.3213Y-6.336
X16.3882Y-6.336
X16.4552Y-6.336
X16.5221Y-6.336
X16.589Y-6.336
X17.3622Y-11.6142
X17.4622Y-11.6142
X17.6772Y-11.6142
X17.7772Y-11.6142
X18.0315Y-11.6142
X18.1315Y-11.6142
X18.3465Y-11.6142
X18.4465Y-11.6142
T5
X5.159Y-7.64
X5.159Y-7.74
X5.159Y-7.84
X5.159Y-7.94
X5.159Y-8.04
X5.159Y-8.14
X5.159Y-8.24
X5.159Y-8.34
X5.159Y-8.44
X5.159Y-8.54
X5.159Y-8.64
X5.159Y-8.74
X5.159Y-8.84
X5.159Y-8.94
X5.159Y-9.04
X5.159Y-9.14
X5.159Y-9.24
X5.159Y-9.34
X5.252Y-4.0315
X5.252Y-4.1315
X5.252Y-5.9528
X5.252Y-6.0528
X5.259Y-7.64
X5.259Y-7.74
X5.259Y-7.84
X5.259Y-7.94
X5.259Y-8.04
X5.259Y-8.14
X5.259Y-8.24
X5.259Y-8.34
X5.259Y-8.44
X5.259Y-8.54
X5.259Y-8.64
X5.259Y-8.74
X5.259Y-8.84
X5.259Y-8.94
X5.259Y-9.04
X5.259Y-9.14
X5.259Y-9.24
X5.259Y-9.34
X5.2701Y-11.0024
X5.2701Y-11.1024
X5.352Y-4.0315
X5.352Y-4.1315
X5.352Y-5.9528
X5.352Y-6.0528
X5.359Y-9.54
X5.3701Y-11.0024
X5.3701Y-11.1024
X5.452Y-4.0315
X5.452Y-4.1315
X5.452Y-5.9528
X5.452Y-6.0528
X5.459Y-9.54
X5.4701Y-11.0024
X5.4701Y-11.1024
X5.552Y-4.0315
X5.552Y-4.1315
X5.552Y-5.9528
X5.552Y-6.0528
X5.559Y-7.64
X5.559Y-9.54
X5.5701Y-11.0024
X5.5701Y-11.1024
X5.652Y-4.0315
X5.652Y-4.1315
X5.652Y-5.9528
X5.652Y-6.0528
X5.659Y-7.64
X5.659Y-9.54
X5.6701Y-11.0024
X5.6701Y-11.1024
X5.752Y-4.0315
X5.752Y-4.1315
X5.752Y-5.9528
X5.752Y-6.0528
X5.759Y-7.64
X5.759Y-9.54
X5.7701Y-11.0024
X5.7701Y-11.1024
X5.852Y-4.0315
X5.852Y-4.1315
X5.852Y-5.9528
X5.852Y-6.0528
X5.859Y-7.64
X5.859Y-9.54
X5.8701Y-11.0024
X5.8701Y-11.1024
X5.959Y-7.64
X5.959Y-9.54
X6.059Y-7.64
X6.059Y-9.54
X6.159Y-7.64
X6.259Y-7.64
X6.259Y-9.54
X6.354Y-8.44
X6.354Y-8.54
X6.354Y-8.64
X6.359Y-9.54
X6.454Y-8.44
X6.454Y-8.54
X6.454Y-8.64
X6.459Y-7.64
X6.459Y-9.54
X6.559Y-7.64
X6.559Y-9.54
X6.659Y-7.64
X6.659Y-9.54
X6.759Y-7.64
X6.759Y-9.54
X6.859Y-7.64
X6.859Y-9.54
X6.959Y-7.64
X6.959Y-9.54
X7.059Y-7.64
X7.159Y-7.64
X7.159Y-9.54
X7.259Y-9.54
X7.319Y-7.64
X7.359Y-9.54
X7.419Y-7.64
X7.4331Y-4.0315
X7.4331Y-4.1315
X7.4331Y-5.9528
X7.4331Y-6.0528
X7.445Y-11.0024
X7.445Y-11.1024
X7.459Y-9.54
X7.519Y-7.64
X7.5331Y-4.0315
X7.5331Y-4.1315
X7.5331Y-5.9528
X7.5331Y-6.0528
X7.545Y-11.0024
X7.545Y-11.1024
X7.559Y-9.54
X7.619Y-7.64
X7.6331Y-4.0315
X7.6331Y-4.1315
X7.6331Y-5.9528
X7.6331Y-6.0528
X7.645Y-11.0024
X7.645Y-11.1024
X7.659Y-9.54
X7.719Y-7.64
X7.7331Y-4.0315
X7.7331Y-4.1315
X7.7331Y-5.9528
X7.7331Y-6.0528
X7.745Y-11.0024
X7.745Y-11.1024
X7.759Y-9.54
X7.819Y-7.64
X7.8331Y-4.0315
X7.8331Y-4.1315
X7.8331Y-5.9528
X7.8331Y-6.0528
X7.845Y-11.0024
X7.845Y-11.1024
X7.859Y-9.54
X7.919Y-7.64
X7.9331Y-4.0315
X7.9331Y-4.1315
X7.9331Y-5.9528
X7.9331Y-6.0528
X7.945Y-11.0024
X7.945Y-11.1024
X8.019Y-7.64
X8.0331Y-4.0315
X8.0331Y-4.1315
X8.0331Y-5.9528
X8.0331Y-6.0528
X8.045Y-11.0024
X8.045Y-11.1024
X8.119Y-7.64
X8.219Y-7.64
X10.472Y-8.145
X10.472Y-8.263
X10.472Y-8.381
X10.4726Y-8.8668
X10.4726Y-8.9848
X10.4726Y-9.1028
X10.4726Y-9.2208
X10.4726Y-9.3388
X10.4726Y-9.4568
X10.4726Y-9.5748
X10.59Y-8.145
X10.59Y-8.263
X10.59Y-8.381
X10.5906Y-8.8668
X10.5906Y-8.9848
X10.5906Y-9.1028
X10.5906Y-9.2208
X10.5906Y-9.3388
X10.5906Y-9.4568
X10.5906Y-9.5748
X11.9292Y-5.9215
X11.9292Y-6.0395
X11.9292Y-6.1575
X12.0472Y-5.9215
X12.0472Y-6.0395
X12.0472Y-6.1575
X12.63Y-5.9215
X12.63Y-6.0395
X12.63Y-6.1575
X12.63Y-6.8035
X12.63Y-6.9215
X12.63Y-7.0395
X12.63Y-7.1575
X12.748Y-5.9215
X12.748Y-6.0395
X12.748Y-6.1575
X12.748Y-6.8035
X12.748Y-6.9215
X12.748Y-7.0395
X12.748Y-7.1575
X15.9686Y-4.9455
X15.9686Y-5.0635
X15.9686Y-5.1815
X15.9686Y-5.2995
X15.9686Y-5.4175
X15.9686Y-5.5355
X15.9686Y-5.6535
X16.0866Y-4.9455
X16.0866Y-5.0635
X16.0866Y-5.1815
X16.0866Y-5.2995
X16.0866Y-5.4175
X16.0866Y-5.5355
X16.0866Y-5.6535
T6
X14.5276Y-11.6142
X14.5276Y-11.9142
X15.1307Y-11.6142
X15.1307Y-11.9142
X15.3276Y-11.6142
X15.3276Y-11.9142
X15.5244Y-11.6142
X15.5244Y-11.9142
X16.007Y-3.419
X16.007Y-4.0221
X16.007Y-4.219
X16.007Y-4.4159
X16.307Y-3.419
X16.307Y-4.0221
X16.307Y-4.219
X16.307Y-4.4159
T7
X16.699Y-4.806
X16.699Y-5.206
T0
M30
