G04 #@! TF.FileFunction,Copper,L1,Top,Signal*
%FSLAX46Y46*%
G04 Gerber Fmt 4.6, Leading zero omitted, Abs format (unit mm)*
G04 Created by KiCad (PCBNEW 4.0.6) date 03/06/20 14:39:01*
%MOMM*%
%LPD*%
G01*
G04 APERTURE LIST*
%ADD10C,0.100000*%
%ADD11C,1.879600*%
%ADD12R,1.600000X1.600000*%
%ADD13C,1.600000*%
%ADD14R,1.800000X1.800000*%
%ADD15C,1.800000*%
%ADD16O,1.800000X1.800000*%
%ADD17R,2.800000X2.800000*%
%ADD18O,2.800000X2.800000*%
%ADD19R,1.200000X1.200000*%
%ADD20C,1.200000*%
%ADD21R,1.700000X1.700000*%
%ADD22O,1.700000X1.700000*%
%ADD23C,3.000000*%
%ADD24R,1.350000X1.800000*%
%ADD25O,1.350000X1.800000*%
%ADD26O,1.600000X1.600000*%
%ADD27R,1.000000X2.750000*%
%ADD28O,1.727200X1.727200*%
%ADD29C,0.600000*%
%ADD30C,0.250000*%
G04 APERTURE END LIST*
D10*
D11*
X133400000Y-102400000D03*
X133400000Y-104940000D03*
X135940000Y-102400000D03*
X135940000Y-104940000D03*
X138480000Y-102400000D03*
X138480000Y-104940000D03*
X141020000Y-102400000D03*
X141020000Y-104940000D03*
X143560000Y-102400000D03*
X143560000Y-104940000D03*
X146100000Y-102400000D03*
X146100000Y-104940000D03*
X148640000Y-102400000D03*
X148640000Y-104940000D03*
X188800000Y-102400000D03*
X188800000Y-104940000D03*
X191340000Y-102400000D03*
X191340000Y-104940000D03*
X193880000Y-102400000D03*
X193880000Y-104940000D03*
X196420000Y-102400000D03*
X196420000Y-104940000D03*
X198960000Y-102400000D03*
X198960000Y-104940000D03*
X201500000Y-102400000D03*
X201500000Y-104940000D03*
X204040000Y-102400000D03*
X204040000Y-104940000D03*
X188800000Y-151200000D03*
X188800000Y-153740000D03*
X191340000Y-151200000D03*
X191340000Y-153740000D03*
X193880000Y-151200000D03*
X193880000Y-153740000D03*
X196420000Y-151200000D03*
X196420000Y-153740000D03*
X198960000Y-151200000D03*
X198960000Y-153740000D03*
X201500000Y-151200000D03*
X201500000Y-153740000D03*
X204040000Y-151200000D03*
X204040000Y-153740000D03*
X133400000Y-151200000D03*
X133400000Y-153740000D03*
X135940000Y-151200000D03*
X135940000Y-153740000D03*
X138480000Y-151200000D03*
X138480000Y-153740000D03*
X141020000Y-151200000D03*
X141020000Y-153740000D03*
X143560000Y-151200000D03*
X143560000Y-153740000D03*
X146100000Y-151200000D03*
X146100000Y-153740000D03*
X148640000Y-151200000D03*
X148640000Y-153740000D03*
X149100000Y-282000000D03*
X149100000Y-279460000D03*
X146560000Y-282000000D03*
X146560000Y-279460000D03*
X144020000Y-282000000D03*
X144020000Y-279460000D03*
X141480000Y-282000000D03*
X141480000Y-279460000D03*
X138940000Y-282000000D03*
X138940000Y-279460000D03*
X136400000Y-282000000D03*
X136400000Y-279460000D03*
X133860000Y-282000000D03*
X133860000Y-279460000D03*
X204343000Y-282000000D03*
X204343000Y-279460000D03*
X201803000Y-282000000D03*
X201803000Y-279460000D03*
X199263000Y-282000000D03*
X199263000Y-279460000D03*
X196723000Y-282000000D03*
X196723000Y-279460000D03*
X194183000Y-282000000D03*
X194183000Y-279460000D03*
X191643000Y-282000000D03*
X191643000Y-279460000D03*
X189103000Y-282000000D03*
X189103000Y-279460000D03*
D12*
X438000000Y-141707000D03*
D13*
X440500000Y-141707000D03*
D12*
X438000000Y-125273000D03*
D13*
X440500000Y-125273000D03*
D14*
X312852000Y-232995000D03*
D15*
X315392000Y-232995000D03*
D14*
X401444000Y-293832000D03*
D16*
X401444000Y-303992000D03*
D14*
X409444000Y-293832000D03*
D16*
X409444000Y-303992000D03*
D14*
X417444000Y-293832000D03*
D16*
X417444000Y-303992000D03*
D14*
X425444000Y-293832000D03*
D16*
X425444000Y-303992000D03*
D14*
X425298000Y-231800000D03*
D15*
X427838000Y-231800000D03*
D17*
X424155000Y-122072000D03*
D18*
X424155000Y-132232000D03*
D14*
X433444000Y-293832000D03*
D16*
X433444000Y-303992000D03*
D14*
X309601000Y-226924000D03*
D15*
X312141000Y-226924000D03*
D14*
X306350000Y-233071000D03*
D15*
X308890000Y-233071000D03*
D19*
X393540000Y-100450000D03*
D20*
X388460000Y-100450000D03*
X393540000Y-95370000D03*
X388460000Y-90290000D03*
X393540000Y-92830000D03*
X393540000Y-90290000D03*
X388460000Y-95370000D03*
X388460000Y-92830000D03*
D19*
X361540000Y-100450000D03*
D20*
X356460000Y-100450000D03*
X361540000Y-95370000D03*
X356460000Y-90290000D03*
X361540000Y-92830000D03*
X361540000Y-90290000D03*
X356460000Y-95370000D03*
X356460000Y-92830000D03*
D19*
X345540000Y-100450000D03*
D20*
X340460000Y-100450000D03*
X345540000Y-95370000D03*
X340460000Y-90290000D03*
X345540000Y-92830000D03*
X345540000Y-90290000D03*
X340460000Y-95370000D03*
X340460000Y-92830000D03*
D19*
X329540000Y-100450000D03*
D20*
X324460000Y-100450000D03*
X329540000Y-95370000D03*
X324460000Y-90290000D03*
X329540000Y-92830000D03*
X329540000Y-90290000D03*
X324460000Y-95370000D03*
X324460000Y-92830000D03*
D19*
X377540000Y-100450000D03*
D20*
X372460000Y-100450000D03*
X377540000Y-95370000D03*
X372460000Y-90290000D03*
X377540000Y-92830000D03*
X377540000Y-90290000D03*
X372460000Y-95370000D03*
X372460000Y-92830000D03*
D21*
X466000000Y-295000000D03*
D22*
X468540000Y-295000000D03*
D14*
X458927000Y-286588000D03*
D15*
X461467000Y-286588000D03*
X464007000Y-286588000D03*
X466547000Y-286588000D03*
X469087000Y-286588000D03*
X471627000Y-286588000D03*
X474167000Y-286588000D03*
X476707000Y-286588000D03*
X479247000Y-286588000D03*
X481787000Y-286588000D03*
X484327000Y-286588000D03*
X486867000Y-286588000D03*
X489407000Y-286588000D03*
X491947000Y-286588000D03*
X494487000Y-286588000D03*
X494487000Y-271348000D03*
X491947000Y-271348000D03*
X489407000Y-271348000D03*
X486867000Y-271348000D03*
X484327000Y-271348000D03*
X481787000Y-271348000D03*
X479247000Y-271348000D03*
X476707000Y-271348000D03*
X474167000Y-271348000D03*
X471627000Y-271348000D03*
X469087000Y-271348000D03*
X466547000Y-271348000D03*
X464007000Y-271348000D03*
X461467000Y-271348000D03*
X458927000Y-271348000D03*
D23*
X414198000Y-86842600D03*
X406578000Y-86842600D03*
X414198000Y-107162600D03*
X406578000Y-112162600D03*
X406578000Y-102162600D03*
X414198000Y-102162600D03*
X406578000Y-107162600D03*
X414198000Y-112162600D03*
D24*
X421361000Y-160934000D03*
D25*
X419661000Y-160934000D03*
X417961000Y-160934000D03*
X416261000Y-160934000D03*
X414561000Y-160934000D03*
D21*
X449000000Y-295000000D03*
D22*
X451540000Y-295000000D03*
D13*
X422453000Y-143408000D03*
D26*
X424993000Y-143408000D03*
D21*
X458000000Y-295000000D03*
D22*
X460540000Y-295000000D03*
D27*
X453634000Y-91183600D03*
X453634000Y-97433600D03*
X455634000Y-91183600D03*
X455634000Y-97433600D03*
X457634000Y-91183600D03*
X457634000Y-97433600D03*
X459634000Y-91183600D03*
X459634000Y-97433600D03*
X461634000Y-91183600D03*
X461634000Y-97433600D03*
X463634000Y-91183600D03*
X463634000Y-97433600D03*
X465634000Y-91183600D03*
X465634000Y-97433600D03*
D13*
X395039000Y-286236000D03*
D26*
X395039000Y-270996000D03*
D13*
X402039000Y-286236000D03*
D26*
X402039000Y-270996000D03*
D13*
X409039000Y-286236000D03*
D26*
X409039000Y-270996000D03*
D13*
X416039000Y-286236000D03*
D26*
X416039000Y-270996000D03*
D13*
X423039000Y-286236000D03*
D26*
X423039000Y-270996000D03*
D23*
X369000000Y-295000000D03*
X369000000Y-302620000D03*
X389320000Y-295000000D03*
X394320000Y-302620000D03*
X384320000Y-302620000D03*
X384320000Y-295000000D03*
X389320000Y-302620000D03*
X394320000Y-295000000D03*
D13*
X437039000Y-286236000D03*
D26*
X437039000Y-270996000D03*
D13*
X430039000Y-286236000D03*
D26*
X430039000Y-270996000D03*
D28*
X163932000Y-219456000D03*
X161392000Y-219456000D03*
X161392000Y-216916000D03*
X163932000Y-216916000D03*
X161392000Y-214376000D03*
X176759000Y-242316000D03*
X181839000Y-242316000D03*
X184379000Y-242316000D03*
X186919000Y-242316000D03*
X189459000Y-242316000D03*
X191999000Y-242316000D03*
X194539000Y-242316000D03*
X197079000Y-242316000D03*
X141199000Y-194056000D03*
X143739000Y-194056000D03*
X146279000Y-194056000D03*
X148819000Y-194056000D03*
X151359000Y-194056000D03*
X153899000Y-194056000D03*
X156439000Y-194056000D03*
X158979000Y-194056000D03*
X164059000Y-194056000D03*
X166599000Y-194056000D03*
X169139000Y-194056000D03*
X171679000Y-194056000D03*
X174219000Y-194056000D03*
X176759000Y-194056000D03*
X179299000Y-194056000D03*
X181839000Y-194056000D03*
X201143000Y-194056000D03*
X185903000Y-194056000D03*
X188443000Y-194056000D03*
X190983000Y-194056000D03*
X208763000Y-194056000D03*
X206223000Y-194056000D03*
X203683000Y-194056000D03*
X198603000Y-194056000D03*
X196063000Y-194056000D03*
X193523000Y-194056000D03*
X199619000Y-242316000D03*
X174219000Y-242316000D03*
X171679000Y-242316000D03*
X169139000Y-242316000D03*
X166599000Y-242316000D03*
X164059000Y-242316000D03*
X161519000Y-242316000D03*
X158979000Y-242316000D03*
X153899000Y-242316000D03*
X151359000Y-242316000D03*
X148819000Y-242316000D03*
X146279000Y-242316000D03*
X143739000Y-242316000D03*
X141199000Y-242316000D03*
X138659000Y-242316000D03*
X136119000Y-242316000D03*
X133579000Y-194056000D03*
X131039000Y-194056000D03*
X133579000Y-196596000D03*
X131039000Y-196596000D03*
X133579000Y-199136000D03*
X131039000Y-199136000D03*
X133579000Y-201676000D03*
X131039000Y-201676000D03*
X133579000Y-204216000D03*
X131039000Y-204216000D03*
X133579000Y-206756000D03*
X131039000Y-206756000D03*
X133579000Y-209296000D03*
X131039000Y-209296000D03*
X133579000Y-211836000D03*
X131039000Y-211836000D03*
X133579000Y-214376000D03*
X131039000Y-214376000D03*
X133579000Y-216916000D03*
X131039000Y-216916000D03*
X133579000Y-219456000D03*
X131039000Y-219456000D03*
X133579000Y-221996000D03*
X131039000Y-221996000D03*
X133579000Y-224536000D03*
X131039000Y-224536000D03*
X133579000Y-227076000D03*
X131039000Y-227076000D03*
X133579000Y-229616000D03*
X131039000Y-229616000D03*
X133579000Y-232156000D03*
X131039000Y-232156000D03*
X133579000Y-234696000D03*
X131039000Y-234696000D03*
X133579000Y-237236000D03*
X131039000Y-237236000D03*
X163932000Y-214376000D03*
D11*
X269000000Y-243200000D03*
X266002800Y-243200000D03*
X269000000Y-240202800D03*
X266002800Y-240202800D03*
X269000000Y-237205600D03*
X266002800Y-237205600D03*
X269000000Y-234208400D03*
X266002800Y-234208400D03*
X269000000Y-231211200D03*
X266002800Y-231211200D03*
X269000000Y-228214000D03*
X266002800Y-228214000D03*
X269000000Y-225216800D03*
X266002800Y-225216800D03*
X408600000Y-143600000D03*
X405602800Y-143600000D03*
X408600000Y-140602800D03*
X405602800Y-140602800D03*
X408600000Y-137605600D03*
X405602800Y-137605600D03*
X408600000Y-134608400D03*
X405602800Y-134608400D03*
X408600000Y-131611200D03*
X405602800Y-131611200D03*
X408600000Y-128614000D03*
X405602800Y-128614000D03*
X408600000Y-125616800D03*
X405602800Y-125616800D03*
X323800000Y-181800000D03*
X320802800Y-181800000D03*
X323800000Y-178802800D03*
X320802800Y-178802800D03*
X323800000Y-175805600D03*
X320802800Y-175805600D03*
X323800000Y-172808400D03*
X320802800Y-172808400D03*
X323800000Y-156400000D03*
X320802800Y-156400000D03*
X323800000Y-153402800D03*
X320802800Y-153402800D03*
X323800000Y-150405600D03*
X320802800Y-150405600D03*
X306000000Y-156400000D03*
X303002800Y-156400000D03*
X306000000Y-153402800D03*
X303002800Y-153402800D03*
X306000000Y-150405600D03*
X303002800Y-150405600D03*
X268986000Y-212877000D03*
X265988800Y-212877000D03*
X268986000Y-209879800D03*
X265988800Y-209879800D03*
X268986000Y-206882600D03*
X265988800Y-206882600D03*
D21*
X441000000Y-295000000D03*
D22*
X443540000Y-295000000D03*
D29*
X125920500Y-203758800D03*
X412165800Y-263804400D03*
X419595300Y-266966700D03*
X364426500Y-107988100D03*
X237109000Y-128905000D03*
X410743400Y-273850100D03*
X404291800Y-273634200D03*
X398538700Y-279565100D03*
X134945200Y-99877600D03*
X227162100Y-241425000D03*
X190995300Y-289572700D03*
X187011900Y-109359200D03*
X185146300Y-153740000D03*
X227457000Y-258356100D03*
X222656400Y-264147300D03*
X209092800Y-274053300D03*
X172721100Y-281852500D03*
X184611800Y-148533300D03*
X184332800Y-276936600D03*
X181877800Y-153365700D03*
X137972800Y-256209800D03*
X156019500Y-252984000D03*
X175323500Y-250761500D03*
X181733500Y-237656400D03*
X176666600Y-282740400D03*
X180757800Y-148776600D03*
X194087400Y-274196400D03*
X152205100Y-153972600D03*
X248016400Y-217370800D03*
X152565500Y-108600600D03*
X158732300Y-106705500D03*
X228739700Y-269989300D03*
X219532200Y-269989300D03*
X169875200Y-278053800D03*
X185407300Y-280327100D03*
X152250800Y-144882700D03*
X209179500Y-149520600D03*
X146101700Y-272691300D03*
X248240500Y-216144900D03*
X182055900Y-157340800D03*
X187833000Y-290131500D03*
X174155100Y-296303700D03*
X229387400Y-253301500D03*
X222338900Y-260438900D03*
X216204800Y-266547600D03*
X188009900Y-273732600D03*
X158266000Y-105504200D03*
X241755400Y-231858300D03*
X229441600Y-231513100D03*
X186563000Y-282282900D03*
X154338500Y-144497200D03*
X154581100Y-100895900D03*
X238587800Y-192740700D03*
X144780000Y-295376600D03*
X247956900Y-205127000D03*
X148770700Y-129919200D03*
X148522900Y-109596100D03*
X453324500Y-93593400D03*
X452214200Y-99533900D03*
X455384800Y-93533100D03*
X455634000Y-99721900D03*
X452684300Y-94679000D03*
X457634000Y-99760300D03*
X459381400Y-93536500D03*
X459634000Y-99727400D03*
X460953300Y-93487800D03*
X461569200Y-99720000D03*
X463634000Y-88881100D03*
X464037400Y-99726800D03*
X465634000Y-93461000D03*
X465817400Y-99717300D03*
X180378100Y-236004100D03*
X269976600Y-217055700D03*
X305104800Y-172669200D03*
X192405000Y-179197000D03*
X142887700Y-233299000D03*
X151815800Y-232524300D03*
X296189400Y-190538100D03*
X161772600Y-232524300D03*
X128473200Y-257429000D03*
X182277300Y-210317700D03*
X174774000Y-217821000D03*
X313944000Y-106045000D03*
X314833000Y-97536000D03*
X354609400Y-111709200D03*
X349618300Y-102590600D03*
X383667000Y-111861600D03*
X347980000Y-114147600D03*
X189349400Y-252619900D03*
X413537400Y-295719500D03*
X122148600Y-247942100D03*
X183235600Y-292925500D03*
X175196500Y-236042200D03*
X155663900Y-221183200D03*
X148996200Y-261434300D03*
X230898700Y-281190700D03*
X157695900Y-248221500D03*
X168783000Y-262610600D03*
X228854000Y-282829000D03*
D30*
X127381000Y-223418000D02*
X131039000Y-227076000D01*
X127381000Y-205219300D02*
X127381000Y-223418000D01*
X125920500Y-203758800D02*
X127381000Y-205219300D01*
X417444000Y-293832000D02*
X414367700Y-293832000D01*
X146189700Y-229616000D02*
X133579000Y-229616000D01*
X156565600Y-239991900D02*
X146189700Y-229616000D01*
X156565600Y-245465600D02*
X156565600Y-239991900D01*
X158877000Y-247777000D02*
X156565600Y-245465600D01*
X200660000Y-247777000D02*
X158877000Y-247777000D01*
X236296200Y-283413200D02*
X200660000Y-247777000D01*
X403948900Y-283413200D02*
X236296200Y-283413200D01*
X414367700Y-293832000D02*
X403948900Y-283413200D01*
X417444000Y-293832000D02*
X417444000Y-293619000D01*
X417444000Y-293619000D02*
X412165800Y-288340800D01*
X412165800Y-288340800D02*
X412165800Y-263804400D01*
X419595300Y-266966700D02*
X394208000Y-241579400D01*
X394208000Y-241579400D02*
X394208000Y-120142000D01*
X394208000Y-120142000D02*
X380784100Y-106718100D01*
X380784100Y-106718100D02*
X335808100Y-106718100D01*
X335808100Y-106718100D02*
X329540000Y-100450000D01*
X251485400Y-107988100D02*
X364426500Y-107988100D01*
X236880400Y-122593100D02*
X251485400Y-107988100D01*
X236880400Y-128676400D02*
X236880400Y-122593100D01*
X237109000Y-128905000D02*
X236880400Y-128676400D01*
X312141000Y-226924000D02*
X312141000Y-224574500D01*
X404507700Y-273850100D02*
X410743400Y-273850100D01*
X404291800Y-273634200D02*
X404507700Y-273850100D01*
X395706600Y-282397200D02*
X398538700Y-279565100D01*
X238074200Y-282397200D02*
X395706600Y-282397200D01*
X230593900Y-274916900D02*
X238074200Y-282397200D01*
X230593900Y-249593100D02*
X230593900Y-274916900D01*
X259461000Y-220726000D02*
X230593900Y-249593100D01*
X308292500Y-220726000D02*
X259461000Y-220726000D01*
X312141000Y-224574500D02*
X308292500Y-220726000D01*
X190944500Y-289521900D02*
X190944500Y-289509200D01*
X190995300Y-289572700D02*
X190944500Y-289521900D01*
X227457000Y-259346700D02*
X227457000Y-258356100D01*
X222656400Y-264147300D02*
X227457000Y-259346700D01*
X209092800Y-274053300D02*
X209283300Y-273862800D01*
X146560000Y-282000000D02*
X146560000Y-283212000D01*
X170220600Y-284353000D02*
X172721100Y-281852500D01*
X147701000Y-284353000D02*
X170220600Y-284353000D01*
X146560000Y-283212000D02*
X147701000Y-284353000D01*
X137972800Y-256209800D02*
X141198600Y-252984000D01*
X141198600Y-252984000D02*
X156019500Y-252984000D01*
X228777800Y-270027400D02*
X228777800Y-270052800D01*
X228739700Y-269989300D02*
X228777800Y-270027400D01*
X219532200Y-269989300D02*
X219544900Y-269989300D01*
X169875200Y-278053800D02*
X172174798Y-275754202D01*
X172174798Y-275754202D02*
X180885202Y-275754202D01*
X180885202Y-275754202D02*
X185407300Y-280276300D01*
X185407300Y-280276300D02*
X185407300Y-280327100D01*
X138940000Y-282000000D02*
X138940000Y-285994198D01*
X190576200Y-287388300D02*
X196481700Y-287388300D01*
X187833000Y-290131500D02*
X190576200Y-287388300D01*
X149249502Y-296303700D02*
X174155100Y-296303700D01*
X138940000Y-285994198D02*
X149249502Y-296303700D01*
X194183000Y-282000000D02*
X194183000Y-285089600D01*
X229387400Y-253390400D02*
X229387400Y-253301500D01*
X222338900Y-260438900D02*
X229387400Y-253390400D01*
X210997800Y-271754600D02*
X216204800Y-266547600D01*
X210997800Y-281482800D02*
X210997800Y-271754600D01*
X205092300Y-287388300D02*
X210997800Y-281482800D01*
X196481700Y-287388300D02*
X205092300Y-287388300D01*
X194183000Y-285089600D02*
X196481700Y-287388300D01*
X136400000Y-282000000D02*
X136400000Y-284913800D01*
X186563000Y-286372300D02*
X186563000Y-282282900D01*
X175031400Y-297903900D02*
X186563000Y-286372300D01*
X149390100Y-297903900D02*
X175031400Y-297903900D01*
X136400000Y-284913800D02*
X149390100Y-297903900D01*
X133860000Y-284456600D02*
X133860000Y-282000000D01*
X144780000Y-295376600D02*
X133860000Y-284456600D01*
X133860000Y-279460000D02*
X133860000Y-277315200D01*
X184547200Y-274904200D02*
X189103000Y-279460000D01*
X178435000Y-274904200D02*
X184547200Y-274904200D01*
X178358800Y-274828000D02*
X178435000Y-274904200D01*
X155676600Y-274828000D02*
X178358800Y-274828000D01*
X154355800Y-276148800D02*
X155676600Y-274828000D01*
X135026400Y-276148800D02*
X154355800Y-276148800D01*
X133860000Y-277315200D02*
X135026400Y-276148800D01*
X453634000Y-91183600D02*
X453634000Y-93283900D01*
X453324500Y-93593400D02*
X453634000Y-93283900D01*
X453634000Y-97433600D02*
X453634000Y-99533900D01*
X452214200Y-99533900D02*
X453634000Y-99533900D01*
X455634000Y-91183600D02*
X455634000Y-93283900D01*
X455384800Y-93533100D02*
X455634000Y-93283900D01*
X455634000Y-97433600D02*
X455634000Y-99533900D01*
X455634000Y-99533900D02*
X455634000Y-99721900D01*
X457634000Y-91183600D02*
X457634000Y-93283900D01*
X456238900Y-94679000D02*
X452684300Y-94679000D01*
X457634000Y-93283900D02*
X456238900Y-94679000D01*
X457634000Y-99760300D02*
X457634000Y-97433600D01*
X459634000Y-91183600D02*
X459634000Y-93283900D01*
X459634000Y-93283900D02*
X459381400Y-93536500D01*
X459634000Y-99727400D02*
X459634000Y-97433600D01*
X461634000Y-91183600D02*
X461634000Y-93283900D01*
X461157200Y-93283900D02*
X461634000Y-93283900D01*
X460953300Y-93487800D02*
X461157200Y-93283900D01*
X461634000Y-99655200D02*
X461634000Y-97433600D01*
X461569200Y-99720000D02*
X461634000Y-99655200D01*
X463634000Y-88881100D02*
X463634000Y-91183600D01*
X463634000Y-97433600D02*
X463634000Y-99533900D01*
X463844500Y-99533900D02*
X463634000Y-99533900D01*
X464037400Y-99726800D02*
X463844500Y-99533900D01*
X465634000Y-93461000D02*
X465634000Y-91183600D01*
X465634000Y-97433600D02*
X465634000Y-99533900D01*
X465817400Y-99717300D02*
X465634000Y-99533900D01*
X161176100Y-240118900D02*
X158979000Y-242316000D01*
X165290500Y-240118900D02*
X161176100Y-240118900D01*
X167055800Y-238353600D02*
X165290500Y-240118900D01*
X178028600Y-238353600D02*
X167055800Y-238353600D01*
X180378100Y-236004100D02*
X178028600Y-238353600D01*
X294373300Y-192659000D02*
X269976600Y-217055700D01*
X294373300Y-183400700D02*
X294373300Y-192659000D01*
X305104800Y-172669200D02*
X294373300Y-183400700D01*
X136119000Y-242316000D02*
X136119000Y-240067700D01*
X300228000Y-153625200D02*
X303002800Y-156400000D01*
X300228000Y-113868200D02*
X300228000Y-153625200D01*
X295325800Y-108966000D02*
X300228000Y-113868200D01*
X251726700Y-108966000D02*
X295325800Y-108966000D01*
X245592600Y-115100100D02*
X251726700Y-108966000D01*
X245592600Y-139065000D02*
X245592600Y-115100100D01*
X221208600Y-163449000D02*
X245592600Y-139065000D01*
X208153000Y-163449000D02*
X221208600Y-163449000D01*
X192405000Y-179197000D02*
X208153000Y-163449000D01*
X136119000Y-240067700D02*
X142887700Y-233299000D01*
X161772600Y-232524300D02*
X151815800Y-232524300D01*
X161747200Y-232498900D02*
X161747200Y-232270300D01*
X161772600Y-232524300D02*
X161747200Y-232498900D01*
X128701800Y-254813200D02*
X141199000Y-242316000D01*
X128701800Y-257200400D02*
X128701800Y-254813200D01*
X128473200Y-257429000D02*
X128701800Y-257200400D01*
X313944000Y-98425000D02*
X313944000Y-106045000D01*
X314833000Y-97536000D02*
X313944000Y-98425000D01*
X377540000Y-90290000D02*
X379457600Y-90290000D01*
X320129200Y-185470800D02*
X323800000Y-181800000D01*
X318071500Y-185470800D02*
X320129200Y-185470800D01*
X312686700Y-180086000D02*
X318071500Y-185470800D01*
X312686700Y-129235200D02*
X312686700Y-180086000D01*
X326288400Y-115633500D02*
X312686700Y-129235200D01*
X350685100Y-115633500D02*
X326288400Y-115633500D01*
X354609400Y-111709200D02*
X350685100Y-115633500D01*
X349618300Y-89293700D02*
X349618300Y-102590600D01*
X355981000Y-82931000D02*
X349618300Y-89293700D01*
X382054100Y-82931000D02*
X355981000Y-82931000D01*
X383057400Y-83934300D02*
X382054100Y-82931000D01*
X383057400Y-86690200D02*
X383057400Y-83934300D01*
X379457600Y-90290000D02*
X383057400Y-86690200D01*
X314769500Y-175766700D02*
X320802800Y-181800000D01*
X314769500Y-139268200D02*
X314769500Y-175766700D01*
X336308700Y-117729000D02*
X314769500Y-139268200D01*
X377799600Y-117729000D02*
X336308700Y-117729000D01*
X383667000Y-111861600D02*
X377799600Y-117729000D01*
X347903800Y-114084100D02*
X348005400Y-114185700D01*
X347903800Y-114071400D02*
X347903800Y-114084100D01*
X347980000Y-114147600D02*
X347903800Y-114071400D01*
X413537400Y-304431700D02*
X413537400Y-295719500D01*
X410870400Y-307098700D02*
X413537400Y-304431700D01*
X147358100Y-307098700D02*
X410870400Y-307098700D01*
X126682500Y-286423100D02*
X147358100Y-307098700D01*
X126682500Y-252476000D02*
X126682500Y-286423100D01*
X122148600Y-247942100D02*
X126682500Y-252476000D01*
X365324800Y-286236000D02*
X395039000Y-286236000D01*
X352044000Y-299516800D02*
X365324800Y-286236000D01*
X189826900Y-299516800D02*
X352044000Y-299516800D01*
X183235600Y-292925500D02*
X189826900Y-299516800D01*
X175044100Y-235889800D02*
X175196500Y-236042200D01*
X170370500Y-235889800D02*
X175044100Y-235889800D01*
X155663900Y-221183200D02*
X170370500Y-235889800D01*
X230898700Y-281190700D02*
X230974900Y-281190700D01*
X157695900Y-251523500D02*
X157695900Y-248221500D01*
X168783000Y-262610600D02*
X157695900Y-251523500D01*
X228879400Y-282803600D02*
X228904800Y-282803600D01*
X228854000Y-282829000D02*
X228879400Y-282803600D01*
M02*
