G04 #@! TF.FileFunction,Copper,L5,Inr,Signal*
%FSLAX46Y46*%
G04 Gerber Fmt 4.6, Leading zero omitted, Abs format (unit mm)*
G04 Created by KiCad (PCBNEW 4.0.6) date 03/06/20 14:39:01*
%MOMM*%
%LPD*%
G01*
G04 APERTURE LIST*
%ADD10C,0.100000*%
%ADD11C,1.879600*%
%ADD12R,1.600000X1.600000*%
%ADD13C,1.600000*%
%ADD14R,1.800000X1.800000*%
%ADD15C,1.800000*%
%ADD16O,1.800000X1.800000*%
%ADD17R,2.800000X2.800000*%
%ADD18O,2.800000X2.800000*%
%ADD19R,1.200000X1.200000*%
%ADD20C,1.200000*%
%ADD21R,1.700000X1.700000*%
%ADD22O,1.700000X1.700000*%
%ADD23C,3.000000*%
%ADD24R,1.350000X1.800000*%
%ADD25O,1.350000X1.800000*%
%ADD26O,1.600000X1.600000*%
%ADD27O,1.727200X1.727200*%
%ADD28C,0.600000*%
%ADD29C,0.250000*%
G04 APERTURE END LIST*
D10*
D11*
X133400000Y-102400000D03*
X133400000Y-104940000D03*
X135940000Y-102400000D03*
X135940000Y-104940000D03*
X138480000Y-102400000D03*
X138480000Y-104940000D03*
X141020000Y-102400000D03*
X141020000Y-104940000D03*
X143560000Y-102400000D03*
X143560000Y-104940000D03*
X146100000Y-102400000D03*
X146100000Y-104940000D03*
X148640000Y-102400000D03*
X148640000Y-104940000D03*
X188800000Y-102400000D03*
X188800000Y-104940000D03*
X191340000Y-102400000D03*
X191340000Y-104940000D03*
X193880000Y-102400000D03*
X193880000Y-104940000D03*
X196420000Y-102400000D03*
X196420000Y-104940000D03*
X198960000Y-102400000D03*
X198960000Y-104940000D03*
X201500000Y-102400000D03*
X201500000Y-104940000D03*
X204040000Y-102400000D03*
X204040000Y-104940000D03*
X188800000Y-151200000D03*
X188800000Y-153740000D03*
X191340000Y-151200000D03*
X191340000Y-153740000D03*
X193880000Y-151200000D03*
X193880000Y-153740000D03*
X196420000Y-151200000D03*
X196420000Y-153740000D03*
X198960000Y-151200000D03*
X198960000Y-153740000D03*
X201500000Y-151200000D03*
X201500000Y-153740000D03*
X204040000Y-151200000D03*
X204040000Y-153740000D03*
X133400000Y-151200000D03*
X133400000Y-153740000D03*
X135940000Y-151200000D03*
X135940000Y-153740000D03*
X138480000Y-151200000D03*
X138480000Y-153740000D03*
X141020000Y-151200000D03*
X141020000Y-153740000D03*
X143560000Y-151200000D03*
X143560000Y-153740000D03*
X146100000Y-151200000D03*
X146100000Y-153740000D03*
X148640000Y-151200000D03*
X148640000Y-153740000D03*
X149100000Y-282000000D03*
X149100000Y-279460000D03*
X146560000Y-282000000D03*
X146560000Y-279460000D03*
X144020000Y-282000000D03*
X144020000Y-279460000D03*
X141480000Y-282000000D03*
X141480000Y-279460000D03*
X138940000Y-282000000D03*
X138940000Y-279460000D03*
X136400000Y-282000000D03*
X136400000Y-279460000D03*
X133860000Y-282000000D03*
X133860000Y-279460000D03*
X204343000Y-282000000D03*
X204343000Y-279460000D03*
X201803000Y-282000000D03*
X201803000Y-279460000D03*
X199263000Y-282000000D03*
X199263000Y-279460000D03*
X196723000Y-282000000D03*
X196723000Y-279460000D03*
X194183000Y-282000000D03*
X194183000Y-279460000D03*
X191643000Y-282000000D03*
X191643000Y-279460000D03*
X189103000Y-282000000D03*
X189103000Y-279460000D03*
D12*
X438000000Y-141707000D03*
D13*
X440500000Y-141707000D03*
D12*
X438000000Y-125273000D03*
D13*
X440500000Y-125273000D03*
D14*
X312852000Y-232995000D03*
D15*
X315392000Y-232995000D03*
D14*
X401444000Y-293832000D03*
D16*
X401444000Y-303992000D03*
D14*
X409444000Y-293832000D03*
D16*
X409444000Y-303992000D03*
D14*
X417444000Y-293832000D03*
D16*
X417444000Y-303992000D03*
D14*
X425444000Y-293832000D03*
D16*
X425444000Y-303992000D03*
D14*
X425298000Y-231800000D03*
D15*
X427838000Y-231800000D03*
D17*
X424155000Y-122072000D03*
D18*
X424155000Y-132232000D03*
D14*
X433444000Y-293832000D03*
D16*
X433444000Y-303992000D03*
D14*
X309601000Y-226924000D03*
D15*
X312141000Y-226924000D03*
D14*
X306350000Y-233071000D03*
D15*
X308890000Y-233071000D03*
D19*
X393540000Y-100450000D03*
D20*
X388460000Y-100450000D03*
X393540000Y-95370000D03*
X388460000Y-90290000D03*
X393540000Y-92830000D03*
X393540000Y-90290000D03*
X388460000Y-95370000D03*
X388460000Y-92830000D03*
D19*
X361540000Y-100450000D03*
D20*
X356460000Y-100450000D03*
X361540000Y-95370000D03*
X356460000Y-90290000D03*
X361540000Y-92830000D03*
X361540000Y-90290000D03*
X356460000Y-95370000D03*
X356460000Y-92830000D03*
D19*
X345540000Y-100450000D03*
D20*
X340460000Y-100450000D03*
X345540000Y-95370000D03*
X340460000Y-90290000D03*
X345540000Y-92830000D03*
X345540000Y-90290000D03*
X340460000Y-95370000D03*
X340460000Y-92830000D03*
D19*
X329540000Y-100450000D03*
D20*
X324460000Y-100450000D03*
X329540000Y-95370000D03*
X324460000Y-90290000D03*
X329540000Y-92830000D03*
X329540000Y-90290000D03*
X324460000Y-95370000D03*
X324460000Y-92830000D03*
D19*
X377540000Y-100450000D03*
D20*
X372460000Y-100450000D03*
X377540000Y-95370000D03*
X372460000Y-90290000D03*
X377540000Y-92830000D03*
X377540000Y-90290000D03*
X372460000Y-95370000D03*
X372460000Y-92830000D03*
D21*
X466000000Y-295000000D03*
D22*
X468540000Y-295000000D03*
D14*
X458927000Y-286588000D03*
D15*
X461467000Y-286588000D03*
X464007000Y-286588000D03*
X466547000Y-286588000D03*
X469087000Y-286588000D03*
X471627000Y-286588000D03*
X474167000Y-286588000D03*
X476707000Y-286588000D03*
X479247000Y-286588000D03*
X481787000Y-286588000D03*
X484327000Y-286588000D03*
X486867000Y-286588000D03*
X489407000Y-286588000D03*
X491947000Y-286588000D03*
X494487000Y-286588000D03*
X494487000Y-271348000D03*
X491947000Y-271348000D03*
X489407000Y-271348000D03*
X486867000Y-271348000D03*
X484327000Y-271348000D03*
X481787000Y-271348000D03*
X479247000Y-271348000D03*
X476707000Y-271348000D03*
X474167000Y-271348000D03*
X471627000Y-271348000D03*
X469087000Y-271348000D03*
X466547000Y-271348000D03*
X464007000Y-271348000D03*
X461467000Y-271348000D03*
X458927000Y-271348000D03*
D23*
X414198000Y-86842600D03*
X406578000Y-86842600D03*
X414198000Y-107162600D03*
X406578000Y-112162600D03*
X406578000Y-102162600D03*
X414198000Y-102162600D03*
X406578000Y-107162600D03*
X414198000Y-112162600D03*
D24*
X421361000Y-160934000D03*
D25*
X419661000Y-160934000D03*
X417961000Y-160934000D03*
X416261000Y-160934000D03*
X414561000Y-160934000D03*
D21*
X449000000Y-295000000D03*
D22*
X451540000Y-295000000D03*
D13*
X422453000Y-143408000D03*
D26*
X424993000Y-143408000D03*
D21*
X458000000Y-295000000D03*
D22*
X460540000Y-295000000D03*
D13*
X395039000Y-286236000D03*
D26*
X395039000Y-270996000D03*
D13*
X402039000Y-286236000D03*
D26*
X402039000Y-270996000D03*
D13*
X409039000Y-286236000D03*
D26*
X409039000Y-270996000D03*
D13*
X416039000Y-286236000D03*
D26*
X416039000Y-270996000D03*
D13*
X423039000Y-286236000D03*
D26*
X423039000Y-270996000D03*
D23*
X369000000Y-295000000D03*
X369000000Y-302620000D03*
X389320000Y-295000000D03*
X394320000Y-302620000D03*
X384320000Y-302620000D03*
X384320000Y-295000000D03*
X389320000Y-302620000D03*
X394320000Y-295000000D03*
D13*
X437039000Y-286236000D03*
D26*
X437039000Y-270996000D03*
D13*
X430039000Y-286236000D03*
D26*
X430039000Y-270996000D03*
D27*
X163932000Y-219456000D03*
X161392000Y-219456000D03*
X161392000Y-216916000D03*
X163932000Y-216916000D03*
X161392000Y-214376000D03*
X176759000Y-242316000D03*
X181839000Y-242316000D03*
X184379000Y-242316000D03*
X186919000Y-242316000D03*
X189459000Y-242316000D03*
X191999000Y-242316000D03*
X194539000Y-242316000D03*
X197079000Y-242316000D03*
X141199000Y-194056000D03*
X143739000Y-194056000D03*
X146279000Y-194056000D03*
X148819000Y-194056000D03*
X151359000Y-194056000D03*
X153899000Y-194056000D03*
X156439000Y-194056000D03*
X158979000Y-194056000D03*
X164059000Y-194056000D03*
X166599000Y-194056000D03*
X169139000Y-194056000D03*
X171679000Y-194056000D03*
X174219000Y-194056000D03*
X176759000Y-194056000D03*
X179299000Y-194056000D03*
X181839000Y-194056000D03*
X201143000Y-194056000D03*
X185903000Y-194056000D03*
X188443000Y-194056000D03*
X190983000Y-194056000D03*
X208763000Y-194056000D03*
X206223000Y-194056000D03*
X203683000Y-194056000D03*
X198603000Y-194056000D03*
X196063000Y-194056000D03*
X193523000Y-194056000D03*
X199619000Y-242316000D03*
X174219000Y-242316000D03*
X171679000Y-242316000D03*
X169139000Y-242316000D03*
X166599000Y-242316000D03*
X164059000Y-242316000D03*
X161519000Y-242316000D03*
X158979000Y-242316000D03*
X153899000Y-242316000D03*
X151359000Y-242316000D03*
X148819000Y-242316000D03*
X146279000Y-242316000D03*
X143739000Y-242316000D03*
X141199000Y-242316000D03*
X138659000Y-242316000D03*
X136119000Y-242316000D03*
X133579000Y-194056000D03*
X131039000Y-194056000D03*
X133579000Y-196596000D03*
X131039000Y-196596000D03*
X133579000Y-199136000D03*
X131039000Y-199136000D03*
X133579000Y-201676000D03*
X131039000Y-201676000D03*
X133579000Y-204216000D03*
X131039000Y-204216000D03*
X133579000Y-206756000D03*
X131039000Y-206756000D03*
X133579000Y-209296000D03*
X131039000Y-209296000D03*
X133579000Y-211836000D03*
X131039000Y-211836000D03*
X133579000Y-214376000D03*
X131039000Y-214376000D03*
X133579000Y-216916000D03*
X131039000Y-216916000D03*
X133579000Y-219456000D03*
X131039000Y-219456000D03*
X133579000Y-221996000D03*
X131039000Y-221996000D03*
X133579000Y-224536000D03*
X131039000Y-224536000D03*
X133579000Y-227076000D03*
X131039000Y-227076000D03*
X133579000Y-229616000D03*
X131039000Y-229616000D03*
X133579000Y-232156000D03*
X131039000Y-232156000D03*
X133579000Y-234696000D03*
X131039000Y-234696000D03*
X133579000Y-237236000D03*
X131039000Y-237236000D03*
X163932000Y-214376000D03*
D11*
X269000000Y-243200000D03*
X266002800Y-243200000D03*
X269000000Y-240202800D03*
X266002800Y-240202800D03*
X269000000Y-237205600D03*
X266002800Y-237205600D03*
X269000000Y-234208400D03*
X266002800Y-234208400D03*
X269000000Y-231211200D03*
X266002800Y-231211200D03*
X269000000Y-228214000D03*
X266002800Y-228214000D03*
X269000000Y-225216800D03*
X266002800Y-225216800D03*
X408600000Y-143600000D03*
X405602800Y-143600000D03*
X408600000Y-140602800D03*
X405602800Y-140602800D03*
X408600000Y-137605600D03*
X405602800Y-137605600D03*
X408600000Y-134608400D03*
X405602800Y-134608400D03*
X408600000Y-131611200D03*
X405602800Y-131611200D03*
X408600000Y-128614000D03*
X405602800Y-128614000D03*
X408600000Y-125616800D03*
X405602800Y-125616800D03*
X323800000Y-181800000D03*
X320802800Y-181800000D03*
X323800000Y-178802800D03*
X320802800Y-178802800D03*
X323800000Y-175805600D03*
X320802800Y-175805600D03*
X323800000Y-172808400D03*
X320802800Y-172808400D03*
X323800000Y-156400000D03*
X320802800Y-156400000D03*
X323800000Y-153402800D03*
X320802800Y-153402800D03*
X323800000Y-150405600D03*
X320802800Y-150405600D03*
X306000000Y-156400000D03*
X303002800Y-156400000D03*
X306000000Y-153402800D03*
X303002800Y-153402800D03*
X306000000Y-150405600D03*
X303002800Y-150405600D03*
X268986000Y-212877000D03*
X265988800Y-212877000D03*
X268986000Y-209879800D03*
X265988800Y-209879800D03*
X268986000Y-206882600D03*
X265988800Y-206882600D03*
D21*
X441000000Y-295000000D03*
D22*
X443540000Y-295000000D03*
D28*
X125920500Y-203758800D03*
X412165800Y-263804400D03*
X419595300Y-266966700D03*
X364426500Y-107988100D03*
X237109000Y-128905000D03*
X410743400Y-273850100D03*
X404291800Y-273634200D03*
X398538700Y-279565100D03*
X134945200Y-99877600D03*
X227162100Y-241425000D03*
X190995300Y-289572700D03*
X187011900Y-109359200D03*
X185146300Y-153740000D03*
X227457000Y-258356100D03*
X222656400Y-264147300D03*
X209092800Y-274053300D03*
X172721100Y-281852500D03*
X184611800Y-148533300D03*
X184332800Y-276936600D03*
X181877800Y-153365700D03*
X137972800Y-256209800D03*
X156019500Y-252984000D03*
X175323500Y-250761500D03*
X181733500Y-237656400D03*
X176666600Y-282740400D03*
X180757800Y-148776600D03*
X194087400Y-274196400D03*
X152205100Y-153972600D03*
X248016400Y-217370800D03*
X152565500Y-108600600D03*
X158732300Y-106705500D03*
X228739700Y-269989300D03*
X219532200Y-269989300D03*
X169875200Y-278053800D03*
X185407300Y-280327100D03*
X152250800Y-144882700D03*
X209179500Y-149520600D03*
X146101700Y-272691300D03*
X248240500Y-216144900D03*
X182055900Y-157340800D03*
X187833000Y-290131500D03*
X174155100Y-296303700D03*
X229387400Y-253301500D03*
X222338900Y-260438900D03*
X216204800Y-266547600D03*
X188009900Y-273732600D03*
X158266000Y-105504200D03*
X241755400Y-231858300D03*
X229441600Y-231513100D03*
X186563000Y-282282900D03*
X154338500Y-144497200D03*
X154581100Y-100895900D03*
X238587800Y-192740700D03*
X144780000Y-295376600D03*
X247956900Y-205127000D03*
X148770700Y-129919200D03*
X148522900Y-109596100D03*
X453324500Y-93593400D03*
X452214200Y-99533900D03*
X455384800Y-93533100D03*
X455634000Y-99721900D03*
X452684300Y-94679000D03*
X457634000Y-99760300D03*
X459381400Y-93536500D03*
X459634000Y-99727400D03*
X460953300Y-93487800D03*
X461569200Y-99720000D03*
X463634000Y-88881100D03*
X464037400Y-99726800D03*
X465634000Y-93461000D03*
X465817400Y-99717300D03*
X180378100Y-236004100D03*
X269976600Y-217055700D03*
X305104800Y-172669200D03*
X192405000Y-179197000D03*
X142887700Y-233299000D03*
X151815800Y-232524300D03*
X296189400Y-190538100D03*
X161772600Y-232524300D03*
X128473200Y-257429000D03*
X182277300Y-210317700D03*
X174774000Y-217821000D03*
X313944000Y-106045000D03*
X314833000Y-97536000D03*
X354609400Y-111709200D03*
X349618300Y-102590600D03*
X383667000Y-111861600D03*
X347980000Y-114147600D03*
X189349400Y-252619900D03*
X413537400Y-295719500D03*
X122148600Y-247942100D03*
X183235600Y-292925500D03*
X175196500Y-236042200D03*
X155663900Y-221183200D03*
X148996200Y-261434300D03*
X230898700Y-281190700D03*
X157695900Y-248221500D03*
X168783000Y-262610600D03*
X228854000Y-282829000D03*
D29*
X449000000Y-295000000D02*
X447424700Y-295000000D01*
X391566500Y-300373500D02*
X389320000Y-302620000D01*
X391566500Y-297246500D02*
X391566500Y-300373500D01*
X445178200Y-297246500D02*
X391566500Y-297246500D01*
X447424700Y-295000000D02*
X445178200Y-297246500D01*
X391566500Y-297246500D02*
X389320000Y-295000000D01*
X315392000Y-233368900D02*
X315392000Y-232995000D01*
X131039000Y-229616000D02*
X129450100Y-229616000D01*
X401444000Y-293832000D02*
X399818700Y-293832000D01*
X128681400Y-230384700D02*
X129450100Y-229616000D01*
X128681400Y-243305900D02*
X128681400Y-230384700D01*
X157762700Y-272387200D02*
X128681400Y-243305900D01*
X202892400Y-272387200D02*
X157762700Y-272387200D01*
X223243300Y-292738100D02*
X202892400Y-272387200D01*
X398724800Y-292738100D02*
X223243300Y-292738100D01*
X399818700Y-293832000D02*
X398724800Y-292738100D01*
X345540000Y-100450000D02*
X345540000Y-105094100D01*
X125920500Y-194119500D02*
X125920500Y-203758800D01*
X129692400Y-190347600D02*
X125920500Y-194119500D01*
X161582100Y-190347600D02*
X129692400Y-190347600D01*
X162725100Y-189204600D02*
X161582100Y-190347600D01*
X172224700Y-189204600D02*
X162725100Y-189204600D01*
X217449400Y-143979900D02*
X172224700Y-189204600D01*
X217449400Y-138582400D02*
X217449400Y-143979900D01*
X246862600Y-109169200D02*
X217449400Y-138582400D01*
X341464900Y-109169200D02*
X246862600Y-109169200D01*
X345540000Y-105094100D02*
X341464900Y-109169200D01*
X364426500Y-107988100D02*
X371094000Y-107988100D01*
X377540000Y-101542100D02*
X377540000Y-100450000D01*
X371094000Y-107988100D02*
X377540000Y-101542100D01*
X308890000Y-233071000D02*
X308890000Y-242391600D01*
X420446200Y-273588800D02*
X423039000Y-270996000D01*
X420446200Y-279895300D02*
X420446200Y-273588800D01*
X417817300Y-282524200D02*
X420446200Y-279895300D01*
X238175800Y-282524200D02*
X417817300Y-282524200D01*
X230555800Y-274904200D02*
X238175800Y-282524200D01*
X230555800Y-249770002D02*
X230555800Y-274904200D01*
X240753002Y-239572800D02*
X230555800Y-249770002D01*
X254609600Y-239572800D02*
X240753002Y-239572800D01*
X262394700Y-247357900D02*
X254609600Y-239572800D01*
X303923700Y-247357900D02*
X262394700Y-247357900D01*
X308890000Y-242391600D02*
X303923700Y-247357900D01*
X150167900Y-283067900D02*
X149100000Y-282000000D01*
X174341300Y-283067900D02*
X150167900Y-283067900D01*
X176714000Y-285440600D02*
X174341300Y-283067900D01*
X200902400Y-285440600D02*
X176714000Y-285440600D01*
X204343000Y-282000000D02*
X200902400Y-285440600D01*
X190995300Y-289572700D02*
X200190100Y-289572700D01*
X207060800Y-282177800D02*
X204343000Y-279460000D01*
X207060800Y-282702000D02*
X207060800Y-282177800D01*
X200190100Y-289572700D02*
X207060800Y-282702000D01*
X188800000Y-153740000D02*
X185146300Y-153740000D01*
X134215100Y-100675100D02*
X135940000Y-102400000D01*
X132761600Y-100675100D02*
X134215100Y-100675100D01*
X131724400Y-101712300D02*
X132761600Y-100675100D01*
X131724400Y-138009200D02*
X131724400Y-101712300D01*
X135940000Y-142224800D02*
X131724400Y-138009200D01*
X135940000Y-151200000D02*
X135940000Y-142224800D01*
X174328500Y-281852500D02*
X172721100Y-281852500D01*
X177025200Y-284549200D02*
X174328500Y-281852500D01*
X199253800Y-284549200D02*
X177025200Y-284549200D01*
X201803000Y-282000000D02*
X199253800Y-284549200D01*
X146560000Y-279460000D02*
X146560000Y-278394700D01*
X183125900Y-275729700D02*
X184332800Y-276936600D01*
X149225000Y-275729700D02*
X183125900Y-275729700D01*
X146560000Y-278394700D02*
X149225000Y-275729700D01*
X183960600Y-155448500D02*
X181877800Y-153365700D01*
X189631500Y-155448500D02*
X183960600Y-155448500D01*
X191340000Y-153740000D02*
X189631500Y-155448500D01*
X199279600Y-276936600D02*
X201803000Y-279460000D01*
X184332800Y-276936600D02*
X199279600Y-276936600D01*
X140903400Y-148776600D02*
X180757800Y-148776600D01*
X138480000Y-151200000D02*
X140903400Y-148776600D01*
X177597500Y-283671300D02*
X176666600Y-282740400D01*
X197591700Y-283671300D02*
X177597500Y-283671300D01*
X199263000Y-282000000D02*
X197591700Y-283671300D01*
X182026400Y-147508000D02*
X180757800Y-148776600D01*
X190188000Y-147508000D02*
X182026400Y-147508000D01*
X193880000Y-151200000D02*
X190188000Y-147508000D01*
X141030400Y-99849600D02*
X138480000Y-102400000D01*
X191329600Y-99849600D02*
X141030400Y-99849600D01*
X193880000Y-102400000D02*
X191329600Y-99849600D01*
X270673600Y-238879200D02*
X269000000Y-237205600D01*
X181733500Y-237656400D02*
X256669800Y-237656400D01*
X256669800Y-237656400D02*
X263918900Y-244905500D01*
X263918900Y-244905500D02*
X269725600Y-244905500D01*
X269725600Y-244905500D02*
X270673600Y-243957500D01*
X270673600Y-243957500D02*
X270673600Y-238879200D01*
X248016400Y-219219200D02*
X248016400Y-217370800D01*
X266002800Y-237205600D02*
X248016400Y-219219200D01*
X154531300Y-156298800D02*
X152205100Y-153972600D01*
X191321200Y-156298800D02*
X154531300Y-156298800D01*
X193880000Y-153740000D02*
X191321200Y-156298800D01*
X142110800Y-108570800D02*
X138480000Y-104940000D01*
X152535700Y-108570800D02*
X142110800Y-108570800D01*
X152565500Y-108600600D02*
X152535700Y-108570800D01*
X192114500Y-106705500D02*
X193880000Y-104940000D01*
X158732300Y-106705500D02*
X192114500Y-106705500D01*
X193438500Y-274845300D02*
X194087400Y-274196400D01*
X148634700Y-274845300D02*
X193438500Y-274845300D01*
X144020000Y-279460000D02*
X148634700Y-274845300D01*
X190953000Y-145733000D02*
X193686500Y-148466500D01*
X153101100Y-145733000D02*
X190953000Y-145733000D01*
X152250800Y-144882700D02*
X153101100Y-145733000D01*
X193686500Y-148466500D02*
X196420000Y-151200000D01*
X198159600Y-149520600D02*
X209179500Y-149520600D01*
X197659900Y-150020300D02*
X198159600Y-149520600D01*
X197659900Y-150145400D02*
X197659900Y-150020300D01*
X197294900Y-150510400D02*
X197659900Y-150145400D01*
X197294900Y-150772900D02*
X197294900Y-150510400D01*
X197221800Y-150846000D02*
X197294900Y-150772900D01*
X196066000Y-150846000D02*
X197221800Y-150846000D01*
X193686500Y-148466500D02*
X196066000Y-150846000D01*
X192819200Y-157340800D02*
X182055900Y-157340800D01*
X196420000Y-153740000D02*
X192819200Y-157340800D01*
X193629200Y-107730800D02*
X196420000Y-104940000D01*
X158307600Y-107730800D02*
X193629200Y-107730800D01*
X158079300Y-107502500D02*
X158307600Y-107730800D01*
X143582500Y-107502500D02*
X158079300Y-107502500D01*
X141020000Y-104940000D02*
X143582500Y-107502500D01*
X266002800Y-233907200D02*
X248240500Y-216144900D01*
X266002800Y-234208400D02*
X266002800Y-233907200D01*
X229387400Y-253301500D02*
X229387400Y-249555000D01*
X272415000Y-234626200D02*
X269000000Y-231211200D01*
X272415000Y-244754400D02*
X272415000Y-234626200D01*
X270903700Y-246265700D02*
X272415000Y-244754400D01*
X263194800Y-246265700D02*
X270903700Y-246265700D01*
X255485900Y-238556800D02*
X263194800Y-246265700D01*
X240385600Y-238556800D02*
X255485900Y-238556800D01*
X229387400Y-249555000D02*
X240385600Y-238556800D01*
X148202800Y-158382800D02*
X143560000Y-153740000D01*
X194317200Y-158382800D02*
X148202800Y-158382800D01*
X198960000Y-153740000D02*
X194317200Y-158382800D01*
X145272200Y-106652200D02*
X143560000Y-104940000D01*
X157118000Y-106652200D02*
X145272200Y-106652200D01*
X158266000Y-105504200D02*
X157118000Y-106652200D01*
X144667400Y-273732600D02*
X138940000Y-279460000D01*
X188009900Y-273732600D02*
X144667400Y-273732600D01*
X241410200Y-231513100D02*
X229441600Y-231513100D01*
X241755400Y-231858300D02*
X241410200Y-231513100D01*
X203200100Y-155440100D02*
X201500000Y-153740000D01*
X204727200Y-155440100D02*
X203200100Y-155440100D01*
X210251300Y-149916000D02*
X204727200Y-155440100D01*
X210251300Y-113691300D02*
X210251300Y-149916000D01*
X201500000Y-104940000D02*
X210251300Y-113691300D01*
X441365800Y-116028500D02*
X457634000Y-99760300D01*
X409103000Y-116028500D02*
X441365800Y-116028500D01*
X401342600Y-123788900D02*
X409103000Y-116028500D01*
X401342600Y-133345400D02*
X401342600Y-123788900D01*
X405602800Y-137605600D02*
X401342600Y-133345400D01*
X402226800Y-131232400D02*
X405602800Y-134608400D01*
X402226800Y-124107400D02*
X402226800Y-131232400D01*
X408605000Y-117729200D02*
X402226800Y-124107400D01*
X441632200Y-117729200D02*
X408605000Y-117729200D01*
X459634000Y-99727400D02*
X441632200Y-117729200D01*
X403082900Y-129091300D02*
X405602800Y-131611200D01*
X403082900Y-124453900D02*
X403082900Y-129091300D01*
X408792900Y-118743900D02*
X403082900Y-124453900D01*
X442545300Y-118743900D02*
X408792900Y-118743900D01*
X461569200Y-99720000D02*
X442545300Y-118743900D01*
X443817600Y-119946600D02*
X464037400Y-99726800D01*
X408793000Y-119946600D02*
X443817600Y-119946600D01*
X403933300Y-124806300D02*
X408793000Y-119946600D01*
X403933300Y-126944500D02*
X403933300Y-124806300D01*
X405602800Y-128614000D02*
X403933300Y-126944500D01*
X444453500Y-121081200D02*
X465817400Y-99717300D01*
X433993800Y-121081200D02*
X444453500Y-121081200D01*
X430877600Y-124197400D02*
X433993800Y-121081200D01*
X410265200Y-124197400D02*
X430877600Y-124197400D01*
X409969000Y-123901200D02*
X410265200Y-124197400D01*
X407318400Y-123901200D02*
X409969000Y-123901200D01*
X405602800Y-125616800D02*
X407318400Y-123901200D01*
X414198000Y-112162600D02*
X406578000Y-112162600D01*
X138659000Y-242316000D02*
X138659000Y-240436000D01*
X146570700Y-232524300D02*
X151815800Y-232524300D01*
X138659000Y-240436000D02*
X146570700Y-232524300D01*
X296189400Y-190538100D02*
X296113200Y-190538100D01*
X190461900Y-203835000D02*
X161772600Y-232524300D01*
X282816300Y-203835000D02*
X190461900Y-203835000D01*
X296113200Y-190538100D02*
X282816300Y-203835000D01*
X320802800Y-153402800D02*
X320307200Y-153402800D01*
X320307200Y-153402800D02*
X308229000Y-165481000D01*
X308229000Y-165481000D02*
X308229000Y-173863000D01*
X308229000Y-173863000D02*
X279527000Y-202565000D01*
X279527000Y-202565000D02*
X187096400Y-202565000D01*
X187096400Y-202565000D02*
X153899000Y-235762400D01*
X153899000Y-235762400D02*
X153899000Y-242316000D01*
X393540000Y-92830000D02*
X395763100Y-92830000D01*
X323800000Y-134746200D02*
X323800000Y-150405600D01*
X340753700Y-117792500D02*
X323800000Y-134746200D01*
X385457700Y-117792500D02*
X340753700Y-117792500D01*
X397700500Y-105549700D02*
X385457700Y-117792500D01*
X397700500Y-94767400D02*
X397700500Y-105549700D01*
X395763100Y-92830000D02*
X397700500Y-94767400D01*
X345540000Y-90290000D02*
X349065200Y-90290000D01*
X351396300Y-110731300D02*
X347980000Y-114147600D01*
X351396300Y-92621100D02*
X351396300Y-110731300D01*
X349065200Y-90290000D02*
X351396300Y-92621100D01*
X467707700Y-280128700D02*
X474167000Y-286588000D01*
X465388100Y-280128700D02*
X467707700Y-280128700D01*
X400475700Y-215216300D02*
X465388100Y-280128700D01*
X400475700Y-92944900D02*
X400475700Y-215216300D01*
X406578000Y-86842600D02*
X400475700Y-92944900D01*
X133579000Y-201676000D02*
X136156700Y-201676000D01*
X136156700Y-201676000D02*
X155663900Y-221183200D01*
X400051300Y-284248300D02*
X402039000Y-286236000D01*
X236552300Y-284248300D02*
X400051300Y-284248300D01*
X213738300Y-261434300D02*
X236552300Y-284248300D01*
X148996200Y-261434300D02*
X213738300Y-261434300D01*
X468540000Y-295000000D02*
X468540000Y-293424700D01*
X469087000Y-286588000D02*
X465395200Y-290279800D01*
X465395200Y-290279800D02*
X468540000Y-293424700D01*
X463807000Y-288691700D02*
X465395200Y-290279800D01*
X411814800Y-288691700D02*
X463807000Y-288691700D01*
X411336500Y-288213400D02*
X411814800Y-288691700D01*
X411016400Y-288213400D02*
X411336500Y-288213400D01*
X409039000Y-286236000D02*
X411016400Y-288213400D01*
X387134600Y-99124600D02*
X388460000Y-100450000D01*
X373785400Y-99124600D02*
X387134600Y-99124600D01*
X372460000Y-100450000D02*
X373785400Y-99124600D01*
X371134700Y-101775300D02*
X372460000Y-100450000D01*
X357785300Y-101775300D02*
X371134700Y-101775300D01*
X356460000Y-100450000D02*
X357785300Y-101775300D01*
X193498000Y-212877000D02*
X265988800Y-212877000D01*
X164059000Y-242316000D02*
X193498000Y-212877000D01*
X228854000Y-282829000D02*
X228854000Y-282765500D01*
X168859200Y-262534400D02*
X168783000Y-262610600D01*
X208622900Y-262534400D02*
X168859200Y-262534400D01*
X228854000Y-282765500D02*
X208622900Y-262534400D01*
X435486700Y-287788300D02*
X437039000Y-286236000D01*
X412748600Y-287788300D02*
X435486700Y-287788300D01*
X408358300Y-283398000D02*
X412748600Y-287788300D01*
X237329600Y-283398000D02*
X408358300Y-283398000D01*
X203197300Y-249265700D02*
X237329600Y-283398000D01*
X173548700Y-249265700D02*
X203197300Y-249265700D01*
X166599000Y-242316000D02*
X173548700Y-249265700D01*
M02*
