G04 #@! TF.FileFunction,Copper,L4,Inr,Signal*
%FSLAX46Y46*%
G04 Gerber Fmt 4.6, Leading zero omitted, Abs format (unit mm)*
G04 Created by KiCad (PCBNEW 4.0.6) date 03/06/20 14:39:01*
%MOMM*%
%LPD*%
G01*
G04 APERTURE LIST*
%ADD10C,0.100000*%
%ADD11C,1.879600*%
%ADD12R,1.600000X1.600000*%
%ADD13C,1.600000*%
%ADD14R,1.800000X1.800000*%
%ADD15C,1.800000*%
%ADD16O,1.800000X1.800000*%
%ADD17R,2.800000X2.800000*%
%ADD18O,2.800000X2.800000*%
%ADD19R,1.200000X1.200000*%
%ADD20C,1.200000*%
%ADD21R,1.700000X1.700000*%
%ADD22O,1.700000X1.700000*%
%ADD23C,3.000000*%
%ADD24R,1.350000X1.800000*%
%ADD25O,1.350000X1.800000*%
%ADD26O,1.600000X1.600000*%
%ADD27O,1.727200X1.727200*%
%ADD28C,0.600000*%
%ADD29C,0.250000*%
G04 APERTURE END LIST*
D10*
D11*
X133400000Y-102400000D03*
X133400000Y-104940000D03*
X135940000Y-102400000D03*
X135940000Y-104940000D03*
X138480000Y-102400000D03*
X138480000Y-104940000D03*
X141020000Y-102400000D03*
X141020000Y-104940000D03*
X143560000Y-102400000D03*
X143560000Y-104940000D03*
X146100000Y-102400000D03*
X146100000Y-104940000D03*
X148640000Y-102400000D03*
X148640000Y-104940000D03*
X188800000Y-102400000D03*
X188800000Y-104940000D03*
X191340000Y-102400000D03*
X191340000Y-104940000D03*
X193880000Y-102400000D03*
X193880000Y-104940000D03*
X196420000Y-102400000D03*
X196420000Y-104940000D03*
X198960000Y-102400000D03*
X198960000Y-104940000D03*
X201500000Y-102400000D03*
X201500000Y-104940000D03*
X204040000Y-102400000D03*
X204040000Y-104940000D03*
X188800000Y-151200000D03*
X188800000Y-153740000D03*
X191340000Y-151200000D03*
X191340000Y-153740000D03*
X193880000Y-151200000D03*
X193880000Y-153740000D03*
X196420000Y-151200000D03*
X196420000Y-153740000D03*
X198960000Y-151200000D03*
X198960000Y-153740000D03*
X201500000Y-151200000D03*
X201500000Y-153740000D03*
X204040000Y-151200000D03*
X204040000Y-153740000D03*
X133400000Y-151200000D03*
X133400000Y-153740000D03*
X135940000Y-151200000D03*
X135940000Y-153740000D03*
X138480000Y-151200000D03*
X138480000Y-153740000D03*
X141020000Y-151200000D03*
X141020000Y-153740000D03*
X143560000Y-151200000D03*
X143560000Y-153740000D03*
X146100000Y-151200000D03*
X146100000Y-153740000D03*
X148640000Y-151200000D03*
X148640000Y-153740000D03*
X149100000Y-282000000D03*
X149100000Y-279460000D03*
X146560000Y-282000000D03*
X146560000Y-279460000D03*
X144020000Y-282000000D03*
X144020000Y-279460000D03*
X141480000Y-282000000D03*
X141480000Y-279460000D03*
X138940000Y-282000000D03*
X138940000Y-279460000D03*
X136400000Y-282000000D03*
X136400000Y-279460000D03*
X133860000Y-282000000D03*
X133860000Y-279460000D03*
X204343000Y-282000000D03*
X204343000Y-279460000D03*
X201803000Y-282000000D03*
X201803000Y-279460000D03*
X199263000Y-282000000D03*
X199263000Y-279460000D03*
X196723000Y-282000000D03*
X196723000Y-279460000D03*
X194183000Y-282000000D03*
X194183000Y-279460000D03*
X191643000Y-282000000D03*
X191643000Y-279460000D03*
X189103000Y-282000000D03*
X189103000Y-279460000D03*
D12*
X438000000Y-141707000D03*
D13*
X440500000Y-141707000D03*
D12*
X438000000Y-125273000D03*
D13*
X440500000Y-125273000D03*
D14*
X312852000Y-232995000D03*
D15*
X315392000Y-232995000D03*
D14*
X401444000Y-293832000D03*
D16*
X401444000Y-303992000D03*
D14*
X409444000Y-293832000D03*
D16*
X409444000Y-303992000D03*
D14*
X417444000Y-293832000D03*
D16*
X417444000Y-303992000D03*
D14*
X425444000Y-293832000D03*
D16*
X425444000Y-303992000D03*
D14*
X425298000Y-231800000D03*
D15*
X427838000Y-231800000D03*
D17*
X424155000Y-122072000D03*
D18*
X424155000Y-132232000D03*
D14*
X433444000Y-293832000D03*
D16*
X433444000Y-303992000D03*
D14*
X309601000Y-226924000D03*
D15*
X312141000Y-226924000D03*
D14*
X306350000Y-233071000D03*
D15*
X308890000Y-233071000D03*
D19*
X393540000Y-100450000D03*
D20*
X388460000Y-100450000D03*
X393540000Y-95370000D03*
X388460000Y-90290000D03*
X393540000Y-92830000D03*
X393540000Y-90290000D03*
X388460000Y-95370000D03*
X388460000Y-92830000D03*
D19*
X361540000Y-100450000D03*
D20*
X356460000Y-100450000D03*
X361540000Y-95370000D03*
X356460000Y-90290000D03*
X361540000Y-92830000D03*
X361540000Y-90290000D03*
X356460000Y-95370000D03*
X356460000Y-92830000D03*
D19*
X345540000Y-100450000D03*
D20*
X340460000Y-100450000D03*
X345540000Y-95370000D03*
X340460000Y-90290000D03*
X345540000Y-92830000D03*
X345540000Y-90290000D03*
X340460000Y-95370000D03*
X340460000Y-92830000D03*
D19*
X329540000Y-100450000D03*
D20*
X324460000Y-100450000D03*
X329540000Y-95370000D03*
X324460000Y-90290000D03*
X329540000Y-92830000D03*
X329540000Y-90290000D03*
X324460000Y-95370000D03*
X324460000Y-92830000D03*
D19*
X377540000Y-100450000D03*
D20*
X372460000Y-100450000D03*
X377540000Y-95370000D03*
X372460000Y-90290000D03*
X377540000Y-92830000D03*
X377540000Y-90290000D03*
X372460000Y-95370000D03*
X372460000Y-92830000D03*
D21*
X466000000Y-295000000D03*
D22*
X468540000Y-295000000D03*
D14*
X458927000Y-286588000D03*
D15*
X461467000Y-286588000D03*
X464007000Y-286588000D03*
X466547000Y-286588000D03*
X469087000Y-286588000D03*
X471627000Y-286588000D03*
X474167000Y-286588000D03*
X476707000Y-286588000D03*
X479247000Y-286588000D03*
X481787000Y-286588000D03*
X484327000Y-286588000D03*
X486867000Y-286588000D03*
X489407000Y-286588000D03*
X491947000Y-286588000D03*
X494487000Y-286588000D03*
X494487000Y-271348000D03*
X491947000Y-271348000D03*
X489407000Y-271348000D03*
X486867000Y-271348000D03*
X484327000Y-271348000D03*
X481787000Y-271348000D03*
X479247000Y-271348000D03*
X476707000Y-271348000D03*
X474167000Y-271348000D03*
X471627000Y-271348000D03*
X469087000Y-271348000D03*
X466547000Y-271348000D03*
X464007000Y-271348000D03*
X461467000Y-271348000D03*
X458927000Y-271348000D03*
D23*
X414198000Y-86842600D03*
X406578000Y-86842600D03*
X414198000Y-107162600D03*
X406578000Y-112162600D03*
X406578000Y-102162600D03*
X414198000Y-102162600D03*
X406578000Y-107162600D03*
X414198000Y-112162600D03*
D24*
X421361000Y-160934000D03*
D25*
X419661000Y-160934000D03*
X417961000Y-160934000D03*
X416261000Y-160934000D03*
X414561000Y-160934000D03*
D21*
X449000000Y-295000000D03*
D22*
X451540000Y-295000000D03*
D13*
X422453000Y-143408000D03*
D26*
X424993000Y-143408000D03*
D21*
X458000000Y-295000000D03*
D22*
X460540000Y-295000000D03*
D13*
X395039000Y-286236000D03*
D26*
X395039000Y-270996000D03*
D13*
X402039000Y-286236000D03*
D26*
X402039000Y-270996000D03*
D13*
X409039000Y-286236000D03*
D26*
X409039000Y-270996000D03*
D13*
X416039000Y-286236000D03*
D26*
X416039000Y-270996000D03*
D13*
X423039000Y-286236000D03*
D26*
X423039000Y-270996000D03*
D23*
X369000000Y-295000000D03*
X369000000Y-302620000D03*
X389320000Y-295000000D03*
X394320000Y-302620000D03*
X384320000Y-302620000D03*
X384320000Y-295000000D03*
X389320000Y-302620000D03*
X394320000Y-295000000D03*
D13*
X437039000Y-286236000D03*
D26*
X437039000Y-270996000D03*
D13*
X430039000Y-286236000D03*
D26*
X430039000Y-270996000D03*
D27*
X163932000Y-219456000D03*
X161392000Y-219456000D03*
X161392000Y-216916000D03*
X163932000Y-216916000D03*
X161392000Y-214376000D03*
X176759000Y-242316000D03*
X181839000Y-242316000D03*
X184379000Y-242316000D03*
X186919000Y-242316000D03*
X189459000Y-242316000D03*
X191999000Y-242316000D03*
X194539000Y-242316000D03*
X197079000Y-242316000D03*
X141199000Y-194056000D03*
X143739000Y-194056000D03*
X146279000Y-194056000D03*
X148819000Y-194056000D03*
X151359000Y-194056000D03*
X153899000Y-194056000D03*
X156439000Y-194056000D03*
X158979000Y-194056000D03*
X164059000Y-194056000D03*
X166599000Y-194056000D03*
X169139000Y-194056000D03*
X171679000Y-194056000D03*
X174219000Y-194056000D03*
X176759000Y-194056000D03*
X179299000Y-194056000D03*
X181839000Y-194056000D03*
X201143000Y-194056000D03*
X185903000Y-194056000D03*
X188443000Y-194056000D03*
X190983000Y-194056000D03*
X208763000Y-194056000D03*
X206223000Y-194056000D03*
X203683000Y-194056000D03*
X198603000Y-194056000D03*
X196063000Y-194056000D03*
X193523000Y-194056000D03*
X199619000Y-242316000D03*
X174219000Y-242316000D03*
X171679000Y-242316000D03*
X169139000Y-242316000D03*
X166599000Y-242316000D03*
X164059000Y-242316000D03*
X161519000Y-242316000D03*
X158979000Y-242316000D03*
X153899000Y-242316000D03*
X151359000Y-242316000D03*
X148819000Y-242316000D03*
X146279000Y-242316000D03*
X143739000Y-242316000D03*
X141199000Y-242316000D03*
X138659000Y-242316000D03*
X136119000Y-242316000D03*
X133579000Y-194056000D03*
X131039000Y-194056000D03*
X133579000Y-196596000D03*
X131039000Y-196596000D03*
X133579000Y-199136000D03*
X131039000Y-199136000D03*
X133579000Y-201676000D03*
X131039000Y-201676000D03*
X133579000Y-204216000D03*
X131039000Y-204216000D03*
X133579000Y-206756000D03*
X131039000Y-206756000D03*
X133579000Y-209296000D03*
X131039000Y-209296000D03*
X133579000Y-211836000D03*
X131039000Y-211836000D03*
X133579000Y-214376000D03*
X131039000Y-214376000D03*
X133579000Y-216916000D03*
X131039000Y-216916000D03*
X133579000Y-219456000D03*
X131039000Y-219456000D03*
X133579000Y-221996000D03*
X131039000Y-221996000D03*
X133579000Y-224536000D03*
X131039000Y-224536000D03*
X133579000Y-227076000D03*
X131039000Y-227076000D03*
X133579000Y-229616000D03*
X131039000Y-229616000D03*
X133579000Y-232156000D03*
X131039000Y-232156000D03*
X133579000Y-234696000D03*
X131039000Y-234696000D03*
X133579000Y-237236000D03*
X131039000Y-237236000D03*
X163932000Y-214376000D03*
D11*
X269000000Y-243200000D03*
X266002800Y-243200000D03*
X269000000Y-240202800D03*
X266002800Y-240202800D03*
X269000000Y-237205600D03*
X266002800Y-237205600D03*
X269000000Y-234208400D03*
X266002800Y-234208400D03*
X269000000Y-231211200D03*
X266002800Y-231211200D03*
X269000000Y-228214000D03*
X266002800Y-228214000D03*
X269000000Y-225216800D03*
X266002800Y-225216800D03*
X408600000Y-143600000D03*
X405602800Y-143600000D03*
X408600000Y-140602800D03*
X405602800Y-140602800D03*
X408600000Y-137605600D03*
X405602800Y-137605600D03*
X408600000Y-134608400D03*
X405602800Y-134608400D03*
X408600000Y-131611200D03*
X405602800Y-131611200D03*
X408600000Y-128614000D03*
X405602800Y-128614000D03*
X408600000Y-125616800D03*
X405602800Y-125616800D03*
X323800000Y-181800000D03*
X320802800Y-181800000D03*
X323800000Y-178802800D03*
X320802800Y-178802800D03*
X323800000Y-175805600D03*
X320802800Y-175805600D03*
X323800000Y-172808400D03*
X320802800Y-172808400D03*
X323800000Y-156400000D03*
X320802800Y-156400000D03*
X323800000Y-153402800D03*
X320802800Y-153402800D03*
X323800000Y-150405600D03*
X320802800Y-150405600D03*
X306000000Y-156400000D03*
X303002800Y-156400000D03*
X306000000Y-153402800D03*
X303002800Y-153402800D03*
X306000000Y-150405600D03*
X303002800Y-150405600D03*
X268986000Y-212877000D03*
X265988800Y-212877000D03*
X268986000Y-209879800D03*
X265988800Y-209879800D03*
X268986000Y-206882600D03*
X265988800Y-206882600D03*
D21*
X441000000Y-295000000D03*
D22*
X443540000Y-295000000D03*
D28*
X125920500Y-203758800D03*
X412165800Y-263804400D03*
X419595300Y-266966700D03*
X364426500Y-107988100D03*
X237109000Y-128905000D03*
X410743400Y-273850100D03*
X404291800Y-273634200D03*
X398538700Y-279565100D03*
X134945200Y-99877600D03*
X227162100Y-241425000D03*
X190995300Y-289572700D03*
X187011900Y-109359200D03*
X185146300Y-153740000D03*
X227457000Y-258356100D03*
X222656400Y-264147300D03*
X209092800Y-274053300D03*
X172721100Y-281852500D03*
X184611800Y-148533300D03*
X184332800Y-276936600D03*
X181877800Y-153365700D03*
X137972800Y-256209800D03*
X156019500Y-252984000D03*
X175323500Y-250761500D03*
X181733500Y-237656400D03*
X176666600Y-282740400D03*
X180757800Y-148776600D03*
X194087400Y-274196400D03*
X152205100Y-153972600D03*
X248016400Y-217370800D03*
X152565500Y-108600600D03*
X158732300Y-106705500D03*
X228739700Y-269989300D03*
X219532200Y-269989300D03*
X169875200Y-278053800D03*
X185407300Y-280327100D03*
X152250800Y-144882700D03*
X209179500Y-149520600D03*
X146101700Y-272691300D03*
X248240500Y-216144900D03*
X182055900Y-157340800D03*
X187833000Y-290131500D03*
X174155100Y-296303700D03*
X229387400Y-253301500D03*
X222338900Y-260438900D03*
X216204800Y-266547600D03*
X188009900Y-273732600D03*
X158266000Y-105504200D03*
X241755400Y-231858300D03*
X229441600Y-231513100D03*
X186563000Y-282282900D03*
X154338500Y-144497200D03*
X154581100Y-100895900D03*
X238587800Y-192740700D03*
X144780000Y-295376600D03*
X247956900Y-205127000D03*
X148770700Y-129919200D03*
X148522900Y-109596100D03*
X453324500Y-93593400D03*
X452214200Y-99533900D03*
X455384800Y-93533100D03*
X455634000Y-99721900D03*
X452684300Y-94679000D03*
X457634000Y-99760300D03*
X459381400Y-93536500D03*
X459634000Y-99727400D03*
X460953300Y-93487800D03*
X461569200Y-99720000D03*
X463634000Y-88881100D03*
X464037400Y-99726800D03*
X465634000Y-93461000D03*
X465817400Y-99717300D03*
X180378100Y-236004100D03*
X269976600Y-217055700D03*
X305104800Y-172669200D03*
X192405000Y-179197000D03*
X142887700Y-233299000D03*
X151815800Y-232524300D03*
X296189400Y-190538100D03*
X161772600Y-232524300D03*
X128473200Y-257429000D03*
X182277300Y-210317700D03*
X174774000Y-217821000D03*
X313944000Y-106045000D03*
X314833000Y-97536000D03*
X354609400Y-111709200D03*
X349618300Y-102590600D03*
X383667000Y-111861600D03*
X347980000Y-114147600D03*
X189349400Y-252619900D03*
X413537400Y-295719500D03*
X122148600Y-247942100D03*
X183235600Y-292925500D03*
X175196500Y-236042200D03*
X155663900Y-221183200D03*
X148996200Y-261434300D03*
X230898700Y-281190700D03*
X157695900Y-248221500D03*
X168783000Y-262610600D03*
X228854000Y-282829000D03*
D29*
X459165700Y-293424700D02*
X460540000Y-293424700D01*
X455793900Y-290052900D02*
X459165700Y-293424700D01*
X453947100Y-290052900D02*
X455793900Y-290052900D01*
X449000000Y-295000000D02*
X453947100Y-290052900D01*
X455793900Y-274481100D02*
X458927000Y-271348000D01*
X455793900Y-290052900D02*
X455793900Y-274481100D01*
X460540000Y-295000000D02*
X460540000Y-293424700D01*
X416261000Y-153665300D02*
X416261000Y-160934000D01*
X424993000Y-144933300D02*
X416261000Y-153665300D01*
X424993000Y-143408000D02*
X424993000Y-144933300D01*
X399818700Y-108054000D02*
X393540000Y-101775300D01*
X399818700Y-290581400D02*
X399818700Y-108054000D01*
X401444000Y-292206700D02*
X399818700Y-290581400D01*
X401444000Y-293832000D02*
X401444000Y-292206700D01*
X393540000Y-100450000D02*
X393540000Y-101775300D01*
X131704300Y-104095700D02*
X133400000Y-102400000D01*
X131704300Y-105955900D02*
X131704300Y-104095700D01*
X133400000Y-107651600D02*
X131704300Y-105955900D01*
X133400000Y-151200000D02*
X133400000Y-107651600D01*
X133400000Y-101422800D02*
X133400000Y-102400000D01*
X134945200Y-99877600D02*
X133400000Y-101422800D01*
X187121000Y-104079000D02*
X188800000Y-102400000D01*
X187121000Y-107092500D02*
X187121000Y-104079000D01*
X188893500Y-108865000D02*
X187121000Y-107092500D01*
X188893500Y-151106500D02*
X188893500Y-108865000D01*
X188800000Y-151200000D02*
X188893500Y-151106500D01*
X187102300Y-152897700D02*
X188800000Y-151200000D01*
X187102300Y-160374700D02*
X187102300Y-152897700D01*
X227162100Y-200434500D02*
X187102300Y-160374700D01*
X227162100Y-241425000D02*
X227162100Y-200434500D01*
X204343000Y-275202200D02*
X204343000Y-279460000D01*
X266002800Y-243200000D02*
X260446200Y-237643400D01*
X260446200Y-237643400D02*
X241901800Y-237643400D01*
X241901800Y-237643400D02*
X204343000Y-275202200D01*
X128543400Y-158596600D02*
X133400000Y-153740000D01*
X128543400Y-237049500D02*
X128543400Y-158596600D01*
X130749200Y-239255300D02*
X128543400Y-237049500D01*
X131339900Y-239255300D02*
X130749200Y-239255300D01*
X133661500Y-241576900D02*
X131339900Y-239255300D01*
X133661500Y-264021500D02*
X133661500Y-241576900D01*
X149100000Y-279460000D02*
X133661500Y-264021500D01*
X185146300Y-151005000D02*
X185146300Y-153740000D01*
X188029200Y-148122100D02*
X185146300Y-151005000D01*
X188029200Y-110376500D02*
X188029200Y-148122100D01*
X187011900Y-109359200D02*
X188029200Y-110376500D01*
X183551700Y-147473200D02*
X184611800Y-148533300D01*
X183551700Y-105272800D02*
X183551700Y-147473200D01*
X188132200Y-100692300D02*
X183551700Y-105272800D01*
X189632300Y-100692300D02*
X188132200Y-100692300D01*
X191340000Y-102400000D02*
X189632300Y-100692300D01*
X201803000Y-276539600D02*
X201803000Y-279460000D01*
X241549500Y-236793100D02*
X201803000Y-276539600D01*
X262593100Y-236793100D02*
X241549500Y-236793100D01*
X266002800Y-240202800D02*
X262593100Y-236793100D01*
X183449300Y-235940600D02*
X181733500Y-237656400D01*
X180757800Y-148776600D02*
X183449300Y-151468100D01*
X183449300Y-151468100D02*
X183449300Y-235940600D01*
X180757800Y-106864000D02*
X180757800Y-148776600D01*
X187779900Y-99841900D02*
X180757800Y-106864000D01*
X191321900Y-99841900D02*
X187779900Y-99841900D01*
X193880000Y-102400000D02*
X191321900Y-99841900D01*
X193880000Y-163234400D02*
X193880000Y-153740000D01*
X248016400Y-217370800D02*
X193880000Y-163234400D01*
X149921100Y-156256600D02*
X152205100Y-153972600D01*
X140996600Y-156256600D02*
X149921100Y-156256600D01*
X138480000Y-153740000D02*
X140996600Y-156256600D01*
X194087400Y-274196300D02*
X194087400Y-274196400D01*
X196546800Y-274196300D02*
X194087400Y-274196300D01*
X248016400Y-222726700D02*
X196546800Y-274196300D01*
X248016400Y-217370800D02*
X248016400Y-222726700D01*
X147337300Y-144882700D02*
X152250800Y-144882700D01*
X141020000Y-151200000D02*
X147337300Y-144882700D01*
X241974600Y-234208400D02*
X196723000Y-279460000D01*
X266002800Y-234208400D02*
X241974600Y-234208400D01*
X200752700Y-168657100D02*
X248240500Y-216144900D01*
X200752700Y-158072700D02*
X200752700Y-168657100D01*
X196420000Y-153740000D02*
X200752700Y-158072700D01*
X146988900Y-98971100D02*
X143560000Y-102400000D01*
X195531100Y-98971100D02*
X146988900Y-98971100D01*
X198960000Y-102400000D02*
X195531100Y-98971100D01*
X241595800Y-185135000D02*
X205077700Y-148616900D01*
X269000000Y-231211200D02*
X271525700Y-228685500D01*
X271525700Y-228685500D02*
X271525700Y-223519600D01*
X271525700Y-223519600D02*
X241595800Y-193589700D01*
X241595800Y-193589700D02*
X241595800Y-185135000D01*
X201543100Y-148616900D02*
X205077700Y-148616900D01*
X198960000Y-151200000D02*
X201543100Y-148616900D01*
X200640900Y-100719100D02*
X198960000Y-102400000D01*
X204760100Y-100719100D02*
X200640900Y-100719100D01*
X205715000Y-101674000D02*
X204760100Y-100719100D01*
X205715000Y-147979600D02*
X205715000Y-101674000D01*
X205077700Y-148616900D02*
X205715000Y-147979600D01*
X145226200Y-155406200D02*
X143560000Y-153740000D01*
X149379000Y-155406200D02*
X145226200Y-155406200D01*
X150948400Y-153836800D02*
X149379000Y-155406200D01*
X150948400Y-153436600D02*
X150948400Y-153836800D01*
X157707000Y-146678000D02*
X150948400Y-153436600D01*
X157707000Y-106063200D02*
X157707000Y-146678000D01*
X158266000Y-105504200D02*
X157707000Y-106063200D01*
X241755400Y-231887600D02*
X241755400Y-231858300D01*
X194183000Y-279460000D02*
X241755400Y-231887600D01*
X265355700Y-231858300D02*
X266002800Y-231211200D01*
X241755400Y-231858300D02*
X265355700Y-231858300D01*
X151044500Y-146255500D02*
X146100000Y-151200000D01*
X152328200Y-146255500D02*
X151044500Y-146255500D01*
X153320500Y-145263200D02*
X152328200Y-146255500D01*
X153320500Y-144497200D02*
X153320500Y-145263200D01*
X154338500Y-144497200D02*
X153320500Y-144497200D01*
X152365400Y-103111600D02*
X154581100Y-100895900D01*
X151760400Y-103111600D02*
X152365400Y-103111600D01*
X149383400Y-100734600D02*
X151760400Y-103111600D01*
X147765400Y-100734600D02*
X149383400Y-100734600D01*
X146100000Y-102400000D02*
X147765400Y-100734600D01*
X151540200Y-142716900D02*
X153320500Y-144497200D01*
X151540200Y-103331800D02*
X151540200Y-142716900D01*
X151760400Y-103111600D02*
X151540200Y-103331800D01*
X270675300Y-224537100D02*
X238733400Y-192595100D01*
X270675300Y-226538700D02*
X270675300Y-224537100D01*
X269000000Y-228214000D02*
X270675300Y-226538700D01*
X203178000Y-149522000D02*
X201500000Y-151200000D01*
X204780100Y-149522000D02*
X203178000Y-149522000D01*
X208813600Y-153555500D02*
X204780100Y-149522000D01*
X208813600Y-162675400D02*
X208813600Y-153555500D01*
X238733400Y-192595100D02*
X208813600Y-162675400D01*
X238587800Y-192740700D02*
X238733400Y-192595100D01*
X202374800Y-154614800D02*
X201500000Y-153740000D01*
X202374800Y-166609000D02*
X202374800Y-154614800D01*
X249273400Y-213507600D02*
X202374800Y-166609000D01*
X249273400Y-228214000D02*
X249273400Y-213507600D01*
X266002800Y-228214000D02*
X249273400Y-228214000D01*
X193804600Y-277298400D02*
X191643000Y-279460000D01*
X194865400Y-277298400D02*
X193804600Y-277298400D01*
X243949800Y-228214000D02*
X194865400Y-277298400D01*
X249273400Y-228214000D02*
X243949800Y-228214000D01*
X248910200Y-205127000D02*
X269000000Y-225216800D01*
X247956900Y-205127000D02*
X248910200Y-205127000D01*
X205855300Y-153015300D02*
X204040000Y-151200000D01*
X205855400Y-153015300D02*
X205855300Y-153015300D01*
X205855400Y-163025500D02*
X205855400Y-153015300D01*
X247956900Y-205127000D02*
X205855400Y-163025500D01*
X150342200Y-128347700D02*
X148770700Y-129919200D01*
X150342200Y-104102200D02*
X150342200Y-128347700D01*
X148640000Y-102400000D02*
X150342200Y-104102200D01*
X204040000Y-163254000D02*
X204040000Y-153740000D01*
X266002800Y-225216800D02*
X204040000Y-163254000D01*
X148640000Y-109479000D02*
X148640000Y-104940000D01*
X148522900Y-109596100D02*
X148640000Y-109479000D01*
X410265200Y-141482900D02*
X452214200Y-99533900D01*
X410265200Y-144290500D02*
X410265200Y-141482900D01*
X409247000Y-145308700D02*
X410265200Y-144290500D01*
X407311500Y-145308700D02*
X409247000Y-145308700D01*
X405602800Y-143600000D02*
X407311500Y-145308700D01*
X409479000Y-140602800D02*
X408600000Y-140602800D01*
X455384800Y-94697000D02*
X409479000Y-140602800D01*
X455384800Y-93533100D02*
X455384800Y-94697000D01*
X453653500Y-99721900D02*
X455634000Y-99721900D01*
X420713200Y-132662200D02*
X453653500Y-99721900D01*
X420713200Y-135045200D02*
X420713200Y-132662200D01*
X409599300Y-146159100D02*
X420713200Y-135045200D01*
X405795800Y-146159100D02*
X409599300Y-146159100D01*
X403917500Y-144280800D02*
X405795800Y-146159100D01*
X403917500Y-142288100D02*
X403917500Y-144280800D01*
X405602800Y-140602800D02*
X403917500Y-142288100D01*
X447646900Y-94679000D02*
X452684300Y-94679000D01*
X411373000Y-130952900D02*
X447646900Y-94679000D01*
X411373000Y-134832600D02*
X411373000Y-130952900D01*
X408600000Y-137605600D02*
X411373000Y-134832600D01*
X459973300Y-92507800D02*
X460953300Y-93487800D01*
X447703400Y-92507800D02*
X459973300Y-92507800D01*
X408600000Y-131611200D02*
X447703400Y-92507800D01*
X448451600Y-88881100D02*
X463634000Y-88881100D01*
X408718700Y-128614000D02*
X448451600Y-88881100D01*
X408600000Y-128614000D02*
X408718700Y-128614000D01*
X318276600Y-104093400D02*
X329540000Y-92830000D01*
X318276600Y-176276600D02*
X318276600Y-104093400D01*
X320802800Y-178802800D02*
X318276600Y-176276600D01*
X319127000Y-119243000D02*
X345540000Y-92830000D01*
X319127000Y-174129800D02*
X319127000Y-119243000D01*
X320802800Y-175805600D02*
X319127000Y-174129800D01*
X362952700Y-91702700D02*
X361540000Y-90290000D01*
X362952700Y-95885500D02*
X362952700Y-91702700D01*
X331519900Y-127318300D02*
X362952700Y-95885500D01*
X331519900Y-165088500D02*
X331519900Y-127318300D01*
X323800000Y-172808400D02*
X331519900Y-165088500D01*
X329819300Y-124550700D02*
X361540000Y-92830000D01*
X329819300Y-163791900D02*
X329819300Y-124550700D01*
X320802800Y-172808400D02*
X329819300Y-163791900D01*
X135865500Y-199136000D02*
X189349400Y-252619900D01*
X133579000Y-199136000D02*
X135865500Y-199136000D01*
X437039000Y-270996000D02*
X437039000Y-269470700D01*
X412031700Y-270996000D02*
X409039000Y-270996000D01*
X425298000Y-257729700D02*
X412031700Y-270996000D01*
X437039000Y-269470700D02*
X425298000Y-257729700D01*
X425298000Y-257729700D02*
X425298000Y-231800000D01*
X466547000Y-291224900D02*
X466547000Y-286588000D01*
X461186500Y-296585400D02*
X466547000Y-291224900D01*
X459585400Y-296585400D02*
X461186500Y-296585400D01*
X458000000Y-295000000D02*
X459585400Y-296585400D01*
X461467000Y-281508000D02*
X466547000Y-286588000D01*
X461467000Y-271348000D02*
X461467000Y-281508000D01*
X369000000Y-295000000D02*
X368838000Y-295162000D01*
M02*
