G04 #@! TF.FileFunction,Copper,L6,Bot,Signal*
%FSLAX46Y46*%
G04 Gerber Fmt 4.6, Leading zero omitted, Abs format (unit mm)*
G04 Created by KiCad (PCBNEW 4.0.6) date 03/06/20 14:39:01*
%MOMM*%
%LPD*%
G01*
G04 APERTURE LIST*
%ADD10C,0.100000*%
%ADD11C,1.879600*%
%ADD12R,1.600000X1.600000*%
%ADD13C,1.600000*%
%ADD14R,1.800000X1.800000*%
%ADD15C,1.800000*%
%ADD16O,1.800000X1.800000*%
%ADD17R,2.800000X2.800000*%
%ADD18O,2.800000X2.800000*%
%ADD19R,1.200000X1.200000*%
%ADD20C,1.200000*%
%ADD21R,1.700000X1.700000*%
%ADD22O,1.700000X1.700000*%
%ADD23C,3.000000*%
%ADD24R,1.350000X1.800000*%
%ADD25O,1.350000X1.800000*%
%ADD26O,1.600000X1.600000*%
%ADD27O,1.727200X1.727200*%
%ADD28C,0.600000*%
%ADD29C,0.250000*%
G04 APERTURE END LIST*
D10*
D11*
X133400000Y-102400000D03*
X133400000Y-104940000D03*
X135940000Y-102400000D03*
X135940000Y-104940000D03*
X138480000Y-102400000D03*
X138480000Y-104940000D03*
X141020000Y-102400000D03*
X141020000Y-104940000D03*
X143560000Y-102400000D03*
X143560000Y-104940000D03*
X146100000Y-102400000D03*
X146100000Y-104940000D03*
X148640000Y-102400000D03*
X148640000Y-104940000D03*
X188800000Y-102400000D03*
X188800000Y-104940000D03*
X191340000Y-102400000D03*
X191340000Y-104940000D03*
X193880000Y-102400000D03*
X193880000Y-104940000D03*
X196420000Y-102400000D03*
X196420000Y-104940000D03*
X198960000Y-102400000D03*
X198960000Y-104940000D03*
X201500000Y-102400000D03*
X201500000Y-104940000D03*
X204040000Y-102400000D03*
X204040000Y-104940000D03*
X188800000Y-151200000D03*
X188800000Y-153740000D03*
X191340000Y-151200000D03*
X191340000Y-153740000D03*
X193880000Y-151200000D03*
X193880000Y-153740000D03*
X196420000Y-151200000D03*
X196420000Y-153740000D03*
X198960000Y-151200000D03*
X198960000Y-153740000D03*
X201500000Y-151200000D03*
X201500000Y-153740000D03*
X204040000Y-151200000D03*
X204040000Y-153740000D03*
X133400000Y-151200000D03*
X133400000Y-153740000D03*
X135940000Y-151200000D03*
X135940000Y-153740000D03*
X138480000Y-151200000D03*
X138480000Y-153740000D03*
X141020000Y-151200000D03*
X141020000Y-153740000D03*
X143560000Y-151200000D03*
X143560000Y-153740000D03*
X146100000Y-151200000D03*
X146100000Y-153740000D03*
X148640000Y-151200000D03*
X148640000Y-153740000D03*
X149100000Y-282000000D03*
X149100000Y-279460000D03*
X146560000Y-282000000D03*
X146560000Y-279460000D03*
X144020000Y-282000000D03*
X144020000Y-279460000D03*
X141480000Y-282000000D03*
X141480000Y-279460000D03*
X138940000Y-282000000D03*
X138940000Y-279460000D03*
X136400000Y-282000000D03*
X136400000Y-279460000D03*
X133860000Y-282000000D03*
X133860000Y-279460000D03*
X204343000Y-282000000D03*
X204343000Y-279460000D03*
X201803000Y-282000000D03*
X201803000Y-279460000D03*
X199263000Y-282000000D03*
X199263000Y-279460000D03*
X196723000Y-282000000D03*
X196723000Y-279460000D03*
X194183000Y-282000000D03*
X194183000Y-279460000D03*
X191643000Y-282000000D03*
X191643000Y-279460000D03*
X189103000Y-282000000D03*
X189103000Y-279460000D03*
D12*
X438000000Y-141707000D03*
D13*
X440500000Y-141707000D03*
D12*
X438000000Y-125273000D03*
D13*
X440500000Y-125273000D03*
D14*
X312852000Y-232995000D03*
D15*
X315392000Y-232995000D03*
D14*
X401444000Y-293832000D03*
D16*
X401444000Y-303992000D03*
D14*
X409444000Y-293832000D03*
D16*
X409444000Y-303992000D03*
D14*
X417444000Y-293832000D03*
D16*
X417444000Y-303992000D03*
D14*
X425444000Y-293832000D03*
D16*
X425444000Y-303992000D03*
D14*
X425298000Y-231800000D03*
D15*
X427838000Y-231800000D03*
D17*
X424155000Y-122072000D03*
D18*
X424155000Y-132232000D03*
D14*
X433444000Y-293832000D03*
D16*
X433444000Y-303992000D03*
D14*
X309601000Y-226924000D03*
D15*
X312141000Y-226924000D03*
D14*
X306350000Y-233071000D03*
D15*
X308890000Y-233071000D03*
D19*
X393540000Y-100450000D03*
D20*
X388460000Y-100450000D03*
X393540000Y-95370000D03*
X388460000Y-90290000D03*
X393540000Y-92830000D03*
X393540000Y-90290000D03*
X388460000Y-95370000D03*
X388460000Y-92830000D03*
D19*
X361540000Y-100450000D03*
D20*
X356460000Y-100450000D03*
X361540000Y-95370000D03*
X356460000Y-90290000D03*
X361540000Y-92830000D03*
X361540000Y-90290000D03*
X356460000Y-95370000D03*
X356460000Y-92830000D03*
D19*
X345540000Y-100450000D03*
D20*
X340460000Y-100450000D03*
X345540000Y-95370000D03*
X340460000Y-90290000D03*
X345540000Y-92830000D03*
X345540000Y-90290000D03*
X340460000Y-95370000D03*
X340460000Y-92830000D03*
D19*
X329540000Y-100450000D03*
D20*
X324460000Y-100450000D03*
X329540000Y-95370000D03*
X324460000Y-90290000D03*
X329540000Y-92830000D03*
X329540000Y-90290000D03*
X324460000Y-95370000D03*
X324460000Y-92830000D03*
D19*
X377540000Y-100450000D03*
D20*
X372460000Y-100450000D03*
X377540000Y-95370000D03*
X372460000Y-90290000D03*
X377540000Y-92830000D03*
X377540000Y-90290000D03*
X372460000Y-95370000D03*
X372460000Y-92830000D03*
D21*
X466000000Y-295000000D03*
D22*
X468540000Y-295000000D03*
D14*
X458927000Y-286588000D03*
D15*
X461467000Y-286588000D03*
X464007000Y-286588000D03*
X466547000Y-286588000D03*
X469087000Y-286588000D03*
X471627000Y-286588000D03*
X474167000Y-286588000D03*
X476707000Y-286588000D03*
X479247000Y-286588000D03*
X481787000Y-286588000D03*
X484327000Y-286588000D03*
X486867000Y-286588000D03*
X489407000Y-286588000D03*
X491947000Y-286588000D03*
X494487000Y-286588000D03*
X494487000Y-271348000D03*
X491947000Y-271348000D03*
X489407000Y-271348000D03*
X486867000Y-271348000D03*
X484327000Y-271348000D03*
X481787000Y-271348000D03*
X479247000Y-271348000D03*
X476707000Y-271348000D03*
X474167000Y-271348000D03*
X471627000Y-271348000D03*
X469087000Y-271348000D03*
X466547000Y-271348000D03*
X464007000Y-271348000D03*
X461467000Y-271348000D03*
X458927000Y-271348000D03*
D23*
X414198000Y-86842600D03*
X406578000Y-86842600D03*
X414198000Y-107162600D03*
X406578000Y-112162600D03*
X406578000Y-102162600D03*
X414198000Y-102162600D03*
X406578000Y-107162600D03*
X414198000Y-112162600D03*
D24*
X421361000Y-160934000D03*
D25*
X419661000Y-160934000D03*
X417961000Y-160934000D03*
X416261000Y-160934000D03*
X414561000Y-160934000D03*
D21*
X449000000Y-295000000D03*
D22*
X451540000Y-295000000D03*
D13*
X422453000Y-143408000D03*
D26*
X424993000Y-143408000D03*
D21*
X458000000Y-295000000D03*
D22*
X460540000Y-295000000D03*
D13*
X395039000Y-286236000D03*
D26*
X395039000Y-270996000D03*
D13*
X402039000Y-286236000D03*
D26*
X402039000Y-270996000D03*
D13*
X409039000Y-286236000D03*
D26*
X409039000Y-270996000D03*
D13*
X416039000Y-286236000D03*
D26*
X416039000Y-270996000D03*
D13*
X423039000Y-286236000D03*
D26*
X423039000Y-270996000D03*
D23*
X369000000Y-295000000D03*
X369000000Y-302620000D03*
X389320000Y-295000000D03*
X394320000Y-302620000D03*
X384320000Y-302620000D03*
X384320000Y-295000000D03*
X389320000Y-302620000D03*
X394320000Y-295000000D03*
D13*
X437039000Y-286236000D03*
D26*
X437039000Y-270996000D03*
D13*
X430039000Y-286236000D03*
D26*
X430039000Y-270996000D03*
D27*
X163932000Y-219456000D03*
X161392000Y-219456000D03*
X161392000Y-216916000D03*
X163932000Y-216916000D03*
X161392000Y-214376000D03*
X176759000Y-242316000D03*
X181839000Y-242316000D03*
X184379000Y-242316000D03*
X186919000Y-242316000D03*
X189459000Y-242316000D03*
X191999000Y-242316000D03*
X194539000Y-242316000D03*
X197079000Y-242316000D03*
X141199000Y-194056000D03*
X143739000Y-194056000D03*
X146279000Y-194056000D03*
X148819000Y-194056000D03*
X151359000Y-194056000D03*
X153899000Y-194056000D03*
X156439000Y-194056000D03*
X158979000Y-194056000D03*
X164059000Y-194056000D03*
X166599000Y-194056000D03*
X169139000Y-194056000D03*
X171679000Y-194056000D03*
X174219000Y-194056000D03*
X176759000Y-194056000D03*
X179299000Y-194056000D03*
X181839000Y-194056000D03*
X201143000Y-194056000D03*
X185903000Y-194056000D03*
X188443000Y-194056000D03*
X190983000Y-194056000D03*
X208763000Y-194056000D03*
X206223000Y-194056000D03*
X203683000Y-194056000D03*
X198603000Y-194056000D03*
X196063000Y-194056000D03*
X193523000Y-194056000D03*
X199619000Y-242316000D03*
X174219000Y-242316000D03*
X171679000Y-242316000D03*
X169139000Y-242316000D03*
X166599000Y-242316000D03*
X164059000Y-242316000D03*
X161519000Y-242316000D03*
X158979000Y-242316000D03*
X153899000Y-242316000D03*
X151359000Y-242316000D03*
X148819000Y-242316000D03*
X146279000Y-242316000D03*
X143739000Y-242316000D03*
X141199000Y-242316000D03*
X138659000Y-242316000D03*
X136119000Y-242316000D03*
X133579000Y-194056000D03*
X131039000Y-194056000D03*
X133579000Y-196596000D03*
X131039000Y-196596000D03*
X133579000Y-199136000D03*
X131039000Y-199136000D03*
X133579000Y-201676000D03*
X131039000Y-201676000D03*
X133579000Y-204216000D03*
X131039000Y-204216000D03*
X133579000Y-206756000D03*
X131039000Y-206756000D03*
X133579000Y-209296000D03*
X131039000Y-209296000D03*
X133579000Y-211836000D03*
X131039000Y-211836000D03*
X133579000Y-214376000D03*
X131039000Y-214376000D03*
X133579000Y-216916000D03*
X131039000Y-216916000D03*
X133579000Y-219456000D03*
X131039000Y-219456000D03*
X133579000Y-221996000D03*
X131039000Y-221996000D03*
X133579000Y-224536000D03*
X131039000Y-224536000D03*
X133579000Y-227076000D03*
X131039000Y-227076000D03*
X133579000Y-229616000D03*
X131039000Y-229616000D03*
X133579000Y-232156000D03*
X131039000Y-232156000D03*
X133579000Y-234696000D03*
X131039000Y-234696000D03*
X133579000Y-237236000D03*
X131039000Y-237236000D03*
X163932000Y-214376000D03*
D11*
X269000000Y-243200000D03*
X266002800Y-243200000D03*
X269000000Y-240202800D03*
X266002800Y-240202800D03*
X269000000Y-237205600D03*
X266002800Y-237205600D03*
X269000000Y-234208400D03*
X266002800Y-234208400D03*
X269000000Y-231211200D03*
X266002800Y-231211200D03*
X269000000Y-228214000D03*
X266002800Y-228214000D03*
X269000000Y-225216800D03*
X266002800Y-225216800D03*
X408600000Y-143600000D03*
X405602800Y-143600000D03*
X408600000Y-140602800D03*
X405602800Y-140602800D03*
X408600000Y-137605600D03*
X405602800Y-137605600D03*
X408600000Y-134608400D03*
X405602800Y-134608400D03*
X408600000Y-131611200D03*
X405602800Y-131611200D03*
X408600000Y-128614000D03*
X405602800Y-128614000D03*
X408600000Y-125616800D03*
X405602800Y-125616800D03*
X323800000Y-181800000D03*
X320802800Y-181800000D03*
X323800000Y-178802800D03*
X320802800Y-178802800D03*
X323800000Y-175805600D03*
X320802800Y-175805600D03*
X323800000Y-172808400D03*
X320802800Y-172808400D03*
X323800000Y-156400000D03*
X320802800Y-156400000D03*
X323800000Y-153402800D03*
X320802800Y-153402800D03*
X323800000Y-150405600D03*
X320802800Y-150405600D03*
X306000000Y-156400000D03*
X303002800Y-156400000D03*
X306000000Y-153402800D03*
X303002800Y-153402800D03*
X306000000Y-150405600D03*
X303002800Y-150405600D03*
X268986000Y-212877000D03*
X265988800Y-212877000D03*
X268986000Y-209879800D03*
X265988800Y-209879800D03*
X268986000Y-206882600D03*
X265988800Y-206882600D03*
D21*
X441000000Y-295000000D03*
D22*
X443540000Y-295000000D03*
D28*
X125920500Y-203758800D03*
X412165800Y-263804400D03*
X419595300Y-266966700D03*
X364426500Y-107988100D03*
X237109000Y-128905000D03*
X410743400Y-273850100D03*
X404291800Y-273634200D03*
X398538700Y-279565100D03*
X134945200Y-99877600D03*
X227162100Y-241425000D03*
X190995300Y-289572700D03*
X187011900Y-109359200D03*
X185146300Y-153740000D03*
X227457000Y-258356100D03*
X222656400Y-264147300D03*
X209092800Y-274053300D03*
X172721100Y-281852500D03*
X184611800Y-148533300D03*
X184332800Y-276936600D03*
X181877800Y-153365700D03*
X137972800Y-256209800D03*
X156019500Y-252984000D03*
X175323500Y-250761500D03*
X181733500Y-237656400D03*
X176666600Y-282740400D03*
X180757800Y-148776600D03*
X194087400Y-274196400D03*
X152205100Y-153972600D03*
X248016400Y-217370800D03*
X152565500Y-108600600D03*
X158732300Y-106705500D03*
X228739700Y-269989300D03*
X219532200Y-269989300D03*
X169875200Y-278053800D03*
X185407300Y-280327100D03*
X152250800Y-144882700D03*
X209179500Y-149520600D03*
X146101700Y-272691300D03*
X248240500Y-216144900D03*
X182055900Y-157340800D03*
X187833000Y-290131500D03*
X174155100Y-296303700D03*
X229387400Y-253301500D03*
X222338900Y-260438900D03*
X216204800Y-266547600D03*
X188009900Y-273732600D03*
X158266000Y-105504200D03*
X241755400Y-231858300D03*
X229441600Y-231513100D03*
X186563000Y-282282900D03*
X154338500Y-144497200D03*
X154581100Y-100895900D03*
X238587800Y-192740700D03*
X144780000Y-295376600D03*
X247956900Y-205127000D03*
X148770700Y-129919200D03*
X148522900Y-109596100D03*
X453324500Y-93593400D03*
X452214200Y-99533900D03*
X455384800Y-93533100D03*
X455634000Y-99721900D03*
X452684300Y-94679000D03*
X457634000Y-99760300D03*
X459381400Y-93536500D03*
X459634000Y-99727400D03*
X460953300Y-93487800D03*
X461569200Y-99720000D03*
X463634000Y-88881100D03*
X464037400Y-99726800D03*
X465634000Y-93461000D03*
X465817400Y-99717300D03*
X180378100Y-236004100D03*
X269976600Y-217055700D03*
X305104800Y-172669200D03*
X192405000Y-179197000D03*
X142887700Y-233299000D03*
X151815800Y-232524300D03*
X296189400Y-190538100D03*
X161772600Y-232524300D03*
X128473200Y-257429000D03*
X182277300Y-210317700D03*
X174774000Y-217821000D03*
X313944000Y-106045000D03*
X314833000Y-97536000D03*
X354609400Y-111709200D03*
X349618300Y-102590600D03*
X383667000Y-111861600D03*
X347980000Y-114147600D03*
X189349400Y-252619900D03*
X413537400Y-295719500D03*
X122148600Y-247942100D03*
X183235600Y-292925500D03*
X175196500Y-236042200D03*
X155663900Y-221183200D03*
X148996200Y-261434300D03*
X230898700Y-281190700D03*
X157695900Y-248221500D03*
X168783000Y-262610600D03*
X228854000Y-282829000D03*
D29*
X315392000Y-232995000D02*
X315392000Y-221843800D01*
X383587000Y-282448000D02*
X395039000Y-270996000D01*
X238048800Y-282448000D02*
X383587000Y-282448000D01*
X230568500Y-274967700D02*
X238048800Y-282448000D01*
X230568500Y-248767600D02*
X230568500Y-274967700D01*
X238467900Y-240868200D02*
X230568500Y-248767600D01*
X254025400Y-240868200D02*
X238467900Y-240868200D01*
X260654800Y-247497600D02*
X254025400Y-240868200D01*
X269544800Y-247497600D02*
X260654800Y-247497600D01*
X298170600Y-218871800D02*
X269544800Y-247497600D01*
X312420000Y-218871800D02*
X298170600Y-218871800D01*
X315392000Y-221843800D02*
X312420000Y-218871800D01*
X345540000Y-100450000D02*
X345540000Y-106653000D01*
X405663400Y-290051400D02*
X409444000Y-293832000D01*
X405663400Y-267512800D02*
X405663400Y-290051400D01*
X393446000Y-255295400D02*
X405663400Y-267512800D01*
X393446000Y-126441200D02*
X393446000Y-255295400D01*
X381812800Y-114808000D02*
X393446000Y-126441200D01*
X353695000Y-114808000D02*
X381812800Y-114808000D01*
X345540000Y-106653000D02*
X353695000Y-114808000D01*
X412165800Y-263804400D02*
X394843000Y-246481600D01*
X394843000Y-246481600D02*
X394843000Y-125476000D01*
X394843000Y-125476000D02*
X377444000Y-108077000D01*
X377444000Y-108077000D02*
X369167000Y-108077000D01*
X369167000Y-108077000D02*
X361540000Y-100450000D01*
X364477300Y-108038900D02*
X364477300Y-108077000D01*
X364426500Y-107988100D02*
X364477300Y-108038900D01*
X413597500Y-270996000D02*
X416039000Y-270996000D01*
X410743400Y-273850100D02*
X413597500Y-270996000D01*
X399084800Y-273634200D02*
X404291800Y-273634200D01*
X398538700Y-274180300D02*
X399084800Y-273634200D01*
X398538700Y-279565100D02*
X398538700Y-274180300D01*
X209092800Y-274053300D02*
X209092800Y-272224500D01*
X274739100Y-234463700D02*
X269000000Y-240202800D01*
X274739100Y-225704400D02*
X274739100Y-234463700D01*
X270738600Y-221703900D02*
X274739100Y-225704400D01*
X255536700Y-221703900D02*
X270738600Y-221703900D01*
X227888800Y-249351800D02*
X255536700Y-221703900D01*
X227888800Y-257924300D02*
X227888800Y-249351800D01*
X227457000Y-258356100D02*
X227888800Y-257924300D01*
X218274900Y-268528800D02*
X222656400Y-264147300D01*
X212788500Y-268528800D02*
X218274900Y-268528800D01*
X209092800Y-272224500D02*
X212788500Y-268528800D01*
X156019500Y-252984000D02*
X158242000Y-250761500D01*
X158242000Y-250761500D02*
X175323500Y-250761500D01*
X196723000Y-282000000D02*
X196723000Y-284949900D01*
X202247500Y-287274000D02*
X219532200Y-269989300D01*
X199047100Y-287274000D02*
X202247500Y-287274000D01*
X196723000Y-284949900D02*
X199047100Y-287274000D01*
X142481300Y-283921200D02*
X164007800Y-283921200D01*
X164007800Y-283921200D02*
X169875200Y-278053800D01*
X141480000Y-282919900D02*
X142481300Y-283921200D01*
X141480000Y-282000000D02*
X141480000Y-282919900D01*
X196420000Y-151200000D02*
X196420000Y-148867600D01*
X141480000Y-296115200D02*
X141480000Y-282000000D01*
X147726400Y-302361600D02*
X141480000Y-296115200D01*
X219862400Y-302361600D02*
X147726400Y-302361600D01*
X224129600Y-298094400D02*
X219862400Y-302361600D01*
X224129600Y-150368000D02*
X224129600Y-298094400D01*
X219608400Y-145846800D02*
X224129600Y-150368000D01*
X199440800Y-145846800D02*
X219608400Y-145846800D01*
X196420000Y-148867600D02*
X199440800Y-145846800D01*
X196420000Y-153740000D02*
X196420000Y-180672000D01*
X204901800Y-271281200D02*
X196723000Y-279460000D01*
X204901800Y-235280200D02*
X204901800Y-271281200D01*
X216916000Y-223266000D02*
X204901800Y-235280200D01*
X216916000Y-193802000D02*
X216916000Y-223266000D01*
X214376000Y-191262000D02*
X216916000Y-193802000D01*
X207010000Y-191262000D02*
X214376000Y-191262000D01*
X196420000Y-180672000D02*
X207010000Y-191262000D01*
X183337200Y-294627300D02*
X187833000Y-290131500D01*
X175831500Y-294627300D02*
X183337200Y-294627300D01*
X174155100Y-296303700D02*
X175831500Y-294627300D01*
X229336600Y-253352300D02*
X229336600Y-253466600D01*
X229387400Y-253301500D02*
X229336600Y-253352300D01*
X222313500Y-260438900D02*
X222338900Y-260438900D01*
X216204800Y-266547600D02*
X222313500Y-260438900D01*
X186563000Y-282282900D02*
X186563000Y-282232100D01*
X189103000Y-282000000D02*
X189103000Y-290449000D01*
X149529800Y-300126400D02*
X144780000Y-295376600D01*
X179425600Y-300126400D02*
X149529800Y-300126400D01*
X189103000Y-290449000D02*
X179425600Y-300126400D01*
X269976600Y-217055700D02*
X269976600Y-217017600D01*
X171043600Y-179197000D02*
X192405000Y-179197000D01*
X161391600Y-188849000D02*
X171043600Y-179197000D01*
X161391600Y-197891400D02*
X161391600Y-188849000D01*
X150749000Y-208534000D02*
X161391600Y-197891400D01*
X150749000Y-225437700D02*
X150749000Y-208534000D01*
X142887700Y-233299000D02*
X150749000Y-225437700D01*
X308914300Y-153402800D02*
X310489600Y-154978100D01*
X310489600Y-154978100D02*
X310489600Y-176237900D01*
X310489600Y-176237900D02*
X296189400Y-190538100D01*
X306000000Y-153402800D02*
X308914300Y-153402800D01*
X303002800Y-153402800D02*
X299352200Y-153402800D01*
X128473200Y-288239200D02*
X128473200Y-257429000D01*
X144145000Y-303911000D02*
X128473200Y-288239200D01*
X221767400Y-303911000D02*
X144145000Y-303911000D01*
X225983800Y-299694600D02*
X221767400Y-303911000D01*
X225983800Y-249910600D02*
X225983800Y-299694600D01*
X256921000Y-218973400D02*
X225983800Y-249910600D01*
X270941800Y-218973400D02*
X256921000Y-218973400D01*
X277164800Y-212750400D02*
X270941800Y-218973400D01*
X280009600Y-212750400D02*
X277164800Y-212750400D01*
X293116000Y-199644000D02*
X280009600Y-212750400D01*
X293116000Y-159639000D02*
X293116000Y-199644000D01*
X299352200Y-153402800D02*
X293116000Y-159639000D01*
X303002800Y-150405600D02*
X303002800Y-115931800D01*
X134391800Y-254203200D02*
X146279000Y-242316000D01*
X123164600Y-254203200D02*
X134391800Y-254203200D01*
X118287800Y-249326400D02*
X123164600Y-254203200D01*
X118287800Y-133172200D02*
X118287800Y-249326400D01*
X127254000Y-124206000D02*
X118287800Y-133172200D01*
X220599000Y-124206000D02*
X127254000Y-124206000D01*
X237744000Y-107061000D02*
X220599000Y-124206000D01*
X294132000Y-107061000D02*
X237744000Y-107061000D01*
X303002800Y-115931800D02*
X294132000Y-107061000D01*
X313944000Y-144272000D02*
X320077600Y-150405600D01*
X313944000Y-106045000D02*
X313944000Y-144272000D01*
X320077600Y-150405600D02*
X320802800Y-150405600D01*
X354609400Y-107581700D02*
X354609400Y-111709200D01*
X349618300Y-102590600D02*
X354609400Y-107581700D01*
X377540000Y-92830000D02*
X382009000Y-92830000D01*
X383667000Y-94488000D02*
X383667000Y-111861600D01*
X382009000Y-92830000D02*
X383667000Y-94488000D01*
X131039000Y-199136000D02*
X124371100Y-199136000D01*
X413004000Y-289271000D02*
X416039000Y-286236000D01*
X413004000Y-295186100D02*
X413004000Y-289271000D01*
X413537400Y-295719500D02*
X413004000Y-295186100D01*
X122148600Y-201358500D02*
X122148600Y-247942100D01*
X124371100Y-199136000D02*
X122148600Y-201358500D01*
X183235600Y-276504400D02*
X183235600Y-292925500D01*
X179628800Y-272897600D02*
X183235600Y-276504400D01*
X179628800Y-240474500D02*
X179628800Y-272897600D01*
X175196500Y-236042200D02*
X179628800Y-240474500D01*
X137185800Y-235762800D02*
X133579000Y-232156000D01*
X152438100Y-235762800D02*
X137185800Y-235762800D01*
X156019500Y-239344200D02*
X152438100Y-235762800D01*
X156019500Y-246545100D02*
X156019500Y-239344200D01*
X157695900Y-248221500D02*
X156019500Y-246545100D01*
X369000000Y-295000000D02*
X241025000Y-295000000D01*
X241025000Y-295000000D02*
X228854000Y-282829000D01*
M02*
