G04 #@! TF.FileFunction,Copper,L1,Top,Signal*
%FSLAX46Y46*%
G04 Gerber Fmt 4.6, Leading zero omitted, Abs format (unit mm)*
G04 Created by KiCad (PCBNEW 4.0.6) date 02/21/20 12:53:56*
%MOMM*%
%LPD*%
G01*
G04 APERTURE LIST*
%ADD10C,0.100000*%
%ADD11C,1.879600*%
%ADD12R,1.600000X1.600000*%
%ADD13C,1.600000*%
%ADD14R,1.800000X1.800000*%
%ADD15C,1.800000*%
%ADD16O,1.800000X1.800000*%
%ADD17R,2.800000X2.800000*%
%ADD18O,2.800000X2.800000*%
%ADD19R,1.200000X1.200000*%
%ADD20C,1.200000*%
%ADD21O,1.727200X1.727200*%
%ADD22R,1.700000X1.700000*%
%ADD23O,1.700000X1.700000*%
%ADD24R,1.350000X1.350000*%
%ADD25O,1.350000X1.350000*%
%ADD26C,3.000000*%
%ADD27R,1.350000X1.800000*%
%ADD28O,1.350000X1.800000*%
%ADD29O,1.600000X1.600000*%
%ADD30R,1.000000X2.750000*%
%ADD31C,0.600000*%
%ADD32C,0.250000*%
G04 APERTURE END LIST*
D10*
D11*
X133400000Y-102400000D03*
X133400000Y-104940000D03*
X135940000Y-102400000D03*
X135940000Y-104940000D03*
X138480000Y-102400000D03*
X138480000Y-104940000D03*
X141020000Y-102400000D03*
X141020000Y-104940000D03*
X143560000Y-102400000D03*
X143560000Y-104940000D03*
X146100000Y-102400000D03*
X146100000Y-104940000D03*
X148640000Y-102400000D03*
X148640000Y-104940000D03*
X188800000Y-102400000D03*
X188800000Y-104940000D03*
X191340000Y-102400000D03*
X191340000Y-104940000D03*
X193880000Y-102400000D03*
X193880000Y-104940000D03*
X196420000Y-102400000D03*
X196420000Y-104940000D03*
X198960000Y-102400000D03*
X198960000Y-104940000D03*
X201500000Y-102400000D03*
X201500000Y-104940000D03*
X204040000Y-102400000D03*
X204040000Y-104940000D03*
X188800000Y-151200000D03*
X188800000Y-153740000D03*
X191340000Y-151200000D03*
X191340000Y-153740000D03*
X193880000Y-151200000D03*
X193880000Y-153740000D03*
X196420000Y-151200000D03*
X196420000Y-153740000D03*
X198960000Y-151200000D03*
X198960000Y-153740000D03*
X201500000Y-151200000D03*
X201500000Y-153740000D03*
X204040000Y-151200000D03*
X204040000Y-153740000D03*
X133400000Y-151200000D03*
X133400000Y-153740000D03*
X135940000Y-151200000D03*
X135940000Y-153740000D03*
X138480000Y-151200000D03*
X138480000Y-153740000D03*
X141020000Y-151200000D03*
X141020000Y-153740000D03*
X143560000Y-151200000D03*
X143560000Y-153740000D03*
X146100000Y-151200000D03*
X146100000Y-153740000D03*
X148640000Y-151200000D03*
X148640000Y-153740000D03*
X148100000Y-282000000D03*
X148100000Y-279460000D03*
X145560000Y-282000000D03*
X145560000Y-279460000D03*
X143020000Y-282000000D03*
X143020000Y-279460000D03*
X140480000Y-282000000D03*
X140480000Y-279460000D03*
X137940000Y-282000000D03*
X137940000Y-279460000D03*
X135400000Y-282000000D03*
X135400000Y-279460000D03*
X132860000Y-282000000D03*
X132860000Y-279460000D03*
X204343000Y-282000000D03*
X204343000Y-279460000D03*
X201803000Y-282000000D03*
X201803000Y-279460000D03*
X199263000Y-282000000D03*
X199263000Y-279460000D03*
X196723000Y-282000000D03*
X196723000Y-279460000D03*
X194183000Y-282000000D03*
X194183000Y-279460000D03*
X191643000Y-282000000D03*
X191643000Y-279460000D03*
X189103000Y-282000000D03*
X189103000Y-279460000D03*
X269000000Y-243200000D03*
X266460000Y-243200000D03*
X269000000Y-240660000D03*
X266460000Y-240660000D03*
X269000000Y-238120000D03*
X266460000Y-238120000D03*
X269000000Y-235580000D03*
X266460000Y-235580000D03*
X269000000Y-233040000D03*
X266460000Y-233040000D03*
X269000000Y-230500000D03*
X266460000Y-230500000D03*
X269000000Y-227960000D03*
X266460000Y-227960000D03*
X408600000Y-143600000D03*
X406060000Y-143600000D03*
X408600000Y-141060000D03*
X406060000Y-141060000D03*
X408600000Y-138520000D03*
X406060000Y-138520000D03*
X408600000Y-135980000D03*
X406060000Y-135980000D03*
X408600000Y-133440000D03*
X406060000Y-133440000D03*
X408600000Y-130900000D03*
X406060000Y-130900000D03*
X408600000Y-128360000D03*
X406060000Y-128360000D03*
X323800000Y-156400000D03*
X321260000Y-156400000D03*
X323800000Y-153860000D03*
X321260000Y-153860000D03*
X323800000Y-151320000D03*
X321260000Y-151320000D03*
X306000000Y-156400000D03*
X303460000Y-156400000D03*
X306000000Y-153860000D03*
X303460000Y-153860000D03*
X306000000Y-151320000D03*
X303460000Y-151320000D03*
X323800000Y-181800000D03*
X321260000Y-181800000D03*
X323800000Y-179260000D03*
X321260000Y-179260000D03*
X323800000Y-176720000D03*
X321260000Y-176720000D03*
X323800000Y-174180000D03*
X321260000Y-174180000D03*
D12*
X467538000Y-305918000D03*
D13*
X470038000Y-305918000D03*
D12*
X467716000Y-296316000D03*
D13*
X470216000Y-296316000D03*
D14*
X311404000Y-240132000D03*
D15*
X313944000Y-240132000D03*
D14*
X429616000Y-291236000D03*
D16*
X429616000Y-281076000D03*
D14*
X434975000Y-291186000D03*
D16*
X434975000Y-281026000D03*
D14*
X450113000Y-290957000D03*
D16*
X450113000Y-280797000D03*
D14*
X444627000Y-290957000D03*
D16*
X444627000Y-280797000D03*
D14*
X425298000Y-231800000D03*
D15*
X427838000Y-231800000D03*
D17*
X459613000Y-303809000D03*
D18*
X459613000Y-293649000D03*
D14*
X439598000Y-290957000D03*
D16*
X439598000Y-280797000D03*
D14*
X308153000Y-234061000D03*
D15*
X310693000Y-234061000D03*
D14*
X304902000Y-240208000D03*
D15*
X307442000Y-240208000D03*
D19*
X388622000Y-115519000D03*
D20*
X388622000Y-110439000D03*
X393702000Y-115519000D03*
X398782000Y-110439000D03*
X396242000Y-115519000D03*
X398782000Y-115519000D03*
X393702000Y-110439000D03*
X396242000Y-110439000D03*
D19*
X349455000Y-115748000D03*
D20*
X349455000Y-110668000D03*
X354535000Y-115748000D03*
X359615000Y-110668000D03*
X357075000Y-115748000D03*
X359615000Y-115748000D03*
X354535000Y-110668000D03*
X357075000Y-110668000D03*
D19*
X362431000Y-98882000D03*
D20*
X362431000Y-103962000D03*
X357351000Y-98882000D03*
X352271000Y-103962000D03*
X354811000Y-98882000D03*
X352271000Y-98882000D03*
X357351000Y-103962000D03*
X354811000Y-103962000D03*
D19*
X349404000Y-92964000D03*
D20*
X349404000Y-87884000D03*
X354484000Y-92964000D03*
X359564000Y-87884000D03*
X357024000Y-92964000D03*
X359564000Y-92964000D03*
X354484000Y-87884000D03*
X357024000Y-87884000D03*
D19*
X389638000Y-94183200D03*
D20*
X389638000Y-89103200D03*
X394718000Y-94183200D03*
X399798000Y-89103200D03*
X397258000Y-94183200D03*
X399798000Y-94183200D03*
X394718000Y-89103200D03*
X397258000Y-89103200D03*
D21*
X163932000Y-219456000D03*
X161392000Y-219456000D03*
X161392000Y-216916000D03*
X163932000Y-216916000D03*
X161392000Y-214376000D03*
X176759000Y-242316000D03*
X181839000Y-242316000D03*
X184379000Y-242316000D03*
X186919000Y-242316000D03*
X189459000Y-242316000D03*
X191999000Y-242316000D03*
X194539000Y-242316000D03*
X197079000Y-242316000D03*
X141199000Y-194056000D03*
X143739000Y-194056000D03*
X146279000Y-194056000D03*
X148819000Y-194056000D03*
X151359000Y-194056000D03*
X153899000Y-194056000D03*
X156439000Y-194056000D03*
X158979000Y-194056000D03*
X164059000Y-194056000D03*
X166599000Y-194056000D03*
X169139000Y-194056000D03*
X171679000Y-194056000D03*
X174219000Y-194056000D03*
X176759000Y-194056000D03*
X179299000Y-194056000D03*
X181839000Y-194056000D03*
X201143000Y-194056000D03*
X185903000Y-194056000D03*
X188443000Y-194056000D03*
X190983000Y-194056000D03*
X208763000Y-194056000D03*
X206223000Y-194056000D03*
X203683000Y-194056000D03*
X198603000Y-194056000D03*
X196063000Y-194056000D03*
X193523000Y-194056000D03*
X199619000Y-242316000D03*
X174219000Y-242316000D03*
X171679000Y-242316000D03*
X169139000Y-242316000D03*
X166599000Y-242316000D03*
X164059000Y-242316000D03*
X161519000Y-242316000D03*
X158979000Y-242316000D03*
X153899000Y-242316000D03*
X151359000Y-242316000D03*
X148819000Y-242316000D03*
X146279000Y-242316000D03*
X143739000Y-242316000D03*
X141199000Y-242316000D03*
X138659000Y-242316000D03*
X136119000Y-242316000D03*
X133579000Y-194056000D03*
X131039000Y-194056000D03*
X133579000Y-196596000D03*
X131039000Y-196596000D03*
X133579000Y-199136000D03*
X131039000Y-199136000D03*
X133579000Y-201676000D03*
X131039000Y-201676000D03*
X133579000Y-204216000D03*
X131039000Y-204216000D03*
X133579000Y-206756000D03*
X131039000Y-206756000D03*
X133579000Y-209296000D03*
X131039000Y-209296000D03*
X133579000Y-211836000D03*
X131039000Y-211836000D03*
X133579000Y-214376000D03*
X131039000Y-214376000D03*
X133579000Y-216916000D03*
X131039000Y-216916000D03*
X133579000Y-219456000D03*
X131039000Y-219456000D03*
X133579000Y-221996000D03*
X131039000Y-221996000D03*
X133579000Y-224536000D03*
X131039000Y-224536000D03*
X133579000Y-227076000D03*
X131039000Y-227076000D03*
X133579000Y-229616000D03*
X131039000Y-229616000D03*
X133579000Y-232156000D03*
X131039000Y-232156000D03*
X133579000Y-234696000D03*
X131039000Y-234696000D03*
X133579000Y-237236000D03*
X131039000Y-237236000D03*
X163932000Y-214376000D03*
D22*
X477596000Y-306172000D03*
D23*
X477596000Y-308712000D03*
D14*
X459892000Y-279476000D03*
D15*
X462432000Y-279476000D03*
X464972000Y-279476000D03*
X467512000Y-279476000D03*
X470052000Y-279476000D03*
X472592000Y-279476000D03*
X475132000Y-279476000D03*
X477672000Y-279476000D03*
X480212000Y-279476000D03*
X482752000Y-279476000D03*
X485292000Y-279476000D03*
X487832000Y-279476000D03*
X490372000Y-279476000D03*
X492912000Y-279476000D03*
X495452000Y-279476000D03*
X495452000Y-264236000D03*
X492912000Y-264236000D03*
X490372000Y-264236000D03*
X487832000Y-264236000D03*
X485292000Y-264236000D03*
X482752000Y-264236000D03*
X480212000Y-264236000D03*
X477672000Y-264236000D03*
X475132000Y-264236000D03*
X472592000Y-264236000D03*
X470052000Y-264236000D03*
X467512000Y-264236000D03*
X464972000Y-264236000D03*
X462432000Y-264236000D03*
X459892000Y-264236000D03*
D24*
X479069000Y-285090000D03*
D25*
X479069000Y-287090000D03*
D26*
X372720000Y-115011000D03*
X380340000Y-115011000D03*
X372720000Y-94691000D03*
X380340000Y-89691000D03*
X380340000Y-99691000D03*
X372720000Y-99691000D03*
X380340000Y-94691000D03*
X372720000Y-89691000D03*
D27*
X484556000Y-310896000D03*
D28*
X486256000Y-310896000D03*
X487956000Y-310896000D03*
X489656000Y-310896000D03*
X491356000Y-310896000D03*
D22*
X490880000Y-286131000D03*
D23*
X488340000Y-286131000D03*
D13*
X465988000Y-286334000D03*
D29*
X468528000Y-286334000D03*
D22*
X461518000Y-307950000D03*
D23*
X461518000Y-310490000D03*
D30*
X450184000Y-88543600D03*
X450184000Y-94793600D03*
X452184000Y-88543600D03*
X452184000Y-94793600D03*
X454184000Y-88543600D03*
X454184000Y-94793600D03*
X456184000Y-88543600D03*
X456184000Y-94793600D03*
X458184000Y-88543600D03*
X458184000Y-94793600D03*
X460184000Y-88543600D03*
X460184000Y-94793600D03*
X462184000Y-88543600D03*
X462184000Y-94793600D03*
D13*
X405308000Y-308559000D03*
D29*
X420548000Y-308559000D03*
D13*
X405587000Y-293649000D03*
D29*
X420827000Y-293649000D03*
D13*
X405867000Y-289458000D03*
D29*
X421107000Y-289458000D03*
D13*
X420675000Y-302692000D03*
D29*
X405435000Y-302692000D03*
D13*
X420548000Y-297739000D03*
D29*
X405308000Y-297739000D03*
D31*
X376444300Y-120268200D03*
X400280000Y-159846200D03*
X186809300Y-151188900D03*
X191340000Y-107365800D03*
X190547400Y-274658600D03*
X151193400Y-274678100D03*
X147575800Y-274760000D03*
X197055000Y-106845000D03*
X204636600Y-156068600D03*
X230353500Y-241414000D03*
X232660900Y-237919000D03*
X232279000Y-237034800D03*
X231451300Y-236779300D03*
X269045300Y-214555100D03*
X268857100Y-208783100D03*
X268226000Y-214476200D03*
X344748300Y-123488400D03*
X178742500Y-246678200D03*
X178028200Y-250345000D03*
D32*
X462693300Y-309637400D02*
X462693300Y-310490000D01*
X466412700Y-305918000D02*
X462693300Y-309637400D01*
X467538000Y-305918000D02*
X466412700Y-305918000D01*
X461518000Y-310490000D02*
X462693300Y-310490000D01*
X468663300Y-306199300D02*
X468663300Y-305918000D01*
X473360000Y-310896000D02*
X468663300Y-306199300D01*
X484556000Y-310896000D02*
X473360000Y-310896000D01*
X467538000Y-305918000D02*
X468663300Y-305918000D01*
X488340000Y-286131000D02*
X487164700Y-286131000D01*
X444627000Y-280797000D02*
X439598000Y-280797000D01*
X450113000Y-280797000D02*
X444627000Y-280797000D01*
X438143700Y-281026000D02*
X438372700Y-280797000D01*
X434975000Y-281026000D02*
X438143700Y-281026000D01*
X439598000Y-280797000D02*
X438372700Y-280797000D01*
X484407400Y-307347400D02*
X487956000Y-310896000D01*
X471467400Y-307347400D02*
X484407400Y-307347400D01*
X470038000Y-305918000D02*
X471467400Y-307347400D01*
X459613000Y-293649000D02*
X461338300Y-293649000D01*
X461518000Y-307950000D02*
X461518000Y-306774700D01*
X462286500Y-306774700D02*
X461518000Y-306774700D01*
X466590600Y-302470600D02*
X462286500Y-306774700D01*
X466590600Y-302470600D02*
X470038000Y-305918000D01*
X425298000Y-231800000D02*
X425298000Y-230574700D01*
X434975000Y-281026000D02*
X433749700Y-281026000D01*
X425298000Y-231800000D02*
X425298000Y-233025300D01*
X431657900Y-281026000D02*
X433749700Y-281026000D01*
X431607900Y-281076000D02*
X431657900Y-281026000D01*
X429616000Y-281076000D02*
X431607900Y-281076000D01*
X431657900Y-239385200D02*
X425298000Y-233025300D01*
X431657900Y-281026000D02*
X431657900Y-239385200D01*
X382145000Y-103962000D02*
X388622000Y-110439000D01*
X362431000Y-103962000D02*
X382145000Y-103962000D01*
X425297900Y-230574700D02*
X425298000Y-230574700D01*
X425297900Y-167928600D02*
X425297900Y-230574700D01*
X399313300Y-141944000D02*
X425297900Y-167928600D01*
X399313300Y-124060800D02*
X399313300Y-141944000D01*
X400157700Y-123216400D02*
X399313300Y-124060800D01*
X400157700Y-114945100D02*
X400157700Y-123216400D01*
X398447800Y-113235200D02*
X400157700Y-114945100D01*
X391418200Y-113235200D02*
X398447800Y-113235200D01*
X388622000Y-110439000D02*
X391418200Y-113235200D01*
X467512000Y-269316000D02*
X467512000Y-279476000D01*
X462432000Y-264236000D02*
X467512000Y-269316000D01*
X466590600Y-295186300D02*
X466590600Y-302470600D01*
X462875600Y-295186300D02*
X466590600Y-295186300D01*
X461338300Y-293649000D02*
X462875600Y-295186300D01*
X486205700Y-287090000D02*
X479069000Y-287090000D01*
X487164700Y-286131000D02*
X486205700Y-287090000D01*
X479069000Y-287090000D02*
X478068700Y-287090000D01*
X478068700Y-287090000D02*
X469529400Y-295629300D01*
X469086300Y-295186300D02*
X469529400Y-295629300D01*
X466590600Y-295186300D02*
X469086300Y-295186300D01*
X469529400Y-295629300D02*
X470216000Y-296316000D01*
X484932000Y-306172000D02*
X477596000Y-306172000D01*
X489656000Y-310896000D02*
X484932000Y-306172000D01*
X477246700Y-304996700D02*
X477596000Y-304996700D01*
X468841300Y-296591300D02*
X477246700Y-304996700D01*
X468841300Y-296316000D02*
X468841300Y-296591300D01*
X467716000Y-296316000D02*
X468841300Y-296316000D01*
X477596000Y-306172000D02*
X477596000Y-304996700D01*
X372720000Y-94691000D02*
X380340000Y-94691000D01*
X468528000Y-286334000D02*
X468528000Y-285208700D01*
X381844500Y-94691000D02*
X380340000Y-94691000D01*
X397512000Y-110358500D02*
X381844500Y-94691000D01*
X397512000Y-110897400D02*
X397512000Y-110358500D01*
X401072200Y-114457600D02*
X397512000Y-110897400D01*
X401072200Y-124388000D02*
X401072200Y-114457600D01*
X400250900Y-125209300D02*
X401072200Y-124388000D01*
X400250900Y-140970900D02*
X400250900Y-125209300D01*
X444253800Y-184973800D02*
X400250900Y-140970900D01*
X444253800Y-229662100D02*
X444253800Y-184973800D01*
X471322000Y-256730300D02*
X444253800Y-229662100D01*
X471322000Y-282414700D02*
X471322000Y-256730300D01*
X468528000Y-285208700D02*
X471322000Y-282414700D01*
X384213600Y-112035900D02*
X387696700Y-115519000D01*
X253346700Y-112035900D02*
X384213600Y-112035900D01*
X203719400Y-161663200D02*
X253346700Y-112035900D01*
X202298300Y-161663200D02*
X203719400Y-161663200D01*
X170409000Y-193552500D02*
X202298300Y-161663200D01*
X170409000Y-194486000D02*
X170409000Y-193552500D01*
X168151800Y-196743200D02*
X170409000Y-194486000D01*
X166795800Y-196743200D02*
X168151800Y-196743200D01*
X135111900Y-228427100D02*
X166795800Y-196743200D01*
X133045200Y-228427100D02*
X135111900Y-228427100D01*
X132227900Y-229244400D02*
X133045200Y-228427100D01*
X132227900Y-229616000D02*
X132227900Y-229244400D01*
X131039000Y-229616000D02*
X132227900Y-229616000D01*
X388159400Y-115519000D02*
X387696700Y-115519000D01*
X388159400Y-115519000D02*
X388622000Y-115519000D01*
X388622000Y-115519000D02*
X389547300Y-115519000D01*
X429616000Y-291236000D02*
X429616000Y-290010700D01*
X398862900Y-259257600D02*
X429616000Y-290010700D01*
X398862900Y-123231000D02*
X398862900Y-259257600D01*
X399707300Y-122386600D02*
X398862900Y-123231000D01*
X399707300Y-115135400D02*
X399707300Y-122386600D01*
X398690200Y-114118300D02*
X399707300Y-115135400D01*
X390948000Y-114118300D02*
X398690200Y-114118300D01*
X389547300Y-115519000D02*
X390948000Y-114118300D01*
X360580400Y-99807300D02*
X361505700Y-98882000D01*
X264624800Y-99807300D02*
X360580400Y-99807300D01*
X203219300Y-161212800D02*
X264624800Y-99807300D01*
X200280300Y-161212800D02*
X203219300Y-161212800D01*
X167869000Y-193624100D02*
X200280300Y-161212800D01*
X167869000Y-194467500D02*
X167869000Y-193624100D01*
X136449400Y-225887100D02*
X167869000Y-194467500D01*
X133045200Y-225887100D02*
X136449400Y-225887100D01*
X132227900Y-226704400D02*
X133045200Y-225887100D01*
X132227900Y-227076000D02*
X132227900Y-226704400D01*
X131039000Y-227076000D02*
X132227900Y-227076000D01*
X362431000Y-98882000D02*
X361505700Y-98882000D01*
X133579000Y-229616000D02*
X134767900Y-229616000D01*
X337180900Y-115748000D02*
X349455000Y-115748000D01*
X300179100Y-152749800D02*
X337180900Y-115748000D01*
X300179100Y-177709100D02*
X300179100Y-152749800D01*
X282679500Y-195208700D02*
X300179100Y-177709100D01*
X280624800Y-195208700D02*
X282679500Y-195208700D01*
X254977600Y-220855900D02*
X280624800Y-195208700D01*
X143528000Y-220855900D02*
X254977600Y-220855900D01*
X134767900Y-229616000D02*
X143528000Y-220855900D01*
X368229700Y-120268200D02*
X376444300Y-120268200D01*
X362736000Y-114774500D02*
X368229700Y-120268200D01*
X351353800Y-114774500D02*
X362736000Y-114774500D01*
X350380300Y-115748000D02*
X351353800Y-114774500D01*
X349455000Y-115748000D02*
X350380300Y-115748000D01*
X131039000Y-221996000D02*
X132227900Y-221996000D01*
X270831200Y-92964000D02*
X349404000Y-92964000D01*
X205070800Y-158724400D02*
X270831200Y-92964000D01*
X200188300Y-158724400D02*
X205070800Y-158724400D01*
X165329000Y-193583700D02*
X200188300Y-158724400D01*
X165329000Y-194505800D02*
X165329000Y-193583700D01*
X136648200Y-223186600D02*
X165329000Y-194505800D01*
X133047000Y-223186600D02*
X136648200Y-223186600D01*
X132227900Y-222367500D02*
X133047000Y-223186600D01*
X132227900Y-221996000D02*
X132227900Y-222367500D01*
X451368300Y-282990400D02*
X444627000Y-289731700D01*
X451368300Y-279146000D02*
X451368300Y-282990400D01*
X443044000Y-270821700D02*
X451368300Y-279146000D01*
X443044000Y-184493900D02*
X443044000Y-270821700D01*
X399800500Y-141250400D02*
X443044000Y-184493900D01*
X399800500Y-124210500D02*
X399800500Y-141250400D01*
X400608100Y-123402900D02*
X399800500Y-124210500D01*
X400608100Y-114724500D02*
X400608100Y-123402900D01*
X397248000Y-111364400D02*
X400608100Y-114724500D01*
X391321200Y-111364400D02*
X397248000Y-111364400D01*
X381473200Y-101516400D02*
X391321200Y-111364400D01*
X369010100Y-101516400D02*
X381473200Y-101516400D01*
X361383000Y-93889300D02*
X369010100Y-101516400D01*
X351254600Y-93889300D02*
X361383000Y-93889300D01*
X350329300Y-92964000D02*
X351254600Y-93889300D01*
X349404000Y-92964000D02*
X350329300Y-92964000D01*
X444627000Y-290957000D02*
X444627000Y-289731700D01*
X386551800Y-92022300D02*
X388712700Y-94183200D01*
X269574400Y-92022300D02*
X386551800Y-92022300D01*
X204163900Y-157432800D02*
X269574400Y-92022300D01*
X198959600Y-157432800D02*
X204163900Y-157432800D01*
X134767900Y-221624500D02*
X198959600Y-157432800D01*
X134767900Y-221996000D02*
X134767900Y-221624500D01*
X133579000Y-221996000D02*
X134767900Y-221996000D01*
X389638000Y-94183200D02*
X388712700Y-94183200D01*
X437760300Y-290957000D02*
X439598000Y-290957000D01*
X400280000Y-253476700D02*
X437760300Y-290957000D01*
X400280000Y-159846200D02*
X400280000Y-253476700D01*
X188788900Y-151188900D02*
X186809300Y-151188900D01*
X188800000Y-151200000D02*
X188788900Y-151188900D01*
X134670000Y-152470000D02*
X133400000Y-151200000D01*
X139038700Y-152470000D02*
X134670000Y-152470000D01*
X139750000Y-151758700D02*
X139038700Y-152470000D01*
X139750000Y-150642800D02*
X139750000Y-151758700D01*
X141378900Y-149013900D02*
X139750000Y-150642800D01*
X184634300Y-149013900D02*
X141378900Y-149013900D01*
X186809300Y-151188900D02*
X184634300Y-149013900D01*
X151866800Y-104940000D02*
X188800000Y-104940000D01*
X150596800Y-103670000D02*
X151866800Y-104940000D01*
X134670000Y-103670000D02*
X150596800Y-103670000D01*
X133400000Y-104940000D02*
X134670000Y-103670000D01*
X203073000Y-280730000D02*
X204343000Y-279460000D01*
X196146800Y-280730000D02*
X203073000Y-280730000D01*
X195453000Y-281423800D02*
X196146800Y-280730000D01*
X195453000Y-282554000D02*
X195453000Y-281423800D01*
X192912800Y-285094200D02*
X195453000Y-282554000D01*
X186042700Y-285094200D02*
X192912800Y-285094200D01*
X185207900Y-284259400D02*
X186042700Y-285094200D01*
X153886400Y-284259400D02*
X185207900Y-284259400D01*
X149087000Y-279460000D02*
X153886400Y-284259400D01*
X148100000Y-279460000D02*
X149087000Y-279460000D01*
X135246200Y-102400000D02*
X135940000Y-102400000D01*
X133976200Y-103670000D02*
X135246200Y-102400000D01*
X132832400Y-103670000D02*
X133976200Y-103670000D01*
X132121000Y-104381400D02*
X132832400Y-103670000D01*
X132121000Y-142108200D02*
X132121000Y-104381400D01*
X138576400Y-148563600D02*
X132121000Y-142108200D01*
X188703600Y-148563600D02*
X138576400Y-148563600D01*
X191340000Y-151200000D02*
X188703600Y-148563600D01*
X138576400Y-148563600D02*
X135940000Y-151200000D01*
X138365800Y-107365800D02*
X191340000Y-107365800D01*
X135940000Y-104940000D02*
X138365800Y-107365800D01*
X190527900Y-274678100D02*
X190547400Y-274658600D01*
X151193400Y-274678100D02*
X190527900Y-274678100D01*
X197001600Y-274658600D02*
X201803000Y-279460000D01*
X190547400Y-274658600D02*
X197001600Y-274658600D01*
X195268200Y-285994800D02*
X199263000Y-282000000D01*
X185669500Y-285994800D02*
X195268200Y-285994800D01*
X184843400Y-285168700D02*
X185669500Y-285994800D01*
X146188700Y-285168700D02*
X184843400Y-285168700D01*
X143020000Y-282000000D02*
X146188700Y-285168700D01*
X192566800Y-155053200D02*
X193880000Y-153740000D01*
X187712100Y-155053200D02*
X192566800Y-155053200D01*
X182573400Y-149914500D02*
X187712100Y-155053200D01*
X142994300Y-149914500D02*
X182573400Y-149914500D01*
X142285100Y-150623700D02*
X142994300Y-149914500D01*
X142285100Y-151771700D02*
X142285100Y-150623700D01*
X141582000Y-152474800D02*
X142285100Y-151771700D01*
X139745200Y-152474800D02*
X141582000Y-152474800D01*
X138480000Y-153740000D02*
X139745200Y-152474800D01*
X195638800Y-275835800D02*
X199263000Y-279460000D01*
X151424600Y-275835800D02*
X195638800Y-275835800D01*
X150348800Y-274760000D02*
X151424600Y-275835800D01*
X147575800Y-274760000D02*
X150348800Y-274760000D01*
X128609400Y-255793600D02*
X147575800Y-274760000D01*
X128609400Y-163610600D02*
X128609400Y-255793600D01*
X138480000Y-153740000D02*
X128609400Y-163610600D01*
X142755800Y-149464200D02*
X141020000Y-151200000D01*
X183435400Y-149464200D02*
X142755800Y-149464200D01*
X186441000Y-152469800D02*
X183435400Y-149464200D01*
X195150200Y-152469800D02*
X186441000Y-152469800D01*
X196420000Y-151200000D02*
X195150200Y-152469800D01*
X193178500Y-285544500D02*
X196723000Y-282000000D01*
X185856100Y-285544500D02*
X193178500Y-285544500D01*
X185021300Y-284709700D02*
X185856100Y-285544500D01*
X153699800Y-284709700D02*
X185021300Y-284709700D01*
X149720100Y-280730000D02*
X153699800Y-284709700D01*
X141750000Y-280730000D02*
X149720100Y-280730000D01*
X140480000Y-282000000D02*
X141750000Y-280730000D01*
X196950500Y-106740500D02*
X197055000Y-106845000D01*
X142820500Y-106740500D02*
X196950500Y-106740500D01*
X141020000Y-104940000D02*
X142820500Y-106740500D01*
X197690000Y-152470000D02*
X196420000Y-153740000D01*
X197690000Y-107480000D02*
X197690000Y-152470000D01*
X197055000Y-106845000D02*
X197690000Y-107480000D01*
X195453000Y-280730000D02*
X196723000Y-279460000D01*
X193606800Y-280730000D02*
X195453000Y-280730000D01*
X192913000Y-281423800D02*
X193606800Y-280730000D01*
X192913000Y-282530100D02*
X192913000Y-281423800D01*
X191249500Y-284193600D02*
X192913000Y-282530100D01*
X187689700Y-284193600D02*
X191249500Y-284193600D01*
X186854800Y-283358700D02*
X187689700Y-284193600D01*
X154562600Y-283358700D02*
X186854800Y-283358700D01*
X148909100Y-277705200D02*
X154562600Y-283358700D01*
X142234800Y-277705200D02*
X148909100Y-277705200D01*
X140480000Y-279460000D02*
X142234800Y-277705200D01*
X191539100Y-284643900D02*
X194183000Y-282000000D01*
X187503100Y-284643900D02*
X191539100Y-284643900D01*
X186668300Y-283809100D02*
X187503100Y-284643900D01*
X154281600Y-283809100D02*
X186668300Y-283809100D01*
X148662200Y-278189700D02*
X154281600Y-283809100D01*
X142459200Y-278189700D02*
X148662200Y-278189700D01*
X141750000Y-278898900D02*
X142459200Y-278189700D01*
X141750000Y-280021100D02*
X141750000Y-278898900D01*
X141041100Y-280730000D02*
X141750000Y-280021100D01*
X139210000Y-280730000D02*
X141041100Y-280730000D01*
X137940000Y-282000000D02*
X139210000Y-280730000D01*
X204509900Y-156068600D02*
X202770000Y-154328700D01*
X204636600Y-156068600D02*
X204509900Y-156068600D01*
X202770000Y-153163800D02*
X202770000Y-154328700D01*
X202076200Y-152470000D02*
X202770000Y-153163800D01*
X200230000Y-152470000D02*
X202076200Y-152470000D01*
X198960000Y-151200000D02*
X200230000Y-152470000D01*
X142290000Y-152470000D02*
X143560000Y-151200000D01*
X142290000Y-154311200D02*
X142290000Y-152470000D01*
X144418100Y-156439300D02*
X142290000Y-154311200D01*
X200659400Y-156439300D02*
X144418100Y-156439300D01*
X202770000Y-154328700D02*
X200659400Y-156439300D01*
X140612300Y-276787700D02*
X137940000Y-279460000D01*
X149516400Y-276787700D02*
X140612300Y-276787700D01*
X155186700Y-282458000D02*
X149516400Y-276787700D01*
X187453200Y-282458000D02*
X155186700Y-282458000D01*
X188288200Y-283293000D02*
X187453200Y-282458000D01*
X189610400Y-283293000D02*
X188288200Y-283293000D01*
X190373000Y-282530400D02*
X189610400Y-283293000D01*
X190373000Y-281423800D02*
X190373000Y-282530400D01*
X191066800Y-280730000D02*
X190373000Y-281423800D01*
X192913000Y-280730000D02*
X191066800Y-280730000D01*
X194183000Y-279460000D02*
X192913000Y-280730000D01*
X144830000Y-152470000D02*
X143560000Y-153740000D01*
X151511300Y-152470000D02*
X144830000Y-152470000D01*
X154579900Y-155538600D02*
X151511300Y-152470000D01*
X197161400Y-155538600D02*
X154579900Y-155538600D01*
X198960000Y-153740000D02*
X197161400Y-155538600D01*
X147365200Y-101134800D02*
X146100000Y-102400000D01*
X200234800Y-101134800D02*
X147365200Y-101134800D01*
X201500000Y-102400000D02*
X200234800Y-101134800D01*
X189899700Y-283743300D02*
X191643000Y-282000000D01*
X187876300Y-283743300D02*
X189899700Y-283743300D01*
X187041300Y-282908300D02*
X187876300Y-283743300D01*
X154925100Y-282908300D02*
X187041300Y-282908300D01*
X149262300Y-277245500D02*
X154925100Y-282908300D01*
X140863400Y-277245500D02*
X149262300Y-277245500D01*
X139210000Y-278898900D02*
X140863400Y-277245500D01*
X139210000Y-280021100D02*
X139210000Y-278898900D01*
X138501100Y-280730000D02*
X139210000Y-280021100D01*
X136670000Y-280730000D02*
X138501100Y-280730000D01*
X135400000Y-282000000D02*
X136670000Y-280730000D01*
X256296800Y-241414000D02*
X230353500Y-241414000D01*
X265945600Y-231765200D02*
X256296800Y-241414000D01*
X267734800Y-231765200D02*
X265945600Y-231765200D01*
X269000000Y-230500000D02*
X267734800Y-231765200D01*
X190373100Y-280729900D02*
X191643000Y-279460000D01*
X183828200Y-280729900D02*
X190373100Y-280729900D01*
X183356700Y-281201400D02*
X183828200Y-280729900D01*
X155516400Y-281201400D02*
X183356700Y-281201400D01*
X150202100Y-275887100D02*
X155516400Y-281201400D01*
X138972900Y-275887100D02*
X150202100Y-275887100D01*
X135400000Y-279460000D02*
X138972900Y-275887100D01*
X148349000Y-155989000D02*
X146100000Y-153740000D01*
X199251000Y-155989000D02*
X148349000Y-155989000D01*
X201500000Y-153740000D02*
X199251000Y-155989000D01*
X259041000Y-237919000D02*
X232660900Y-237919000D01*
X266460000Y-230500000D02*
X259041000Y-237919000D01*
X150276000Y-102400000D02*
X148640000Y-102400000D01*
X151546000Y-103670000D02*
X150276000Y-102400000D01*
X202770000Y-103670000D02*
X151546000Y-103670000D01*
X204040000Y-102400000D02*
X202770000Y-103670000D01*
X134130000Y-280730000D02*
X132860000Y-282000000D01*
X135961100Y-280730000D02*
X134130000Y-280730000D01*
X136670000Y-280021100D02*
X135961100Y-280730000D01*
X136670000Y-278898900D02*
X136670000Y-280021100D01*
X139231500Y-276337400D02*
X136670000Y-278898900D01*
X149728900Y-276337400D02*
X139231500Y-276337400D01*
X155391500Y-282000000D02*
X149728900Y-276337400D01*
X189103000Y-282000000D02*
X155391500Y-282000000D01*
X258022100Y-237034800D02*
X232279000Y-237034800D01*
X265831700Y-229225200D02*
X258022100Y-237034800D01*
X267734800Y-229225200D02*
X265831700Y-229225200D01*
X269000000Y-227960000D02*
X267734800Y-229225200D01*
X202774800Y-152474800D02*
X202774800Y-106205200D01*
X204040000Y-153740000D02*
X202774800Y-152474800D01*
X204040000Y-104940000D02*
X202774800Y-106205200D01*
X149905200Y-106205200D02*
X148640000Y-104940000D01*
X202774800Y-106205200D02*
X149905200Y-106205200D01*
X185929100Y-276286100D02*
X189103000Y-279460000D01*
X151238000Y-276286100D02*
X185929100Y-276286100D01*
X150388700Y-275436800D02*
X151238000Y-276286100D01*
X136883200Y-275436800D02*
X150388700Y-275436800D01*
X132860000Y-279460000D02*
X136883200Y-275436800D01*
X232209200Y-236021400D02*
X231451300Y-236779300D01*
X258398600Y-236021400D02*
X232209200Y-236021400D01*
X266460000Y-227960000D02*
X258398600Y-236021400D01*
X438149300Y-88543600D02*
X450184000Y-88543600D01*
X400701300Y-125991600D02*
X438149300Y-88543600D01*
X400701300Y-140690200D02*
X400701300Y-125991600D01*
X405366800Y-145355700D02*
X400701300Y-140690200D01*
X406844300Y-145355700D02*
X405366800Y-145355700D01*
X408600000Y-143600000D02*
X406844300Y-145355700D01*
X450184000Y-94793600D02*
X450184000Y-96493900D01*
X433492500Y-96493900D02*
X450184000Y-96493900D01*
X402972400Y-127014000D02*
X433492500Y-96493900D01*
X402972400Y-134684700D02*
X402972400Y-127014000D01*
X405537700Y-137250000D02*
X402972400Y-134684700D01*
X409158700Y-137250000D02*
X405537700Y-137250000D01*
X409875200Y-137966500D02*
X409158700Y-137250000D01*
X409875200Y-139035700D02*
X409875200Y-137966500D01*
X409120900Y-139790000D02*
X409875200Y-139035700D01*
X408023800Y-139790000D02*
X409120900Y-139790000D01*
X407330000Y-140483800D02*
X408023800Y-139790000D01*
X407330000Y-142330000D02*
X407330000Y-140483800D01*
X406060000Y-143600000D02*
X407330000Y-142330000D01*
X452184000Y-88543600D02*
X452184000Y-90243900D01*
X437164700Y-90243900D02*
X452184000Y-90243900D01*
X401151700Y-126256900D02*
X437164700Y-90243900D01*
X401151700Y-140481500D02*
X401151700Y-126256900D01*
X405570400Y-144900200D02*
X401151700Y-140481500D01*
X406634200Y-144900200D02*
X405570400Y-144900200D01*
X407330000Y-144204400D02*
X406634200Y-144900200D01*
X407330000Y-143023800D02*
X407330000Y-144204400D01*
X408600000Y-141753800D02*
X407330000Y-143023800D01*
X408600000Y-141060000D02*
X408600000Y-141753800D01*
X452184000Y-94793600D02*
X452184000Y-93093300D01*
X455009400Y-90267900D02*
X452184000Y-93093300D01*
X455009400Y-87021400D02*
X455009400Y-90267900D01*
X454831200Y-86843200D02*
X455009400Y-87021400D01*
X453542700Y-86843200D02*
X454831200Y-86843200D01*
X453358600Y-87027300D02*
X453542700Y-86843200D01*
X453358600Y-89784200D02*
X453358600Y-87027300D01*
X452448600Y-90694200D02*
X453358600Y-89784200D01*
X437351500Y-90694200D02*
X452448600Y-90694200D01*
X401602000Y-126443700D02*
X437351500Y-90694200D01*
X401602000Y-136602000D02*
X401602000Y-126443700D01*
X406060000Y-141060000D02*
X401602000Y-136602000D01*
X454184000Y-88543600D02*
X454184000Y-90243900D01*
X452833100Y-91594800D02*
X454184000Y-90243900D01*
X437087800Y-91594800D02*
X452833100Y-91594800D01*
X402052300Y-126630300D02*
X437087800Y-91594800D01*
X402052300Y-136323200D02*
X402052300Y-126630300D01*
X405519100Y-139790000D02*
X402052300Y-136323200D01*
X407330000Y-139790000D02*
X405519100Y-139790000D01*
X408600000Y-138520000D02*
X407330000Y-139790000D01*
X402522000Y-134982000D02*
X406060000Y-138520000D01*
X402522000Y-126797500D02*
X402522000Y-134982000D01*
X436226300Y-93093200D02*
X402522000Y-126797500D01*
X450831800Y-93093200D02*
X436226300Y-93093200D01*
X451358700Y-93620100D02*
X450831800Y-93093200D01*
X451358700Y-96303400D02*
X451358700Y-93620100D01*
X451549200Y-96493900D02*
X451358700Y-96303400D01*
X454184000Y-96493900D02*
X451549200Y-96493900D01*
X454184000Y-94793600D02*
X454184000Y-96493900D01*
X456184000Y-88543600D02*
X456184000Y-90243900D01*
X457009300Y-91069200D02*
X456184000Y-90243900D01*
X457009300Y-96305600D02*
X457009300Y-91069200D01*
X455470000Y-97844900D02*
X457009300Y-96305600D01*
X433417500Y-97844900D02*
X455470000Y-97844900D01*
X403873300Y-127389100D02*
X433417500Y-97844900D01*
X403873300Y-133084400D02*
X403873300Y-127389100D01*
X405498900Y-134710000D02*
X403873300Y-133084400D01*
X407330000Y-134710000D02*
X405498900Y-134710000D01*
X408600000Y-135980000D02*
X407330000Y-134710000D01*
X456184000Y-94793600D02*
X456184000Y-96493900D01*
X455733600Y-96944300D02*
X456184000Y-96493900D01*
X433679000Y-96944300D02*
X455733600Y-96944300D01*
X403422900Y-127200400D02*
X433679000Y-96944300D01*
X403422900Y-133342900D02*
X403422900Y-127200400D01*
X406060000Y-135980000D02*
X403422900Y-133342900D01*
X458184000Y-88543600D02*
X458184000Y-86843300D01*
X427285000Y-133440000D02*
X408600000Y-133440000D01*
X463940600Y-96784400D02*
X427285000Y-133440000D01*
X463940600Y-87947400D02*
X463940600Y-96784400D01*
X462836500Y-86843300D02*
X463940600Y-87947400D01*
X458184000Y-86843300D02*
X462836500Y-86843300D01*
X458184000Y-94793600D02*
X458184000Y-96493900D01*
X456382600Y-98295300D02*
X458184000Y-96493900D01*
X433604100Y-98295300D02*
X456382600Y-98295300D01*
X404329600Y-127569800D02*
X433604100Y-98295300D01*
X404329600Y-131709600D02*
X404329600Y-127569800D01*
X406060000Y-133440000D02*
X404329600Y-131709600D01*
X407330000Y-129630000D02*
X408600000Y-130900000D01*
X407330000Y-127798900D02*
X407330000Y-129630000D01*
X408958400Y-126170500D02*
X407330000Y-127798900D01*
X433206100Y-126170500D02*
X408958400Y-126170500D01*
X463009300Y-96367300D02*
X433206100Y-126170500D01*
X463009300Y-93069200D02*
X463009300Y-96367300D01*
X460184000Y-90243900D02*
X463009300Y-93069200D01*
X460184000Y-88543600D02*
X460184000Y-90243900D01*
X460184000Y-94793600D02*
X460184000Y-96493900D01*
X457482200Y-99195700D02*
X460184000Y-96493900D01*
X433391500Y-99195700D02*
X457482200Y-99195700D01*
X404785200Y-127802000D02*
X433391500Y-99195700D01*
X404785200Y-129625200D02*
X404785200Y-127802000D01*
X406060000Y-130900000D02*
X404785200Y-129625200D01*
X462184000Y-88543600D02*
X462184000Y-90243900D01*
X431653500Y-128360000D02*
X408600000Y-128360000D01*
X463459600Y-96553900D02*
X431653500Y-128360000D01*
X463459600Y-91519500D02*
X463459600Y-96553900D01*
X462184000Y-90243900D02*
X463459600Y-91519500D01*
X462184000Y-94793600D02*
X462184000Y-96493900D01*
X459031900Y-99646000D02*
X462184000Y-96493900D01*
X434774000Y-99646000D02*
X459031900Y-99646000D01*
X406060000Y-128360000D02*
X434774000Y-99646000D01*
X372720000Y-89691000D02*
X380340000Y-89691000D01*
X158979000Y-242316000D02*
X160167900Y-242316000D01*
X160167900Y-241944400D02*
X160167900Y-242316000D01*
X160985200Y-241127100D02*
X160167900Y-241944400D01*
X187714900Y-241127100D02*
X160985200Y-241127100D01*
X193271000Y-235571000D02*
X187714900Y-241127100D01*
X248029400Y-235571000D02*
X193271000Y-235571000D01*
X269045300Y-214555100D02*
X248029400Y-235571000D01*
X136119000Y-242316000D02*
X137307900Y-242316000D01*
X256109000Y-221531200D02*
X268857100Y-208783100D01*
X157721200Y-221531200D02*
X256109000Y-221531200D01*
X137307900Y-241944500D02*
X157721200Y-221531200D01*
X137307900Y-242316000D02*
X137307900Y-241944500D01*
X304730000Y-152590000D02*
X306000000Y-153860000D01*
X302870800Y-152590000D02*
X304730000Y-152590000D01*
X301633600Y-153827200D02*
X302870800Y-152590000D01*
X301633600Y-176902200D02*
X301633600Y-153827200D01*
X256554100Y-221981700D02*
X301633600Y-176902200D01*
X159810700Y-221981700D02*
X256554100Y-221981700D01*
X139847900Y-241944500D02*
X159810700Y-221981700D01*
X139847900Y-242316000D02*
X139847900Y-241944500D01*
X138659000Y-242316000D02*
X139847900Y-242316000D01*
X141199000Y-242316000D02*
X142387900Y-242316000D01*
X302185200Y-155134800D02*
X303460000Y-153860000D01*
X302185200Y-176998100D02*
X302185200Y-155134800D01*
X256751200Y-222432100D02*
X302185200Y-176998100D01*
X161900300Y-222432100D02*
X256751200Y-222432100D01*
X142387900Y-241944500D02*
X161900300Y-222432100D01*
X142387900Y-242316000D02*
X142387900Y-241944500D01*
X143739000Y-242316000D02*
X144927900Y-242316000D01*
X307274800Y-152594800D02*
X306000000Y-151320000D01*
X307274800Y-172583700D02*
X307274800Y-152594800D01*
X256121100Y-223737400D02*
X307274800Y-172583700D01*
X163135000Y-223737400D02*
X256121100Y-223737400D01*
X144927900Y-241944500D02*
X163135000Y-223737400D01*
X144927900Y-242316000D02*
X144927900Y-241944500D01*
X146279000Y-242316000D02*
X147467900Y-242316000D01*
X147467900Y-242687500D02*
X147467900Y-242316000D01*
X148779800Y-243999400D02*
X147467900Y-242687500D01*
X155470600Y-243999400D02*
X148779800Y-243999400D01*
X158828800Y-240641200D02*
X155470600Y-243999400D01*
X185295200Y-240641200D02*
X158828800Y-240641200D01*
X190815700Y-235120700D02*
X185295200Y-240641200D01*
X247581500Y-235120700D02*
X190815700Y-235120700D01*
X268226000Y-214476200D02*
X247581500Y-235120700D01*
X148819000Y-242316000D02*
X150007900Y-242316000D01*
X321260000Y-159262900D02*
X321260000Y-156400000D01*
X256335100Y-224187800D02*
X321260000Y-159262900D01*
X167764600Y-224187800D02*
X256335100Y-224187800D01*
X150007900Y-241944500D02*
X167764600Y-224187800D01*
X150007900Y-242316000D02*
X150007900Y-241944500D01*
X151359000Y-242316000D02*
X152547900Y-242316000D01*
X152547900Y-242687500D02*
X152547900Y-242316000D01*
X153382800Y-243522400D02*
X152547900Y-242687500D01*
X155310600Y-243522400D02*
X153382800Y-243522400D01*
X158941700Y-239891300D02*
X155310600Y-243522400D01*
X163123800Y-239891300D02*
X158941700Y-239891300D01*
X170260500Y-232754600D02*
X163123800Y-239891300D01*
X249063300Y-232754600D02*
X170260500Y-232754600D01*
X290810500Y-191007400D02*
X249063300Y-232754600D01*
X291052200Y-191007400D02*
X290810500Y-191007400D01*
X325074800Y-156984800D02*
X291052200Y-191007400D01*
X325074800Y-155134800D02*
X325074800Y-156984800D01*
X323800000Y-153860000D02*
X325074800Y-155134800D01*
X322530000Y-155130000D02*
X321260000Y-153860000D01*
X322530000Y-158629800D02*
X322530000Y-155130000D01*
X255022200Y-226137600D02*
X322530000Y-158629800D01*
X175340400Y-226137600D02*
X255022200Y-226137600D01*
X162037100Y-239440900D02*
X175340400Y-226137600D01*
X157963000Y-239440900D02*
X162037100Y-239440900D01*
X155087900Y-242316000D02*
X157963000Y-239440900D01*
X153899000Y-242316000D02*
X155087900Y-242316000D01*
X388980400Y-122780600D02*
X396242000Y-115519000D01*
X343937100Y-122780600D02*
X388980400Y-122780600D01*
X323800000Y-142917700D02*
X343937100Y-122780600D01*
X323800000Y-151320000D02*
X323800000Y-142917700D01*
X397849100Y-114586100D02*
X398782000Y-115519000D01*
X395862900Y-114586100D02*
X397849100Y-114586100D01*
X394972100Y-115476900D02*
X395862900Y-114586100D01*
X394972100Y-115561200D02*
X394972100Y-115476900D01*
X388767800Y-121765500D02*
X394972100Y-115561200D01*
X344238500Y-121765500D02*
X388767800Y-121765500D01*
X321260000Y-144744000D02*
X344238500Y-121765500D01*
X321260000Y-151320000D02*
X321260000Y-144744000D01*
X343885100Y-123488400D02*
X344748300Y-123488400D01*
X339677500Y-127696000D02*
X343885100Y-123488400D01*
X339677500Y-158302500D02*
X339677500Y-127696000D01*
X323800000Y-174180000D02*
X339677500Y-158302500D01*
X325582700Y-169857300D02*
X321260000Y-174180000D01*
X325582700Y-153813400D02*
X325582700Y-169857300D01*
X324359300Y-152590000D02*
X325582700Y-153813400D01*
X320680600Y-152590000D02*
X324359300Y-152590000D01*
X319928900Y-151838300D02*
X320680600Y-152590000D01*
X319928900Y-145438200D02*
X319928900Y-151838300D01*
X348693700Y-116673400D02*
X319928900Y-145438200D01*
X356149600Y-116673400D02*
X348693700Y-116673400D01*
X357075000Y-115748000D02*
X356149600Y-116673400D01*
X372720000Y-99691000D02*
X380340000Y-99691000D01*
X189225600Y-246678200D02*
X178742500Y-246678200D01*
X241451700Y-298904300D02*
X189225600Y-246678200D01*
X419382700Y-298904300D02*
X241451700Y-298904300D01*
X420548000Y-297739000D02*
X419382700Y-298904300D01*
X131039000Y-199136000D02*
X131039000Y-200324900D01*
X130667500Y-200324900D02*
X131039000Y-200324900D01*
X129069000Y-201923400D02*
X130667500Y-200324900D01*
X129069000Y-243074000D02*
X129069000Y-201923400D01*
X135714700Y-249719700D02*
X129069000Y-243074000D01*
X183372300Y-249719700D02*
X135714700Y-249719700D01*
X233226400Y-299573800D02*
X183372300Y-249719700D01*
X417556800Y-299573800D02*
X233226400Y-299573800D01*
X420675000Y-302692000D02*
X417556800Y-299573800D01*
X180932600Y-250345000D02*
X178028200Y-250345000D01*
X239146600Y-308559000D02*
X180932600Y-250345000D01*
X405308000Y-308559000D02*
X239146600Y-308559000D01*
X131039000Y-201676000D02*
X131039000Y-202864900D01*
X130669500Y-202864900D02*
X131039000Y-202864900D01*
X129847200Y-203687200D02*
X130669500Y-202864900D01*
X129847200Y-230173500D02*
X129847200Y-203687200D01*
X130559700Y-230886000D02*
X129847200Y-230173500D01*
X131472300Y-230886000D02*
X130559700Y-230886000D01*
X132228000Y-231641700D02*
X131472300Y-230886000D01*
X132228000Y-240112500D02*
X132228000Y-231641700D01*
X137216100Y-245100600D02*
X132228000Y-240112500D01*
X196869700Y-245100600D02*
X137216100Y-245100600D01*
X245418100Y-293649000D02*
X196869700Y-245100600D01*
X405587000Y-293649000D02*
X245418100Y-293649000D01*
X457066600Y-292461400D02*
X470052000Y-279476000D01*
X408870400Y-292461400D02*
X457066600Y-292461400D01*
X405867000Y-289458000D02*
X408870400Y-292461400D01*
M02*
