G04 #@! TF.FileFunction,Copper,L2,Bot,Signal*
%FSLAX46Y46*%
G04 Gerber Fmt 4.6, Leading zero omitted, Abs format (unit mm)*
G04 Created by KiCad (PCBNEW 4.0.6) date 02/21/20 12:53:56*
%MOMM*%
%LPD*%
G01*
G04 APERTURE LIST*
%ADD10C,0.100000*%
%ADD11C,1.879600*%
%ADD12R,1.600000X1.600000*%
%ADD13C,1.600000*%
%ADD14R,1.800000X1.800000*%
%ADD15C,1.800000*%
%ADD16O,1.800000X1.800000*%
%ADD17R,2.800000X2.800000*%
%ADD18O,2.800000X2.800000*%
%ADD19R,1.200000X1.200000*%
%ADD20C,1.200000*%
%ADD21O,1.727200X1.727200*%
%ADD22R,1.700000X1.700000*%
%ADD23O,1.700000X1.700000*%
%ADD24R,1.350000X1.350000*%
%ADD25O,1.350000X1.350000*%
%ADD26C,3.000000*%
%ADD27R,1.350000X1.800000*%
%ADD28O,1.350000X1.800000*%
%ADD29O,1.600000X1.600000*%
%ADD30C,0.600000*%
%ADD31C,0.250000*%
G04 APERTURE END LIST*
D10*
D11*
X133400000Y-102400000D03*
X133400000Y-104940000D03*
X135940000Y-102400000D03*
X135940000Y-104940000D03*
X138480000Y-102400000D03*
X138480000Y-104940000D03*
X141020000Y-102400000D03*
X141020000Y-104940000D03*
X143560000Y-102400000D03*
X143560000Y-104940000D03*
X146100000Y-102400000D03*
X146100000Y-104940000D03*
X148640000Y-102400000D03*
X148640000Y-104940000D03*
X188800000Y-102400000D03*
X188800000Y-104940000D03*
X191340000Y-102400000D03*
X191340000Y-104940000D03*
X193880000Y-102400000D03*
X193880000Y-104940000D03*
X196420000Y-102400000D03*
X196420000Y-104940000D03*
X198960000Y-102400000D03*
X198960000Y-104940000D03*
X201500000Y-102400000D03*
X201500000Y-104940000D03*
X204040000Y-102400000D03*
X204040000Y-104940000D03*
X188800000Y-151200000D03*
X188800000Y-153740000D03*
X191340000Y-151200000D03*
X191340000Y-153740000D03*
X193880000Y-151200000D03*
X193880000Y-153740000D03*
X196420000Y-151200000D03*
X196420000Y-153740000D03*
X198960000Y-151200000D03*
X198960000Y-153740000D03*
X201500000Y-151200000D03*
X201500000Y-153740000D03*
X204040000Y-151200000D03*
X204040000Y-153740000D03*
X133400000Y-151200000D03*
X133400000Y-153740000D03*
X135940000Y-151200000D03*
X135940000Y-153740000D03*
X138480000Y-151200000D03*
X138480000Y-153740000D03*
X141020000Y-151200000D03*
X141020000Y-153740000D03*
X143560000Y-151200000D03*
X143560000Y-153740000D03*
X146100000Y-151200000D03*
X146100000Y-153740000D03*
X148640000Y-151200000D03*
X148640000Y-153740000D03*
X148100000Y-282000000D03*
X148100000Y-279460000D03*
X145560000Y-282000000D03*
X145560000Y-279460000D03*
X143020000Y-282000000D03*
X143020000Y-279460000D03*
X140480000Y-282000000D03*
X140480000Y-279460000D03*
X137940000Y-282000000D03*
X137940000Y-279460000D03*
X135400000Y-282000000D03*
X135400000Y-279460000D03*
X132860000Y-282000000D03*
X132860000Y-279460000D03*
X204343000Y-282000000D03*
X204343000Y-279460000D03*
X201803000Y-282000000D03*
X201803000Y-279460000D03*
X199263000Y-282000000D03*
X199263000Y-279460000D03*
X196723000Y-282000000D03*
X196723000Y-279460000D03*
X194183000Y-282000000D03*
X194183000Y-279460000D03*
X191643000Y-282000000D03*
X191643000Y-279460000D03*
X189103000Y-282000000D03*
X189103000Y-279460000D03*
X269000000Y-243200000D03*
X266460000Y-243200000D03*
X269000000Y-240660000D03*
X266460000Y-240660000D03*
X269000000Y-238120000D03*
X266460000Y-238120000D03*
X269000000Y-235580000D03*
X266460000Y-235580000D03*
X269000000Y-233040000D03*
X266460000Y-233040000D03*
X269000000Y-230500000D03*
X266460000Y-230500000D03*
X269000000Y-227960000D03*
X266460000Y-227960000D03*
X408600000Y-143600000D03*
X406060000Y-143600000D03*
X408600000Y-141060000D03*
X406060000Y-141060000D03*
X408600000Y-138520000D03*
X406060000Y-138520000D03*
X408600000Y-135980000D03*
X406060000Y-135980000D03*
X408600000Y-133440000D03*
X406060000Y-133440000D03*
X408600000Y-130900000D03*
X406060000Y-130900000D03*
X408600000Y-128360000D03*
X406060000Y-128360000D03*
X323800000Y-156400000D03*
X321260000Y-156400000D03*
X323800000Y-153860000D03*
X321260000Y-153860000D03*
X323800000Y-151320000D03*
X321260000Y-151320000D03*
X306000000Y-156400000D03*
X303460000Y-156400000D03*
X306000000Y-153860000D03*
X303460000Y-153860000D03*
X306000000Y-151320000D03*
X303460000Y-151320000D03*
X323800000Y-181800000D03*
X321260000Y-181800000D03*
X323800000Y-179260000D03*
X321260000Y-179260000D03*
X323800000Y-176720000D03*
X321260000Y-176720000D03*
X323800000Y-174180000D03*
X321260000Y-174180000D03*
D12*
X467538000Y-305918000D03*
D13*
X470038000Y-305918000D03*
D12*
X467716000Y-296316000D03*
D13*
X470216000Y-296316000D03*
D14*
X311404000Y-240132000D03*
D15*
X313944000Y-240132000D03*
D14*
X429616000Y-291236000D03*
D16*
X429616000Y-281076000D03*
D14*
X434975000Y-291186000D03*
D16*
X434975000Y-281026000D03*
D14*
X450113000Y-290957000D03*
D16*
X450113000Y-280797000D03*
D14*
X444627000Y-290957000D03*
D16*
X444627000Y-280797000D03*
D14*
X425298000Y-231800000D03*
D15*
X427838000Y-231800000D03*
D17*
X459613000Y-303809000D03*
D18*
X459613000Y-293649000D03*
D14*
X439598000Y-290957000D03*
D16*
X439598000Y-280797000D03*
D14*
X308153000Y-234061000D03*
D15*
X310693000Y-234061000D03*
D14*
X304902000Y-240208000D03*
D15*
X307442000Y-240208000D03*
D19*
X388622000Y-115519000D03*
D20*
X388622000Y-110439000D03*
X393702000Y-115519000D03*
X398782000Y-110439000D03*
X396242000Y-115519000D03*
X398782000Y-115519000D03*
X393702000Y-110439000D03*
X396242000Y-110439000D03*
D19*
X349455000Y-115748000D03*
D20*
X349455000Y-110668000D03*
X354535000Y-115748000D03*
X359615000Y-110668000D03*
X357075000Y-115748000D03*
X359615000Y-115748000D03*
X354535000Y-110668000D03*
X357075000Y-110668000D03*
D19*
X362431000Y-98882000D03*
D20*
X362431000Y-103962000D03*
X357351000Y-98882000D03*
X352271000Y-103962000D03*
X354811000Y-98882000D03*
X352271000Y-98882000D03*
X357351000Y-103962000D03*
X354811000Y-103962000D03*
D19*
X349404000Y-92964000D03*
D20*
X349404000Y-87884000D03*
X354484000Y-92964000D03*
X359564000Y-87884000D03*
X357024000Y-92964000D03*
X359564000Y-92964000D03*
X354484000Y-87884000D03*
X357024000Y-87884000D03*
D19*
X389638000Y-94183200D03*
D20*
X389638000Y-89103200D03*
X394718000Y-94183200D03*
X399798000Y-89103200D03*
X397258000Y-94183200D03*
X399798000Y-94183200D03*
X394718000Y-89103200D03*
X397258000Y-89103200D03*
D21*
X163932000Y-219456000D03*
X161392000Y-219456000D03*
X161392000Y-216916000D03*
X163932000Y-216916000D03*
X161392000Y-214376000D03*
X176759000Y-242316000D03*
X181839000Y-242316000D03*
X184379000Y-242316000D03*
X186919000Y-242316000D03*
X189459000Y-242316000D03*
X191999000Y-242316000D03*
X194539000Y-242316000D03*
X197079000Y-242316000D03*
X141199000Y-194056000D03*
X143739000Y-194056000D03*
X146279000Y-194056000D03*
X148819000Y-194056000D03*
X151359000Y-194056000D03*
X153899000Y-194056000D03*
X156439000Y-194056000D03*
X158979000Y-194056000D03*
X164059000Y-194056000D03*
X166599000Y-194056000D03*
X169139000Y-194056000D03*
X171679000Y-194056000D03*
X174219000Y-194056000D03*
X176759000Y-194056000D03*
X179299000Y-194056000D03*
X181839000Y-194056000D03*
X201143000Y-194056000D03*
X185903000Y-194056000D03*
X188443000Y-194056000D03*
X190983000Y-194056000D03*
X208763000Y-194056000D03*
X206223000Y-194056000D03*
X203683000Y-194056000D03*
X198603000Y-194056000D03*
X196063000Y-194056000D03*
X193523000Y-194056000D03*
X199619000Y-242316000D03*
X174219000Y-242316000D03*
X171679000Y-242316000D03*
X169139000Y-242316000D03*
X166599000Y-242316000D03*
X164059000Y-242316000D03*
X161519000Y-242316000D03*
X158979000Y-242316000D03*
X153899000Y-242316000D03*
X151359000Y-242316000D03*
X148819000Y-242316000D03*
X146279000Y-242316000D03*
X143739000Y-242316000D03*
X141199000Y-242316000D03*
X138659000Y-242316000D03*
X136119000Y-242316000D03*
X133579000Y-194056000D03*
X131039000Y-194056000D03*
X133579000Y-196596000D03*
X131039000Y-196596000D03*
X133579000Y-199136000D03*
X131039000Y-199136000D03*
X133579000Y-201676000D03*
X131039000Y-201676000D03*
X133579000Y-204216000D03*
X131039000Y-204216000D03*
X133579000Y-206756000D03*
X131039000Y-206756000D03*
X133579000Y-209296000D03*
X131039000Y-209296000D03*
X133579000Y-211836000D03*
X131039000Y-211836000D03*
X133579000Y-214376000D03*
X131039000Y-214376000D03*
X133579000Y-216916000D03*
X131039000Y-216916000D03*
X133579000Y-219456000D03*
X131039000Y-219456000D03*
X133579000Y-221996000D03*
X131039000Y-221996000D03*
X133579000Y-224536000D03*
X131039000Y-224536000D03*
X133579000Y-227076000D03*
X131039000Y-227076000D03*
X133579000Y-229616000D03*
X131039000Y-229616000D03*
X133579000Y-232156000D03*
X131039000Y-232156000D03*
X133579000Y-234696000D03*
X131039000Y-234696000D03*
X133579000Y-237236000D03*
X131039000Y-237236000D03*
X163932000Y-214376000D03*
D22*
X477596000Y-306172000D03*
D23*
X477596000Y-308712000D03*
D14*
X459892000Y-279476000D03*
D15*
X462432000Y-279476000D03*
X464972000Y-279476000D03*
X467512000Y-279476000D03*
X470052000Y-279476000D03*
X472592000Y-279476000D03*
X475132000Y-279476000D03*
X477672000Y-279476000D03*
X480212000Y-279476000D03*
X482752000Y-279476000D03*
X485292000Y-279476000D03*
X487832000Y-279476000D03*
X490372000Y-279476000D03*
X492912000Y-279476000D03*
X495452000Y-279476000D03*
X495452000Y-264236000D03*
X492912000Y-264236000D03*
X490372000Y-264236000D03*
X487832000Y-264236000D03*
X485292000Y-264236000D03*
X482752000Y-264236000D03*
X480212000Y-264236000D03*
X477672000Y-264236000D03*
X475132000Y-264236000D03*
X472592000Y-264236000D03*
X470052000Y-264236000D03*
X467512000Y-264236000D03*
X464972000Y-264236000D03*
X462432000Y-264236000D03*
X459892000Y-264236000D03*
D24*
X479069000Y-285090000D03*
D25*
X479069000Y-287090000D03*
D26*
X372720000Y-115011000D03*
X380340000Y-115011000D03*
X372720000Y-94691000D03*
X380340000Y-89691000D03*
X380340000Y-99691000D03*
X372720000Y-99691000D03*
X380340000Y-94691000D03*
X372720000Y-89691000D03*
D27*
X484556000Y-310896000D03*
D28*
X486256000Y-310896000D03*
X487956000Y-310896000D03*
X489656000Y-310896000D03*
X491356000Y-310896000D03*
D22*
X490880000Y-286131000D03*
D23*
X488340000Y-286131000D03*
D13*
X465988000Y-286334000D03*
D29*
X468528000Y-286334000D03*
D22*
X461518000Y-307950000D03*
D23*
X461518000Y-310490000D03*
D13*
X405308000Y-308559000D03*
D29*
X420548000Y-308559000D03*
D13*
X405587000Y-293649000D03*
D29*
X420827000Y-293649000D03*
D13*
X405867000Y-289458000D03*
D29*
X421107000Y-289458000D03*
D13*
X420675000Y-302692000D03*
D29*
X405435000Y-302692000D03*
D13*
X420548000Y-297739000D03*
D29*
X405308000Y-297739000D03*
D30*
X376444300Y-120268200D03*
X400280000Y-159846200D03*
X186809300Y-151188900D03*
X191340000Y-107365800D03*
X190547400Y-274658600D03*
X151193400Y-274678100D03*
X147575800Y-274760000D03*
X197055000Y-106845000D03*
X204636600Y-156068600D03*
X230353500Y-241414000D03*
X232660900Y-237919000D03*
X232279000Y-237034800D03*
X231451300Y-236779300D03*
X269045300Y-214555100D03*
X268857100Y-208783100D03*
X268226000Y-214476200D03*
X344748300Y-123488400D03*
X178742500Y-246678200D03*
X178028200Y-250345000D03*
D31*
X490880000Y-286131000D02*
X489704700Y-286131000D01*
X463702000Y-268046000D02*
X459892000Y-264236000D01*
X463702000Y-279953800D02*
X463702000Y-268046000D01*
X464467200Y-280719000D02*
X463702000Y-279953800D01*
X465462000Y-280719000D02*
X464467200Y-280719000D01*
X466286600Y-279894400D02*
X465462000Y-280719000D01*
X466286600Y-278949300D02*
X466286600Y-279894400D01*
X466988000Y-278247900D02*
X466286600Y-278949300D01*
X470568300Y-278247900D02*
X466988000Y-278247900D01*
X471322000Y-279001600D02*
X470568300Y-278247900D01*
X471322000Y-280109100D02*
X471322000Y-279001600D01*
X477906000Y-286693100D02*
X471322000Y-280109100D01*
X477906000Y-287391900D02*
X477906000Y-286693100D01*
X478604600Y-288090500D02*
X477906000Y-287391900D01*
X484556000Y-288090500D02*
X478604600Y-288090500D01*
X484556000Y-310896000D02*
X484556000Y-288090500D01*
X489704700Y-286498300D02*
X489704700Y-286131000D01*
X488112500Y-288090500D02*
X489704700Y-286498300D01*
X484556000Y-288090500D02*
X488112500Y-288090500D01*
X351944000Y-90424000D02*
X349404000Y-87884000D01*
X358359000Y-90424000D02*
X351944000Y-90424000D01*
X360497300Y-92562300D02*
X358359000Y-90424000D01*
X360497300Y-103962000D02*
X360497300Y-92562300D01*
X362431000Y-103962000D02*
X360497300Y-103962000D01*
X490071700Y-309611700D02*
X491356000Y-310896000D01*
X489240300Y-309611700D02*
X490071700Y-309611700D01*
X487956000Y-310896000D02*
X489240300Y-309611700D01*
X311404000Y-240132000D02*
X311404000Y-238906700D01*
X308153000Y-234061000D02*
X309378300Y-234061000D01*
X309378300Y-234520600D02*
X309378300Y-234061000D01*
X310144000Y-235286300D02*
X309378300Y-234520600D01*
X311297100Y-235286300D02*
X310144000Y-235286300D01*
X311297100Y-238799800D02*
X311404000Y-238906700D01*
X311297100Y-235286300D02*
X311297100Y-238799800D01*
X308153000Y-235731700D02*
X308153000Y-234061000D01*
X304902000Y-238982700D02*
X308153000Y-235731700D01*
X304902000Y-240208000D02*
X304902000Y-238982700D01*
X352275600Y-110668000D02*
X349455000Y-110668000D01*
X358981600Y-103962000D02*
X352275600Y-110668000D01*
X360497300Y-103962000D02*
X358981600Y-103962000D01*
X322530100Y-224053300D02*
X311297100Y-235286300D01*
X322530100Y-181238800D02*
X322530100Y-224053300D01*
X323243800Y-180525100D02*
X322530100Y-181238800D01*
X324364900Y-180525100D02*
X323243800Y-180525100D01*
X326293600Y-178596400D02*
X324364900Y-180525100D01*
X326293600Y-133829400D02*
X326293600Y-178596400D01*
X349455000Y-110668000D02*
X326293600Y-133829400D01*
X429389000Y-282301300D02*
X429616000Y-282301300D01*
X422232300Y-289458000D02*
X429389000Y-282301300D01*
X421107000Y-289458000D02*
X422232300Y-289458000D01*
X429616000Y-281076000D02*
X429616000Y-282301300D01*
X450113000Y-280797000D02*
X450113000Y-282022300D01*
X459613000Y-287250800D02*
X459613000Y-293649000D01*
X455341500Y-287250800D02*
X459613000Y-287250800D01*
X450113000Y-282022300D02*
X455341500Y-287250800D01*
X459737200Y-287250800D02*
X467512000Y-279476000D01*
X459613000Y-287250800D02*
X459737200Y-287250800D01*
X388622000Y-90119200D02*
X389638000Y-89103200D01*
X388622000Y-110439000D02*
X388622000Y-90119200D01*
X467716000Y-296316000D02*
X467716000Y-295190700D01*
X468528000Y-294378700D02*
X468528000Y-286334000D01*
X467716000Y-295190700D02*
X468528000Y-294378700D01*
X420548000Y-308559000D02*
X419422700Y-308559000D01*
X308235400Y-245840600D02*
X313944000Y-240132000D01*
X253962700Y-245840600D02*
X308235400Y-245840600D01*
X252236000Y-244113900D02*
X253962700Y-245840600D01*
X239084500Y-244113900D02*
X252236000Y-244113900D01*
X235111900Y-248086500D02*
X239084500Y-244113900D01*
X235111900Y-276712100D02*
X235111900Y-248086500D01*
X253954300Y-295554500D02*
X235111900Y-276712100D01*
X406418200Y-295554500D02*
X253954300Y-295554500D01*
X419422700Y-308559000D02*
X406418200Y-295554500D01*
X432320500Y-287306200D02*
X434975000Y-289960700D01*
X432320500Y-233343300D02*
X432320500Y-287306200D01*
X385853400Y-186876200D02*
X432320500Y-233343300D01*
X385853400Y-127339200D02*
X385853400Y-186876200D01*
X381087200Y-122573000D02*
X385853400Y-127339200D01*
X377681900Y-122573000D02*
X381087200Y-122573000D01*
X370707400Y-115598500D02*
X377681900Y-122573000D01*
X370707400Y-108083700D02*
X370707400Y-115598500D01*
X362431000Y-99807300D02*
X370707400Y-108083700D01*
X362431000Y-98882000D02*
X362431000Y-99807300D01*
X434975000Y-291186000D02*
X434975000Y-289960700D01*
X450113000Y-290957000D02*
X450113000Y-289731700D01*
X379426300Y-120268200D02*
X376444300Y-120268200D01*
X386303700Y-127145600D02*
X379426300Y-120268200D01*
X386303700Y-184018200D02*
X386303700Y-127145600D01*
X448887700Y-246602200D02*
X386303700Y-184018200D01*
X448887700Y-288506400D02*
X448887700Y-246602200D01*
X450113000Y-289731700D02*
X448887700Y-288506400D01*
X419979600Y-239658400D02*
X427838000Y-231800000D01*
X419979600Y-291676300D02*
X419979600Y-239658400D01*
X420827000Y-292523700D02*
X419979600Y-291676300D01*
X420827000Y-293649000D02*
X420827000Y-292523700D01*
X459613000Y-303809000D02*
X459613000Y-302083700D01*
X462889100Y-298807600D02*
X459613000Y-302083700D01*
X465988000Y-298807600D02*
X462889100Y-298807600D01*
X479301700Y-312121300D02*
X465988000Y-298807600D01*
X486256000Y-312121300D02*
X479301700Y-312121300D01*
X465988000Y-298807600D02*
X465988000Y-286334000D01*
X486256000Y-310896000D02*
X486256000Y-312121300D01*
X389638000Y-149204200D02*
X400280000Y-159846200D01*
X389638000Y-94183200D02*
X389638000Y-149204200D01*
X309462300Y-232830300D02*
X310693000Y-234061000D01*
X305058200Y-232830300D02*
X309462300Y-232830300D01*
X292950800Y-244937700D02*
X305058200Y-232830300D01*
X254333600Y-244937700D02*
X292950800Y-244937700D01*
X252609100Y-243213200D02*
X254333600Y-244937700D01*
X238711400Y-243213200D02*
X252609100Y-243213200D01*
X234160200Y-247764400D02*
X238711400Y-243213200D01*
X234160200Y-277086900D02*
X234160200Y-247764400D01*
X259765300Y-302692000D02*
X234160200Y-277086900D01*
X405435000Y-302692000D02*
X259765300Y-302692000D01*
X405308000Y-297739000D02*
X404182700Y-297739000D01*
X302262000Y-245388000D02*
X307442000Y-240208000D01*
X254147000Y-245388000D02*
X302262000Y-245388000D01*
X252422500Y-243663500D02*
X254147000Y-245388000D01*
X238898000Y-243663500D02*
X252422500Y-243663500D01*
X234637500Y-247924000D02*
X238898000Y-243663500D01*
X234637500Y-276874600D02*
X234637500Y-247924000D01*
X255501900Y-297739000D02*
X234637500Y-276874600D01*
X404182700Y-297739000D02*
X255501900Y-297739000D01*
X187525200Y-103674800D02*
X188800000Y-102400000D01*
X187525200Y-106734800D02*
X187525200Y-103674800D01*
X187609700Y-106819300D02*
X187525200Y-106734800D01*
X187609700Y-144468600D02*
X187609700Y-106819300D01*
X186809300Y-145269000D02*
X187609700Y-144468600D01*
X186809300Y-151188900D02*
X186809300Y-145269000D01*
X202145500Y-284197500D02*
X204343000Y-282000000D01*
X150297500Y-284197500D02*
X202145500Y-284197500D01*
X148100000Y-282000000D02*
X150297500Y-284197500D01*
X146815000Y-283285000D02*
X148100000Y-282000000D01*
X137399600Y-283285000D02*
X146815000Y-283285000D01*
X136670000Y-282555400D02*
X137399600Y-283285000D01*
X136670000Y-278870600D02*
X136670000Y-282555400D01*
X128639800Y-270840400D02*
X136670000Y-278870600D01*
X128639800Y-161847600D02*
X128639800Y-270840400D01*
X134665200Y-155822200D02*
X128639800Y-161847600D01*
X134665200Y-152465200D02*
X134665200Y-155822200D01*
X133400000Y-151200000D02*
X134665200Y-152465200D01*
X134670000Y-149930000D02*
X133400000Y-151200000D01*
X134670000Y-103670000D02*
X134670000Y-149930000D01*
X133400000Y-102400000D02*
X134670000Y-103670000D01*
X267712700Y-244487300D02*
X269000000Y-243200000D01*
X254738200Y-244487300D02*
X267712700Y-244487300D01*
X253011800Y-242760900D02*
X254738200Y-244487300D01*
X238521800Y-242760900D02*
X253011800Y-242760900D01*
X210042100Y-271240600D02*
X238521800Y-242760900D01*
X210042100Y-276300900D02*
X210042100Y-271240600D01*
X204343000Y-282000000D02*
X210042100Y-276300900D01*
X132125200Y-152465200D02*
X133400000Y-153740000D01*
X132125200Y-106214800D02*
X132125200Y-152465200D01*
X133400000Y-104940000D02*
X132125200Y-106214800D01*
X188800000Y-146979700D02*
X188800000Y-104940000D01*
X187527800Y-148251900D02*
X188800000Y-146979700D01*
X187527800Y-152467800D02*
X187527800Y-148251900D01*
X188800000Y-153740000D02*
X187527800Y-152467800D01*
X180569000Y-161971000D02*
X188800000Y-153740000D01*
X180569000Y-248688600D02*
X180569000Y-161971000D01*
X149797600Y-279460000D02*
X180569000Y-248688600D01*
X148100000Y-279460000D02*
X149797600Y-279460000D01*
X254409800Y-243200000D02*
X266460000Y-243200000D01*
X253518500Y-242308700D02*
X254409800Y-243200000D01*
X238337100Y-242308700D02*
X253518500Y-242308700D01*
X204343000Y-276302800D02*
X238337100Y-242308700D01*
X204343000Y-279460000D02*
X204343000Y-276302800D01*
X146830000Y-280730000D02*
X145560000Y-282000000D01*
X150882300Y-280730000D02*
X146830000Y-280730000D01*
X151351400Y-281199100D02*
X150882300Y-280730000D01*
X185649000Y-281199100D02*
X151351400Y-281199100D01*
X188181900Y-283732000D02*
X185649000Y-281199100D01*
X200071000Y-283732000D02*
X188181900Y-283732000D01*
X201803000Y-282000000D02*
X200071000Y-283732000D01*
X190070000Y-152470000D02*
X191340000Y-151200000D01*
X190070000Y-154373100D02*
X190070000Y-152470000D01*
X187173000Y-157270100D02*
X190070000Y-154373100D01*
X187173000Y-203446500D02*
X187173000Y-157270100D01*
X185649000Y-204970500D02*
X187173000Y-203446500D01*
X185649000Y-281199100D02*
X185649000Y-204970500D01*
X190070000Y-103670000D02*
X191340000Y-102400000D01*
X190070000Y-149930000D02*
X190070000Y-103670000D01*
X191340000Y-151200000D02*
X190070000Y-149930000D01*
X267730300Y-241929700D02*
X269000000Y-240660000D01*
X253866200Y-241929700D02*
X267730300Y-241929700D01*
X253739200Y-241802700D02*
X253866200Y-241929700D01*
X238206200Y-241802700D02*
X253739200Y-241802700D01*
X203077800Y-276931100D02*
X238206200Y-241802700D01*
X203077800Y-280725200D02*
X203077800Y-276931100D01*
X201803000Y-282000000D02*
X203077800Y-280725200D01*
X191340000Y-104940000D02*
X191340000Y-107365800D01*
X192610000Y-152470000D02*
X191340000Y-153740000D01*
X192610000Y-150566900D02*
X192610000Y-152470000D01*
X191340000Y-149296900D02*
X192610000Y-150566900D01*
X191340000Y-107365800D02*
X191340000Y-149296900D01*
X137214800Y-152465200D02*
X135940000Y-153740000D01*
X137214800Y-106214800D02*
X137214800Y-152465200D01*
X135940000Y-104940000D02*
X137214800Y-106214800D01*
X190728600Y-274477400D02*
X190547400Y-274658600D01*
X190728600Y-218858500D02*
X190728600Y-274477400D01*
X189790900Y-217920800D02*
X190728600Y-218858500D01*
X189790900Y-155289100D02*
X189790900Y-217920800D01*
X191340000Y-153740000D02*
X189790900Y-155289100D01*
X150341900Y-274678100D02*
X151193400Y-274678100D01*
X145560000Y-279460000D02*
X150341900Y-274678100D01*
X201803000Y-277569000D02*
X201803000Y-279460000D01*
X238712000Y-240660000D02*
X201803000Y-277569000D01*
X266460000Y-240660000D02*
X238712000Y-240660000D01*
X137210000Y-103670000D02*
X138480000Y-102400000D01*
X137210000Y-105573100D02*
X137210000Y-103670000D01*
X138029600Y-106392700D02*
X137210000Y-105573100D01*
X138029600Y-150749600D02*
X138029600Y-106392700D01*
X138480000Y-151200000D02*
X138029600Y-150749600D01*
X191865800Y-101130900D02*
X193373800Y-102638900D01*
X139749100Y-101130900D02*
X191865800Y-101130900D01*
X138480000Y-102400000D02*
X139749100Y-101130900D01*
X192610000Y-103402700D02*
X193373800Y-102638900D01*
X192610000Y-149930000D02*
X192610000Y-103402700D01*
X193880000Y-151200000D02*
X192610000Y-149930000D01*
X193612700Y-102400000D02*
X193880000Y-102400000D01*
X193373800Y-102638900D02*
X193612700Y-102400000D01*
X200533000Y-280730000D02*
X199263000Y-282000000D01*
X200533000Y-278202100D02*
X200533000Y-280730000D01*
X239345100Y-239390000D02*
X200533000Y-278202100D01*
X267730000Y-239390000D02*
X239345100Y-239390000D01*
X269000000Y-238120000D02*
X267730000Y-239390000D01*
X138480000Y-151893800D02*
X138480000Y-151200000D01*
X137210000Y-153163800D02*
X138480000Y-151893800D01*
X137210000Y-155811500D02*
X137210000Y-153163800D01*
X129090200Y-163931300D02*
X137210000Y-155811500D01*
X129090200Y-245356700D02*
X129090200Y-163931300D01*
X139210000Y-255476500D02*
X129090200Y-245356700D01*
X139210000Y-280008500D02*
X139210000Y-255476500D01*
X139926700Y-280725200D02*
X139210000Y-280008500D01*
X141745200Y-280725200D02*
X139926700Y-280725200D01*
X143020000Y-282000000D02*
X141745200Y-280725200D01*
X147575800Y-274904200D02*
X147575800Y-274760000D01*
X143020000Y-279460000D02*
X147575800Y-274904200D01*
X138480000Y-149353800D02*
X138480000Y-104940000D01*
X139750000Y-150623800D02*
X138480000Y-149353800D01*
X139750000Y-152470000D02*
X139750000Y-150623800D01*
X138480000Y-153740000D02*
X139750000Y-152470000D01*
X195150000Y-152470000D02*
X193880000Y-153740000D01*
X195150000Y-107882200D02*
X195150000Y-152470000D01*
X193880000Y-106612200D02*
X195150000Y-107882200D01*
X193880000Y-104940000D02*
X193880000Y-106612200D01*
X199263000Y-278835200D02*
X199263000Y-279460000D01*
X239978200Y-238120000D02*
X199263000Y-278835200D01*
X266460000Y-238120000D02*
X239978200Y-238120000D01*
X196420000Y-108290000D02*
X196420000Y-151200000D01*
X195150000Y-107020000D02*
X196420000Y-108290000D01*
X195150000Y-103670000D02*
X195150000Y-107020000D01*
X196420000Y-102400000D02*
X195150000Y-103670000D01*
X139750000Y-103670000D02*
X141020000Y-102400000D01*
X139750000Y-149930000D02*
X139750000Y-103670000D01*
X141020000Y-151200000D02*
X139750000Y-149930000D01*
X195443600Y-283279400D02*
X196723000Y-282000000D01*
X188552300Y-283279400D02*
X195443600Y-283279400D01*
X187815400Y-282542500D02*
X188552300Y-283279400D01*
X187815400Y-278275000D02*
X187815400Y-282542500D01*
X193269000Y-272821400D02*
X187815400Y-278275000D01*
X193269000Y-217546800D02*
X193269000Y-272821400D01*
X199801900Y-211013900D02*
X193269000Y-217546800D01*
X199801900Y-191196400D02*
X199801900Y-211013900D01*
X197690000Y-189084500D02*
X199801900Y-191196400D01*
X197690000Y-152470000D02*
X197690000Y-189084500D01*
X196420000Y-151200000D02*
X197690000Y-152470000D01*
X267734800Y-236845200D02*
X269000000Y-235580000D01*
X240086000Y-236845200D02*
X267734800Y-236845200D01*
X197993000Y-278938200D02*
X240086000Y-236845200D01*
X197993000Y-280730000D02*
X197993000Y-278938200D01*
X196723000Y-282000000D02*
X197993000Y-280730000D01*
X141020000Y-149410700D02*
X141020000Y-104940000D01*
X142285200Y-150675900D02*
X141020000Y-149410700D01*
X142285200Y-152474800D02*
X142285200Y-150675900D01*
X141020000Y-153740000D02*
X142285200Y-152474800D01*
X197055000Y-105575000D02*
X196420000Y-104940000D01*
X197055000Y-106845000D02*
X197055000Y-105575000D01*
X132359900Y-162400100D02*
X141020000Y-153740000D01*
X132359900Y-240913900D02*
X132359900Y-162400100D01*
X140480000Y-249034000D02*
X132359900Y-240913900D01*
X140480000Y-279460000D02*
X140480000Y-249034000D01*
X240603000Y-235580000D02*
X196723000Y-279460000D01*
X266460000Y-235580000D02*
X240603000Y-235580000D01*
X197690000Y-103670000D02*
X198960000Y-102400000D01*
X197690000Y-149930000D02*
X197690000Y-103670000D01*
X198960000Y-151200000D02*
X197690000Y-149930000D01*
X142290000Y-103670000D02*
X143560000Y-102400000D01*
X142290000Y-149930000D02*
X142290000Y-103670000D01*
X143560000Y-151200000D02*
X142290000Y-149930000D01*
X267730000Y-219162000D02*
X204636600Y-156068600D01*
X267730000Y-228508500D02*
X267730000Y-219162000D01*
X268446700Y-229225200D02*
X267730000Y-228508500D01*
X269531100Y-229225200D02*
X268446700Y-229225200D01*
X270286000Y-229980100D02*
X269531100Y-229225200D01*
X270286000Y-231754000D02*
X270286000Y-229980100D01*
X269000000Y-233040000D02*
X270286000Y-231754000D01*
X267730000Y-234310000D02*
X269000000Y-233040000D01*
X240079200Y-234310000D02*
X267730000Y-234310000D01*
X195453000Y-278936200D02*
X240079200Y-234310000D01*
X195453000Y-280730000D02*
X195453000Y-278936200D01*
X194183000Y-282000000D02*
X195453000Y-280730000D01*
X143560000Y-149353800D02*
X143560000Y-104940000D01*
X144830000Y-150623800D02*
X143560000Y-149353800D01*
X144830000Y-152470000D02*
X144830000Y-150623800D01*
X143560000Y-153740000D02*
X144830000Y-152470000D01*
X198960000Y-149353800D02*
X198960000Y-104940000D01*
X200230000Y-150623800D02*
X198960000Y-149353800D01*
X200230000Y-152470000D02*
X200230000Y-150623800D01*
X198960000Y-153740000D02*
X200230000Y-152470000D01*
X198960000Y-167635800D02*
X198960000Y-153740000D01*
X240603000Y-209278800D02*
X198960000Y-167635800D01*
X240603000Y-233040000D02*
X240603000Y-209278800D01*
X266460000Y-233040000D02*
X240603000Y-233040000D01*
X240603000Y-233040000D02*
X194183000Y-279460000D01*
X144830000Y-103670000D02*
X146100000Y-102400000D01*
X144830000Y-149930000D02*
X144830000Y-103670000D01*
X146100000Y-151200000D02*
X144830000Y-149930000D01*
X200230000Y-103670000D02*
X201500000Y-102400000D01*
X200230000Y-149930000D02*
X200230000Y-103670000D01*
X201500000Y-151200000D02*
X200230000Y-149930000D01*
X192913000Y-280730000D02*
X191643000Y-282000000D01*
X192913000Y-278854500D02*
X192913000Y-280730000D01*
X230353500Y-241414000D02*
X192913000Y-278854500D01*
X201500000Y-151893800D02*
X201500000Y-151200000D01*
X200230000Y-153163800D02*
X201500000Y-151893800D01*
X200230000Y-166100500D02*
X200230000Y-153163800D01*
X265899500Y-231770000D02*
X200230000Y-166100500D01*
X267730000Y-231770000D02*
X265899500Y-231770000D01*
X269000000Y-230500000D02*
X267730000Y-231770000D01*
X147370000Y-152470000D02*
X146100000Y-153740000D01*
X147370000Y-106210000D02*
X147370000Y-152470000D01*
X146100000Y-104940000D02*
X147370000Y-106210000D01*
X201500000Y-149353800D02*
X201500000Y-104940000D01*
X202770000Y-150623800D02*
X201500000Y-149353800D01*
X202770000Y-152470000D02*
X202770000Y-150623800D01*
X201500000Y-153740000D02*
X202770000Y-152470000D01*
X201500000Y-165540000D02*
X201500000Y-153740000D01*
X266460000Y-230500000D02*
X201500000Y-165540000D01*
X191643000Y-278936900D02*
X191643000Y-279460000D01*
X232660900Y-237919000D02*
X191643000Y-278936900D01*
X148640000Y-106729200D02*
X148640000Y-151200000D01*
X147370000Y-105459200D02*
X148640000Y-106729200D01*
X147370000Y-103670000D02*
X147370000Y-105459200D01*
X148640000Y-102400000D02*
X147370000Y-103670000D01*
X202770000Y-103670000D02*
X204040000Y-102400000D01*
X202770000Y-149930000D02*
X202770000Y-103670000D01*
X204040000Y-151200000D02*
X202770000Y-149930000D01*
X269000000Y-216160000D02*
X204040000Y-151200000D01*
X269000000Y-227960000D02*
X269000000Y-216160000D01*
X190373000Y-280730000D02*
X189103000Y-282000000D01*
X190373000Y-278940800D02*
X190373000Y-280730000D01*
X232279000Y-237034800D02*
X190373000Y-278940800D01*
X149914800Y-152465200D02*
X148640000Y-153740000D01*
X149914800Y-106214800D02*
X149914800Y-152465200D01*
X148640000Y-104940000D02*
X149914800Y-106214800D01*
X204011300Y-153768700D02*
X204040000Y-153740000D01*
X204011300Y-165511300D02*
X204011300Y-153768700D01*
X266460000Y-227960000D02*
X204011300Y-165511300D01*
X189103000Y-279127600D02*
X231451300Y-236779300D01*
X189103000Y-279460000D02*
X189103000Y-279127600D01*
X479069000Y-285090000D02*
X479069000Y-284089700D01*
X387654700Y-97005700D02*
X380340000Y-89691000D01*
X387654700Y-125895100D02*
X387654700Y-97005700D01*
X388104900Y-126345300D02*
X387654700Y-125895100D01*
X388104900Y-152966400D02*
X388104900Y-126345300D01*
X458470800Y-223332300D02*
X388104900Y-152966400D01*
X458470800Y-247205100D02*
X458470800Y-223332300D01*
X473862000Y-262596300D02*
X458470800Y-247205100D01*
X473862000Y-274346600D02*
X473862000Y-262596300D01*
X476402000Y-276886600D02*
X473862000Y-274346600D01*
X476402000Y-281422700D02*
X476402000Y-276886600D01*
X479069000Y-284089700D02*
X476402000Y-281422700D01*
X306000000Y-177600400D02*
X269045300Y-214555100D01*
X306000000Y-156400000D02*
X306000000Y-177600400D01*
X269750800Y-208783100D02*
X268857100Y-208783100D01*
X303460000Y-175073900D02*
X269750800Y-208783100D01*
X303460000Y-156400000D02*
X303460000Y-175073900D01*
X268226000Y-208469700D02*
X268226000Y-214476200D01*
X281543500Y-195152200D02*
X268226000Y-208469700D01*
X282736000Y-195152200D02*
X281543500Y-195152200D01*
X302185200Y-175703000D02*
X282736000Y-195152200D01*
X302185200Y-152594800D02*
X302185200Y-175703000D01*
X303460000Y-151320000D02*
X302185200Y-152594800D01*
X340041600Y-165558400D02*
X323800000Y-181800000D01*
X340041600Y-127297600D02*
X340041600Y-165558400D01*
X355805100Y-111534100D02*
X340041600Y-127297600D01*
X355805100Y-110625300D02*
X355805100Y-111534100D01*
X361048100Y-105382300D02*
X355805100Y-110625300D01*
X362345600Y-105382300D02*
X361048100Y-105382300D01*
X363384700Y-104343200D02*
X362345600Y-105382300D01*
X363384700Y-103398600D02*
X363384700Y-104343200D01*
X361505600Y-101519500D02*
X363384700Y-103398600D01*
X361505600Y-98077700D02*
X361505600Y-101519500D01*
X371756100Y-87827200D02*
X361505600Y-98077700D01*
X389678700Y-87827200D02*
X371756100Y-87827200D01*
X396332600Y-94481100D02*
X389678700Y-87827200D01*
X396332600Y-94578300D02*
X396332600Y-94481100D01*
X396892100Y-95137800D02*
X396332600Y-94578300D01*
X398843400Y-95137800D02*
X396892100Y-95137800D01*
X399798000Y-94183200D02*
X398843400Y-95137800D01*
X319499800Y-180039800D02*
X321260000Y-181800000D01*
X319499800Y-116461100D02*
X319499800Y-180039800D01*
X349040000Y-86920900D02*
X319499800Y-116461100D01*
X389995700Y-86920900D02*
X349040000Y-86920900D01*
X397258000Y-94183200D02*
X389995700Y-86920900D01*
X356201600Y-96326400D02*
X359564000Y-92964000D01*
X356201600Y-98833500D02*
X356201600Y-96326400D01*
X352087700Y-102947400D02*
X356201600Y-98833500D01*
X351966800Y-102947400D02*
X352087700Y-102947400D01*
X325619400Y-129294800D02*
X351966800Y-102947400D01*
X325619400Y-177440600D02*
X325619400Y-129294800D01*
X323800000Y-179260000D02*
X325619400Y-177440600D01*
X319985200Y-177985200D02*
X321260000Y-179260000D01*
X319985200Y-129185400D02*
X319985200Y-177985200D01*
X356206600Y-92964000D02*
X319985200Y-129185400D01*
X357024000Y-92964000D02*
X356206600Y-92964000D01*
X325074800Y-126078200D02*
X352271000Y-98882000D01*
X325074800Y-175445200D02*
X325074800Y-126078200D01*
X323800000Y-176720000D02*
X325074800Y-175445200D01*
X322530000Y-175450000D02*
X321260000Y-176720000D01*
X322530000Y-127277500D02*
X322530000Y-175450000D01*
X351859600Y-97947900D02*
X322530000Y-127277500D01*
X353876900Y-97947900D02*
X351859600Y-97947900D01*
X354811000Y-98882000D02*
X353876900Y-97947900D01*
X346305200Y-121931500D02*
X344748300Y-123488400D01*
X353431500Y-121931500D02*
X346305200Y-121931500D01*
X359615000Y-115748000D02*
X353431500Y-121931500D01*
X374837500Y-115011000D02*
X372720000Y-115011000D01*
X386979200Y-127152700D02*
X374837500Y-115011000D01*
X386979200Y-183747900D02*
X386979200Y-127152700D01*
X466242000Y-263010700D02*
X386979200Y-183747900D01*
X466242000Y-273126000D02*
X466242000Y-263010700D01*
X472592000Y-279476000D02*
X466242000Y-273126000D01*
X380340000Y-119217300D02*
X380340000Y-115011000D01*
X387654600Y-126531900D02*
X380340000Y-119217300D01*
X387654600Y-180314300D02*
X387654600Y-126531900D01*
X468782000Y-261441700D02*
X387654600Y-180314300D01*
X468782000Y-273126000D02*
X468782000Y-261441700D01*
X475132000Y-279476000D02*
X468782000Y-273126000D01*
X133950500Y-200324900D02*
X133579000Y-200324900D01*
X175489000Y-241863400D02*
X133950500Y-200324900D01*
X175489000Y-243424700D02*
X175489000Y-241863400D01*
X178742500Y-246678200D02*
X175489000Y-243424700D01*
X133579000Y-199136000D02*
X133579000Y-200324900D01*
X133950500Y-202864900D02*
X133579000Y-202864900D01*
X172949000Y-241863400D02*
X133950500Y-202864900D01*
X172949000Y-245265800D02*
X172949000Y-241863400D01*
X178028200Y-250345000D02*
X172949000Y-245265800D01*
X133579000Y-201676000D02*
X133579000Y-202864900D01*
X476788000Y-307536700D02*
X477596000Y-307536700D01*
X475410100Y-306158800D02*
X476788000Y-307536700D01*
X475410100Y-284834100D02*
X475410100Y-306158800D01*
X470052000Y-279476000D02*
X475410100Y-284834100D01*
X477596000Y-308712000D02*
X477596000Y-307536700D01*
X464972000Y-264236000D02*
X464972000Y-279476000D01*
M02*
