G04 #@! TF.FileFunction,Legend,Bot*
%FSLAX46Y46*%
G04 Gerber Fmt 4.6, Leading zero omitted, Abs format (unit mm)*
G04 Created by KiCad (PCBNEW 4.0.6) date 02/21/20 12:53:56*
%MOMM*%
%LPD*%
G01*
G04 APERTURE LIST*
%ADD10C,0.100000*%
%ADD11C,0.203200*%
%ADD12C,0.150000*%
%ADD13C,0.127000*%
G04 APERTURE END LIST*
D10*
D11*
X134035000Y-101130000D02*
X134670000Y-101765000D01*
X134670000Y-101765000D02*
X135305000Y-101130000D01*
X136575000Y-101130000D02*
X137210000Y-101765000D01*
X137210000Y-101765000D02*
X137845000Y-101130000D01*
X139115000Y-101130000D02*
X139750000Y-101765000D01*
X139750000Y-101765000D02*
X140385000Y-101130000D01*
X141655000Y-101130000D02*
X142290000Y-101765000D01*
X142290000Y-101765000D02*
X142925000Y-101130000D01*
X144195000Y-101130000D02*
X144830000Y-101765000D01*
X144830000Y-101765000D02*
X145465000Y-101130000D01*
X146735000Y-101130000D02*
X147370000Y-101765000D01*
X132765000Y-106210000D02*
X134035000Y-106210000D01*
X134035000Y-106210000D02*
X134670000Y-105575000D01*
X134670000Y-105575000D02*
X135305000Y-106210000D01*
X135305000Y-106210000D02*
X136575000Y-106210000D01*
X136575000Y-106210000D02*
X137210000Y-105575000D01*
X137210000Y-105575000D02*
X137845000Y-106210000D01*
X137845000Y-106210000D02*
X139115000Y-106210000D01*
X139115000Y-106210000D02*
X139750000Y-105575000D01*
X139750000Y-105575000D02*
X140385000Y-106210000D01*
X140385000Y-106210000D02*
X141655000Y-106210000D01*
X141655000Y-106210000D02*
X142290000Y-105575000D01*
X142290000Y-105575000D02*
X142925000Y-106210000D01*
X142925000Y-106210000D02*
X144195000Y-106210000D01*
X144195000Y-106210000D02*
X144830000Y-105575000D01*
X144830000Y-105575000D02*
X145465000Y-106210000D01*
X145465000Y-106210000D02*
X146735000Y-106210000D01*
X146735000Y-106210000D02*
X147370000Y-105575000D01*
X147370000Y-105575000D02*
X148005000Y-106210000D01*
X148005000Y-106210000D02*
X149275000Y-106210000D01*
X149275000Y-106210000D02*
X149910000Y-105575000D01*
X149910000Y-101765000D02*
X149275000Y-101130000D01*
X147370000Y-101765000D02*
X148005000Y-101130000D01*
X134670000Y-105575000D02*
X134670000Y-101765000D01*
X137210000Y-105575000D02*
X137210000Y-101765000D01*
X139750000Y-105575000D02*
X139750000Y-101765000D01*
X142290000Y-105575000D02*
X142290000Y-101765000D01*
X144830000Y-105575000D02*
X144830000Y-101765000D01*
X147370000Y-105575000D02*
X147370000Y-101765000D01*
X149910000Y-105575000D02*
X149910000Y-101765000D01*
X148005000Y-101130000D02*
X149275000Y-101130000D01*
X145465000Y-101130000D02*
X146735000Y-101130000D01*
X142925000Y-101130000D02*
X144195000Y-101130000D01*
X140385000Y-101130000D02*
X141655000Y-101130000D01*
X137845000Y-101130000D02*
X139115000Y-101130000D01*
X135305000Y-101130000D02*
X136575000Y-101130000D01*
X132765000Y-101130000D02*
X134035000Y-101130000D01*
X132130000Y-101765000D02*
X132765000Y-101130000D01*
X132130000Y-101765000D02*
X132130000Y-105575000D01*
X132130000Y-105575000D02*
X132765000Y-106210000D01*
X132638000Y-100749000D02*
X134035000Y-100749000D01*
X134035000Y-100749000D02*
X132638000Y-100749000D01*
X189435000Y-101130000D02*
X190070000Y-101765000D01*
X190070000Y-101765000D02*
X190705000Y-101130000D01*
X191975000Y-101130000D02*
X192610000Y-101765000D01*
X192610000Y-101765000D02*
X193245000Y-101130000D01*
X194515000Y-101130000D02*
X195150000Y-101765000D01*
X195150000Y-101765000D02*
X195785000Y-101130000D01*
X197055000Y-101130000D02*
X197690000Y-101765000D01*
X197690000Y-101765000D02*
X198325000Y-101130000D01*
X199595000Y-101130000D02*
X200230000Y-101765000D01*
X200230000Y-101765000D02*
X200865000Y-101130000D01*
X202135000Y-101130000D02*
X202770000Y-101765000D01*
X188165000Y-106210000D02*
X189435000Y-106210000D01*
X189435000Y-106210000D02*
X190070000Y-105575000D01*
X190070000Y-105575000D02*
X190705000Y-106210000D01*
X190705000Y-106210000D02*
X191975000Y-106210000D01*
X191975000Y-106210000D02*
X192610000Y-105575000D01*
X192610000Y-105575000D02*
X193245000Y-106210000D01*
X193245000Y-106210000D02*
X194515000Y-106210000D01*
X194515000Y-106210000D02*
X195150000Y-105575000D01*
X195150000Y-105575000D02*
X195785000Y-106210000D01*
X195785000Y-106210000D02*
X197055000Y-106210000D01*
X197055000Y-106210000D02*
X197690000Y-105575000D01*
X197690000Y-105575000D02*
X198325000Y-106210000D01*
X198325000Y-106210000D02*
X199595000Y-106210000D01*
X199595000Y-106210000D02*
X200230000Y-105575000D01*
X200230000Y-105575000D02*
X200865000Y-106210000D01*
X200865000Y-106210000D02*
X202135000Y-106210000D01*
X202135000Y-106210000D02*
X202770000Y-105575000D01*
X202770000Y-105575000D02*
X203405000Y-106210000D01*
X203405000Y-106210000D02*
X204675000Y-106210000D01*
X204675000Y-106210000D02*
X205310000Y-105575000D01*
X205310000Y-101765000D02*
X204675000Y-101130000D01*
X202770000Y-101765000D02*
X203405000Y-101130000D01*
X190070000Y-105575000D02*
X190070000Y-101765000D01*
X192610000Y-105575000D02*
X192610000Y-101765000D01*
X195150000Y-105575000D02*
X195150000Y-101765000D01*
X197690000Y-105575000D02*
X197690000Y-101765000D01*
X200230000Y-105575000D02*
X200230000Y-101765000D01*
X202770000Y-105575000D02*
X202770000Y-101765000D01*
X205310000Y-105575000D02*
X205310000Y-101765000D01*
X203405000Y-101130000D02*
X204675000Y-101130000D01*
X200865000Y-101130000D02*
X202135000Y-101130000D01*
X198325000Y-101130000D02*
X199595000Y-101130000D01*
X195785000Y-101130000D02*
X197055000Y-101130000D01*
X193245000Y-101130000D02*
X194515000Y-101130000D01*
X190705000Y-101130000D02*
X191975000Y-101130000D01*
X188165000Y-101130000D02*
X189435000Y-101130000D01*
X187530000Y-101765000D02*
X188165000Y-101130000D01*
X187530000Y-101765000D02*
X187530000Y-105575000D01*
X187530000Y-105575000D02*
X188165000Y-106210000D01*
X188038000Y-100749000D02*
X189435000Y-100749000D01*
X189435000Y-100749000D02*
X188038000Y-100749000D01*
X189435000Y-149930000D02*
X190070000Y-150565000D01*
X190070000Y-150565000D02*
X190705000Y-149930000D01*
X191975000Y-149930000D02*
X192610000Y-150565000D01*
X192610000Y-150565000D02*
X193245000Y-149930000D01*
X194515000Y-149930000D02*
X195150000Y-150565000D01*
X195150000Y-150565000D02*
X195785000Y-149930000D01*
X197055000Y-149930000D02*
X197690000Y-150565000D01*
X197690000Y-150565000D02*
X198325000Y-149930000D01*
X199595000Y-149930000D02*
X200230000Y-150565000D01*
X200230000Y-150565000D02*
X200865000Y-149930000D01*
X202135000Y-149930000D02*
X202770000Y-150565000D01*
X188165000Y-155010000D02*
X189435000Y-155010000D01*
X189435000Y-155010000D02*
X190070000Y-154375000D01*
X190070000Y-154375000D02*
X190705000Y-155010000D01*
X190705000Y-155010000D02*
X191975000Y-155010000D01*
X191975000Y-155010000D02*
X192610000Y-154375000D01*
X192610000Y-154375000D02*
X193245000Y-155010000D01*
X193245000Y-155010000D02*
X194515000Y-155010000D01*
X194515000Y-155010000D02*
X195150000Y-154375000D01*
X195150000Y-154375000D02*
X195785000Y-155010000D01*
X195785000Y-155010000D02*
X197055000Y-155010000D01*
X197055000Y-155010000D02*
X197690000Y-154375000D01*
X197690000Y-154375000D02*
X198325000Y-155010000D01*
X198325000Y-155010000D02*
X199595000Y-155010000D01*
X199595000Y-155010000D02*
X200230000Y-154375000D01*
X200230000Y-154375000D02*
X200865000Y-155010000D01*
X200865000Y-155010000D02*
X202135000Y-155010000D01*
X202135000Y-155010000D02*
X202770000Y-154375000D01*
X202770000Y-154375000D02*
X203405000Y-155010000D01*
X203405000Y-155010000D02*
X204675000Y-155010000D01*
X204675000Y-155010000D02*
X205310000Y-154375000D01*
X205310000Y-150565000D02*
X204675000Y-149930000D01*
X202770000Y-150565000D02*
X203405000Y-149930000D01*
X190070000Y-154375000D02*
X190070000Y-150565000D01*
X192610000Y-154375000D02*
X192610000Y-150565000D01*
X195150000Y-154375000D02*
X195150000Y-150565000D01*
X197690000Y-154375000D02*
X197690000Y-150565000D01*
X200230000Y-154375000D02*
X200230000Y-150565000D01*
X202770000Y-154375000D02*
X202770000Y-150565000D01*
X205310000Y-154375000D02*
X205310000Y-150565000D01*
X203405000Y-149930000D02*
X204675000Y-149930000D01*
X200865000Y-149930000D02*
X202135000Y-149930000D01*
X198325000Y-149930000D02*
X199595000Y-149930000D01*
X195785000Y-149930000D02*
X197055000Y-149930000D01*
X193245000Y-149930000D02*
X194515000Y-149930000D01*
X190705000Y-149930000D02*
X191975000Y-149930000D01*
X188165000Y-149930000D02*
X189435000Y-149930000D01*
X187530000Y-150565000D02*
X188165000Y-149930000D01*
X187530000Y-150565000D02*
X187530000Y-154375000D01*
X187530000Y-154375000D02*
X188165000Y-155010000D01*
X188038000Y-149549000D02*
X189435000Y-149549000D01*
X189435000Y-149549000D02*
X188038000Y-149549000D01*
X134035000Y-149930000D02*
X134670000Y-150565000D01*
X134670000Y-150565000D02*
X135305000Y-149930000D01*
X136575000Y-149930000D02*
X137210000Y-150565000D01*
X137210000Y-150565000D02*
X137845000Y-149930000D01*
X139115000Y-149930000D02*
X139750000Y-150565000D01*
X139750000Y-150565000D02*
X140385000Y-149930000D01*
X141655000Y-149930000D02*
X142290000Y-150565000D01*
X142290000Y-150565000D02*
X142925000Y-149930000D01*
X144195000Y-149930000D02*
X144830000Y-150565000D01*
X144830000Y-150565000D02*
X145465000Y-149930000D01*
X146735000Y-149930000D02*
X147370000Y-150565000D01*
X132765000Y-155010000D02*
X134035000Y-155010000D01*
X134035000Y-155010000D02*
X134670000Y-154375000D01*
X134670000Y-154375000D02*
X135305000Y-155010000D01*
X135305000Y-155010000D02*
X136575000Y-155010000D01*
X136575000Y-155010000D02*
X137210000Y-154375000D01*
X137210000Y-154375000D02*
X137845000Y-155010000D01*
X137845000Y-155010000D02*
X139115000Y-155010000D01*
X139115000Y-155010000D02*
X139750000Y-154375000D01*
X139750000Y-154375000D02*
X140385000Y-155010000D01*
X140385000Y-155010000D02*
X141655000Y-155010000D01*
X141655000Y-155010000D02*
X142290000Y-154375000D01*
X142290000Y-154375000D02*
X142925000Y-155010000D01*
X142925000Y-155010000D02*
X144195000Y-155010000D01*
X144195000Y-155010000D02*
X144830000Y-154375000D01*
X144830000Y-154375000D02*
X145465000Y-155010000D01*
X145465000Y-155010000D02*
X146735000Y-155010000D01*
X146735000Y-155010000D02*
X147370000Y-154375000D01*
X147370000Y-154375000D02*
X148005000Y-155010000D01*
X148005000Y-155010000D02*
X149275000Y-155010000D01*
X149275000Y-155010000D02*
X149910000Y-154375000D01*
X149910000Y-150565000D02*
X149275000Y-149930000D01*
X147370000Y-150565000D02*
X148005000Y-149930000D01*
X134670000Y-154375000D02*
X134670000Y-150565000D01*
X137210000Y-154375000D02*
X137210000Y-150565000D01*
X139750000Y-154375000D02*
X139750000Y-150565000D01*
X142290000Y-154375000D02*
X142290000Y-150565000D01*
X144830000Y-154375000D02*
X144830000Y-150565000D01*
X147370000Y-154375000D02*
X147370000Y-150565000D01*
X149910000Y-154375000D02*
X149910000Y-150565000D01*
X148005000Y-149930000D02*
X149275000Y-149930000D01*
X145465000Y-149930000D02*
X146735000Y-149930000D01*
X142925000Y-149930000D02*
X144195000Y-149930000D01*
X140385000Y-149930000D02*
X141655000Y-149930000D01*
X137845000Y-149930000D02*
X139115000Y-149930000D01*
X135305000Y-149930000D02*
X136575000Y-149930000D01*
X132765000Y-149930000D02*
X134035000Y-149930000D01*
X132130000Y-150565000D02*
X132765000Y-149930000D01*
X132130000Y-150565000D02*
X132130000Y-154375000D01*
X132130000Y-154375000D02*
X132765000Y-155010000D01*
X132638000Y-149549000D02*
X134035000Y-149549000D01*
X134035000Y-149549000D02*
X132638000Y-149549000D01*
X147465000Y-283270000D02*
X146830000Y-282635000D01*
X146830000Y-282635000D02*
X146195000Y-283270000D01*
X144925000Y-283270000D02*
X144290000Y-282635000D01*
X144290000Y-282635000D02*
X143655000Y-283270000D01*
X142385000Y-283270000D02*
X141750000Y-282635000D01*
X141750000Y-282635000D02*
X141115000Y-283270000D01*
X139845000Y-283270000D02*
X139210000Y-282635000D01*
X139210000Y-282635000D02*
X138575000Y-283270000D01*
X137305000Y-283270000D02*
X136670000Y-282635000D01*
X136670000Y-282635000D02*
X136035000Y-283270000D01*
X134765000Y-283270000D02*
X134130000Y-282635000D01*
X148735000Y-278190000D02*
X147465000Y-278190000D01*
X147465000Y-278190000D02*
X146830000Y-278825000D01*
X146830000Y-278825000D02*
X146195000Y-278190000D01*
X146195000Y-278190000D02*
X144925000Y-278190000D01*
X144925000Y-278190000D02*
X144290000Y-278825000D01*
X144290000Y-278825000D02*
X143655000Y-278190000D01*
X143655000Y-278190000D02*
X142385000Y-278190000D01*
X142385000Y-278190000D02*
X141750000Y-278825000D01*
X141750000Y-278825000D02*
X141115000Y-278190000D01*
X141115000Y-278190000D02*
X139845000Y-278190000D01*
X139845000Y-278190000D02*
X139210000Y-278825000D01*
X139210000Y-278825000D02*
X138575000Y-278190000D01*
X138575000Y-278190000D02*
X137305000Y-278190000D01*
X137305000Y-278190000D02*
X136670000Y-278825000D01*
X136670000Y-278825000D02*
X136035000Y-278190000D01*
X136035000Y-278190000D02*
X134765000Y-278190000D01*
X134765000Y-278190000D02*
X134130000Y-278825000D01*
X134130000Y-278825000D02*
X133495000Y-278190000D01*
X133495000Y-278190000D02*
X132225000Y-278190000D01*
X132225000Y-278190000D02*
X131590000Y-278825000D01*
X131590000Y-282635000D02*
X132225000Y-283270000D01*
X134130000Y-282635000D02*
X133495000Y-283270000D01*
X146830000Y-278825000D02*
X146830000Y-282635000D01*
X144290000Y-278825000D02*
X144290000Y-282635000D01*
X141750000Y-278825000D02*
X141750000Y-282635000D01*
X139210000Y-278825000D02*
X139210000Y-282635000D01*
X136670000Y-278825000D02*
X136670000Y-282635000D01*
X134130000Y-278825000D02*
X134130000Y-282635000D01*
X131590000Y-278825000D02*
X131590000Y-282635000D01*
X133495000Y-283270000D02*
X132225000Y-283270000D01*
X136035000Y-283270000D02*
X134765000Y-283270000D01*
X138575000Y-283270000D02*
X137305000Y-283270000D01*
X141115000Y-283270000D02*
X139845000Y-283270000D01*
X143655000Y-283270000D02*
X142385000Y-283270000D01*
X146195000Y-283270000D02*
X144925000Y-283270000D01*
X148735000Y-283270000D02*
X147465000Y-283270000D01*
X149370000Y-282635000D02*
X148735000Y-283270000D01*
X149370000Y-282635000D02*
X149370000Y-278825000D01*
X149370000Y-278825000D02*
X148735000Y-278190000D01*
X148862000Y-283651000D02*
X147465000Y-283651000D01*
X147465000Y-283651000D02*
X148862000Y-283651000D01*
X203708000Y-283270000D02*
X203073000Y-282635000D01*
X203073000Y-282635000D02*
X202438000Y-283270000D01*
X201168000Y-283270000D02*
X200533000Y-282635000D01*
X200533000Y-282635000D02*
X199898000Y-283270000D01*
X198628000Y-283270000D02*
X197993000Y-282635000D01*
X197993000Y-282635000D02*
X197358000Y-283270000D01*
X196088000Y-283270000D02*
X195453000Y-282635000D01*
X195453000Y-282635000D02*
X194818000Y-283270000D01*
X193548000Y-283270000D02*
X192913000Y-282635000D01*
X192913000Y-282635000D02*
X192278000Y-283270000D01*
X191008000Y-283270000D02*
X190373000Y-282635000D01*
X204978000Y-278190000D02*
X203708000Y-278190000D01*
X203708000Y-278190000D02*
X203073000Y-278825000D01*
X203073000Y-278825000D02*
X202438000Y-278190000D01*
X202438000Y-278190000D02*
X201168000Y-278190000D01*
X201168000Y-278190000D02*
X200533000Y-278825000D01*
X200533000Y-278825000D02*
X199898000Y-278190000D01*
X199898000Y-278190000D02*
X198628000Y-278190000D01*
X198628000Y-278190000D02*
X197993000Y-278825000D01*
X197993000Y-278825000D02*
X197358000Y-278190000D01*
X197358000Y-278190000D02*
X196088000Y-278190000D01*
X196088000Y-278190000D02*
X195453000Y-278825000D01*
X195453000Y-278825000D02*
X194818000Y-278190000D01*
X194818000Y-278190000D02*
X193548000Y-278190000D01*
X193548000Y-278190000D02*
X192913000Y-278825000D01*
X192913000Y-278825000D02*
X192278000Y-278190000D01*
X192278000Y-278190000D02*
X191008000Y-278190000D01*
X191008000Y-278190000D02*
X190373000Y-278825000D01*
X190373000Y-278825000D02*
X189738000Y-278190000D01*
X189738000Y-278190000D02*
X188468000Y-278190000D01*
X188468000Y-278190000D02*
X187833000Y-278825000D01*
X187833000Y-282635000D02*
X188468000Y-283270000D01*
X190373000Y-282635000D02*
X189738000Y-283270000D01*
X203073000Y-278825000D02*
X203073000Y-282635000D01*
X200533000Y-278825000D02*
X200533000Y-282635000D01*
X197993000Y-278825000D02*
X197993000Y-282635000D01*
X195453000Y-278825000D02*
X195453000Y-282635000D01*
X192913000Y-278825000D02*
X192913000Y-282635000D01*
X190373000Y-278825000D02*
X190373000Y-282635000D01*
X187833000Y-278825000D02*
X187833000Y-282635000D01*
X189738000Y-283270000D02*
X188468000Y-283270000D01*
X192278000Y-283270000D02*
X191008000Y-283270000D01*
X194818000Y-283270000D02*
X193548000Y-283270000D01*
X197358000Y-283270000D02*
X196088000Y-283270000D01*
X199898000Y-283270000D02*
X198628000Y-283270000D01*
X202438000Y-283270000D02*
X201168000Y-283270000D01*
X204978000Y-283270000D02*
X203708000Y-283270000D01*
X205613000Y-282635000D02*
X204978000Y-283270000D01*
X205613000Y-282635000D02*
X205613000Y-278825000D01*
X205613000Y-278825000D02*
X204978000Y-278190000D01*
X205105000Y-283651000D02*
X203708000Y-283651000D01*
X203708000Y-283651000D02*
X205105000Y-283651000D01*
D12*
X227559000Y-191516000D02*
X227559000Y-244856000D01*
X128499000Y-204216000D02*
X128499000Y-193040000D01*
X125959000Y-206756000D02*
X128499000Y-204216000D01*
X125959000Y-241046000D02*
X125959000Y-206756000D01*
X128499000Y-243586000D02*
X125959000Y-241046000D01*
X128499000Y-244856000D02*
X128499000Y-243586000D01*
X130023000Y-191516000D02*
X128499000Y-193040000D01*
X227559000Y-244856000D02*
X128499000Y-244856000D01*
X227559000Y-191516000D02*
X130023000Y-191516000D01*
D13*
X133603200Y-106384171D02*
X133603200Y-106819600D01*
X133632228Y-106906686D01*
X133690285Y-106964743D01*
X133777371Y-106993771D01*
X133835428Y-106993771D01*
X132993600Y-106993771D02*
X133341943Y-106993771D01*
X133167771Y-106993771D02*
X133167771Y-106384171D01*
X133225828Y-106471257D01*
X133283886Y-106529314D01*
X133341943Y-106558343D01*
X135852913Y-100331714D02*
X135881942Y-100360743D01*
X135969028Y-100389771D01*
X136027085Y-100389771D01*
X136114170Y-100360743D01*
X136172228Y-100302686D01*
X136201256Y-100244629D01*
X136230285Y-100128514D01*
X136230285Y-100041429D01*
X136201256Y-99925314D01*
X136172228Y-99867257D01*
X136114170Y-99809200D01*
X136027085Y-99780171D01*
X135969028Y-99780171D01*
X135881942Y-99809200D01*
X135852913Y-99838229D01*
X135475542Y-99780171D02*
X135359428Y-99780171D01*
X135301370Y-99809200D01*
X135243313Y-99867257D01*
X135214285Y-99983371D01*
X135214285Y-100186571D01*
X135243313Y-100302686D01*
X135301370Y-100360743D01*
X135359428Y-100389771D01*
X135475542Y-100389771D01*
X135533599Y-100360743D01*
X135591656Y-100302686D01*
X135620685Y-100186571D01*
X135620685Y-99983371D01*
X135591656Y-99867257D01*
X135533599Y-99809200D01*
X135475542Y-99780171D01*
X134953027Y-100389771D02*
X134953027Y-99780171D01*
X134604684Y-100389771D01*
X134604684Y-99780171D01*
X134314398Y-100389771D02*
X134314398Y-99780171D01*
X133966055Y-100389771D01*
X133966055Y-99780171D01*
X133820912Y-100447829D02*
X133356455Y-100447829D01*
X133095198Y-99780171D02*
X133037141Y-99780171D01*
X132979084Y-99809200D01*
X132950055Y-99838229D01*
X132921026Y-99896286D01*
X132891998Y-100012400D01*
X132891998Y-100157543D01*
X132921026Y-100273657D01*
X132950055Y-100331714D01*
X132979084Y-100360743D01*
X133037141Y-100389771D01*
X133095198Y-100389771D01*
X133153255Y-100360743D01*
X133182284Y-100331714D01*
X133211312Y-100273657D01*
X133240341Y-100157543D01*
X133240341Y-100012400D01*
X133211312Y-99896286D01*
X133182284Y-99838229D01*
X133153255Y-99809200D01*
X133095198Y-99780171D01*
X132311427Y-100389771D02*
X132659770Y-100389771D01*
X132485598Y-100389771D02*
X132485598Y-99780171D01*
X132543655Y-99867257D01*
X132601713Y-99925314D01*
X132659770Y-99954343D01*
X132108227Y-99780171D02*
X131701827Y-100389771D01*
X131701827Y-99780171D02*
X132108227Y-100389771D01*
X131150285Y-100389771D02*
X131498628Y-100389771D01*
X131324456Y-100389771D02*
X131324456Y-99780171D01*
X131382513Y-99867257D01*
X131440571Y-99925314D01*
X131498628Y-99954343D01*
X130627771Y-99983371D02*
X130627771Y-100389771D01*
X130772914Y-99751143D02*
X130918057Y-100186571D01*
X130540685Y-100186571D01*
X189003200Y-106384171D02*
X189003200Y-106819600D01*
X189032228Y-106906686D01*
X189090285Y-106964743D01*
X189177371Y-106993771D01*
X189235428Y-106993771D01*
X188741943Y-106442229D02*
X188712914Y-106413200D01*
X188654857Y-106384171D01*
X188509714Y-106384171D01*
X188451657Y-106413200D01*
X188422628Y-106442229D01*
X188393600Y-106500286D01*
X188393600Y-106558343D01*
X188422628Y-106645429D01*
X188770971Y-106993771D01*
X188393600Y-106993771D01*
X191252913Y-100331714D02*
X191281942Y-100360743D01*
X191369028Y-100389771D01*
X191427085Y-100389771D01*
X191514170Y-100360743D01*
X191572228Y-100302686D01*
X191601256Y-100244629D01*
X191630285Y-100128514D01*
X191630285Y-100041429D01*
X191601256Y-99925314D01*
X191572228Y-99867257D01*
X191514170Y-99809200D01*
X191427085Y-99780171D01*
X191369028Y-99780171D01*
X191281942Y-99809200D01*
X191252913Y-99838229D01*
X190875542Y-99780171D02*
X190759428Y-99780171D01*
X190701370Y-99809200D01*
X190643313Y-99867257D01*
X190614285Y-99983371D01*
X190614285Y-100186571D01*
X190643313Y-100302686D01*
X190701370Y-100360743D01*
X190759428Y-100389771D01*
X190875542Y-100389771D01*
X190933599Y-100360743D01*
X190991656Y-100302686D01*
X191020685Y-100186571D01*
X191020685Y-99983371D01*
X190991656Y-99867257D01*
X190933599Y-99809200D01*
X190875542Y-99780171D01*
X190353027Y-100389771D02*
X190353027Y-99780171D01*
X190004684Y-100389771D01*
X190004684Y-99780171D01*
X189714398Y-100389771D02*
X189714398Y-99780171D01*
X189366055Y-100389771D01*
X189366055Y-99780171D01*
X189220912Y-100447829D02*
X188756455Y-100447829D01*
X188495198Y-99780171D02*
X188437141Y-99780171D01*
X188379084Y-99809200D01*
X188350055Y-99838229D01*
X188321026Y-99896286D01*
X188291998Y-100012400D01*
X188291998Y-100157543D01*
X188321026Y-100273657D01*
X188350055Y-100331714D01*
X188379084Y-100360743D01*
X188437141Y-100389771D01*
X188495198Y-100389771D01*
X188553255Y-100360743D01*
X188582284Y-100331714D01*
X188611312Y-100273657D01*
X188640341Y-100157543D01*
X188640341Y-100012400D01*
X188611312Y-99896286D01*
X188582284Y-99838229D01*
X188553255Y-99809200D01*
X188495198Y-99780171D01*
X187711427Y-100389771D02*
X188059770Y-100389771D01*
X187885598Y-100389771D02*
X187885598Y-99780171D01*
X187943655Y-99867257D01*
X188001713Y-99925314D01*
X188059770Y-99954343D01*
X187508227Y-99780171D02*
X187101827Y-100389771D01*
X187101827Y-99780171D02*
X187508227Y-100389771D01*
X186550285Y-100389771D02*
X186898628Y-100389771D01*
X186724456Y-100389771D02*
X186724456Y-99780171D01*
X186782513Y-99867257D01*
X186840571Y-99925314D01*
X186898628Y-99954343D01*
X186027771Y-99983371D02*
X186027771Y-100389771D01*
X186172914Y-99751143D02*
X186318057Y-100186571D01*
X185940685Y-100186571D01*
X189003200Y-155184171D02*
X189003200Y-155619600D01*
X189032228Y-155706686D01*
X189090285Y-155764743D01*
X189177371Y-155793771D01*
X189235428Y-155793771D01*
X188451657Y-155387371D02*
X188451657Y-155793771D01*
X188596800Y-155155143D02*
X188741943Y-155590571D01*
X188364571Y-155590571D01*
X191252913Y-149131714D02*
X191281942Y-149160743D01*
X191369028Y-149189771D01*
X191427085Y-149189771D01*
X191514170Y-149160743D01*
X191572228Y-149102686D01*
X191601256Y-149044629D01*
X191630285Y-148928514D01*
X191630285Y-148841429D01*
X191601256Y-148725314D01*
X191572228Y-148667257D01*
X191514170Y-148609200D01*
X191427085Y-148580171D01*
X191369028Y-148580171D01*
X191281942Y-148609200D01*
X191252913Y-148638229D01*
X190875542Y-148580171D02*
X190759428Y-148580171D01*
X190701370Y-148609200D01*
X190643313Y-148667257D01*
X190614285Y-148783371D01*
X190614285Y-148986571D01*
X190643313Y-149102686D01*
X190701370Y-149160743D01*
X190759428Y-149189771D01*
X190875542Y-149189771D01*
X190933599Y-149160743D01*
X190991656Y-149102686D01*
X191020685Y-148986571D01*
X191020685Y-148783371D01*
X190991656Y-148667257D01*
X190933599Y-148609200D01*
X190875542Y-148580171D01*
X190353027Y-149189771D02*
X190353027Y-148580171D01*
X190004684Y-149189771D01*
X190004684Y-148580171D01*
X189714398Y-149189771D02*
X189714398Y-148580171D01*
X189366055Y-149189771D01*
X189366055Y-148580171D01*
X189220912Y-149247829D02*
X188756455Y-149247829D01*
X188495198Y-148580171D02*
X188437141Y-148580171D01*
X188379084Y-148609200D01*
X188350055Y-148638229D01*
X188321026Y-148696286D01*
X188291998Y-148812400D01*
X188291998Y-148957543D01*
X188321026Y-149073657D01*
X188350055Y-149131714D01*
X188379084Y-149160743D01*
X188437141Y-149189771D01*
X188495198Y-149189771D01*
X188553255Y-149160743D01*
X188582284Y-149131714D01*
X188611312Y-149073657D01*
X188640341Y-148957543D01*
X188640341Y-148812400D01*
X188611312Y-148696286D01*
X188582284Y-148638229D01*
X188553255Y-148609200D01*
X188495198Y-148580171D01*
X187711427Y-149189771D02*
X188059770Y-149189771D01*
X187885598Y-149189771D02*
X187885598Y-148580171D01*
X187943655Y-148667257D01*
X188001713Y-148725314D01*
X188059770Y-148754343D01*
X187508227Y-148580171D02*
X187101827Y-149189771D01*
X187101827Y-148580171D02*
X187508227Y-149189771D01*
X186550285Y-149189771D02*
X186898628Y-149189771D01*
X186724456Y-149189771D02*
X186724456Y-148580171D01*
X186782513Y-148667257D01*
X186840571Y-148725314D01*
X186898628Y-148754343D01*
X186027771Y-148783371D02*
X186027771Y-149189771D01*
X186172914Y-148551143D02*
X186318057Y-148986571D01*
X185940685Y-148986571D01*
X133603200Y-155184171D02*
X133603200Y-155619600D01*
X133632228Y-155706686D01*
X133690285Y-155764743D01*
X133777371Y-155793771D01*
X133835428Y-155793771D01*
X133370971Y-155184171D02*
X132993600Y-155184171D01*
X133196800Y-155416400D01*
X133109714Y-155416400D01*
X133051657Y-155445429D01*
X133022628Y-155474457D01*
X132993600Y-155532514D01*
X132993600Y-155677657D01*
X133022628Y-155735714D01*
X133051657Y-155764743D01*
X133109714Y-155793771D01*
X133283886Y-155793771D01*
X133341943Y-155764743D01*
X133370971Y-155735714D01*
X135852913Y-149131714D02*
X135881942Y-149160743D01*
X135969028Y-149189771D01*
X136027085Y-149189771D01*
X136114170Y-149160743D01*
X136172228Y-149102686D01*
X136201256Y-149044629D01*
X136230285Y-148928514D01*
X136230285Y-148841429D01*
X136201256Y-148725314D01*
X136172228Y-148667257D01*
X136114170Y-148609200D01*
X136027085Y-148580171D01*
X135969028Y-148580171D01*
X135881942Y-148609200D01*
X135852913Y-148638229D01*
X135475542Y-148580171D02*
X135359428Y-148580171D01*
X135301370Y-148609200D01*
X135243313Y-148667257D01*
X135214285Y-148783371D01*
X135214285Y-148986571D01*
X135243313Y-149102686D01*
X135301370Y-149160743D01*
X135359428Y-149189771D01*
X135475542Y-149189771D01*
X135533599Y-149160743D01*
X135591656Y-149102686D01*
X135620685Y-148986571D01*
X135620685Y-148783371D01*
X135591656Y-148667257D01*
X135533599Y-148609200D01*
X135475542Y-148580171D01*
X134953027Y-149189771D02*
X134953027Y-148580171D01*
X134604684Y-149189771D01*
X134604684Y-148580171D01*
X134314398Y-149189771D02*
X134314398Y-148580171D01*
X133966055Y-149189771D01*
X133966055Y-148580171D01*
X133820912Y-149247829D02*
X133356455Y-149247829D01*
X133095198Y-148580171D02*
X133037141Y-148580171D01*
X132979084Y-148609200D01*
X132950055Y-148638229D01*
X132921026Y-148696286D01*
X132891998Y-148812400D01*
X132891998Y-148957543D01*
X132921026Y-149073657D01*
X132950055Y-149131714D01*
X132979084Y-149160743D01*
X133037141Y-149189771D01*
X133095198Y-149189771D01*
X133153255Y-149160743D01*
X133182284Y-149131714D01*
X133211312Y-149073657D01*
X133240341Y-148957543D01*
X133240341Y-148812400D01*
X133211312Y-148696286D01*
X133182284Y-148638229D01*
X133153255Y-148609200D01*
X133095198Y-148580171D01*
X132311427Y-149189771D02*
X132659770Y-149189771D01*
X132485598Y-149189771D02*
X132485598Y-148580171D01*
X132543655Y-148667257D01*
X132601713Y-148725314D01*
X132659770Y-148754343D01*
X132108227Y-148580171D02*
X131701827Y-149189771D01*
X131701827Y-148580171D02*
X132108227Y-149189771D01*
X131150285Y-149189771D02*
X131498628Y-149189771D01*
X131324456Y-149189771D02*
X131324456Y-148580171D01*
X131382513Y-148667257D01*
X131440571Y-148725314D01*
X131498628Y-148754343D01*
X130627771Y-148783371D02*
X130627771Y-149189771D01*
X130772914Y-148551143D02*
X130918057Y-148986571D01*
X130540685Y-148986571D01*
X148303200Y-277348171D02*
X148303200Y-277783600D01*
X148332228Y-277870686D01*
X148390285Y-277928743D01*
X148477371Y-277957771D01*
X148535428Y-277957771D01*
X147925828Y-277609429D02*
X147983886Y-277580400D01*
X148012914Y-277551371D01*
X148041943Y-277493314D01*
X148041943Y-277464286D01*
X148012914Y-277406229D01*
X147983886Y-277377200D01*
X147925828Y-277348171D01*
X147809714Y-277348171D01*
X147751657Y-277377200D01*
X147722628Y-277406229D01*
X147693600Y-277464286D01*
X147693600Y-277493314D01*
X147722628Y-277551371D01*
X147751657Y-277580400D01*
X147809714Y-277609429D01*
X147925828Y-277609429D01*
X147983886Y-277638457D01*
X148012914Y-277667486D01*
X148041943Y-277725543D01*
X148041943Y-277841657D01*
X148012914Y-277899714D01*
X147983886Y-277928743D01*
X147925828Y-277957771D01*
X147809714Y-277957771D01*
X147751657Y-277928743D01*
X147722628Y-277899714D01*
X147693600Y-277841657D01*
X147693600Y-277725543D01*
X147722628Y-277667486D01*
X147751657Y-277638457D01*
X147809714Y-277609429D01*
X150552913Y-284503714D02*
X150581942Y-284532743D01*
X150669028Y-284561771D01*
X150727085Y-284561771D01*
X150814170Y-284532743D01*
X150872228Y-284474686D01*
X150901256Y-284416629D01*
X150930285Y-284300514D01*
X150930285Y-284213429D01*
X150901256Y-284097314D01*
X150872228Y-284039257D01*
X150814170Y-283981200D01*
X150727085Y-283952171D01*
X150669028Y-283952171D01*
X150581942Y-283981200D01*
X150552913Y-284010229D01*
X150175542Y-283952171D02*
X150059428Y-283952171D01*
X150001370Y-283981200D01*
X149943313Y-284039257D01*
X149914285Y-284155371D01*
X149914285Y-284358571D01*
X149943313Y-284474686D01*
X150001370Y-284532743D01*
X150059428Y-284561771D01*
X150175542Y-284561771D01*
X150233599Y-284532743D01*
X150291656Y-284474686D01*
X150320685Y-284358571D01*
X150320685Y-284155371D01*
X150291656Y-284039257D01*
X150233599Y-283981200D01*
X150175542Y-283952171D01*
X149653027Y-284561771D02*
X149653027Y-283952171D01*
X149304684Y-284561771D01*
X149304684Y-283952171D01*
X149014398Y-284561771D02*
X149014398Y-283952171D01*
X148666055Y-284561771D01*
X148666055Y-283952171D01*
X148520912Y-284619829D02*
X148056455Y-284619829D01*
X147795198Y-283952171D02*
X147737141Y-283952171D01*
X147679084Y-283981200D01*
X147650055Y-284010229D01*
X147621026Y-284068286D01*
X147591998Y-284184400D01*
X147591998Y-284329543D01*
X147621026Y-284445657D01*
X147650055Y-284503714D01*
X147679084Y-284532743D01*
X147737141Y-284561771D01*
X147795198Y-284561771D01*
X147853255Y-284532743D01*
X147882284Y-284503714D01*
X147911312Y-284445657D01*
X147940341Y-284329543D01*
X147940341Y-284184400D01*
X147911312Y-284068286D01*
X147882284Y-284010229D01*
X147853255Y-283981200D01*
X147795198Y-283952171D01*
X147011427Y-284561771D02*
X147359770Y-284561771D01*
X147185598Y-284561771D02*
X147185598Y-283952171D01*
X147243655Y-284039257D01*
X147301713Y-284097314D01*
X147359770Y-284126343D01*
X146808227Y-283952171D02*
X146401827Y-284561771D01*
X146401827Y-283952171D02*
X146808227Y-284561771D01*
X145850285Y-284561771D02*
X146198628Y-284561771D01*
X146024456Y-284561771D02*
X146024456Y-283952171D01*
X146082513Y-284039257D01*
X146140571Y-284097314D01*
X146198628Y-284126343D01*
X145327771Y-284155371D02*
X145327771Y-284561771D01*
X145472914Y-283923143D02*
X145618057Y-284358571D01*
X145240685Y-284358571D01*
X204546200Y-277348171D02*
X204546200Y-277783600D01*
X204575228Y-277870686D01*
X204633285Y-277928743D01*
X204720371Y-277957771D01*
X204778428Y-277957771D01*
X204226886Y-277957771D02*
X204110771Y-277957771D01*
X204052714Y-277928743D01*
X204023686Y-277899714D01*
X203965628Y-277812629D01*
X203936600Y-277696514D01*
X203936600Y-277464286D01*
X203965628Y-277406229D01*
X203994657Y-277377200D01*
X204052714Y-277348171D01*
X204168828Y-277348171D01*
X204226886Y-277377200D01*
X204255914Y-277406229D01*
X204284943Y-277464286D01*
X204284943Y-277609429D01*
X204255914Y-277667486D01*
X204226886Y-277696514D01*
X204168828Y-277725543D01*
X204052714Y-277725543D01*
X203994657Y-277696514D01*
X203965628Y-277667486D01*
X203936600Y-277609429D01*
X206795913Y-284503714D02*
X206824942Y-284532743D01*
X206912028Y-284561771D01*
X206970085Y-284561771D01*
X207057170Y-284532743D01*
X207115228Y-284474686D01*
X207144256Y-284416629D01*
X207173285Y-284300514D01*
X207173285Y-284213429D01*
X207144256Y-284097314D01*
X207115228Y-284039257D01*
X207057170Y-283981200D01*
X206970085Y-283952171D01*
X206912028Y-283952171D01*
X206824942Y-283981200D01*
X206795913Y-284010229D01*
X206418542Y-283952171D02*
X206302428Y-283952171D01*
X206244370Y-283981200D01*
X206186313Y-284039257D01*
X206157285Y-284155371D01*
X206157285Y-284358571D01*
X206186313Y-284474686D01*
X206244370Y-284532743D01*
X206302428Y-284561771D01*
X206418542Y-284561771D01*
X206476599Y-284532743D01*
X206534656Y-284474686D01*
X206563685Y-284358571D01*
X206563685Y-284155371D01*
X206534656Y-284039257D01*
X206476599Y-283981200D01*
X206418542Y-283952171D01*
X205896027Y-284561771D02*
X205896027Y-283952171D01*
X205547684Y-284561771D01*
X205547684Y-283952171D01*
X205257398Y-284561771D02*
X205257398Y-283952171D01*
X204909055Y-284561771D01*
X204909055Y-283952171D01*
X204763912Y-284619829D02*
X204299455Y-284619829D01*
X204038198Y-283952171D02*
X203980141Y-283952171D01*
X203922084Y-283981200D01*
X203893055Y-284010229D01*
X203864026Y-284068286D01*
X203834998Y-284184400D01*
X203834998Y-284329543D01*
X203864026Y-284445657D01*
X203893055Y-284503714D01*
X203922084Y-284532743D01*
X203980141Y-284561771D01*
X204038198Y-284561771D01*
X204096255Y-284532743D01*
X204125284Y-284503714D01*
X204154312Y-284445657D01*
X204183341Y-284329543D01*
X204183341Y-284184400D01*
X204154312Y-284068286D01*
X204125284Y-284010229D01*
X204096255Y-283981200D01*
X204038198Y-283952171D01*
X203254427Y-284561771D02*
X203602770Y-284561771D01*
X203428598Y-284561771D02*
X203428598Y-283952171D01*
X203486655Y-284039257D01*
X203544713Y-284097314D01*
X203602770Y-284126343D01*
X203051227Y-283952171D02*
X202644827Y-284561771D01*
X202644827Y-283952171D02*
X203051227Y-284561771D01*
X202093285Y-284561771D02*
X202441628Y-284561771D01*
X202267456Y-284561771D02*
X202267456Y-283952171D01*
X202325513Y-284039257D01*
X202383571Y-284097314D01*
X202441628Y-284126343D01*
X201570771Y-284155371D02*
X201570771Y-284561771D01*
X201715914Y-283923143D02*
X201861057Y-284358571D01*
X201483685Y-284358571D01*
D12*
X227161857Y-190952381D02*
X227161857Y-189952381D01*
X226828523Y-190666667D01*
X226495190Y-189952381D01*
X226495190Y-190952381D01*
X225638047Y-190904762D02*
X225733285Y-190952381D01*
X225923762Y-190952381D01*
X226019000Y-190904762D01*
X226066619Y-190809524D01*
X226066619Y-190428571D01*
X226019000Y-190333333D01*
X225923762Y-190285714D01*
X225733285Y-190285714D01*
X225638047Y-190333333D01*
X225590428Y-190428571D01*
X225590428Y-190523810D01*
X226066619Y-190619048D01*
X224733285Y-190285714D02*
X224733285Y-191095238D01*
X224780904Y-191190476D01*
X224828523Y-191238095D01*
X224923762Y-191285714D01*
X225066619Y-191285714D01*
X225161857Y-191238095D01*
X224733285Y-190904762D02*
X224828523Y-190952381D01*
X225019000Y-190952381D01*
X225114238Y-190904762D01*
X225161857Y-190857143D01*
X225209476Y-190761905D01*
X225209476Y-190476190D01*
X225161857Y-190380952D01*
X225114238Y-190333333D01*
X225019000Y-190285714D01*
X224828523Y-190285714D01*
X224733285Y-190333333D01*
X223828523Y-190952381D02*
X223828523Y-190428571D01*
X223876142Y-190333333D01*
X223971380Y-190285714D01*
X224161857Y-190285714D01*
X224257095Y-190333333D01*
X223828523Y-190904762D02*
X223923761Y-190952381D01*
X224161857Y-190952381D01*
X224257095Y-190904762D01*
X224304714Y-190809524D01*
X224304714Y-190714286D01*
X224257095Y-190619048D01*
X224161857Y-190571429D01*
X223923761Y-190571429D01*
X223828523Y-190523810D01*
X222828523Y-190952381D02*
X223399952Y-190952381D01*
X223114238Y-190952381D02*
X223114238Y-189952381D01*
X223209476Y-190095238D01*
X223304714Y-190190476D01*
X223399952Y-190238095D01*
X165075000Y-213209143D02*
X165027381Y-213256762D01*
X165075000Y-213304381D01*
X165122619Y-213256762D01*
X165075000Y-213209143D01*
X165075000Y-213304381D01*
M02*
