G04 #@! TF.FileFunction,Copper,L2,Bot,Signal*
%FSLAX46Y46*%
G04 Gerber Fmt 4.6, Leading zero omitted, Abs format (unit mm)*
G04 Created by KiCad (PCBNEW 4.0.6) date 02/07/20 07:55:15*
%MOMM*%
%LPD*%
G01*
G04 APERTURE LIST*
%ADD10C,0.100000*%
%ADD11R,1.500000X0.800000*%
%ADD12R,3.100000X2.200000*%
%ADD13R,1.879600X1.879600*%
%ADD14C,1.879600*%
%ADD15C,0.250000*%
G04 APERTURE END LIST*
D10*
D11*
X104438000Y-74061000D03*
X104438000Y-75311000D03*
X104438000Y-76561000D03*
X104438000Y-77811000D03*
X104438000Y-79061000D03*
X104438000Y-80311000D03*
X104438000Y-81561000D03*
X104438000Y-82811000D03*
X104438000Y-84061000D03*
X104438000Y-85311000D03*
D12*
X107188000Y-71561000D03*
X107188000Y-87811000D03*
D13*
X116459000Y-74803000D03*
D14*
X118999000Y-74803000D03*
X116459000Y-77343000D03*
X118999000Y-77343000D03*
X116459000Y-79883000D03*
X118999000Y-79883000D03*
X116459000Y-82423000D03*
X118999000Y-82423000D03*
X116459000Y-84963000D03*
X118999000Y-84963000D03*
D15*
X116459000Y-74803000D02*
X115269200Y-74803000D01*
X115269200Y-74803000D02*
X114527200Y-74061000D01*
X114527200Y-74061000D02*
X105438000Y-74061000D01*
X105438000Y-74061000D02*
X104438000Y-74061000D01*
X118999000Y-74803000D02*
X113665000Y-69469000D01*
X106044998Y-69469000D02*
X103362999Y-72150999D01*
X113665000Y-69469000D02*
X106044998Y-69469000D01*
X103362999Y-72150999D02*
X103362999Y-75235999D01*
X103362999Y-75235999D02*
X103438000Y-75311000D01*
X103438000Y-75311000D02*
X104438000Y-75311000D01*
X116459000Y-77343000D02*
X115519201Y-76403201D01*
X115519201Y-76403201D02*
X104595799Y-76403201D01*
X104595799Y-76403201D02*
X104438000Y-76561000D01*
X118999000Y-77343000D02*
X121158000Y-75184000D01*
X121158000Y-75184000D02*
X121158000Y-75090094D01*
X121158000Y-75090094D02*
X115086896Y-69018990D01*
X115086896Y-69018990D02*
X105858597Y-69018991D01*
X105858597Y-69018991D02*
X102912989Y-71964599D01*
X102912989Y-71964599D02*
X102912989Y-77285989D01*
X102912989Y-77285989D02*
X103438000Y-77811000D01*
X103438000Y-77811000D02*
X104438000Y-77811000D01*
X116459000Y-79883000D02*
X115519201Y-78943201D01*
X115519201Y-78943201D02*
X104555799Y-78943201D01*
X104555799Y-78943201D02*
X104438000Y-79061000D01*
X118999000Y-79883000D02*
X121608010Y-77273990D01*
X121608010Y-77273990D02*
X121608010Y-74903696D01*
X121608010Y-74903696D02*
X115273295Y-68568981D01*
X115273295Y-68568981D02*
X105672196Y-68568982D01*
X105672196Y-68568982D02*
X102462979Y-71778199D01*
X102462979Y-71778199D02*
X102462979Y-79335979D01*
X103438000Y-80311000D02*
X104438000Y-80311000D01*
X102462979Y-79335979D02*
X103438000Y-80311000D01*
X116459000Y-82423000D02*
X115519201Y-81483201D01*
X115519201Y-81483201D02*
X104515799Y-81483201D01*
X104515799Y-81483201D02*
X104438000Y-81561000D01*
X118999000Y-82423000D02*
X122058020Y-79363980D01*
X122058020Y-79363980D02*
X122058019Y-74717295D01*
X105485795Y-68118973D02*
X102012969Y-71591799D01*
X122058019Y-74717295D02*
X115459694Y-68118972D01*
X115459694Y-68118972D02*
X105485795Y-68118973D01*
X102012969Y-71591799D02*
X102012969Y-81385969D01*
X102012969Y-81385969D02*
X103438000Y-82811000D01*
X103438000Y-82811000D02*
X104438000Y-82811000D01*
X105561799Y-84023201D02*
X105524000Y-84061000D01*
X105524000Y-84061000D02*
X104438000Y-84061000D01*
X116459000Y-84963000D02*
X115519201Y-84023201D01*
X115519201Y-84023201D02*
X105561799Y-84023201D01*
X118999000Y-84963000D02*
X122508028Y-81453972D01*
X122508028Y-81453972D02*
X122508028Y-74530894D01*
X122508028Y-74530894D02*
X115646093Y-67668963D01*
X101562959Y-83435959D02*
X103438000Y-85311000D01*
X115646093Y-67668963D02*
X105299394Y-67668964D01*
X105299394Y-67668964D02*
X101562959Y-71405399D01*
X101562959Y-71405399D02*
X101562959Y-83435959D01*
X103438000Y-85311000D02*
X104438000Y-85311000D01*
M02*
