G04 #@! TF.GenerationSoftware,KiCad,Pcbnew,(5.1.5)-3*
G04 #@! TF.CreationDate,2020-04-03T10:44:21-05:00*
G04 #@! TF.ProjectId,45-1591-1_SB1,34352d31-3539-4312-9d31-5f5342312e6b,rev?*
G04 #@! TF.SameCoordinates,Original*
G04 #@! TF.FileFunction,Copper,L2,Bot*
G04 #@! TF.FilePolarity,Positive*
%FSLAX46Y46*%
G04 Gerber Fmt 4.6, Leading zero omitted, Abs format (unit mm)*
G04 Created by KiCad (PCBNEW (5.1.5)-3) date 2020-04-03 10:44:21*
%MOMM*%
%LPD*%
G04 APERTURE LIST*
%ADD10R,1.879600X1.879600*%
%ADD11C,1.879600*%
%ADD12R,1.500000X0.800000*%
%ADD13R,3.100000X2.200000*%
%ADD14C,0.250000*%
G04 APERTURE END LIST*
D10*
X82727800Y-39662100D03*
D11*
X85267800Y-39662100D03*
X82727800Y-42202100D03*
X85267800Y-42202100D03*
X82727800Y-44742100D03*
X85267800Y-44742100D03*
X82727800Y-47282100D03*
X85267800Y-47282100D03*
X82727800Y-49822100D03*
X85267800Y-49822100D03*
D12*
X93138400Y-39231400D03*
X93138400Y-40481400D03*
X93138400Y-41731400D03*
X93138400Y-42981400D03*
X93138400Y-44231400D03*
X93138400Y-45481400D03*
X93138400Y-46731400D03*
X93138400Y-47981400D03*
X93138400Y-49231400D03*
X93138400Y-50481400D03*
D13*
X95888400Y-36731400D03*
X95888400Y-52981400D03*
D14*
X82727800Y-39662100D02*
X83395894Y-39662100D01*
X92138400Y-39231400D02*
X93138400Y-39231400D01*
X83395894Y-39662100D02*
X84660695Y-40926901D01*
X84660695Y-40926901D02*
X90442899Y-40926901D01*
X90442899Y-40926901D02*
X92138400Y-39231400D01*
X85267800Y-39662100D02*
X85267800Y-38333023D01*
X97763401Y-35371399D02*
X97763401Y-38091401D01*
X85267800Y-38333023D02*
X88294424Y-35306399D01*
X88294424Y-35306399D02*
X97698401Y-35306399D01*
X97698401Y-35306399D02*
X97763401Y-35371399D01*
X94138400Y-40481400D02*
X93138400Y-40481400D01*
X97763401Y-38091401D02*
X95373402Y-40481400D01*
X95373402Y-40481400D02*
X94138400Y-40481400D01*
X82727800Y-42202100D02*
X83992601Y-43466901D01*
X83992601Y-43466901D02*
X90402899Y-43466901D01*
X90402899Y-43466901D02*
X92138400Y-41731400D01*
X92138400Y-41731400D02*
X93138400Y-41731400D01*
X85267800Y-42202100D02*
X83992601Y-40926901D01*
X94138400Y-42981400D02*
X93138400Y-42981400D01*
X83992601Y-40926901D02*
X81527999Y-40926901D01*
X81527999Y-40926901D02*
X81462999Y-40861901D01*
X81462999Y-40861901D02*
X81462999Y-38462299D01*
X81462999Y-38462299D02*
X85068908Y-34856390D01*
X98213411Y-35184999D02*
X98213411Y-38906389D01*
X85068908Y-34856390D02*
X97884802Y-34856390D01*
X97884802Y-34856390D02*
X98213411Y-35184999D01*
X98213411Y-38906389D02*
X94138400Y-42981400D01*
X82727800Y-44742100D02*
X84002999Y-46017299D01*
X84002999Y-46017299D02*
X90352501Y-46017299D01*
X90352501Y-46017299D02*
X92138400Y-44231400D01*
X92138400Y-44231400D02*
X93138400Y-44231400D01*
X85267800Y-44742100D02*
X84631390Y-44742100D01*
X84631390Y-44742100D02*
X83356191Y-43466901D01*
X83356191Y-43466901D02*
X81299891Y-43466901D01*
X98663421Y-34998599D02*
X98663421Y-40956379D01*
X81299891Y-43466901D02*
X81012990Y-43180000D01*
X81012990Y-43180000D02*
X81012990Y-38275898D01*
X94138400Y-45481400D02*
X93138400Y-45481400D01*
X81012990Y-38275898D02*
X84882508Y-34406380D01*
X84882508Y-34406380D02*
X98071203Y-34406381D01*
X98071203Y-34406381D02*
X98663421Y-34998599D01*
X98663421Y-40956379D02*
X94138400Y-45481400D01*
X82727800Y-47282100D02*
X83992601Y-48546901D01*
X83992601Y-48546901D02*
X90322899Y-48546901D01*
X90322899Y-48546901D02*
X92138400Y-46731400D01*
X92138400Y-46731400D02*
X93138400Y-46731400D01*
X80562981Y-44450000D02*
X80562981Y-38089497D01*
X85267800Y-47282100D02*
X84631390Y-47282100D01*
X84631390Y-47282100D02*
X83356191Y-46006901D01*
X83356191Y-46006901D02*
X82119882Y-46006901D01*
X82119882Y-46006901D02*
X80562981Y-44450000D01*
X99113431Y-43126569D02*
X94258600Y-47981400D01*
X94258600Y-47981400D02*
X93138400Y-47981400D01*
X80562981Y-38089497D02*
X84696109Y-33956371D01*
X84696109Y-33956371D02*
X98257604Y-33956372D01*
X98257604Y-33956372D02*
X99113431Y-34812199D01*
X99113431Y-34812199D02*
X99113431Y-43126569D01*
X82727800Y-49822100D02*
X83992601Y-51086901D01*
X83992601Y-51086901D02*
X90282899Y-51086901D01*
X90282899Y-51086901D02*
X92138400Y-49231400D01*
X92138400Y-49231400D02*
X93138400Y-49231400D01*
X82727800Y-49822100D02*
X82842100Y-49822100D01*
X80112972Y-46990000D02*
X80112972Y-37903096D01*
X85267800Y-49822100D02*
X84631390Y-49822100D01*
X84631390Y-49822100D02*
X83356191Y-48546901D01*
X83356191Y-48546901D02*
X81669873Y-48546901D01*
X81669873Y-48546901D02*
X80112972Y-46990000D01*
X98444005Y-33506363D02*
X99563441Y-34625799D01*
X99563441Y-34625799D02*
X99563441Y-45056359D01*
X94138400Y-50481400D02*
X93138400Y-50481400D01*
X80112972Y-37903096D02*
X84509710Y-33506362D01*
X84509710Y-33506362D02*
X98444005Y-33506363D01*
X99563441Y-45056359D02*
X94138400Y-50481400D01*
M02*
