G04 #@! TF.GenerationSoftware,KiCad,Pcbnew,(5.1.5)-3*
G04 #@! TF.CreationDate,2020-04-03T10:44:21-05:00*
G04 #@! TF.ProjectId,45-1591-1_SB1,34352d31-3539-4312-9d31-5f5342312e6b,rev?*
G04 #@! TF.SameCoordinates,Original*
G04 #@! TF.FileFunction,Legend,Top*
G04 #@! TF.FilePolarity,Positive*
%FSLAX46Y46*%
G04 Gerber Fmt 4.6, Leading zero omitted, Abs format (unit mm)*
G04 Created by KiCad (PCBNEW (5.1.5)-3) date 2020-04-03 10:44:21*
%MOMM*%
%LPD*%
G04 APERTURE LIST*
%ADD10C,0.584200*%
%ADD11C,0.152400*%
%ADD12C,0.203200*%
%ADD13C,0.127000*%
G04 APERTURE END LIST*
D10*
X82575400Y-58319004D02*
X80906257Y-58319004D01*
X81740828Y-58319004D02*
X81740828Y-55398004D01*
X81462638Y-55815290D01*
X81184447Y-56093480D01*
X80906257Y-56232576D01*
X83688161Y-55676195D02*
X83827257Y-55537100D01*
X84105447Y-55398004D01*
X84800923Y-55398004D01*
X85079114Y-55537100D01*
X85218209Y-55676195D01*
X85357304Y-55954385D01*
X85357304Y-56232576D01*
X85218209Y-56649861D01*
X83549066Y-58319004D01*
X85357304Y-58319004D01*
X88417400Y-55398004D02*
X89391066Y-58319004D01*
X90364733Y-55398004D01*
X91338400Y-58319004D02*
X91338400Y-55398004D01*
X92033876Y-55398004D01*
X92451161Y-55537100D01*
X92729352Y-55815290D01*
X92868447Y-56093480D01*
X93007542Y-56649861D01*
X93007542Y-57067147D01*
X92868447Y-57623528D01*
X92729352Y-57901719D01*
X92451161Y-58179909D01*
X92033876Y-58319004D01*
X91338400Y-58319004D01*
X95928542Y-58040814D02*
X95789447Y-58179909D01*
X95372161Y-58319004D01*
X95093971Y-58319004D01*
X94676685Y-58179909D01*
X94398495Y-57901719D01*
X94259400Y-57623528D01*
X94120304Y-57067147D01*
X94120304Y-56649861D01*
X94259400Y-56093480D01*
X94398495Y-55815290D01*
X94676685Y-55537100D01*
X95093971Y-55398004D01*
X95372161Y-55398004D01*
X95789447Y-55537100D01*
X95928542Y-55676195D01*
D11*
X82092800Y-38392100D02*
X81457800Y-39027100D01*
X81457800Y-40297100D02*
X82092800Y-40932100D01*
X82092800Y-40932100D02*
X81457800Y-41567100D01*
X81457800Y-42837100D02*
X82092800Y-43472100D01*
X82092800Y-43472100D02*
X81457800Y-44107100D01*
X81457800Y-45377100D02*
X82092800Y-46012100D01*
X82092800Y-46012100D02*
X81457800Y-46647100D01*
X81457800Y-47917100D02*
X82092800Y-48552100D01*
X82092800Y-38392100D02*
X85902800Y-38392100D01*
X85902800Y-38392100D02*
X86537800Y-39027100D01*
X86537800Y-39027100D02*
X86537800Y-40297100D01*
X86537800Y-40297100D02*
X85902800Y-40932100D01*
X85902800Y-40932100D02*
X86537800Y-41567100D01*
X86537800Y-41567100D02*
X86537800Y-42837100D01*
X86537800Y-42837100D02*
X85902800Y-43472100D01*
X85902800Y-43472100D02*
X86537800Y-44107100D01*
X86537800Y-44107100D02*
X86537800Y-45377100D01*
X86537800Y-45377100D02*
X85902800Y-46012100D01*
X85902800Y-46012100D02*
X86537800Y-46647100D01*
X86537800Y-46647100D02*
X86537800Y-47917100D01*
X86537800Y-47917100D02*
X85902800Y-48552100D01*
X85902800Y-40932100D02*
X82092800Y-40932100D01*
X85902800Y-43472100D02*
X82092800Y-43472100D01*
X85902800Y-46012100D02*
X82092800Y-46012100D01*
X85902800Y-48552100D02*
X82092800Y-48552100D01*
X81457800Y-46647100D02*
X81457800Y-47917100D01*
X81457800Y-44107100D02*
X81457800Y-45377100D01*
X81457800Y-41567100D02*
X81457800Y-42837100D01*
X81457800Y-39027100D02*
X81457800Y-40297100D01*
X82092800Y-48552100D02*
X81457800Y-49187100D01*
X81457800Y-50457100D02*
X82092800Y-51092100D01*
X85902800Y-48552100D02*
X86537800Y-49187100D01*
X86537800Y-49187100D02*
X86537800Y-50457100D01*
X86537800Y-50457100D02*
X85902800Y-51092100D01*
X85902800Y-51092100D02*
X82092800Y-51092100D01*
X81457800Y-49187100D02*
X81457800Y-50457100D01*
D12*
X81076800Y-39027100D02*
X81076800Y-40297100D01*
X81076800Y-39027100D02*
X81076800Y-40297100D01*
D10*
X83202133Y-33579404D02*
X83202133Y-35665833D01*
X83063038Y-36083119D01*
X82784847Y-36361309D01*
X82367561Y-36500404D01*
X82089371Y-36500404D01*
X84453990Y-33857595D02*
X84593085Y-33718500D01*
X84871276Y-33579404D01*
X85566752Y-33579404D01*
X85844942Y-33718500D01*
X85984038Y-33857595D01*
X86123133Y-34135785D01*
X86123133Y-34413976D01*
X85984038Y-34831261D01*
X84314895Y-36500404D01*
X86123133Y-36500404D01*
D13*
X80438171Y-50486128D02*
X80844571Y-50486128D01*
X80205942Y-50631271D02*
X80641371Y-50776414D01*
X80641371Y-50399042D01*
X80234971Y-49876528D02*
X80234971Y-50166814D01*
X80525257Y-50195842D01*
X80496228Y-50166814D01*
X80467200Y-50108757D01*
X80467200Y-49963614D01*
X80496228Y-49905557D01*
X80525257Y-49876528D01*
X80583314Y-49847500D01*
X80728457Y-49847500D01*
X80786514Y-49876528D01*
X80815542Y-49905557D01*
X80844571Y-49963614D01*
X80844571Y-50108757D01*
X80815542Y-50166814D01*
X80786514Y-50195842D01*
X80612342Y-49586242D02*
X80612342Y-49121785D01*
X80844571Y-48512185D02*
X80844571Y-48860528D01*
X80844571Y-48686357D02*
X80234971Y-48686357D01*
X80322057Y-48744414D01*
X80380114Y-48802471D01*
X80409142Y-48860528D01*
X80234971Y-47960642D02*
X80234971Y-48250928D01*
X80525257Y-48279957D01*
X80496228Y-48250928D01*
X80467200Y-48192871D01*
X80467200Y-48047728D01*
X80496228Y-47989671D01*
X80525257Y-47960642D01*
X80583314Y-47931614D01*
X80728457Y-47931614D01*
X80786514Y-47960642D01*
X80815542Y-47989671D01*
X80844571Y-48047728D01*
X80844571Y-48192871D01*
X80815542Y-48250928D01*
X80786514Y-48279957D01*
X80844571Y-47641328D02*
X80844571Y-47525214D01*
X80815542Y-47467157D01*
X80786514Y-47438128D01*
X80699428Y-47380071D01*
X80583314Y-47351042D01*
X80351085Y-47351042D01*
X80293028Y-47380071D01*
X80264000Y-47409100D01*
X80234971Y-47467157D01*
X80234971Y-47583271D01*
X80264000Y-47641328D01*
X80293028Y-47670357D01*
X80351085Y-47699385D01*
X80496228Y-47699385D01*
X80554285Y-47670357D01*
X80583314Y-47641328D01*
X80612342Y-47583271D01*
X80612342Y-47467157D01*
X80583314Y-47409100D01*
X80554285Y-47380071D01*
X80496228Y-47351042D01*
X80844571Y-46770471D02*
X80844571Y-47118814D01*
X80844571Y-46944642D02*
X80234971Y-46944642D01*
X80322057Y-47002700D01*
X80380114Y-47060757D01*
X80409142Y-47118814D01*
X80612342Y-46509214D02*
X80612342Y-46044757D01*
X80844571Y-45435157D02*
X80844571Y-45783500D01*
X80844571Y-45609328D02*
X80234971Y-45609328D01*
X80322057Y-45667385D01*
X80380114Y-45725442D01*
X80409142Y-45783500D01*
X80612342Y-45173900D02*
X80612342Y-44709442D01*
X80234971Y-44244985D02*
X80670400Y-44244985D01*
X80757485Y-44274014D01*
X80815542Y-44332071D01*
X80844571Y-44419157D01*
X80844571Y-44477214D01*
X80293028Y-43983728D02*
X80264000Y-43954700D01*
X80234971Y-43896642D01*
X80234971Y-43751500D01*
X80264000Y-43693442D01*
X80293028Y-43664414D01*
X80351085Y-43635385D01*
X80409142Y-43635385D01*
X80496228Y-43664414D01*
X80844571Y-44012757D01*
X80844571Y-43635385D01*
M02*
