G04 #@! TF.GenerationSoftware,KiCad,Pcbnew,(5.1.5)-3*
G04 #@! TF.CreationDate,2020-05-01T11:25:14-05:00*
G04 #@! TF.ProjectId,45-1591-1,34352d31-3539-4312-9d31-2e6b69636164,rev?*
G04 #@! TF.SameCoordinates,Original*
G04 #@! TF.FileFunction,Copper,L3,Inr*
G04 #@! TF.FilePolarity,Positive*
%FSLAX46Y46*%
G04 Gerber Fmt 4.6, Leading zero omitted, Abs format (unit mm)*
G04 Created by KiCad (PCBNEW (5.1.5)-3) date 2020-05-01 11:25:14*
%MOMM*%
%LPD*%
G04 APERTURE LIST*
%ADD10C,1.875000*%
%ADD11O,1.600000X1.600000*%
%ADD12R,1.600000X1.600000*%
%ADD13C,1.600000*%
%ADD14R,1.200000X1.200000*%
%ADD15C,1.200000*%
%ADD16O,1.800000X1.800000*%
%ADD17R,1.800000X1.800000*%
%ADD18C,1.879600*%
%ADD19C,0.800000*%
%ADD20C,0.250000*%
G04 APERTURE END LIST*
D10*
X119329000Y-117458400D03*
X109169000Y-117458400D03*
X99009000Y-117458400D03*
X116789000Y-73558400D03*
X109169000Y-73558400D03*
X104089000Y-73558400D03*
D11*
X93472000Y-117195600D03*
X78232000Y-117195600D03*
X93472000Y-81635600D03*
X78232000Y-114655600D03*
X93472000Y-84175600D03*
X78232000Y-112115600D03*
X93472000Y-86715600D03*
X78232000Y-109575600D03*
X93472000Y-89255600D03*
X78232000Y-107035600D03*
X93472000Y-91795600D03*
X78232000Y-104495600D03*
X93472000Y-94335600D03*
X78232000Y-101955600D03*
X93472000Y-96875600D03*
X78232000Y-99415600D03*
X93472000Y-99415600D03*
X78232000Y-96875600D03*
X93472000Y-101955600D03*
X78232000Y-94335600D03*
X93472000Y-104495600D03*
X78232000Y-91795600D03*
X93472000Y-107035600D03*
X78232000Y-89255600D03*
X93472000Y-109575600D03*
X78232000Y-86715600D03*
X93472000Y-112115600D03*
X78232000Y-84175600D03*
X93472000Y-114655600D03*
D12*
X78232000Y-81635600D03*
D11*
X106660000Y-62500000D03*
D13*
X96500000Y-62500000D03*
D11*
X121410000Y-66250000D03*
D13*
X111250000Y-66250000D03*
D11*
X106660000Y-66250000D03*
D13*
X96500000Y-66250000D03*
D11*
X121410000Y-62500000D03*
D13*
X111250000Y-62500000D03*
D11*
X150812000Y-100254000D03*
D13*
X150812000Y-110414000D03*
D14*
X141592000Y-99862000D03*
D15*
X146672000Y-99862000D03*
X141592000Y-104942000D03*
X146672000Y-110022000D03*
X141592000Y-107482000D03*
X141592000Y-110022000D03*
X146672000Y-104942000D03*
X146672000Y-107482000D03*
X132234000Y-113271000D03*
X129694000Y-113271000D03*
X134774000Y-118351000D03*
X132234000Y-118351000D03*
X134774000Y-113271000D03*
X129694000Y-118351000D03*
X124614000Y-113271000D03*
D14*
X124614000Y-118351000D03*
X124614000Y-99364800D03*
D15*
X124614000Y-94284800D03*
X129694000Y-99364800D03*
X134774000Y-94284800D03*
X132234000Y-99364800D03*
X134774000Y-99364800D03*
X129694000Y-94284800D03*
X132234000Y-94284800D03*
D14*
X125222000Y-75541200D03*
D15*
X130302000Y-75541200D03*
X125222000Y-80621200D03*
X130302000Y-85701200D03*
X125222000Y-83161200D03*
X125222000Y-85701200D03*
X130302000Y-80621200D03*
X130302000Y-83161200D03*
D14*
X124614000Y-108776000D03*
D15*
X124614000Y-103696000D03*
X129694000Y-108776000D03*
X134774000Y-103696000D03*
X132234000Y-108776000D03*
X134774000Y-108776000D03*
X129694000Y-103696000D03*
X132234000Y-103696000D03*
D14*
X124830000Y-67386200D03*
D15*
X124830000Y-62306200D03*
X129910000Y-67386200D03*
X134990000Y-62306200D03*
X132450000Y-67386200D03*
X134990000Y-67386200D03*
X129910000Y-62306200D03*
X132450000Y-62306200D03*
D16*
X75133200Y-118732000D03*
D17*
X67513200Y-118732000D03*
D16*
X137592000Y-71145400D03*
D17*
X137592000Y-78765400D03*
D16*
X133922000Y-71196200D03*
D17*
X133922000Y-78816200D03*
D16*
X137592000Y-82600600D03*
D17*
X137592000Y-90220600D03*
D16*
X133922000Y-82600600D03*
D17*
X133922000Y-90220600D03*
D18*
X74155300Y-109906000D03*
X74155300Y-112446000D03*
X73482200Y-79171800D03*
X73482200Y-76631800D03*
X73482200Y-74091800D03*
X73482200Y-71551800D03*
X80200500Y-75933300D03*
X80200500Y-73393300D03*
X82740500Y-75933300D03*
X82740500Y-73393300D03*
X85280500Y-75933300D03*
X85280500Y-73393300D03*
X87820500Y-75933300D03*
X87820500Y-73393300D03*
X90360500Y-75933300D03*
X90360500Y-73393300D03*
X140830000Y-76530200D03*
X140830000Y-73990200D03*
X140830000Y-71450200D03*
X140830000Y-68910200D03*
D19*
X64414700Y-93362200D03*
X64240600Y-82347500D03*
X149244700Y-82163300D03*
X95302500Y-90792200D03*
X70200200Y-97695800D03*
D20*
X78232000Y-101955600D02*
X79357300Y-101955600D01*
X141592000Y-99862000D02*
X140666700Y-99862000D01*
X140666700Y-99862000D02*
X139698400Y-100830300D01*
X139698400Y-100830300D02*
X80482600Y-100830300D01*
X80482600Y-100830300D02*
X79357300Y-101955600D01*
X90360500Y-75933300D02*
X89086400Y-77207400D01*
X89086400Y-77207400D02*
X81474600Y-77207400D01*
X81474600Y-77207400D02*
X80200500Y-75933300D01*
X73482200Y-79171800D02*
X76962000Y-79171800D01*
X76962000Y-79171800D02*
X80200500Y-75933300D01*
X137592000Y-90220600D02*
X137592000Y-91445900D01*
X137592000Y-91445900D02*
X138255900Y-91445900D01*
X138255900Y-91445900D02*
X146672000Y-99862000D01*
X132696700Y-78816200D02*
X132696700Y-77935900D01*
X132696700Y-77935900D02*
X130302000Y-75541200D01*
X133922000Y-90220600D02*
X128678200Y-90220600D01*
X128678200Y-90220600D02*
X124614000Y-94284800D01*
X133922000Y-78816200D02*
X132696700Y-78816200D01*
X136366700Y-78765400D02*
X136315900Y-78816200D01*
X136315900Y-78816200D02*
X133922000Y-78816200D01*
X137592000Y-78765400D02*
X136366700Y-78765400D01*
X137592000Y-82600600D02*
X136366700Y-82600600D01*
X136366700Y-82600600D02*
X135141400Y-81375300D01*
X135141400Y-81375300D02*
X133925800Y-81375300D01*
X133925800Y-81375300D02*
X128091700Y-75541200D01*
X128091700Y-75541200D02*
X125222000Y-75541200D01*
X93472000Y-117195600D02*
X92346700Y-117195600D01*
X75133200Y-118732000D02*
X90810300Y-118732000D01*
X90810300Y-118732000D02*
X92346700Y-117195600D01*
X134774000Y-113271000D02*
X132942100Y-111439100D01*
X132942100Y-111439100D02*
X98413000Y-111439100D01*
X98413000Y-111439100D02*
X95279500Y-108305600D01*
X95279500Y-108305600D02*
X84993500Y-108305600D01*
X84993500Y-108305600D02*
X79839600Y-103151700D01*
X79839600Y-103151700D02*
X74204200Y-103151700D01*
X74204200Y-103151700D02*
X64414700Y-93362200D01*
X134990000Y-67386200D02*
X134050600Y-68325600D01*
X134050600Y-68325600D02*
X106935400Y-68325600D01*
X106935400Y-68325600D02*
X103724600Y-65114800D01*
X103724600Y-65114800D02*
X78103200Y-65114800D01*
X78103200Y-65114800D02*
X64240600Y-78977400D01*
X64240600Y-78977400D02*
X64240600Y-82347500D01*
X132234000Y-108776000D02*
X133164600Y-109706600D01*
X133164600Y-109706600D02*
X140357600Y-109706600D01*
X140357600Y-109706600D02*
X141014200Y-109050000D01*
X141014200Y-109050000D02*
X145700000Y-109050000D01*
X145700000Y-109050000D02*
X146672000Y-110022000D01*
X130302000Y-83161200D02*
X126835700Y-79694900D01*
X126835700Y-79694900D02*
X123286500Y-79694900D01*
X123286500Y-79694900D02*
X107375800Y-95605600D01*
X107375800Y-95605600D02*
X72290400Y-95605600D01*
X72290400Y-95605600D02*
X70200200Y-97695800D01*
X73482200Y-74091800D02*
X74053700Y-74663300D01*
X74053700Y-74663300D02*
X102984100Y-74663300D01*
X102984100Y-74663300D02*
X104089000Y-73558400D01*
X150812000Y-110414000D02*
X150812000Y-105721600D01*
X150812000Y-105721600D02*
X135699400Y-90609000D01*
X135699400Y-90609000D02*
X135699400Y-87199300D01*
X135699400Y-87199300D02*
X130391300Y-81891200D01*
X130391300Y-81891200D02*
X129740800Y-81891200D01*
X129740800Y-81891200D02*
X127079600Y-79230000D01*
X127079600Y-79230000D02*
X121525800Y-79230000D01*
X121525800Y-79230000D02*
X110688900Y-90066900D01*
X110688900Y-90066900D02*
X95002100Y-90066900D01*
X95002100Y-90066900D02*
X94639400Y-90429600D01*
X94639400Y-90429600D02*
X90916200Y-90429600D01*
X90916200Y-90429600D02*
X83247600Y-82761000D01*
X83247600Y-82761000D02*
X75229900Y-82761000D01*
X75229900Y-82761000D02*
X72174700Y-79705800D01*
X72174700Y-79705800D02*
X72174700Y-77939300D01*
X72174700Y-77939300D02*
X73482200Y-76631800D01*
X93472000Y-89255600D02*
X94597300Y-89255600D01*
X140830000Y-73990200D02*
X120166600Y-73990200D01*
X120166600Y-73990200D02*
X105056800Y-89100000D01*
X105056800Y-89100000D02*
X94752900Y-89100000D01*
X94752900Y-89100000D02*
X94597300Y-89255600D01*
X96500000Y-66250000D02*
X99160200Y-68910200D01*
X99160200Y-68910200D02*
X140830000Y-68910200D01*
X78232000Y-109575600D02*
X78232000Y-108450300D01*
X129910000Y-62306200D02*
X127847800Y-64368400D01*
X127847800Y-64368400D02*
X78212700Y-64368400D01*
X78212700Y-64368400D02*
X63490400Y-79090700D01*
X63490400Y-79090700D02*
X63490400Y-93990000D01*
X63490400Y-93990000D02*
X77950700Y-108450300D01*
X77950700Y-108450300D02*
X78232000Y-108450300D01*
X93472000Y-104495600D02*
X94597300Y-104495600D01*
X129694000Y-103696000D02*
X128736400Y-104653600D01*
X128736400Y-104653600D02*
X94755300Y-104653600D01*
X94755300Y-104653600D02*
X94597300Y-104495600D01*
X93472000Y-101955600D02*
X93472000Y-103080900D01*
X129694000Y-108776000D02*
X126683600Y-105765600D01*
X126683600Y-105765600D02*
X93150200Y-105765600D01*
X93150200Y-105765600D02*
X92346700Y-104962100D01*
X92346700Y-104962100D02*
X92346700Y-103924800D01*
X92346700Y-103924800D02*
X93190600Y-103080900D01*
X93190600Y-103080900D02*
X93472000Y-103080900D01*
X130302000Y-85701200D02*
X125222000Y-85701200D01*
X125222000Y-80621200D02*
X106427600Y-99415600D01*
X106427600Y-99415600D02*
X93472000Y-99415600D01*
X105534700Y-62500000D02*
X104275600Y-63759100D01*
X104275600Y-63759100D02*
X78185100Y-63759100D01*
X78185100Y-63759100D02*
X63040100Y-78904100D01*
X63040100Y-78904100D02*
X63040100Y-96018500D01*
X63040100Y-96018500D02*
X77722500Y-110700900D01*
X77722500Y-110700900D02*
X91221400Y-110700900D01*
X91221400Y-110700900D02*
X92346700Y-109575600D01*
X93472000Y-109575600D02*
X92346700Y-109575600D01*
X106660000Y-62500000D02*
X105534700Y-62500000D01*
X111250000Y-62500000D02*
X106660000Y-62500000D01*
M02*
