M48
; DRILL file {KiCad (5.1.5)-3} date 5/1/2020 11:25:19 AM
; FORMAT={-:-/ absolute / inch / decimal}
; #@! TF.CreationDate,2020-05-01T11:25:19-05:00
; #@! TF.GenerationSoftware,Kicad,Pcbnew,(5.1.5)-3
; #@! TF.FileFunction,Plated,1,4,PTH
FMAT,2
INCH
T1C0.0157
T2C0.0315
T3C0.0354
T4C0.0400
T5C0.0492
%
G90
G05
T1
X2.5292Y-3.242
X2.536Y-3.6757
X2.7638Y-3.8463
X3.7521Y-3.5745
X5.8758Y-3.2348
T2
X5.5745Y-3.9316
X5.5745Y-4.1316
X5.5745Y-4.2316
X5.5745Y-4.3316
X5.7745Y-3.9316
X5.7745Y-4.1316
X5.7745Y-4.2316
X5.7745Y-4.3316
X4.9061Y-3.712
X4.9061Y-3.912
X5.1061Y-3.712
X5.1061Y-3.912
X5.2061Y-3.712
X5.2061Y-3.912
X5.3061Y-3.712
X5.3061Y-3.912
X5.9375Y-3.947
X5.9375Y-4.347
X4.93Y-2.9741
X4.93Y-3.1741
X4.93Y-3.2741
X4.93Y-3.3741
X5.13Y-2.9741
X5.13Y-3.1741
X5.13Y-3.2741
X5.13Y-3.3741
X3.08Y-3.214
X3.08Y-3.314
X3.08Y-3.414
X3.08Y-3.514
X3.08Y-3.614
X3.08Y-3.714
X3.08Y-3.814
X3.08Y-3.914
X3.08Y-4.014
X3.08Y-4.114
X3.08Y-4.214
X3.08Y-4.314
X3.08Y-4.414
X3.08Y-4.514
X3.08Y-4.614
X3.68Y-3.214
X3.68Y-3.314
X3.68Y-3.414
X3.68Y-3.514
X3.68Y-3.614
X3.68Y-3.714
X3.68Y-3.814
X3.68Y-3.914
X3.68Y-4.014
X3.68Y-4.114
X3.68Y-4.214
X3.68Y-4.314
X3.68Y-4.414
X3.68Y-4.514
X3.68Y-4.614
X4.9061Y-4.4595
X4.9061Y-4.6595
X5.1061Y-4.4595
X5.1061Y-4.6595
X5.2061Y-4.4595
X5.2061Y-4.6595
X5.3061Y-4.4595
X5.3061Y-4.6595
X3.7992Y-2.6083
X4.1992Y-2.6083
X4.3799Y-2.6083
X4.7799Y-2.6083
X4.9146Y-2.453
X4.9146Y-2.653
X5.1146Y-2.453
X5.1146Y-2.653
X5.2146Y-2.453
X5.2146Y-2.653
X5.3146Y-2.453
X5.3146Y-2.653
X4.9061Y-4.0825
X4.9061Y-4.2825
X5.1061Y-4.0825
X5.1061Y-4.2825
X5.2061Y-4.0825
X5.2061Y-4.2825
X5.3061Y-4.0825
X5.3061Y-4.2825
X4.3799Y-2.4606
X4.7799Y-2.4606
X3.7992Y-2.4606
X4.1992Y-2.4606
T3
X5.417Y-3.252
X5.417Y-3.552
X2.658Y-4.6745
X2.958Y-4.6745
X5.417Y-2.801
X5.417Y-3.101
X5.2725Y-3.252
X5.2725Y-3.552
X5.2725Y-2.803
X5.2725Y-3.103
T4
X3.1575Y-2.8895
X3.1575Y-2.9895
X3.2575Y-2.8895
X3.2575Y-2.9895
X3.3575Y-2.8895
X3.3575Y-2.9895
X3.4575Y-2.8895
X3.4575Y-2.9895
X3.5575Y-2.8895
X3.5575Y-2.9895
X5.5445Y-2.713
X5.5445Y-2.813
X5.5445Y-2.913
X5.5445Y-3.013
X2.893Y-2.817
X2.893Y-2.917
X2.893Y-3.017
X2.893Y-3.117
X2.9195Y-4.327
X2.9195Y-4.427
T5
X3.898Y-4.6243
X4.098Y-2.896
X4.298Y-2.896
X4.298Y-4.6243
X4.598Y-2.896
X4.698Y-4.6243
T0
M30
