G04 #@! TF.GenerationSoftware,KiCad,Pcbnew,(5.1.5)-3*
G04 #@! TF.CreationDate,2020-05-01T11:25:14-05:00*
G04 #@! TF.ProjectId,45-1591-1,34352d31-3539-4312-9d31-2e6b69636164,rev?*
G04 #@! TF.SameCoordinates,Original*
G04 #@! TF.FileFunction,Copper,L1,Top*
G04 #@! TF.FilePolarity,Positive*
%FSLAX46Y46*%
G04 Gerber Fmt 4.6, Leading zero omitted, Abs format (unit mm)*
G04 Created by KiCad (PCBNEW (5.1.5)-3) date 2020-05-01 11:25:14*
%MOMM*%
%LPD*%
G04 APERTURE LIST*
%ADD10C,1.875000*%
%ADD11O,1.600000X1.600000*%
%ADD12R,1.600000X1.600000*%
%ADD13C,1.600000*%
%ADD14R,1.200000X1.200000*%
%ADD15C,1.200000*%
%ADD16R,3.100000X2.200000*%
%ADD17R,1.500000X0.800000*%
%ADD18O,1.800000X1.800000*%
%ADD19R,1.800000X1.800000*%
%ADD20R,5.600000X2.300000*%
%ADD21C,1.879600*%
%ADD22C,0.800000*%
%ADD23C,0.250000*%
G04 APERTURE END LIST*
D10*
X119329000Y-117458400D03*
X109169000Y-117458400D03*
X99009000Y-117458400D03*
X116789000Y-73558400D03*
X109169000Y-73558400D03*
X104089000Y-73558400D03*
D11*
X93472000Y-117195600D03*
X78232000Y-117195600D03*
X93472000Y-81635600D03*
X78232000Y-114655600D03*
X93472000Y-84175600D03*
X78232000Y-112115600D03*
X93472000Y-86715600D03*
X78232000Y-109575600D03*
X93472000Y-89255600D03*
X78232000Y-107035600D03*
X93472000Y-91795600D03*
X78232000Y-104495600D03*
X93472000Y-94335600D03*
X78232000Y-101955600D03*
X93472000Y-96875600D03*
X78232000Y-99415600D03*
X93472000Y-99415600D03*
X78232000Y-96875600D03*
X93472000Y-101955600D03*
X78232000Y-94335600D03*
X93472000Y-104495600D03*
X78232000Y-91795600D03*
X93472000Y-107035600D03*
X78232000Y-89255600D03*
X93472000Y-109575600D03*
X78232000Y-86715600D03*
X93472000Y-112115600D03*
X78232000Y-84175600D03*
X93472000Y-114655600D03*
D12*
X78232000Y-81635600D03*
D11*
X106660000Y-62500000D03*
D13*
X96500000Y-62500000D03*
D11*
X121410000Y-66250000D03*
D13*
X111250000Y-66250000D03*
D11*
X106660000Y-66250000D03*
D13*
X96500000Y-66250000D03*
D11*
X121410000Y-62500000D03*
D13*
X111250000Y-62500000D03*
D11*
X150812000Y-100254000D03*
D13*
X150812000Y-110414000D03*
D14*
X141592000Y-99862000D03*
D15*
X146672000Y-99862000D03*
X141592000Y-104942000D03*
X146672000Y-110022000D03*
X141592000Y-107482000D03*
X141592000Y-110022000D03*
X146672000Y-104942000D03*
X146672000Y-107482000D03*
X132234000Y-113271000D03*
X129694000Y-113271000D03*
X134774000Y-118351000D03*
X132234000Y-118351000D03*
X134774000Y-113271000D03*
X129694000Y-118351000D03*
X124614000Y-113271000D03*
D14*
X124614000Y-118351000D03*
X124614000Y-99364800D03*
D15*
X124614000Y-94284800D03*
X129694000Y-99364800D03*
X134774000Y-94284800D03*
X132234000Y-99364800D03*
X134774000Y-99364800D03*
X129694000Y-94284800D03*
X132234000Y-94284800D03*
D14*
X125222000Y-75541200D03*
D15*
X130302000Y-75541200D03*
X125222000Y-80621200D03*
X130302000Y-85701200D03*
X125222000Y-83161200D03*
X125222000Y-85701200D03*
X130302000Y-80621200D03*
X130302000Y-83161200D03*
D14*
X124614000Y-108776000D03*
D15*
X124614000Y-103696000D03*
X129694000Y-108776000D03*
X134774000Y-103696000D03*
X132234000Y-108776000D03*
X134774000Y-108776000D03*
X129694000Y-103696000D03*
X132234000Y-103696000D03*
D14*
X124830000Y-67386200D03*
D15*
X124830000Y-62306200D03*
X129910000Y-67386200D03*
X134990000Y-62306200D03*
X132450000Y-67386200D03*
X134990000Y-67386200D03*
X129910000Y-62306200D03*
X132450000Y-62306200D03*
D16*
X71593300Y-85728000D03*
X71593300Y-101978000D03*
D17*
X68843300Y-88228000D03*
X68843300Y-89478000D03*
X68843300Y-90728000D03*
X68843300Y-91978000D03*
X68843300Y-93228000D03*
X68843300Y-94478000D03*
X68843300Y-95728000D03*
X68843300Y-96978000D03*
X68843300Y-98228000D03*
X68843300Y-99478000D03*
D16*
X145894000Y-96923400D03*
X145894000Y-80673400D03*
D17*
X148644000Y-94423400D03*
X148644000Y-93173400D03*
X148644000Y-91923400D03*
X148644000Y-90673400D03*
X148644000Y-89423400D03*
X148644000Y-88173400D03*
X148644000Y-86923400D03*
X148644000Y-85673400D03*
X148644000Y-84423400D03*
X148644000Y-83173400D03*
D18*
X75133200Y-118732000D03*
D19*
X67513200Y-118732000D03*
D18*
X137592000Y-71145400D03*
D19*
X137592000Y-78765400D03*
D18*
X133922000Y-71196200D03*
D19*
X133922000Y-78816200D03*
D18*
X137592000Y-82600600D03*
D19*
X137592000Y-90220600D03*
D18*
X133922000Y-82600600D03*
D19*
X133922000Y-90220600D03*
D20*
X62522100Y-102823500D03*
X62522100Y-95423500D03*
X62471300Y-84209400D03*
X62471300Y-91609400D03*
D21*
X74155300Y-109906000D03*
X74155300Y-112446000D03*
X73482200Y-79171800D03*
X73482200Y-76631800D03*
X73482200Y-74091800D03*
X73482200Y-71551800D03*
X80200500Y-75933300D03*
X80200500Y-73393300D03*
X82740500Y-75933300D03*
X82740500Y-73393300D03*
X85280500Y-75933300D03*
X85280500Y-73393300D03*
X87820500Y-75933300D03*
X87820500Y-73393300D03*
X90360500Y-75933300D03*
X90360500Y-73393300D03*
X140830000Y-76530200D03*
X140830000Y-73990200D03*
X140830000Y-71450200D03*
X140830000Y-68910200D03*
D22*
X64414700Y-93362200D03*
X64240600Y-82347500D03*
X149244700Y-82163300D03*
X95302500Y-90792200D03*
X70200200Y-97695800D03*
D23*
X109169000Y-117458400D02*
X113356400Y-113271000D01*
X113356400Y-113271000D02*
X124614000Y-113271000D01*
X124614000Y-108776000D02*
X123688700Y-108776000D01*
X93472000Y-117195600D02*
X94597300Y-117195600D01*
X94597300Y-117195600D02*
X99447300Y-112345600D01*
X99447300Y-112345600D02*
X120119100Y-112345600D01*
X120119100Y-112345600D02*
X123688700Y-108776000D01*
X74155300Y-109906000D02*
X67072800Y-102823500D01*
X67072800Y-102823500D02*
X62522100Y-102823500D01*
X65647400Y-95423500D02*
X65647400Y-79386600D01*
X65647400Y-79386600D02*
X73482200Y-71551800D01*
X62522100Y-95423500D02*
X65647400Y-95423500D01*
X62471300Y-91609400D02*
X62471300Y-93084700D01*
X62471300Y-93084700D02*
X64137200Y-93084700D01*
X64137200Y-93084700D02*
X64414700Y-93362200D01*
X62471300Y-84209400D02*
X62471300Y-82734100D01*
X62471300Y-82734100D02*
X63854000Y-82734100D01*
X63854000Y-82734100D02*
X64240600Y-82347500D01*
X149181700Y-90673400D02*
X149606700Y-91098400D01*
X149606700Y-91098400D02*
X149606700Y-91923400D01*
X149606700Y-91923400D02*
X149719300Y-92036000D01*
X149719300Y-92036000D02*
X149719300Y-99505100D01*
X149719300Y-99505100D02*
X148286600Y-100937800D01*
X148286600Y-100937800D02*
X148286600Y-108407400D01*
X148286600Y-108407400D02*
X146672000Y-110022000D01*
X148644000Y-91923400D02*
X149606700Y-91923400D01*
X149181700Y-90673400D02*
X149719300Y-90673400D01*
X148644000Y-90673400D02*
X149181700Y-90673400D01*
X148644000Y-86923400D02*
X149719300Y-86923400D01*
X148644000Y-85673400D02*
X149719300Y-85673400D01*
X149719300Y-86923400D02*
X149719300Y-90673400D01*
X149719300Y-85673400D02*
X149719300Y-86923400D01*
X149719300Y-84423400D02*
X149719300Y-82637900D01*
X149719300Y-82637900D02*
X149244700Y-82163300D01*
X148644000Y-84423400D02*
X149719300Y-84423400D01*
X148644000Y-89423400D02*
X147568700Y-89423400D01*
X132450000Y-67386200D02*
X132450000Y-71519000D01*
X132450000Y-71519000D02*
X138471100Y-77540100D01*
X138471100Y-77540100D02*
X138626800Y-77540100D01*
X138626800Y-77540100D02*
X145043100Y-83956400D01*
X145043100Y-83956400D02*
X145043100Y-86897800D01*
X145043100Y-86897800D02*
X147568700Y-89423400D01*
X147568700Y-83173400D02*
X145283500Y-83173400D01*
X145283500Y-83173400D02*
X135147400Y-73037300D01*
X135147400Y-73037300D02*
X135147400Y-70018900D01*
X135147400Y-70018900D02*
X133720100Y-68591600D01*
X133720100Y-68591600D02*
X133720100Y-63576300D01*
X133720100Y-63576300D02*
X132450000Y-62306200D01*
X147681300Y-83173400D02*
X147568700Y-83173400D01*
X148644000Y-83173400D02*
X147681300Y-83173400D01*
X148644000Y-88173400D02*
X147568700Y-88173400D01*
X147568700Y-83173400D02*
X147568700Y-88173400D01*
X68843300Y-90728000D02*
X67768000Y-90728000D01*
X68843300Y-91978000D02*
X67768000Y-91978000D01*
X67768000Y-91978000D02*
X67768000Y-90728000D01*
X68843300Y-90728000D02*
X69918600Y-90728000D01*
X69918600Y-90670200D02*
X69918600Y-89478000D01*
X95302500Y-90792200D02*
X95180500Y-90670200D01*
X95180500Y-90670200D02*
X69918600Y-90670200D01*
X69918600Y-90728000D02*
X69918600Y-90670200D01*
X68843300Y-88228000D02*
X69918600Y-88228000D01*
X69381000Y-89478000D02*
X69918600Y-88940400D01*
X69918600Y-88940400D02*
X69918600Y-88228000D01*
X69381000Y-89478000D02*
X69918600Y-89478000D01*
X68843300Y-89478000D02*
X69381000Y-89478000D01*
X132234000Y-99364800D02*
X139977400Y-107108200D01*
X139977400Y-107108200D02*
X139977400Y-108407400D01*
X139977400Y-108407400D02*
X141592000Y-110022000D01*
X69918600Y-98228000D02*
X69918600Y-97977400D01*
X69918600Y-97977400D02*
X70200200Y-97695800D01*
X68843300Y-98228000D02*
X69918600Y-98228000D01*
X68843300Y-99478000D02*
X69918600Y-99478000D01*
X69918600Y-99478000D02*
X73864900Y-95531700D01*
X73864900Y-95531700D02*
X112851500Y-95531700D01*
X112851500Y-95531700D02*
X125222000Y-83161200D01*
X93472000Y-94335600D02*
X94597300Y-94335600D01*
X130302000Y-80621200D02*
X129032000Y-81891200D01*
X129032000Y-81891200D02*
X107041700Y-81891200D01*
X107041700Y-81891200D02*
X94597300Y-94335600D01*
M02*
