M48
;DRILL file {KiCad 4.0.6} date 03/09/20 07:32:36
;FORMAT={-:-/ absolute / inch / decimal}
FMAT,2
INCH,TZ
T1C0.016
T2C0.031
T3C0.035
T4C0.039
T5C0.040
T6C0.051
T7C0.055
%
G90
G05
M72
T1
X4.6719Y-6.1753
X4.6987Y-8.0605
X4.8924Y-10.1813
X4.9186Y-8.6615
X4.9186Y-10.3141
X5.0469Y-8.8971
X5.1141Y-5.8219
X5.1391Y-5.9328
X5.1458Y-5.1149
X5.1502Y-5.7874
X5.1903Y-5.6789
X5.199Y-9.9615
X5.2742Y-5.8263
X5.3026Y-4.5258
X5.372Y-10.5933
X5.4285Y-5.8529
X5.452Y-5.6185
X5.5585Y-11.243
X5.6082Y-11.2819
X5.6833Y-10.2423
X5.6878Y-10.9218
X5.7376Y-10.7831
X5.7788Y-10.7314
X5.852Y-4.2902
X5.8595Y-3.8189
X5.8631Y-5.7144
X5.8642Y-5.8115
X5.9451Y-6.0888
X5.9475Y-4.1785
X5.9773Y-10.7427
X5.9848Y-6.2597
X5.9928Y-5.7655
X5.9928Y-5.9528
X6.0232Y-5.8115
X6.1063Y-9.2361
X6.2035Y-11.7125
X6.353Y-11.954
X6.439Y-7.9405
X6.469Y-11.4689
X6.6838Y-4.3745
X6.686Y-11.3915
X6.6935Y-11.3205
X6.7416Y-9.7226
X6.7672Y-11.9142
X6.7939Y-11.5108
X6.8803Y-11.6528
X6.898Y-11.22
X6.9309Y-7.7316
X7.0497Y-7.8804
X7.0955Y-7.7921
X7.0967Y-5.8944
X7.1549Y-6.305
X7.2227Y-4.4399
X7.2291Y-3.9725
X7.2344Y-5.8956
X7.2561Y-4.2817
X7.2589Y-5.9528
X7.2732Y-5.8675
X7.2964Y-7.84
X7.2983Y-3.9625
X7.3191Y-8.0148
X7.3597Y-11.1776
X7.3827Y-8.0865
X7.4105Y-6.305
X7.4206Y-5.6185
X7.4901Y-4.3745
X7.4948Y-10.9162
X7.531Y-4.4399
X7.5475Y-4.3408
X7.6331Y-5.6721
X7.7115Y-11.3916
X7.7262Y-8.5435
X7.7331Y-6.2932
X7.9008Y-8.4925
X7.9331Y-4.3027
X7.9331Y-6.1793
X7.9888Y-5.8209
X8.0368Y-5.8103
X8.1763Y-5.704
X8.1994Y-10.5195
X8.2121Y-10.1548
X8.2133Y-10.8869
X8.6872Y-9.7173
X8.7605Y-5.6612
X8.7878Y-8.8011
X9.0715Y-9.507
X9.0734Y-9.3759
X9.135Y-9.313
X9.1832Y-9.2652
X9.2059Y-9.74
X9.2148Y-9.7884
X9.2928Y-8.9848
X9.3125Y-9.3448
X9.3304Y-9.2717
X9.4325Y-9.4522
X9.9223Y-9.604
X10.2557Y-12.0025
X10.305Y-8.4563
X10.3608Y-8.4636
X10.716Y-9.6949
X10.8053Y-9.3566
X11.103Y-7.8804
X11.4807Y-8.0531
X11.5767Y-8.0125
X11.622Y-7.6694
X11.6296Y-8.577
X11.6362Y-6.4176
X11.9829Y-7.4714
X12.3585Y-9.079
X12.4598Y-7.5892
X12.4938Y-6.8437
X12.7065Y-3.8691
X13.1078Y-7.2315
X13.177Y-7.8876
X13.1909Y-5.6202
X13.2335Y-4.804
X13.2495Y-5.663
X13.2791Y-4.6849
X15.159Y-4.8015
X15.179Y-4.313
X15.2792Y-4.3612
X15.3325Y-4.8235
X15.3899Y-4.1701
X15.4647Y-4.7699
X15.5425Y-11.5042
X15.5474Y-11.0888
X15.5743Y-4.6396
X15.694Y-10.746
X15.7258Y-4.9971
X16.1039Y-7.5896
X16.2007Y-10.674
X16.2542Y-5.0293
X16.5005Y-5.6942
X16.504Y-4.4742
X16.5966Y-4.5086
X16.8224Y-10.1698
X17.0307Y-4.0079
X17.7529Y-3.7664
X17.7858Y-3.8843
X17.8396Y-3.7254
X17.8992Y-3.7511
X17.9215Y-5.2995
X17.9596Y-3.4993
X17.9884Y-3.6801
X18.0027Y-4.0488
X18.0357Y-11.1669
X18.0697Y-3.7264
X18.105Y-3.68
X18.1375Y-3.9665
X18.1987Y-3.6799
X18.2522Y-3.9339
X18.2777Y-3.4994
X18.332Y-3.9256
T2
X12.774Y-3.5547
X12.774Y-3.6547
X12.774Y-3.7547
X12.774Y-3.9547
X12.974Y-3.5547
X12.974Y-3.6547
X12.974Y-3.7547
X12.974Y-3.9547
X13.4039Y-3.5547
X13.4039Y-3.6547
X13.4039Y-3.7547
X13.4039Y-3.9547
X13.6039Y-3.5547
X13.6039Y-3.6547
X13.6039Y-3.7547
X13.6039Y-3.9547
X14.0339Y-3.5547
X14.0339Y-3.6547
X14.0339Y-3.7547
X14.0339Y-3.9547
X14.2339Y-3.5547
X14.2339Y-3.6547
X14.2339Y-3.7547
X14.2339Y-3.9547
X14.6638Y-3.5547
X14.6638Y-3.6547
X14.6638Y-3.7547
X14.6638Y-3.9547
X14.8638Y-3.5547
X14.8638Y-3.6547
X14.8638Y-3.7547
X14.8638Y-3.9547
X15.2937Y-3.5547
X15.2937Y-3.6547
X15.2937Y-3.7547
X15.2937Y-3.9547
X15.4937Y-3.5547
X15.4937Y-3.6547
X15.4937Y-3.7547
X15.4937Y-3.9547
X15.5527Y-10.6691
X15.5527Y-11.2691
X15.8283Y-10.6691
X15.8283Y-11.2691
X16.1039Y-10.6691
X16.1039Y-11.2691
X16.3795Y-10.6691
X16.3795Y-11.2691
X16.632Y-5.646
X16.6551Y-10.6691
X16.6551Y-11.2691
X16.732Y-5.646
X16.9307Y-10.6691
X16.9307Y-11.2691
X17.2063Y-10.6691
X17.2063Y-11.2691
X17.2441Y-4.932
X17.2441Y-5.579
X17.3425Y-4.932
X17.3425Y-5.579
T3
X12.061Y-9.176
X12.161Y-9.176
X12.189Y-8.934
X12.289Y-8.934
X12.317Y-9.173
X12.417Y-9.173
X15.8049Y-11.5682
X15.8049Y-11.9682
X16.1198Y-11.5682
X16.1198Y-11.9682
X16.4348Y-11.5682
X16.4348Y-11.9682
X16.744Y-9.126
X16.7498Y-11.5682
X16.7498Y-11.9682
X16.844Y-9.126
X17.0647Y-11.5682
X17.0647Y-11.9682
X18.068Y-10.683
X18.068Y-11.283
X18.168Y-10.683
X18.168Y-11.283
X18.268Y-10.683
X18.268Y-11.283
X18.368Y-10.683
X18.368Y-11.283
X18.468Y-10.683
X18.468Y-11.283
X18.568Y-10.683
X18.568Y-11.283
X18.668Y-10.683
X18.668Y-11.283
X18.768Y-10.683
X18.768Y-11.283
X18.868Y-10.683
X18.868Y-11.283
X18.968Y-10.683
X18.968Y-11.283
X19.068Y-10.683
X19.068Y-11.283
X19.168Y-10.683
X19.168Y-11.283
X19.268Y-10.683
X19.268Y-11.283
X19.368Y-10.683
X19.368Y-11.283
X19.468Y-10.683
X19.468Y-11.283
T4
X16.3213Y-6.336
X16.3882Y-6.336
X16.4552Y-6.336
X16.5221Y-6.336
X16.589Y-6.336
X17.3622Y-11.6142
X17.4622Y-11.6142
X17.6772Y-11.6142
X17.7772Y-11.6142
X18.0315Y-11.6142
X18.1315Y-11.6142
X18.3465Y-11.6142
X18.4465Y-11.6142
T5
X5.159Y-7.64
X5.159Y-7.74
X5.159Y-7.84
X5.159Y-7.94
X5.159Y-8.04
X5.159Y-8.14
X5.159Y-8.24
X5.159Y-8.34
X5.159Y-8.44
X5.159Y-8.54
X5.159Y-8.64
X5.159Y-8.74
X5.159Y-8.84
X5.159Y-8.94
X5.159Y-9.04
X5.159Y-9.14
X5.159Y-9.24
X5.159Y-9.34
X5.252Y-4.0315
X5.252Y-4.1315
X5.252Y-5.9528
X5.252Y-6.0528
X5.259Y-7.64
X5.259Y-7.74
X5.259Y-7.84
X5.259Y-7.94
X5.259Y-8.04
X5.259Y-8.14
X5.259Y-8.24
X5.259Y-8.34
X5.259Y-8.44
X5.259Y-8.54
X5.259Y-8.64
X5.259Y-8.74
X5.259Y-8.84
X5.259Y-8.94
X5.259Y-9.04
X5.259Y-9.14
X5.259Y-9.24
X5.259Y-9.34
X5.2701Y-11.0024
X5.2701Y-11.1024
X5.352Y-4.0315
X5.352Y-4.1315
X5.352Y-5.9528
X5.352Y-6.0528
X5.359Y-9.54
X5.3701Y-11.0024
X5.3701Y-11.1024
X5.452Y-4.0315
X5.452Y-4.1315
X5.452Y-5.9528
X5.452Y-6.0528
X5.459Y-9.54
X5.4701Y-11.0024
X5.4701Y-11.1024
X5.552Y-4.0315
X5.552Y-4.1315
X5.552Y-5.9528
X5.552Y-6.0528
X5.559Y-7.64
X5.559Y-9.54
X5.5701Y-11.0024
X5.5701Y-11.1024
X5.652Y-4.0315
X5.652Y-4.1315
X5.652Y-5.9528
X5.652Y-6.0528
X5.659Y-7.64
X5.659Y-9.54
X5.6701Y-11.0024
X5.6701Y-11.1024
X5.752Y-4.0315
X5.752Y-4.1315
X5.752Y-5.9528
X5.752Y-6.0528
X5.759Y-7.64
X5.759Y-9.54
X5.7701Y-11.0024
X5.7701Y-11.1024
X5.852Y-4.0315
X5.852Y-4.1315
X5.852Y-5.9528
X5.852Y-6.0528
X5.859Y-7.64
X5.859Y-9.54
X5.8701Y-11.0024
X5.8701Y-11.1024
X5.959Y-7.64
X5.959Y-9.54
X6.059Y-7.64
X6.059Y-9.54
X6.159Y-7.64
X6.259Y-7.64
X6.259Y-9.54
X6.354Y-8.44
X6.354Y-8.54
X6.354Y-8.64
X6.359Y-9.54
X6.454Y-8.44
X6.454Y-8.54
X6.454Y-8.64
X6.459Y-7.64
X6.459Y-9.54
X6.559Y-7.64
X6.559Y-9.54
X6.659Y-7.64
X6.659Y-9.54
X6.759Y-7.64
X6.759Y-9.54
X6.859Y-7.64
X6.859Y-9.54
X6.959Y-7.64
X6.959Y-9.54
X7.059Y-7.64
X7.159Y-7.64
X7.159Y-9.54
X7.259Y-9.54
X7.319Y-7.64
X7.359Y-9.54
X7.419Y-7.64
X7.4331Y-4.0315
X7.4331Y-4.1315
X7.4331Y-5.9528
X7.4331Y-6.0528
X7.445Y-11.0024
X7.445Y-11.1024
X7.459Y-9.54
X7.519Y-7.64
X7.5331Y-4.0315
X7.5331Y-4.1315
X7.5331Y-5.9528
X7.5331Y-6.0528
X7.545Y-11.0024
X7.545Y-11.1024
X7.559Y-9.54
X7.619Y-7.64
X7.6331Y-4.0315
X7.6331Y-4.1315
X7.6331Y-5.9528
X7.6331Y-6.0528
X7.645Y-11.0024
X7.645Y-11.1024
X7.659Y-9.54
X7.719Y-7.64
X7.7331Y-4.0315
X7.7331Y-4.1315
X7.7331Y-5.9528
X7.7331Y-6.0528
X7.745Y-11.0024
X7.745Y-11.1024
X7.759Y-9.54
X7.819Y-7.64
X7.8331Y-4.0315
X7.8331Y-4.1315
X7.8331Y-5.9528
X7.8331Y-6.0528
X7.845Y-11.0024
X7.845Y-11.1024
X7.859Y-9.54
X7.919Y-7.64
X7.9331Y-4.0315
X7.9331Y-4.1315
X7.9331Y-5.9528
X7.9331Y-6.0528
X7.945Y-11.0024
X7.945Y-11.1024
X8.019Y-7.64
X8.0331Y-4.0315
X8.0331Y-4.1315
X8.0331Y-5.9528
X8.0331Y-6.0528
X8.045Y-11.0024
X8.045Y-11.1024
X8.119Y-7.64
X8.219Y-7.64
X10.472Y-8.145
X10.472Y-8.263
X10.472Y-8.381
X10.4726Y-8.8668
X10.4726Y-8.9848
X10.4726Y-9.1028
X10.4726Y-9.2208
X10.4726Y-9.3388
X10.4726Y-9.4568
X10.4726Y-9.5748
X10.59Y-8.145
X10.59Y-8.263
X10.59Y-8.381
X10.5906Y-8.8668
X10.5906Y-8.9848
X10.5906Y-9.1028
X10.5906Y-9.2208
X10.5906Y-9.3388
X10.5906Y-9.4568
X10.5906Y-9.5748
X11.9292Y-5.9215
X11.9292Y-6.0395
X11.9292Y-6.1575
X12.0472Y-5.9215
X12.0472Y-6.0395
X12.0472Y-6.1575
X12.63Y-5.9215
X12.63Y-6.0395
X12.63Y-6.1575
X12.63Y-6.8035
X12.63Y-6.9215
X12.63Y-7.0395
X12.63Y-7.1575
X12.748Y-5.9215
X12.748Y-6.0395
X12.748Y-6.1575
X12.748Y-6.8035
X12.748Y-6.9215
X12.748Y-7.0395
X12.748Y-7.1575
X15.9686Y-4.9455
X15.9686Y-5.0635
X15.9686Y-5.1815
X15.9686Y-5.2995
X15.9686Y-5.4175
X15.9686Y-5.5355
X15.9686Y-5.6535
X16.0866Y-4.9455
X16.0866Y-5.0635
X16.0866Y-5.1815
X16.0866Y-5.2995
X16.0866Y-5.4175
X16.0866Y-5.5355
X16.0866Y-5.6535
T6
X14.5276Y-11.6142
X14.5276Y-11.9142
X15.1307Y-11.6142
X15.1307Y-11.9142
X15.3276Y-11.6142
X15.3276Y-11.9142
X15.5244Y-11.6142
X15.5244Y-11.9142
X16.007Y-3.419
X16.007Y-4.0221
X16.007Y-4.219
X16.007Y-4.4159
X16.307Y-3.419
X16.307Y-4.0221
X16.307Y-4.219
X16.307Y-4.4159
T7
X16.699Y-4.806
X16.699Y-5.206
T0
M30
