G04 #@! TF.FileFunction,Copper,L2,Bot,Signal*
%FSLAX46Y46*%
G04 Gerber Fmt 4.6, Leading zero omitted, Abs format (unit mm)*
G04 Created by KiCad (PCBNEW 4.0.6) date 02/24/20 13:55:30*
%MOMM*%
%LPD*%
G01*
G04 APERTURE LIST*
%ADD10C,0.100000*%
%ADD11R,1.600000X1.600000*%
%ADD12C,1.600000*%
%ADD13R,1.700000X1.700000*%
%ADD14O,1.700000X1.700000*%
%ADD15R,1.250000X1.250000*%
%ADD16C,1.250000*%
%ADD17C,0.600000*%
%ADD18C,0.250000*%
G04 APERTURE END LIST*
D10*
D11*
X143637000Y-99314000D03*
D12*
X146137000Y-99314000D03*
D11*
X149606000Y-109855000D03*
D12*
X152106000Y-109855000D03*
D11*
X149606000Y-118999000D03*
D12*
X152106000Y-118999000D03*
D11*
X144653000Y-129413000D03*
D12*
X147153000Y-129413000D03*
D13*
X136067800Y-98120200D03*
D14*
X136067800Y-100660200D03*
D13*
X129184400Y-106146600D03*
D14*
X129184400Y-108686600D03*
X129184400Y-111226600D03*
X129184400Y-113766600D03*
D13*
X133807200Y-92557600D03*
D14*
X136347200Y-92557600D03*
X138887200Y-92557600D03*
D13*
X129184400Y-119303800D03*
D14*
X129184400Y-121843800D03*
X129184400Y-124383800D03*
X129184400Y-126923800D03*
D15*
X135046000Y-105537000D03*
D16*
X135046000Y-108077000D03*
X135046000Y-110617000D03*
X135046000Y-113157000D03*
X135046000Y-115697000D03*
X135046000Y-118237000D03*
X135046000Y-120777000D03*
X135046000Y-123317000D03*
X143846000Y-123317000D03*
X143846000Y-120777000D03*
X143846000Y-118237000D03*
X143846000Y-115697000D03*
X143846000Y-113157000D03*
X143846000Y-110617000D03*
X143846000Y-108077000D03*
X143846000Y-105537000D03*
D17*
X138049000Y-116459000D03*
X138049000Y-105156000D03*
X149606000Y-116332000D03*
X135255000Y-125349000D03*
X138430000Y-103124000D03*
X131064000Y-116205000D03*
X132207000Y-117348000D03*
X142113000Y-120015000D03*
X138811000Y-114935000D03*
X132969000Y-111125000D03*
X131826000Y-109982000D03*
X138557000Y-97282000D03*
D18*
X135046000Y-118237000D02*
X135001000Y-118237000D01*
X135001000Y-118237000D02*
X136779000Y-116459000D01*
X136779000Y-116459000D02*
X138049000Y-116459000D01*
X138049000Y-105156000D02*
X138049000Y-104902000D01*
X138049000Y-104902000D02*
X143637000Y-99314000D01*
X129184400Y-121843800D02*
X129159000Y-121793000D01*
X129159000Y-121793000D02*
X132715000Y-118237000D01*
X132715000Y-118237000D02*
X135046000Y-118237000D01*
X146137000Y-99314000D02*
X146177000Y-99314000D01*
X146177000Y-99314000D02*
X139446000Y-92583000D01*
X139446000Y-92583000D02*
X138938000Y-92583000D01*
X138938000Y-92583000D02*
X138887200Y-92557600D01*
X143846000Y-115697000D02*
X143891000Y-115697000D01*
X143891000Y-115697000D02*
X146050000Y-117856000D01*
X146050000Y-117856000D02*
X150749000Y-117856000D01*
X150749000Y-117856000D02*
X151892000Y-118999000D01*
X151892000Y-118999000D02*
X152106000Y-118999000D01*
X135046000Y-115697000D02*
X143846000Y-115697000D01*
X129184400Y-124383800D02*
X129159000Y-124333000D01*
X129159000Y-124333000D02*
X134239000Y-119253000D01*
X134239000Y-119253000D02*
X135382000Y-119253000D01*
X135382000Y-119253000D02*
X135509000Y-119126000D01*
X135509000Y-119126000D02*
X135636000Y-119126000D01*
X135636000Y-119126000D02*
X136525000Y-118237000D01*
X136525000Y-118237000D02*
X143846000Y-118237000D01*
X129184400Y-126923800D02*
X129159000Y-126873000D01*
X129159000Y-126873000D02*
X134239000Y-121793000D01*
X134239000Y-121793000D02*
X135382000Y-121793000D01*
X135382000Y-121793000D02*
X135509000Y-121666000D01*
X135509000Y-121666000D02*
X135636000Y-121666000D01*
X135636000Y-121666000D02*
X138049000Y-119253000D01*
X138049000Y-119253000D02*
X144272000Y-119253000D01*
X144272000Y-119253000D02*
X144399000Y-119126000D01*
X144399000Y-119126000D02*
X144526000Y-119126000D01*
X144526000Y-119126000D02*
X144653000Y-118999000D01*
X144653000Y-118999000D02*
X149606000Y-118999000D01*
X149606000Y-116332000D02*
X143891000Y-110617000D01*
X143891000Y-110617000D02*
X143846000Y-110617000D01*
X144653000Y-129413000D02*
X140589000Y-125349000D01*
X140589000Y-125349000D02*
X135255000Y-125349000D01*
X136067800Y-100660200D02*
X136144000Y-100838000D01*
X136144000Y-100838000D02*
X138430000Y-103124000D01*
X129184400Y-106146600D02*
X129286000Y-106299000D01*
X129286000Y-106299000D02*
X131064000Y-108077000D01*
X131064000Y-108077000D02*
X135046000Y-108077000D01*
X131064000Y-116205000D02*
X132207000Y-117348000D01*
X143846000Y-120777000D02*
X143891000Y-120777000D01*
X143891000Y-120777000D02*
X143129000Y-120015000D01*
X143129000Y-120015000D02*
X142113000Y-120015000D01*
X138811000Y-114935000D02*
X135509000Y-111633000D01*
X135509000Y-111633000D02*
X134620000Y-111633000D01*
X134620000Y-111633000D02*
X134493000Y-111506000D01*
X134493000Y-111506000D02*
X134366000Y-111506000D01*
X134366000Y-111506000D02*
X133985000Y-111125000D01*
X133985000Y-111125000D02*
X132969000Y-111125000D01*
X131826000Y-109982000D02*
X130556000Y-111252000D01*
X130556000Y-111252000D02*
X129159000Y-111252000D01*
X129159000Y-111252000D02*
X129184400Y-111226600D01*
X129184400Y-113766600D02*
X133858000Y-109093000D01*
X133858000Y-109093000D02*
X135382000Y-109093000D01*
X135382000Y-109093000D02*
X135509000Y-108966000D01*
X135509000Y-108966000D02*
X135636000Y-108966000D01*
X135636000Y-108966000D02*
X136525000Y-108077000D01*
X136525000Y-108077000D02*
X143846000Y-108077000D01*
X138557000Y-97282000D02*
X133858000Y-92583000D01*
X133858000Y-92583000D02*
X133807200Y-92557600D01*
M02*
