G04 #@! TF.FileFunction,Soldermask,Bot*
%FSLAX46Y46*%
G04 Gerber Fmt 4.6, Leading zero omitted, Abs format (unit mm)*
G04 Created by KiCad (PCBNEW 4.0.6) date 02/24/20 13:55:30*
%MOMM*%
%LPD*%
G01*
G04 APERTURE LIST*
%ADD10C,0.100000*%
%ADD11C,2.400000*%
%ADD12R,2.000000X2.000000*%
%ADD13C,2.000000*%
%ADD14R,2.100000X2.100000*%
%ADD15O,2.100000X2.100000*%
%ADD16R,1.650000X1.650000*%
%ADD17C,1.650000*%
G04 APERTURE END LIST*
D10*
D11*
X159867600Y-87655400D03*
X120396000Y-88468200D03*
X120294400Y-134416800D03*
D12*
X143637000Y-99314000D03*
D13*
X146137000Y-99314000D03*
D12*
X149606000Y-109855000D03*
D13*
X152106000Y-109855000D03*
D12*
X149606000Y-118999000D03*
D13*
X152106000Y-118999000D03*
D12*
X144653000Y-129413000D03*
D13*
X147153000Y-129413000D03*
D14*
X136067800Y-98120200D03*
D15*
X136067800Y-100660200D03*
D14*
X129184400Y-106146600D03*
D15*
X129184400Y-108686600D03*
X129184400Y-111226600D03*
X129184400Y-113766600D03*
D14*
X133807200Y-92557600D03*
D15*
X136347200Y-92557600D03*
X138887200Y-92557600D03*
D14*
X129184400Y-119303800D03*
D15*
X129184400Y-121843800D03*
X129184400Y-124383800D03*
X129184400Y-126923800D03*
D16*
X135046000Y-105537000D03*
D17*
X135046000Y-108077000D03*
X135046000Y-110617000D03*
X135046000Y-113157000D03*
X135046000Y-115697000D03*
X135046000Y-118237000D03*
X135046000Y-120777000D03*
X135046000Y-123317000D03*
X143846000Y-123317000D03*
X143846000Y-120777000D03*
X143846000Y-118237000D03*
X143846000Y-115697000D03*
X143846000Y-113157000D03*
X143846000Y-110617000D03*
X143846000Y-108077000D03*
X143846000Y-105537000D03*
D11*
X160248600Y-135153400D03*
M02*
