M48
;DRILL file {KiCad 4.0.6} date 02/24/20 13:55:32
;FORMAT={-:-/ absolute / inch / decimal}
FMAT,2
INCH,TZ
T1C0.016
T2C0.031
T3C0.035
T4C0.039
%
G90
G05
M72
T1
X5.16Y-4.575
X5.19Y-4.33
X5.205Y-4.62
X5.235Y-4.375
X5.325Y-4.935
X5.435Y-4.14
X5.435Y-4.585
X5.45Y-4.06
X5.455Y-3.83
X5.465Y-4.525
X5.595Y-4.725
X5.89Y-4.58
T2
X5.655Y-3.91
X5.695Y-5.095
X5.7534Y-3.91
X5.7934Y-5.095
X5.89Y-4.325
X5.89Y-4.685
X5.9884Y-4.325
X5.9884Y-4.685
T3
X5.3168Y-4.155
X5.3168Y-4.255
X5.3168Y-4.355
X5.3168Y-4.455
X5.3168Y-4.555
X5.3168Y-4.655
X5.3168Y-4.755
X5.3168Y-4.855
X5.6632Y-4.155
X5.6632Y-4.255
X5.6632Y-4.355
X5.6632Y-4.455
X5.6632Y-4.555
X5.6632Y-4.655
X5.6632Y-4.755
X5.6632Y-4.855
T4
X5.086Y-4.179
X5.086Y-4.279
X5.086Y-4.379
X5.086Y-4.479
X5.086Y-4.697
X5.086Y-4.797
X5.086Y-4.897
X5.086Y-4.997
X5.268Y-3.644
X5.357Y-3.863
X5.357Y-3.963
X5.368Y-3.644
X5.468Y-3.644
T0
M30
