G04 #@! TF.FileFunction,Other,Fab,Top*
%FSLAX46Y46*%
G04 Gerber Fmt 4.6, Leading zero omitted, Abs format (unit mm)*
G04 Created by KiCad (PCBNEW 4.0.6) date 02/24/20 13:55:30*
%MOMM*%
%LPD*%
G01*
G04 APERTURE LIST*
%ADD10C,0.100000*%
%ADD11C,0.200000*%
%ADD12C,0.127000*%
%ADD13C,0.150000*%
G04 APERTURE END LIST*
D10*
X148637000Y-99314000D02*
G75*
G03X148637000Y-99314000I-3750000J0D01*
G01*
X141437000Y-99314000D02*
X142637000Y-99314000D01*
X142037000Y-98664000D02*
X142037000Y-99964000D01*
X154606000Y-109855000D02*
G75*
G03X154606000Y-109855000I-3750000J0D01*
G01*
X147406000Y-109855000D02*
X148606000Y-109855000D01*
X148006000Y-109205000D02*
X148006000Y-110505000D01*
X154606000Y-118999000D02*
G75*
G03X154606000Y-118999000I-3750000J0D01*
G01*
X147406000Y-118999000D02*
X148606000Y-118999000D01*
X148006000Y-118349000D02*
X148006000Y-119649000D01*
X149653000Y-129413000D02*
G75*
G03X149653000Y-129413000I-3750000J0D01*
G01*
X142453000Y-129413000D02*
X143653000Y-129413000D01*
X143053000Y-128763000D02*
X143053000Y-130063000D01*
X134797800Y-96850200D02*
X136702800Y-96850200D01*
X136702800Y-96850200D02*
X137337800Y-97485200D01*
X137337800Y-97485200D02*
X137337800Y-101930200D01*
X137337800Y-101930200D02*
X134797800Y-101930200D01*
X134797800Y-101930200D02*
X134797800Y-96850200D01*
X127914400Y-104876600D02*
X129819400Y-104876600D01*
X129819400Y-104876600D02*
X130454400Y-105511600D01*
X130454400Y-105511600D02*
X130454400Y-115036600D01*
X130454400Y-115036600D02*
X127914400Y-115036600D01*
X127914400Y-115036600D02*
X127914400Y-104876600D01*
X132537200Y-93827600D02*
X132537200Y-91922600D01*
X132537200Y-91922600D02*
X133172200Y-91287600D01*
X133172200Y-91287600D02*
X140157200Y-91287600D01*
X140157200Y-91287600D02*
X140157200Y-93827600D01*
X140157200Y-93827600D02*
X132537200Y-93827600D01*
X127914400Y-118033800D02*
X129819400Y-118033800D01*
X129819400Y-118033800D02*
X130454400Y-118668800D01*
X130454400Y-118668800D02*
X130454400Y-128193800D01*
X130454400Y-128193800D02*
X127914400Y-128193800D01*
X127914400Y-128193800D02*
X127914400Y-118033800D01*
D11*
X134021000Y-105537000D02*
G75*
G03X134021000Y-105537000I-100000J0D01*
G01*
D12*
X135896000Y-104427000D02*
X142996000Y-104427000D01*
X135896000Y-124427000D02*
X142996000Y-124427000D01*
X135896000Y-104427000D02*
X135896000Y-124427000D01*
X142996000Y-104427000D02*
X142996000Y-124427000D01*
D13*
X158534267Y-84907781D02*
X158200933Y-84431590D01*
X157962838Y-84907781D02*
X157962838Y-83907781D01*
X158343791Y-83907781D01*
X158439029Y-83955400D01*
X158486648Y-84003019D01*
X158534267Y-84098257D01*
X158534267Y-84241114D01*
X158486648Y-84336352D01*
X158439029Y-84383971D01*
X158343791Y-84431590D01*
X157962838Y-84431590D01*
X158962838Y-84383971D02*
X159296172Y-84383971D01*
X159439029Y-84907781D02*
X158962838Y-84907781D01*
X158962838Y-83907781D01*
X159439029Y-83907781D01*
X160200934Y-84383971D02*
X159867600Y-84383971D01*
X159867600Y-84907781D02*
X159867600Y-83907781D01*
X160343791Y-83907781D01*
X160867600Y-83907781D02*
X160867600Y-84145876D01*
X160629505Y-84050638D02*
X160867600Y-84145876D01*
X161105696Y-84050638D01*
X160724743Y-84336352D02*
X160867600Y-84145876D01*
X161010458Y-84336352D01*
X161629505Y-83907781D02*
X161629505Y-84145876D01*
X161391410Y-84050638D02*
X161629505Y-84145876D01*
X161867601Y-84050638D01*
X161486648Y-84336352D02*
X161629505Y-84145876D01*
X161772363Y-84336352D01*
X158834267Y-88107781D02*
X158500933Y-87631590D01*
X158262838Y-88107781D02*
X158262838Y-87107781D01*
X158643791Y-87107781D01*
X158739029Y-87155400D01*
X158786648Y-87203019D01*
X158834267Y-87298257D01*
X158834267Y-87441114D01*
X158786648Y-87536352D01*
X158739029Y-87583971D01*
X158643791Y-87631590D01*
X158262838Y-87631590D01*
X159262838Y-87583971D02*
X159596172Y-87583971D01*
X159739029Y-88107781D02*
X159262838Y-88107781D01*
X159262838Y-87107781D01*
X159739029Y-87107781D01*
X160500934Y-87583971D02*
X160167600Y-87583971D01*
X160167600Y-88107781D02*
X160167600Y-87107781D01*
X160643791Y-87107781D01*
X161167600Y-87107781D02*
X161167600Y-87345876D01*
X160929505Y-87250638D02*
X161167600Y-87345876D01*
X161405696Y-87250638D01*
X161024743Y-87536352D02*
X161167600Y-87345876D01*
X161310458Y-87536352D01*
X161929505Y-87107781D02*
X161929505Y-87345876D01*
X161691410Y-87250638D02*
X161929505Y-87345876D01*
X162167601Y-87250638D01*
X161786648Y-87536352D02*
X161929505Y-87345876D01*
X162072363Y-87536352D01*
X119062667Y-85720581D02*
X118729333Y-85244390D01*
X118491238Y-85720581D02*
X118491238Y-84720581D01*
X118872191Y-84720581D01*
X118967429Y-84768200D01*
X119015048Y-84815819D01*
X119062667Y-84911057D01*
X119062667Y-85053914D01*
X119015048Y-85149152D01*
X118967429Y-85196771D01*
X118872191Y-85244390D01*
X118491238Y-85244390D01*
X119491238Y-85196771D02*
X119824572Y-85196771D01*
X119967429Y-85720581D02*
X119491238Y-85720581D01*
X119491238Y-84720581D01*
X119967429Y-84720581D01*
X120729334Y-85196771D02*
X120396000Y-85196771D01*
X120396000Y-85720581D02*
X120396000Y-84720581D01*
X120872191Y-84720581D01*
X121396000Y-84720581D02*
X121396000Y-84958676D01*
X121157905Y-84863438D02*
X121396000Y-84958676D01*
X121634096Y-84863438D01*
X121253143Y-85149152D02*
X121396000Y-84958676D01*
X121538858Y-85149152D01*
X122157905Y-84720581D02*
X122157905Y-84958676D01*
X121919810Y-84863438D02*
X122157905Y-84958676D01*
X122396001Y-84863438D01*
X122015048Y-85149152D02*
X122157905Y-84958676D01*
X122300763Y-85149152D01*
X119362667Y-88920581D02*
X119029333Y-88444390D01*
X118791238Y-88920581D02*
X118791238Y-87920581D01*
X119172191Y-87920581D01*
X119267429Y-87968200D01*
X119315048Y-88015819D01*
X119362667Y-88111057D01*
X119362667Y-88253914D01*
X119315048Y-88349152D01*
X119267429Y-88396771D01*
X119172191Y-88444390D01*
X118791238Y-88444390D01*
X119791238Y-88396771D02*
X120124572Y-88396771D01*
X120267429Y-88920581D02*
X119791238Y-88920581D01*
X119791238Y-87920581D01*
X120267429Y-87920581D01*
X121029334Y-88396771D02*
X120696000Y-88396771D01*
X120696000Y-88920581D02*
X120696000Y-87920581D01*
X121172191Y-87920581D01*
X121696000Y-87920581D02*
X121696000Y-88158676D01*
X121457905Y-88063438D02*
X121696000Y-88158676D01*
X121934096Y-88063438D01*
X121553143Y-88349152D02*
X121696000Y-88158676D01*
X121838858Y-88349152D01*
X122457905Y-87920581D02*
X122457905Y-88158676D01*
X122219810Y-88063438D02*
X122457905Y-88158676D01*
X122696001Y-88063438D01*
X122315048Y-88349152D02*
X122457905Y-88158676D01*
X122600763Y-88349152D01*
X118961067Y-131669181D02*
X118627733Y-131192990D01*
X118389638Y-131669181D02*
X118389638Y-130669181D01*
X118770591Y-130669181D01*
X118865829Y-130716800D01*
X118913448Y-130764419D01*
X118961067Y-130859657D01*
X118961067Y-131002514D01*
X118913448Y-131097752D01*
X118865829Y-131145371D01*
X118770591Y-131192990D01*
X118389638Y-131192990D01*
X119389638Y-131145371D02*
X119722972Y-131145371D01*
X119865829Y-131669181D02*
X119389638Y-131669181D01*
X119389638Y-130669181D01*
X119865829Y-130669181D01*
X120627734Y-131145371D02*
X120294400Y-131145371D01*
X120294400Y-131669181D02*
X120294400Y-130669181D01*
X120770591Y-130669181D01*
X121294400Y-130669181D02*
X121294400Y-130907276D01*
X121056305Y-130812038D02*
X121294400Y-130907276D01*
X121532496Y-130812038D01*
X121151543Y-131097752D02*
X121294400Y-130907276D01*
X121437258Y-131097752D01*
X122056305Y-130669181D02*
X122056305Y-130907276D01*
X121818210Y-130812038D02*
X122056305Y-130907276D01*
X122294401Y-130812038D01*
X121913448Y-131097752D02*
X122056305Y-130907276D01*
X122199163Y-131097752D01*
X119261067Y-134869181D02*
X118927733Y-134392990D01*
X118689638Y-134869181D02*
X118689638Y-133869181D01*
X119070591Y-133869181D01*
X119165829Y-133916800D01*
X119213448Y-133964419D01*
X119261067Y-134059657D01*
X119261067Y-134202514D01*
X119213448Y-134297752D01*
X119165829Y-134345371D01*
X119070591Y-134392990D01*
X118689638Y-134392990D01*
X119689638Y-134345371D02*
X120022972Y-134345371D01*
X120165829Y-134869181D02*
X119689638Y-134869181D01*
X119689638Y-133869181D01*
X120165829Y-133869181D01*
X120927734Y-134345371D02*
X120594400Y-134345371D01*
X120594400Y-134869181D02*
X120594400Y-133869181D01*
X121070591Y-133869181D01*
X121594400Y-133869181D02*
X121594400Y-134107276D01*
X121356305Y-134012038D02*
X121594400Y-134107276D01*
X121832496Y-134012038D01*
X121451543Y-134297752D02*
X121594400Y-134107276D01*
X121737258Y-134297752D01*
X122356305Y-133869181D02*
X122356305Y-134107276D01*
X122118210Y-134012038D02*
X122356305Y-134107276D01*
X122594401Y-134012038D01*
X122213448Y-134297752D02*
X122356305Y-134107276D01*
X122499163Y-134297752D01*
X144696524Y-104731143D02*
X144648905Y-104778762D01*
X144506048Y-104826381D01*
X144410810Y-104826381D01*
X144267952Y-104778762D01*
X144172714Y-104683524D01*
X144125095Y-104588286D01*
X144077476Y-104397810D01*
X144077476Y-104254952D01*
X144125095Y-104064476D01*
X144172714Y-103969238D01*
X144267952Y-103874000D01*
X144410810Y-103826381D01*
X144506048Y-103826381D01*
X144648905Y-103874000D01*
X144696524Y-103921619D01*
X145125095Y-104826381D02*
X145125095Y-103826381D01*
X145506048Y-103826381D01*
X145601286Y-103874000D01*
X145648905Y-103921619D01*
X145696524Y-104016857D01*
X145696524Y-104159714D01*
X145648905Y-104254952D01*
X145601286Y-104302571D01*
X145506048Y-104350190D01*
X145125095Y-104350190D01*
X143482238Y-99766381D02*
X142910809Y-99766381D01*
X143196523Y-99766381D02*
X143196523Y-98766381D01*
X143101285Y-98909238D01*
X143006047Y-99004476D01*
X142910809Y-99052095D01*
X144101285Y-98766381D02*
X144196524Y-98766381D01*
X144291762Y-98814000D01*
X144339381Y-98861619D01*
X144387000Y-98956857D01*
X144434619Y-99147333D01*
X144434619Y-99385429D01*
X144387000Y-99575905D01*
X144339381Y-99671143D01*
X144291762Y-99718762D01*
X144196524Y-99766381D01*
X144101285Y-99766381D01*
X144006047Y-99718762D01*
X143958428Y-99671143D01*
X143910809Y-99575905D01*
X143863190Y-99385429D01*
X143863190Y-99147333D01*
X143910809Y-98956857D01*
X143958428Y-98861619D01*
X144006047Y-98814000D01*
X144101285Y-98766381D01*
X145291762Y-99099714D02*
X145291762Y-99766381D01*
X144863190Y-99099714D02*
X144863190Y-99623524D01*
X144910809Y-99718762D01*
X145006047Y-99766381D01*
X145148905Y-99766381D01*
X145244143Y-99718762D01*
X145291762Y-99671143D01*
X145625095Y-99099714D02*
X146006047Y-99099714D01*
X145767952Y-99766381D02*
X145767952Y-98909238D01*
X145815571Y-98814000D01*
X145910809Y-98766381D01*
X146006047Y-98766381D01*
X146863191Y-99766381D02*
X146291762Y-99766381D01*
X146577476Y-99766381D02*
X146577476Y-98766381D01*
X146482238Y-98909238D01*
X146387000Y-99004476D01*
X146291762Y-99052095D01*
X150665524Y-115272143D02*
X150617905Y-115319762D01*
X150475048Y-115367381D01*
X150379810Y-115367381D01*
X150236952Y-115319762D01*
X150141714Y-115224524D01*
X150094095Y-115129286D01*
X150046476Y-114938810D01*
X150046476Y-114795952D01*
X150094095Y-114605476D01*
X150141714Y-114510238D01*
X150236952Y-114415000D01*
X150379810Y-114367381D01*
X150475048Y-114367381D01*
X150617905Y-114415000D01*
X150665524Y-114462619D01*
X151094095Y-115367381D02*
X151094095Y-114367381D01*
X151475048Y-114367381D01*
X151570286Y-114415000D01*
X151617905Y-114462619D01*
X151665524Y-114557857D01*
X151665524Y-114700714D01*
X151617905Y-114795952D01*
X151570286Y-114843571D01*
X151475048Y-114891190D01*
X151094095Y-114891190D01*
X149451238Y-110307381D02*
X148879809Y-110307381D01*
X149165523Y-110307381D02*
X149165523Y-109307381D01*
X149070285Y-109450238D01*
X148975047Y-109545476D01*
X148879809Y-109593095D01*
X150070285Y-109307381D02*
X150165524Y-109307381D01*
X150260762Y-109355000D01*
X150308381Y-109402619D01*
X150356000Y-109497857D01*
X150403619Y-109688333D01*
X150403619Y-109926429D01*
X150356000Y-110116905D01*
X150308381Y-110212143D01*
X150260762Y-110259762D01*
X150165524Y-110307381D01*
X150070285Y-110307381D01*
X149975047Y-110259762D01*
X149927428Y-110212143D01*
X149879809Y-110116905D01*
X149832190Y-109926429D01*
X149832190Y-109688333D01*
X149879809Y-109497857D01*
X149927428Y-109402619D01*
X149975047Y-109355000D01*
X150070285Y-109307381D01*
X151260762Y-109640714D02*
X151260762Y-110307381D01*
X150832190Y-109640714D02*
X150832190Y-110164524D01*
X150879809Y-110259762D01*
X150975047Y-110307381D01*
X151117905Y-110307381D01*
X151213143Y-110259762D01*
X151260762Y-110212143D01*
X151594095Y-109640714D02*
X151975047Y-109640714D01*
X151736952Y-110307381D02*
X151736952Y-109450238D01*
X151784571Y-109355000D01*
X151879809Y-109307381D01*
X151975047Y-109307381D01*
X152260762Y-109402619D02*
X152308381Y-109355000D01*
X152403619Y-109307381D01*
X152641715Y-109307381D01*
X152736953Y-109355000D01*
X152784572Y-109402619D01*
X152832191Y-109497857D01*
X152832191Y-109593095D01*
X152784572Y-109735952D01*
X152213143Y-110307381D01*
X152832191Y-110307381D01*
X150665524Y-124416143D02*
X150617905Y-124463762D01*
X150475048Y-124511381D01*
X150379810Y-124511381D01*
X150236952Y-124463762D01*
X150141714Y-124368524D01*
X150094095Y-124273286D01*
X150046476Y-124082810D01*
X150046476Y-123939952D01*
X150094095Y-123749476D01*
X150141714Y-123654238D01*
X150236952Y-123559000D01*
X150379810Y-123511381D01*
X150475048Y-123511381D01*
X150617905Y-123559000D01*
X150665524Y-123606619D01*
X151094095Y-124511381D02*
X151094095Y-123511381D01*
X151475048Y-123511381D01*
X151570286Y-123559000D01*
X151617905Y-123606619D01*
X151665524Y-123701857D01*
X151665524Y-123844714D01*
X151617905Y-123939952D01*
X151570286Y-123987571D01*
X151475048Y-124035190D01*
X151094095Y-124035190D01*
X149451238Y-119451381D02*
X148879809Y-119451381D01*
X149165523Y-119451381D02*
X149165523Y-118451381D01*
X149070285Y-118594238D01*
X148975047Y-118689476D01*
X148879809Y-118737095D01*
X150070285Y-118451381D02*
X150165524Y-118451381D01*
X150260762Y-118499000D01*
X150308381Y-118546619D01*
X150356000Y-118641857D01*
X150403619Y-118832333D01*
X150403619Y-119070429D01*
X150356000Y-119260905D01*
X150308381Y-119356143D01*
X150260762Y-119403762D01*
X150165524Y-119451381D01*
X150070285Y-119451381D01*
X149975047Y-119403762D01*
X149927428Y-119356143D01*
X149879809Y-119260905D01*
X149832190Y-119070429D01*
X149832190Y-118832333D01*
X149879809Y-118641857D01*
X149927428Y-118546619D01*
X149975047Y-118499000D01*
X150070285Y-118451381D01*
X151260762Y-118784714D02*
X151260762Y-119451381D01*
X150832190Y-118784714D02*
X150832190Y-119308524D01*
X150879809Y-119403762D01*
X150975047Y-119451381D01*
X151117905Y-119451381D01*
X151213143Y-119403762D01*
X151260762Y-119356143D01*
X151594095Y-118784714D02*
X151975047Y-118784714D01*
X151736952Y-119451381D02*
X151736952Y-118594238D01*
X151784571Y-118499000D01*
X151879809Y-118451381D01*
X151975047Y-118451381D01*
X152213143Y-118451381D02*
X152832191Y-118451381D01*
X152498857Y-118832333D01*
X152641715Y-118832333D01*
X152736953Y-118879952D01*
X152784572Y-118927571D01*
X152832191Y-119022810D01*
X152832191Y-119260905D01*
X152784572Y-119356143D01*
X152736953Y-119403762D01*
X152641715Y-119451381D01*
X152356000Y-119451381D01*
X152260762Y-119403762D01*
X152213143Y-119356143D01*
X144974429Y-134925381D02*
X144403000Y-134925381D01*
X144688714Y-134925381D02*
X144688714Y-133925381D01*
X144593476Y-134068238D01*
X144498238Y-134163476D01*
X144403000Y-134211095D01*
X145593476Y-133925381D02*
X145688715Y-133925381D01*
X145783953Y-133973000D01*
X145831572Y-134020619D01*
X145879191Y-134115857D01*
X145926810Y-134306333D01*
X145926810Y-134544429D01*
X145879191Y-134734905D01*
X145831572Y-134830143D01*
X145783953Y-134877762D01*
X145688715Y-134925381D01*
X145593476Y-134925381D01*
X145498238Y-134877762D01*
X145450619Y-134830143D01*
X145403000Y-134734905D01*
X145355381Y-134544429D01*
X145355381Y-134306333D01*
X145403000Y-134115857D01*
X145450619Y-134020619D01*
X145498238Y-133973000D01*
X145593476Y-133925381D01*
X146783953Y-134258714D02*
X146783953Y-134925381D01*
X146355381Y-134258714D02*
X146355381Y-134782524D01*
X146403000Y-134877762D01*
X146498238Y-134925381D01*
X146641096Y-134925381D01*
X146736334Y-134877762D01*
X146783953Y-134830143D01*
X147117286Y-134258714D02*
X147498238Y-134258714D01*
X147260143Y-134925381D02*
X147260143Y-134068238D01*
X147307762Y-133973000D01*
X147403000Y-133925381D01*
X147498238Y-133925381D01*
X145736334Y-129770143D02*
X145688715Y-129817762D01*
X145545858Y-129865381D01*
X145450620Y-129865381D01*
X145307762Y-129817762D01*
X145212524Y-129722524D01*
X145164905Y-129627286D01*
X145117286Y-129436810D01*
X145117286Y-129293952D01*
X145164905Y-129103476D01*
X145212524Y-129008238D01*
X145307762Y-128913000D01*
X145450620Y-128865381D01*
X145545858Y-128865381D01*
X145688715Y-128913000D01*
X145736334Y-128960619D01*
X146688715Y-129865381D02*
X146117286Y-129865381D01*
X146403000Y-129865381D02*
X146403000Y-128865381D01*
X146307762Y-129008238D01*
X146212524Y-129103476D01*
X146117286Y-129151095D01*
X135520181Y-99723533D02*
X136234467Y-99723533D01*
X136377324Y-99771153D01*
X136472562Y-99866391D01*
X136520181Y-100009248D01*
X136520181Y-100104486D01*
X136520181Y-98723533D02*
X136520181Y-99294962D01*
X136520181Y-99009248D02*
X135520181Y-99009248D01*
X135663038Y-99104486D01*
X135758276Y-99199724D01*
X135805895Y-99294962D01*
X128636781Y-110289933D02*
X129351067Y-110289933D01*
X129493924Y-110337553D01*
X129589162Y-110432791D01*
X129636781Y-110575648D01*
X129636781Y-110670886D01*
X128732019Y-109861362D02*
X128684400Y-109813743D01*
X128636781Y-109718505D01*
X128636781Y-109480409D01*
X128684400Y-109385171D01*
X128732019Y-109337552D01*
X128827257Y-109289933D01*
X128922495Y-109289933D01*
X129065352Y-109337552D01*
X129636781Y-109908981D01*
X129636781Y-109289933D01*
X136013867Y-92009981D02*
X136013867Y-92724267D01*
X135966247Y-92867124D01*
X135871009Y-92962362D01*
X135728152Y-93009981D01*
X135632914Y-93009981D01*
X136394819Y-92009981D02*
X137013867Y-92009981D01*
X136680533Y-92390933D01*
X136823391Y-92390933D01*
X136918629Y-92438552D01*
X136966248Y-92486171D01*
X137013867Y-92581410D01*
X137013867Y-92819505D01*
X136966248Y-92914743D01*
X136918629Y-92962362D01*
X136823391Y-93009981D01*
X136537676Y-93009981D01*
X136442438Y-92962362D01*
X136394819Y-92914743D01*
X128636781Y-123447133D02*
X129351067Y-123447133D01*
X129493924Y-123494753D01*
X129589162Y-123589991D01*
X129636781Y-123732848D01*
X129636781Y-123828086D01*
X128970114Y-122542371D02*
X129636781Y-122542371D01*
X128589162Y-122780467D02*
X129303448Y-123018562D01*
X129303448Y-122399514D01*
X158915267Y-132405781D02*
X158581933Y-131929590D01*
X158343838Y-132405781D02*
X158343838Y-131405781D01*
X158724791Y-131405781D01*
X158820029Y-131453400D01*
X158867648Y-131501019D01*
X158915267Y-131596257D01*
X158915267Y-131739114D01*
X158867648Y-131834352D01*
X158820029Y-131881971D01*
X158724791Y-131929590D01*
X158343838Y-131929590D01*
X159343838Y-131881971D02*
X159677172Y-131881971D01*
X159820029Y-132405781D02*
X159343838Y-132405781D01*
X159343838Y-131405781D01*
X159820029Y-131405781D01*
X160581934Y-131881971D02*
X160248600Y-131881971D01*
X160248600Y-132405781D02*
X160248600Y-131405781D01*
X160724791Y-131405781D01*
X161248600Y-131405781D02*
X161248600Y-131643876D01*
X161010505Y-131548638D02*
X161248600Y-131643876D01*
X161486696Y-131548638D01*
X161105743Y-131834352D02*
X161248600Y-131643876D01*
X161391458Y-131834352D01*
X162010505Y-131405781D02*
X162010505Y-131643876D01*
X161772410Y-131548638D02*
X162010505Y-131643876D01*
X162248601Y-131548638D01*
X161867648Y-131834352D02*
X162010505Y-131643876D01*
X162153363Y-131834352D01*
X159215267Y-135605781D02*
X158881933Y-135129590D01*
X158643838Y-135605781D02*
X158643838Y-134605781D01*
X159024791Y-134605781D01*
X159120029Y-134653400D01*
X159167648Y-134701019D01*
X159215267Y-134796257D01*
X159215267Y-134939114D01*
X159167648Y-135034352D01*
X159120029Y-135081971D01*
X159024791Y-135129590D01*
X158643838Y-135129590D01*
X159643838Y-135081971D02*
X159977172Y-135081971D01*
X160120029Y-135605781D02*
X159643838Y-135605781D01*
X159643838Y-134605781D01*
X160120029Y-134605781D01*
X160881934Y-135081971D02*
X160548600Y-135081971D01*
X160548600Y-135605781D02*
X160548600Y-134605781D01*
X161024791Y-134605781D01*
X161548600Y-134605781D02*
X161548600Y-134843876D01*
X161310505Y-134748638D02*
X161548600Y-134843876D01*
X161786696Y-134748638D01*
X161405743Y-135034352D02*
X161548600Y-134843876D01*
X161691458Y-135034352D01*
X162310505Y-134605781D02*
X162310505Y-134843876D01*
X162072410Y-134748638D02*
X162310505Y-134843876D01*
X162548601Y-134748638D01*
X162167648Y-135034352D02*
X162310505Y-134843876D01*
X162453363Y-135034352D01*
M02*
