G04 #@! TF.FileFunction,Copper,L1,Top,Signal*
%FSLAX46Y46*%
G04 Gerber Fmt 4.6, Leading zero omitted, Abs format (unit mm)*
G04 Created by KiCad (PCBNEW 4.0.6) date 02/24/20 13:55:30*
%MOMM*%
%LPD*%
G01*
G04 APERTURE LIST*
%ADD10C,0.100000*%
%ADD11R,1.600000X1.600000*%
%ADD12C,1.600000*%
%ADD13R,1.700000X1.700000*%
%ADD14O,1.700000X1.700000*%
%ADD15R,1.250000X1.250000*%
%ADD16C,1.250000*%
%ADD17C,0.600000*%
%ADD18C,0.250000*%
G04 APERTURE END LIST*
D10*
D11*
X143637000Y-99314000D03*
D12*
X146137000Y-99314000D03*
D11*
X149606000Y-109855000D03*
D12*
X152106000Y-109855000D03*
D11*
X149606000Y-118999000D03*
D12*
X152106000Y-118999000D03*
D11*
X144653000Y-129413000D03*
D12*
X147153000Y-129413000D03*
D13*
X136067800Y-98120200D03*
D14*
X136067800Y-100660200D03*
D13*
X129184400Y-106146600D03*
D14*
X129184400Y-108686600D03*
X129184400Y-111226600D03*
X129184400Y-113766600D03*
D13*
X133807200Y-92557600D03*
D14*
X136347200Y-92557600D03*
X138887200Y-92557600D03*
D13*
X129184400Y-119303800D03*
D14*
X129184400Y-121843800D03*
X129184400Y-124383800D03*
X129184400Y-126923800D03*
D15*
X135046000Y-105537000D03*
D16*
X135046000Y-108077000D03*
X135046000Y-110617000D03*
X135046000Y-113157000D03*
X135046000Y-115697000D03*
X135046000Y-118237000D03*
X135046000Y-120777000D03*
X135046000Y-123317000D03*
X143846000Y-123317000D03*
X143846000Y-120777000D03*
X143846000Y-118237000D03*
X143846000Y-115697000D03*
X143846000Y-113157000D03*
X143846000Y-110617000D03*
X143846000Y-108077000D03*
X143846000Y-105537000D03*
D17*
X138049000Y-116459000D03*
X138049000Y-105156000D03*
X149606000Y-116332000D03*
X135255000Y-125349000D03*
X138430000Y-103124000D03*
X131064000Y-116205000D03*
X132207000Y-117348000D03*
X142113000Y-120015000D03*
X138811000Y-114935000D03*
X132969000Y-111125000D03*
X131826000Y-109982000D03*
X138557000Y-97282000D03*
D18*
X138049000Y-116459000D02*
X138049000Y-105156000D01*
X152106000Y-118999000D02*
X152146000Y-118999000D01*
X152146000Y-118999000D02*
X147193000Y-123952000D01*
X147193000Y-123952000D02*
X147193000Y-129413000D01*
X147193000Y-129413000D02*
X147153000Y-129413000D01*
X143846000Y-113157000D02*
X143891000Y-113157000D01*
X143891000Y-113157000D02*
X146177000Y-110871000D01*
X146177000Y-110871000D02*
X146177000Y-99314000D01*
X146177000Y-99314000D02*
X146137000Y-99314000D01*
X152106000Y-118999000D02*
X152146000Y-118999000D01*
X152146000Y-118999000D02*
X152146000Y-109855000D01*
X152146000Y-109855000D02*
X152106000Y-109855000D01*
X143846000Y-115697000D02*
X143891000Y-115697000D01*
X143891000Y-115697000D02*
X143891000Y-113157000D01*
X143891000Y-113157000D02*
X143846000Y-113157000D01*
X135046000Y-115697000D02*
X135001000Y-115697000D01*
X135001000Y-115697000D02*
X135001000Y-113157000D01*
X135001000Y-113157000D02*
X135046000Y-113157000D01*
X143846000Y-118237000D02*
X143891000Y-118237000D01*
X143891000Y-118237000D02*
X149606000Y-112522000D01*
X149606000Y-112522000D02*
X149606000Y-109855000D01*
X149606000Y-118999000D02*
X149606000Y-116332000D01*
X135255000Y-125349000D02*
X129159000Y-119253000D01*
X129159000Y-119253000D02*
X129184400Y-119303800D01*
X129184400Y-119303800D02*
X129159000Y-119253000D01*
X129159000Y-119253000D02*
X133985000Y-114427000D01*
X133985000Y-114427000D02*
X133985000Y-112903000D01*
X133985000Y-112903000D02*
X134112000Y-112776000D01*
X134112000Y-112776000D02*
X134112000Y-112649000D01*
X134112000Y-112649000D02*
X134239000Y-112522000D01*
X134239000Y-112522000D02*
X134239000Y-112395000D01*
X134239000Y-112395000D02*
X135001000Y-111633000D01*
X135001000Y-111633000D02*
X135001000Y-110617000D01*
X135001000Y-110617000D02*
X135046000Y-110617000D01*
X135046000Y-105537000D02*
X135001000Y-105537000D01*
X135001000Y-105537000D02*
X134874000Y-105410000D01*
X134874000Y-105410000D02*
X134874000Y-99441000D01*
X134874000Y-99441000D02*
X136017000Y-98298000D01*
X136017000Y-98298000D02*
X136017000Y-98171000D01*
X136017000Y-98171000D02*
X136067800Y-98120200D01*
X138430000Y-103124000D02*
X142875000Y-107569000D01*
X142875000Y-107569000D02*
X142875000Y-121285000D01*
X142875000Y-121285000D02*
X143891000Y-122301000D01*
X143891000Y-122301000D02*
X143891000Y-123317000D01*
X143891000Y-123317000D02*
X143846000Y-123317000D01*
X129184400Y-108686600D02*
X129286000Y-108839000D01*
X129286000Y-108839000D02*
X131064000Y-110617000D01*
X131064000Y-110617000D02*
X131064000Y-116205000D01*
X132207000Y-117348000D02*
X135001000Y-120142000D01*
X135001000Y-120142000D02*
X135001000Y-120777000D01*
X135001000Y-120777000D02*
X135046000Y-120777000D01*
X142113000Y-120015000D02*
X138811000Y-116713000D01*
X138811000Y-116713000D02*
X138811000Y-114935000D01*
X132969000Y-111125000D02*
X131826000Y-109982000D01*
X143846000Y-105537000D02*
X143891000Y-105537000D01*
X143891000Y-105537000D02*
X138557000Y-100203000D01*
X138557000Y-100203000D02*
X138557000Y-97282000D01*
X135046000Y-123317000D02*
X135001000Y-123317000D01*
X135001000Y-123317000D02*
X137287000Y-121031000D01*
X137287000Y-121031000D02*
X137287000Y-96901000D01*
X137287000Y-96901000D02*
X136398000Y-96012000D01*
X136398000Y-96012000D02*
X136398000Y-92583000D01*
X136398000Y-92583000D02*
X136347200Y-92557600D01*
M02*
