G04 #@! TF.FileFunction,Copper,L4,Bot,Signal*
%FSLAX46Y46*%
G04 Gerber Fmt 4.6, Leading zero omitted, Abs format (unit mm)*
G04 Created by KiCad (PCBNEW 4.0.6) date 03/02/20 07:40:08*
%MOMM*%
%LPD*%
G01*
G04 APERTURE LIST*
%ADD10C,0.100000*%
%ADD11C,1.651000*%
%ADD12R,1.800000X1.800000*%
%ADD13O,1.800000X1.800000*%
%ADD14C,1.800000*%
%ADD15C,3.000000*%
%ADD16C,1.879600*%
%ADD17R,0.848360X0.899160*%
%ADD18C,1.574800*%
%ADD19C,2.159000*%
%ADD20C,2.400000*%
%ADD21O,2.400000X2.400000*%
%ADD22O,2.000000X2.000000*%
%ADD23R,2.000000X2.000000*%
%ADD24C,0.600000*%
%ADD25C,0.250000*%
G04 APERTURE END LIST*
D10*
D11*
X107955000Y-86847300D03*
X105415000Y-86847300D03*
X107955000Y-94086300D03*
X105415000Y-94086300D03*
X107955000Y-101325000D03*
X105415000Y-101325000D03*
X150940000Y-41973500D03*
X150940000Y-39433500D03*
X145860000Y-41973500D03*
X145860000Y-39433500D03*
X165481000Y-41973500D03*
X165481000Y-39433500D03*
X170561000Y-41973500D03*
X170561000Y-39433500D03*
D12*
X86741000Y-93154500D03*
D13*
X86741000Y-103314500D03*
D12*
X94361000Y-93154500D03*
D13*
X94361000Y-103314500D03*
D14*
X124587000Y-71882000D03*
X129667000Y-71882000D03*
X132207000Y-71882000D03*
X134747000Y-71882000D03*
X134747000Y-76962000D03*
X132207000Y-76962000D03*
X129667000Y-76962000D03*
D12*
X124587000Y-76962000D03*
D14*
X131064000Y-86233000D03*
X136144000Y-86233000D03*
X138684000Y-86233000D03*
X141224000Y-86233000D03*
X141224000Y-91313000D03*
X138684000Y-91313000D03*
X136144000Y-91313000D03*
D12*
X131064000Y-91313000D03*
D15*
X88248500Y-111125000D03*
X88248500Y-118745000D03*
X108568500Y-111125000D03*
X113568500Y-118745000D03*
X103568500Y-118745000D03*
X103568500Y-111125000D03*
X108568500Y-118745000D03*
X113568500Y-111125000D03*
D16*
X98298000Y-54800500D03*
X100838000Y-54800500D03*
X103378000Y-54800500D03*
X106490000Y-54673500D03*
X109030000Y-54673500D03*
X111570000Y-54673500D03*
X114554000Y-54800500D03*
X117094000Y-54800500D03*
X119634000Y-54800500D03*
X122618000Y-55054500D03*
X125158000Y-55054500D03*
X127698000Y-55054500D03*
X34861500Y-74706600D03*
X34861500Y-67086600D03*
X39941500Y-74706600D03*
X39941500Y-67086600D03*
X45021500Y-74706600D03*
X45021500Y-67086600D03*
X50101500Y-74706600D03*
X50101500Y-67086600D03*
X55181500Y-74706600D03*
X55181500Y-67086600D03*
X60261500Y-74706600D03*
X60261500Y-67086600D03*
X104140000Y-67437000D03*
X104140000Y-59817000D03*
X109220000Y-67437000D03*
X109220000Y-59817000D03*
X114300000Y-67437000D03*
X114300000Y-59817000D03*
X119380000Y-67437000D03*
X119380000Y-59817000D03*
X65341500Y-74706600D03*
X65341500Y-67086600D03*
X70421500Y-74706600D03*
X70421500Y-67086600D03*
X75501500Y-74706600D03*
X75501500Y-67086600D03*
X80581500Y-74706600D03*
X80581500Y-67086600D03*
X85661500Y-74706600D03*
X85661500Y-67086600D03*
X90741500Y-74706600D03*
X90741500Y-67086600D03*
X85661500Y-88201500D03*
X85661500Y-80581500D03*
X90741500Y-88201500D03*
X90741500Y-80581500D03*
X95821500Y-88201500D03*
X95821500Y-80581500D03*
X117069000Y-78943200D03*
X117069000Y-71323200D03*
D17*
X161607120Y-111633000D03*
X160448880Y-111633000D03*
D18*
X74422000Y-95377000D03*
X74422000Y-80137000D03*
X71882000Y-95377000D03*
X71882000Y-80137000D03*
X69342000Y-95377000D03*
X69342000Y-80137000D03*
X66802000Y-95377000D03*
X66802000Y-80137000D03*
X64262000Y-95377000D03*
X64262000Y-80137000D03*
X61722000Y-95377000D03*
X61722000Y-80137000D03*
X59182000Y-95377000D03*
X59182000Y-80137000D03*
X56642000Y-95377000D03*
X56642000Y-80137000D03*
X54102000Y-95377000D03*
X54102000Y-80137000D03*
X51562000Y-95377000D03*
X51562000Y-80137000D03*
X49022000Y-95377000D03*
X49022000Y-80137000D03*
X46482000Y-95377000D03*
X46482000Y-80137000D03*
X43942000Y-95377000D03*
X43942000Y-80137000D03*
X41402000Y-95377000D03*
X41402000Y-80137000D03*
X38862000Y-95377000D03*
X38862000Y-80137000D03*
X74422000Y-115951000D03*
X74422000Y-100711000D03*
X71882000Y-115951000D03*
X71882000Y-100711000D03*
X69342000Y-115951000D03*
X69342000Y-100711000D03*
X66802000Y-115951000D03*
X66802000Y-100711000D03*
X64262000Y-115951000D03*
X64262000Y-100711000D03*
X61722000Y-115951000D03*
X61722000Y-100711000D03*
X59182000Y-115951000D03*
X59182000Y-100711000D03*
X56642000Y-115951000D03*
X56642000Y-100711000D03*
X54102000Y-115951000D03*
X54102000Y-100711000D03*
X51562000Y-115951000D03*
X51562000Y-100711000D03*
X49022000Y-115951000D03*
X49022000Y-100711000D03*
X46482000Y-115951000D03*
X46482000Y-100711000D03*
X43942000Y-115951000D03*
X43942000Y-100711000D03*
X41402000Y-115951000D03*
X41402000Y-100711000D03*
X38862000Y-115951000D03*
X38862000Y-100711000D03*
D12*
X145860000Y-46482000D03*
D13*
X148400000Y-46482000D03*
X150940000Y-46482000D03*
D12*
X165481000Y-46482000D03*
D13*
X168021000Y-46482000D03*
X170561000Y-46482000D03*
D19*
X150749000Y-120269000D03*
X169799000Y-120269000D03*
X169799000Y-107569000D03*
X169799000Y-104394000D03*
X169799000Y-101219000D03*
X169799000Y-85344000D03*
X150749000Y-85344000D03*
D16*
X60642500Y-44831000D03*
X63182500Y-44831000D03*
X65722500Y-44831000D03*
X68262500Y-44831000D03*
X70802500Y-44831000D03*
X73342500Y-44831000D03*
X81343500Y-46164500D03*
X81343500Y-43624500D03*
X83883500Y-46164500D03*
X83883500Y-43624500D03*
X86423500Y-46164500D03*
X86423500Y-43624500D03*
X88963500Y-46164500D03*
X88963500Y-43624500D03*
X91503500Y-46164500D03*
X91503500Y-43624500D03*
X94043500Y-46164500D03*
X94043500Y-43624500D03*
X96583500Y-46164500D03*
X96583500Y-43624500D03*
X99123500Y-46164500D03*
X99123500Y-43624500D03*
X101663500Y-46164500D03*
X101663500Y-43624500D03*
X110998000Y-46164500D03*
X110998000Y-43624500D03*
X113538000Y-46164500D03*
X113538000Y-43624500D03*
X116078000Y-46164500D03*
X116078000Y-43624500D03*
X118618000Y-46164500D03*
X118618000Y-43624500D03*
X121158000Y-46164500D03*
X121158000Y-43624500D03*
X123698000Y-46164500D03*
X123698000Y-43624500D03*
X126238000Y-46164500D03*
X126238000Y-43624500D03*
D11*
X139776000Y-116103000D03*
X139776000Y-113563000D03*
X128270000Y-107061000D03*
X128270000Y-104521000D03*
X139929000Y-107239000D03*
X139929000Y-104699000D03*
X128143000Y-116230000D03*
X128143000Y-113690000D03*
X133985000Y-61214000D03*
X133985000Y-58674000D03*
D20*
X183832000Y-77914500D03*
D21*
X183832000Y-47434500D03*
D20*
X183832000Y-114998000D03*
D21*
X183832000Y-84518000D03*
D20*
X194628000Y-77851000D03*
D21*
X194628000Y-47371000D03*
D20*
X194691000Y-114998000D03*
D21*
X194691000Y-84518000D03*
D22*
X103955000Y-79481300D03*
X109035000Y-74401300D03*
X103955000Y-74401300D03*
D23*
X109035000Y-79481300D03*
D16*
X29781500Y-74706600D03*
X29781500Y-67086600D03*
X138176000Y-44894500D03*
X135636000Y-44894500D03*
X49403000Y-44894500D03*
X51943000Y-44894500D03*
D12*
X112740000Y-85191600D03*
D13*
X122900000Y-85191600D03*
D12*
X112740000Y-90388400D03*
D13*
X122900000Y-90388400D03*
D12*
X112740000Y-95585300D03*
D13*
X122900000Y-95585300D03*
D12*
X112740000Y-100782000D03*
D13*
X122900000Y-100782000D03*
D16*
X207889000Y-107483000D03*
X210429000Y-107483000D03*
X212969000Y-107483000D03*
X186538000Y-40970200D03*
X183998000Y-40970200D03*
D14*
X143637000Y-71882000D03*
X148717000Y-71882000D03*
X151257000Y-71882000D03*
X153797000Y-71882000D03*
X153797000Y-76962000D03*
X151257000Y-76962000D03*
X148717000Y-76962000D03*
D12*
X143637000Y-76962000D03*
D14*
X162865000Y-71755000D03*
X167945000Y-71755000D03*
X170485000Y-71755000D03*
X173025000Y-71755000D03*
X173025000Y-76835000D03*
X170485000Y-76835000D03*
X167945000Y-76835000D03*
D12*
X162865000Y-76835000D03*
D14*
X215519000Y-57150000D03*
X210439000Y-57150000D03*
X207899000Y-57150000D03*
X205359000Y-57150000D03*
X205359000Y-52070000D03*
X207899000Y-52070000D03*
X210439000Y-52070000D03*
D12*
X215519000Y-52070000D03*
D14*
X215392000Y-67945000D03*
X210312000Y-67945000D03*
X207772000Y-67945000D03*
X205232000Y-67945000D03*
X205232000Y-62865000D03*
X207772000Y-62865000D03*
X210312000Y-62865000D03*
D12*
X215392000Y-62865000D03*
D24*
X37202900Y-64309100D03*
X141958100Y-96194000D03*
X55446400Y-52874600D03*
X121140700Y-54735600D03*
X104735500Y-77397200D03*
X46774400Y-60952400D03*
X58357600Y-60975900D03*
X58706500Y-52676500D03*
X79299300Y-49225100D03*
X67707100Y-60817300D03*
X67062100Y-56887700D03*
X111519200Y-74716700D03*
X91977800Y-52036600D03*
X84465000Y-49910200D03*
X88946800Y-50821000D03*
X89264500Y-60738400D03*
X83120600Y-67323300D03*
X85501900Y-65447500D03*
X87100000Y-64891500D03*
X34988500Y-51332200D03*
X133074700Y-50466400D03*
X187173200Y-44806200D03*
D25*
X107955000Y-101325000D02*
X107955000Y-94086300D01*
X145860000Y-73513700D02*
X143637000Y-75736700D01*
X145860000Y-46482000D02*
X145860000Y-73513700D01*
X143637000Y-76962000D02*
X143637000Y-75736700D01*
X166706300Y-45828200D02*
X170561000Y-41973500D01*
X166706300Y-46482000D02*
X166706300Y-45828200D01*
X165481000Y-46482000D02*
X166706300Y-46482000D01*
X93603300Y-46164500D02*
X88946800Y-50821000D01*
X94043500Y-46164500D02*
X93603300Y-46164500D01*
X102103200Y-52519300D02*
X110998000Y-43624500D01*
X102103200Y-61528900D02*
X102103200Y-52519300D01*
X85661500Y-77970600D02*
X102103200Y-61528900D01*
X85661500Y-80581500D02*
X85661500Y-77970600D01*
X162560000Y-111633000D02*
X161607100Y-111633000D01*
X169799000Y-104394000D02*
X162560000Y-111633000D01*
X75501500Y-72166600D02*
X75501500Y-74706600D01*
X80581500Y-67086600D02*
X75501500Y-72166600D01*
X65341500Y-72166600D02*
X65341500Y-74706600D01*
X70421500Y-67086600D02*
X65341500Y-72166600D01*
X90741500Y-69626600D02*
X85661500Y-74706600D01*
X90741500Y-67086600D02*
X90741500Y-69626600D01*
X55372000Y-89027000D02*
X46482000Y-80137000D01*
X55372000Y-96901000D02*
X55372000Y-89027000D01*
X59182000Y-100711000D02*
X55372000Y-96901000D01*
X50449200Y-89184200D02*
X41402000Y-80137000D01*
X50449200Y-97058200D02*
X50449200Y-89184200D01*
X54102000Y-100711000D02*
X50449200Y-97058200D01*
X101528000Y-77415000D02*
X90741500Y-88201500D01*
X101528000Y-64265900D02*
X101528000Y-77415000D01*
X110295200Y-55498700D02*
X101528000Y-64265900D01*
X110295200Y-54027100D02*
X110295200Y-55498700D01*
X117348000Y-46974300D02*
X110295200Y-54027100D01*
X117348000Y-44894500D02*
X117348000Y-46974300D01*
X118618000Y-43624500D02*
X117348000Y-44894500D01*
X66802000Y-78326100D02*
X70421500Y-74706600D01*
X66802000Y-80137000D02*
X66802000Y-78326100D01*
X80581500Y-83121500D02*
X85661500Y-88201500D01*
X80581500Y-74706600D02*
X80581500Y-83121500D01*
X105415000Y-101325000D02*
X105415000Y-94086300D01*
X151063400Y-120269000D02*
X159699400Y-111633000D01*
X150749000Y-120269000D02*
X151063400Y-120269000D01*
X160448900Y-111633000D02*
X159699400Y-111633000D01*
M02*
