G04 #@! TF.FileFunction,Drawing*
%FSLAX46Y46*%
G04 Gerber Fmt 4.6, Leading zero omitted, Abs format (unit mm)*
G04 Created by KiCad (PCBNEW 4.0.6) date 03/02/20 07:40:08*
%MOMM*%
%LPD*%
G01*
G04 APERTURE LIST*
%ADD10C,0.100000*%
%ADD11C,0.127000*%
%ADD12C,0.066040*%
%ADD13C,0.152400*%
G04 APERTURE END LIST*
D10*
D11*
X81970880Y-119438020D02*
X81970880Y-119913000D01*
X81970880Y-119913000D02*
X81970880Y-120387980D01*
X81970880Y-119913000D02*
X81655920Y-119595500D01*
X81970880Y-119913000D02*
X81655920Y-120230500D01*
D12*
X161581720Y-111937800D02*
X161282000Y-111937800D01*
X161282000Y-111937800D02*
X161282000Y-111328200D01*
X161581720Y-111328200D02*
X161282000Y-111328200D01*
X161581720Y-111937800D02*
X161581720Y-111328200D01*
X160771460Y-111937800D02*
X160469200Y-111937800D01*
X160469200Y-111937800D02*
X160469200Y-111328200D01*
X160771460Y-111328200D02*
X160469200Y-111328200D01*
X160771460Y-111937800D02*
X160771460Y-111328200D01*
D13*
X161297240Y-111404400D02*
X160758760Y-111404400D01*
X160758760Y-111861600D02*
X161297240Y-111861600D01*
D11*
X29116020Y-49245520D02*
X29591000Y-49245520D01*
X29591000Y-49245520D02*
X30065980Y-49245520D01*
X29591000Y-49245520D02*
X29273500Y-49560480D01*
X29591000Y-49245520D02*
X29908500Y-49560480D01*
X34513520Y-49245520D02*
X34988500Y-49245520D01*
X34988500Y-49245520D02*
X35463480Y-49245520D01*
X34988500Y-49245520D02*
X34671000Y-49560480D01*
X34988500Y-49245520D02*
X35306000Y-49560480D01*
D12*
X212715000Y-107737000D02*
X213223000Y-107737000D01*
X213223000Y-107737000D02*
X213223000Y-107229000D01*
X212715000Y-107229000D02*
X213223000Y-107229000D01*
X212715000Y-107737000D02*
X212715000Y-107229000D01*
X210175000Y-107737000D02*
X210683000Y-107737000D01*
X210683000Y-107737000D02*
X210683000Y-107229000D01*
X210175000Y-107229000D02*
X210683000Y-107229000D01*
X210175000Y-107737000D02*
X210175000Y-107229000D01*
X207635000Y-107737000D02*
X208143000Y-107737000D01*
X208143000Y-107737000D02*
X208143000Y-107229000D01*
X207635000Y-107229000D02*
X208143000Y-107229000D01*
X207635000Y-107737000D02*
X207635000Y-107229000D01*
M02*
