G04 #@! TF.FileFunction,Soldermask,Bot*
%FSLAX46Y46*%
G04 Gerber Fmt 4.6, Leading zero omitted, Abs format (unit mm)*
G04 Created by KiCad (PCBNEW 4.0.6) date 03/02/20 07:40:08*
%MOMM*%
%LPD*%
G01*
G04 APERTURE LIST*
%ADD10C,0.100000*%
%ADD11C,3.175000*%
%ADD12C,4.064000*%
%ADD13C,1.854200*%
%ADD14R,1.800000X1.800000*%
%ADD15O,1.800000X1.800000*%
%ADD16C,1.800000*%
%ADD17C,3.000000*%
%ADD18C,2.082800*%
%ADD19R,1.051560X1.102360*%
%ADD20C,1.574800*%
%ADD21O,3.500000X3.500000*%
%ADD22C,2.159000*%
%ADD23C,2.400000*%
%ADD24O,2.400000X2.400000*%
%ADD25O,2.000000X2.000000*%
%ADD26R,2.000000X2.000000*%
G04 APERTURE END LIST*
D10*
D11*
X214929240Y-74284860D03*
D12*
X30035500Y-42100500D03*
X30035500Y-120206000D03*
X199008500Y-120206000D03*
D13*
X107955000Y-86847300D03*
X105415000Y-86847300D03*
X107955000Y-94086300D03*
X105415000Y-94086300D03*
X107955000Y-101325000D03*
X105415000Y-101325000D03*
X150940000Y-41973500D03*
X150940000Y-39433500D03*
X145860000Y-41973500D03*
X145860000Y-39433500D03*
X165481000Y-41973500D03*
X165481000Y-39433500D03*
X170561000Y-41973500D03*
X170561000Y-39433500D03*
D14*
X86741000Y-93154500D03*
D15*
X86741000Y-103314500D03*
D14*
X94361000Y-93154500D03*
D15*
X94361000Y-103314500D03*
D16*
X124587000Y-71882000D03*
X129667000Y-71882000D03*
X132207000Y-71882000D03*
X134747000Y-71882000D03*
X134747000Y-76962000D03*
X132207000Y-76962000D03*
X129667000Y-76962000D03*
D14*
X124587000Y-76962000D03*
D16*
X131064000Y-86233000D03*
X136144000Y-86233000D03*
X138684000Y-86233000D03*
X141224000Y-86233000D03*
X141224000Y-91313000D03*
X138684000Y-91313000D03*
X136144000Y-91313000D03*
D14*
X131064000Y-91313000D03*
D17*
X88248500Y-111125000D03*
X88248500Y-118745000D03*
X108568500Y-111125000D03*
X113568500Y-118745000D03*
X103568500Y-118745000D03*
X103568500Y-111125000D03*
X108568500Y-118745000D03*
X113568500Y-111125000D03*
D18*
X98298000Y-54800500D03*
X100838000Y-54800500D03*
X103378000Y-54800500D03*
X106490000Y-54673500D03*
X109030000Y-54673500D03*
X111570000Y-54673500D03*
X114554000Y-54800500D03*
X117094000Y-54800500D03*
X119634000Y-54800500D03*
X122618000Y-55054500D03*
X125158000Y-55054500D03*
X127698000Y-55054500D03*
X34861500Y-74706600D03*
X34861500Y-67086600D03*
X39941500Y-74706600D03*
X39941500Y-67086600D03*
X45021500Y-74706600D03*
X45021500Y-67086600D03*
X50101500Y-74706600D03*
X50101500Y-67086600D03*
X55181500Y-74706600D03*
X55181500Y-67086600D03*
X60261500Y-74706600D03*
X60261500Y-67086600D03*
X104140000Y-67437000D03*
X104140000Y-59817000D03*
X109220000Y-67437000D03*
X109220000Y-59817000D03*
X114300000Y-67437000D03*
X114300000Y-59817000D03*
X119380000Y-67437000D03*
X119380000Y-59817000D03*
X65341500Y-74706600D03*
X65341500Y-67086600D03*
X70421500Y-74706600D03*
X70421500Y-67086600D03*
X75501500Y-74706600D03*
X75501500Y-67086600D03*
X80581500Y-74706600D03*
X80581500Y-67086600D03*
X85661500Y-74706600D03*
X85661500Y-67086600D03*
X90741500Y-74706600D03*
X90741500Y-67086600D03*
X85661500Y-88201500D03*
X85661500Y-80581500D03*
X90741500Y-88201500D03*
X90741500Y-80581500D03*
X95821500Y-88201500D03*
X95821500Y-80581500D03*
X117069000Y-78943200D03*
X117069000Y-71323200D03*
D19*
X161607120Y-111633000D03*
X160448880Y-111633000D03*
D20*
X74422000Y-95377000D03*
X74422000Y-80137000D03*
X71882000Y-95377000D03*
X71882000Y-80137000D03*
X69342000Y-95377000D03*
X69342000Y-80137000D03*
X66802000Y-95377000D03*
X66802000Y-80137000D03*
X64262000Y-95377000D03*
X64262000Y-80137000D03*
X61722000Y-95377000D03*
X61722000Y-80137000D03*
X59182000Y-95377000D03*
X59182000Y-80137000D03*
X56642000Y-95377000D03*
X56642000Y-80137000D03*
X54102000Y-95377000D03*
X54102000Y-80137000D03*
X51562000Y-95377000D03*
X51562000Y-80137000D03*
X49022000Y-95377000D03*
X49022000Y-80137000D03*
X46482000Y-95377000D03*
X46482000Y-80137000D03*
X43942000Y-95377000D03*
X43942000Y-80137000D03*
X41402000Y-95377000D03*
X41402000Y-80137000D03*
X38862000Y-95377000D03*
X38862000Y-80137000D03*
X74422000Y-115951000D03*
X74422000Y-100711000D03*
X71882000Y-115951000D03*
X71882000Y-100711000D03*
X69342000Y-115951000D03*
X69342000Y-100711000D03*
X66802000Y-115951000D03*
X66802000Y-100711000D03*
X64262000Y-115951000D03*
X64262000Y-100711000D03*
X61722000Y-115951000D03*
X61722000Y-100711000D03*
X59182000Y-115951000D03*
X59182000Y-100711000D03*
X56642000Y-115951000D03*
X56642000Y-100711000D03*
X54102000Y-115951000D03*
X54102000Y-100711000D03*
X51562000Y-115951000D03*
X51562000Y-100711000D03*
X49022000Y-115951000D03*
X49022000Y-100711000D03*
X46482000Y-115951000D03*
X46482000Y-100711000D03*
X43942000Y-115951000D03*
X43942000Y-100711000D03*
X41402000Y-115951000D03*
X41402000Y-100711000D03*
X38862000Y-115951000D03*
X38862000Y-100711000D03*
D21*
X148400000Y-63142000D03*
D14*
X145860000Y-46482000D03*
D15*
X148400000Y-46482000D03*
X150940000Y-46482000D03*
D21*
X168021000Y-63142000D03*
D14*
X165481000Y-46482000D03*
D15*
X168021000Y-46482000D03*
X170561000Y-46482000D03*
D22*
X150749000Y-120269000D03*
X169799000Y-120269000D03*
X169799000Y-107569000D03*
X169799000Y-104394000D03*
X169799000Y-101219000D03*
X169799000Y-85344000D03*
X150749000Y-85344000D03*
D18*
X60642500Y-44831000D03*
X63182500Y-44831000D03*
X65722500Y-44831000D03*
X68262500Y-44831000D03*
X70802500Y-44831000D03*
X73342500Y-44831000D03*
X81343500Y-46164500D03*
X81343500Y-43624500D03*
X83883500Y-46164500D03*
X83883500Y-43624500D03*
X86423500Y-46164500D03*
X86423500Y-43624500D03*
X88963500Y-46164500D03*
X88963500Y-43624500D03*
X91503500Y-46164500D03*
X91503500Y-43624500D03*
X94043500Y-46164500D03*
X94043500Y-43624500D03*
X96583500Y-46164500D03*
X96583500Y-43624500D03*
X99123500Y-46164500D03*
X99123500Y-43624500D03*
X101663500Y-46164500D03*
X101663500Y-43624500D03*
X110998000Y-46164500D03*
X110998000Y-43624500D03*
X113538000Y-46164500D03*
X113538000Y-43624500D03*
X116078000Y-46164500D03*
X116078000Y-43624500D03*
X118618000Y-46164500D03*
X118618000Y-43624500D03*
X121158000Y-46164500D03*
X121158000Y-43624500D03*
X123698000Y-46164500D03*
X123698000Y-43624500D03*
X126238000Y-46164500D03*
X126238000Y-43624500D03*
D13*
X139776000Y-116103000D03*
X139776000Y-113563000D03*
X128270000Y-107061000D03*
X128270000Y-104521000D03*
X139929000Y-107239000D03*
X139929000Y-104699000D03*
X128143000Y-116230000D03*
X128143000Y-113690000D03*
X133985000Y-61214000D03*
X133985000Y-58674000D03*
D12*
X199009000Y-42100500D03*
D23*
X183832000Y-77914500D03*
D24*
X183832000Y-47434500D03*
D23*
X183832000Y-114998000D03*
D24*
X183832000Y-84518000D03*
D23*
X194628000Y-77851000D03*
D24*
X194628000Y-47371000D03*
D23*
X194691000Y-114998000D03*
D24*
X194691000Y-84518000D03*
D25*
X103955000Y-79481300D03*
X109035000Y-74401300D03*
X103955000Y-74401300D03*
D26*
X109035000Y-79481300D03*
D18*
X29781500Y-74706600D03*
X29781500Y-67086600D03*
X138176000Y-44894500D03*
X135636000Y-44894500D03*
X49403000Y-44894500D03*
X51943000Y-44894500D03*
D14*
X112740000Y-85191600D03*
D15*
X122900000Y-85191600D03*
D14*
X112740000Y-90388400D03*
D15*
X122900000Y-90388400D03*
D14*
X112740000Y-95585300D03*
D15*
X122900000Y-95585300D03*
D14*
X112740000Y-100782000D03*
D15*
X122900000Y-100782000D03*
D18*
X207889000Y-107483000D03*
X210429000Y-107483000D03*
X212969000Y-107483000D03*
X186538000Y-40970200D03*
X183998000Y-40970200D03*
D11*
X206040000Y-74284800D03*
D16*
X143637000Y-71882000D03*
X148717000Y-71882000D03*
X151257000Y-71882000D03*
X153797000Y-71882000D03*
X153797000Y-76962000D03*
X151257000Y-76962000D03*
X148717000Y-76962000D03*
D14*
X143637000Y-76962000D03*
D16*
X162865000Y-71755000D03*
X167945000Y-71755000D03*
X170485000Y-71755000D03*
X173025000Y-71755000D03*
X173025000Y-76835000D03*
X170485000Y-76835000D03*
X167945000Y-76835000D03*
D14*
X162865000Y-76835000D03*
D16*
X215519000Y-57150000D03*
X210439000Y-57150000D03*
X207899000Y-57150000D03*
X205359000Y-57150000D03*
X205359000Y-52070000D03*
X207899000Y-52070000D03*
X210439000Y-52070000D03*
D14*
X215519000Y-52070000D03*
D16*
X215392000Y-67945000D03*
X210312000Y-67945000D03*
X207772000Y-67945000D03*
X205232000Y-67945000D03*
X205232000Y-62865000D03*
X207772000Y-62865000D03*
X210312000Y-62865000D03*
D14*
X215392000Y-62865000D03*
M02*
