G04 #@! TF.FileFunction,Legend,Bot*
%FSLAX46Y46*%
G04 Gerber Fmt 4.6, Leading zero omitted, Abs format (unit mm)*
G04 Created by KiCad (PCBNEW 4.0.6) date 03/02/20 07:40:08*
%MOMM*%
%LPD*%
G01*
G04 APERTURE LIST*
%ADD10C,0.100000*%
%ADD11C,0.300000*%
%ADD12C,0.066040*%
%ADD13C,0.150000*%
G04 APERTURE END LIST*
D10*
D11*
X193554641Y-117969071D02*
X193554641Y-118969071D01*
X193911784Y-117397643D02*
X194268927Y-118469071D01*
X193340355Y-118469071D01*
X192054641Y-117469071D02*
X192768927Y-117469071D01*
X192840356Y-118183357D01*
X192768927Y-118111929D01*
X192626070Y-118040500D01*
X192268927Y-118040500D01*
X192126070Y-118111929D01*
X192054641Y-118183357D01*
X191983213Y-118326214D01*
X191983213Y-118683357D01*
X192054641Y-118826214D01*
X192126070Y-118897643D01*
X192268927Y-118969071D01*
X192626070Y-118969071D01*
X192768927Y-118897643D01*
X192840356Y-118826214D01*
X191340356Y-118397643D02*
X190197499Y-118397643D01*
X188697499Y-118969071D02*
X189554642Y-118969071D01*
X189126070Y-118969071D02*
X189126070Y-117469071D01*
X189268927Y-117683357D01*
X189411785Y-117826214D01*
X189554642Y-117897643D01*
X187340356Y-117469071D02*
X188054642Y-117469071D01*
X188126071Y-118183357D01*
X188054642Y-118111929D01*
X187911785Y-118040500D01*
X187554642Y-118040500D01*
X187411785Y-118111929D01*
X187340356Y-118183357D01*
X187268928Y-118326214D01*
X187268928Y-118683357D01*
X187340356Y-118826214D01*
X187411785Y-118897643D01*
X187554642Y-118969071D01*
X187911785Y-118969071D01*
X188054642Y-118897643D01*
X188126071Y-118826214D01*
X186697500Y-117611929D02*
X186626071Y-117540500D01*
X186483214Y-117469071D01*
X186126071Y-117469071D01*
X185983214Y-117540500D01*
X185911785Y-117611929D01*
X185840357Y-117754786D01*
X185840357Y-117897643D01*
X185911785Y-118111929D01*
X186768928Y-118969071D01*
X185840357Y-118969071D01*
X185340357Y-117469071D02*
X184411786Y-117469071D01*
X184911786Y-118040500D01*
X184697500Y-118040500D01*
X184554643Y-118111929D01*
X184483214Y-118183357D01*
X184411786Y-118326214D01*
X184411786Y-118683357D01*
X184483214Y-118826214D01*
X184554643Y-118897643D01*
X184697500Y-118969071D01*
X185126072Y-118969071D01*
X185268929Y-118897643D01*
X185340357Y-118826214D01*
X183768929Y-118397643D02*
X182626072Y-118397643D01*
X181126072Y-118969071D02*
X181983215Y-118969071D01*
X181554643Y-118969071D02*
X181554643Y-117469071D01*
X181697500Y-117683357D01*
X181840358Y-117826214D01*
X181983215Y-117897643D01*
X179554644Y-117469071D02*
X178697501Y-117469071D01*
X179126072Y-118969071D02*
X179126072Y-117469071D01*
X177626073Y-118897643D02*
X177768930Y-118969071D01*
X178054644Y-118969071D01*
X178197501Y-118897643D01*
X178268930Y-118754786D01*
X178268930Y-118183357D01*
X178197501Y-118040500D01*
X178054644Y-117969071D01*
X177768930Y-117969071D01*
X177626073Y-118040500D01*
X177554644Y-118183357D01*
X177554644Y-118326214D01*
X178268930Y-118469071D01*
X176983216Y-118897643D02*
X176840359Y-118969071D01*
X176554644Y-118969071D01*
X176411787Y-118897643D01*
X176340359Y-118754786D01*
X176340359Y-118683357D01*
X176411787Y-118540500D01*
X176554644Y-118469071D01*
X176768930Y-118469071D01*
X176911787Y-118397643D01*
X176983216Y-118254786D01*
X176983216Y-118183357D01*
X176911787Y-118040500D01*
X176768930Y-117969071D01*
X176554644Y-117969071D01*
X176411787Y-118040500D01*
X175911787Y-117969071D02*
X175340358Y-117969071D01*
X175697501Y-117469071D02*
X175697501Y-118754786D01*
X175626073Y-118897643D01*
X175483215Y-118969071D01*
X175340358Y-118969071D01*
X174268930Y-118897643D02*
X174411787Y-118969071D01*
X174697501Y-118969071D01*
X174840358Y-118897643D01*
X174911787Y-118754786D01*
X174911787Y-118183357D01*
X174840358Y-118040500D01*
X174697501Y-117969071D01*
X174411787Y-117969071D01*
X174268930Y-118040500D01*
X174197501Y-118183357D01*
X174197501Y-118326214D01*
X174911787Y-118469071D01*
X173554644Y-118969071D02*
X173554644Y-117969071D01*
X173554644Y-118254786D02*
X173483216Y-118111929D01*
X173411787Y-118040500D01*
X173268930Y-117969071D01*
X173126073Y-117969071D01*
X185626071Y-121519071D02*
X186126071Y-120804786D01*
X186483214Y-121519071D02*
X186483214Y-120019071D01*
X185911786Y-120019071D01*
X185768928Y-120090500D01*
X185697500Y-120161929D01*
X185626071Y-120304786D01*
X185626071Y-120519071D01*
X185697500Y-120661929D01*
X185768928Y-120733357D01*
X185911786Y-120804786D01*
X186483214Y-120804786D01*
X184411786Y-121447643D02*
X184554643Y-121519071D01*
X184840357Y-121519071D01*
X184983214Y-121447643D01*
X185054643Y-121304786D01*
X185054643Y-120733357D01*
X184983214Y-120590500D01*
X184840357Y-120519071D01*
X184554643Y-120519071D01*
X184411786Y-120590500D01*
X184340357Y-120733357D01*
X184340357Y-120876214D01*
X185054643Y-121019071D01*
X183840357Y-120519071D02*
X183483214Y-121519071D01*
X183126072Y-120519071D01*
X182554643Y-121376214D02*
X182483215Y-121447643D01*
X182554643Y-121519071D01*
X182626072Y-121447643D01*
X182554643Y-121376214D01*
X182554643Y-121519071D01*
X179840357Y-121376214D02*
X179911786Y-121447643D01*
X180126072Y-121519071D01*
X180268929Y-121519071D01*
X180483214Y-121447643D01*
X180626072Y-121304786D01*
X180697500Y-121161929D01*
X180768929Y-120876214D01*
X180768929Y-120661929D01*
X180697500Y-120376214D01*
X180626072Y-120233357D01*
X180483214Y-120090500D01*
X180268929Y-120019071D01*
X180126072Y-120019071D01*
X179911786Y-120090500D01*
X179840357Y-120161929D01*
X184447499Y-122569071D02*
X183447499Y-122569071D01*
X184447499Y-124069071D01*
X183447499Y-124069071D01*
X182876071Y-124069071D02*
X182876071Y-122569071D01*
X182518928Y-122569071D01*
X182304643Y-122640500D01*
X182161785Y-122783357D01*
X182090357Y-122926214D01*
X182018928Y-123211929D01*
X182018928Y-123426214D01*
X182090357Y-123711929D01*
X182161785Y-123854786D01*
X182304643Y-123997643D01*
X182518928Y-124069071D01*
X182876071Y-124069071D01*
D12*
X161226120Y-111932720D02*
X160829880Y-111932720D01*
X160829880Y-111932720D02*
X160829880Y-111333280D01*
X161226120Y-111333280D02*
X160829880Y-111333280D01*
X161226120Y-111932720D02*
X161226120Y-111333280D01*
D13*
X161681143Y-110759119D02*
X162019809Y-110275310D01*
X162261714Y-110759119D02*
X162261714Y-109743119D01*
X161874667Y-109743119D01*
X161777905Y-109791500D01*
X161729524Y-109839881D01*
X161681143Y-109936643D01*
X161681143Y-110081786D01*
X161729524Y-110178548D01*
X161777905Y-110226929D01*
X161874667Y-110275310D01*
X162261714Y-110275310D01*
X161294095Y-109839881D02*
X161245714Y-109791500D01*
X161148952Y-109743119D01*
X160907048Y-109743119D01*
X160810286Y-109791500D01*
X160761905Y-109839881D01*
X160713524Y-109936643D01*
X160713524Y-110033405D01*
X160761905Y-110178548D01*
X161342476Y-110759119D01*
X160713524Y-110759119D01*
X159794286Y-109743119D02*
X160278095Y-109743119D01*
X160326476Y-110226929D01*
X160278095Y-110178548D01*
X160181333Y-110130167D01*
X159939429Y-110130167D01*
X159842667Y-110178548D01*
X159794286Y-110226929D01*
X159745905Y-110323690D01*
X159745905Y-110565595D01*
X159794286Y-110662357D01*
X159842667Y-110710738D01*
X159939429Y-110759119D01*
X160181333Y-110759119D01*
X160278095Y-110710738D01*
X160326476Y-110662357D01*
M02*
