M48
;DRILL file {KiCad 4.0.6} date 03/02/20 07:40:10
;FORMAT={-:-/ absolute / inch / decimal}
FMAT,2
INCH,TZ
T1C0.016
T2C0.028
T3C0.031
T4C0.032
T5C0.035
T6C0.035
T7C0.039
T8C0.040
T9C0.047
T10C0.051
%
G90
G05
M72
T1
X1.3775Y-2.021
X1.4647Y-2.5319
X1.8415Y-2.3997
X2.1829Y-2.0817
X2.2975Y-2.4006
X2.3113Y-2.0739
X2.6402Y-2.2397
X2.6656Y-2.3944
X3.122Y-1.938
X3.2725Y-2.6505
X3.3254Y-1.965
X3.3662Y-2.5767
X3.4291Y-2.5548
X3.5018Y-2.0008
X3.5144Y-2.3913
X3.6212Y-2.0487
X4.1234Y-3.0471
X4.3905Y-2.9416
X4.7693Y-2.1549
X5.2392Y-1.9869
X5.5889Y-3.7872
X7.369Y-1.764
T2
X4.1502Y-3.4192
X4.1502Y-3.7042
X4.1502Y-3.9892
X4.2502Y-3.4192
X4.2502Y-3.7042
X4.2502Y-3.9892
X5.045Y-4.476
X5.045Y-4.576
X5.05Y-4.115
X5.05Y-4.215
X5.275Y-2.31
X5.275Y-2.41
X5.503Y-4.471
X5.503Y-4.571
X5.509Y-4.122
X5.509Y-4.222
X5.7425Y-1.5525
X5.7425Y-1.6525
X5.9425Y-1.5525
X5.9425Y-1.6525
X6.515Y-1.5525
X6.515Y-1.6525
X6.715Y-1.5525
X6.715Y-1.6525
T3
X1.53Y-3.155
X1.53Y-3.755
X1.53Y-3.965
X1.53Y-4.565
X1.63Y-3.155
X1.63Y-3.755
X1.63Y-3.965
X1.63Y-4.565
X1.73Y-3.155
X1.73Y-3.755
X1.73Y-3.965
X1.73Y-4.565
X1.83Y-3.155
X1.83Y-3.755
X1.83Y-3.965
X1.83Y-4.565
X1.93Y-3.155
X1.93Y-3.755
X1.93Y-3.965
X1.93Y-4.565
X2.03Y-3.155
X2.03Y-3.755
X2.03Y-3.965
X2.03Y-4.565
X2.13Y-3.155
X2.13Y-3.755
X2.13Y-3.965
X2.13Y-4.565
X2.23Y-3.155
X2.23Y-3.755
X2.23Y-3.965
X2.23Y-4.565
X2.33Y-3.155
X2.33Y-3.755
X2.33Y-3.965
X2.33Y-4.565
X2.43Y-3.155
X2.43Y-3.755
X2.43Y-3.965
X2.43Y-4.565
X2.53Y-3.155
X2.53Y-3.755
X2.53Y-3.965
X2.53Y-4.565
X2.63Y-3.155
X2.63Y-3.755
X2.63Y-3.965
X2.63Y-4.565
X2.73Y-3.155
X2.73Y-3.755
X2.73Y-3.965
X2.73Y-4.565
X2.83Y-3.155
X2.83Y-3.755
X2.83Y-3.965
X2.83Y-4.565
X2.93Y-3.155
X2.93Y-3.755
X2.93Y-3.965
X2.93Y-4.565
X4.905Y-2.83
X4.905Y-3.03
X5.105Y-2.83
X5.105Y-3.03
X5.16Y-3.395
X5.16Y-3.595
X5.205Y-2.83
X5.205Y-3.03
X5.305Y-2.83
X5.305Y-3.03
X5.36Y-3.395
X5.36Y-3.595
X5.46Y-3.395
X5.46Y-3.595
X5.56Y-3.395
X5.56Y-3.595
X5.655Y-2.83
X5.655Y-3.03
X5.855Y-2.83
X5.855Y-3.03
X5.955Y-2.83
X5.955Y-3.03
X6.055Y-2.83
X6.055Y-3.03
X6.412Y-2.825
X6.412Y-3.025
X6.612Y-2.825
X6.612Y-3.025
X6.712Y-2.825
X6.712Y-3.025
X6.812Y-2.825
X6.812Y-3.025
X8.08Y-2.475
X8.08Y-2.675
X8.085Y-2.05
X8.085Y-2.25
X8.18Y-2.475
X8.18Y-2.675
X8.185Y-2.05
X8.185Y-2.25
X8.28Y-2.475
X8.28Y-2.675
X8.285Y-2.05
X8.285Y-2.25
X8.48Y-2.475
X8.48Y-2.675
X8.485Y-2.05
X8.485Y-2.25
T4
X3.87Y-2.1575
X3.97Y-2.1575
X4.07Y-2.1575
X4.1925Y-2.1525
X4.2925Y-2.1525
X4.3925Y-2.1525
X4.51Y-2.1575
X4.61Y-2.1575
X4.71Y-2.1575
X4.8275Y-2.1675
X4.9275Y-2.1675
X5.0275Y-2.1675
T5
X1.1725Y-2.6412
X1.1725Y-2.9412
X1.3725Y-2.6412
X1.3725Y-2.9412
X1.5725Y-2.6412
X1.5725Y-2.9412
X1.7725Y-2.6412
X1.7725Y-2.9412
X1.9725Y-2.6412
X1.9725Y-2.9412
X2.1725Y-2.6412
X2.1725Y-2.9412
X2.3725Y-2.6412
X2.3725Y-2.9412
X2.5725Y-2.6412
X2.5725Y-2.9412
X2.7725Y-2.6412
X2.7725Y-2.9412
X2.9725Y-2.6412
X2.9725Y-2.9412
X3.1725Y-2.6412
X3.1725Y-2.9412
X3.3725Y-2.6412
X3.3725Y-2.9412
X3.3725Y-3.1725
X3.3725Y-3.4725
X3.5725Y-2.6412
X3.5725Y-2.9412
X3.5725Y-3.1725
X3.5725Y-3.4725
X3.7725Y-3.1725
X3.7725Y-3.4725
X4.1Y-2.355
X4.1Y-2.655
X4.3Y-2.355
X4.3Y-2.655
X4.5Y-2.355
X4.5Y-2.655
X4.609Y-2.808
X4.609Y-3.108
X4.7Y-2.355
X4.7Y-2.655
T6
X3.415Y-3.6675
X3.415Y-4.0675
X3.715Y-3.6675
X3.715Y-4.0675
X4.4386Y-3.354
X4.4386Y-3.5586
X4.4386Y-3.7632
X4.4386Y-3.9678
X4.8386Y-3.354
X4.8386Y-3.5586
X4.8386Y-3.7632
X4.8386Y-3.9678
T7
X4.0927Y-2.9292
X4.0927Y-3.1292
X4.2927Y-2.9292
X4.2927Y-3.1292
X5.7425Y-1.83
X5.8425Y-1.83
X5.9425Y-1.83
X6.515Y-1.83
X6.615Y-1.83
X6.715Y-1.83
T8
X1.945Y-1.7675
X2.045Y-1.7675
X2.3875Y-1.765
X2.4875Y-1.765
X2.5875Y-1.765
X2.6875Y-1.765
X2.7875Y-1.765
X2.8875Y-1.765
X3.2025Y-1.7175
X3.2025Y-1.8175
X3.3025Y-1.7175
X3.3025Y-1.8175
X3.4025Y-1.7175
X3.4025Y-1.8175
X3.5025Y-1.7175
X3.5025Y-1.8175
X3.6025Y-1.7175
X3.6025Y-1.8175
X3.7025Y-1.7175
X3.7025Y-1.8175
X3.8025Y-1.7175
X3.8025Y-1.8175
X3.9025Y-1.7175
X3.9025Y-1.8175
X4.0025Y-1.7175
X4.0025Y-1.8175
X4.37Y-1.7175
X4.37Y-1.8175
X4.47Y-1.7175
X4.47Y-1.8175
X4.57Y-1.7175
X4.57Y-1.8175
X4.67Y-1.7175
X4.67Y-1.8175
X4.77Y-1.7175
X4.77Y-1.8175
X4.87Y-1.7175
X4.87Y-1.8175
X4.97Y-1.7175
X4.97Y-1.8175
X5.34Y-1.7675
X5.44Y-1.7675
X5.935Y-3.36
X5.935Y-4.735
X6.685Y-3.36
X6.685Y-3.985
X6.685Y-4.11
X6.685Y-4.235
X6.685Y-4.735
X7.244Y-1.613
X7.344Y-1.613
X8.1846Y-4.2316
X8.2846Y-4.2316
X8.3846Y-4.2316
T9
X7.2375Y-1.8675
X7.2375Y-3.0675
X7.2375Y-3.3275
X7.2375Y-4.5275
X7.6625Y-1.865
X7.6625Y-3.065
X7.665Y-3.3275
X7.665Y-4.5275
T10
X3.4744Y-4.375
X3.4744Y-4.675
X4.0775Y-4.375
X4.0775Y-4.675
X4.2744Y-4.375
X4.2744Y-4.675
X4.4712Y-4.375
X4.4712Y-4.675
T0
M30
